<svg xmlns="http://www.w3.org/2000/svg" width="22" height="22" viewBox="0 0 22 22">
  <metadata><?xpacket begin="﻿" id="W5M0MpCehiHzreSzNTczkc9d"?>
<x:xmpmeta xmlns:x="adobe:ns:meta/" x:xmptk="Adobe XMP Core 5.6-c140 79.160451, 2017/05/06-01:08:21        ">
   <rdf:RDF xmlns:rdf="http://www.w3.org/1999/02/22-rdf-syntax-ns#">
      <rdf:Description rdf:about=""/>
   </rdf:RDF>
</x:xmpmeta>
                                                                                                    
                                                                                                    
                                                                                                    
                                                                                                    
                                                                                                    
                                                                                                    
                                                                                                    
                                                                                                    
                                                                                                    
                                                                                                    
                                                                                                    
                                                                                                    
                                                                                                    
                                                                                                    
                                                                                                    
                                                                                                    
                                                                                                    
                                                                                                    
                                                                                                    
                                                                                                    
                           
<?xpacket end="w"?></metadata>
<defs>
    <style>
      .cls-1 {
        fill: #fff;
        fill-rule: evenodd;
      }
    </style>
  </defs>
  <path id="Twitter" class="cls-1" d="M22.078,4.971a8.851,8.851,0,0,1-2.521.683,4.364,4.364,0,0,0,1.929-2.4A8.858,8.858,0,0,1,18.7,4.306a4.4,4.4,0,0,0-7.593,2.967,4.253,4.253,0,0,0,.115.99A12.514,12.514,0,0,1,2.172,3.731a4.271,4.271,0,0,0-.594,2.181A4.322,4.322,0,0,0,3.53,9.521,4.4,4.4,0,0,1,1.542,8.98V9.035a4.355,4.355,0,0,0,3.52,4.254,4.466,4.466,0,0,1-1.982.074,4.34,4.34,0,0,0,4.1,2.958,8.926,8.926,0,0,1-5.452,1.912,9.267,9.267,0,0,1-1.047-.06,12.5,12.5,0,0,0,6.729,1.893A12.283,12.283,0,0,0,19.9,7.777c0-.188,0-0.375-0.014-0.561a8.886,8.886,0,0,0,2.191-2.245h0Z"/>
</svg>
