<svg xmlns="http://www.w3.org/2000/svg" width="22" height="22" viewBox="0 0 22 22">
  <metadata><?xpacket begin="﻿" id="W5M0MpCehiHzreSzNTczkc9d"?>
<x:xmpmeta xmlns:x="adobe:ns:meta/" x:xmptk="Adobe XMP Core 5.6-c140 79.160451, 2017/05/06-01:08:21        ">
   <rdf:RDF xmlns:rdf="http://www.w3.org/1999/02/22-rdf-syntax-ns#">
      <rdf:Description rdf:about=""/>
   </rdf:RDF>
</x:xmpmeta>
                                                                                                    
                                                                                                    
                                                                                                    
                                                                                                    
                                                                                                    
                                                                                                    
                                                                                                    
                                                                                                    
                                                                                                    
                                                                                                    
                                                                                                    
                                                                                                    
                                                                                                    
                                                                                                    
                                                                                                    
                                                                                                    
                                                                                                    
                                                                                                    
                                                                                                    
                                                                                                    
                           
<?xpacket end="w"?></metadata>
<defs>
    <style>
      .cls-1 {
        fill: #fff;
        fill-rule: evenodd;
      }
    </style>
  </defs>
  <path id="Instagram" class="cls-1" d="M20.924,14.812a7.685,7.685,0,0,1-.488,2.546,5.36,5.36,0,0,1-3.067,3.068,7.721,7.721,0,0,1-2.546.488c-1.119.05-.476,0.061-3.325,0.061s-2.206-.011-3.324-0.061a7.721,7.721,0,0,1-2.546-.488,5.162,5.162,0,0,1-1.857-1.21,5.138,5.138,0,0,1-1.21-1.858,7.7,7.7,0,0,1-.488-2.546c-0.051-1.119-.063-0.476-0.063-3.324s0.013-2.207.063-3.325A7.7,7.7,0,0,1,2.56,5.617,5.124,5.124,0,0,1,3.77,3.76,5.139,5.139,0,0,1,5.627,2.549a7.681,7.681,0,0,1,2.546-.487C9.292,2.01,8.65,2,11.5,2s2.206,0.012,3.325.064a7.681,7.681,0,0,1,2.546.487,5.367,5.367,0,0,1,3.067,3.068,7.684,7.684,0,0,1,.488,2.546c0.051,1.119.063,0.475,0.063,3.325S20.974,13.693,20.924,14.812Zm-1.935-6.54a5.8,5.8,0,0,0-.359-1.937,3.239,3.239,0,0,0-.781-1.2,3.217,3.217,0,0,0-1.2-.78A5.765,5.765,0,0,0,14.713,4c-1.1-.049-0.429-0.061-3.215-0.061S9.383,3.947,8.282,4a5.765,5.765,0,0,0-1.937.359,3.221,3.221,0,0,0-1.2.78,3.249,3.249,0,0,0-.781,1.2,5.8,5.8,0,0,0-.359,1.937c-0.05,1.1-.061.43-0.061,3.216S3.958,13.6,4.007,14.7a5.786,5.786,0,0,0,.359,1.937,3.459,3.459,0,0,0,1.98,1.98,5.783,5.783,0,0,0,1.937.359c1.1,0.05.43,0.061,3.215,0.061s2.115-.011,3.215-0.061a5.783,5.783,0,0,0,1.937-.359,3.459,3.459,0,0,0,1.98-1.98,5.783,5.783,0,0,0,.359-1.937c0.05-1.1.061-.429,0.061-3.214S19.039,9.372,18.988,8.272Zm-2.954,0a1.259,1.259,0,1,1,1.259-1.258A1.258,1.258,0,0,1,16.034,8.272ZM16.024,11.5c0,3.043-1.467,4.511-4.511,4.511S7,14.546,7,11.5s1.468-4.51,4.511-4.51S16.024,8.459,16.024,11.5ZM11.513,8.926c-1.975,0-2.577.6-2.577,2.577s0.6,2.577,2.577,2.577,2.578-.6,2.578-2.577S13.489,8.926,11.513,8.926Z"/>
</svg>
