<svg xmlns="http://www.w3.org/2000/svg" width="32" height="30" viewBox="0 0 32 30">
  <defs>
    <style>
      .cls-1 {
        fill: #ffffff;
        fill-rule: evenodd;
      }
    </style>
  </defs>
  <path id="_" data-name="#" class="cls-1" d="M27.171,29H5.845a1.848,1.848,0,0,1-1.838-1.858L3.991,26.018c0-5.187,8.237-8.037,11.764-8.037H17.2c3.527,0,11.8,2.85,11.8,8.037v1.119h0A1.848,1.848,0,0,1,27.171,29Zm0.436-1.858V26.018c0-4.08-7.4-6.637-10.4-6.637H15.755c-2.993,0-10.364,2.557-10.364,6.637l0.016,1.1a0.454,0.454,0,0,0,.438.478H27.171a0.447,0.447,0,0,0,.436-0.421V27.138ZM16.748,16H16.221c-2.382,0-5.234-3.062-5.234-5.8l0.018-2.66A5.385,5.385,0,0,1,16.221,2h0.527A5.352,5.352,0,0,1,21.99,7.483L21.982,10.2C21.982,12.938,19.117,16,16.748,16Zm0-12.594H16.221a3.991,3.991,0,0,0-3.815,4.138l-0.018,2.67c0,2.028,2.32,4.386,3.834,4.386h0.527c1.514,0,3.834-2.358,3.834-4.4L20.59,7.462A3.953,3.953,0,0,0,16.748,3.4Z"/>
</svg>
