<svg xmlns="http://www.w3.org/2000/svg" width="158" height="38" viewBox="0 0 158 38">
  <metadata><?xpacket begin="﻿" id="W5M0MpCehiHzreSzNTczkc9d"?>
<x:xmpmeta xmlns:x="adobe:ns:meta/" x:xmptk="Adobe XMP Core 5.6-c140 79.160451, 2017/05/06-01:08:21        ">
   <rdf:RDF xmlns:rdf="http://www.w3.org/1999/02/22-rdf-syntax-ns#">
      <rdf:Description rdf:about=""/>
   </rdf:RDF>
</x:xmpmeta>
                                                                                                    
                                                                                                    
                                                                                                    
                                                                                                    
                                                                                                    
                                                                                                    
                                                                                                    
                                                                                                    
                                                                                                    
                                                                                                    
                                                                                                    
                                                                                                    
                                                                                                    
                                                                                                    
                                                                                                    
                                                                                                    
                                                                                                    
                                                                                                    
                                                                                                    
                                                                                                    
                           
<?xpacket end="w"?></metadata>
<defs>
    <style>
      .cls-1 {
        fill: #fff;
      }

      .cls-1, .cls-2, .cls-3 {
        fill-rule: evenodd;
      }

      .cls-2 {
        fill: #abaeb2;
      }

      .cls-3 {
        fill: #007fe0;
      }
    </style>
  </defs>
  <path id="_" data-name="#" class="cls-1" d="M157.953,17.038h-9.915a3.849,3.849,0,0,0,3.885,3.519,4.9,4.9,0,0,0,3.654-1.61l1.814,1.61a6.825,6.825,0,0,1-5.52,2.53,6.708,6.708,0,0,1-6.893-7V16.032c0-3.859,2.7-7.029,6.561-7.029,4.293,0,6.465,3.28,6.465,7.165C158,16.45,157.979,16.731,157.953,17.038Zm-6.439-5.5c-1.891,0-3.22,1.363-3.5,3.459h6.925C154.733,13,153.558,11.534,151.514,11.534Zm-11.528,3.74c0-2.171-1.048-3.3-2.876-3.3-1.774,0-3.1,1.158-3.1,3.354v7.639H131V15.248c0-2.119-1.167-3.277-2.962-3.277s-3.027,1.167-3.027,3.287v7.707H121.99V9.006H125v2.349A5.246,5.246,0,0,1,129.364,9a4.349,4.349,0,0,1,4.106,2.4A5.657,5.657,0,0,1,138.151,9c3.007,0,4.837,1.887,4.837,5.221v8.741h-3V15.274Zm-27.043,7.782a6.879,6.879,0,0,1-6.969-6.963V16.042a7.006,7.006,0,1,1,14.012-.051v0.051A6.953,6.953,0,0,1,112.943,23.056Zm4.032-7.014a4.119,4.119,0,0,0-4.032-4.336,4,4,0,0,0-3.957,4.285v0.051a4.129,4.129,0,0,0,4.007,4.336,4.019,4.019,0,0,0,3.982-4.285V16.042Zm-15.981-.862c0-2.119-1.028-3.334-2.888-3.334A3.058,3.058,0,0,0,95,15.232v7.7H92V4h3v7.4A4.909,4.909,0,0,1,99.263,9C102.338,9,104,11.071,104,14.25v8.684h-3V15.18Z"/>
  <path id="_2" data-name="#" class="cls-2" d="M153.807,35.276a2.334,2.334,0,0,0,.14.752,1.8,1.8,0,0,0,.367.607,1.746,1.746,0,0,0,.573.409,1.84,1.84,0,0,0,.76.15,1.947,1.947,0,0,0,.952-0.215,2.347,2.347,0,0,0,.682-0.57l0.648,0.473a2.7,2.7,0,0,1-.361.417,2.439,2.439,0,0,1-.5.36,2.692,2.692,0,0,1-.651.253,3.347,3.347,0,0,1-.831.094,3.14,3.14,0,0,1-1.173-.21,2.618,2.618,0,0,1-.9-0.583,2.55,2.55,0,0,1-.574-0.89,3.1,3.1,0,0,1-.2-1.129V34.97a3.354,3.354,0,0,1,.226-1.268,2.826,2.826,0,0,1,.6-0.941,2.637,2.637,0,0,1,1.881-.785,2.77,2.77,0,0,1,1.147.218,2.154,2.154,0,0,1,.794.6,2.5,2.5,0,0,1,.462.9,4.127,4.127,0,0,1,.149,1.134v0.446h-4.2Zm3.142-.892a2.593,2.593,0,0,0-.1-0.575,1.506,1.506,0,0,0-.258-0.511,1.3,1.3,0,0,0-.45-0.365,1.5,1.5,0,0,0-.682-0.14,1.551,1.551,0,0,0-.591.11,1.471,1.471,0,0,0-.481.32,1.708,1.708,0,0,0-.353.521,2.485,2.485,0,0,0-.192.715h3.108V34.384Zm-5.772-1.446a1.616,1.616,0,0,0-.9.226,1.383,1.383,0,0,0-.519.607V37.9H148.7V32.083h1.032l0.017,0.672a1.825,1.825,0,0,1,.6-0.57,1.723,1.723,0,0,1,.878-0.21,1.663,1.663,0,0,1,.263.024,0.881,0.881,0,0,1,.207.051v0.925q-0.138-.021-0.255-0.029T151.177,32.938Zm-4.34,4.227a2.582,2.582,0,0,1-.889.618,3.208,3.208,0,0,1-2.351,0,2.568,2.568,0,0,1-.888-0.618,2.738,2.738,0,0,1-.565-0.935,3.387,3.387,0,0,1-.2-1.174V34.938a3.387,3.387,0,0,1,.2-1.174,2.793,2.793,0,0,1,.562-0.938,2.557,2.557,0,0,1,.886-0.623,2.91,2.91,0,0,1,1.169-.226,2.964,2.964,0,0,1,1.184.226,2.591,2.591,0,0,1,.892.624,2.73,2.73,0,0,1,.562.938,3.434,3.434,0,0,1,.195,1.174v0.118a3.434,3.434,0,0,1-.195,1.174A2.7,2.7,0,0,1,146.837,37.166Zm-0.3-2.228a2.942,2.942,0,0,0-.112-0.82,2.063,2.063,0,0,0-.332-0.683,1.6,1.6,0,0,0-1.328-.642,1.594,1.594,0,0,0-.762.175,1.65,1.65,0,0,0-.548.468,2.041,2.041,0,0,0-.33.683,3.057,3.057,0,0,0-.109.82v0.118a3.047,3.047,0,0,0,.109.822,2.042,2.042,0,0,0,.33.68,1.614,1.614,0,0,0,.551.465,1.807,1.807,0,0,0,1.539,0,1.586,1.586,0,0,0,.551-0.465,2.1,2.1,0,0,0,.329-0.68,2.933,2.933,0,0,0,.112-0.822V34.938Zm-6.809,3.069a1.93,1.93,0,0,1-.554-0.078,1.13,1.13,0,0,1-.456-0.261,1.265,1.265,0,0,1-.309-0.481,2.042,2.042,0,0,1-.115-0.734v-3.6h-1.13V32.083h1.13V30.675h1.061v1.408h1.158v0.769h-1.158v3.607a0.96,0.96,0,0,0,.057.363,0.519,0.519,0,0,0,.152.212,0.5,0.5,0,0,0,.218.1,1.321,1.321,0,0,0,.255.024,1.7,1.7,0,0,0,.278-0.024c0.1-.016.173-0.03,0.227-0.04V37.9q-0.126.032-.327,0.07A2.7,2.7,0,0,1,139.724,38.007Zm-6.995-3.835a1.834,1.834,0,0,0,.438.194,7.4,7.4,0,0,0,.72.18,7.334,7.334,0,0,1,.986.28,2.742,2.742,0,0,1,.694.363,1.357,1.357,0,0,1,.41.476,1.372,1.372,0,0,1,.135.624,1.469,1.469,0,0,1-.169.7,1.584,1.584,0,0,1-.485.543,2.435,2.435,0,0,1-.757.352,3.556,3.556,0,0,1-.98.126,3.389,3.389,0,0,1-1.093-.161,2.492,2.492,0,0,1-.794-0.427,1.826,1.826,0,0,1-.487-0.607,1.583,1.583,0,0,1-.166-0.7h1.06a1,1,0,0,0,.158.513,1.132,1.132,0,0,0,.353.336,1.475,1.475,0,0,0,.464.183,2.408,2.408,0,0,0,.5.054,2.273,2.273,0,0,0,.573-0.064,1.379,1.379,0,0,0,.416-0.177,0.786,0.786,0,0,0,.255-0.266,0.668,0.668,0,0,0,.086-0.331,0.871,0.871,0,0,0-.052-0.3,0.639,0.639,0,0,0-.2-0.269,1.566,1.566,0,0,0-.433-0.234,4.71,4.71,0,0,0-.74-0.2,7.373,7.373,0,0,1-.929-0.242,2.913,2.913,0,0,1-.7-0.336,1.428,1.428,0,0,1-.445-0.465,1.239,1.239,0,0,1-.154-0.629,1.377,1.377,0,0,1,.163-0.653,1.7,1.7,0,0,1,.462-0.543,2.3,2.3,0,0,1,.722-0.371,3.066,3.066,0,0,1,.946-0.137,3.216,3.216,0,0,1,1,.142,2.317,2.317,0,0,1,.746.39,1.688,1.688,0,0,1,.467.578,1.6,1.6,0,0,1,.16.707h-1.066a0.829,0.829,0,0,0-.086-0.357,0.987,0.987,0,0,0-.252-0.323,1.322,1.322,0,0,0-.408-0.231,1.6,1.6,0,0,0-.556-0.089,1.92,1.92,0,0,0-.565.072,1.151,1.151,0,0,0-.381.194,0.744,0.744,0,0,0-.287.589,0.711,0.711,0,0,0,.058.29A0.562,0.562,0,0,0,132.729,34.172ZM129.6,32.938a1.616,1.616,0,0,0-.9.226,1.4,1.4,0,0,0-.519.607V37.9h-1.061V32.083h1.032l0.018,0.672a1.806,1.806,0,0,1,.6-0.57,1.717,1.717,0,0,1,.877-0.21,1.685,1.685,0,0,1,.264.024,0.883,0.883,0,0,1,.206.051v0.925q-0.138-.021-0.255-0.029T129.6,32.938Zm-8.018,3.091a1.8,1.8,0,0,0,.367.607,1.735,1.735,0,0,0,.573.409,1.84,1.84,0,0,0,.76.15,1.947,1.947,0,0,0,.952-0.215,2.347,2.347,0,0,0,.682-0.57l0.648,0.473a2.7,2.7,0,0,1-.361.417,2.467,2.467,0,0,1-.5.36,2.692,2.692,0,0,1-.651.253,3.359,3.359,0,0,1-.831.094,3.14,3.14,0,0,1-1.173-.21,2.618,2.618,0,0,1-.9-0.583,2.55,2.55,0,0,1-.574-0.89,3.1,3.1,0,0,1-.2-1.129V34.97a3.354,3.354,0,0,1,.226-1.268,2.826,2.826,0,0,1,.605-0.941,2.637,2.637,0,0,1,1.881-.785,2.77,2.77,0,0,1,1.147.218,2.162,2.162,0,0,1,.794.6,2.482,2.482,0,0,1,.461.9,4.089,4.089,0,0,1,.149,1.134v0.446h-4.2A2.361,2.361,0,0,0,121.582,36.029Zm3-1.57V34.384a2.593,2.593,0,0,0-.1-0.575,1.506,1.506,0,0,0-.258-0.511,1.3,1.3,0,0,0-.45-0.365,1.5,1.5,0,0,0-.682-0.14,1.551,1.551,0,0,0-.591.11,1.471,1.471,0,0,0-.481.32,1.708,1.708,0,0,0-.353.521,2.485,2.485,0,0,0-.192.715h3.108Zm-5.794,2.712a2.137,2.137,0,0,1-.754.615,2.279,2.279,0,0,1-1.021.22,2.792,2.792,0,0,1-1.023-.172,2.091,2.091,0,0,1-.754-0.5v2.8h-1.061V32.083h0.969l0.052,0.645a2.087,2.087,0,0,1,.762-0.559A2.6,2.6,0,0,1,117,31.976a2.374,2.374,0,0,1,1.035.215,2.129,2.129,0,0,1,.76.6,2.686,2.686,0,0,1,.467.935,4.363,4.363,0,0,1,.158,1.212v0.113a4.127,4.127,0,0,1-.161,1.18A2.805,2.805,0,0,1,118.79,37.171Zm-0.433-2.228a3.324,3.324,0,0,0-.1-0.82,2.012,2.012,0,0,0-.3-0.675,1.511,1.511,0,0,0-.522-0.459,1.567,1.567,0,0,0-.751-0.169,1.89,1.89,0,0,0-.49.059,1.531,1.531,0,0,0-.4.167,1.48,1.48,0,0,0-.315.255,1.914,1.914,0,0,0-.241.32V36.4a1.906,1.906,0,0,0,.241.32,1.413,1.413,0,0,0,.315.253,1.575,1.575,0,0,0,.4.164,1.943,1.943,0,0,0,.5.059,1.517,1.517,0,0,0,.743-0.172,1.548,1.548,0,0,0,.519-0.462,2.008,2.008,0,0,0,.3-0.68,3.389,3.389,0,0,0,.1-0.825V34.943Zm-6.823,2.381a1.975,1.975,0,0,1-.739.5,2.886,2.886,0,0,1-1.078.18,2.691,2.691,0,0,1-.832-0.121,1.64,1.64,0,0,1-.642-0.382,1.718,1.718,0,0,1-.416-0.672,2.986,2.986,0,0,1-.146-0.992V32.083h1.061v3.768a1.836,1.836,0,0,0,.1.648,1.042,1.042,0,0,0,.258.4,0.879,0.879,0,0,0,.367.2,1.606,1.606,0,0,0,.425.056,2.035,2.035,0,0,0,1.04-.231,1.413,1.413,0,0,0,.577-0.618v-4.23h1.061V37.9h-1.01Zm-8.812-4.413a2.693,2.693,0,0,0,.605.317,7.9,7.9,0,0,0,.886.28,8.309,8.309,0,0,1,1.227.416,3.382,3.382,0,0,1,.851.519,1.9,1.9,0,0,1,.5.65,1.956,1.956,0,0,1,.164.817,1.805,1.805,0,0,1-.207.865,1.914,1.914,0,0,1-.588.661,2.858,2.858,0,0,1-.917.422,4.5,4.5,0,0,1-1.2.148,4.447,4.447,0,0,1-.768-0.067,3.992,3.992,0,0,1-.737-0.2,3.315,3.315,0,0,1-.653-0.333,2.455,2.455,0,0,1-.525-0.462,2.035,2.035,0,0,1-.35-0.591,1.992,1.992,0,0,1-.126-0.72h1.107a1.336,1.336,0,0,0,.169.691,1.445,1.445,0,0,0,.453.476,2.021,2.021,0,0,0,.654.277,3.309,3.309,0,0,0,.776.089,2.27,2.27,0,0,0,1.336-.333,1.059,1.059,0,0,0,.465-0.908,1.235,1.235,0,0,0-.089-0.484,0.971,0.971,0,0,0-.315-0.384,2.564,2.564,0,0,0-.611-0.328,9.319,9.319,0,0,0-.975-0.314,8.66,8.66,0,0,1-1.121-.379,3.735,3.735,0,0,1-.854-0.489,2,2,0,0,1-.542-0.632,1.7,1.7,0,0,1-.189-0.812,1.809,1.809,0,0,1,.2-0.847,2.052,2.052,0,0,1,.577-0.677,2.8,2.8,0,0,1,.894-0.449,3.934,3.934,0,0,1,1.164-.161,3.687,3.687,0,0,1,1.256.2,2.877,2.877,0,0,1,.926.527,2.217,2.217,0,0,1,.57.758,2.126,2.126,0,0,1,.2.887H105.83a1.632,1.632,0,0,0-.112-0.607,1.279,1.279,0,0,0-.341-0.484,1.6,1.6,0,0,0-.574-0.317,2.617,2.617,0,0,0-.814-0.113,2.72,2.72,0,0,0-.768.1,1.564,1.564,0,0,0-.539.266,1.062,1.062,0,0,0-.316.4,1.238,1.238,0,0,0-.1.505,0.92,0.92,0,0,0,.112.452A1.176,1.176,0,0,0,102.722,32.911ZM95.34,34.078a1.828,1.828,0,0,0-.08-0.578,0.9,0.9,0,0,0-.628-0.61,1.867,1.867,0,0,0-.536-0.07,1.6,1.6,0,0,0-.906.258,1.787,1.787,0,0,0-.608.677V37.9H91.522V32.083h1l0.034,0.731a2.374,2.374,0,0,1,.8-0.615,2.432,2.432,0,0,1,1.055-.223,2.725,2.725,0,0,1,.82.116,1.525,1.525,0,0,1,.625.371,1.7,1.7,0,0,1,.4.656,2.948,2.948,0,0,1,.141.97V37.9H95.34V34.078Zm-5.682,3.088a2.58,2.58,0,0,1-.889.618,3.208,3.208,0,0,1-2.351,0,2.578,2.578,0,0,1-.889-0.618,2.741,2.741,0,0,1-.565-0.935,3.389,3.389,0,0,1-.2-1.174V34.938a3.39,3.39,0,0,1,.2-1.174,2.8,2.8,0,0,1,.562-0.938,2.564,2.564,0,0,1,.886-0.623,2.917,2.917,0,0,1,1.17-.226,2.968,2.968,0,0,1,1.184.226,2.589,2.589,0,0,1,.892.624,2.737,2.737,0,0,1,.562.938,3.437,3.437,0,0,1,.195,1.174v0.118a3.436,3.436,0,0,1-.195,1.174A2.708,2.708,0,0,1,89.659,37.166Zm-0.3-2.228a2.957,2.957,0,0,0-.112-0.82,2.072,2.072,0,0,0-.333-0.683,1.6,1.6,0,0,0-1.327-.642,1.6,1.6,0,0,0-.763.175,1.651,1.651,0,0,0-.548.468,2.029,2.029,0,0,0-.33.683,3.033,3.033,0,0,0-.109.82v0.118a3.024,3.024,0,0,0,.109.822,2.03,2.03,0,0,0,.33.68,1.614,1.614,0,0,0,.55.465,1.809,1.809,0,0,0,1.54,0,1.581,1.581,0,0,0,.55-0.465,2.1,2.1,0,0,0,.33-0.68,2.948,2.948,0,0,0,.112-0.822V34.938Zm-6.912-3.832a0.625,0.625,0,0,1-.467-0.161,0.553,0.553,0,0,1-.158-0.4,0.572,0.572,0,0,1,.158-0.409,0.614,0.614,0,0,1,.467-0.167,0.624,0.624,0,0,1,.47.167,0.567,0.567,0,0,1,.161.409,0.548,0.548,0,0,1-.161.4A0.635,0.635,0,0,1,82.443,31.105Zm-3.134,6.9a1.925,1.925,0,0,1-.553-0.078,1.129,1.129,0,0,1-.456-0.261,1.271,1.271,0,0,1-.31-0.481,2.053,2.053,0,0,1-.115-0.734v-3.6h-1.13V32.083h1.13V30.675h1.061v1.408h1.158v0.769H78.936v3.607a0.956,0.956,0,0,0,.057.363,0.52,0.52,0,0,0,.152.212,0.5,0.5,0,0,0,.218.1,1.323,1.323,0,0,0,.255.024,1.708,1.708,0,0,0,.278-0.024q0.146-.024.227-0.04V37.9q-0.126.032-.327,0.07A2.7,2.7,0,0,1,79.309,38.007Zm-4.546-.379q-0.034-.164-0.057-0.341a2.786,2.786,0,0,1-.335.277,2.415,2.415,0,0,1-.886.387,2.545,2.545,0,0,1-.545.056,2.618,2.618,0,0,1-.863-0.134,2.04,2.04,0,0,1-.659-0.366A1.616,1.616,0,0,1,71,36.961a1.553,1.553,0,0,1-.149-0.675,1.625,1.625,0,0,1,.754-1.424,2.724,2.724,0,0,1,.88-0.365,4.955,4.955,0,0,1,1.153-.124h1.055V33.916a1.08,1.08,0,0,0-.333-0.831,1.393,1.393,0,0,0-.98-0.309,1.863,1.863,0,0,0-.545.075,1.423,1.423,0,0,0-.421.2,0.96,0.96,0,0,0-.272.293,0.682,0.682,0,0,0-.1.349H70.972a1.236,1.236,0,0,1,.175-0.618,1.849,1.849,0,0,1,.5-0.551,2.684,2.684,0,0,1,.777-0.4,3.183,3.183,0,0,1,1.018-.153,3.412,3.412,0,0,1,.932.121,2.036,2.036,0,0,1,.731.365,1.7,1.7,0,0,1,.476.61,1.988,1.988,0,0,1,.172.855v2.7a3.752,3.752,0,0,0,.054.621,2.22,2.22,0,0,0,.163.562V37.9H74.854A1.028,1.028,0,0,1,74.762,37.628Zm-0.075-2.55H73.8a3.007,3.007,0,0,0-1.4.266,0.86,0.86,0,0,0-.493.8,1.029,1.029,0,0,0,.075.392,0.821,0.821,0,0,0,.227.315,1.14,1.14,0,0,0,.373.21,1.539,1.539,0,0,0,.513.078,1.876,1.876,0,0,0,.539-0.075,2.081,2.081,0,0,0,.459-0.2,1.689,1.689,0,0,0,.358-0.277,1.361,1.361,0,0,0,.238-0.322V35.077Zm-6.821-1.005a1.68,1.68,0,0,0-.095-0.607,0.946,0.946,0,0,0-.267-0.387,0.975,0.975,0,0,0-.419-0.2,2.446,2.446,0,0,0-.545-0.056,1.61,1.61,0,0,0-.579.1,1.361,1.361,0,0,0-.433.261,1.232,1.232,0,0,0-.287.387,1.489,1.489,0,0,0-.135.476V37.9H64.043V34.078a1.572,1.572,0,0,0-.095-0.578,0.992,0.992,0,0,0-.267-0.39,1.07,1.07,0,0,0-.416-0.22,1.99,1.99,0,0,0-.548-0.07,1.609,1.609,0,0,0-.912.231,1.446,1.446,0,0,0-.516.6V37.9H60.23V32.083h1l0.029,0.645a2.245,2.245,0,0,1,.777-0.554,2.643,2.643,0,0,1,1.064-.2,2.418,2.418,0,0,1,1.064.223,1.526,1.526,0,0,1,.708.712,2.306,2.306,0,0,1,.806-0.677,2.509,2.509,0,0,1,1.173-.258,2.943,2.943,0,0,1,.883.121,1.618,1.618,0,0,1,.651.379,1.642,1.642,0,0,1,.4.656,2.9,2.9,0,0,1,.138.946V37.9H67.867V34.072Zm-9.495,3.093a2.58,2.58,0,0,1-.889.618,3.208,3.208,0,0,1-2.351,0,2.578,2.578,0,0,1-.889-0.618,2.741,2.741,0,0,1-.565-0.935,3.389,3.389,0,0,1-.2-1.174V34.938a3.39,3.39,0,0,1,.2-1.174,2.8,2.8,0,0,1,.562-0.938,2.564,2.564,0,0,1,.886-0.623,2.917,2.917,0,0,1,1.17-.226,2.968,2.968,0,0,1,1.184.226,2.589,2.589,0,0,1,.892.624,2.737,2.737,0,0,1,.562.938,3.437,3.437,0,0,1,.195,1.174v0.118a3.436,3.436,0,0,1-.195,1.174A2.708,2.708,0,0,1,58.372,37.166Zm-0.3-2.228a2.957,2.957,0,0,0-.112-0.82,2.072,2.072,0,0,0-.333-0.683,1.6,1.6,0,0,0-1.327-.642,1.6,1.6,0,0,0-.763.175,1.651,1.651,0,0,0-.548.468,2.029,2.029,0,0,0-.33.683,3.033,3.033,0,0,0-.109.82v0.118a3.024,3.024,0,0,0,.109.822,2.03,2.03,0,0,0,.33.68,1.614,1.614,0,0,0,.55.465,1.809,1.809,0,0,0,1.54,0,1.581,1.581,0,0,0,.55-0.465,2.1,2.1,0,0,0,.33-0.68,2.948,2.948,0,0,0,.112-0.822V34.938Zm-6.81,3.069a1.925,1.925,0,0,1-.553-0.078,1.129,1.129,0,0,1-.456-0.261,1.271,1.271,0,0,1-.31-0.481,2.053,2.053,0,0,1-.115-0.734v-3.6H48.7V32.083h1.13V30.675h1.061v1.408h1.158v0.769H50.886v3.607a0.956,0.956,0,0,0,.057.363,0.52,0.52,0,0,0,.152.212,0.5,0.5,0,0,0,.218.1,1.323,1.323,0,0,0,.255.024,1.708,1.708,0,0,0,.278-0.024q0.146-.024.227-0.04V37.9q-0.126.032-.327,0.07A2.7,2.7,0,0,1,51.259,38.007ZM46.8,37.324a1.977,1.977,0,0,1-.74.5,2.885,2.885,0,0,1-1.078.18,2.686,2.686,0,0,1-.831-0.121,1.635,1.635,0,0,1-.642-0.382,1.715,1.715,0,0,1-.416-0.672,2.972,2.972,0,0,1-.146-0.992V32.083h1.061v3.768a1.833,1.833,0,0,0,.1.648,1.039,1.039,0,0,0,.258.4,0.875,0.875,0,0,0,.367.2,1.6,1.6,0,0,0,.424.056,2.041,2.041,0,0,0,1.041-.231,1.409,1.409,0,0,0,.576-0.618v-4.23h1.061V37.9H46.827ZM40.2,35.857H36.7L35.915,37.9H34.78l3.188-7.826h0.963L42.125,37.9H41Zm-1.749-4.51-1.416,3.66h2.838ZM26.644,36.029a1.807,1.807,0,0,0,.367.607,1.737,1.737,0,0,0,.573.409,1.837,1.837,0,0,0,.76.15A1.947,1.947,0,0,0,29.3,36.98a2.348,2.348,0,0,0,.682-0.57l0.648,0.473a2.7,2.7,0,0,1-.361.417,2.442,2.442,0,0,1-.5.36,2.7,2.7,0,0,1-.651.253,3.356,3.356,0,0,1-.831.094,3.137,3.137,0,0,1-1.173-.21,2.627,2.627,0,0,1-.9-0.583,2.552,2.552,0,0,1-.573-0.89,3.088,3.088,0,0,1-.2-1.129V34.97a3.354,3.354,0,0,1,.226-1.268,2.821,2.821,0,0,1,.605-0.941,2.637,2.637,0,0,1,1.881-.785,2.768,2.768,0,0,1,1.147.218,2.157,2.157,0,0,1,.794.6,2.486,2.486,0,0,1,.462.9,4.115,4.115,0,0,1,.149,1.134v0.446H26.5A2.35,2.35,0,0,0,26.644,36.029Zm3-1.57V34.384a2.6,2.6,0,0,0-.1-0.575,1.523,1.523,0,0,0-.258-0.511,1.31,1.31,0,0,0-.45-0.365,1.5,1.5,0,0,0-.682-0.14,1.547,1.547,0,0,0-.591.11,1.469,1.469,0,0,0-.482.32,1.71,1.71,0,0,0-.353.521,2.508,2.508,0,0,0-.192.715h3.108Zm-7.09-.387a1.68,1.68,0,0,0-.095-0.607,0.945,0.945,0,0,0-.267-0.387,0.975,0.975,0,0,0-.419-0.2,2.445,2.445,0,0,0-.545-0.056,1.61,1.61,0,0,0-.579.1,1.361,1.361,0,0,0-.433.261,1.232,1.232,0,0,0-.287.387,1.486,1.486,0,0,0-.135.476V37.9H18.731V34.078a1.572,1.572,0,0,0-.095-0.578,0.991,0.991,0,0,0-.267-0.39,1.07,1.07,0,0,0-.416-0.22,1.989,1.989,0,0,0-.548-0.07,1.609,1.609,0,0,0-.912.231,1.446,1.446,0,0,0-.516.6V37.9H14.918V32.083h1l0.029,0.645a2.245,2.245,0,0,1,.777-0.554,2.643,2.643,0,0,1,1.064-.2,2.418,2.418,0,0,1,1.064.223,1.526,1.526,0,0,1,.708.712,2.3,2.3,0,0,1,.806-0.677,2.509,2.509,0,0,1,1.173-.258,2.943,2.943,0,0,1,.883.121,1.618,1.618,0,0,1,.651.379,1.642,1.642,0,0,1,.4.656,2.9,2.9,0,0,1,.138.946V37.9H22.556V34.072Zm-9.495,3.093a2.58,2.58,0,0,1-.889.618,3.208,3.208,0,0,1-2.351,0,2.578,2.578,0,0,1-.889-0.618,2.741,2.741,0,0,1-.565-0.935,3.39,3.39,0,0,1-.2-1.174V34.938a3.39,3.39,0,0,1,.2-1.174,2.8,2.8,0,0,1,.562-0.938A2.564,2.564,0,0,1,9.816,32.2a2.917,2.917,0,0,1,1.17-.226,2.968,2.968,0,0,1,1.184.226,2.589,2.589,0,0,1,.892.624,2.736,2.736,0,0,1,.562.938,3.437,3.437,0,0,1,.195,1.174v0.118a3.436,3.436,0,0,1-.195,1.174A2.707,2.707,0,0,1,13.061,37.166Zm-0.3-2.228a2.96,2.96,0,0,0-.112-0.82,2.074,2.074,0,0,0-.333-0.683,1.6,1.6,0,0,0-1.327-.642,1.6,1.6,0,0,0-.763.175,1.652,1.652,0,0,0-.548.468,2.028,2.028,0,0,0-.33.683,3.031,3.031,0,0,0-.109.82v0.118a3.021,3.021,0,0,0,.109.822,2.029,2.029,0,0,0,.33.68,1.614,1.614,0,0,0,.55.465,1.809,1.809,0,0,0,1.54,0,1.583,1.583,0,0,0,.55-0.465,2.109,2.109,0,0,0,.33-0.68,2.951,2.951,0,0,0,.112-0.822V34.938ZM5.3,34.282H1.088V37.9h-1.1V30.073h1.1v3.365H5.3V30.073H6.4V37.9H5.3V34.282ZM82.965,37.9H81.9V32.083h1.061V37.9Z"/>
  <path id="_3" data-name="#" class="cls-3" d="M84.014,9.989v7c0,1.113.321,1.654,1.4,1.654a5.679,5.679,0,0,0,2.572-.6v3.974a7.837,7.837,0,0,1-4,.986c-2.957,0-4.992-1.177-4.992-5.121V9.989h-2V5.98h2V2l5.021-1V5.98h3.975v4.01H84.014ZM70.006,16.636v6.3H65.012V5.948h4.993V9.321c0.986-2.354,2.138-3.443,5-3.316v5.057H74.751C71.54,11.062,70.006,12.565,70.006,16.636ZM58.231,21.089a6.635,6.635,0,0,1-5.244,1.975c-3.269,0-5.956-1.657-5.956-5.029V17.972c0-3.721,2.881-5.439,6.992-5.439a12.524,12.524,0,0,1,4.24.7V12.947c0-2-1.262-3.023-3.722-3.023a12.941,12.941,0,0,0-4.791.829l-1.23-3.689a15.794,15.794,0,0,1,6.733-1.118c2.687,0,4.629.45,5.858,1.658a7.352,7.352,0,0,1,1.877,5.439v9.891H58.231V21.089Zm0.1-5.025a7.743,7.743,0,0,0-3.14-.636c-2.1,0-3.4.827-3.4,2.354v0.064c0,1.3,1.1,2.067,2.687,2.067,2.3,0,3.852-1.24,3.852-2.99V16.064ZM39.993,13.518c0-2.29-.766-3.467-2.5-3.467s-2.494,1.177-2.494,3.467v9.416h-4.98V13.518c0-2.29-.757-3.467-2.5-3.467s-2.529,1.177-2.529,3.467v9.416h-5V5.98h5v2.7c1.068-1.431,2.193-2.735,4.542-2.735a4.859,4.859,0,0,1,4.606,2.7,6.635,6.635,0,0,1,5.368-2.7C42.953,5.943,45,7.731,45,11.834v11.1h-5V13.518ZM9.458,23A14.129,14.129,0,0,1,.014,19.425l2.894-3.481a10.188,10.188,0,0,0,6.646,2.714c2,0,3.212-.8,3.212-2.108V16.487c0-1.245-.763-1.884-4.483-2.842C3.8,12.495.967,11.249,0.967,6.81V6.747c0-4.056,3.181-6.738,7.728-6.738A12.849,12.849,0,0,1,16.962,2.85l-2.544,3.7a10.154,10.154,0,0,0-5.693-2.2c-1.876,0-2.862.862-2.862,1.948V6.363c0,1.469.86,1.948,4.708,2.938,4.515,1.182,7.059,2.81,7.059,6.707v0.064C17.63,20.511,14.259,23,9.458,23Z"/>
</svg>
