<svg xmlns="http://www.w3.org/2000/svg" width="54" height="54" viewBox="0 0 54 54">
  <metadata><?xpacket begin="﻿" id="W5M0MpCehiHzreSzNTczkc9d"?>
<x:xmpmeta xmlns:x="adobe:ns:meta/" x:xmptk="Adobe XMP Core 5.6-c140 79.160451, 2017/05/06-01:08:21        ">
   <rdf:RDF xmlns:rdf="http://www.w3.org/1999/02/22-rdf-syntax-ns#">
      <rdf:Description rdf:about=""/>
   </rdf:RDF>
</x:xmpmeta>
                                                                                                    
                                                                                                    
                                                                                                    
                                                                                                    
                                                                                                    
                                                                                                    
                                                                                                    
                                                                                                    
                                                                                                    
                                                                                                    
                                                                                                    
                                                                                                    
                                                                                                    
                                                                                                    
                                                                                                    
                                                                                                    
                                                                                                    
                                                                                                    
                                                                                                    
                                                                                                    
                           
<?xpacket end="w"?></metadata>
<defs>
    <style>
      .cls-1 {
        fill: #26303c;
        fill-rule: evenodd;
      }
    </style>
  </defs>
  <path id="_" data-name="#" class="cls-1" d="M53.284,36.954H50.756a0.378,0.378,0,0,0-.363.277,3.773,3.773,0,0,1-7.278,0,0.378,0.378,0,0,0-.363-0.277H28.114a0.378,0.378,0,0,0-.363.277,3.773,3.773,0,0,1-7.278,0,0.378,0.378,0,0,0-.363-0.277H17.726a0.722,0.722,0,0,1-.721-0.721v-1.4a0.377,0.377,0,0,0-.377-0.377H9.715a0.721,0.721,0,0,1,0-1.441h6.914a0.377,0.377,0,0,0,.377-0.376V18.8a0.377,0.377,0,0,0-.377-0.376H5.734a0.721,0.721,0,0,1,0-1.441h10.9a0.377,0.377,0,0,0,.377-0.377V14.747a0.721,0.721,0,0,1,.721-0.72H40.291a0.721,0.721,0,0,1,.721.72v4.785a0.377,0.377,0,0,0,.376.376H46.9a0.72,0.72,0,0,1,.542.246l6.389,7.293a0.721,0.721,0,0,1,.179.475v8.311A0.722,0.722,0,0,1,53.284,36.954ZM24.112,38.565a2.333,2.333,0,1,0-2.332-2.332A2.335,2.335,0,0,0,24.112,38.565ZM39.57,15.843a0.377,0.377,0,0,0-.376-0.376H18.823a0.377,0.377,0,0,0-.377.376V35.136a0.377,0.377,0,0,0,.377.377H20.11a0.377,0.377,0,0,0,.363-0.277,3.773,3.773,0,0,1,7.278,0,0.378,0.378,0,0,0,.363.277h11.08a0.377,0.377,0,0,0,.376-0.377V15.843Zm7.184,22.722a2.333,2.333,0,1,0-2.332-2.332A2.335,2.335,0,0,0,46.754,38.565Zm5.809-10.231a0.377,0.377,0,0,0-.093-0.248l-5.789-6.608A0.377,0.377,0,0,0,46.4,21.35h-5.01a0.377,0.377,0,0,0-.376.377v13.41a0.377,0.377,0,0,0,.376.377h1.364a0.377,0.377,0,0,0,.363-0.277,3.773,3.773,0,0,1,7.278,0,0.377,0.377,0,0,0,.363.277h1.431a0.377,0.377,0,0,0,.376-0.377v-6.8ZM12.975,25.7a0.722,0.722,0,0,1-.721.721H0.685a0.721,0.721,0,0,1,0-1.441h11.57A0.722,0.722,0,0,1,12.975,25.7ZM5.7,33.019H6.288a0.721,0.721,0,1,1,0,1.441H5.7A0.721,0.721,0,0,1,5.7,33.019Z"/>
</svg>
