<svg xmlns="http://www.w3.org/2000/svg" width="54" height="54" viewBox="0 0 54 54">
  <metadata><?xpacket begin="﻿" id="W5M0MpCehiHzreSzNTczkc9d"?>
<x:xmpmeta xmlns:x="adobe:ns:meta/" x:xmptk="Adobe XMP Core 5.6-c140 79.160451, 2017/05/06-01:08:21        ">
   <rdf:RDF xmlns:rdf="http://www.w3.org/1999/02/22-rdf-syntax-ns#">
      <rdf:Description rdf:about=""/>
   </rdf:RDF>
</x:xmpmeta>
                                                                                                    
                                                                                                    
                                                                                                    
                                                                                                    
                                                                                                    
                                                                                                    
                                                                                                    
                                                                                                    
                                                                                                    
                                                                                                    
                                                                                                    
                                                                                                    
                                                                                                    
                                                                                                    
                                                                                                    
                                                                                                    
                                                                                                    
                                                                                                    
                                                                                                    
                                                                                                    
                           
<?xpacket end="w"?></metadata>
<defs>
    <style>
      .cls-1 {
        fill: #26303c;
        fill-rule: evenodd;
      }
    </style>
  </defs>
  <path id="_" data-name="#" class="cls-1" d="M36.411,43.956H17.6a4.608,4.608,0,0,1-4.6-4.6V26.693a4.895,4.895,0,0,1,4.01-4.608V19.015c0-4.995,4.485-9.059,10-9.059s10,4.064,10,9.059v3.069a4.895,4.895,0,0,1,4.011,4.608V39.353A4.608,4.608,0,0,1,36.411,43.956Zm-0.657-24.94c0-4.306-3.923-7.809-8.747-7.809s-8.747,3.5-8.747,7.81v3H35.753v-3Zm3.987,7.677a3.6,3.6,0,0,0-3.5-3.429H17.778a3.6,3.6,0,0,0-3.5,3.429V39.353A3.333,3.333,0,0,0,17.6,42.682H36.411a3.333,3.333,0,0,0,3.329-3.329V26.693ZM26.992,36.027a2.007,2.007,0,0,1-2-2V31.015a2.005,2.005,0,1,1,4.01,0v3.008A2.007,2.007,0,0,1,26.992,36.027Zm0.9-4.851a0.895,0.895,0,1,0-1.79,0v2.685a0.895,0.895,0,0,0,1.79,0V31.176Z"/>
</svg>
