<svg xmlns="http://www.w3.org/2000/svg" width="54" height="54" viewBox="0 0 54 54">
  <metadata><?xpacket begin="﻿" id="W5M0MpCehiHzreSzNTczkc9d"?>
<x:xmpmeta xmlns:x="adobe:ns:meta/" x:xmptk="Adobe XMP Core 5.6-c140 79.160451, 2017/05/06-01:08:21        ">
   <rdf:RDF xmlns:rdf="http://www.w3.org/1999/02/22-rdf-syntax-ns#">
      <rdf:Description rdf:about=""/>
   </rdf:RDF>
</x:xmpmeta>
                                                                                                    
                                                                                                    
                                                                                                    
                                                                                                    
                                                                                                    
                                                                                                    
                                                                                                    
                                                                                                    
                                                                                                    
                                                                                                    
                                                                                                    
                                                                                                    
                                                                                                    
                                                                                                    
                                                                                                    
                                                                                                    
                                                                                                    
                                                                                                    
                                                                                                    
                                                                                                    
                           
<?xpacket end="w"?></metadata>
<defs>
    <style>
      .cls-1 {
        fill: #26303c;
        fill-rule: evenodd;
      }
    </style>
  </defs>
  <path id="_" data-name="#" class="cls-1" d="M43.854,39.93A2.442,2.442,0,0,1,41.415,42H41.171l-28.264-2.32a2.71,2.71,0,0,1-2.142-2.8A2.44,2.44,0,0,1,9,34.552V15.412a2.446,2.446,0,0,1,2.439-2.439H39.559A2.446,2.446,0,0,1,42,15.412V18.34l1.8,0.182a2.272,2.272,0,0,1,1.647.915A2.37,2.37,0,0,1,46,21.205ZM10.223,34.552a1.223,1.223,0,0,0,1.22,1.22H39.559a1.223,1.223,0,0,0,1.22-1.22L40.732,22.986H10.223V34.552Zm0-12.76H40.716v-3.58H10.223v3.58Zm30.555-6.381a1.223,1.223,0,0,0-1.22-1.22H11.443a1.223,1.223,0,0,0-1.22,1.22v1.607H40.778V15.412Zm3.754,4.635a1.042,1.042,0,0,0-.793-0.427L42,19.5v15.05a2.447,2.447,0,0,1-2.439,2.44H11.992a1.233,1.233,0,0,0,1.1,1.1l28.2,2.7a1.23,1.23,0,0,0,1.342-1.1l2.142-18.725A1.234,1.234,0,0,0,44.533,20.047ZM25.339,32.982H23.747a0.61,0.61,0,0,1,0-1.22h1.592A0.61,0.61,0,1,1,25.339,32.982Zm0-2.825H20.906a0.61,0.61,0,0,1,0-1.22h4.433A0.61,0.61,0,0,1,25.339,30.156Zm-6.605,0H13.41a0.61,0.61,0,1,1,0-1.22h5.324A0.61,0.61,0,0,1,18.734,30.156ZM13.41,31.762h8.166a0.61,0.61,0,0,1,0,1.22H13.41A0.61,0.61,0,1,1,13.41,31.762Z"/>
</svg>
