<svg xmlns="http://www.w3.org/2000/svg" width="54" height="54" viewBox="0 0 54 54">
  <metadata><?xpacket begin="﻿" id="W5M0MpCehiHzreSzNTczkc9d"?>
<x:xmpmeta xmlns:x="adobe:ns:meta/" x:xmptk="Adobe XMP Core 5.6-c140 79.160451, 2017/05/06-01:08:21        ">
   <rdf:RDF xmlns:rdf="http://www.w3.org/1999/02/22-rdf-syntax-ns#">
      <rdf:Description rdf:about=""/>
   </rdf:RDF>
</x:xmpmeta>
                                                                                                    
                                                                                                    
                                                                                                    
                                                                                                    
                                                                                                    
                                                                                                    
                                                                                                    
                                                                                                    
                                                                                                    
                                                                                                    
                                                                                                    
                                                                                                    
                                                                                                    
                                                                                                    
                                                                                                    
                                                                                                    
                                                                                                    
                                                                                                    
                                                                                                    
                                                                                                    
                           
<?xpacket end="w"?></metadata>
<defs>
    <style>
      .cls-1 {
        fill: #26303c;
        fill-rule: evenodd;
      }
    </style>
  </defs>
  <path id="_" data-name="#" class="cls-1" d="M35.291,45.995H19.709a2.725,2.725,0,0,1-2.724-2.717V11.691a2.725,2.725,0,0,1,2.724-2.717H35.291a2.723,2.723,0,0,1,2.724,2.717V43.278A2.725,2.725,0,0,1,35.291,45.995Zm1.486-34.3a1.487,1.487,0,0,0-1.486-1.482H19.709a1.491,1.491,0,0,0-1.489,1.482v1.329H36.777V11.691Zm0,18.568V14.252H18.224v22.73H36.781V30.259Zm0,7.955H18.224v5.064a1.486,1.486,0,0,0,1.485,1.481H35.291a1.488,1.488,0,0,0,1.489-1.481V38.214Zm-9.311,4.81a1.485,1.485,0,1,1,1.487-1.486A1.49,1.49,0,0,1,27.47,43.024Zm0-2.226a0.742,0.742,0,1,0,.742.741A0.744,0.744,0,0,0,27.47,40.8ZM25.025,10.979H27.5a0.573,0.573,0,1,1,0,1.143H25.025A0.573,0.573,0,1,1,25.025,10.979Zm4.332,0h0.619a0.573,0.573,0,1,1,0,1.143H29.356A0.573,0.573,0,1,1,29.356,10.979Z"/>
</svg>
