<svg xmlns="http://www.w3.org/2000/svg" width="24" height="24" viewBox="0 0 24 24">
  <defs>
    <style>
      .cls-1 {
        fill: #161514;
        fill-rule: evenodd;
      }
    </style>
  </defs>
  <path id="Pinterest" class="cls-1" d="M1,11.516a10.526,10.526,0,0,0,6.281,9.639,9.274,9.274,0,0,1,.183-2.417C7.665,17.884,8.814,13,8.814,13a4.054,4.054,0,0,1-.335-1.665c0-1.56.9-2.724,2.024-2.724a1.408,1.408,0,0,1,1.416,1.58,22.721,22.721,0,0,1-.927,3.735,1.628,1.628,0,0,0,1.656,2.027c1.988,0,3.327-2.561,3.327-5.6,0-2.307-1.549-4.033-4.366-4.033a4.976,4.976,0,0,0-5.166,5.04,3.044,3.044,0,0,0,.692,2.064,0.511,0.511,0,0,1,.151.586c-0.05.194-.166,0.66-0.214,0.845a0.361,0.361,0,0,1-.525.263c-1.466-.6-2.149-2.21-2.149-4.021,0-2.989,2.514-6.574,7.5-6.574,4.006,0,6.643,2.908,6.643,6.029,0,4.128-2.288,7.213-5.662,7.213a3.007,3.007,0,0,1-2.564-1.312S9.7,18.886,9.575,19.354a8.824,8.824,0,0,1-1.056,2.254A10.528,10.528,0,1,0,1,11.516Z"/>
</svg>
