<svg xmlns="http://www.w3.org/2000/svg" width="18" height="18" viewBox="0 0 18 18">
  <defs>
    <style>
      .cls-1 {
        fill: #161514;
        fill-rule: evenodd;
      }
    </style>
  </defs>
  <path id="_" data-name="#" class="cls-1" d="M5.634,2.176A3.422,3.422,0,0,1,8.579,3.914l0.9,1.656,0.935-1.636a3.438,3.438,0,0,1,2.967-1.757c1.85,0,3.336,1.6,3.536,3.83a3.982,3.982,0,0,1-.122,1.461,6.708,6.708,0,0,1-2.021,3.44L9.5,15.705l-5.253-4.8A6.747,6.747,0,0,1,2.2,7.439a3.945,3.945,0,0,1-.111-1.448c0.2-2.209,1.69-3.812,3.549-3.815m0-1.05c-2.418,0-4.351,2.007-4.6,4.771a4.98,4.98,0,0,0,.142,1.814,7.8,7.8,0,0,0,2.355,3.974l5.475,5a0.715,0.715,0,0,0,.963,0l5.505-5a7.765,7.765,0,0,0,2.336-3.974A4.991,4.991,0,0,0,17.961,5.9c-0.248-2.765-2.164-4.771-4.58-4.771A4.5,4.5,0,0,0,9.5,3.413,4.456,4.456,0,0,0,5.639,1.126h0Z"/>
</svg>
