<svg xmlns="http://www.w3.org/2000/svg" width="24" height="24" viewBox="0 0 24 24">
  <defs>
    <style>
      .cls-1 {
        fill: #268be5;
      }

      .cls-1, .cls-2 {
        fill-rule: evenodd;
      }

      .cls-2 {
        fill: #fff;
      }
    </style>
  </defs>
  <path id="_" data-name="#" class="cls-1" d="M4.841,0.016H19.158A3.842,3.842,0,0,1,23,3.859V19.186a3.842,3.842,0,0,1-3.841,3.843H4.841A3.842,3.842,0,0,1,1,19.186V3.859A3.842,3.842,0,0,1,4.841.016Z"/>
  <path id="_2" data-name="#" class="cls-2" d="M16,12.985A1.018,1.018,0,0,1,14.978,14H13.007v3.012a1.013,1.013,0,0,1-1.015,1,1,1,0,0,1-1-1V14H9.015A1.018,1.018,0,0,1,8,12.985L8,9.022a4,4,0,1,1,8,0Z"/>
</svg>
