<svg id="Discover" xmlns="http://www.w3.org/2000/svg" width="42" height="28" viewBox="0 0 42 28">
  <defs>
    <style>
      .cls-1 {
        fill: #f0f4f7;
      }

      .cls-2, .cls-4 {
        fill: #f68100;
      }

      .cls-2, .cls-3 {
        fill-rule: evenodd;
      }

      .cls-3 {
        fill: #23211f;
      }
    </style>
  </defs>
  <rect id="_" data-name="#" class="cls-1" width="42" height="28" rx="3" ry="3"/>
  <path id="_2" data-name="#" class="cls-2" d="M39,28H20.893C32.018,25.052,38.5,20.593,42,17.365V25A3,3,0,0,1,39,28Z"/>
  <path id="_3" data-name="#" class="cls-3" d="M4.647,10.994H3v5.957H4.647A2.934,2.934,0,0,0,6.7,16.282a3.076,3.076,0,0,0,1.061-2.276,2.9,2.9,0,0,0-2.785-3.012H4.647Zm1.326,4.484a2.086,2.086,0,0,1-1.525.468H4.116V12H4.448a2.086,2.086,0,0,1,1.525.468,2.087,2.087,0,0,1,.6,1.472A2.131,2.131,0,0,1,5.973,15.479ZM8.1,16.951H9.229V10.994H8.1v5.957Zm3.97-3.614c-0.663-.263-0.862-0.394-0.862-0.723a0.733,0.733,0,0,1,.8-0.657,1.4,1.4,0,0,1,.928.46l0.6-.789a2.629,2.629,0,0,0-1.658-.657,1.7,1.7,0,0,0-1.79,1.578v0.066a1.532,1.532,0,0,0,1.392,1.578,4.071,4.071,0,0,1,.8.329,0.689,0.689,0,0,1,.332.592,0.864,0.864,0,0,1-.8.855H11.741a1.31,1.31,0,0,1-1.193-.789L9.818,15.9a2.257,2.257,0,0,0,1.989,1.118A1.864,1.864,0,0,0,13.8,15.243v-0.2C13.73,14.257,13.4,13.863,12.072,13.337Zm2.055,0.669a3.016,3.016,0,0,0,2.983,3.047,3.3,3.3,0,0,0,1.4-.335V15.38a1.605,1.605,0,0,1-1.264.669,1.851,1.851,0,0,1-1.923-1.843V14.073A2,2,0,0,1,17.178,12a1.7,1.7,0,0,1,1.33.638V11.3a2.3,2.3,0,0,0-1.33-.3A2.883,2.883,0,0,0,14.128,14.006Zm13.459,0.91-1.525-3.922H24.869l2.453,6h0.6l2.453-6H29.178l-1.591,3.922h0Zm3.374,2.035h3.124v-1H32.029V14.278h1.989v-1H32.029V12h2.055v-1H30.961v5.957Zm7.66-4.216c0-1.138-.729-1.74-2.055-1.74H34.937v5.988h1.1V14.542h0.133l1.525,2.441h1.392l-1.79-2.507a1.621,1.621,0,0,0,1.326-1.74h0Zm-2.348,1H35.941V11.931h0.331a0.873,0.873,0,0,1,1.061.87A0.887,0.887,0,0,1,36.272,13.738Z"/>
  <circle id="_4" data-name="#" class="cls-4" cx="22" cy="14" r="3"/>
</svg>
