<svg xmlns="http://www.w3.org/2000/svg" width="42" height="28" viewBox="0 0 42 28">
  <defs>
    <style>
      .cls-1 {
        fill: #1379bd;
      }

      .cls-2 {
        fill: #fff;
        fill-rule: evenodd;
      }
    </style>
  </defs>
  <rect id="_" data-name="#" class="cls-1" width="42" height="28" rx="3" ry="3"/>
  <path id="_2" data-name="#" class="cls-2" d="M39.489,17.346l-0.025-.025a0.747,0.747,0,0,0,.333-0.629V15.733a0.737,0.737,0,0,0-.727-0.748H36.954a2.3,2.3,0,0,0-1.515.5,0.724,0.724,0,0,0-.679-0.5H32.642a2.379,2.379,0,0,0-1.39.392,0.716,0.716,0,0,0-.627-0.392H27.106a0.723,0.723,0,0,0-.647.412,1.281,1.281,0,0,0-.141-0.111,3.206,3.206,0,0,0-1.611-.3h-2.44a0.722,0.722,0,0,0-.643.416,2.884,2.884,0,0,0-1.631-.416H16.622a0.713,0.713,0,0,0-.534.239l-0.8.884-0.767-.876a0.7,0.7,0,0,0-.542-0.247H9.735A0.74,0.74,0,0,0,9,15.733v4.519A0.739,0.739,0,0,0,9.735,21h4.178a0.733,0.733,0,0,0,.539-0.238l0.8-.893,0.763,0.88a0.725,0.725,0,0,0,.546.251H18.62a0.736,0.736,0,0,0,.727-0.744V19.48h0.586a2.851,2.851,0,0,0,1.56-.378v1.151A0.736,0.736,0,0,0,22.22,21h1.108a0.737,0.737,0,0,0,.731-0.744V19.344h0.4c0.1,0,.165,0,0.213.008,0,0.082,0,.177,0,0.242v0.658A0.736,0.736,0,0,0,25.4,21h1.062a0.7,0.7,0,0,0,.321-0.082,0.7,0.7,0,0,0,.322.082h3.523a0.7,0.7,0,0,0,.318-0.082A0.67,0.67,0,0,0,31.26,21h2.057a2.679,2.679,0,0,0,1.587-.452,0.718,0.718,0,0,0,.671.452h2.053a2.1,2.1,0,0,0,2.386-2.171A2.005,2.005,0,0,0,39.489,17.346Zm-19.552,1.39H18.62v1.517H16.565l-1.3-1.5-1.355,1.5H9.735V15.729h4.243l1.3,1.481,1.342-1.481h3.371c0.84,0,1.781.239,1.781,1.49S20.857,18.736,19.937,18.736Zm6.349-.205a1.351,1.351,0,0,1,.177.826v0.9H25.4V19.685a1.33,1.33,0,0,0-.173-0.884,1,1,0,0,0-.771-0.2H23.329v1.649H22.267V15.733h2.44a2.555,2.555,0,0,1,1.269.211,1.062,1.062,0,0,1,.542,1,1.27,1.27,0,0,1-.747,1.2A1.127,1.127,0,0,1,26.286,18.53Zm4.28-1.863H28.154v0.822H30.5V18.41H28.154v0.9l2.412,0v0.937H27.059V15.733h3.507v0.934Zm2.751,3.581H31.263v-0.97h2.046a0.618,0.618,0,0,0,.43-0.112,0.409,0.409,0,0,0,.124-0.3,0.4,0.4,0,0,0-.129-0.3,0.542,0.542,0,0,0-.377-0.1c-0.984-.033-2.222.029-2.222-1.4a1.325,1.325,0,0,1,1.51-1.345H34.76v0.959H32.823a0.722,0.722,0,0,0-.422.082,0.385,0.385,0,0,0,.072.666,1.271,1.271,0,0,0,.41.048L33.45,17.5a1.682,1.682,0,0,1,1.2.366,1.253,1.253,0,0,1,.318.954A1.376,1.376,0,0,1,33.318,20.249Zm4.311,0h-2.1v-0.97H37.62a0.617,0.617,0,0,0,.43-0.112,0.409,0.409,0,0,0,.124-0.3,0.386,0.386,0,0,0-.129-0.3,0.529,0.529,0,0,0-.373-0.1c-0.989-.033-2.226.029-2.226-1.4a1.326,1.326,0,0,1,1.511-1.345h2.035v0.959H37.138a0.736,0.736,0,0,0-.426.082,0.389,0.389,0,0,0,.073.666,1.276,1.276,0,0,0,.409.048L37.765,17.5a1.7,1.7,0,0,1,1.206.366,1.269,1.269,0,0,1,.313.954A1.375,1.375,0,0,1,37.629,20.249Zm-20.094-.406V16.219L15.947,18Zm-6.747-3.175v0.818h2.319V18.41H10.788v0.9h2.6l1.206-1.329-1.157-1.316H10.788Zm14.345,0.082a1.019,1.019,0,0,0-.5-0.082h-1.3v1.016h1.286a0.992,0.992,0,0,0,.521-0.095,0.488,0.488,0,0,0,.217-0.432A0.429,0.429,0,0,0,25.133,16.749Zm-5.14-.082H18.62v1.147h1.362a0.573,0.573,0,0,0,.658-0.6A0.542,0.542,0,0,0,19.993,16.667Zm-8.582-3.675a0.719,0.719,0,0,0,.662-0.442l0.14-.315v0.017a0.732,0.732,0,0,0,.725.74h1.071a0.723,0.723,0,0,0,.391-0.131,0.715,0.715,0,0,0,.391.131h3.494a0.686,0.686,0,0,0,.362-0.115,0.692,0.692,0,0,0,.363.115h1.047a0.731,0.731,0,0,0,.721-0.74V11.359h0.4c0.091,0,.155,0,0.2,0,0,0.078,0,.168,0,0.225l0,0.1,0,0.564a0.733,0.733,0,0,0,.725.736h1.056a0.657,0.657,0,0,0,.322-0.09,0.714,0.714,0,0,0,.33.09h1.068a0.714,0.714,0,0,0,.694-0.6,2.981,2.981,0,0,0,1.9.6H28.7a0.725,0.725,0,0,0,.669-0.463l0.211-.539h1.206l0.219,0.543a0.726,0.726,0,0,0,.67.459h2.13a0.731,0.731,0,0,0,.721-0.74V11.539l0.642,1.092a0.719,0.719,0,0,0,.622.36h1.482a0.731,0.731,0,0,0,.721-0.74v-4.5a0.731,0.731,0,0,0-.721-0.74H36.2a0.732,0.732,0,0,0-.725.74V8.218l-0.494-.846a0.733,0.733,0,0,0-.622-0.36H32.768a0.734,0.734,0,0,0-.721.744V8.386L31.66,7.461A0.723,0.723,0,0,0,31,7.012H29.429A0.7,0.7,0,0,0,29,7.158a0.735,0.735,0,0,0-.434-0.147H27.554a2.817,2.817,0,0,0-1.964.629,0.725,0.725,0,0,0-.7-0.629H23.82a0.725,0.725,0,0,0-.645.417,1.116,1.116,0,0,0-.132-0.1,3.012,3.012,0,0,0-1.63-.315H19.009a0.7,0.7,0,0,0-.363.114,0.694,0.694,0,0,0-.362-0.114H14.79a0.679,0.679,0,0,0-.391.135,0.687,0.687,0,0,0-.391-0.135H12.264a0.726,0.726,0,0,0-.665.453L10.978,8.971,10.292,7.445a0.719,0.719,0,0,0-.654-0.433H7.929a0.735,0.735,0,0,0-.725.744V8.4l-0.39-.941a0.724,0.724,0,0,0-.666-0.449H4.6a0.728,0.728,0,0,0-.665.449l-1.872,4.5a0.759,0.759,0,0,0,.059.7,0.708,0.708,0,0,0,.6.332H3.858a0.721,0.721,0,0,0,.666-0.459l0.222-.543H5.958l0.219,0.543a0.715,0.715,0,0,0,.665.459H8.974a0.731,0.731,0,0,0,.721-0.74V12.231l0.14,0.319a0.719,0.719,0,0,0,.661.442h0.916ZM25.96,8.276a2.1,2.1,0,0,1,1.59-.524h1.012V8.717H27.569a0.984,0.984,0,0,0-.8.266,1.5,1.5,0,0,0-.3,1.018,1.59,1.59,0,0,0,.287,1.055,1,1,0,0,0,.729.234h0.47l1.478-3.538H31l1.768,4.253V7.752h1.593L36.2,10.885V7.752h1.072v4.5H35.792L33.807,8.877v3.375h-2.13L31.27,11.245H29.095L28.7,12.251H27.473a2.162,2.162,0,0,1-1.513-.5,2.282,2.282,0,0,1-.5-1.714A2.424,2.424,0,0,1,25.96,8.276Zm1.972,1.186L27.477,10.55a0.715,0.715,0,0,1-.207-0.025A1.231,1.231,0,0,1,27.191,10a1.2,1.2,0,0,1,.079-0.487,0.372,0.372,0,0,1,.3-0.057ZM23.82,7.752h1.068v4.5H23.82v-4.5Zm-4.827,0h2.421a2.409,2.409,0,0,1,1.267.213,1.058,1.058,0,0,1,.53,1,1.268,1.268,0,0,1-.737,1.2,1.187,1.187,0,0,1,.518.376,1.333,1.333,0,0,1,.175.826v0.88H22.112L22.1,11.683a1.376,1.376,0,0,0-.163-0.875,1,1,0,0,0-.765-0.193h-1.12v1.637H18.993v-4.5Zm-4.207,0h3.5V8.688H15.833V9.5h2.391v0.925H15.833v0.9h2.451v0.933h-3.5v-4.5Zm-5.812.974v3.526H6.842l-0.4-1.006H4.265L3.858,12.251H2.719l1.872-4.5H6.145L7.925,12.01V7.752H9.635L11.005,10.8l1.258-3.051h1.729v4.5H12.934l0-3.522-1.519,3.522H10.5ZM21.845,9.6a0.467,0.467,0,0,0,.215-0.426,0.416,0.416,0,0,0-.219-0.4,1.1,1.1,0,0,0-.5-0.077H20.056v1h1.271A0.964,0.964,0,0,0,21.845,9.6Zm8.346-1.081-0.721,1.8h1.445Zm-25.555,1.8H6.061l-0.713-1.8Z"/>
</svg>
