<svg id="Diners_Club" data-name="Diners Club" xmlns="http://www.w3.org/2000/svg" width="42" height="28" viewBox="0 0 42 28">
  <defs>
    <style>
      .cls-1 {
        fill: #e6edf2;
      }

      .cls-2 {
        fill: #fff;
      }

      .cls-3 {
        fill: #004a98;
        fill-rule: evenodd;
      }
    </style>
  </defs>
  <rect id="_" data-name="#" class="cls-1" width="42" height="28" rx="3" ry="3"/>
  <circle id="_2" data-name="#" class="cls-2" cx="20" cy="14" r="7"/>
  <path id="_3" data-name="#" class="cls-3" d="M22.071,21.008H19.629a6.844,6.844,0,0,1-6.622-6.946,6.71,6.71,0,0,1,6.324-7.068h2.739A6.964,6.964,0,0,1,29.006,14v0.061A7.03,7.03,0,0,1,22.071,21.008ZM20.017,7.993a6.018,6.018,0,0,0,0,12.033A6.018,6.018,0,0,0,20.017,7.993ZM18.994,18.064A4.148,4.148,0,0,1,16.121,13a4.073,4.073,0,0,1,2.874-2.973v8.033Zm2.012,0A4.148,4.148,0,0,0,23.879,13a4.073,4.073,0,0,0-2.874-2.973v8.033Z"/>
</svg>
