<svg xmlns="http://www.w3.org/2000/svg" width="42" height="28" viewBox="0 0 42 28">
  <defs>
    <style>
      .cls-1 {
        fill: #243b87;
      }

      .cls-2 {
        fill: #fff;
        fill-rule: evenodd;
      }
    </style>
  </defs>
  <rect id="_2" data-name="2" class="cls-1" width="42" height="28" rx="3" ry="3"/>
  <path id="_1" data-name="1" class="cls-2" d="M31.11,17.962l-0.249-1.231H28.224l-0.429,1.231H25.637L28.721,10.6a0.937,0.937,0,0,1,.875-0.583h1.756l1.659,7.948h-1.9Zm-1.212-5.8-1.083,2.827h1.705Zm-6.163-.532a0.826,0.826,0,0,0-.873.649c-0.02.938,2.89,0.991,2.881,3.089-0.008,1.653-1.42,2.656-3.579,2.656a6.191,6.191,0,0,1-2.286-.422L20.25,15.86a4.3,4.3,0,0,0,2.111.5,1.068,1.068,0,0,0,1.231-.778c0-.348-0.266-0.536-1.067-0.925-0.779-.38-1.814-0.956-1.8-2.1h0c0.012-1.546,1.441-2.611,3.473-2.611a5.511,5.511,0,0,1,1.924.353l-0.361,1.685A3.871,3.871,0,0,0,23.735,11.629Zm-7.326,6.332,1.7-7.948h2.055l-1.7,7.948H16.409Zm-4.686,0-1.64-6.342a0.87,0.87,0,0,0-.488-0.7,8.559,8.559,0,0,0-2.029-.676l0.049-.231h3.5a0.958,0.958,0,0,1,.948.81l0.866,4.6,2.14-5.41h2.159L13.9,17.962H11.723Z"/>
</svg>
