<svg xmlns="http://www.w3.org/2000/svg" viewBox="0 0 14 15.017">
  <defs>
    <style>
      .cls-1, .cls-2 {
        fill: #929ba2;
      }

      .cls-1 {
        opacity: 0.2;
      }
    </style>
  </defs>
  <g id="Details" transform="translate(-51 -104.983)">
    <rect id="_" data-name="#" class="cls-1" width="4" height="1" transform="translate(56 106)"/>
    <path id="_2" data-name="#" class="cls-2" d="M53,120h-.157A1.844,1.844,0,0,1,51,118.155v-10.33a1.844,1.844,0,0,1,1.842-1.842H55V105.8a.794.794,0,0,1,.067-.317.748.748,0,0,1,.683-.5h4.51a.737.737,0,0,1,.737.737v.058a.051.051,0,0,0,0,.009.032.032,0,0,1,0,.01v.183h2.16A1.844,1.844,0,0,1,65,107.825v10.329A1.844,1.844,0,0,1,63.16,120H53Zm-1-12v10a1,1,0,0,0,1,1H63a1,1,0,0,0,1-1V108a1,1,0,0,0-1-1H61v.2a.8.8,0,0,1-.8.8H55.8a.8.8,0,0,1-.8-.8V107H53A1,1,0,0,0,52,108Zm4-1.5a.5.5,0,0,0,.5.5h3a.5.5,0,0,0,0-1h-3A.5.5,0,0,0,56,106.5ZM58.5,117a.5.5,0,0,1,0-1h3a.5.5,0,0,1,0,1ZM54,115.5a1.5,1.5,0,1,1,1.5,1.5A1.5,1.5,0,0,1,54,115.5Zm1,0a.5.5,0,1,0,.5-.5A.5.5,0,0,0,55,115.5Zm3.5-.5a.5.5,0,0,1,0-1h3a.5.5,0,0,1,0,1Zm0-2a.5.5,0,0,1,0-1h3a.5.5,0,0,1,0,1ZM54,111.5a1.5,1.5,0,1,1,1.5,1.5A1.5,1.5,0,0,1,54,111.5Zm1,0a.5.5,0,1,0,.5-.5A.5.5,0,0,0,55,111.5Zm3.5-.5a.5.5,0,0,1,0-1h3a.5.5,0,0,1,0,1Z"/>
  </g>
</svg>
