<svg xmlns="http://www.w3.org/2000/svg" viewBox="0 0 13.987 13">
  <defs>
    <style>
      .cls-1, .cls-2 {
        fill: #929ba2;
      }

      .cls-1 {
        opacity: 0.2;
      }
    </style>
  </defs>
  <g id="Print" transform="translate(-51.007 -131)">
    <rect id="_" data-name="#" class="cls-1" width="6" height="4" transform="translate(55 139)"/>
    <path id="_2" data-name="#" class="cls-2" d="M56,144c-.023,0-.045-.006-.068-.007h-1.5a.437.437,0,0,1-.437-.436v-3.143a.436.436,0,0,0-.437-.436H51.444a.438.438,0,0,1-.437-.437v-4.37a2.185,2.185,0,0,1,2.186-2.185h9.615a2.186,2.186,0,0,1,2.186,2.185v4.37a.438.438,0,0,1-.437.437H62.433A.435.435,0,0,0,62,140.4v3.156a.437.437,0,0,1-.437.436H60.069c-.023,0-.045.007-.068.007Zm-1-4v2a1,1,0,0,0,1,1h4a1,1,0,0,0,1-1v-2a1,1,0,0,0-1-1H56A1,1,0,0,0,55,140Zm7-1h1a1,1,0,0,0,1-1v-3a1,1,0,0,0-1-1H53a1,1,0,0,0-1,1v3a1,1,0,0,0,1,1h1c0-1.1.9-1,2-1h4.508C61.367,138,62,138.071,62,139Zm-1-3a1,1,0,1,1,1,1A1,1,0,0,1,61,136Zm-6.5-4a.5.5,0,0,1,0-1h7a.5.5,0,0,1,0,1Z"/>
  </g>
</svg>
