<svg xmlns="http://www.w3.org/2000/svg" viewBox="0 0 12 12">
  <defs>
    <style>
      .cls-1, .cls-2 {
        fill: #929ba2;
      }

      .cls-1 {
        opacity: 0.2;
      }
    </style>
  </defs>
  <g id="Report" transform="translate(-53 -155)">
    <rect id="_" data-name="#" class="cls-1" width="1" height="5" transform="translate(59 155.97)"/>
    <path id="_2" data-name="#" class="cls-2" d="M53.5,167a.5.5,0,0,1-.5-.5v-11a.5.5,0,0,1,1,0v11A.5.5,0,0,1,53.5,167ZM64,163H60a1,1,0,0,1-1-1H56a1,1,0,0,1-1-1v-5a1,1,0,0,1,1-1h4a1,1,0,0,1,1,1h3a1,1,0,0,1,1,1v5A1,1,0,0,1,64,163Zm-4-2.455h0v.955a.5.5,0,0,0,.5.5h3a.5.5,0,0,0,.5-.5v-4a.5.5,0,0,0-.5-.5h-3a.5.5,0,0,0-.5.5v-1a.5.5,0,0,0-.5-.5h-3a.5.5,0,0,0-.5.5v4a.5.5,0,0,0,.5.5h3A.5.5,0,0,0,60,160.545Z"/>
  </g>
</svg>
