<svg id="_" data-name="#" xmlns="http://www.w3.org/2000/svg" width="24" height="24" viewBox="0 0 24 24">
  <defs>
    <style>
      .cls-1 {
        fill: #2f333b;
        fill-rule: evenodd;
      }
    </style>
  </defs>
  <path id="Google_" data-name="Google+" class="cls-1" d="M20.75,23H4.25A2.251,2.251,0,0,1,2,20.75V4.251A2.251,2.251,0,0,1,4.25,2h16.5A2.251,2.251,0,0,1,23,4.251v16.5A2.251,2.251,0,0,1,20.75,23ZM16.019,13H16V12.578c-0.015-.233-0.035-0.456-0.057-0.585H11v1.99h2.963a2.77,2.77,0,0,1-2.942,2.011,3.038,3.038,0,0,1-3.03-3.068A2.918,2.918,0,0,1,11.016,10a3.273,3.273,0,0,1,2.136.569l1.294-1.337a4.629,4.629,0,0,0-3.333-1.275,5.012,5.012,0,0,0-5.146,4.964,5.164,5.164,0,0,0,5.146,5.146,4.6,4.6,0,0,0,4.91-4.853C16.024,13.155,16.021,13.077,16.019,13ZM20,12H19V11H18v1H17v1h1v1h1V13h1V12Z"/>
</svg>
