<svg xmlns="http://www.w3.org/2000/svg" width="40" height="29" viewBox="0 0 40 29">
  <metadata><?xpacket begin="﻿" id="W5M0MpCehiHzreSzNTczkc9d"?>
<x:xmpmeta xmlns:x="adobe:ns:meta/" x:xmptk="Adobe XMP Core 5.6-c140 79.160451, 2017/05/06-01:08:21        ">
   <rdf:RDF xmlns:rdf="http://www.w3.org/1999/02/22-rdf-syntax-ns#">
      <rdf:Description rdf:about=""/>
   </rdf:RDF>
</x:xmpmeta>
                                                                                                    
                                                                                                    
                                                                                                    
                                                                                                    
                                                                                                    
                                                                                                    
                                                                                                    
                                                                                                    
                                                                                                    
                                                                                                    
                                                                                                    
                                                                                                    
                                                                                                    
                                                                                                    
                                                                                                    
                                                                                                    
                                                                                                    
                                                                                                    
                                                                                                    
                                                                                                    
                           
<?xpacket end="w"?></metadata>
<defs>
    <style>
      .cls-1 {
        fill: #fff;
        fill-rule: evenodd;
        opacity: 0.7;
      }
    </style>
  </defs>
  <path id="_" data-name="#" class="cls-1" d="M36.451,28.994H3.549A3.549,3.549,0,0,1,.007,25.436V3.562A3.548,3.548,0,0,1,3.549,0h32.9a3.549,3.549,0,0,1,3.542,3.558V25.436A3.549,3.549,0,0,1,36.451,28.994ZM3.486,26.968H36.514A1.489,1.489,0,0,0,38,25.467V3.578L25.928,14.126l6.709,6.054a1.03,1.03,0,0,1,.04,1.456,1.029,1.029,0,0,1-1.453.04l-6.851-6.193-1.787,1.558a4.029,4.029,0,0,1-5.164,0l-1.789-1.56L8.744,21.677A1.029,1.029,0,0,1,7.33,20.183l6.743-6.057L2,3.576V25.467A1.489,1.489,0,0,0,3.486,26.968ZM3.549,2c-0.03,0-.056.015-0.086,0.017L18.769,15.5a2,2,0,0,0,2.464,0L36.543,2.017C36.511,2.015,36.484,2,36.451,2H3.549Z"/>
</svg>
