<svg xmlns="http://www.w3.org/2000/svg" width="24" height="24" viewBox="0 0 24 24">
  <metadata><?xpacket begin="﻿" id="W5M0MpCehiHzreSzNTczkc9d"?>
<x:xmpmeta xmlns:x="adobe:ns:meta/" x:xmptk="Adobe XMP Core 5.6-c140 79.160451, 2017/05/06-01:08:21        ">
   <rdf:RDF xmlns:rdf="http://www.w3.org/1999/02/22-rdf-syntax-ns#">
      <rdf:Description rdf:about=""/>
   </rdf:RDF>
</x:xmpmeta>
                                                                                                    
                                                                                                    
                                                                                                    
                                                                                                    
                                                                                                    
                                                                                                    
                                                                                                    
                                                                                                    
                                                                                                    
                                                                                                    
                                                                                                    
                                                                                                    
                                                                                                    
                                                                                                    
                                                                                                    
                                                                                                    
                                                                                                    
                                                                                                    
                                                                                                    
                                                                                                    
                           
<?xpacket end="w"?></metadata>
<defs>
    <style>
      .cls-1 {
        fill: #6f7477;
        fill-rule: evenodd;
      }
    </style>
  </defs>
  <path id="Twitter" class="cls-1" d="M24.255,5.239A9.651,9.651,0,0,1,21.477,6,4.854,4.854,0,0,0,23.6,3.324,9.7,9.7,0,0,1,20.531,4.5a4.839,4.839,0,0,0-8.24,4.41A13.73,13.73,0,0,1,2.323,3.856a4.842,4.842,0,0,0,1.5,6.456,4.807,4.807,0,0,1-2.191-.6V9.769A4.84,4.84,0,0,0,5.507,14.51a4.877,4.877,0,0,1-2.184.083,4.846,4.846,0,0,0,4.518,3.36,9.717,9.717,0,0,1-6.006,2.069,10.171,10.171,0,0,1-1.153-.068A13.646,13.646,0,0,0,8.1,22.065a13.615,13.615,0,0,0,13.759-13.7c0-.209,0-0.418-0.015-0.626a9.855,9.855,0,0,0,2.414-2.5h0Z"/>
</svg>
