<svg xmlns="http://www.w3.org/2000/svg" width="24" height="24" viewBox="0 0 24 24">
  <metadata><?xpacket begin="﻿" id="W5M0MpCehiHzreSzNTczkc9d"?>
<x:xmpmeta xmlns:x="adobe:ns:meta/" x:xmptk="Adobe XMP Core 5.6-c140 79.160451, 2017/05/06-01:08:21        ">
   <rdf:RDF xmlns:rdf="http://www.w3.org/1999/02/22-rdf-syntax-ns#">
      <rdf:Description rdf:about=""/>
   </rdf:RDF>
</x:xmpmeta>
                                                                                                    
                                                                                                    
                                                                                                    
                                                                                                    
                                                                                                    
                                                                                                    
                                                                                                    
                                                                                                    
                                                                                                    
                                                                                                    
                                                                                                    
                                                                                                    
                                                                                                    
                                                                                                    
                                                                                                    
                                                                                                    
                                                                                                    
                                                                                                    
                                                                                                    
                                                                                                    
                           
<?xpacket end="w"?></metadata>
<defs>
    <style>
      .cls-1 {
        fill: #6f7477;
        fill-rule: evenodd;
      }
    </style>
  </defs>
  <path id="Instagram" class="cls-1" d="M22.924,16.811a7.7,7.7,0,0,1-.488,2.546,5.362,5.362,0,0,1-3.067,3.068,7.712,7.712,0,0,1-2.546.487c-1.119.05-1.476,0.062-4.324,0.062s-3.206-.012-4.324-0.062a7.711,7.711,0,0,1-2.546-.487,5.157,5.157,0,0,1-1.857-1.21,5.141,5.141,0,0,1-1.21-1.857,7.706,7.706,0,0,1-.488-2.546c-0.051-1.119-.063-1.476-0.063-4.324s0.013-3.206.063-4.325A7.693,7.693,0,0,1,2.56,5.617,5.126,5.126,0,0,1,3.77,3.759a5.133,5.133,0,0,1,1.857-1.21,7.7,7.7,0,0,1,2.546-.487C9.292,2.01,9.65,2,12.5,2s3.206,0.011,4.324.063a7.7,7.7,0,0,1,2.546.487,5.361,5.361,0,0,1,3.067,3.068,7.682,7.682,0,0,1,.488,2.545c0.051,1.119.063,1.476,0.063,4.325S22.974,15.692,22.924,16.811ZM20.988,8.272a5.786,5.786,0,0,0-.359-1.937,3.237,3.237,0,0,0-.781-1.2,3.223,3.223,0,0,0-1.2-.78A5.76,5.76,0,0,0,16.713,4c-1.1-.05-1.429-0.062-4.215-0.062S9.383,3.946,8.282,4a5.761,5.761,0,0,0-1.937.359,3.228,3.228,0,0,0-1.2.78,3.247,3.247,0,0,0-.781,1.2,5.791,5.791,0,0,0-.358,1.937c-0.05,1.1-.061,1.43-0.061,4.215S3.958,15.6,4.008,16.7a5.788,5.788,0,0,0,.358,1.937,3.457,3.457,0,0,0,1.98,1.98,5.791,5.791,0,0,0,1.937.359c1.1,0.05,1.43.06,4.216,0.06s3.115-.011,4.215-0.06a5.791,5.791,0,0,0,1.937-.359,3.456,3.456,0,0,0,1.98-1.98,5.783,5.783,0,0,0,.359-1.937c0.05-1.1.061-1.428,0.061-4.214S21.039,9.372,20.988,8.272Zm-2.954,0a1.259,1.259,0,1,1,1.259-1.258A1.258,1.258,0,0,1,18.034,8.272Zm-5.521,9.741a5.511,5.511,0,1,1,5.511-5.51A5.511,5.511,0,0,1,12.513,18.013Zm0-9.087A3.577,3.577,0,1,0,16.091,12.5,3.577,3.577,0,0,0,12.513,8.926Z"/>
</svg>
