<svg xmlns="http://www.w3.org/2000/svg" width="144" height="126" viewBox="0 0 144 126">
  <metadata><?xpacket begin="﻿" id="W5M0MpCehiHzreSzNTczkc9d"?>
<x:xmpmeta xmlns:x="adobe:ns:meta/" x:xmptk="Adobe XMP Core 5.6-c140 79.160451, 2017/05/06-01:08:21        ">
   <rdf:RDF xmlns:rdf="http://www.w3.org/1999/02/22-rdf-syntax-ns#">
      <rdf:Description rdf:about=""/>
   </rdf:RDF>
</x:xmpmeta>
                                                                                                    
                                                                                                    
                                                                                                    
                                                                                                    
                                                                                                    
                                                                                                    
                                                                                                    
                                                                                                    
                                                                                                    
                                                                                                    
                                                                                                    
                                                                                                    
                                                                                                    
                                                                                                    
                                                                                                    
                                                                                                    
                                                                                                    
                                                                                                    
                                                                                                    
                                                                                                    
                           
<?xpacket end="w"?></metadata>
<defs>
    <style>
      .cls-1 {
        fill: #5f6061;
      }

      .cls-1, .cls-2 {
        fill-rule: evenodd;
      }

      .cls-2 {
        fill: #7f8081;
      }
    </style>
  </defs>
  <path id="_" data-name="#" class="cls-1" d="M120,47A33,33,0,0,1,71,75.862a33,33,0,1,1,0-57.723,33,33,0,0,1,37,3.406V2h12V46.937h0C120,46.958,120,46.979,120,47ZM60.875,26.849a21,21,0,1,0,0,40.3A32.968,32.968,0,0,1,60.875,26.849ZM87,26a21,21,0,1,0,21,21A21,21,0,0,0,87,26Zm46.333,96.185a6.329,6.329,0,0,0,3.741-1.7,25.658,25.658,0,0,0,4.44-4.885l0.135,0.107A22.7,22.7,0,0,1,136.5,121.2a8.815,8.815,0,0,1-5.134,1.824,3.739,3.739,0,0,1-2.651-.889,3.177,3.177,0,0,1-.955-2.448c0-.04.016-0.08,0.017-0.12a19.045,19.045,0,0,1-1.542,1.568A5.968,5.968,0,0,1,122.571,123a1.919,1.919,0,0,1-1.508-.619,2.5,2.5,0,0,1-.552-1.723,5.2,5.2,0,0,1,.289-1.554c0.012-.036.031-0.075,0.044-0.112a19.894,19.894,0,0,1-2.073,2.025A6.972,6.972,0,0,1,114.607,123a3.484,3.484,0,0,1-1.05-.168,6.329,6.329,0,0,1-1.184-.532q-0.189-.093-0.538-0.3a4.124,4.124,0,0,0-1.642-.66,1.224,1.224,0,0,0-.654.189,2.362,2.362,0,0,0-.611.606c-0.027.035-.063,0.085-0.108,0.147a1.314,1.314,0,0,1-.915.686,0.385,0.385,0,0,1-.282-0.093,0.362,0.362,0,0,1-.095-0.269,2.359,2.359,0,0,1,1.265-1.057,22.359,22.359,0,0,0,2.113-1.339,10,10,0,0,0,.78-0.659,23.722,23.722,0,0,1,5.787-3.807l-0.054-.136a6.08,6.08,0,0,1-1,.242,6.87,6.87,0,0,1-1.076.081,7.772,7.772,0,0,1-1.81-.25,7.589,7.589,0,0,0-1.352-.248,2.037,2.037,0,0,0-.614.1l0.158,0.079a25.372,25.372,0,0,1-4.675,5.41A6.974,6.974,0,0,1,102.888,123a3.473,3.473,0,0,1-1.049-.168,6.329,6.329,0,0,1-1.184-.532q-0.187-.093-0.539-0.3a4.116,4.116,0,0,0-1.642-.66,1.21,1.21,0,0,0-.651.189,2.32,2.32,0,0,0-.613.606c-0.028.035-.063,0.085-0.108,0.147a1.316,1.316,0,0,1-.915.686,0.385,0.385,0,0,1-.282-0.093,0.365,0.365,0,0,1-.094-0.269,2.351,2.351,0,0,1,1.265-1.057,22.565,22.565,0,0,0,2.112-1.339,10.21,10.21,0,0,0,.781-0.659,23.667,23.667,0,0,1,5.786-3.807l-0.054-.136a6.067,6.067,0,0,1-1,.242,6.852,6.852,0,0,1-1.076.081,7.785,7.785,0,0,1-1.809-.25,7.579,7.579,0,0,0-1.353-.248,1.979,1.979,0,0,0-.786.148,2.032,2.032,0,0,0-.626.431l-0.161-.162a8.715,8.715,0,0,1,1.951-2.273,3.294,3.294,0,0,1,1.991-.647,6.9,6.9,0,0,1,2.408.553,6.906,6.906,0,0,0,1.911.551,2,2,0,0,0,.391-0.047c0.151-.032.335-0.078,0.551-0.142a3.78,3.78,0,0,1,.572-1,0.807,0.807,0,0,1,.586-0.33,0.323,0.323,0,0,1,.336.336,3.588,3.588,0,0,1-1.386,1.333q-1.131.82-1.871,1.426H106.32a37.855,37.855,0,0,1-6.082,4.131l0.053,0.107c0.054,0,.2,0,0.444-0.012s0.463-.014.66-0.014a7.408,7.408,0,0,1,1.992.411,7.39,7.39,0,0,0,2,.41,4.383,4.383,0,0,0,2.751-1.036,20.227,20.227,0,0,0,3.422-4.074c-0.055.017-.115,0.028-0.168,0.05a2.023,2.023,0,0,0-.626.431l-0.161-.162a8.754,8.754,0,0,1,1.951-2.273,3.3,3.3,0,0,1,1.992-.647,6.9,6.9,0,0,1,2.408.553,6.906,6.906,0,0,0,1.911.551,2,2,0,0,0,.39-0.047c0.153-.032.338-0.078,0.553-0.142a3.7,3.7,0,0,1,.571-1,0.807,0.807,0,0,1,.585-0.33,0.327,0.327,0,0,1,.242.095,0.321,0.321,0,0,1,.1.241,3.579,3.579,0,0,1-1.386,1.333q-1.131.82-1.871,1.426h-0.013a37.769,37.769,0,0,1-6.083,4.131l0.055,0.107c0.053,0,.2,0,0.443-0.012s0.463-.014.66-0.014a7.388,7.388,0,0,1,1.991.411,7.411,7.411,0,0,0,2,.41,4.388,4.388,0,0,0,2.753-1.036,9.854,9.854,0,0,0,1.2-1.185,10.855,10.855,0,0,1,.575-1.178l7.239-12.892,3.836-.187-8.814,15.2a6.091,6.091,0,0,0-.526,1.157,3.367,3.367,0,0,0-.2,1.023,0.678,0.678,0,0,0,.209.518,0.766,0.766,0,0,0,.545.2q0.9,0,2.745-1.824c0.379-.374.765-0.791,1.155-1.24a5.223,5.223,0,0,1,.6-1.943,7.626,7.626,0,0,1,1.863-2.227,9.589,9.589,0,0,1,2.839-1.641,8.918,8.918,0,0,1,3.122-.592,2.794,2.794,0,0,1,1.689.458,1.463,1.463,0,0,1,.626,1.25,2.63,2.63,0,0,1-1.641,2.215,23.164,23.164,0,0,1-5.665,1.836c-0.01.116-.028,0.279-0.054,0.485-0.036.34-.054,0.565-0.054,0.672a2.65,2.65,0,0,0,.579,1.823A2.024,2.024,0,0,0,133.333,122.185Zm1.358-5.591a3.9,3.9,0,0,0,1.279-2.819,0.8,0.8,0,0,0-.161-0.511,0.51,0.51,0,0,0-.418-0.2q-0.9,0-2.174,1.547a10.349,10.349,0,0,0-1.9,3.714A6.673,6.673,0,0,0,134.691,116.594Zm-42.215,5.062a0.723,0.723,0,0,0,.175.486,0.525,0.525,0,0,0,.4.2,4.451,4.451,0,0,0,2.618-1.586,44.361,44.361,0,0,0,4.218-5.128l0.135,0.108a35.051,35.051,0,0,1-4.6,5.577,5.327,5.327,0,0,1-3.37,1.69,2.309,2.309,0,0,1-1.717-.661,2.365,2.365,0,0,1-.653-1.735c0-.081,0-0.165.007-0.25s0.012-.177.021-0.275a7.506,7.506,0,0,1-2.181,2.133,4.481,4.481,0,0,1-2.368.788,2.427,2.427,0,0,1-1.884-.8,3,3,0,0,1-.726-2.093,5.875,5.875,0,0,1,.774-2.832,8.093,8.093,0,0,1,2.174-2.509,8.958,8.958,0,0,1,2.4-1.38,6.835,6.835,0,0,1,2.442-.493,2.549,2.549,0,0,1,1.6.452,2.022,2.022,0,0,1,.714,1.366l0.754-1.4,3.714-.228q-2.451,3.873-3.553,5.907A7.884,7.884,0,0,0,92.476,121.656Zm-0.807-8.127a0.829,0.829,0,0,0-.74-0.39,2.217,2.217,0,0,0-1.312.491,8.045,8.045,0,0,0-1.5,1.581,12.529,12.529,0,0,0-1.568,2.745,6.663,6.663,0,0,0-.6,2.436,1.61,1.61,0,0,0,.309,1.043,1.028,1.028,0,0,0,.848.383,2,2,0,0,0,1.2-.464,6.792,6.792,0,0,0,1.326-1.461,15.423,15.423,0,0,0,1.682-2.906,6.254,6.254,0,0,0,.606-2.356A2,2,0,0,0,91.669,113.529Zm-12.044-7.751a10.3,10.3,0,0,1,2.592,3.283,8.472,8.472,0,0,1,.908,3.782,8.73,8.73,0,0,1-1.36,4.635,10.339,10.339,0,0,1-3.7,3.572,13.382,13.382,0,0,1-4.029,1.442,26.976,26.976,0,0,1-5.35.483q-1.089,0-3.2-.188-1.036-.095-1.548-0.134c-0.627.115-1.2,0.2-1.708,0.262A12.415,12.415,0,0,1,60.84,123a5.894,5.894,0,0,1-1.951-.25,0.817,0.817,0,0,1-.672-0.7,0.45,0.45,0,0,1,.275-0.405,1.658,1.658,0,0,1,.775-0.148,13.538,13.538,0,0,1,1.944.2q1.257,0.193,3.156.6a5.92,5.92,0,0,0,3.007-1.9,23.784,23.784,0,0,0,3.2-4.784c0.161-.3.408-0.79,0.739-1.453a32.628,32.628,0,0,1,3.472-5.719,17.1,17.1,0,0,1,1.676-1.77,12.29,12.29,0,0,1,1.77-1.338,8.13,8.13,0,0,0-2.4-1.1,10.238,10.238,0,0,0-2.839-.39,9.593,9.593,0,0,0-3.909.847,10.477,10.477,0,0,0-5.416,5.437,8.48,8.48,0,0,0-.74,3.39,3.928,3.928,0,0,0,.727,2.5,2.391,2.391,0,0,0,1.978.915,3.824,3.824,0,0,0,3.029-1.7,6.216,6.216,0,0,0,1.332-3.956,7.648,7.648,0,0,0-.215-1.77,10.448,10.448,0,0,0-.646-1.863l0.161-.053a10.937,10.937,0,0,1,.672,1.923,7.559,7.559,0,0,1,.215,1.763,6.653,6.653,0,0,1-1.52,4.266,6.156,6.156,0,0,1-1.965,1.648,4.79,4.79,0,0,1-2.247.585,4.279,4.279,0,0,1-3.169-1.284,4.335,4.335,0,0,1-1.272-3.17,7.858,7.858,0,0,1,.942-3.673,9.812,9.812,0,0,1,2.611-3.136,12.667,12.667,0,0,1,4.063-2.159,15.514,15.514,0,0,1,4.845-.76,13.693,13.693,0,0,1,3.33.382,10.523,10.523,0,0,1,2.82,1.152,12.3,12.3,0,0,1,3.021-1.394,13.605,13.605,0,0,1,3.4-.585q-0.351.108-.982,0.284A9.107,9.107,0,0,0,79.625,105.778Zm-3.316,5.665a38.465,38.465,0,0,1-2.523,4.616,15.677,15.677,0,0,1-3.882,3.962,16.139,16.139,0,0,1-5.093,2.349,15.219,15.219,0,0,0,1.81.3,18.365,18.365,0,0,0,1.9.095,11.252,11.252,0,0,0,4.252-.773,10.3,10.3,0,0,0,3.458-2.335,13.068,13.068,0,0,0,2.853-4.428,14.125,14.125,0,0,0,1.036-5.276,7.686,7.686,0,0,0-.235-2,4.915,4.915,0,0,0-.72-1.555A35.983,35.983,0,0,0,76.308,111.443ZM41.242,123a4.031,4.031,0,0,1-2.712-.882,2.906,2.906,0,0,1-1.029-2.321c0-.105.041-0.2,0.047-0.309a17.735,17.735,0,0,1-1.571,1.623,5.969,5.969,0,0,1-3.668,1.869,1.919,1.919,0,0,1-1.507-.619,2.493,2.493,0,0,1-.551-1.722,4.75,4.75,0,0,1,.209-1.282,18.217,18.217,0,0,1-1.724,1.925,5.1,5.1,0,0,1-3.243,1.676,2.086,2.086,0,0,1-1.608-.647,2.467,2.467,0,0,1-.6-1.749,3.959,3.959,0,0,1,.317-1.52,9.6,9.6,0,0,1,1.081-2.057q0.255-.378.739-0.982a3.826,3.826,0,0,0,.969-1.8,0.6,0.6,0,0,0-.249-0.491,0.971,0.971,0,0,0-.612-0.2q-1.185,0-3.4,2.529a34.676,34.676,0,0,0-4.422,6.754l-3.7.188L24.655,104.33l3.768-.322-6.029,10.16q-0.645,1.076-1.365,2.193t-1.5,2.3l0.215,0.108a26.1,26.1,0,0,1,4.037-4.63,5.312,5.312,0,0,1,3.27-1.506,2.312,2.312,0,0,1,1.628.605,1.962,1.962,0,0,1,.66,1.507,6.339,6.339,0,0,1-1.382,3.281q-0.336.486-.511,0.74-0.727,1.118-1.09,1.81a2.6,2.6,0,0,0-.364.976,0.706,0.706,0,0,0,.162.465,0.49,0.49,0,0,0,.389.194q0.957,0,2.564-1.628a20.146,20.146,0,0,0,1.545-1.822,10.3,10.3,0,0,1,.729-1.621l2.234-3.929,3.687-.148-0.04.068c-2.9,4.718-4.347,7.565-4.347,8.39a0.68,0.68,0,0,0,.208.518,0.767,0.767,0,0,0,.546.195c0.61,0,1.524-.68,2.744-1.891,0.393-.39.794-0.826,1.2-1.3a5.489,5.489,0,0,1,.8-2.193A8.2,8.2,0,0,1,41,114.369a9.661,9.661,0,0,1,2.483-1.143,8.959,8.959,0,0,1,2.59-.406,3.344,3.344,0,0,1,1.864.445A1.411,1.411,0,0,1,48.6,114.5a1.963,1.963,0,0,1-.774,1.568,2.971,2.971,0,0,1-1.957.638c-0.09,0-.17,0-0.243-0.006s-0.142-.011-0.215-0.019c0.028-.388.047-0.712,0.061-0.977s0.019-.456.019-0.571a4.365,4.365,0,0,0-.168-1.448,0.578,0.578,0,0,0-.558-0.424,1.409,1.409,0,0,0-.807.35,7.426,7.426,0,0,0-1.09,1.1,9.524,9.524,0,0,0-1.459,2.415,6.437,6.437,0,0,0-.492,2.416,2.669,2.669,0,0,0,.605,1.856,2.147,2.147,0,0,0,1.682.674,6.069,6.069,0,0,0,3.62-1.622,27.548,27.548,0,0,0,4.454-4.851l0.135,0.136a23.224,23.224,0,0,1-5.134,5.428A8.644,8.644,0,0,1,41.242,123Zm-3.228-12.1a1.737,1.737,0,0,1-1.264-.552,1.755,1.755,0,0,1-.553-1.278,1.706,1.706,0,0,1,.539-1.259,1.755,1.755,0,0,1,1.278-.532,1.717,1.717,0,0,1,1.272.525,1.737,1.737,0,0,1,.518,1.266,1.78,1.78,0,0,1-.532,1.285A1.7,1.7,0,0,1,38.014,110.9Zm-22.494-.119a3.307,3.307,0,0,1-2.193-.7,2.263,2.263,0,0,1-.834-1.817,2.931,2.931,0,0,1,.276-1.252,3.019,3.019,0,0,1,.8-1.036l0.134,0.108a3.627,3.627,0,0,0-.747,1.036,2.644,2.644,0,0,0-.248,1.117,1.955,1.955,0,0,0,.572,1.453,2,2,0,0,0,1.473.566,2.967,2.967,0,0,0,1.5-.425,4.622,4.622,0,0,0,1.339-1.2,5.9,5.9,0,0,0,.828-1.528,4.5,4.5,0,0,0,.3-1.554,1.794,1.794,0,0,0-.49-1.358,1.976,1.976,0,0,0-1.421-.472,7.626,7.626,0,0,0-3.128.774,13.841,13.841,0,0,0-3.317,2.173,17.735,17.735,0,0,0-4.239,5.4,13.191,13.191,0,0,0-1.547,5.988,5.115,5.115,0,0,0,.969,3.269,3.093,3.093,0,0,0,2.556,1.225,4.413,4.413,0,0,0,3.452-1.769,6.293,6.293,0,0,0,1.486-4.179,3.511,3.511,0,0,0-.565-2.133,1.865,1.865,0,0,0-1.587-.76,2.67,2.67,0,0,0-2.227,1.413,6.08,6.08,0,0,0-.935,3.431c0,0.118,0,.242.014,0.378s0.014,0.21.014,0.228H7.568c-0.026-.18-0.045-0.311-0.054-0.4a2.038,2.038,0,0,1-.014-0.209,6.287,6.287,0,0,1,1.353-4.09,4.036,4.036,0,0,1,3.223-1.669,3.463,3.463,0,0,1,2.51.929,3.2,3.2,0,0,1,.961,2.408,4.723,4.723,0,0,1-.665,2.356,7.621,7.621,0,0,1-1.918,2.166,11.174,11.174,0,0,1-3.108,1.769,9.388,9.388,0,0,1-3.283.626,5.528,5.528,0,0,1-4.084-1.481A5.475,5.475,0,0,1,1,117.493a10.3,10.3,0,0,1,1.474-5.052,17.133,17.133,0,0,1,4.1-4.784,19.56,19.56,0,0,1,5.18-3.1,14.252,14.252,0,0,1,5.289-1.116,4.005,4.005,0,0,1,2.624.787,2.649,2.649,0,0,1,.957,2.16,3.962,3.962,0,0,1-1.541,3.055A5.275,5.275,0,0,1,15.52,110.779Z"/>
  <path id="_2" data-name="#" class="cls-2" d="M70.993,33.424a21.025,21.025,0,0,0-10.118-6.575A33.147,33.147,0,0,1,71,18.138a33.165,33.165,0,0,1,10.117,8.713A21,21,0,0,0,70.993,33.424Zm0,27.152a20.994,20.994,0,0,0,10.123,6.573A33.167,33.167,0,0,1,71,75.862a33.148,33.148,0,0,1-10.124-8.711A21.025,21.025,0,0,0,70.993,60.576Z"/>
</svg>
