<svg xmlns="http://www.w3.org/2000/svg" width="24" height="24" viewBox="0 0 24 24">
  <metadata><?xpacket begin="﻿" id="W5M0MpCehiHzreSzNTczkc9d"?>
<x:xmpmeta xmlns:x="adobe:ns:meta/" x:xmptk="Adobe XMP Core 5.6-c140 79.160451, 2017/05/06-01:08:21        ">
   <rdf:RDF xmlns:rdf="http://www.w3.org/1999/02/22-rdf-syntax-ns#">
      <rdf:Description rdf:about=""/>
   </rdf:RDF>
</x:xmpmeta>
                                                                                                    
                                                                                                    
                                                                                                    
                                                                                                    
                                                                                                    
                                                                                                    
                                                                                                    
                                                                                                    
                                                                                                    
                                                                                                    
                                                                                                    
                                                                                                    
                                                                                                    
                                                                                                    
                                                                                                    
                                                                                                    
                                                                                                    
                                                                                                    
                                                                                                    
                                                                                                    
                           
<?xpacket end="w"?></metadata>
<defs>
    <style>
      .cls-1 {
        fill: #6f7477;
        fill-rule: evenodd;
      }
    </style>
  </defs>
  <path id="Pinterest" class="cls-1" d="M2,12.516a10.525,10.525,0,0,0,6.281,9.639,9.28,9.28,0,0,1,.183-2.417C8.665,18.884,9.814,14,9.814,14a4.054,4.054,0,0,1-.335-1.665c0-1.559.9-2.724,2.023-2.724a1.408,1.408,0,0,1,1.416,1.58,22.716,22.716,0,0,1-.927,3.735,1.627,1.627,0,0,0,1.656,2.027c1.988,0,3.327-2.561,3.327-5.6,0-2.307-1.549-4.033-4.366-4.033a4.976,4.976,0,0,0-5.166,5.04,3.042,3.042,0,0,0,.692,2.064,0.512,0.512,0,0,1,.151.587c-0.05.194-.166,0.66-0.214,0.844a0.361,0.361,0,0,1-.525.264c-1.466-.6-2.149-2.211-2.149-4.02,0-2.99,2.514-6.575,7.5-6.575,4.006,0,6.643,2.907,6.643,6.028,0,4.129-2.288,7.213-5.662,7.213a3.006,3.006,0,0,1-2.563-1.312s-0.609,2.425-.738,2.893a8.825,8.825,0,0,1-1.056,2.255A10.528,10.528,0,1,0,2,12.516Z"/>
</svg>
