<svg xmlns="http://www.w3.org/2000/svg" width="20" height="20" viewBox="0 0 20 20">
  <metadata><?xpacket begin="﻿" id="W5M0MpCehiHzreSzNTczkc9d"?>
<x:xmpmeta xmlns:x="adobe:ns:meta/" x:xmptk="Adobe XMP Core 5.6-c140 79.160451, 2017/05/06-01:08:21        ">
   <rdf:RDF xmlns:rdf="http://www.w3.org/1999/02/22-rdf-syntax-ns#">
      <rdf:Description rdf:about=""/>
   </rdf:RDF>
</x:xmpmeta>
                                                                                                    
                                                                                                    
                                                                                                    
                                                                                                    
                                                                                                    
                                                                                                    
                                                                                                    
                                                                                                    
                                                                                                    
                                                                                                    
                                                                                                    
                                                                                                    
                                                                                                    
                                                                                                    
                                                                                                    
                                                                                                    
                                                                                                    
                                                                                                    
                                                                                                    
                                                                                                    
                           
<?xpacket end="w"?></metadata>
<defs>
    <style>
      .cls-1 {
        fill: #141414;
        fill-rule: evenodd;
      }
    </style>
  </defs>
  <path id="_" data-name="#" class="cls-1" d="M6.629,3.982a3.379,3.379,0,0,1,2.958,1.79L10.444,7.26l0.871-1.48a3.541,3.541,0,0,1,3.057-1.8c1.888,0,3.4,1.628,3.6,3.871l0,0.034L17.985,7.92a4.1,4.1,0,0,1-.131,1.433,6.812,6.812,0,0,1-2.051,3.47l-5.348,4.84L5.2,12.829A6.817,6.817,0,0,1,3.146,9.353a4.079,4.079,0,0,1-.131-1.432l0.006-.034,0-.035c0.2-2.243,1.717-3.87,3.6-3.87m0-1c-2.419,0-4.353,2.01-4.6,4.781A5,5,0,0,0,2.172,9.58a7.815,7.815,0,0,0,2.354,3.985l5.923,5.453,6.025-5.453A7.815,7.815,0,0,0,18.828,9.58a5.01,5.01,0,0,0,.145-1.817c-0.248-2.771-2.181-4.781-4.6-4.781a4.561,4.561,0,0,0-3.918,2.29A4.4,4.4,0,0,0,6.629,2.982h0Z"/>
</svg>
