<svg xmlns="http://www.w3.org/2000/svg" width="20" height="20" viewBox="0 0 20 20">
  <metadata><?xpacket begin="﻿" id="W5M0MpCehiHzreSzNTczkc9d"?>
<x:xmpmeta xmlns:x="adobe:ns:meta/" x:xmptk="Adobe XMP Core 5.6-c140 79.160451, 2017/05/06-01:08:21        ">
   <rdf:RDF xmlns:rdf="http://www.w3.org/1999/02/22-rdf-syntax-ns#">
      <rdf:Description rdf:about=""/>
   </rdf:RDF>
</x:xmpmeta>
                                                                                                    
                                                                                                    
                                                                                                    
                                                                                                    
                                                                                                    
                                                                                                    
                                                                                                    
                                                                                                    
                                                                                                    
                                                                                                    
                                                                                                    
                                                                                                    
                                                                                                    
                                                                                                    
                                                                                                    
                                                                                                    
                                                                                                    
                                                                                                    
                                                                                                    
                                                                                                    
                           
<?xpacket end="w"?></metadata>
<defs>
    <style>
      .cls-1 {
        fill: #141414;
        fill-rule: evenodd;
      }
    </style>
  </defs>
  <path id="_" data-name="#" class="cls-1" d="M16.5,19.969H4.5a1.538,1.538,0,0,1-1.5-1.5v-12a1.538,1.538,0,0,1,1.5-1.5h12a1.538,1.538,0,0,1,1.5,1.5v12A1.538,1.538,0,0,1,16.5,19.969Zm-12-14a0.472,0.472,0,0,0-.5.5v12a0.472,0.472,0,0,0,.5.5h12a0.472,0.472,0,0,0,.5-0.5v-12a0.472,0.472,0,0,0-.5-0.5H4.5Zm9.5-1H7v-0.5a3.5,3.5,0,1,1,7,0v0.5Zm-6,0h5v-0.5a2.5,2.5,0,1,0-5,0v0.5Z"/>
</svg>
