<svg xmlns="http://www.w3.org/2000/svg" viewBox="0 0 59.224 24">
  <defs>
    <style>
      .cls-1 {
        fill: #fff;
      }

      .cls-2 {
        fill: #fff;
        fill-rule: evenodd;
	opacity:0.7;
      }
    </style>
  </defs>
  <g id="Group_121" data-name="Group 121" transform="translate(-147.409 -93)">
    <rect id="Rectangle_291" data-name="Rectangle 291" class="cls-1" width="36" height="24" rx="2" transform="translate(159 93)"/>
    <path id="_" data-name="#" class="cls-2" d="M358.79,25.529l-4.605,4.432a.954.954,0,0,1-1.314,0l-4.605-4.432a.873.873,0,0,1,0-1.267.958.958,0,0,1,1.316,0l3.946,3.8,3.946-3.8a.958.958,0,0,1,1.316,0,.873.873,0,0,1,0,1.267Z" transform="translate(176.409 458.507) rotate(-90)"/>
    <path id="_2" data-name="#" class="cls-2" d="M358.79,25.529l-4.605,4.432a.954.954,0,0,1-1.314,0l-4.605-4.432a.873.873,0,0,1,0-1.267.958.958,0,0,1,1.316,0l3.946,3.8,3.946-3.8a.958.958,0,0,1,1.316,0,.873.873,0,0,1,0,1.267Z" transform="translate(177.632 -248.548) rotate(90)"/>
  </g>
</svg>
