<svg xmlns="http://www.w3.org/2000/svg" viewBox="0 0 156.899 79.631">
  <defs>
    <style>
      .cls-1 {
        fill: #fff;
        fill-rule: evenodd;
      }
    </style>
  </defs>
  <path id="Shape_936" data-name="Shape 936" class="cls-1" d="M1195.973,610.432a3.588,3.588,0,0,1-5.051.293l-51.089-45.41-36.744,32.659-5.378,4.776-8.967,7.975a3.571,3.571,0,0,1-4.754-5.33l8.349-7.422,5.372-4.777,39.745-35.322a3.578,3.578,0,0,1,4.754,0l53.466,47.52a3.569,3.569,0,0,1,.3,5.037Zm-98.922-49.913a14.252,14.252,0,1,1,14.256-14.253,14.252,14.252,0,0,1-14.256,14.253Zm0-21.378a7.126,7.126,0,1,0,7.131,7.126A7.126,7.126,0,0,0,1097.051,539.141Zm-10.109,53.6-10.536-9.5-30.492,27.5a3.552,3.552,0,0,1-5.039-.3,3.645,3.645,0,0,1,.3-5.1l32.857-29.637a3.538,3.538,0,0,1,4.748,0l13.526,12.2Z" transform="translate(-1039.975 -532.015)"/>
</svg>
