<svg xmlns="http://www.w3.org/2000/svg" viewBox="0 0 27.947 21.945">
  <defs>
    <style>
      .cls-1 {
        fill: #9d9ea3;
      }
    </style>
  </defs>
  <path id="Path_39" data-name="Path 39" class="cls-1" d="M2.238-10.157a17.318,17.318,0,0,0,5.533-4,9.55,9.55,0,0,0,2.313-5.533H8.334a9.513,9.513,0,0,1-3.157-.438,5.032,5.032,0,0,1-1.969-1.219,4.331,4.331,0,0,1-1.016-1.657,5.987,5.987,0,0,1-.3-1.876,4.648,4.648,0,0,1,1.61-3.5,5.387,5.387,0,0,1,3.8-1.5A6.4,6.4,0,0,1,12.586-27.6a9.782,9.782,0,0,1,1.844,6.315,11.892,11.892,0,0,1-3.173,7.565A20.664,20.664,0,0,1,3.614-7.938Zm15.412,0a17.318,17.318,0,0,0,5.533-4A9.55,9.55,0,0,0,25.5-19.692H23.746a9.513,9.513,0,0,1-3.157-.438,5.032,5.032,0,0,1-1.969-1.219A4.331,4.331,0,0,1,17.6-23.005a5.987,5.987,0,0,1-.3-1.876,4.648,4.648,0,0,1,1.61-3.5,5.387,5.387,0,0,1,3.8-1.5A6.4,6.4,0,0,1,28-27.6a9.782,9.782,0,0,1,1.844,6.315,11.892,11.892,0,0,1-3.173,7.565,20.664,20.664,0,0,1-7.643,5.783Z" transform="translate(29.842 -7.937) rotate(180)"/>
</svg>
