<svg xmlns="http://www.w3.org/2000/svg" width="24" height="24" viewBox="0 0 24 24">
  <defs>
    <style>
      .cls-1 {
        fill: #f89f33;
      }

      .cls-1, .cls-2 {
        fill-rule: evenodd;
      }

      .cls-2 {
        fill: #fff;
      }
    </style>
  </defs>
  <path id="_" data-name="#" class="cls-1" d="M23.661,14.907A12.022,12.022,0,1,1,14.9.331a12.023,12.023,0,0,1,8.757,14.576h0Z"/>
  <path id="_2" data-name="#" class="cls-2" d="M16.965,10.371c0.226-1.508-.922-2.318-2.492-2.859L14.982,5.47l-1.243-.31-0.5,1.988c-0.327-.081-0.662-0.158-1-0.234l0.5-2L11.5,4.6,10.995,6.644c-0.271-.062-0.536-0.122-0.794-0.187V6.451L8.488,6.023,8.157,7.351s0.922,0.211.9,0.224a0.661,0.661,0,0,1,.579.723L9.06,10.625a1.027,1.027,0,0,1,.129.041l-0.131-.033L8.245,13.893a0.453,0.453,0,0,1-.57.3c0.012,0.018-.9-0.226-0.9-0.226L6.154,15.385l1.618,0.4c0.3,0.075.6,0.154,0.886,0.229L8.144,18.083l1.242,0.31,0.509-2.044c0.339,0.092.668,0.177,0.991,0.257L10.378,18.64l1.243,0.31,0.514-2.062c2.12,0.4,3.714.239,4.385-1.678A2.181,2.181,0,0,0,15.378,12.2a1.982,1.982,0,0,0,1.587-1.825h0Zm-2.84,3.983c-0.384,1.544-2.983.709-3.826,0.5l0.683-2.737C11.824,12.327,14.526,12.744,14.125,14.353Zm0.385-4.005c-0.351,1.4-2.514.691-3.216,0.516l0.619-2.482C12.614,8.557,14.874,8.884,14.509,10.348Z"/>
</svg>
