<svg xmlns="http://www.w3.org/2000/svg" width="87" height="84" viewBox="0 0 87 84">
  <metadata><?xpacket begin="﻿" id="W5M0MpCehiHzreSzNTczkc9d"?>
<x:xmpmeta xmlns:x="adobe:ns:meta/" x:xmptk="Adobe XMP Core 5.6-c138 79.159824, 2016/09/14-01:09:01        ">
   <rdf:RDF xmlns:rdf="http://www.w3.org/1999/02/22-rdf-syntax-ns#">
      <rdf:Description rdf:about=""/>
   </rdf:RDF>
</x:xmpmeta>
                                                                                                    
                                                                                                    
                                                                                                    
                                                                                                    
                                                                                                    
                                                                                                    
                                                                                                    
                                                                                                    
                                                                                                    
                                                                                                    
                                                                                                    
                                                                                                    
                                                                                                    
                                                                                                    
                                                                                                    
                                                                                                    
                                                                                                    
                                                                                                    
                                                                                                    
                                                                                                    
                           
<?xpacket end="w"?></metadata>
<defs>
    <style>
      .cls-1 {
        fill: #2f333b;
        fill-rule: evenodd;
      }
    </style>
  </defs>
  <path id="rhone" class="cls-1" d="M740,1045.99h-6.98l-0.015,7.01a0.034,0.034,0,0,1,0,.01H737v2.96h-4.008v7.04H740v2.96h0c-0.371.09-10.009,0.01-10.009,0.01V1043H740v2.99h0Zm-25.886,4.61a0.411,0.411,0,0,0-.109.02v15.26a13.806,13.806,0,0,1-3,.06H711v-22.93h3.16c1.976,4.93,3.746,9.85,5.722,14.77a0.271,0.271,0,0,0,.089-0.01v-14.76h3.021v22.95h-2.821C718.107,1060.84,716.179,1055.72,714.114,1050.6Zm-2.106-23.45c-0.233.13-.43,0.25-0.629,0.36-0.37.21-.737,0.43-1.107,0.64-0.421.24-.845,0.47-1.257,0.73a0.577,0.577,0,0,1-.625.05,1.164,1.164,0,0,1-.187-0.12,10.723,10.723,0,0,1-4.03-7.04,18.484,18.484,0,0,1,.585-7.68c0.2-.78.457-1.54,0.722-2.29,0.168-.48.353-0.94,0.541-1.41,0.215-.54.421-1.08,0.657-1.61,0.084-.18.169-0.37,0.253-0.55,1.111-2.47,2.233-4.93,3.343-7.4a1.257,1.257,0,0,1,.212-0.33,0.857,0.857,0,0,1,.366-0.23,5.837,5.837,0,0,0,.735-0.27h0c-0.022.07-.036,0.11-0.054,0.16-0.053.16-.1,0.29-0.137,0.4-1.222,3.34-2.424,6.68-3.454,10.1-0.133.44-.252,0.88-0.365,1.33a21.9,21.9,0,0,0-.717,4.98c0,0.11.011,0.22,0.011,0.33a14.55,14.55,0,0,0,.113,1.83,11.242,11.242,0,0,0,.221,1.35,10.223,10.223,0,0,0,1.432,3.24,9.967,9.967,0,0,0,1.322,1.65c0.214,0.21.44,0.41,0.668,0.61,0.327,0.28.66,0.56,0.987,0.85,0.115,0.1.237,0.19,0.394,0.32h0Zm-9,36.41a0.855,0.855,0,0,1-.4.78,8.705,8.705,0,0,1-3.249,1.39,10.482,10.482,0,0,1-6.563-.61,12.513,12.513,0,0,1-1.486-.86,0.617,0.617,0,0,1-.3-0.6c0.018-.75.006-1.49,0.006-2.24,0-5.31.006-10.62-.01-15.92a0.978,0.978,0,0,1,.457-0.9,8.894,8.894,0,0,1,3.217-1.34,10.557,10.557,0,0,1,6.564.62,12.251,12.251,0,0,1,1.445.84,0.641,0.641,0,0,1,.312.63c-0.01,2.2-.006,4.4-0.006,6.6v2.58C703,1057.54,702.99,1060.55,703.006,1063.56Zm-2.99-16.97a7.741,7.741,0,0,0-6.03,0v15.86a8.308,8.308,0,0,0,6.03-.01v-15.85Zm-3.48-12.63c-0.013,0-.028.01-0.041,0.01s-0.018-.01-0.027-0.01a0.875,0.875,0,0,1-.136-0.05c-0.773-.48-1.547-0.94-2.345-1.43h0c0.022-.16.037-0.31,0.064-0.46a0.08,0.08,0,0,1,0-.02h0c0.231-1.25.394-2.51,0.526-3.77,0.069-.66.144-1.33,0.187-2q0.082-1.275.168-2.55c0.049-.73.088-1.47,0.131-2.2,0.052-.9.106-1.8,0.138-2.7,0.03-.84.045-1.69,0.067-2.53q0.084-3.39.119-6.76c0.038-3.56.039-7.11,0.044-10.662a1.193,1.193,0,0,1,.292-0.849c0.257-.291.49-0.612,0.764-0.96l0.015-.019c0.353,0.448.69,0.851,1,1.284a0.429,0.429,0,0,1,.05.176,2.2,2.2,0,0,1,.018.3c0.013,2.338.012,4.678,0.032,7.018,0.021,2.47.04,4.95,0.076,7.42,0.013,0.9.021,1.79,0.043,2.69,0.035,1.41.094,2.82,0.163,4.22q0.091,1.845.2,3.69c0.037,0.65.108,1.28,0.158,1.92,0.082,1.06.152,2.11,0.26,3.16,0.065,0.63.154,1.26,0.25,1.89,0.086,0.56.176,1.13,0.261,1.72-0.78.48-1.565,0.95-2.346,1.43A0.233,0.233,0,0,1,696.536,1033.96Zm-2.211,42.55c-0.161-.18-0.327-0.37-0.514-0.57,0.131-.14.249-0.26,0.4-0.42,0.205,0.18.389,0.35,0.6,0.54,0.194-.18.381-0.34,0.591-0.53,0.139,0.12.263,0.24,0.419,0.39-0.18.2-.347,0.39-0.479,0.53,0.409,0.42.812,0.82,1.177,1.19,0.339-.34.742-0.74,1.185-1.19-0.1-.1-0.263-0.29-0.463-0.51,0.146-.12.284-0.24,0.445-0.38,0.166,0.15.352,0.32,0.553,0.5,0.192-.18.367-0.34,0.579-0.54,0.139,0.13.271,0.26,0.423,0.4-0.186.21-.353,0.4-0.527,0.6,0.431,0.41.846,0.81,1.287,1.23,0.71-.71,1.456-1.46,2.225-2.24,0.151,0.14.277,0.26,0.452,0.42-0.764.77-1.516,1.53-2.286,2.31,0.78,0.77,1.532,1.51,2.33,2.3-0.179.18-.311,0.3-0.469,0.46-0.784-.79-1.53-1.54-2.268-2.27-0.427.43-.828,0.84-1.247,1.27,0.142,0.16.311,0.35,0.521,0.58-0.14.13-.27,0.24-0.433,0.38-0.19-.17-0.377-0.33-0.589-0.53-0.191.18-.375,0.34-0.583,0.53-0.133-.14-0.261-0.27-0.4-0.42,0.17-.19.342-0.38,0.475-0.53-0.411-.42-0.81-0.83-1.225-1.25q-0.56.6-1.165,1.26c0.122,0.14.293,0.32,0.481,0.53-0.126.14-.244,0.26-0.395,0.42-0.2-.17-0.383-0.34-0.6-0.54-0.185.17-.371,0.33-0.592,0.54l-0.421-.41c0.187-.2.355-0.39,0.5-0.56-0.417-.41-0.82-0.82-1.259-1.26-0.716.72-1.462,1.47-2.236,2.24-0.142-.16-0.268-0.29-0.415-0.46,0.742-.73,1.492-1.48,2.278-2.26-0.776-.78-1.518-1.53-2.286-2.3,0.165-.13.307-0.25,0.485-0.39,0.706,0.71,1.452,1.46,2.184,2.19C693.485,1077.34,693.894,1076.94,694.325,1076.51Zm3.915,2.88c0.389-.37.8-0.77,1.153-1.11-0.381-.42-0.766-0.84-1.145-1.26-0.413.42-.812,0.83-1.171,1.2C697.46,1078.61,697.869,1079.02,698.24,1079.39Zm-3.416.01c0.379-.37.784-0.77,1.167-1.15-0.381-.4-0.772-0.82-1.169-1.24-0.4.43-.794,0.85-1.153,1.23C694.052,1078.62,694.453,1079.03,694.824,1079.4Zm-7.27-54.74c-0.113.2-.23,0.39-0.354,0.58a9.789,9.789,0,0,1-1.018,1.29,10.6,10.6,0,0,1-1.462,1.33,0.6,0.6,0,0,1-.344.14,0.451,0.451,0,0,1-.154-0.04,0.9,0.9,0,0,1-.2-0.06c-0.89-.52-1.8-1-2.695-1.5-0.106-.06-0.205-0.13-0.34-0.21h0c0.078-.06.141-0.11,0.211-0.16s0.174-.13.254-0.19c0.27-.2.52-0.43,0.777-0.64a12.146,12.146,0,0,0,1.691-1.68A9.617,9.617,0,0,0,685,1021.8a10.447,10.447,0,0,0,1.113-4.11c0.033-.52.03-1.03,0.016-1.54a18.166,18.166,0,0,0-.279-2.68,21.227,21.227,0,0,0-.712-2.9c-0.941-2.9-1.992-5.76-3-8.63-0.086-.25-0.182-0.49-0.273-0.73-0.142-.38-0.282-0.75-0.424-1.13l0.053-.06a0.108,0.108,0,0,1,.019-0.025c0.159,0.055.316,0.115,0.475,0.175,0.137,0.05.277,0.1,0.411,0.16a0.276,0.276,0,0,1,.068.05,0.545,0.545,0,0,1,.139.18c1.668,3.53,3.447,7,4.863,10.65,0.213,0.55.4,1.11,0.571,1.67a22.171,22.171,0,0,1,.843,3.88,13.118,13.118,0,0,1-.88,7.04C687.87,1024.1,687.711,1024.38,687.554,1024.66ZM680.989,1053v-10h2.987v0.01l0.015,22.97s-1.911.01-2.986-.01V1056H675v9.98l-3,.01v-23h2.982c0.024,1.6.006,3.19,0.01,4.78v0.09c0,1.56,0,3.56,0,5.14h6Zm-18.462,12.98c-1.123-2.74-2.254-5.51-3.375-8.25-0.987-.14-1.947-0.27-2.95-0.4v8.65h-3.169c-0.008-.18-0.023-0.35-0.023-0.51q0-10.455-.01-20.92a0.872,0.872,0,0,1,.392-0.78,8.844,8.844,0,0,1,3.278-1.46,10.4,10.4,0,0,1,6.819.64,10.539,10.539,0,0,1,1.217.95,0.573,0.573,0,0,1,.258.55c-0.006,3.59-.006,7.19,0,10.78a0.688,0.688,0,0,1-.283.59,6.068,6.068,0,0,1-1.733,1.14c-0.167.06-.334,0.12-0.551,0.2,1.2,2.95,2.395,5.86,3.6,8.82h-3.476Zm-0.514-20.43a8.251,8.251,0,0,0-6.027.01v7.88a8.229,8.229,0,0,0,6.027-.04v-7.85Z" transform="translate(-653 -997)"/>
</svg>
