<svg xmlns="http://www.w3.org/2000/svg" width="51" height="51" viewBox="0 0 51 51">
  <metadata><?xpacket begin="﻿" id="W5M0MpCehiHzreSzNTczkc9d"?>
<x:xmpmeta xmlns:x="adobe:ns:meta/" x:xmptk="Adobe XMP Core 5.6-c138 79.159824, 2016/09/14-01:09:01        ">
   <rdf:RDF xmlns:rdf="http://www.w3.org/1999/02/22-rdf-syntax-ns#">
      <rdf:Description rdf:about=""/>
   </rdf:RDF>
</x:xmpmeta>
                                                                                                    
                                                                                                    
                                                                                                    
                                                                                                    
                                                                                                    
                                                                                                    
                                                                                                    
                                                                                                    
                                                                                                    
                                                                                                    
                                                                                                    
                                                                                                    
                                                                                                    
                                                                                                    
                                                                                                    
                                                                                                    
                                                                                                    
                                                                                                    
                                                                                                    
                                                                                                    
                           
<?xpacket end="w"?></metadata>
<defs>
    <style>
      .cls-1 {
        fill: #2f333b;
        fill-rule: evenodd;
      }
    </style>
  </defs>
  <path id="px" class="cls-1" d="M510.613,1021.32c-0.574,1.49-1.128,3-1.7,4.49-0.79,2.07-1.594,4.13-2.388,6.19s-1.58,4.1-2.357,6.16a0.782,0.782,0,0,0,0,.51c0.705,1.83,1.428,3.66,2.14,5.48,0.87,2.24,1.729,4.48,2.6,6.71q1.087,2.79,2.187,5.58c0.769,1.96,1.54,3.93,2.3,5.89,0.216,0.56.406,1.12,0.608,1.68h-8.94c-0.313-.78-0.628-1.57-0.938-2.36q-0.872-2.2-1.739-4.43-1.125-2.88-2.248-5.74c-0.184-.47-0.369-0.94-0.572-1.46-0.186.47-.349,0.88-0.508,1.29q-1.071,2.76-2.14,5.52c-0.6,1.54-1.2,3.09-1.8,4.63-0.332.86-.667,1.7-1,2.55h-8.8c0.2-.56.392-1.12,0.6-1.67q0.991-2.6,2-5.19c0.667-1.72,1.338-3.45,2-5.17,0.6-1.57,1.2-3.14,1.8-4.71q0.93-2.415,1.865-4.83c0.455-1.17.886-2.36,1.376-3.53a1.145,1.145,0,0,0-.106-0.95q-1.746-4.53-3.52-9.05-1.537-3.93-3.082-7.88c-0.607-1.55-1.216-3.11-1.822-4.66-0.418-1.07-.834-2.14-1.249-3.22a0.38,0.38,0,0,1-.006-0.13h9.009c0.256,0.67.509,1.34,0.769,2.01q0.9,2.325,1.8,4.64c0.528,1.36,1.059,2.71,1.587,4.07,0.4,1.04.805,2.08,1.229,3.18,0.24-.64.455-1.22,0.68-1.8q1.022-2.625,2.049-5.25,1.053-2.7,2.1-5.4c0.187-.48.351-0.97,0.526-1.45h8.87c-0.415,1.1-.824,2.21-1.248,3.32C511.908,1018,511.251,1019.66,510.613,1021.32Zm-3.515-5.67a0.449,0.449,0,0,0-.3.22c-0.227.53-.427,1.07-0.635,1.61q-0.988,2.55-1.977,5.11-1.082,2.8-2.159,5.62-0.936,2.43-1.875,4.86c-0.167.43-.331,0.86-0.53,1.38-2.471-6.33-4.907-12.57-7.34-18.79H489.1a1.443,1.443,0,0,0,.05.24q1.036,2.67,2.077,5.33,1.554,3.975,3.111,7.94,1.742,4.425,3.5,8.85a1.15,1.15,0,0,1,.061.95c-0.29.67-.541,1.36-0.805,2.04-0.8,2.06-1.59,4.13-2.389,6.19-0.7,1.81-1.412,3.62-2.116,5.43q-0.986,2.535-1.963,5.08c-0.451,1.16-.9,2.33-1.361,3.52h3.015c2.416-6.23,4.83-12.44,7.281-18.75,0.2,0.49.361,0.87,0.51,1.26,0.845,2.19,1.682,4.38,2.531,6.57,0.674,1.73,1.366,3.46,2.043,5.19,0.721,1.85,1.43,3.7,2.156,5.55a0.374,0.374,0,0,0,.262.19c0.957,0.01,1.916,0,2.888,0a2.58,2.58,0,0,0-.074-0.27c-0.421-1.1-.843-2.19-1.268-3.29-0.74-1.9-1.489-3.8-2.223-5.7-0.94-2.45-1.865-4.89-2.807-7.33-0.766-1.99-1.554-3.97-2.313-5.96a0.966,0.966,0,0,1,.025-0.62c0.362-.97.759-1.93,1.133-2.9,0.8-2.08,1.595-4.16,2.4-6.24,0.86-2.22,1.732-4.44,2.6-6.66q1.059-2.715,2.11-5.45c0.147-.38.282-0.77,0.433-1.17C508.969,1015.65,508.033,1015.64,507.1,1015.65Zm-20.617,7.69c0.052,2.79.088,5.57,0.066,8.36a10.7,10.7,0,0,1-.608,3.71,10,10,0,0,1-1.963,3.28,11.681,11.681,0,0,1-3.859,2.86,7.889,7.889,0,0,1-3.416.81c-1.754-.02-3.509,0-5.316,0v21.65H463v-50.99h8.939a2.59,2.59,0,0,0,.387.06c1.49,0.01,2.98.02,4.47,0a8.015,8.015,0,0,1,3.092.72,11.4,11.4,0,0,1,4.25,3.14,8.567,8.567,0,0,1,2.072,4.14A14.35,14.35,0,0,1,486.481,1023.34Zm-2.63.69a11.517,11.517,0,0,0-.141-1.8,6.811,6.811,0,0,0-1.621-3.46,9.332,9.332,0,0,0-2.538-2.12,5.964,5.964,0,0,0-2.7-.85c-2.86-.07-5.72-0.06-8.581-0.09-0.172,0-.346.01-0.519,0-0.665-.03-1.33-0.06-2.027-0.1v45.62h2.892v-21.51H469c2.356,0,4.712-.01,7.068.01a6.932,6.932,0,0,0,2.076-.34,8.321,8.321,0,0,0,2.951-1.7,8.083,8.083,0,0,0,1.864-2.28,7.619,7.619,0,0,0,.9-3.73C483.861,1029.13,483.867,1026.58,483.851,1024.03Zm-3.471,10.13a4.337,4.337,0,0,1-2.762,2.3,4.529,4.529,0,0,1-1.369.21c-2.414.02-4.827,0.01-7.241,0.01h-0.37v-17.99h0.4c2.414,0,4.828-.01,7.241,0a4.786,4.786,0,0,1,2.85,1.07,4.241,4.241,0,0,1,1.677,3.31c0.037,0.65.065,1.31,0.067,1.96,0.008,2.25.016,4.5,0,6.75A5.77,5.77,0,0,1,480.38,1034.16Zm-2.21-10.59a2.233,2.233,0,0,0-2.205-2.17c-1.417-.05-2.839-0.01-4.259-0.01-0.1,0-.2.01-0.306,0.02v12.64c1.552,0,3.063.01,4.574,0a2.292,2.292,0,0,0,2.2-2.18C478.179,1029.1,478.188,1026.33,478.17,1023.57Z" transform="translate(-463 -1013)"/>
</svg>
