<svg xmlns="http://www.w3.org/2000/svg" width="101.97" height="58.97" viewBox="0 0 101.97 58.97">
  <metadata><?xpacket begin="﻿" id="W5M0MpCehiHzreSzNTczkc9d"?>
<x:xmpmeta xmlns:x="adobe:ns:meta/" x:xmptk="Adobe XMP Core 5.6-c138 79.159824, 2016/09/14-01:09:01        ">
   <rdf:RDF xmlns:rdf="http://www.w3.org/1999/02/22-rdf-syntax-ns#">
      <rdf:Description rdf:about=""/>
   </rdf:RDF>
</x:xmpmeta>
                                                                                                    
                                                                                                    
                                                                                                    
                                                                                                    
                                                                                                    
                                                                                                    
                                                                                                    
                                                                                                    
                                                                                                    
                                                                                                    
                                                                                                    
                                                                                                    
                                                                                                    
                                                                                                    
                                                                                                    
                                                                                                    
                                                                                                    
                                                                                                    
                                                                                                    
                                                                                                    
                           
<?xpacket end="w"?></metadata>
<defs>
    <style>
      .cls-1 {
        fill: #2f333b;
        fill-rule: evenodd;
      }
    </style>
  </defs>
  <path id="saga" class="cls-1" d="M1159.37,1046.09a9.3,9.3,0,0,1-10.47-.44,1.641,1.641,0,0,0-2.06-.1c-2.3,1.08-4.7,1.92-7.03,2.95a1.671,1.671,0,0,0-.92,1.18c0.57,7.14-3.3,11.74-8.91,15.27a18.682,18.682,0,0,1-12.23,2.94,14.2,14.2,0,0,1-7.83-3.62c-1.92-1.67-3.79-3.44-4.12-6.21a1.449,1.449,0,0,0-.76-0.88,6.19,6.19,0,0,1-3.45-4.43c-0.17-.77-0.55-1.26-1.3-1.08a2.143,2.143,0,0,0-1.39.95c-1.35,3.06-3.19,4.22-6.53,4.04a6.932,6.932,0,0,0-2.17.29c-6.27,1.83-12.48,1.91-18.52-.8a15.688,15.688,0,0,1-9.05-10.76c-0.11-.43-0.34-0.9-0.44-1.42a10.73,10.73,0,0,1,.17-4.83c0.62-1.88,1.63-2.36,2.48-3.49a1.485,1.485,0,0,0-.04-1.2,16.655,16.655,0,0,1-.29-12.67,14.072,14.072,0,0,1,10.55-8.98c5.91-1.41,11.76-1.06,17.17,1.97a22.044,22.044,0,0,1,4.23,3.52,1.619,1.619,0,0,0,1.8.57c2.87-.81,5.73-0.15,8.56.24,0.92,0.13,1.71,1.03,2.61,1.49a3.5,3.5,0,0,0,1.7.46q3.33-.24,6.63-0.69a2.06,2.06,0,0,0,1.47-.82c2.03-5.21,6.12-7.94,11.27-9.44a25.235,25.235,0,0,1,8.25-1.07c5.36,0.25,9.6,2.46,11.78,7.4,1.2,2.7,1.59,5.76,2.34,8.65,0.01,0.05.02,0.09,0.03,0.14,0.19,2.13.89,3.35,3.5,3.64a8.458,8.458,0,0,1,7.39,7.14C1164.54,1040.34,1163.33,1043.49,1159.37,1046.09Zm-10.8-15.78c-0.67-3.62-1.57-7.21-2.48-10.78a6.187,6.187,0,0,0-4.66-4.69,17.533,17.533,0,0,0-13.54,2.1,8.329,8.329,0,0,0-4.21,7.23c-0.05,1.29.32,1.54,1.59,1.24,1.68-.39,3.35-0.76,5.02-1.19a1.748,1.748,0,0,0,1.03-.58c1.12-2.24,3.21-2.51,5.33-2.5a2.694,2.694,0,0,1,2.03.99c0.56,0.96-.38,1.64-1.15,2.03a43.325,43.325,0,0,1-4.58,2.02,14.8,14.8,0,0,0-6.07,4.03,5.475,5.475,0,0,1-.59.49c-5.66-7.65-12.36-5.54-19.26-2.16-0.12-.33-0.25-0.61-0.33-0.91-0.89-3.47-.89-3.47-4.45-3.79-0.28-.02-0.56-0.05-0.83-0.07-2.08-.15-3.12.41-3.98,2.3-0.81,1.76-1.53,3.56-2.31,5.33-0.64,1.46-1.31,2.9-2.05,4.55-2.6-2.52-5.84-3.18-8.86-4.31-1.96-.72-3.97-1.32-5.89-2.11a2.65,2.65,0,0,1-1.94-2.47,3.049,3.049,0,0,1,1.88-2.71c2.8-1.39,7.27-.04,8.77,2.7a4.148,4.148,0,0,0,3.8,2.36q1.32,0.03,2.64.15a1.036,1.036,0,0,0,1.32-1.27c-0.21-4.19-1.92-7.51-5.84-9.35-3.83-1.81-7.89-1.87-12.01-1.18-7.15,1.21-9.38,7.91-7.75,13.33a7.551,7.551,0,0,0,4.77,5.05c1.42,0.57,2.88,1.02,4.31,1.58,2.53,0.99,5.09,1.96,7.56,3.09a2.332,2.332,0,0,1,1.51,2.81,2.945,2.945,0,0,1-2.73,2.4,20.308,20.308,0,0,1-5.51-.27,4.666,4.666,0,0,1-3.96-4.27,1.5,1.5,0,0,0-1.03-1c-1.9-.2-3.8-0.24-5.71-0.34a0.89,0.89,0,0,0-1.05,1.09c0.14,3.77,1.45,7.01,4.74,9.07,5.04,3.16,10.53,3.34,16.1,1.73a9.107,9.107,0,0,1,4.18-.63,1.373,1.373,0,0,0,1.7-1.03,23.711,23.711,0,0,1,1.36-3.33,1.964,1.964,0,0,1,1.43-.88,38.932,38.932,0,0,1,4.17.28c1.47,0.13,3.36-.18,4.28.6,0.94,0.79,1.01,2.67,1.3,4.11a1.491,1.491,0,0,0,1.6,1.35c2.45,0.19,4.9.48,7.35,0.67a9.612,9.612,0,0,0,8.07-2.99,19.3,19.3,0,0,0,1.4-1.84,5.082,5.082,0,0,1-.63,5.83,4.667,4.667,0,0,1-5.16.92,2.922,2.922,0,0,0-1.77-.37c-1.84.62-3.62,1.44-5.43,2.16-0.97.38-1.06,0.9-.42,1.66,2.19,2.63,4.87,4.28,8.41,4.15a15.712,15.712,0,0,0,9.92-4.21c3.64-3.17,4.53-7.02,2.96-11.51-0.34-.94-0.68-1.89-1.05-2.91a41.017,41.017,0,0,0,4.98-.3,28.7,28.7,0,0,0,4.67-1.38C1147,1040.42,1149.64,1035.99,1148.57,1030.31Zm5.92,3.44a4.273,4.273,0,0,0-4.25,4.22,4.235,4.235,0,1,0,8.47.03A4.306,4.306,0,0,0,1154.49,1033.75Zm-19.16,3.49a2.4,2.4,0,0,1-2.1-1.76,2.2,2.2,0,0,1,.58-2.78c1.93-1.24,4-2.29,6.05-3.35a1.141,1.141,0,0,1,.81.6,13.258,13.258,0,0,1,.33,1.84A5.279,5.279,0,0,1,1135.33,1037.24Zm-16.75,8.86a3.805,3.805,0,0,1-4.61-1.21,13.783,13.783,0,0,1-3.06-7.97,3.9,3.9,0,0,1,2.43-3.97,3.964,3.964,0,0,1,4.66.5,10.96,10.96,0,0,1,3.86,8.8C1121.81,1044.27,1120.41,1045.42,1118.58,1046.1Zm-17.19-13.9h0.46c0.66,2.79,1.33,5.58,2.08,8.74-2.18-.14-3.9-0.24-5.95-0.37C1099.2,1037.57,1100.3,1034.88,1101.39,1032.2Z" transform="translate(-1062 -1009)"/>
</svg>
