<svg xmlns="http://www.w3.org/2000/svg" width="114" height="32" viewBox="0 0 114 32">
  <metadata><?xpacket begin="﻿" id="W5M0MpCehiHzreSzNTczkc9d"?>
<x:xmpmeta xmlns:x="adobe:ns:meta/" x:xmptk="Adobe XMP Core 5.6-c138 79.159824, 2016/09/14-01:09:01        ">
   <rdf:RDF xmlns:rdf="http://www.w3.org/1999/02/22-rdf-syntax-ns#">
      <rdf:Description rdf:about=""/>
   </rdf:RDF>
</x:xmpmeta>
                                                                                                    
                                                                                                    
                                                                                                    
                                                                                                    
                                                                                                    
                                                                                                    
                                                                                                    
                                                                                                    
                                                                                                    
                                                                                                    
                                                                                                    
                                                                                                    
                                                                                                    
                                                                                                    
                                                                                                    
                                                                                                    
                                                                                                    
                                                                                                    
                                                                                                    
                                                                                                    
                           
<?xpacket end="w"?></metadata>
<defs>
    <style>
      .cls-1 {
        fill: #2f333b;
        fill-rule: evenodd;
      }
    </style>
  </defs>
  <path id="altra" class="cls-1" d="M333.617,1023.73a33.3,33.3,0,0,0-8.695,6.17,13.975,13.975,0,0,0-1.875,2.47,5.6,5.6,0,0,0,1.053,7.42c0.406,0.38.839,0.73,1.363,1.18H291.842c-0.049-.04-0.1-0.09-0.146-0.13,0.274-.24.546-0.47,0.823-0.71a61.549,61.549,0,0,1,12.814-8.02,118.7,118.7,0,0,1,24.891-8.66c1.919-.45,3.85-0.85,5.774-1.28a0.772,0.772,0,0,0,.238-0.17c0.255,0.05.509,0.1,0.764,0.16C335.871,1022.68,334.716,1023.15,333.617,1023.73Zm-20.225,3.33a99.261,99.261,0,0,0-18.336,7.26A57.344,57.344,0,0,0,285,1040.69a1.391,1.391,0,0,1-.812.32q-15.772.03-31.546,0.01a3.186,3.186,0,0,1-.4-0.09c1.107-.41,2.043-0.77,2.987-1.11a332.631,332.631,0,0,1,34.878-10.41c6.379-1.51,12.813-2.78,19.243-4.05,3.793-.74,7.62-1.32,11.444-1.88,2.8-.4,5.625-0.66,8.44-0.98,1.107-.12,2.218-0.21,3.326-0.33a0.946,0.946,0,0,0,.317-0.17h1.681c-1.751.35-3.514,0.65-5.249,1.08C323.992,1024.37,318.655,1025.58,313.392,1027.06Zm-65.981,26.41a0.7,0.7,0,0,1-.459.41c-1.427.03-2.858,0.01-4.381,0.01,0.325-.89.615-1.69,0.952-2.63h-0.9c-2.207,0-4.415-.02-6.62.02a8.567,8.567,0,0,0-1.769.4,1.608,1.608,0,0,0-.486.24,13.288,13.288,0,0,1-8.753,1.99,16.682,16.682,0,0,0-2,0v-0.33c2.144-.96,4.295-1.9,6.431-2.88q7.444-3.435,14.876-6.87a10.234,10.234,0,0,1,4.968-.78c1.289,0.08,1.717.83,1.247,2.11Q249,1049.315,247.411,1053.47Zm-5.69-5.2,0.033,0.18c1.036,0,2.072.01,3.109-.01a0.574,0.574,0,0,0,.445-0.19c0.263-.61.479-1.25,0.785-2.07C244.485,1046.95,243.1,1047.61,241.721,1048.27Zm8.2,2.49c0.792-.77,1.592-1.53,2.394-2.29l1.778-1.68c0.707-.67,1.412-1.35,2.124-2.01,0.441-.42.881-0.83,1.334-1.23a1.951,1.951,0,0,1,.627-0.36,1.814,1.814,0,0,1,.585-0.14c0.317-.01.635-0.02,0.952-0.02,0.051-.01.1,0,0.152-0.01,0.9-.01,1.806.01,2.708,0.01,0,0.01.009,0.03,0.013,0.04,0.023,0.06.045,0.12,0.067,0.18-1.792,1.71-3.589,3.42-5.427,5.17-0.57.55-1.147,1.09-1.727,1.65-0.468.44-.932,0.89-1.408,1.34h12.724c0.015,0.04.029,0.07,0.043,0.11s0.034,0.08.05,0.13l-1.212,1.14c-0.353.33-.707,0.66-1.071,0.98-0.012.01-.03,0.02-0.044,0.03a0.9,0.9,0,0,1-.446.09h-0.169q-6.31.015-12.621,0a2.18,2.18,0,0,1-.439-0.04,1.674,1.674,0,0,1-.314-0.06,2.253,2.253,0,0,1-.862-0.48,1.492,1.492,0,0,1-.425-0.66A1.84,1.84,0,0,1,249.92,1050.76Zm15.781-5.09c-0.024-.07-0.049-0.14-0.072-0.21,0.838-.79,1.665-1.58,2.526-2.33a1.106,1.106,0,0,1,.668-0.09q18.48-.015,36.957.01a4.6,4.6,0,0,1,1.717.33,1.611,1.611,0,0,1,.682,2.68,9.4,9.4,0,0,1-3.94,2.73c-0.419.19-.853,0.35-1.334,0.54,0.467,1.15-.122,1.82-0.791,2.63a4.974,4.974,0,0,1-4.871,1.96,20.149,20.149,0,0,0-2.825-.02c1.028-.99,1.912-1.81,2.751-2.68a3.909,3.909,0,0,0,.51-0.94,2.736,2.736,0,0,0-.988-0.46c-2.822-.04-5.647-0.03-8.469-0.01a1.089,1.089,0,0,0-.652.34c-1.218,1.12-2.414,2.27-3.632,3.4a1.132,1.132,0,0,1-.655.33c-1.614.03-3.226,0.02-5.1,0.02,2.916-2.79,5.668-5.41,8.422-8.04-0.019-.06-0.037-0.12-0.056-0.18h-2.421a12.123,12.123,0,0,1-2-.02c-1.668-.29-2.83.5-3.981,1.67-2.046,2.1-4.2,4.08-6.341,6.06a1.968,1.968,0,0,1-1.22.48,27.931,27.931,0,0,1-4.256-.13c2.75-2.63,5.5-5.26,8.442-8.07H265.7Zm25.628,1.11c3.129,0.01,6.26.04,9.388-.02a3.86,3.86,0,0,0,1.571-.57,1.317,1.317,0,0,0,.3-0.58,1.962,1.962,0,0,0-.521-0.27,3.156,3.156,0,0,0-.689-0.03c-2.591,0-5.184.07-7.771-.03a2.928,2.928,0,0,0-2.583,1.4A1.181,1.181,0,0,0,291.329,1046.78Zm31.474-3.03a9.2,9.2,0,0,1,5.046-.64,1.206,1.206,0,0,1,1.029,1.82c-1.032,2.86-2.11,5.7-3.191,8.54a0.72,0.72,0,0,1-.479.41c-1.406.03-2.815,0.01-4.352,0.01,0.333-.93.61-1.7,0.91-2.54a3.753,3.753,0,0,0-.572-0.08q-3.695-.015-7.391.01a2.3,2.3,0,0,0-.948.25c-1.291.6-2.581,1.19-3.845,1.85a4.561,4.561,0,0,1-2.286.53c-1.855-.04-3.714-0.01-5.6-0.18,1.372-.63,2.746-1.27,4.12-1.9Q314.02,1047.78,322.8,1043.75Zm0.259,4.69a0.809,0.809,0,0,0,.591-0.36c0.259-.54.433-1.13,0.718-1.92-1.594.78-2.973,1.45-4.351,2.12A15.034,15.034,0,0,0,323.062,1048.44Z" transform="translate(-223 -1022)"/>
</svg>
