<svg xmlns="http://www.w3.org/2000/svg" xmlns:xlink="http://www.w3.org/1999/xlink" width="234" height="130" viewBox="0 0 234 130">
  <defs>
    <style>
      .cls-1 {
        fill: #fff;
      }

      .cls-2 {
        fill: #1a1b1c;
        fill-rule: evenodd;
      }

      .cls-3 {
        filter: url(#_);
      }
    </style>
    <filter id="_" x="0" y="0" width="234" height="130" filterUnits="userSpaceOnUse">
      <feOffset dy="8" input="SourceAlpha"/>
      <feGaussianBlur stdDeviation="10" result="blur"/>
      <feFlood flood-opacity="0.169"/>
      <feComposite operator="in" in2="blur"/>
      <feComposite in="SourceGraphic"/>
    </filter>
  </defs>
  <g id="test.svg" transform="translate(-5.979 44.033)">
    <g class="cls-3" transform="matrix(1, 0, 0, 1, 5.98, -44.03)">
      <rect id="_2" data-name="#" class="cls-1" width="174" height="70" rx="3" transform="translate(30 22)"/>
    </g>
    <path id="_3" data-name="#" class="cls-2" d="M49.979,34.924V-.033H189.994V34.924ZM60.733,22.106v3.751a3.779,3.779,0,0,0,3.807-3.751h0v-3.75H60.733a3.779,3.779,0,0,0-3.807,3.751h0C56.925,22.145,60.733,22.106,60.733,22.106Zm5.235-5.157v8.908a3.779,3.779,0,0,0,3.807-3.751h0V13.2H60.733a3.779,3.779,0,0,0-3.807,3.751h9.043Zm9.043-8.908H60.733a3.779,3.779,0,0,0-3.807,3.751H71.2V25.857a3.779,3.779,0,0,0,3.807-3.751h0V8.041ZM87.718,9.893a6.625,6.625,0,0,0-.4,13.244q.2.006.4,0a7.311,7.311,0,0,0,3.037-.619v.863a3.063,3.063,0,0,1-2.987,3.137h-.05A3.025,3.025,0,0,1,84.8,24.26H80.957A6.848,6.848,0,0,0,94.542,23.7c0-.107.006-.214,0-.322V16.5a6.546,6.546,0,0,0-6.479-6.613C87.952,9.886,87.835,9.888,87.718,9.893Zm14.334.007a6.6,6.6,0,1,0,.069,13.2,6.174,6.174,0,0,0,3.609-1.063,7.342,7.342,0,0,0,2.581-3.2h-3.884a2.708,2.708,0,0,1-2.307,1.17,2.833,2.833,0,0,1-2.969-2.363h9.5a5.059,5.059,0,0,0,.091-.99A6.577,6.577,0,0,0,102.349,9.9C102.25,9.9,102.151,9.9,102.052,9.9Zm21.566.365h-3.792v1.327h-.046a4.125,4.125,0,0,0-3.7-1.692,6.3,6.3,0,0,0-6.379,6.22c0,.127,0,.254.007.38,0,3.577,2.352,6.589,6.372,6.589,1.485,0,3.06-.469,3.7-1.684h.046v1.35h3.791V10.265Zm8.041-.365c-2.193,0-2.855,1.085-3.175,1.692h-.046V10.267h-3.563V22.911h3.791V15.892c0-1.89,1.233-2.25,2.992-2.3V9.9ZM134,18.929h-3.952V22.91H134Zm7.538-5.6a2.842,2.842,0,0,1,2.741,1.755h3.837a6.512,6.512,0,1,0,.022,2.926h-3.86a2.915,2.915,0,0,1-2.741,1.665,2.971,2.971,0,0,1-3.021-2.921c0-.084,0-.169.007-.254a2.936,2.936,0,0,1,2.686-3.165,3.006,3.006,0,0,1,.329-.008ZM155.847,9.67a6.64,6.64,0,1,0,6.829,6.638,6.571,6.571,0,0,0-6.5-6.643C156.069,9.664,155.958,9.666,155.847,9.67ZM183,15.746c0-2.768-.089-3.6-1.277-4.838a4.863,4.863,0,0,0-6.869.336,4.794,4.794,0,0,0-.485.632,3.97,3.97,0,0,0-3.655-2.228A3.613,3.613,0,0,0,167.22,11.4h-.046V10.076h-3.54V22.782h3.792V15.925c0-.743,0-2.767,2.147-2.767,1.9,0,1.9,1.935,1.9,2.61v7.014h3.792V15.746c0-.7,0-2.587,2.1-2.587,1.941,0,1.941,1.755,1.941,2.767v6.856H183Zm-27.153,3.712a3.065,3.065,0,0,1-3.039-3.091v-.059a3.04,3.04,0,0,1,6.076-.221c0,.074,0,.147,0,.221a3.065,3.065,0,0,1-2.979,3.149Zm-39.2.236a3.184,3.184,0,0,1-.023-6.367,3.092,3.092,0,0,1,3.2,2.983c0,.063,0,.127,0,.19a3.1,3.1,0,0,1-3,3.193c-.056,0-.113,0-.169,0Zm-14.577-6.7a2.788,2.788,0,0,1,2.878,2.137H99.2a2.788,2.788,0,0,1,2.875-2.142Zm-14.357,6.66a3.063,3.063,0,0,1-3.034-3.094V16.5a3.04,3.04,0,1,1,6.075-.247c0,.083,0,.165,0,.247a3.064,3.064,0,0,1-2.978,3.148h-.059Z" transform="translate(3 -4)"/>
  </g>
</svg>
