<svg xmlns="http://www.w3.org/2000/svg" width="22" height="22" viewBox="0 0 22 22">
  <metadata><?xpacket begin="﻿" id="W5M0MpCehiHzreSzNTczkc9d"?>
<x:xmpmeta xmlns:x="adobe:ns:meta/" x:xmptk="Adobe XMP Core 5.6-c138 79.159824, 2016/09/14-01:09:01        ">
   <rdf:RDF xmlns:rdf="http://www.w3.org/1999/02/22-rdf-syntax-ns#">
      <rdf:Description rdf:about=""/>
   </rdf:RDF>
</x:xmpmeta>
                                                                                                    
                                                                                                    
                                                                                                    
                                                                                                    
                                                                                                    
                                                                                                    
                                                                                                    
                                                                                                    
                                                                                                    
                                                                                                    
                                                                                                    
                                                                                                    
                                                                                                    
                                                                                                    
                                                                                                    
                                                                                                    
                                                                                                    
                                                                                                    
                                                                                                    
                                                                                                    
                           
<?xpacket end="w"?></metadata>
<defs>
    <style>
      .cls-1 {
        fill: #262830;
        fill-rule: evenodd;
      }
    </style>
  </defs>
  <path id="Link" class="cls-1" d="M1227.75,679h-17.5a2.252,2.252,0,0,0-2.25,2.251v17.5a2.252,2.252,0,0,0,2.25,2.251h17.5a2.252,2.252,0,0,0,2.25-2.251v-17.5A2.252,2.252,0,0,0,1227.75,679Zm-7.66,5.815-1.08,1.079a2.9,2.9,0,0,0-.77,2.735l2.83-2.831a1.511,1.511,0,0,1,2.14,2.134l-2.83,2.83a2.885,2.885,0,0,0,2.73-.769l1.08-1.078A2.9,2.9,0,0,0,1220.09,684.815Zm-3.14,9.373a1.507,1.507,0,0,1-2.13-2.133l2.83-2.829a2.9,2.9,0,0,0-2.74.767l-1.08,1.079a2.9,2.9,0,0,0,4.1,4.1l1.08-1.078a2.9,2.9,0,0,0,.77-2.736Zm4.59-6.723a0.756,0.756,0,0,1,0,1.061l-4,4a0.75,0.75,0,1,1-1.06-1.061l4-4A0.749,0.749,0,0,1,1221.54,687.465Z" transform="translate(-1208 -679)"/>
</svg>
