<svg id="Duplicate" xmlns="http://www.w3.org/2000/svg" width="14" height="14" viewBox="0 0 14 14">
  <metadata><?xpacket begin="﻿" id="W5M0MpCehiHzreSzNTczkc9d"?>
<x:xmpmeta xmlns:x="adobe:ns:meta/" x:xmptk="Adobe XMP Core 5.6-c140 79.160451, 2017/05/06-01:08:21        ">
   <rdf:RDF xmlns:rdf="http://www.w3.org/1999/02/22-rdf-syntax-ns#">
      <rdf:Description rdf:about=""/>
   </rdf:RDF>
</x:xmpmeta>
                                                                                                    
                                                                                                    
                                                                                                    
                                                                                                    
                                                                                                    
                                                                                                    
                                                                                                    
                                                                                                    
                                                                                                    
                                                                                                    
                                                                                                    
                                                                                                    
                                                                                                    
                                                                                                    
                                                                                                    
                                                                                                    
                                                                                                    
                                                                                                    
                                                                                                    
                                                                                                    
                           
<?xpacket end="w"?></metadata>
<defs>
    <style>
      .cls-1 {
        fill: #959aa1;
        opacity: 0.5;
      }

      .cls-1, .cls-2 {
        fill-rule: evenodd;
      }

      .cls-2 {
        fill: #92969f;
      }
    </style>
  </defs>
  <path id="Rounded_Rectangle_1" data-name="Rounded Rectangle 1" class="cls-1" d="M1112,319v-1a1,1,0,0,0,1-1v-7a1,1,0,0,0-1-1h-7a1,1,0,0,0-1,1h-1a2,2,0,0,1,2-2h7a2,2,0,0,1,2,2v7A2,2,0,0,1,1112,319Z" transform="translate(-1100 -308)"/>
  <path id="Rounded_Rectangle_2" data-name="Rounded Rectangle 2" class="cls-2" d="M1109,322h-7a2,2,0,0,1-2-2v-7a2,2,0,0,1,2-2h7a2,2,0,0,1,2,2v7A2,2,0,0,1,1109,322Zm1-9a1,1,0,0,0-1-1h-7a1,1,0,0,0-1,1v7a1,1,0,0,0,1,1h7a1,1,0,0,0,1-1v-7Zm-2.5,4H1106v1.5a0.5,0.5,0,0,1-1,0V317h-1.5a0.5,0.5,0,0,1,0-1h1.5v-1.5a0.5,0.5,0,0,1,1,0V316h1.5A0.5,0.5,0,0,1,1107.5,317Z" transform="translate(-1100 -308)"/>
</svg>
