<svg id="_" data-name="#" xmlns="http://www.w3.org/2000/svg" width="24" height="24" viewBox="0 0 24 24">
  <defs>
    <style>
      .cls-1 {
        fill: #ffffff;
        fill-rule: evenodd;
      }
    </style>
  </defs>
  <path id="Twitter" class="cls-1" d="M24.255,4.239A9.676,9.676,0,0,1,21.477,5,4.854,4.854,0,0,0,23.6,2.325,9.682,9.682,0,0,1,20.531,3.5a4.839,4.839,0,0,0-8.24,4.411A13.732,13.732,0,0,1,2.323,2.856a4.841,4.841,0,0,0,1.5,6.455,4.806,4.806,0,0,1-2.191-.6V8.769a4.841,4.841,0,0,0,3.878,4.742,4.866,4.866,0,0,1-2.184.083,4.845,4.845,0,0,0,4.518,3.36,9.715,9.715,0,0,1-6.006,2.069,10.056,10.056,0,0,1-1.153-.068A13.635,13.635,0,0,0,8.1,21.05,13.6,13.6,0,0,0,21.854,7.367c0-.209,0-0.418-0.015-0.626a9.862,9.862,0,0,0,2.414-2.5h0Z"/>
</svg>
