<svg xmlns="http://www.w3.org/2000/svg" xmlns:xlink="http://www.w3.org/1999/xlink" viewBox="0 0 48 48">
  <defs>
    <style>
      .cls-1 {
        fill: #fff;
        stroke: rgba(0,0,0,0.05);
      }

      .cls-2 {
        fill: #1a1a1a;
      }

      .cls-3 {
        stroke: none;
      }

      .cls-4 {
        fill: none;
      }

      .cls-5 {
        filter: url(#Ellipse_5);
      }
    </style>
    <filter id="Ellipse_5" x="0" y="0" width="48" height="48" filterUnits="userSpaceOnUse">
      <feOffset dy="2" input="SourceAlpha"/>
      <feGaussianBlur stdDeviation="2.5" result="blur"/>
      <feFlood flood-opacity="0.149"/>
      <feComposite operator="in" in2="blur"/>
      <feComposite in="SourceGraphic"/>
    </filter>
  </defs>
  <g id="Group_38" data-name="Group 38" transform="translate(-853.5 -1058.5)">
    <g class="cls-5" transform="matrix(1, 0, 0, 1, 853.5, 1058.5)">
      <g id="Ellipse_5-2" data-name="Ellipse 5" class="cls-1" transform="translate(8.5 6.5)">
        <circle class="cls-3" cx="15.5" cy="15.5" r="15.5"/>
        <circle class="cls-4" cx="15.5" cy="15.5" r="16"/>
      </g>
    </g>
    <path id="Union_37" data-name="Union 37" class="cls-2" d="M6.341,13.386V7.75H.7a.7.7,0,0,1,0-1.409H6.341V.7A.7.7,0,1,1,7.75.7V6.341h5.637a.7.7,0,0,1,0,1.409H7.75v5.636a.7.7,0,1,1-1.409,0Z" transform="translate(877.5 1070.536) rotate(45)"/>
  </g>
</svg>
