<svg xmlns="http://www.w3.org/2000/svg" width="140" height="35" viewBox="0 0 140 35">
  <defs>
    <style>
      .cls-1 {
        fill-rule: evenodd;
      }
    </style>
  </defs>
  <path id="hp-logotype.svg" class="cls-1" d="M-0.021,34.924V-0.033H139.994V34.924H-0.021ZM10.733,22.106v3.751a3.779,3.779,0,0,0,3.807-3.751V18.356H10.733a3.779,3.779,0,0,0-3.807,3.751C6.925,22.145,10.733,22.106,10.733,22.106Zm5.235-5.157v8.908a3.779,3.779,0,0,0,3.807-3.751V13.2H10.733a3.779,3.779,0,0,0-3.807,3.751h9.043Zm9.043-8.908H10.733a3.779,3.779,0,0,0-3.807,3.751H21.2V25.857a3.779,3.779,0,0,0,3.807-3.751V8.041ZM37.718,9.893a6.625,6.625,0,1,0,0,13.244,7.3,7.3,0,0,0,3.037-.619v0.863a3.063,3.063,0,0,1-3.037,3.138A3.025,3.025,0,0,1,34.8,24.26H30.957a6.532,6.532,0,0,0,6.761,5.747,6.569,6.569,0,0,0,6.829-6.626V16.5A6.546,6.546,0,0,0,37.718,9.893ZM52.052,9.9A6.6,6.6,0,1,0,52.121,23.1a6.17,6.17,0,0,0,3.609-1.063,7.345,7.345,0,0,0,2.581-3.195H54.427a2.709,2.709,0,0,1-2.307,1.17,2.833,2.833,0,0,1-2.969-2.363h9.5a5.042,5.042,0,0,0,.091-0.99A6.578,6.578,0,0,0,52.052,9.9Zm21.566,0.365H69.826v1.327H69.78a4.124,4.124,0,0,0-3.7-1.692,6.3,6.3,0,0,0-6.372,6.6c0,3.577,2.352,6.589,6.372,6.589,1.485,0,3.06-.469,3.7-1.684h0.046v1.35h3.791V10.267ZM81.659,9.9c-2.193,0-2.855,1.085-3.175,1.692H78.438V10.267H74.875V22.911h3.791V15.892c0-1.89,1.233-2.25,2.992-2.295V9.9ZM84,18.929H80.048v3.981H84V18.929Zm7.538-5.6a2.841,2.841,0,0,1,2.741,1.755h3.837A6.635,6.635,0,0,0,91.4,9.9,6.6,6.6,0,1,0,91.492,23.1a6.691,6.691,0,0,0,6.646-5.09h-3.86a2.915,2.915,0,0,1-2.741,1.665A2.971,2.971,0,0,1,88.523,16.5,2.935,2.935,0,0,1,91.538,13.327ZM105.847,9.67a6.64,6.64,0,1,0,6.829,6.638A6.57,6.57,0,0,0,105.847,9.67ZM133,15.746c0-2.768-.089-3.6-1.277-4.838a4.863,4.863,0,0,0-7.354.968,3.969,3.969,0,0,0-3.655-2.228A3.612,3.612,0,0,0,117.22,11.4h-0.046V10.076h-3.54V22.782h3.792V15.925c0-.743,0-2.767,2.147-2.767,1.9,0,1.9,1.935,1.9,2.61v7.014h3.792V15.746c0-.7,0-2.587,2.1-2.587,1.941,0,1.941,1.755,1.941,2.767v6.856H133V15.746Zm-27.153,3.712a3.065,3.065,0,0,1-3.038-3.15,3.04,3.04,0,1,1,6.076,0A3.065,3.065,0,0,1,105.847,19.458Zm-39.2.236a3.184,3.184,0,0,1-.023-6.367,3.093,3.093,0,0,1,3.2,3.173A3.1,3.1,0,0,1,66.651,19.694Zm-14.577-6.7a2.788,2.788,0,0,1,2.878,2.137H49.2A2.787,2.787,0,0,1,52.075,12.989Zm-14.357,6.66A3.064,3.064,0,0,1,34.68,16.5a3.04,3.04,0,1,1,6.075,0A3.064,3.064,0,0,1,37.718,19.649Z"/>
</svg>
