<svg xmlns="http://www.w3.org/2000/svg" width="136.781" height="59" viewBox="0 0 136.781 59">
  <metadata><?xpacket begin="﻿" id="W5M0MpCehiHzreSzNTczkc9d"?>
<x:xmpmeta xmlns:x="adobe:ns:meta/" x:xmptk="Adobe XMP Core 5.6-c138 79.159824, 2016/09/14-01:09:01        ">
   <rdf:RDF xmlns:rdf="http://www.w3.org/1999/02/22-rdf-syntax-ns#">
      <rdf:Description rdf:about=""/>
   </rdf:RDF>
</x:xmpmeta>
                                                                                                    
                                                                                                    
                                                                                                    
                                                                                                    
                                                                                                    
                                                                                                    
                                                                                                    
                                                                                                    
                                                                                                    
                                                                                                    
                                                                                                    
                                                                                                    
                                                                                                    
                                                                                                    
                                                                                                    
                                                                                                    
                                                                                                    
                                                                                                    
                                                                                                    
                                                                                                    
                           
<?xpacket end="w"?></metadata>
<defs>
    <style>
      .cls-1 {
        fill: #fff;
        fill-rule: evenodd;
      }
    </style>
  </defs>
  <path class="cls-1" d="M167.482,106a14.211,14.211,0,0,1-10.345-4.091,14.843,14.843,0,0,1,.081-20.736A14.167,14.167,0,0,1,167.5,77a15.19,15.19,0,0,1,10.464,3.971l-3.241,4.693a12.37,12.37,0,0,0-3.462-2.266,9.269,9.269,0,0,0-3.421-.622,8.184,8.184,0,0,0-6,2.427,9.7,9.7,0,0,0-.1,12.755,7.55,7.55,0,0,0,5.583,2.387,11.707,11.707,0,0,0,5.652-1.243V95h-5.963l3-4.994h9v11.347Q174.844,106,167.482,106Zm22.8-31.228-20.542-11.76-0.513-.294a5.5,5.5,0,0,0-5.444,0l-0.513.294-20.542,11.76a5.4,5.4,0,0,0-2.722,4.674v24.108a5.4,5.4,0,0,0,2.722,4.674l20.542,11.761,0.513,0.293a5.5,5.5,0,0,0,5.444,0l0.513-.293,20.542-11.76a5.407,5.407,0,0,0,2.722-4.675V79.448A5.4,5.4,0,0,0,190.286,74.773Zm46.725,8.264V86.63h-9V90.1h8V93.54h-8v3.81h9v3.685h-13v-18h13ZM254.6,101l-1.832-4.007h-7.525L243.378,101h-4.4l8.014-18h4.006l8.014,18H254.6ZM249,88.379l-2.335,5.559h4.644Zm26.966,0.655a5.666,5.666,0,0,1-3.75,5.7l4.575,6.305h-4.963L267.825,95.5H265v5.545h-4v-18h7.162q4.213,0,6.01,1.422A5.486,5.486,0,0,1,275.969,89.034ZM271.2,91.3a3.038,3.038,0,0,0,.749-2.257,2.285,2.285,0,0,0-.775-2,4.964,4.964,0,0,0-2.714-.543H265v5.475h3.384A4.335,4.335,0,0,0,271.2,91.3Zm-57.723,9.731a9.191,9.191,0,0,1-6.743-2.656,9.064,9.064,0,0,1-2.726-6.758A9.488,9.488,0,0,1,213.494,82a9.889,9.889,0,0,1,6.822,2.647L218.2,87.73a8.061,8.061,0,0,0-2.257-1.49,5.983,5.983,0,0,0-2.23-.21,5.183,5.183,0,0,0-3.882,1.526,5.534,5.534,0,0,0-1.774,4.079,5.692,5.692,0,0,0,1.677,4.119,4.811,4.811,0,0,0,3.64,1.472,7.333,7.333,0,0,0,3.615-.658V94.006H213l0.969-3.041h7.024v7.08C219.185,100.085,216.681,101.035,213.481,101.035Z" transform="translate(-140 -62)"/>
</svg>
