<?xml version="1.0" encoding="utf-8"?>
<!-- Generator: Adobe Illustrator 21.1.0, SVG Export Plug-In . SVG Version: 6.00 Build 0)  -->
<svg version="1.1" id="Layer_1" xmlns="http://www.w3.org/2000/svg" xmlns:xlink="http://www.w3.org/1999/xlink" x="0px" y="0px"
	 viewBox="0 0 103 31" style="enable-background:new 0 0 103 31;" xml:space="preserve">
<style type="text/css">
	.st0{fill:#FFFFFF;}
</style>
<path class="st0" d="M6.9,0H6.3C2.8,0.1-0.1,3.1,0,6.7v17.7c-0.1,3.6,2.8,6.5,6.3,6.6h11.3c2.3,0,4.3-1.2,5.4-3.2
	c0.6-1.1,1-2.3,0.9-3.5V12h-9.7l-3.1,7H17v5H7V7h17V0H6.9z M96.1,31h6.9l-5.4-11.9c3.1-0.6,5.4-3.3,5.4-6.5V6.9c0-0.3,0-0.6-0.1-0.9
	c-0.3-3.4-3-6-6.4-6.1H79v31h7V19h4.8L96.1,31z M96,12H86V7h10L96,12L96,12z M34,19h7.6l3.1-7H34V7h14V0H27v24.5l0,0
	c0.1,3.6,3,6.5,6.6,6.5H48v-7H34L34,19L34,19z M69.6,0H52v12h-3.9L45,19h7v12h7V19h10v12h7V6.6C76,3,73.2,0.1,69.6,0z M59,12V7h10v5
	C69,12,59,12,59,12z"/>
</svg>
