<svg xmlns="http://www.w3.org/2000/svg" width="147.992" height="31.843" viewBox="0 0 147.992 31.843">
  <g id="그룹_576" data-name="그룹 576" opacity="0.119">
    <g id="그룹_499" data-name="그룹 499" transform="translate(0 3.614)">
      <rect id="사각형_784" data-name="사각형 784" width="15.402" height="28.115" transform="translate(0 0.048)" fill="none"/>
      <path id="패스_401" data-name="패스 401" d="M9.478,3.394a4.9,4.9,0,0,0,2.37,1.737c1.077,1.042-.215,2.779,1.293,3.647-1.077.261.431,1.3-1.077,1.3a10.06,10.06,0,0,1,2.154,8.945c.646,2.171,1.616,4.776.539,6.6,1.185.868.108,1.129.539,2.345-.539.087-.431.608-1.293.434a5.586,5.586,0,0,1-1.077,2.345c-1.939.174-4.739,1.476-7.432.434.323-1.216-.646-1.476-1.616-1.737.323-1.824,1.939-1.129,2.693-2.518,0-.782-.754-.955-1.077-1.476A5.107,5.107,0,0,0,6.57,21.8a4.2,4.2,0,0,1-1.616-.174c1.185-2.953-2.908-4.863-2.37-7.468,0,0,.539.261.539.174,0,0,.323-2.779,2.154-1.911C5.17,10.863,6.355,10.255,6.57,9.039c-1.077.174-1.185,1.129-2.37,1.3,1.185.521-.539.347-.215,1.3-.862-.261-1.185.174-2.154-.174.323-.261.108-1.042.539-1.3C1.4,9.386.323,8.865,0,7.649c.969-.782.539-2,1.293-3.213C4.524,4.263,6.355,3.134,9.478,3.394Z" transform="translate(0 -3.355)" fill-rule="evenodd"/>
    </g>
    <g id="그룹_500" data-name="그룹 500" transform="translate(1.723 3.506)">
      <rect id="사각형_785" data-name="사각형 785" width="15.402" height="28.115" transform="translate(0 0.048)" fill="none"/>
      <path id="패스_402" data-name="패스 402" d="M11.178,3.294a4.9,4.9,0,0,0,2.37,1.737c1.077,1.042-.215,2.779,1.293,3.647-1.077.261.431,1.3-1.077,1.3a10.06,10.06,0,0,1,2.154,8.945c.646,2.171,1.616,4.776.539,6.6,1.185.868.108,1.129.539,2.345-.539.087-.431.608-1.293.434a5.586,5.586,0,0,1-1.077,2.345c-1.939.174-4.739,1.476-7.432.434.323-1.216-.646-1.476-1.616-1.737.323-1.824,1.939-1.129,2.693-2.518,0-.782-.754-.955-1.077-1.476A5.107,5.107,0,0,0,8.27,21.7a4.2,4.2,0,0,1-1.616-.174c1.185-2.953-2.908-4.863-2.37-7.468,0,0,.539.261.539.174,0,0,.323-2.779,2.154-1.911C6.87,10.763,8.055,10.155,8.27,8.939c-1.077.174-1.185,1.129-2.37,1.3,1.185.521-.539.347-.215,1.3-.862-.261-1.185.174-2.154-.174.323-.261.108-1.042.539-1.3C3.1,9.46,2.023,8.939,1.7,7.723c.862-.868.431-2.084,1.185-3.3C6.116,4.163,7.947,3.034,11.178,3.294Z" transform="translate(-1.592 -3.255)" fill-rule="evenodd"/>
    </g>
    <g id="그룹_501" data-name="그룹 501" transform="translate(3.447 3.399)">
      <rect id="사각형_786" data-name="사각형 786" width="15.402" height="28.115" transform="translate(0 0.048)" fill="none"/>
      <path id="패스_403" data-name="패스 403" d="M12.778,3.194a4.9,4.9,0,0,0,2.37,1.737c1.077,1.042-.215,2.779,1.293,3.647-1.077.261.431,1.3-1.077,1.3a10.06,10.06,0,0,1,2.154,8.945c.646,2.171,1.616,4.776.539,6.6,1.185.868.108,1.129.539,2.345-.539.087-.431.608-1.293.434a5.586,5.586,0,0,1-1.077,2.345c-1.939.174-4.739,1.476-7.432.434.323-1.216-.646-1.476-1.616-1.737.323-1.824,1.939-1.129,2.693-2.518,0-.782-.754-.955-1.077-1.476A5.107,5.107,0,0,0,9.87,21.6a4.2,4.2,0,0,1-1.616-.174c1.185-2.953-2.908-4.863-2.37-7.468,0,0,.539.261.539.174,0,0,.323-2.779,2.154-1.911C8.47,10.663,9.655,10.055,9.87,8.839c-1.077.174-1.185,1.129-2.37,1.3,1.185.521-.539.347-.215,1.3-.862-.261-1.185.174-2.154-.174.323-.261.108-1.042.539-1.3C4.7,9.36,3.623,8.839,3.3,7.623c.969-.782.539-2,1.293-3.213C7.716,4.063,9.547,2.934,12.778,3.194Z" transform="translate(-3.192 -3.155)" fill-rule="evenodd"/>
    </g>
    <g id="그룹_502" data-name="그룹 502" transform="translate(5.278 3.291)">
      <rect id="사각형_787" data-name="사각형 787" width="15.402" height="28.115" transform="translate(0 0.048)" fill="none"/>
      <path id="패스_404" data-name="패스 404" d="M14.378,3.094a4.9,4.9,0,0,0,2.37,1.737c1.077,1.042-.215,2.779,1.293,3.647-1.077.261.431,1.3-1.077,1.3a10.06,10.06,0,0,1,2.154,8.945c.646,2.171,1.616,4.776.539,6.6,1.185.868.108,1.129.539,2.345-.539.087-.431.608-1.293.434a5.586,5.586,0,0,1-1.077,2.345c-1.939.174-4.739,1.476-7.432.434.323-1.216-.646-1.476-1.616-1.737.323-1.824,1.939-1.129,2.693-2.518,0-.782-.754-.955-1.077-1.476A5.107,5.107,0,0,0,11.47,21.5a4.2,4.2,0,0,1-1.616-.174c1.185-2.953-2.908-4.863-2.37-7.468,0,0,.539.261.539.174,0,0,.323-2.779,2.154-1.911-.108-1.563,1.077-2.171,1.293-3.387-1.077.174-1.185,1.129-2.37,1.3,1.185.521-.539.347-.215,1.3-.862-.261-1.185.174-2.154-.174.323-.261.108-1.042.539-1.3-1.077-.782-2.154-1.3-2.37-2.518.969-.782.539-2,1.293-3.213C9.316,3.963,11.255,2.834,14.378,3.094Z" transform="translate(-4.9 -3.055)" fill-rule="evenodd"/>
    </g>
    <g id="그룹_503" data-name="그룹 503" transform="translate(7.001 3.183)">
      <rect id="사각형_788" data-name="사각형 788" width="15.402" height="28.115" transform="translate(0 0.048)" fill="none"/>
      <path id="패스_405" data-name="패스 405" d="M15.978,2.994a4.9,4.9,0,0,0,2.37,1.737c1.077,1.042-.215,2.779,1.293,3.647-1.077.261.431,1.3-1.077,1.3a10.06,10.06,0,0,1,2.154,8.945c.646,2.171,1.616,4.776.539,6.6,1.185.868.108,1.129.539,2.345-.539.087-.431.608-1.293.434a5.586,5.586,0,0,1-1.077,2.345c-1.939.174-4.739,1.476-7.432.434.323-1.216-.646-1.476-1.616-1.737.323-1.824,1.939-1.129,2.693-2.518,0-.782-.754-.955-1.077-1.476A5.107,5.107,0,0,0,13.07,21.4a4.2,4.2,0,0,1-1.616-.174c1.185-2.953-2.908-4.863-2.37-7.468,0,0,.539.261.539.174,0,0,.323-2.779,2.154-1.911-.108-1.563,1.077-2.171,1.293-3.387-1.077.174-1.185,1.129-2.37,1.3,1.185.521-.539.347-.215,1.3-.862-.261-1.185.174-2.154-.174.323-.261.108-1.042.539-1.3C7.9,8.986,6.715,8.465,6.5,7.249c.862-.782.539-2,1.293-3.213C10.916,3.863,12.855,2.734,15.978,2.994Z" transform="translate(-6.5 -2.955)" fill-rule="evenodd"/>
    </g>
    <g id="그룹_504" data-name="그룹 504" transform="translate(8.724 3.075)">
      <rect id="사각형_789" data-name="사각형 789" width="15.402" height="28.115" transform="translate(0 0.048)" fill="none"/>
      <path id="패스_406" data-name="패스 406" d="M17.578,2.894a4.9,4.9,0,0,0,2.37,1.737c1.077,1.042-.215,2.779,1.293,3.647-1.077.261.431,1.3-1.077,1.3a10.06,10.06,0,0,1,2.154,8.945c.646,2.171,1.616,4.776.539,6.6,1.185.868.108,1.129.539,2.345-.539.087-.431.608-1.293.434a5.586,5.586,0,0,1-1.077,2.345c-1.939.174-4.739,1.476-7.432.434.323-1.216-.646-1.476-1.616-1.737.323-1.824,1.939-1.129,2.693-2.518,0-.782-.754-.955-1.077-1.476A5.107,5.107,0,0,0,14.67,21.3a4.2,4.2,0,0,1-1.616-.174c1.185-2.953-2.908-4.863-2.37-7.468,0,0,.539.261.539.174,0,0,.323-2.779,2.154-1.911-.108-1.563,1.077-2.171,1.293-3.387-1.077.174-1.185,1.129-2.37,1.3,1.185.521-.539.347-.215,1.3-.862-.261-1.185.174-2.154-.174.323-.261.108-1.042.539-1.3C9.5,8.886,8.423,8.365,8.1,7.149c.969-.782.539-2,1.293-3.213C12.624,3.763,14.455,2.634,17.578,2.894Z" transform="translate(-8.1 -2.855)" fill-rule="evenodd"/>
    </g>
    <g id="그룹_505" data-name="그룹 505" transform="translate(10.448 2.968)">
      <rect id="사각형_790" data-name="사각형 790" width="15.402" height="28.115" transform="translate(0 0.048)" fill="none"/>
      <path id="패스_407" data-name="패스 407" d="M19.178,2.794a4.9,4.9,0,0,0,2.37,1.737c1.077,1.042-.215,2.779,1.293,3.647-1.077.261.431,1.3-1.077,1.3a10.06,10.06,0,0,1,2.154,8.945c.646,2.171,1.616,4.776.539,6.6,1.185.868.108,1.129.539,2.345-.539.087-.431.608-1.293.434a5.586,5.586,0,0,1-1.077,2.345c-1.939.174-4.739,1.476-7.432.434.323-1.216-.646-1.476-1.616-1.737.323-1.824,1.939-1.129,2.693-2.518,0-.782-.754-.955-1.077-1.476A5.107,5.107,0,0,0,16.27,21.2a4.2,4.2,0,0,1-1.616-.174c1.185-2.953-2.908-4.863-2.37-7.468,0,0,.539.261.539.174,0,0,.323-2.779,2.154-1.911-.108-1.563,1.077-2.171,1.293-3.387-1.077.174-1.185,1.129-2.37,1.3,1.185.521-.539.347-.215,1.3-.862-.261-1.185.174-2.154-.174.323-.261.108-1.042.539-1.3-.969-.782-2.046-1.3-2.37-2.518.969-.782.539-2,1.293-3.213C14.224,3.663,16.055,2.534,19.178,2.794Z" transform="translate(-9.7 -2.755)" fill-rule="evenodd"/>
    </g>
    <g id="그룹_506" data-name="그룹 506" transform="translate(12.171 2.8)">
      <rect id="사각형_791" data-name="사각형 791" width="15.402" height="28.115" fill="none"/>
      <path id="패스_408" data-name="패스 408" d="M20.878,2.694a4.9,4.9,0,0,0,2.37,1.737c1.077,1.042-.215,2.779,1.293,3.647-1.077.261.431,1.3-1.077,1.3a10.06,10.06,0,0,1,2.154,8.945c.646,2.171,1.616,4.776.539,6.6,1.185.868.108,1.129.539,2.345-.539.087-.431.608-1.293.434a5.586,5.586,0,0,1-1.077,2.345c-1.939.174-4.739,1.476-7.432.434.323-1.216-.646-1.476-1.616-1.737.323-1.824,1.939-1.129,2.693-2.518,0-.782-.754-.955-1.077-1.476A5.107,5.107,0,0,0,17.97,21.1a4.2,4.2,0,0,1-1.616-.174c1.185-2.953-2.908-4.863-2.37-7.468,0,0,.539.261.539.174,0,0,.323-2.779,2.154-1.911-.108-1.563,1.077-2.171,1.293-3.387-1.077.174-1.185,1.129-2.37,1.3,1.185.521-.539.347-.215,1.3-.862-.261-1.185.174-2.154-.174.323-.261.108-1.042.539-1.3C12.8,8.86,11.723,8.339,11.4,7.123c.969-.782.539-2,1.293-3.213C15.816,3.563,17.647,2.434,20.878,2.694Z" transform="translate(-11.292 -2.596)" fill-rule="evenodd"/>
    </g>
    <g id="그룹_507" data-name="그룹 507" transform="translate(13.894 2.693)">
      <rect id="사각형_792" data-name="사각형 792" width="15.402" height="28.115" fill="none"/>
      <path id="패스_409" data-name="패스 409" d="M22.478,2.594a4.9,4.9,0,0,0,2.37,1.737c1.077,1.042-.215,2.779,1.293,3.647-1.077.261.431,1.3-1.077,1.3a10.06,10.06,0,0,1,2.154,8.945c.646,2.171,1.616,4.776.539,6.6,1.185.868.108,1.129.539,2.345-.539.087-.431.608-1.293.434a5.586,5.586,0,0,1-1.077,2.345c-1.939.174-4.739,1.476-7.432.434.323-1.216-.646-1.476-1.616-1.737.323-1.824,1.939-1.129,2.693-2.518,0-.782-.754-.955-1.077-1.476A5.107,5.107,0,0,0,19.57,21a4.2,4.2,0,0,1-1.616-.174c1.185-2.953-2.908-4.863-2.37-7.468,0,0,.539.261.539.174,0,0,.323-2.779,2.154-1.911-.108-1.563,1.077-2.171,1.293-3.387-1.077.174-1.185,1.129-2.37,1.3,1.185.521-.539.347-.215,1.3-.862-.261-1.185.174-2.154-.174.323-.261.108-1.042.539-1.3C14.4,8.76,13.323,8.239,13,7.023c.969-.782.539-2,1.293-3.213C17.416,3.463,19.247,2.334,22.478,2.594Z" transform="translate(-12.892 -2.496)" fill-rule="evenodd"/>
    </g>
    <g id="그룹_508" data-name="그룹 508" transform="translate(15.725 2.585)">
      <rect id="사각형_793" data-name="사각형 793" width="15.402" height="28.115" transform="translate(0)" fill="none"/>
      <path id="패스_410" data-name="패스 410" d="M24.078,2.494a4.9,4.9,0,0,0,2.37,1.737c1.077,1.042-.215,2.779,1.293,3.647-1.077.261.431,1.3-1.077,1.3a10.06,10.06,0,0,1,2.154,8.945c.646,2.171,1.616,4.776.539,6.6,1.185.868.108,1.129.539,2.345-.539.087-.431.608-1.293.434a5.586,5.586,0,0,1-1.077,2.345c-1.939.174-4.739,1.476-7.432.434.323-1.216-.646-1.476-1.616-1.737.323-1.824,1.939-1.129,2.693-2.518,0-.782-.754-.955-1.077-1.476A5.107,5.107,0,0,0,21.17,20.9a4.2,4.2,0,0,1-1.616-.174c1.185-2.953-2.908-4.863-2.37-7.468,0,0,.539.261.539.174,0,0,.323-2.779,2.154-1.911-.108-1.563,1.077-2.171,1.293-3.387-1.077.174-1.185,1.129-2.37,1.3,1.185.521-.539.347-.215,1.3-.862-.261-1.185.174-2.154-.174.323-.261.108-1.042.539-1.3C16,8.66,14.923,8.139,14.6,6.923c.969-.782.539-2,1.293-3.213C19.016,3.363,20.955,2.234,24.078,2.494Z" transform="translate(-14.6 -2.396)" fill-rule="evenodd"/>
    </g>
    <g id="그룹_509" data-name="그룹 509" transform="translate(17.449 2.477)">
      <rect id="사각형_794" data-name="사각형 794" width="15.402" height="28.115" transform="translate(0)" fill="none"/>
      <path id="패스_411" data-name="패스 411" d="M25.678,2.394a4.9,4.9,0,0,0,2.37,1.737c1.077,1.042-.215,2.779,1.293,3.647-1.077.261.431,1.3-1.077,1.3a10.06,10.06,0,0,1,2.154,8.945c.646,2.171,1.616,4.776.539,6.6,1.185.868.108,1.129.539,2.345-.539.087-.431.608-1.293.434a5.586,5.586,0,0,1-1.077,2.345c-1.939.174-4.739,1.476-7.432.434.323-1.216-.646-1.476-1.616-1.737.323-1.824,1.939-1.129,2.693-2.518,0-.782-.754-.955-1.077-1.476A5.107,5.107,0,0,0,22.77,20.8a4.2,4.2,0,0,1-1.616-.174c1.185-2.953-2.908-4.863-2.37-7.468,0,0,.539.261.539.174,0,0,.323-2.779,2.154-1.911-.108-1.563,1.077-2.171,1.293-3.387-1.077.174-1.185,1.129-2.37,1.3,1.185.521-.539.347-.215,1.3-.862-.261-1.185.174-2.154-.174.323-.261.108-1.042.539-1.3C17.6,8.56,16.523,8.039,16.2,6.823c.862-.955.539-2.171,1.293-3.387C20.616,3.263,22.555,2.134,25.678,2.394Z" transform="translate(-16.2 -2.296)" fill-rule="evenodd"/>
    </g>
    <g id="그룹_510" data-name="그룹 510" transform="translate(19.172 2.37)">
      <rect id="사각형_795" data-name="사각형 795" width="15.402" height="28.115" transform="translate(0)" fill="none"/>
      <path id="패스_412" data-name="패스 412" d="M27.278,2.291a4.9,4.9,0,0,0,2.37,1.737c1.077,1.042-.215,2.779,1.293,3.648-1.077.261.431,1.3-1.077,1.3a10.064,10.064,0,0,1,2.154,8.946c.646,2.171,1.616,4.777.539,6.6,1.185.869.108,1.129.539,2.345-.539.087-.431.608-1.293.434a5.588,5.588,0,0,1-1.077,2.345c-1.939.174-4.739,1.477-7.432.434.323-1.216-.646-1.477-1.616-1.737.323-1.824,1.939-1.129,2.693-2.519,0-.782-.754-.955-1.077-1.477A5.108,5.108,0,0,0,24.37,20.7a4.2,4.2,0,0,1-1.616-.174c1.185-2.953-2.908-4.864-2.37-7.47,0,0,.539.261.539.174,0,0,.323-2.779,2.154-1.911-.108-1.563,1.077-2.171,1.293-3.388-1.077.174-1.185,1.129-2.37,1.3,1.185.521-.539.347-.215,1.3-.862-.261-1.185.174-2.154-.174.323-.261.108-1.042.539-1.3C19.2,8.458,18.123,7.936,17.8,6.72c.969-.782.539-2,1.293-3.214C22.324,3.159,24.155,1.943,27.278,2.291Z" transform="translate(-17.8 -2.198)" fill-rule="evenodd"/>
    </g>
    <g id="그룹_511" data-name="그룹 511" transform="translate(20.896 2.262)">
      <rect id="사각형_796" data-name="사각형 796" width="15.402" height="28.115" fill="none"/>
      <path id="패스_413" data-name="패스 413" d="M28.878,2.19a4.9,4.9,0,0,0,2.37,1.737c1.077,1.042-.215,2.78,1.293,3.648-1.077.261.431,1.3-1.077,1.3a10.064,10.064,0,0,1,2.154,8.947c.646,2.172,1.616,4.777.539,6.6,1.185.869.108,1.129.539,2.345-.539.087-.431.608-1.293.434a5.588,5.588,0,0,1-1.077,2.345c-1.939.174-4.739,1.477-7.432.434.323-1.216-.646-1.477-1.616-1.737.323-1.824,1.939-1.129,2.693-2.519,0-.782-.754-.955-1.077-1.477A5.109,5.109,0,0,0,25.97,20.6a4.2,4.2,0,0,1-1.616-.174c1.185-2.953-2.908-4.864-2.37-7.47,0,0,.539.261.539.174,0,0,.323-2.78,2.154-1.911C24.57,9.66,25.755,9.052,25.97,7.836c-1.077.174-1.185,1.129-2.37,1.3,1.185.521-.539.347-.215,1.3-.862-.261-1.185.174-2.154-.174.323-.261.108-1.042.539-1.3C20.8,8.357,19.723,7.836,19.4,6.62c.969-.782.539-2,1.293-3.214C23.924,2.972,25.755,1.843,28.878,2.19Z" transform="translate(-19.4 -2.098)" fill-rule="evenodd"/>
    </g>
    <g id="그룹_512" data-name="그룹 512" transform="translate(22.619 2.154)">
      <rect id="사각형_797" data-name="사각형 797" width="15.402" height="28.115" fill="none"/>
      <path id="패스_414" data-name="패스 414" d="M30.586,2.09a4.9,4.9,0,0,0,2.37,1.737c1.077,1.042-.215,2.78,1.293,3.648-1.077.261.431,1.3-1.077,1.3a10.064,10.064,0,0,1,2.154,8.947c.646,2.172,1.616,4.777.539,6.6,1.185.869.108,1.129.539,2.345-.539.087-.431.608-1.293.434a5.588,5.588,0,0,1-1.077,2.345c-1.939.174-4.739,1.477-7.432.434.323-1.216-.646-1.477-1.616-1.737.323-1.824,1.939-1.129,2.693-2.519,0-.782-.754-.955-1.077-1.477A5.109,5.109,0,0,0,27.678,20.5a4.2,4.2,0,0,1-1.616-.174c1.185-2.953-2.908-4.864-2.37-7.47,0,0,.539.261.539.174,0,0,.323-2.78,2.154-1.911-.108-1.564,1.077-2.172,1.293-3.388-1.077.174-1.185,1.129-2.37,1.3,1.185.521-.539.347-.215,1.3-.862-.261-1.185.174-2.154-.174.323-.261.108-1.042.539-1.3C22.4,8.084,21.323,7.475,21,6.346c.969-.782.539-2,1.293-3.214C25.524,2.872,27.355,1.743,30.586,2.09Z" transform="translate(-21 -1.998)" fill-rule="evenodd"/>
    </g>
    <g id="그룹_513" data-name="그룹 513" transform="translate(24.342 2.046)">
      <rect id="사각형_798" data-name="사각형 798" width="15.402" height="28.115" fill="none"/>
      <path id="패스_415" data-name="패스 415" d="M32.178,1.99a4.9,4.9,0,0,0,2.37,1.737c1.077,1.042-.215,2.78,1.293,3.648-1.077.261.431,1.3-1.077,1.3a10.064,10.064,0,0,1,2.154,8.947c.646,2.172,1.616,4.777.539,6.6,1.185.869.108,1.129.539,2.345-.539.087-.431.608-1.293.434a5.588,5.588,0,0,1-1.077,2.345c-1.939.174-4.739,1.477-7.432.434.323-1.216-.646-1.477-1.616-1.737.323-1.824,1.939-1.129,2.693-2.519,0-.782-.754-.955-1.077-1.477A5.109,5.109,0,0,0,29.27,20.4a4.2,4.2,0,0,1-1.616-.174c1.185-2.953-2.908-4.864-2.37-7.47,0,0,.539.261.539.174,0,0,.323-2.78,2.154-1.911C27.87,9.46,29.055,8.852,29.27,7.636c-1.077.174-1.185,1.129-2.37,1.3,1.185.521-.539.347-.215,1.3-.862-.261-1.185.174-2.154-.174.323-.261.108-1.042.539-1.3C24.1,8.157,23.023,7.636,22.7,6.42c.969-.782.539-2,1.293-3.214C27.116,2.772,29.055,1.643,32.178,1.99Z" transform="translate(-22.592 -1.898)" fill-rule="evenodd"/>
    </g>
    <g id="그룹_514" data-name="그룹 514" transform="translate(26.173 1.939)">
      <rect id="사각형_799" data-name="사각형 799" width="15.402" height="28.115" transform="translate(0)" fill="none"/>
      <path id="패스_416" data-name="패스 416" d="M33.778,1.89a4.9,4.9,0,0,0,2.37,1.737c1.077,1.042-.215,2.78,1.293,3.648-1.077.261.431,1.3-1.077,1.3a10.064,10.064,0,0,1,2.154,8.947c.646,2.172,1.616,4.777.539,6.6,1.185.869.108,1.129.539,2.345-.539.087-.431.608-1.293.434a5.588,5.588,0,0,1-1.077,2.345c-1.939.174-4.739,1.477-7.432.434.323-1.216-.646-1.477-1.616-1.737.323-1.824,1.939-1.129,2.693-2.519,0-.782-.754-.955-1.077-1.477A5.109,5.109,0,0,0,30.87,20.3a4.2,4.2,0,0,1-1.616-.174c1.185-2.953-2.908-4.864-2.37-7.47,0,0,.539.261.539.174,0,0,.323-2.78,2.154-1.911C29.47,9.36,30.655,8.752,30.87,7.536c-1.077.174-1.185,1.129-2.37,1.3,1.185.521-.539.347-.215,1.3-.862-.261-1.185.174-2.154-.174.323-.261.108-1.042.539-1.3C25.7,8.057,24.623,7.536,24.3,6.32c.969-.782.539-2,1.293-3.214C28.716,2.672,30.655,1.543,33.778,1.89Z" transform="translate(-24.3 -1.798)" fill-rule="evenodd"/>
    </g>
    <g id="그룹_515" data-name="그룹 515" transform="translate(27.897 1.831)">
      <rect id="사각형_800" data-name="사각형 800" width="15.402" height="28.115" transform="translate(0)" fill="none"/>
      <path id="패스_417" data-name="패스 417" d="M35.378,1.79a4.9,4.9,0,0,0,2.37,1.737c1.077,1.042-.215,2.78,1.293,3.648-1.077.261.431,1.3-1.077,1.3a10.064,10.064,0,0,1,2.154,8.947c.646,2.172,1.616,4.777.539,6.6,1.185.869.108,1.129.539,2.345-.539.087-.431.608-1.293.434a5.588,5.588,0,0,1-1.077,2.345c-1.939.174-4.739,1.477-7.432.434.323-1.216-.646-1.477-1.616-1.737.323-1.824,1.939-1.129,2.693-2.519,0-.782-.754-.955-1.077-1.477A5.109,5.109,0,0,0,32.47,20.2a4.2,4.2,0,0,1-1.616-.174c1.185-2.953-2.908-4.864-2.37-7.47,0,0,.539.261.539.174,0,0,.323-2.78,2.154-1.911C31.07,9.26,32.255,8.652,32.47,7.436c-1.077.174-1.185,1.129-2.37,1.3,1.185.521-.539.347-.215,1.3-.862-.261-1.185.174-2.154-.174.323-.261.108-1.042.539-1.3C27.3,7.957,26.223,7.436,25.9,6.22c.969-.782.539-2,1.293-3.214C30.316,2.572,32.255,1.443,35.378,1.79Z" transform="translate(-25.9 -1.698)" fill-rule="evenodd"/>
    </g>
    <g id="그룹_516" data-name="그룹 516" transform="translate(29.62 1.723)">
      <rect id="사각형_801" data-name="사각형 801" width="15.402" height="28.115" transform="translate(0)" fill="none"/>
      <path id="패스_418" data-name="패스 418" d="M36.978,1.69a4.9,4.9,0,0,0,2.37,1.737c1.077,1.042-.215,2.78,1.293,3.648-1.077.261.431,1.3-1.077,1.3a10.064,10.064,0,0,1,2.154,8.947c.646,2.172,1.616,4.777.539,6.6,1.185.869.108,1.129.539,2.345-.539.087-.431.608-1.293.434a5.588,5.588,0,0,1-1.077,2.345c-1.939.174-4.739,1.477-7.432.434.323-1.216-.646-1.477-1.616-1.737.323-1.824,1.939-1.129,2.693-2.519,0-.782-.754-.955-1.077-1.477A5.109,5.109,0,0,0,34.07,20.1a4.2,4.2,0,0,1-1.616-.174c1.185-2.953-2.908-4.864-2.37-7.47,0,0,.539.261.539.174,0,0,.323-2.78,2.154-1.911C32.67,9.16,33.855,8.552,34.07,7.336c-1.077.174-1.185,1.129-2.37,1.3,1.185.521-.539.347-.215,1.3-.862-.261-1.185.174-2.154-.174.323-.261.108-1.042.539-1.3C28.9,7.857,27.823,7.336,27.5,6.12c.969-.782.539-2,1.293-3.214C32.024,2.472,33.855,1.343,36.978,1.69Z" transform="translate(-27.5 -1.598)" fill-rule="evenodd"/>
    </g>
    <g id="그룹_517" data-name="그룹 517" transform="translate(31.343 1.675)">
      <rect id="사각형_802" data-name="사각형 802" width="15.402" height="28.115" transform="translate(0 0.048)" fill="none"/>
      <path id="패스_419" data-name="패스 419" d="M38.578,1.594a4.9,4.9,0,0,0,2.37,1.737c1.077,1.042-.215,2.779,1.293,3.647-1.077.261.431,1.3-1.077,1.3a10.06,10.06,0,0,1,2.154,8.945c.646,2.171,1.616,4.776.539,6.6,1.185.868.108,1.129.539,2.345-.539.087-.431.608-1.293.434a5.586,5.586,0,0,1-1.077,2.345c-1.939.174-4.739,1.476-7.432.434.323-1.216-.646-1.476-1.616-1.737.323-1.824,1.939-1.129,2.693-2.518,0-.782-.754-.955-1.077-1.476A5.107,5.107,0,0,0,35.67,20a4.2,4.2,0,0,1-1.616-.174c1.185-2.953-2.908-4.863-2.37-7.468,0,0,.539.261.539.174,0,0,.323-2.779,2.154-1.911-.108-1.563,1.077-2.171,1.293-3.387-1.077.174-1.185,1.129-2.37,1.3,1.185.521-.539.347-.215,1.3-.862-.261-1.185.174-2.154-.174.323-.261.108-1.042.539-1.3C30.5,7.76,29.423,7.239,29.1,6.023c.969-.782.539-2,1.293-3.213C33.624,2.463,35.455,1.334,38.578,1.594Z" transform="translate(-29.1 -1.555)" fill-rule="evenodd"/>
    </g>
    <g id="그룹_518" data-name="그룹 518" transform="translate(33.067 1.616)">
      <rect id="사각형_803" data-name="사각형 803" width="15.402" height="28.115" fill="none"/>
      <path id="패스_420" data-name="패스 420" d="M40.286,1.59a4.9,4.9,0,0,0,2.37,1.737c1.077,1.042-.215,2.78,1.293,3.648-1.077.261.431,1.3-1.077,1.3a10.064,10.064,0,0,1,2.154,8.947c.646,2.172,1.616,4.777.539,6.6,1.185.869.108,1.129.539,2.345-.539.087-.431.608-1.293.434a5.588,5.588,0,0,1-1.077,2.345c-1.939.174-4.739,1.477-7.432.434.323-1.216-.646-1.477-1.616-1.737.323-1.824,1.939-1.129,2.693-2.519,0-.782-.754-.955-1.077-1.477A5.109,5.109,0,0,0,37.378,20a4.2,4.2,0,0,1-1.616-.174c1.185-2.953-2.908-4.864-2.37-7.47,0,0,.539.261.539.174,0,0,.323-2.78,2.154-1.911-.108-1.564,1.077-2.172,1.293-3.388-1.077.174-1.185,1.129-2.37,1.3,1.185.521-.539.347-.215,1.3-.862-.261-1.185.174-2.154-.174.323-.261.108-1.042.539-1.3C32.1,7.5,31.023,6.975,30.7,5.846c.969-.782.539-2,1.293-3.214C35.224,2.372,37.055,1.243,40.286,1.59Z" transform="translate(-30.7 -1.498)" fill-rule="evenodd"/>
    </g>
    <g id="그룹_519" data-name="그룹 519" transform="translate(34.79 1.508)">
      <rect id="사각형_804" data-name="사각형 804" width="15.402" height="28.115" fill="none"/>
      <path id="패스_421" data-name="패스 421" d="M41.878,1.494a4.9,4.9,0,0,0,2.37,1.737c1.077,1.042-.215,2.779,1.293,3.647-1.077.261.431,1.3-1.077,1.3a10.06,10.06,0,0,1,2.154,8.945c.646,2.171,1.616,4.776.539,6.6,1.185.868.108,1.129.539,2.345-.539.087-.431.608-1.293.434a5.586,5.586,0,0,1-1.077,2.345c-1.939.174-4.739,1.476-7.432.434.323-1.216-.646-1.476-1.616-1.737.323-1.824,1.939-1.129,2.693-2.518,0-.782-.754-.955-1.077-1.476A5.107,5.107,0,0,0,38.97,19.9a4.2,4.2,0,0,1-1.616-.174c1.185-2.953-2.908-4.863-2.37-7.468,0,0,.539.261.539.174,0,0,.323-2.779,2.154-1.911-.108-1.563,1.077-2.171,1.293-3.387-1.077.174-1.185,1.129-2.37,1.3,1.185.521-.539.347-.215,1.3-.862-.261-1.185.174-2.154-.174.323-.261.108-1.042.539-1.3C33.8,7.66,32.723,7.139,32.4,5.923c.969-.782.539-2,1.293-3.213C36.816,2.363,38.755,1.234,41.878,1.494Z" transform="translate(-32.292 -1.396)" fill-rule="evenodd"/>
    </g>
    <g id="그룹_520" data-name="그룹 520" transform="translate(36.621 1.46)">
      <rect id="사각형_805" data-name="사각형 805" width="15.402" height="28.115" transform="translate(0 0.048)" fill="none"/>
      <path id="패스_422" data-name="패스 422" d="M43.478,1.394a4.9,4.9,0,0,0,2.37,1.737c1.077,1.042-.215,2.779,1.293,3.647-1.077.261.431,1.3-1.077,1.3a10.06,10.06,0,0,1,2.154,8.945c.646,2.171,1.616,4.776.539,6.6,1.185.868.108,1.129.539,2.345-.539.087-.431.608-1.293.434a5.586,5.586,0,0,1-1.077,2.345c-1.939.174-4.739,1.476-7.432.434.323-1.216-.646-1.476-1.616-1.737.323-1.824,1.939-1.129,2.693-2.518,0-.782-.754-.955-1.077-1.476A5.107,5.107,0,0,0,40.57,19.8a4.2,4.2,0,0,1-1.616-.174c1.185-2.953-2.908-4.863-2.37-7.468,0,0,.539.261.539.174,0,0,.323-2.779,2.154-1.911-.108-1.563,1.077-2.171,1.293-3.387-1.077.174-1.185,1.129-2.37,1.3,1.185.521-.539.347-.215,1.3-.862-.261-1.185.174-2.154-.174.323-.261.108-1.042.539-1.3C35.4,7.56,34.323,7.039,34,5.823c.969-.782.539-2,1.293-3.213C38.416,2.263,40.355,1.134,43.478,1.394Z" transform="translate(-34 -1.355)" fill-rule="evenodd"/>
    </g>
    <g id="그룹_521" data-name="그룹 521" transform="translate(38.344 1.4)">
      <rect id="사각형_806" data-name="사각형 806" width="15.402" height="28.115" fill="none"/>
      <path id="패스_423" data-name="패스 423" d="M45.078,1.39a4.9,4.9,0,0,0,2.37,1.737c1.077,1.042-.215,2.78,1.293,3.648-1.077.261.431,1.3-1.077,1.3a10.064,10.064,0,0,1,2.154,8.947c.646,2.172,1.616,4.777.539,6.6,1.185.869.108,1.129.539,2.345-.539.087-.431.608-1.293.434a5.588,5.588,0,0,1-1.077,2.345c-1.939.174-4.739,1.477-7.432.434.323-1.216-.646-1.477-1.616-1.737.323-1.824,1.939-1.129,2.693-2.519,0-.782-.754-.955-1.077-1.477A5.109,5.109,0,0,0,42.17,19.8a4.2,4.2,0,0,1-1.616-.174c1.185-2.953-2.908-4.864-2.37-7.47,0,0,.539.261.539.174,0,0,.323-2.78,2.154-1.911C40.77,8.86,41.955,8.252,42.17,7.036c-1.077.174-1.185,1.129-2.37,1.3,1.185.521-.539.347-.215,1.3-.862-.261-1.185.174-2.154-.174.323-.261.108-1.042.539-1.3C37,7.557,35.923,7.036,35.6,5.82c.969-.782.539-2,1.293-3.214C40.124,2.172,41.955,1.043,45.078,1.39Z" transform="translate(-35.6 -1.298)" fill-rule="evenodd"/>
    </g>
    <g id="그룹_522" data-name="그룹 522" transform="translate(40.068 1.352)">
      <rect id="사각형_807" data-name="사각형 807" width="15.402" height="28.115" transform="translate(0 0.048)" fill="none"/>
      <path id="패스_424" data-name="패스 424" d="M46.678,1.294a4.9,4.9,0,0,0,2.37,1.736c1.077,1.041-.215,2.777,1.293,3.645-1.077.26.431,1.3-1.077,1.3a10.047,10.047,0,0,1,2.154,8.938c.646,2.169,1.616,4.773.539,6.6,1.185.868.108,1.128.539,2.343-.431,0-.431.521-1.293.347a5.58,5.58,0,0,1-1.077,2.343c-1.939.174-4.739,1.475-7.432.434.323-1.215-.646-1.475-1.616-1.736.323-1.822,1.939-1.128,2.693-2.517,0-.781-.754-.955-1.077-1.475A5.1,5.1,0,0,0,43.77,19.6a4.208,4.208,0,0,1-1.616-.174c1.185-2.95-2.908-4.86-2.37-7.463,0,0,.539.26.539.174,0,0,.323-2.777,2.154-1.909C42.37,8.67,43.555,8.063,43.77,6.848c-1.077.174-1.185,1.128-2.37,1.3,1.185.521-.539.347-.215,1.3-.862-.26-1.185.174-2.154-.174.323-.26.108-1.041.539-1.3-.969-.607-2.046-1.128-2.37-2.343.969-.781.539-2,1.293-3.211C41.724,2.162,43.555,1.034,46.678,1.294Z" transform="translate(-37.2 -1.255)" fill-rule="evenodd"/>
    </g>
    <g id="그룹_523" data-name="그룹 523" transform="translate(41.791 1.293)">
      <rect id="사각형_808" data-name="사각형 808" width="15.402" height="28.115" fill="none"/>
      <path id="패스_425" data-name="패스 425" d="M48.378,1.29a4.9,4.9,0,0,0,2.37,1.737c1.077,1.042-.215,2.78,1.293,3.648-1.077.261.431,1.3-1.077,1.3a10.064,10.064,0,0,1,2.154,8.947c.646,2.172,1.616,4.777.539,6.6,1.185.869.108,1.129.539,2.345-.539.087-.431.608-1.293.434a5.588,5.588,0,0,1-1.077,2.345c-1.939.174-4.739,1.477-7.432.434.323-1.216-.646-1.477-1.616-1.737.323-1.824,1.939-1.129,2.693-2.519,0-.782-.754-.955-1.077-1.477A5.109,5.109,0,0,0,45.47,19.7a4.2,4.2,0,0,1-1.616-.174c1.185-2.953-2.908-4.864-2.37-7.47,0,0,.539.261.539.174,0,0,.323-2.78,2.154-1.911C44.07,8.76,45.255,8.152,45.47,6.936c-1.077.174-1.185,1.129-2.37,1.3,1.185.521-.539.347-.215,1.3-.862-.261-1.185.174-2.154-.174.323-.261.108-1.042.539-1.3C40.3,7.457,39.223,6.936,38.9,5.72c.969-.782.539-2,1.293-3.214C43.316,2.072,45.147.943,48.378,1.29Z" transform="translate(-38.792 -1.198)" fill-rule="evenodd"/>
    </g>
    <g id="그룹_524" data-name="그룹 524" transform="translate(43.514 1.185)">
      <rect id="사각형_809" data-name="사각형 809" width="15.402" height="28.115" fill="none"/>
      <path id="패스_426" data-name="패스 426" d="M49.978,1.194a4.9,4.9,0,0,0,2.37,1.737c1.077,1.042-.215,2.779,1.293,3.647-1.077.261.431,1.3-1.077,1.3a10.06,10.06,0,0,1,2.154,8.945c.646,2.171,1.616,4.776.539,6.6,1.185.868.108,1.129.539,2.345-.539.087-.431.608-1.293.434a5.586,5.586,0,0,1-1.077,2.345c-1.939.174-4.739,1.476-7.432.434.323-1.216-.646-1.476-1.616-1.737.323-1.824,1.939-1.129,2.693-2.518,0-.782-.754-.955-1.077-1.476A5.107,5.107,0,0,0,47.07,19.6a4.2,4.2,0,0,1-1.616-.174c1.185-2.953-2.908-4.863-2.37-7.468,0,0,.539.261.539.174,0,0,.323-2.779,2.154-1.911-.108-1.563,1.077-2.171,1.293-3.387-1.077.174-1.185,1.129-2.37,1.3,1.185.521-.539.347-.215,1.3-.862-.261-1.185.174-2.154-.174.323-.261.108-1.042.539-1.3C41.9,7.36,40.823,6.839,40.5,5.623c.969-.782.539-2,1.293-3.213C44.916,2.063,46.855.934,49.978,1.194Z" transform="translate(-40.392 -1.096)" fill-rule="evenodd"/>
    </g>
    <g id="그룹_525" data-name="그룹 525" transform="translate(45.345 1.137)">
      <rect id="사각형_810" data-name="사각형 810" width="15.402" height="28.115" transform="translate(0 0.048)" fill="none"/>
      <path id="패스_427" data-name="패스 427" d="M51.578,1.094a4.9,4.9,0,0,0,2.37,1.737c1.077,1.042-.215,2.779,1.293,3.647-1.077.261.431,1.3-1.077,1.3a10.06,10.06,0,0,1,2.154,8.945c.646,2.171,1.616,4.776.539,6.6,1.185.868.108,1.129.539,2.345-.539.087-.431.608-1.293.434a5.586,5.586,0,0,1-1.077,2.345c-1.939.174-4.739,1.476-7.432.434.323-1.216-.646-1.476-1.616-1.737.323-1.824,1.939-1.129,2.693-2.518,0-.782-.754-.955-1.077-1.476A5.107,5.107,0,0,0,48.67,19.5a4.2,4.2,0,0,1-1.616-.174c1.185-2.953-2.908-4.863-2.37-7.468,0,0,.539.261.539.174,0,0,.323-2.779,2.154-1.911-.108-1.563,1.077-2.171,1.293-3.387-1.077.174-1.185,1.129-2.37,1.3,1.185.521-.539.347-.215,1.3-.862-.261-1.185.174-2.154-.174.323-.261.108-1.042.539-1.3-.969-.782-2.154-1.3-2.37-2.518.969-.782.539-2,1.293-3.213C46.516,1.963,48.455.834,51.578,1.094Z" transform="translate(-42.1 -1.055)" fill-rule="evenodd"/>
    </g>
    <g id="그룹_526" data-name="그룹 526" transform="translate(47.069 1.077)">
      <rect id="사각형_811" data-name="사각형 811" width="15.402" height="28.115" fill="none"/>
      <path id="패스_428" data-name="패스 428" d="M53.178,1.09a4.9,4.9,0,0,0,2.37,1.737c1.077,1.042-.215,2.78,1.293,3.648-1.077.261.431,1.3-1.077,1.3a10.064,10.064,0,0,1,2.154,8.947c.646,2.172,1.616,4.777.539,6.6,1.185.869.108,1.129.539,2.345-.539.087-.431.608-1.293.434a5.588,5.588,0,0,1-1.077,2.345c-1.939.174-4.739,1.477-7.432.434.323-1.216-.646-1.477-1.616-1.737.323-1.824,1.939-1.129,2.693-2.519,0-.782-.754-.955-1.077-1.477A5.109,5.109,0,0,0,50.27,19.5a4.2,4.2,0,0,1-1.616-.174c1.185-2.953-2.908-4.864-2.37-7.47,0,0,.539.261.539.174,0,0,.323-2.78,2.154-1.911C48.87,8.56,50.055,7.952,50.27,6.736c-1.077.174-1.185,1.129-2.37,1.3,1.185.521-.539.347-.215,1.3-.862-.261-1.185.174-2.154-.174.323-.261.108-1.042.539-1.3-.969-.782-2.046-1.39-2.37-2.519.969-.782.539-2,1.293-3.214C48.224,1.872,50.055.743,53.178,1.09Z" transform="translate(-43.7 -0.998)" fill-rule="evenodd"/>
    </g>
    <g id="그룹_527" data-name="그룹 527" transform="translate(48.792 1.029)">
      <rect id="사각형_812" data-name="사각형 812" width="15.402" height="28.115" transform="translate(0 0.048)" fill="none"/>
      <path id="패스_429" data-name="패스 429" d="M54.778.994a4.9,4.9,0,0,0,2.37,1.737c1.077,1.042-.215,2.779,1.293,3.647-1.077.261.431,1.3-1.077,1.3a10.06,10.06,0,0,1,2.154,8.945c.646,2.171,1.616,4.776.539,6.6,1.185.868.108,1.129.539,2.345-.539.087-.431.608-1.293.434a5.586,5.586,0,0,1-1.077,2.345c-1.939.174-4.739,1.476-7.432.434.323-1.216-.646-1.476-1.616-1.737.323-1.824,1.939-1.129,2.693-2.518,0-.782-.754-.955-1.077-1.476A5.107,5.107,0,0,0,51.87,19.4a4.2,4.2,0,0,1-1.616-.174c1.185-2.953-2.908-4.863-2.37-7.468,0,0,.539.261.539.174,0,0,.323-2.779,2.154-1.911-.108-1.563,1.077-2.171,1.293-3.387-1.077.174-1.185,1.129-2.37,1.3,1.185.521-.539.347-.215,1.3-.862-.261-1.185.174-2.154-.174.323-.261.108-1.042.539-1.3C46.7,7.16,45.623,6.639,45.3,5.423c.969-.782.539-2,1.293-3.213C49.824,1.863,51.655.734,54.778.994Z" transform="translate(-45.3 -0.955)" fill-rule="evenodd"/>
    </g>
    <g id="그룹_528" data-name="그룹 528" transform="translate(50.515 0.921)">
      <rect id="사각형_813" data-name="사각형 813" width="15.402" height="28.115" transform="translate(0 0.048)" fill="none"/>
      <path id="패스_430" data-name="패스 430" d="M56.478.894a4.9,4.9,0,0,0,2.37,1.737c1.077,1.042-.215,2.779,1.293,3.647-1.077.261.431,1.3-1.077,1.3a10.06,10.06,0,0,1,2.154,8.945c.646,2.171,1.616,4.776.539,6.6,1.185.868.108,1.129.539,2.345-.539.087-.431.608-1.293.434a5.586,5.586,0,0,1-1.077,2.345c-1.939.174-4.739,1.476-7.432.434.323-1.216-.646-1.476-1.616-1.737.323-1.824,1.939-1.129,2.693-2.518,0-.782-.754-.955-1.077-1.476A5.107,5.107,0,0,0,53.57,19.3a4.2,4.2,0,0,1-1.616-.174c1.185-2.953-2.908-4.863-2.37-7.468,0,0,.539.261.539.174,0,0,.323-2.779,2.154-1.911-.108-1.563,1.077-2.171,1.293-3.387-1.077.174-1.185,1.129-2.37,1.3,1.185.521-.539.347-.215,1.3-.862-.261-1.185.174-2.154-.174.323-.261.108-1.042.539-1.3C48.4,7.06,47.323,6.539,47,5.323c.969-.782.539-2,1.293-3.213C51.416,1.763,53.247.634,56.478.894Z" transform="translate(-46.892 -0.855)" fill-rule="evenodd"/>
    </g>
    <g id="그룹_529" data-name="그룹 529" transform="translate(52.239 0.862)">
      <rect id="사각형_814" data-name="사각형 814" width="15.402" height="28.115" fill="none"/>
      <path id="패스_431" data-name="패스 431" d="M58.078.894a4.9,4.9,0,0,0,2.37,1.737c1.077,1.042-.215,2.779,1.293,3.647-1.077.261.431,1.3-1.077,1.3a10.06,10.06,0,0,1,2.154,8.945c.646,2.171,1.616,4.776.539,6.6,1.185.868.108,1.129.539,2.345-.539.087-.431.608-1.293.434a5.586,5.586,0,0,1-1.077,2.345c-1.939.174-4.739,1.476-7.432.434.323-1.216-.646-1.476-1.616-1.737.323-1.824,1.939-1.129,2.693-2.518,0-.782-.754-.955-1.077-1.476A5.107,5.107,0,0,0,55.17,19.3a4.2,4.2,0,0,1-1.616-.174c1.185-2.953-2.908-4.863-2.37-7.468,0,0,.539.261.539.174,0,0,.323-2.779,2.154-1.911-.108-1.563,1.077-2.171,1.293-3.387-1.077.174-1.185,1.129-2.37,1.3,1.185.521-.539.347-.215,1.3-.862-.261-1.185.174-2.154-.174.323-.261.108-1.042.539-1.3C50,7.06,48.923,6.539,48.6,5.323c.969-.782.539-2,1.293-3.213C53.016,1.763,54.955.634,58.078.894Z" transform="translate(-48.492 -0.796)" fill-rule="evenodd"/>
    </g>
    <g id="그룹_530" data-name="그룹 530" transform="translate(54.07 0.814)">
      <rect id="사각형_815" data-name="사각형 815" width="15.402" height="28.115" transform="translate(0 0.048)" fill="none"/>
      <path id="패스_432" data-name="패스 432" d="M59.678.794a4.9,4.9,0,0,0,2.37,1.737c1.077.955-.215,2.779,1.293,3.647-1.077.261.431,1.3-1.077,1.3a10.06,10.06,0,0,1,2.154,8.945c.646,2.171,1.616,4.776.539,6.6,1.185.868.108,1.129.539,2.345-.539.087-.431.608-1.293.434a5.586,5.586,0,0,1-1.077,2.345c-1.939.174-4.739,1.476-7.432.434.323-1.216-.646-1.476-1.616-1.737.323-1.824,1.939-1.129,2.693-2.518,0-.782-.754-.955-1.077-1.476A5.107,5.107,0,0,0,56.77,19.2a4.2,4.2,0,0,1-1.616-.174c1.185-2.953-2.908-4.863-2.37-7.468,0,0,.539.261.539.174,0,0,.323-2.779,2.154-1.911-.108-1.563,1.077-2.171,1.293-3.387-1.077.174-1.185,1.129-2.37,1.3,1.185.521-.539.347-.215,1.3-.862-.261-1.185.174-2.154-.174.323-.261.108-1.042.539-1.3C51.6,6.96,50.523,6.439,50.2,5.223c.969-.782.539-2,1.293-3.213C54.616,1.663,56.555.534,59.678.794Z" transform="translate(-50.2 -0.755)" fill-rule="evenodd"/>
    </g>
    <g id="그룹_531" data-name="그룹 531" transform="translate(55.793 0.754)">
      <rect id="사각형_816" data-name="사각형 816" width="15.402" height="28.115" fill="none"/>
      <path id="패스_433" data-name="패스 433" d="M61.278.79a4.9,4.9,0,0,0,2.37,1.737c1.077,1.042-.215,2.78,1.293,3.648-1.077.261.431,1.3-1.077,1.3a10.064,10.064,0,0,1,2.154,8.947c.646,2.172,1.616,4.777.539,6.6,1.185.869.108,1.129.539,2.345-.539.087-.431.608-1.293.434a5.588,5.588,0,0,1-1.077,2.345c-1.939.174-4.739,1.477-7.432.434.323-1.216-.646-1.477-1.616-1.737.323-1.824,1.939-1.129,2.693-2.519,0-.782-.754-.955-1.077-1.477A5.109,5.109,0,0,0,58.37,19.2a4.2,4.2,0,0,1-1.616-.174c1.185-2.953-2.908-4.864-2.37-7.47,0,0,.539.261.539.174,0,0,.323-2.78,2.154-1.911C56.97,8.26,58.155,7.652,58.37,6.436c-1.077.174-1.185,1.129-2.37,1.3,1.185.521-.539.347-.215,1.3-.862-.261-1.185.174-2.154-.174.323-.261.108-1.042.539-1.3C53.2,6.957,52.123,6.436,51.8,5.22c.862-.955.539-2.172,1.293-3.388C56.216,1.572,58.155.443,61.278.79Z" transform="translate(-51.8 -0.698)" fill-rule="evenodd"/>
    </g>
    <g id="그룹_532" data-name="그룹 532" transform="translate(57.517 0.706)">
      <rect id="사각형_817" data-name="사각형 817" width="15.402" height="28.115" transform="translate(0 0.048)" fill="none"/>
      <path id="패스_434" data-name="패스 434" d="M62.878.694a4.9,4.9,0,0,0,2.37,1.737c1.077,1.042-.215,2.779,1.293,3.647-1.077.261.431,1.3-1.077,1.3a10.06,10.06,0,0,1,2.154,8.945c.646,2.171,1.616,4.776.539,6.6,1.185.868.108,1.129.539,2.345-.539.087-.431.608-1.293.434a5.586,5.586,0,0,1-1.077,2.345c-1.939.174-4.739,1.476-7.432.434.323-1.216-.646-1.476-1.616-1.737.323-1.824,1.939-1.129,2.693-2.518,0-.782-.754-.955-1.077-1.476A5.107,5.107,0,0,0,59.97,19.1a4.2,4.2,0,0,1-1.616-.174c1.185-2.953-2.908-4.863-2.37-7.468,0,0,.539.261.539.174,0,0,.323-2.779,2.154-1.911-.108-1.563,1.077-2.171,1.293-3.387-1.077.174-1.185,1.129-2.37,1.3,1.185.521-.539.347-.215,1.3-.862-.261-1.185.174-2.154-.174.323-.261.108-1.042.539-1.3C54.8,6.86,53.723,6.339,53.4,5.123c.969-.782.539-2,1.293-3.213C57.924,1.563,59.755.434,62.878.694Z" transform="translate(-53.4 -0.655)" fill-rule="evenodd"/>
    </g>
    <g id="그룹_533" data-name="그룹 533" transform="translate(59.24 0.646)">
      <rect id="사각형_818" data-name="사각형 818" width="15.402" height="28.115" fill="none"/>
      <path id="패스_435" data-name="패스 435" d="M64.578.69a4.9,4.9,0,0,0,2.37,1.737c1.077,1.042-.215,2.78,1.293,3.648-1.077.261.431,1.3-1.077,1.3a10.064,10.064,0,0,1,2.154,8.947c.646,2.172,1.616,4.777.539,6.6,1.185.869.108,1.129.539,2.345-.539.087-.431.608-1.293.434a5.588,5.588,0,0,1-1.077,2.345c-1.939.174-4.739,1.477-7.432.434.323-1.216-.646-1.477-1.616-1.737.323-1.824,1.939-1.129,2.693-2.519,0-.782-.754-.955-1.077-1.477A5.109,5.109,0,0,0,61.67,19.1a4.2,4.2,0,0,1-1.616-.174c1.185-2.953-2.908-4.864-2.37-7.47,0,0,.539.261.539.174,0,0,.323-2.78,2.154-1.911C60.27,8.16,61.455,7.552,61.67,6.336c-1.077.174-1.185,1.129-2.37,1.3,1.185.521-.539.347-.215,1.3-.862-.261-1.185.174-2.154-.174.323-.261.108-1.042.539-1.3C56.5,6.857,55.423,6.336,55.1,5.12c.969-.782.539-2,1.293-3.214C59.516,1.472,61.347.343,64.578.69Z" transform="translate(-54.992 -0.598)" fill-rule="evenodd"/>
    </g>
    <g id="그룹_534" data-name="그룹 534" transform="translate(60.963 0.598)">
      <rect id="사각형_819" data-name="사각형 819" width="15.402" height="28.115" transform="translate(0 0.048)" fill="none"/>
      <path id="패스_436" data-name="패스 436" d="M66.178.594a4.9,4.9,0,0,0,2.37,1.737c1.077,1.042-.215,2.779,1.293,3.647-1.077.261.431,1.3-1.077,1.3a10.06,10.06,0,0,1,2.154,8.945c.646,2.171,1.616,4.776.539,6.6,1.185.868.108,1.129.539,2.345-.539.087-.431.608-1.293.434a5.586,5.586,0,0,1-1.077,2.345c-1.939.174-4.739,1.476-7.432.434.323-1.216-.646-1.476-1.616-1.737.323-1.824,1.939-1.129,2.693-2.518,0-.782-.754-.955-1.077-1.476A5.107,5.107,0,0,0,63.27,19a4.2,4.2,0,0,1-1.616-.174c1.185-2.953-2.908-4.863-2.37-7.468,0,0,.539.261.539.174,0,0,.323-2.779,2.154-1.911-.108-1.563,1.077-2.171,1.293-3.387-1.077.174-1.185,1.129-2.37,1.3,1.185.521-.539.347-.215,1.3-.862-.261-1.185.174-2.154-.174.323-.261.108-1.042.539-1.3C58.1,6.76,57.023,6.239,56.7,5.023c.969-.782.539-2,1.293-3.213C61.116,1.463,63.055.334,66.178.594Z" transform="translate(-56.592 -0.555)" fill-rule="evenodd"/>
    </g>
    <g id="그룹_535" data-name="그룹 535" transform="translate(62.794 0.539)">
      <rect id="사각형_820" data-name="사각형 820" width="15.402" height="28.115" fill="none"/>
      <path id="패스_437" data-name="패스 437" d="M67.778.594a4.9,4.9,0,0,0,2.37,1.736c1.077,1.041-.215,2.777,1.293,3.645-1.077.26.431,1.3-1.077,1.3a10.048,10.048,0,0,1,2.154,8.938c.646,2.083,1.616,4.686.539,6.508,1.185.868.108,1.128.539,2.343-.539.087-.431.607-1.293.434a5.58,5.58,0,0,1-1.077,2.343c-1.939.174-4.739,1.475-7.432.434.323-1.215-.646-1.475-1.616-1.736.323-1.822,1.939-1.128,2.693-2.517,0-.781-.754-.955-1.077-1.475A5.1,5.1,0,0,0,64.87,18.9a4.208,4.208,0,0,1-1.616-.174c1.185-2.95-2.908-4.86-2.37-7.463,0,0,.539.26.539.174,0,0,.323-2.777,2.154-1.909C63.47,7.97,64.655,7.363,64.87,6.148c-1.077.174-1.185,1.128-2.37,1.3,1.185.521-.539.347-.215,1.3-.862-.26-1.185.174-2.154-.174.323-.26.108-1.041.539-1.3-.969-.607-2.046-1.128-2.37-2.343.969-.781.539-2,1.293-3.211C62.716,1.462,64.655.334,67.778.594Z" transform="translate(-58.3 -0.496)" fill-rule="evenodd"/>
    </g>
    <g id="그룹_536" data-name="그룹 536" transform="translate(64.518 0.539)">
      <rect id="사각형_821" data-name="사각형 821" width="15.402" height="28.115" transform="translate(0)" fill="none"/>
      <path id="패스_438" data-name="패스 438" d="M69.378.59a4.9,4.9,0,0,0,2.37,1.737c1.077,1.042-.215,2.78,1.292,3.648-1.077.261.431,1.3-1.077,1.3a10.064,10.064,0,0,1,2.154,8.947c.646,2.172,1.616,4.777.539,6.6,1.185.869.108,1.129.539,2.345-.539.087-.431.608-1.293.434a5.588,5.588,0,0,1-1.077,2.345c-1.939.174-4.739,1.477-7.432.434.323-1.216-.646-1.477-1.616-1.737.323-1.824,1.939-1.129,2.693-2.519,0-.782-.754-.955-1.077-1.477A5.109,5.109,0,0,0,66.47,19a4.2,4.2,0,0,1-1.616-.174c1.185-2.953-2.908-4.864-2.37-7.47,0,0,.539.261.539.174,0,0,.323-2.78,2.154-1.911C65.07,8.06,66.255,7.452,66.47,6.236c-1.077.174-1.185,1.129-2.37,1.3,1.185.521-.539.347-.215,1.3-.862-.261-1.185.174-2.154-.174.323-.261.108-1.042.539-1.3C61.3,6.757,60.223,6.236,59.9,5.02c.969-.782.539-2,1.293-3.214C64.316,1.372,66.255.243,69.378.59Z" transform="translate(-59.9 -0.498)" fill-rule="evenodd"/>
    </g>
    <g id="그룹_537" data-name="그룹 537" transform="translate(66.241 0.49)">
      <rect id="사각형_822" data-name="사각형 822" width="15.402" height="28.115" transform="translate(0 0.048)" fill="none"/>
      <path id="패스_439" data-name="패스 439" d="M70.978.494a4.9,4.9,0,0,0,2.37,1.737c1.077,1.042-.215,2.779,1.293,3.647-1.077.261.431,1.3-1.077,1.3a10.06,10.06,0,0,1,2.154,8.945c.646,2.171,1.616,4.776.539,6.6,1.185.868.108,1.129.539,2.345-.539.087-.431.608-1.293.434a5.586,5.586,0,0,1-1.077,2.345c-1.939.174-4.739,1.476-7.432.434.323-1.216-.646-1.476-1.616-1.737.323-1.824,1.939-1.129,2.693-2.518,0-.782-.754-.955-1.077-1.476A5.107,5.107,0,0,0,68.07,18.9a4.2,4.2,0,0,1-1.616-.174c1.185-2.953-2.908-4.863-2.37-7.468,0,0,.539.261.539.174,0,0,.323-2.779,2.154-1.911-.108-1.563,1.077-2.171,1.293-3.387-1.077.174-1.185,1.129-2.37,1.3,1.185.434-.431.261-.215,1.216-.862-.261-1.185.174-2.154-.174.323-.261.108-1.042.539-1.3-.969-.608-2.046-1.129-2.37-2.345.969-.782.539-2,1.293-3.213C66.024,1.363,67.855.234,70.978.494Z" transform="translate(-61.5 -0.455)" fill-rule="evenodd"/>
    </g>
    <g id="그룹_538" data-name="그룹 538" transform="translate(67.964 0.431)">
      <rect id="사각형_823" data-name="사각형 823" width="15.402" height="28.115" fill="none"/>
      <path id="패스_440" data-name="패스 440" d="M72.678.494a4.9,4.9,0,0,0,2.37,1.737c1.077,1.042-.215,2.779,1.293,3.647-1.077.261.431,1.3-1.077,1.3a10.06,10.06,0,0,1,2.154,8.945c.646,2.171,1.616,4.776.539,6.6,1.185.868.108,1.129.539,2.345-.539.087-.431.608-1.293.434a5.586,5.586,0,0,1-1.077,2.345c-1.939.174-4.739,1.476-7.432.434.323-1.216-.646-1.476-1.616-1.737.323-1.824,1.939-1.129,2.693-2.518,0-.782-.754-.955-1.077-1.476A5.107,5.107,0,0,0,69.77,18.9a4.2,4.2,0,0,1-1.616-.174c1.185-2.953-2.908-4.863-2.37-7.468,0,0,.539.261.539.174,0,0,.323-2.779,2.154-1.911-.108-1.563,1.077-2.171,1.293-3.387-1.077.174-1.185,1.129-2.37,1.3,1.185.521-.539.347-.215,1.3-.862-.261-1.185.174-2.154-.174.323-.261.108-1.042.539-1.3C64.6,6.66,63.523,6.139,63.2,4.923c.969-.782.539-2,1.293-3.213C67.616,1.363,69.447.234,72.678.494Z" transform="translate(-63.092 -0.396)" fill-rule="evenodd"/>
    </g>
    <g id="그룹_539" data-name="그룹 539" transform="translate(69.688 0.431)">
      <rect id="사각형_824" data-name="사각형 824" width="15.402" height="28.115" fill="none"/>
      <path id="패스_441" data-name="패스 441" d="M74.286.49a4.9,4.9,0,0,0,2.37,1.737c1.077,1.042-.215,2.78,1.293,3.648-1.077.261.431,1.3-1.077,1.3a10.064,10.064,0,0,1,2.154,8.947c.646,2.172,1.616,4.777.539,6.6,1.185.869.108,1.129.539,2.345-.539.087-.431.608-1.293.434a5.588,5.588,0,0,1-1.077,2.345c-1.939.174-4.739,1.477-7.432.434.323-1.216-.646-1.477-1.616-1.737.323-1.824,1.939-1.129,2.693-2.519,0-.782-.754-.955-1.077-1.477A5.109,5.109,0,0,0,71.378,18.9a4.2,4.2,0,0,1-1.616-.174c1.185-2.953-2.908-4.864-2.37-7.47,0,0,.539.261.539.174,0,0,.323-2.78,2.154-1.911-.108-1.564,1.077-2.172,1.293-3.388-1.077.174-1.185,1.129-2.37,1.3,1.185.521-.539.347-.215,1.3-.862-.261-1.185.174-2.154-.174.323-.261.108-1.042.539-1.3C66.1,6.484,65.023,5.875,64.7,4.746c.969-.782.539-2,1.293-3.214C69.224,1.272,71.163.143,74.286.49Z" transform="translate(-64.7 -0.398)" fill-rule="evenodd"/>
    </g>
    <g id="그룹_540" data-name="그룹 540" transform="translate(71.519 0.383)">
      <rect id="사각형_825" data-name="사각형 825" width="15.402" height="28.115" transform="translate(0 0.048)" fill="none"/>
      <path id="패스_442" data-name="패스 442" d="M75.878.394a4.9,4.9,0,0,0,2.37,1.737c1.077,1.042-.215,2.779,1.293,3.647-1.077.261.431,1.3-1.077,1.3a10.06,10.06,0,0,1,2.154,8.945c.646,2.171,1.616,4.776.539,6.6,1.185.868.108,1.129.539,2.345-.539.087-.431.608-1.293.434a5.586,5.586,0,0,1-1.077,2.345c-1.939.174-4.739,1.476-7.432.434.323-1.216-.646-1.476-1.616-1.737.323-1.824,1.939-1.129,2.693-2.518,0-.782-.754-.955-1.077-1.476A5.107,5.107,0,0,0,72.97,18.8a4.2,4.2,0,0,1-1.616-.174c1.185-2.953-2.908-4.863-2.37-7.468,0,0,.539.261.539.174,0,0,.323-2.779,2.154-1.911-.108-1.563,1.077-2.171,1.293-3.387-1.077.174-1.185,1.129-2.37,1.3,1.185.521-.539.347-.215,1.3-.862-.261-1.185.174-2.154-.174.323-.261.108-1.042.539-1.3C67.8,6.56,66.723,6.039,66.4,4.823c.969-.782.539-2,1.293-3.213C70.816,1.263,72.755.134,75.878.394Z" transform="translate(-66.4 -0.355)" fill-rule="evenodd"/>
    </g>
    <g id="그룹_541" data-name="그룹 541" transform="translate(73.242 0.383)">
      <rect id="사각형_826" data-name="사각형 826" width="15.402" height="28.115" transform="translate(0 0.048)" fill="none"/>
      <path id="패스_443" data-name="패스 443" d="M77.478.394a4.9,4.9,0,0,0,2.37,1.737c1.077,1.042-.215,2.779,1.293,3.647-1.077.261.431,1.3-1.077,1.3a10.06,10.06,0,0,1,2.154,8.945c.646,2.171,1.616,4.776.539,6.6,1.185.868.108,1.129.539,2.345-.539.087-.431.608-1.293.434a5.586,5.586,0,0,1-1.077,2.345c-1.939.174-4.739,1.476-7.432.434.323-1.216-.646-1.476-1.616-1.737.323-1.824,1.939-1.129,2.693-2.518,0-.782-.754-.955-1.077-1.476A5.107,5.107,0,0,0,74.57,18.8a4.2,4.2,0,0,1-1.616-.174c1.185-2.953-2.908-4.863-2.37-7.468,0,0,.539.261.539.174,0,0,.323-2.779,2.154-1.911-.108-1.563,1.077-2.171,1.293-3.387-1.077.174-1.185,1.129-2.37,1.3,1.185.521-.539.347-.215,1.3-.862-.261-1.185.174-2.154-.174.323-.434.108-1.216.539-1.476C69.4,6.386,68.323,5.865,68,4.649c.969-.782.539-2,1.293-3.213C72.416,1.263,74.355.134,77.478.394Z" transform="translate(-68 -0.355)" fill-rule="evenodd"/>
    </g>
    <g id="그룹_542" data-name="그룹 542" transform="translate(74.965 0.323)">
      <rect id="사각형_827" data-name="사각형 827" width="15.402" height="28.115" fill="none"/>
      <path id="패스_444" data-name="패스 444" d="M79.078.39a4.9,4.9,0,0,0,2.37,1.737c1.077,1.042-.215,2.78,1.293,3.648-1.077.261.431,1.3-1.077,1.3a10.064,10.064,0,0,1,2.154,8.947c.646,2.172,1.616,4.777.539,6.6,1.185.869.108,1.129.539,2.345-.539.087-.431.608-1.293.434a5.588,5.588,0,0,1-1.077,2.345c-1.939.174-4.739,1.477-7.432.434.323-1.216-.646-1.477-1.616-1.737.323-1.824,1.939-1.129,2.693-2.519,0-.782-.754-.955-1.077-1.477A5.109,5.109,0,0,0,76.17,18.8a4.2,4.2,0,0,1-1.616-.174c1.185-2.953-2.908-4.864-2.37-7.47,0,0,.539.261.539.174,0,0,.323-2.78,2.154-1.911C74.77,7.86,75.955,7.252,76.17,6.036c-1.077.174-1.185,1.129-2.37,1.3,1.185.521-.539.347-.215,1.3-.862-.261-1.185.174-2.154-.174.323-.261.108-1.042.539-1.3C71,6.557,69.923,6.036,69.6,4.82c.969-.782.539-2,1.293-3.214C74.124,1.172,75.955.043,79.078.39Z" transform="translate(-69.6 -0.298)" fill-rule="evenodd"/>
    </g>
    <g id="그룹_543" data-name="그룹 543" transform="translate(76.689 0.275)">
      <rect id="사각형_828" data-name="사각형 828" width="15.402" height="28.115" transform="translate(0 0.048)" fill="none"/>
      <path id="패스_445" data-name="패스 445" d="M80.778.294a4.9,4.9,0,0,0,2.37,1.737c1.077,1.042-.215,2.779,1.293,3.647-1.077.261.431,1.3-1.077,1.3a10.06,10.06,0,0,1,2.154,8.945c.646,2.171,1.616,4.776.539,6.6,1.185.868.108,1.129.539,2.345-.539.087-.431.608-1.293.434a5.586,5.586,0,0,1-1.077,2.345c-1.939.174-4.739,1.476-7.432.434.323-1.216-.646-1.476-1.616-1.737.323-1.824,1.939-1.129,2.693-2.518,0-.782-.754-.955-1.077-1.476A5.107,5.107,0,0,0,77.87,18.7a4.2,4.2,0,0,1-1.616-.174c1.185-2.953-2.908-4.863-2.37-7.468,0,0,.539.261.539.174,0,0,.323-2.779,2.154-1.911-.108-1.563,1.077-2.171,1.293-3.387-1.077.174-1.185,1.129-2.37,1.3,1.185.521-.539.347-.215,1.3-.862-.261-1.185.174-2.154-.174.323-.261.108-1.042.539-1.3C72.7,6.46,71.623,5.939,71.3,4.723c.969-.782.539-2,1.293-3.213C75.716,1.163,77.547.034,80.778.294Z" transform="translate(-71.192 -0.255)" fill-rule="evenodd"/>
    </g>
    <g id="그룹_544" data-name="그룹 544" transform="translate(78.412 0.275)">
      <rect id="사각형_829" data-name="사각형 829" width="15.402" height="28.115" transform="translate(0 0.048)" fill="none"/>
      <path id="패스_446" data-name="패스 446" d="M82.378.294a4.9,4.9,0,0,0,2.37,1.737c1.077,1.042-.215,2.779,1.293,3.647-1.077.261.431,1.3-1.077,1.3a10.06,10.06,0,0,1,2.154,8.945c.646,2.171,1.616,4.776.539,6.6,1.185.868.108,1.129.539,2.345-.539.087-.431.608-1.293.434a5.586,5.586,0,0,1-1.077,2.345c-1.939.174-4.739,1.476-7.432.434.323-1.216-.646-1.476-1.616-1.737.323-1.824,1.939-1.129,2.693-2.518,0-.782-.754-.955-1.077-1.476A5.107,5.107,0,0,0,79.47,18.7a4.2,4.2,0,0,1-1.616-.174c1.185-2.953-2.908-4.863-2.37-7.468,0,0,.539.261.539.174,0,0,.323-2.779,2.154-1.911-.108-1.563,1.077-2.171,1.293-3.387-1.077.174-1.185,1.129-2.37,1.3,1.185.521-.539.347-.215,1.3-.862-.261-1.185.174-2.154-.174.323-.261.108-1.042.539-1.3C74.3,6.46,73.223,5.939,72.9,4.723c.969-.782.539-2,1.293-3.213C77.316,1.163,79.255.034,82.378.294Z" transform="translate(-72.792 -0.255)" fill-rule="evenodd"/>
    </g>
    <g id="그룹_545" data-name="그룹 545" transform="translate(80.243 0.215)">
      <rect id="사각형_830" data-name="사각형 830" width="15.402" height="28.115" fill="none"/>
      <path id="패스_447" data-name="패스 447" d="M83.978.294a4.9,4.9,0,0,0,2.37,1.737c1.077,1.042-.215,2.779,1.293,3.647-1.077.261.431,1.3-1.077,1.3a10.06,10.06,0,0,1,2.154,8.945c.646,2.171,1.616,4.776.539,6.6,1.185.868.108,1.129.539,2.345-.539.087-.431.608-1.293.434a5.586,5.586,0,0,1-1.077,2.345c-1.939.174-4.739,1.476-7.432.434.323-1.216-.646-1.476-1.616-1.737.323-1.824,1.939-1.129,2.693-2.518,0-.782-.754-.955-1.077-1.476A5.107,5.107,0,0,0,81.07,18.7a4.2,4.2,0,0,1-1.616-.174c1.185-2.953-2.908-4.863-2.37-7.468,0,0,.539.261.539.174,0,0,.323-2.779,2.154-1.911-.108-1.563,1.077-2.171,1.293-3.387-1.077.174-1.185,1.129-2.37,1.3,1.185.521-.539.347-.215,1.3-.862-.261-1.185.174-2.154-.174.323-.261.108-1.042.539-1.3C75.9,6.46,74.823,5.939,74.5,4.723c.969-.782.539-2,1.292-3.213C78.916,1.163,80.855.034,83.978.294Z" transform="translate(-74.5 -0.196)" fill-rule="evenodd"/>
    </g>
    <g id="그룹_546" data-name="그룹 546" transform="translate(81.966 0.215)">
      <rect id="사각형_831" data-name="사각형 831" width="15.402" height="28.115" fill="none"/>
      <path id="패스_448" data-name="패스 448" d="M85.578.29c.754.608,1.185,1.476,2.37,1.649,1.077,1.042-.215,2.778,1.293,3.646-1.077.26.431,1.3-1.077,1.3a10.052,10.052,0,0,1,2.154,8.94c.646,2.17,1.616,4.774.539,6.6,1.185.868.108,1.128.539,2.344-.539.087-.431.608-1.293.434a5.582,5.582,0,0,1-1.077,2.344c-1.939.174-4.739,1.476-7.432.434.323-1.215-.646-1.476-1.616-1.736.323-1.823,1.939-1.128,2.693-2.517,0-.781-.754-.955-1.077-1.476A5.1,5.1,0,0,0,82.67,18.6a4.207,4.207,0,0,1-1.616-.174c1.185-2.951-2.908-4.861-2.37-7.465,0,0,.539.26.539.174,0,0,.323-2.778,2.154-1.91-.108-1.562,1.077-2.17,1.293-3.385-1.077.174-1.185,1.128-2.37,1.3,1.185.521-.539.347-.215,1.3-.862-.26-1.185.174-2.154-.174.323-.26.108-1.042.539-1.3C77.5,6.366,76.423,5.845,76.1,4.63c.969-.781.539-2,1.293-3.212C80.516,1.071,82.455-.057,85.578.29Z" transform="translate(-76.1 -0.198)" fill-rule="evenodd"/>
    </g>
    <g id="그룹_547" data-name="그룹 547" transform="translate(83.69 0.167)">
      <rect id="사각형_832" data-name="사각형 832" width="15.402" height="28.115" transform="translate(0 0.048)" fill="none"/>
      <path id="패스_449" data-name="패스 449" d="M87.178.194a4.9,4.9,0,0,0,2.37,1.737c1.077,1.042-.215,2.779,1.293,3.647-1.077.261.431,1.3-1.077,1.3a10.06,10.06,0,0,1,2.154,8.945c.646,2.171,1.616,4.776.539,6.6,1.185.868.108,1.129.539,2.345-.539.087-.431.608-1.292.434a5.586,5.586,0,0,1-1.077,2.345c-1.939.174-4.739,1.476-7.432.434.323-1.216-.646-1.476-1.616-1.737.323-1.824,1.939-1.129,2.693-2.518,0-.782-.754-.955-1.077-1.476A5.107,5.107,0,0,0,84.27,18.6a4.2,4.2,0,0,1-1.616-.174c1.185-2.953-2.908-4.863-2.37-7.468,0,0,.539.261.539.174,0,0,.323-2.779,2.154-1.911-.108-1.563,1.077-2.171,1.293-3.387-1.077.174-1.185,1.129-2.37,1.3,1.185.521-.539.347-.215,1.3-.862-.261-1.185.174-2.154-.174.323-.261.108-1.042.539-1.3-.969-.782-2.046-1.3-2.37-2.518.969-.782.539-2,1.293-3.213C82.224,1.063,84.055-.066,87.178.194Z" transform="translate(-77.7 -0.155)" fill-rule="evenodd"/>
    </g>
    <g id="그룹_548" data-name="그룹 548" transform="translate(85.413 0.108)">
      <rect id="사각형_833" data-name="사각형 833" width="15.402" height="28.115" fill="none"/>
      <path id="패스_450" data-name="패스 450" d="M88.878.194a4.9,4.9,0,0,0,2.37,1.737c1.077,1.042-.215,2.779,1.293,3.647-1.077.261.431,1.3-1.077,1.3a10.06,10.06,0,0,1,2.154,8.945c.646,2.171,1.616,4.776.539,6.6,1.185.868.108,1.129.539,2.345-.539.087-.431.608-1.292.434a5.586,5.586,0,0,1-1.077,2.345c-1.939.174-4.739,1.476-7.432.434.323-1.216-.646-1.476-1.616-1.737.323-1.824,1.939-1.129,2.693-2.518,0-.782-.754-.955-1.077-1.476A5.107,5.107,0,0,0,85.97,18.6a4.2,4.2,0,0,1-1.616-.174c1.185-2.953-2.908-4.863-2.37-7.468,0,0,.539.261.539.174,0,0,.323-2.779,2.154-1.911-.108-1.563,1.077-2.171,1.293-3.387-1.077.174-1.185,1.129-2.37,1.3,1.185.521-.539.347-.215,1.3-.862-.261-1.185.174-2.154-.174.323-.261.108-1.042.539-1.3C80.8,6.36,79.723,5.839,79.4,4.623c.969-.782.539-2,1.293-3.213C83.816,1.063,85.647-.066,88.878.194Z" transform="translate(-79.292 -0.096)" fill-rule="evenodd"/>
    </g>
    <g id="그룹_549" data-name="그룹 549" transform="translate(87.136 0.108)">
      <rect id="사각형_834" data-name="사각형 834" width="15.402" height="28.115" fill="none"/>
      <path id="패스_451" data-name="패스 451" d="M90.478.19a4.9,4.9,0,0,0,2.37,1.737c1.077,1.042-.215,2.78,1.293,3.648-1.077.261.431,1.3-1.077,1.3a10.064,10.064,0,0,1,2.154,8.947c.646,2.172,1.616,4.777.539,6.6,1.185.869.108,1.129.539,2.345-.539.087-.431.608-1.293.434a5.588,5.588,0,0,1-1.077,2.345c-1.939.174-4.739,1.477-7.432.434.323-1.216-.646-1.477-1.616-1.737.323-1.824,1.939-1.129,2.693-2.519,0-.782-.754-.955-1.077-1.477A5.109,5.109,0,0,0,87.57,18.6a4.2,4.2,0,0,1-1.616-.174c1.185-2.953-2.908-4.864-2.37-7.47,0,0,.539.261.539.174,0,0,.323-2.78,2.154-1.911C86.17,7.66,87.355,7.052,87.57,5.836c-1.077.174-1.185,1.129-2.37,1.3,1.185.521-.539.347-.215,1.3-.862-.261-1.185.174-2.154-.174.323-.261.108-1.042.539-1.3C82.4,6.357,81.323,5.836,81,4.62c.969-.782.539-2,1.293-3.214C85.416.972,87.355-.157,90.478.19Z" transform="translate(-80.892 -0.098)" fill-rule="evenodd"/>
    </g>
    <g id="그룹_550" data-name="그룹 550" transform="translate(88.967 0.108)">
      <rect id="사각형_835" data-name="사각형 835" width="15.402" height="28.115" fill="none"/>
      <path id="패스_452" data-name="패스 452" d="M92.078.19a4.9,4.9,0,0,0,2.37,1.737c1.077,1.042-.215,2.78,1.292,3.648-1.077.261.431,1.3-1.077,1.3a10.064,10.064,0,0,1,2.154,8.947c.646,2.172,1.616,4.777.539,6.6,1.185.869.108,1.129.539,2.345-.539.087-.431.608-1.293.434a5.588,5.588,0,0,1-1.077,2.345c-1.939.174-4.739,1.477-7.432.434.323-1.216-.646-1.477-1.616-1.737.323-1.824,1.939-1.129,2.693-2.519,0-.782-.754-.955-1.077-1.477A5.109,5.109,0,0,0,89.17,18.6a4.2,4.2,0,0,1-1.616-.174c1.185-2.953-2.908-4.864-2.37-7.47,0,0,.539.261.539.174,0,0,.323-2.78,2.154-1.911C87.77,7.66,88.955,7.052,89.17,5.836c-1.077.174-1.185,1.129-2.37,1.3,1.185.521-.539.347-.215,1.3-.862-.261-1.185.174-2.154-.174.323-.261.108-1.042.539-1.3C84,6.357,82.923,5.836,82.6,4.62c.969-.782.539-2,1.293-3.214C87.016.972,88.955-.157,92.078.19Z" transform="translate(-82.6 -0.098)" fill-rule="evenodd"/>
    </g>
    <g id="그룹_551" data-name="그룹 551" transform="translate(90.691 0.06)">
      <rect id="사각형_836" data-name="사각형 836" width="15.402" height="28.115" transform="translate(0 0.048)" fill="none"/>
      <path id="패스_453" data-name="패스 453" d="M93.678.094a4.9,4.9,0,0,0,2.37,1.737c1.077,1.042-.215,2.779,1.293,3.647-1.077.261.431,1.3-1.077,1.3a10.06,10.06,0,0,1,2.154,8.945c.646,2.171,1.616,4.776.539,6.6,1.185.868.108,1.129.539,2.345-.539.087-.431.608-1.293.434a5.586,5.586,0,0,1-1.077,2.345c-1.939.174-4.739,1.476-7.432.434.323-1.216-.646-1.476-1.616-1.737.323-1.824,1.939-1.129,2.693-2.518,0-.782-.754-.955-1.077-1.476A5.107,5.107,0,0,0,90.77,18.5a4.2,4.2,0,0,1-1.616-.174c1.185-2.953-2.908-4.863-2.37-7.468,0,0,.539.261.539.174,0,0,.323-2.779,2.154-1.911-.108-1.563,1.077-2.171,1.293-3.387-1.077.174-1.185,1.129-2.37,1.3,1.185.521-.539.347-.215,1.3-.862-.261-1.185.174-2.154-.174.323-.261.108-1.042.539-1.3C85.6,6.26,84.523,5.739,84.2,4.523c.969-.782.539-2,1.293-3.213C88.616.963,90.555-.166,93.678.094Z" transform="translate(-84.2 -0.055)" fill-rule="evenodd"/>
    </g>
    <g id="그룹_552" data-name="그룹 552" transform="translate(92.414 0.06)">
      <rect id="사각형_837" data-name="사각형 837" width="15.402" height="28.115" transform="translate(0 0.048)" fill="none"/>
      <path id="패스_454" data-name="패스 454" d="M95.278.094a4.9,4.9,0,0,0,2.37,1.736c1.077,1.041-.215,2.777,1.293,3.645-1.077.26.431,1.3-1.077,1.3a10.048,10.048,0,0,1,2.154,8.938c.646,2.169,1.616,4.773.539,6.6,1.185.868.108,1.128.539,2.343-.539.087-.431.607-1.293.434a5.58,5.58,0,0,1-1.077,2.343c-1.939.087-4.739,1.388-7.324.347.323-1.215-.646-1.475-1.616-1.736.323-1.822,1.939-1.128,2.693-2.517,0-.781-.754-.955-1.077-1.475A5.1,5.1,0,0,0,92.478,18.4a4.208,4.208,0,0,1-1.616-.174c1.185-2.95-2.908-4.86-2.37-7.463,0,0,.539.26.539.174,0,0,.323-2.777,2.154-1.909-.108-1.562,1.077-2.169,1.293-3.384-1.077.174-1.185,1.128-2.37,1.3,1.185.521-.539.347-.215,1.3-.862-.26-1.185.174-2.154-.174.323-.26.108-1.041.539-1.3C87.2,6.082,86.123,5.561,85.8,4.346c.969-.781.539-2,1.293-3.211C90.324.962,92.155-.166,95.278.094Z" transform="translate(-85.8 -0.055)" fill-rule="evenodd"/>
    </g>
    <g id="그룹_553" data-name="그룹 553" transform="translate(94.138 0.06)">
      <rect id="사각형_838" data-name="사각형 838" width="15.402" height="28.115" transform="translate(0 0.048)" fill="none"/>
      <path id="패스_455" data-name="패스 455" d="M96.986.094a4.9,4.9,0,0,0,2.37,1.737c1.077,1.042-.215,2.779,1.293,3.647-1.077.261.431,1.3-1.077,1.3a10.06,10.06,0,0,1,2.154,8.945c.646,2.171,1.616,4.776.539,6.6,1.185.868.108,1.129.539,2.345-.539.087-.431.608-1.293.434a5.586,5.586,0,0,1-1.077,2.345c-1.939.174-4.739,1.476-7.432.434.323-1.216-.646-1.476-1.616-1.737.323-1.824,1.939-1.129,2.693-2.518,0-.782-.754-.955-1.077-1.476A5.107,5.107,0,0,0,94.078,18.5a4.2,4.2,0,0,1-1.616-.174c1.185-2.953-2.908-4.863-2.37-7.468,0,0,.539.261.539.174,0,0,.323-2.779,2.154-1.911-.108-1.563,1.077-2.171,1.293-3.387-1.077.174-1.185,1.129-2.37,1.3,1.185.521-.539.347-.215,1.3-.862-.261-1.185.174-2.154-.174.323-.261.108-1.042.539-1.3-1.077-.782-2.154-1.3-2.477-2.518.969-.782.539-2,1.293-3.213C91.924.963,93.755-.166,96.986.094Z" transform="translate(-87.4 -0.055)" fill-rule="evenodd"/>
    </g>
    <g id="그룹_554" data-name="그룹 554" transform="translate(95.861 0.06)">
      <rect id="사각형_839" data-name="사각형 839" width="15.402" height="28.115" transform="translate(0 0.048)" fill="none"/>
      <path id="패스_456" data-name="패스 456" d="M98.586.094a4.9,4.9,0,0,0,2.37,1.737c1.077,1.042-.215,2.779,1.293,3.647-1.077.261.431,1.3-1.077,1.3a10.06,10.06,0,0,1,2.154,8.945c.646,2.171,1.616,4.776.539,6.6,1.185.868.108,1.129.539,2.345-.539.087-.431.608-1.293.434a5.586,5.586,0,0,1-1.077,2.345c-1.939.174-4.739,1.476-7.432.434.323-1.216-.646-1.476-1.616-1.737.323-1.824,1.939-1.129,2.693-2.518,0-.782-.754-.955-1.077-1.476A5.107,5.107,0,0,0,95.678,18.5a4.2,4.2,0,0,1-1.616-.174c1.185-2.953-2.908-4.863-2.37-7.468,0,0,.539.261.539.174,0,0,.323-2.779,2.154-1.911-.108-1.563,1.077-2.171,1.293-3.387-1.077.174-1.185,1.129-2.37,1.3,1.185.521-.539.347-.215,1.3-.862-.261-1.185.174-2.154-.174.323-.261.108-1.042.539-1.3C90.4,6.086,89.323,5.565,89,4.349c.969-.782.539-2,1.292-3.213C93.524.963,95.463-.166,98.586.094Z" transform="translate(-89 -0.055)" fill-rule="evenodd"/>
    </g>
    <g id="그룹_555" data-name="그룹 555" transform="translate(97.692 0.06)">
      <rect id="사각형_840" data-name="사각형 840" width="15.402" height="28.115" transform="translate(0 0.048)" fill="none"/>
      <path id="패스_457" data-name="패스 457" d="M100.178.094a4.9,4.9,0,0,0,2.37,1.737c1.077,1.042-.215,2.779,1.293,3.647-1.077.261.431,1.3-1.077,1.3a10.06,10.06,0,0,1,2.154,8.945c.646,2.171,1.616,4.776.539,6.6,1.185.868.108,1.129.539,2.345-.539.087-.431.608-1.293.434a5.586,5.586,0,0,1-1.077,2.345c-1.939.174-4.739,1.476-7.432.434.323-1.216-.646-1.476-1.616-1.737.323-1.824,1.939-1.129,2.693-2.518,0-.782-.754-.955-1.077-1.476A5.107,5.107,0,0,0,97.27,18.5a4.2,4.2,0,0,1-1.616-.174c1.185-2.953-2.908-4.863-2.37-7.468,0,0,.539.261.539.174,0,0,.323-2.779,2.154-1.911-.108-1.563,1.077-2.171,1.293-3.387-1.077.174-1.185,1.129-2.37,1.3,1.185.521-.539.347-.215,1.3-.862-.261-1.185.174-2.154-.174.323-.261.108-1.042.539-1.3-.969-.782-2.154-1.3-2.37-2.518.969-.782.539-2,1.292-3.213C95.116.963,97.055-.166,100.178.094Z" transform="translate(-90.7 -0.055)" fill-rule="evenodd"/>
    </g>
    <g id="그룹_556" data-name="그룹 556" transform="translate(99.415 0.06)">
      <rect id="사각형_841" data-name="사각형 841" width="15.402" height="28.115" transform="translate(0 0.048)" fill="none"/>
      <path id="패스_458" data-name="패스 458" d="M101.778.094a4.9,4.9,0,0,0,2.37,1.737c1.077,1.042-.215,2.779,1.293,3.647-1.077.261.431,1.3-1.077,1.3a10.06,10.06,0,0,1,2.154,8.945c.646,2.171,1.616,4.776.539,6.6,1.185.868.108,1.129.539,2.345-.539.087-.431.608-1.293.434a5.586,5.586,0,0,1-1.077,2.345c-1.939.174-4.739,1.476-7.432.434.323-1.216-.646-1.476-1.616-1.737.323-1.824,1.939-1.129,2.693-2.518,0-.782-.754-.955-1.077-1.476A5.107,5.107,0,0,0,98.87,18.5a4.2,4.2,0,0,1-1.616-.174c1.185-2.953-2.908-4.863-2.37-7.468,0,0,.539.261.539.174,0,0,.323-2.779,2.154-1.911-.108-1.563,1.077-2.171,1.293-3.387-1.077.174-1.185,1.129-2.37,1.3,1.185.521-.539.347-.215,1.3-.862-.261-1.185.174-2.154-.174.323-.261.108-1.042.539-1.3-.969-.782-2.046-1.3-2.37-2.518.969-.782.539-2,1.293-3.213C96.824.963,98.655-.166,101.778.094Z" transform="translate(-92.3 -0.055)" fill-rule="evenodd"/>
    </g>
    <g id="그룹_557" data-name="그룹 557" transform="translate(101.139)">
      <rect id="사각형_842" data-name="사각형 842" width="15.402" height="28.115" fill="none"/>
      <path id="패스_459" data-name="패스 459" d="M103.378.094a4.9,4.9,0,0,0,2.37,1.737c1.077,1.042-.215,2.779,1.293,3.647-1.077.261.431,1.3-1.077,1.3a10.06,10.06,0,0,1,2.154,8.945c.646,2.171,1.616,4.776.539,6.6,1.185.868.108,1.129.539,2.345-.539.087-.431.608-1.293.434a5.586,5.586,0,0,1-1.077,2.345c-1.939.174-4.739,1.476-7.432.434.323-1.216-.646-1.476-1.616-1.737.323-1.824,1.939-1.129,2.693-2.518,0-.782-.754-.955-1.077-1.476A5.107,5.107,0,0,0,100.47,18.5a4.2,4.2,0,0,1-1.616-.174c1.185-2.953-2.908-4.863-2.37-7.468,0,0,.539.261.539.174,0,0,.323-2.779,2.154-1.911-.108-1.563,1.077-2.171,1.293-3.387-1.077.174-1.185,1.129-2.37,1.3,1.185.521-.539.347-.215,1.3-.862-.261-1.185.174-2.154-.174.431-.434.215-1.216.539-1.476-.969-.608-2.046-1.129-2.37-2.345.969-.782.539-2,1.293-3.213C98.424.963,100.255-.166,103.378.094Z" transform="translate(-93.9 0.004)" fill-rule="evenodd"/>
    </g>
    <g id="그룹_558" data-name="그룹 558" transform="translate(102.862)">
      <rect id="사각형_843" data-name="사각형 843" width="15.402" height="28.115" fill="none"/>
      <path id="패스_460" data-name="패스 460" d="M105.086.094a4.9,4.9,0,0,0,2.37,1.737c1.077,1.042-.215,2.779,1.293,3.647-1.077.261.431,1.3-1.077,1.3a10.06,10.06,0,0,1,2.154,8.945c.646,2.171,1.616,4.776.539,6.6,1.185.868.108,1.129.539,2.345-.539.087-.431.608-1.293.434a5.586,5.586,0,0,1-1.077,2.345c-1.939.174-4.739,1.476-7.432.434.323-1.216-.646-1.476-1.616-1.737.323-1.824,1.939-1.129,2.693-2.518,0-.782-.754-.955-1.077-1.476a5.107,5.107,0,0,0,1.077-3.647,4.2,4.2,0,0,1-1.616-.174c1.185-2.953-2.908-4.863-2.37-7.468,0,0,.539.261.539.174,0,0,.323-2.779,2.154-1.911-.108-1.563,1.077-2.171,1.293-3.387-1.077.174-1.185,1.129-2.37,1.3,1.185.521-.539.347-.215,1.3-.862-.261-1.185.174-2.154-.174.323-.261.108-1.042.539-1.3-1.077-.782-2.154-1.3-2.477-2.518.969-.782.539-2,1.293-3.213C100.024.963,101.855-.166,105.086.094Z" transform="translate(-95.5 0.004)" fill-rule="evenodd"/>
    </g>
    <g id="그룹_559" data-name="그룹 559" transform="translate(104.585)">
      <rect id="사각형_844" data-name="사각형 844" width="15.402" height="28.115" fill="none"/>
      <path id="패스_461" data-name="패스 461" d="M106.686.091a4.9,4.9,0,0,0,2.37,1.737c1.077,1.042-.215,2.779,1.293,3.648-1.077.261.431,1.3-1.077,1.3a10.064,10.064,0,0,1,2.154,8.947c.646,2.171,1.616,4.777.539,6.6,1.185.869.108,1.129.539,2.345-.539.087-.431.608-1.293.434a5.588,5.588,0,0,1-1.077,2.345c-1.939.174-4.739,1.477-7.432.434.323-1.216-.646-1.477-1.616-1.737.323-1.824,1.939-1.129,2.693-2.519,0-.782-.754-.955-1.077-1.477a5.108,5.108,0,0,0,1.077-3.648,4.2,4.2,0,0,1-1.616-.174c1.185-2.953-2.908-4.864-2.37-7.47,0,0,.539.261.539.174,0,0,.323-2.779,2.154-1.911-.108-1.563,1.077-2.171,1.293-3.388-1.077.174-1.185,1.129-2.37,1.3,1.185.521-.539.347-.215,1.3-.862-.261-1.185.174-2.154-.174.323-.521.108-1.216.539-1.477C98.5,6.084,97.423,5.476,97.1,4.347c.969-.782.539-2,1.293-3.214C101.624.959,103.563-.257,106.686.091Z" transform="translate(-97.1 0.002)" fill-rule="evenodd"/>
    </g>
    <g id="그룹_560" data-name="그룹 560" transform="translate(106.416)">
      <rect id="사각형_845" data-name="사각형 845" width="15.402" height="28.115" fill="none"/>
      <path id="패스_462" data-name="패스 462" d="M108.278.09a4.9,4.9,0,0,0,2.37,1.737c1.077,1.042-.215,2.78,1.292,3.648-1.077.261.431,1.3-1.077,1.3a10.064,10.064,0,0,1,2.154,8.947c.646,2.172,1.616,4.777.539,6.6,1.185.869.108,1.129.539,2.345-.539.087-.431.608-1.292.434a5.588,5.588,0,0,1-1.077,2.345c-1.939.174-4.739,1.477-7.432.434.323-1.216-.646-1.477-1.616-1.737.323-1.824,1.939-1.129,2.693-2.519,0-.782-.754-.955-1.077-1.477A5.109,5.109,0,0,0,105.37,18.5a4.2,4.2,0,0,1-1.616-.174c1.185-2.953-2.908-4.864-2.37-7.47,0,0,.539.261.539.174,0,0,.323-2.78,2.154-1.911-.108-1.564,1.077-2.172,1.293-3.388-1.077.174-1.185,1.129-2.37,1.3,1.185.521-.539.347-.215,1.3-.862-.261-1.185.174-2.154-.174.323-.261.108-1.042.539-1.3-.969-.782-2.154-1.39-2.37-2.519.969-.782.539-2,1.293-3.214C103.216.872,105.155-.257,108.278.09Z" transform="translate(-98.8 0.002)" fill-rule="evenodd"/>
    </g>
    <g id="그룹_561" data-name="그룹 561" transform="translate(108.14)">
      <rect id="사각형_846" data-name="사각형 846" width="15.402" height="28.115" fill="none"/>
      <path id="패스_463" data-name="패스 463" d="M109.878.09a4.9,4.9,0,0,0,2.37,1.737c1.077,1.042-.215,2.78,1.293,3.648-1.077.261.431,1.3-1.077,1.3a10.064,10.064,0,0,1,2.154,8.947c.646,2.172,1.616,4.777.539,6.6,1.185.869.108,1.129.539,2.345-.539.087-.431.608-1.293.434a5.588,5.588,0,0,1-1.077,2.345c-1.939.174-4.739,1.477-7.432.434.323-1.216-.646-1.477-1.616-1.737.323-1.824,1.939-1.129,2.693-2.519,0-.782-.754-.955-1.077-1.477A5.109,5.109,0,0,0,106.97,18.5a4.2,4.2,0,0,1-1.616-.174c1.185-2.953-2.908-4.864-2.37-7.47,0,0,.539.261.539.174,0,0,.323-2.78,2.154-1.911-.108-1.564,1.077-2.172,1.293-3.388-1.077.174-1.185,1.129-2.37,1.3,1.185.521-.539.347-.215,1.3-.862-.261-1.185.174-2.154-.174.323-.261.108-1.042.539-1.3-.969-.608-2.046-1.129-2.37-2.345.969-.782.539-2,1.293-3.214C104.924.872,106.755-.257,109.878.09Z" transform="translate(-100.4 0.002)" fill-rule="evenodd"/>
    </g>
    <g id="그룹_562" data-name="그룹 562" transform="translate(109.863)">
      <rect id="사각형_847" data-name="사각형 847" width="15.402" height="28.115" fill="none"/>
      <path id="패스_464" data-name="패스 464" d="M111.478.09a4.9,4.9,0,0,0,2.37,1.737c1.077,1.042-.215,2.78,1.293,3.648-1.077.261.431,1.3-1.077,1.3a10.064,10.064,0,0,1,2.154,8.947c.646,2.172,1.616,4.777.539,6.6,1.185.869.108,1.129.539,2.345-.539.087-.431.608-1.293.434a5.588,5.588,0,0,1-1.077,2.345c-1.939.174-4.739,1.477-7.432.434.323-1.216-.646-1.477-1.616-1.737.323-1.824,1.939-1.129,2.693-2.519,0-.782-.754-.955-1.077-1.477A5.109,5.109,0,0,0,108.57,18.5a4.2,4.2,0,0,1-1.616-.174c1.185-2.953-2.908-4.864-2.37-7.47,0,0,.539.261.539.174,0,0,.323-2.78,2.154-1.911-.108-1.564,1.077-2.172,1.293-3.388-1.077.174-1.185,1.129-2.37,1.3,1.185.521-.539.347-.215,1.3-.862-.261-1.185.174-2.154-.174.323-.261.108-1.042.539-1.3-.969-.608-2.046-1.129-2.37-2.345.969-.782.539-2,1.293-3.214C106.524.872,108.355-.257,111.478.09Z" transform="translate(-102 0.002)" fill-rule="evenodd"/>
    </g>
    <g id="그룹_563" data-name="그룹 563" transform="translate(111.586)">
      <rect id="사각형_848" data-name="사각형 848" width="15.402" height="28.115" fill="none"/>
      <path id="패스_465" data-name="패스 465" d="M113.178.09a4.9,4.9,0,0,0,2.37,1.737c1.077,1.042-.215,2.78,1.293,3.648-1.077.261.431,1.3-1.077,1.3a10.064,10.064,0,0,1,2.154,8.947c.646,2.172,1.616,4.777.539,6.6,1.185.869.108,1.129.539,2.345-.539.087-.431.608-1.293.434a5.588,5.588,0,0,1-1.077,2.345c-1.939.174-4.739,1.477-7.432.434.323-1.216-.646-1.477-1.616-1.737.323-1.824,1.939-1.129,2.693-2.519,0-.782-.754-.955-1.077-1.477A5.109,5.109,0,0,0,110.27,18.5a4.2,4.2,0,0,1-1.616-.174c1.185-2.953-2.908-4.864-2.37-7.47,0,0,.539.261.539.174,0,0,.323-2.78,2.154-1.911-.108-1.564,1.077-2.172,1.293-3.388-1.077.174-1.185,1.129-2.37,1.3,1.185.521-.539.347-.215,1.3-.862-.261-1.185.174-2.154-.174.323-.261.108-1.042.539-1.3-.969-.608-2.046-1.129-2.37-2.345.969-.782.539-2,1.293-3.214C108.116.872,109.947-.257,113.178.09Z" transform="translate(-103.592 0.002)" fill-rule="evenodd"/>
    </g>
    <g id="그룹_564" data-name="그룹 564" transform="translate(113.31)">
      <rect id="사각형_849" data-name="사각형 849" width="15.402" height="28.115" fill="none"/>
      <path id="패스_466" data-name="패스 466" d="M114.778.09a4.9,4.9,0,0,0,2.37,1.737c1.077,1.042-.215,2.78,1.292,3.648-1.077.261.431,1.3-1.077,1.3a10.064,10.064,0,0,1,2.154,8.947c.646,2.172,1.616,4.777.539,6.6,1.185.869.108,1.129.539,2.345-.539.087-.431.608-1.293.434a5.588,5.588,0,0,1-1.077,2.345c-1.939.174-4.739,1.477-7.432.434.323-1.216-.646-1.477-1.616-1.737.323-1.824,1.939-1.129,2.693-2.519,0-.782-.754-.955-1.077-1.477A5.109,5.109,0,0,0,111.87,18.5a4.2,4.2,0,0,1-1.616-.174c1.185-2.953-2.908-4.864-2.37-7.47,0,0,.539.261.539.174,0,0,.323-2.78,2.154-1.911-.108-1.564,1.077-2.172,1.293-3.388-1.077.174-1.185,1.129-2.37,1.3,1.185.521-.539.347-.215,1.3-.862-.261-1.185.174-2.154-.174.323-.261.108-1.042.539-1.3-.969-.608-2.046-1.129-2.37-2.345.969-.782.539-2,1.293-3.214C109.716.872,111.655-.257,114.778.09Z" transform="translate(-105.192 0.002)" fill-rule="evenodd"/>
    </g>
    <g id="그룹_565" data-name="그룹 565" transform="translate(115.141)">
      <rect id="사각형_850" data-name="사각형 850" width="15.402" height="28.115" fill="none"/>
      <path id="패스_467" data-name="패스 467" d="M116.378.09a4.9,4.9,0,0,0,2.37,1.737c1.077,1.042-.215,2.78,1.293,3.648-1.077.261.431,1.3-1.077,1.3a10.064,10.064,0,0,1,2.154,8.947c.646,2.172,1.616,4.777.539,6.6,1.185.869.108,1.129.539,2.345-.539.087-.431.608-1.293.434a5.588,5.588,0,0,1-1.077,2.345c-1.939.174-4.739,1.477-7.432.434.323-1.216-.646-1.477-1.616-1.737.323-1.824,1.939-1.129,2.693-2.519,0-.782-.754-.955-1.077-1.477A5.109,5.109,0,0,0,113.47,18.5a4.2,4.2,0,0,1-1.616-.174c1.185-2.953-2.908-4.864-2.37-7.47,0,0,.539.261.539.174,0,0,.323-2.78,2.154-1.911-.108-1.564,1.077-2.172,1.293-3.388-1.077.174-1.185,1.129-2.37,1.3,1.185.521-.539.347-.215,1.3-.862-.261-1.185.174-2.154-.174.323-.261.108-1.042.539-1.3-.969-.608-2.046-1.129-2.37-2.345.969-.782.539-2,1.293-3.214C111.316.872,113.255-.257,116.378.09Z" transform="translate(-106.9 0.002)" fill-rule="evenodd"/>
    </g>
    <g id="그룹_566" data-name="그룹 566" transform="translate(116.864)">
      <rect id="사각형_851" data-name="사각형 851" width="15.402" height="28.115" fill="none"/>
      <path id="패스_468" data-name="패스 468" d="M117.978.09a4.9,4.9,0,0,0,2.37,1.737c1.077,1.042-.215,2.78,1.293,3.648-1.077.261.431,1.3-1.077,1.3a10.064,10.064,0,0,1,2.154,8.947c.646,2.172,1.616,4.777.539,6.6,1.185.869.108,1.129.539,2.345-.539.087-.431.608-1.292.434a5.588,5.588,0,0,1-1.077,2.345c-1.939.174-4.739,1.477-7.432.434.323-1.216-.646-1.477-1.616-1.737.323-1.824,1.939-1.129,2.693-2.519,0-.782-.754-.955-1.077-1.477A5.109,5.109,0,0,0,115.07,18.5a4.2,4.2,0,0,1-1.616-.174c1.185-2.953-2.908-4.864-2.37-7.47,0,0,.539.261.539.174,0,0,.323-2.78,2.154-1.911-.108-1.564,1.077-2.172,1.293-3.388-1.077.174-1.185,1.129-2.37,1.3,1.185.521-.539.347-.215,1.3-.862-.261-1.185.174-2.154-.174.323-.261.108-1.042.539-1.3-.969-.608-2.046-1.129-2.37-2.345.969-.782.539-2,1.293-3.214C113.024.872,114.855-.257,117.978.09Z" transform="translate(-108.5 0.002)" fill-rule="evenodd"/>
    </g>
    <g id="그룹_567" data-name="그룹 567" transform="translate(118.587)">
      <rect id="사각형_852" data-name="사각형 852" width="15.402" height="28.115" fill="none"/>
      <path id="패스_469" data-name="패스 469" d="M119.578.094a4.9,4.9,0,0,0,2.37,1.737c1.077,1.042-.215,2.779,1.293,3.647-1.077.261.431,1.3-1.077,1.3a10.06,10.06,0,0,1,2.154,8.945c.646,2.171,1.616,4.776.539,6.6,1.185.868.108,1.129.539,2.345-.539.087-.431.608-1.293.434a5.586,5.586,0,0,1-1.077,2.345c-1.939.174-4.739,1.476-7.432.434.323-1.216-.646-1.476-1.616-1.737.323-1.824,1.939-1.129,2.693-2.518,0-.782-.754-.955-1.077-1.476A5.107,5.107,0,0,0,116.67,18.5a4.2,4.2,0,0,1-1.616-.174c1.185-2.953-2.908-4.863-2.37-7.468,0,0,.539.261.539.174,0,0,.323-2.779,2.154-1.911-.108-1.563,1.077-2.171,1.293-3.387-1.077.174-1.185,1.129-2.37,1.3,1.185.521-.539.347-.215,1.3-.862-.261-1.185.174-2.154-.174.323-.261.108-1.042.539-1.3-.969-.608-2.046-1.129-2.37-2.345.969-.782.539-2,1.293-3.213C114.624.963,116.455-.166,119.578.094Z" transform="translate(-110.1 0.004)" fill-rule="evenodd"/>
    </g>
    <g id="그룹_568" data-name="그룹 568" transform="translate(120.311)">
      <rect id="사각형_853" data-name="사각형 853" width="15.402" height="28.115" fill="none"/>
      <path id="패스_470" data-name="패스 470" d="M121.286.094a4.9,4.9,0,0,0,2.37,1.737c1.077,1.042-.215,2.779,1.292,3.647-1.077.261.431,1.3-1.077,1.3a10.06,10.06,0,0,1,2.154,8.945c.646,2.171,1.616,4.776.539,6.6,1.185.868.108,1.129.539,2.345-.539.087-.431.608-1.292.434a5.586,5.586,0,0,1-1.077,2.345c-1.939.174-4.739,1.476-7.432.434.323-1.216-.646-1.476-1.616-1.737.323-1.824,1.939-1.129,2.693-2.518,0-.782-.754-.955-1.077-1.476a5.107,5.107,0,0,0,1.077-3.647,4.2,4.2,0,0,1-1.616-.174c1.185-2.953-2.908-4.863-2.37-7.468,0,0,.539.261.539.174,0,0,.323-2.779,2.154-1.911-.108-1.563,1.077-2.171,1.293-3.387-1.077.174-1.185,1.129-2.37,1.3,1.185.521-.539.347-.215,1.3-.862-.261-1.185.174-2.154-.174.323-.261.108-1.042.539-1.3-1.077-.782-2.154-1.3-2.477-2.518.969-.782.539-2,1.293-3.213C116.224.963,118.055-.166,121.286.094Z" transform="translate(-111.7 0.004)" fill-rule="evenodd"/>
    </g>
    <g id="그룹_569" data-name="그룹 569" transform="translate(122.142)">
      <rect id="사각형_854" data-name="사각형 854" width="15.402" height="28.115" fill="none"/>
      <path id="패스_471" data-name="패스 471" d="M122.878.094a4.9,4.9,0,0,0,2.37,1.737c1.077,1.042-.215,2.779,1.292,3.647-1.077.261.431,1.3-1.077,1.3a10.06,10.06,0,0,1,2.154,8.945c.646,2.171,1.616,4.776.539,6.6,1.185.868.108,1.129.539,2.345-.539.087-.431.608-1.293.434a5.586,5.586,0,0,1-1.077,2.345c-1.939.174-4.739,1.476-7.432.434.323-1.216-.646-1.476-1.616-1.737.323-1.824,1.939-1.129,2.693-2.518,0-.782-.754-.955-1.077-1.476A5.107,5.107,0,0,0,119.97,18.5a4.2,4.2,0,0,1-1.616-.174c1.185-2.953-2.908-4.863-2.37-7.468,0,0,.539.261.539.174,0,0,.323-2.779,2.154-1.911-.108-1.563,1.077-2.171,1.293-3.387-1.077.174-1.185,1.129-2.37,1.3,1.185.521-.539.347-.215,1.3-.862-.261-1.185.174-2.154-.174.323-.261.108-1.042.539-1.3-.969-.608-2.046-1.129-2.37-2.345.969-.782.539-2,1.293-3.213C117.816.963,119.755-.166,122.878.094Z" transform="translate(-113.4 0.004)" fill-rule="evenodd"/>
    </g>
    <g id="그룹_570" data-name="그룹 570" transform="translate(123.865 0.06)">
      <rect id="사각형_855" data-name="사각형 855" width="15.402" height="28.115" transform="translate(0 0.048)" fill="none"/>
      <path id="패스_472" data-name="패스 472" d="M124.478.094a4.9,4.9,0,0,0,2.37,1.737c1.077,1.042-.215,2.779,1.292,3.647-1.077.261.431,1.3-1.077,1.3a10.06,10.06,0,0,1,2.154,8.945c.646,2.171,1.616,4.776.539,6.6,1.185.868.108,1.129.539,2.345-.539.087-.431.608-1.292.434a5.586,5.586,0,0,1-1.077,2.345c-1.939.174-4.739,1.476-7.432.434.323-1.216-.646-1.476-1.616-1.737.323-1.824,1.939-1.129,2.693-2.518,0-.782-.754-.955-1.077-1.476A5.107,5.107,0,0,0,121.57,18.5a4.2,4.2,0,0,1-1.616-.174c1.185-2.953-2.908-4.863-2.37-7.468,0,0,.539.261.539.174,0,0,.323-2.779,2.154-1.911-.108-1.563,1.077-2.171,1.292-3.387-1.077.174-1.185,1.129-2.37,1.3,1.185.521-.539.347-.215,1.3-.862-.261-1.185.174-2.154-.174.323-.261.108-1.042.539-1.3-.969-.782-2.154-1.3-2.37-2.518.969-.782.539-2,1.293-3.213C119.416.963,121.355-.166,124.478.094Z" transform="translate(-115 -0.055)" fill-rule="evenodd"/>
    </g>
    <g id="그룹_571" data-name="그룹 571" transform="translate(125.589 0.06)">
      <rect id="사각형_856" data-name="사각형 856" width="15.402" height="28.115" transform="translate(0 0.048)" fill="none"/>
      <path id="패스_473" data-name="패스 473" d="M126.078.094a4.9,4.9,0,0,0,2.37,1.737c1.077,1.042-.215,2.779,1.293,3.647-1.077.261.431,1.3-1.077,1.3a10.06,10.06,0,0,1,2.154,8.945c.646,2.171,1.616,4.776.539,6.6,1.185.868.108,1.129.539,2.345-.539.087-.431.608-1.293.434a5.586,5.586,0,0,1-1.077,2.345c-1.939.174-4.739,1.476-7.432.434.323-1.216-.646-1.476-1.616-1.737.323-1.824,1.939-1.129,2.693-2.518,0-.782-.754-.955-1.077-1.476A5.107,5.107,0,0,0,123.17,18.5a4.2,4.2,0,0,1-1.616-.174c1.185-2.953-2.908-4.863-2.37-7.468,0,0,.539.261.539.174,0,0,.323-2.779,2.154-1.911-.108-1.563,1.077-2.171,1.293-3.387-1.077.174-1.185,1.129-2.37,1.3,1.185.521-.539.347-.215,1.3-.862-.261-1.185.174-2.154-.174.323-.261.108-1.042.539-1.3-.969-.608-2.046-1.129-2.37-2.345.969-.782.539-2,1.293-3.213C121.124.963,122.955-.166,126.078.094Z" transform="translate(-116.6 -0.055)" fill-rule="evenodd"/>
    </g>
    <g id="그룹_572" data-name="그룹 572" transform="translate(127.312 0.06)">
      <rect id="사각형_857" data-name="사각형 857" width="15.402" height="28.115" transform="translate(0 0.048)" fill="none"/>
      <path id="패스_474" data-name="패스 474" d="M127.678.094a4.9,4.9,0,0,0,2.37,1.737c1.077,1.042-.215,2.779,1.293,3.647-1.077.261.431,1.3-1.077,1.3a10.06,10.06,0,0,1,2.154,8.945c.646,2.171,1.616,4.776.539,6.6,1.185.868.108,1.129.539,2.345-.539.087-.431.608-1.292.434a5.586,5.586,0,0,1-1.077,2.345c-1.939.174-4.739,1.476-7.432.434.323-1.216-.646-1.476-1.616-1.737.323-1.824,1.939-1.129,2.693-2.518,0-.782-.754-.955-1.077-1.476A5.107,5.107,0,0,0,124.77,18.5a4.2,4.2,0,0,1-1.616-.174c1.185-2.953-2.908-4.863-2.37-7.468,0,0,.539.261.539.174,0,0,.323-2.779,2.154-1.911-.108-1.563,1.077-2.171,1.293-3.387-1.077.174-1.185,1.129-2.37,1.3,1.185.521-.539.347-.215,1.3-.862-.261-1.185.174-2.154-.174.323-.261.108-1.042.539-1.3-.969-.608-2.046-1.129-2.37-2.345.969-.782.539-2,1.293-3.213C122.724.963,124.555-.166,127.678.094Z" transform="translate(-118.2 -0.055)" fill-rule="evenodd"/>
    </g>
    <g id="그룹_573" data-name="그룹 573" transform="translate(129.035 0.06)">
      <rect id="사각형_858" data-name="사각형 858" width="15.402" height="28.115" transform="translate(0 0.048)" fill="none"/>
      <path id="패스_475" data-name="패스 475" d="M129.378.094a4.9,4.9,0,0,0,2.37,1.737c1.077,1.042-.215,2.779,1.292,3.647-1.077.261.431,1.3-1.077,1.3a10.06,10.06,0,0,1,2.154,8.945c.646,2.171,1.616,4.776.539,6.6,1.185.868.108,1.129.539,2.345-.539.087-.431.608-1.293.434a5.586,5.586,0,0,1-1.077,2.345c-1.939.174-4.739,1.476-7.432.434.323-1.216-.646-1.476-1.616-1.737.323-1.824,1.939-1.129,2.693-2.518,0-.782-.754-.955-1.077-1.476A5.107,5.107,0,0,0,126.47,18.5a4.2,4.2,0,0,1-1.616-.174c1.185-2.953-2.908-4.863-2.37-7.468,0,0,.539.261.539.174,0,0,.323-2.779,2.154-1.911-.108-1.563,1.077-2.171,1.292-3.387-1.077.174-1.185,1.129-2.37,1.3,1.185.521-.539.347-.215,1.3-.862-.261-1.185.174-2.154-.174.323-.261.108-1.042.539-1.3-.969-.608-2.046-1.129-2.37-2.345.969-.782.539-2,1.292-3.213C124.316.963,126.147-.166,129.378.094Z" transform="translate(-119.792 -0.055)" fill-rule="evenodd"/>
    </g>
    <g id="그룹_574" data-name="그룹 574" transform="translate(130.866 0.108)">
      <rect id="사각형_859" data-name="사각형 859" width="15.402" height="28.115" fill="none"/>
      <path id="패스_476" data-name="패스 476" d="M130.978.19a4.9,4.9,0,0,0,2.37,1.737c1.077,1.042-.215,2.78,1.293,3.648-1.077.261.431,1.3-1.077,1.3a10.064,10.064,0,0,1,2.154,8.947c.646,2.172,1.616,4.777.539,6.6,1.185.869.108,1.129.539,2.345-.539.087-.431.608-1.293.434a5.588,5.588,0,0,1-1.077,2.345c-1.939.174-4.739,1.477-7.432.434.323-1.216-.646-1.477-1.616-1.737.323-1.824,1.939-1.129,2.693-2.519,0-.782-.754-.955-1.077-1.477A5.109,5.109,0,0,0,128.07,18.6a4.2,4.2,0,0,1-1.616-.174c1.185-2.953-2.908-4.864-2.37-7.47,0,0,.539.261.539.174,0,0,.323-2.78,2.154-1.911-.108-1.564,1.077-2.172,1.293-3.388-1.077.174-1.185,1.129-2.37,1.3,1.185.521-.539.347-.215,1.3-.862-.261-1.185.174-2.154-.174.323-.261.108-1.042.539-1.3-.969-.608-2.046-1.129-2.37-2.345.969-.782.539-2,1.293-3.214C125.916.972,127.855-.157,130.978.19Z" transform="translate(-121.5 -0.098)" fill-rule="evenodd"/>
    </g>
    <g id="그룹_575" data-name="그룹 575" transform="translate(132.59 0.108)">
      <rect id="사각형_860" data-name="사각형 860" width="15.402" height="28.115" fill="none"/>
      <path id="패스_477" data-name="패스 477" d="M132.578.194a4.9,4.9,0,0,0,2.37,1.737c1.077,1.042-.215,2.779,1.293,3.647-1.077.261.431,1.3-1.077,1.3a10.06,10.06,0,0,1,2.154,8.945c.646,2.171,1.616,4.776.539,6.6,1.185.868.108,1.129.539,2.345-.539.087-.431.608-1.293.434a5.586,5.586,0,0,1-1.077,2.345c-1.939.174-4.739,1.476-7.432.434.323-1.216-.646-1.476-1.616-1.737.323-1.824,1.939-1.129,2.693-2.518,0-.782-.754-.955-1.077-1.476A5.106,5.106,0,0,0,129.67,18.6a4.2,4.2,0,0,1-1.616-.174c1.185-2.953-2.908-4.863-2.37-7.468,0,0,.539.261.539.174,0,0,.323-2.779,2.154-1.911-.108-1.563,1.077-2.171,1.292-3.387-1.077.174-1.185,1.129-2.37,1.3,1.185.521-.539.347-.215,1.3-.862-.261-1.185.174-2.154-.174.323-.261.108-1.042.539-1.3-.969-.608-2.046-1.129-2.37-2.345.969-.782.539-2,1.292-3.213C127.516,1.063,129.455-.066,132.578.194Z" transform="translate(-123.1 -0.096)" fill-rule="evenodd"/>
    </g>
  </g>
</svg>
