<svg xmlns="http://www.w3.org/2000/svg" viewBox="0 0 22 21.995">
  <defs>
    <style>
      .cls-1 {
        fill: #1a1b1c;
        fill-rule: evenodd;
      }
    </style>
  </defs>
  <path id="_" data-name="#" class="cls-1" d="M599.856,97.385H583.228l-.876-4.082a.349.349,0,0,0-.278-.293l-2.555-.022a.447.447,0,0,0-.537.523c0,.384,0,.567.458.616l1.588.156,2.761,13.791a1.236,1.236,0,0,0,1.1,1.036H598a1.237,1.237,0,0,0,1.1-1.038l1.862-9.441a1.048,1.048,0,0,0-1.1-1.246ZM585.2,107.645l-1.763-8.794h15.987l-1.739,8.794H585.2Zm10.633,2.931a2.2,2.2,0,1,0,2.2,2.2A2.2,2.2,0,0,0,595.833,110.576Zm0,2.931a.733.733,0,1,1,.733-.733A.733.733,0,0,1,595.833,113.507Zm-8.794-2.931a2.2,2.2,0,1,0,2.2,2.2A2.2,2.2,0,0,0,587.04,110.576Zm0,2.931a.733.733,0,1,1,.733-.733A.733.733,0,0,1,587.04,113.507Z" transform="translate(-578.973 -92.978)"/>
</svg>
