<svg xmlns="http://www.w3.org/2000/svg" xmlns:xlink="http://www.w3.org/1999/xlink" viewBox="0 0 12 14">
  <g>
    <g>
      <path id="path_1" data-name="path 1" style="fill: #61c17b;" d="M10,1V2a1.075,1.075,0,0,1,1,1V5H1V3A1.075,1.075,0,0,1,2,2V1A2.006,2.006,0,0,0,0,3v9a2.006,2.006,0,0,0,2,2h8a2.006,2.006,0,0,0,2-2V3A2.006,2.006,0,0,0,10,1Zm1,11a1.075,1.075,0,0,1-1,1H2a1.075,1.075,0,0,1-1-1V6H11Z"/>
      <rect id="rect_366" data-name="rect 366" style="fill: #61c17b;" width="2" height="1" transform="translate(5 1)"/>
      <path id="path_2" data-name="path 2" style="fill: #61c17b;" d="M3.5,3A.472.472,0,0,0,4,2.5V.5A.472.472,0,0,0,3.5,0,.472.472,0,0,0,3,.5v2A.472.472,0,0,0,3.5,3Z"/>
      <rect id="rect_367" data-name="rect 367" style="fill: #61c17b;" width="2" height="2" transform="translate(5 7)"/>
      <rect id="rect_368" data-name="rect 368" style="fill: #61c17b;" width="2" height="2" transform="translate(5 10)"/>
      <rect id="rect_369" data-name="rect 369" style="fill: #61c17b;" width="2" height="2" transform="translate(2 7)"/>
      <rect id="rect_370" data-name="rect 370" style="fill: #61c17b;" width="2" height="2" transform="translate(2 10)"/>
      <path id="path_3" data-name="path 3" style="fill: #61c17b;" d="M8.5,3A.472.472,0,0,0,9,2.5V.5a.5.5,0,0,0-1,0v2A.472.472,0,0,0,8.5,3Z"/>
      <rect id="rect_371" data-name="rect 371" style="fill: #61c17b;" width="2" height="2" transform="translate(8 7)"/>
      <rect id="rect_372" data-name="rect 372" style="fill: #61c17b;" width="2" height="2" transform="translate(8 10)"/>
    </g>
  </g>
</svg>
