<svg xmlns="http://www.w3.org/2000/svg" width="60" height="60" viewBox="0 0 60 60">
  <g id="Icon" transform="translate(-670 -220)">
    <g id="타원_11" data-name="타원 11" transform="translate(670 220)" fill="none" stroke="#a3abb2" stroke-width="2">
      <circle cx="30" cy="30" r="30" stroke="none"/>
      <circle cx="30" cy="30" r="29" fill="none"/>
    </g>
    <g id="타원_12" data-name="타원 12" transform="translate(677 227)" fill="none" stroke="#a3abb2" stroke-width="2" stroke-dasharray="2" opacity="0.462">
      <circle cx="23" cy="23" r="23" stroke="none"/>
      <circle cx="23" cy="23" r="22" fill="none"/>
    </g>
    <path id="love" d="M808.911,680.961c-3.093,0-5.566,2.573-5.884,6.117a6.391,6.391,0,0,0,.182,2.326c.465,1.959,1.515,3.735,10.633,12.07,9.151-8.337,10.193-10.113,10.648-12.07a6.4,6.4,0,0,0,.186-2.323c-.318-3.548-2.768-6.118-5.86-6.118a5.76,5.76,0,0,0-4.966,2.93,5.7,5.7,0,0,0-4.943-2.931h0Z" transform="translate(-113.852 -439.717)" fill="#a3abb2" fill-rule="evenodd"/>
  </g>
</svg>
