<svg xmlns="http://www.w3.org/2000/svg" width="22" height="20" viewBox="0 0 22 20">
  <defs>
    <style>
      .cls-1 {
        fill: #eb3b25;
        fill-rule: evenodd;
      }
    </style>
  </defs>
  <path id="_" data-name="#" class="cls-1" d="M18.994,16.876h0v0.091H5.007v0.016l-0.032-.016H3V4.009H18.991V4.038h0V16.876ZM17,16V8.034l0.938-1.3-1.313.949v0l-1.118.813-1.45,1.049V9.548l-3.037,2.208L7.97,9.548V9.543L6.521,8.494,5.4,7.681v0L4.09,6.737l0.917,1.3V16H17ZM16.044,5.01H5.987L11.02,8.651Zm-5.776,6.773L6.45,14.209l3.072-3.175ZM15.6,14.209l-3.766-2.451,0.634-.641Z"/>
</svg>
