<svg xmlns="http://www.w3.org/2000/svg" width="32" height="35" viewBox="0 0 32 35">
  <metadata><?xpacket begin="﻿" id="W5M0MpCehiHzreSzNTczkc9d"?>
<x:xmpmeta xmlns:x="adobe:ns:meta/" x:xmptk="Adobe XMP Core 5.6-c138 79.159824, 2016/09/14-01:09:01        ">
   <rdf:RDF xmlns:rdf="http://www.w3.org/1999/02/22-rdf-syntax-ns#">
      <rdf:Description rdf:about=""/>
   </rdf:RDF>
</x:xmpmeta>
                                                                                                    
                                                                                                    
                                                                                                    
                                                                                                    
                                                                                                    
                                                                                                    
                                                                                                    
                                                                                                    
                                                                                                    
                                                                                                    
                                                                                                    
                                                                                                    
                                                                                                    
                                                                                                    
                                                                                                    
                                                                                                    
                                                                                                    
                                                                                                    
                                                                                                    
                                                                                                    
                           
<?xpacket end="w"?></metadata>
<defs>
    <style>
      .cls-1 {
        fill: #434445;
        fill-rule: evenodd;
      }
    </style>
  </defs>
  <path class="cls-1" d="M1002.36,470.418l-5.692,3.2a9.23,9.23,0,0,0-11.874-5.162,9.1,9.1,0,0,0-5.286,5.261l-5.865-3.3A3.2,3.2,0,0,1,972,467.645v-14.3a3.2,3.2,0,0,1,1.643-2.773l12.4-6.975,0.31-.174a3.373,3.373,0,0,1,3.287,0l0.31,0.174,12.406,6.976a3.19,3.19,0,0,1,1.64,2.773v14.3A3.19,3.19,0,0,1,1002.36,470.418ZM988,452.99A6.006,6.006,0,1,0,994.014,459,6,6,0,0,0,988,452.99h0Zm0,10.7A4.691,4.691,0,1,1,992.7,459a4.69,4.69,0,0,1-4.7,4.691h0Zm0.11,5.563a7.749,7.749,0,0,1,7.3,5.073l-5.458,3.071-0.31.175a3.373,3.373,0,0,1-3.287,0l-0.31-.175-5.276-2.966a7.746,7.746,0,0,1,7.338-5.177h0Zm7.3,5.073,1.257-.707m-17.16.1,1.262,0.709" transform="translate(-972 -443)"/>
</svg>
