<svg xmlns="http://www.w3.org/2000/svg" width="32" height="32" viewBox="0 0 32 32">
  <metadata><?xpacket begin="﻿" id="W5M0MpCehiHzreSzNTczkc9d"?>
<x:xmpmeta xmlns:x="adobe:ns:meta/" x:xmptk="Adobe XMP Core 5.6-c138 79.159824, 2016/09/14-01:09:01        ">
   <rdf:RDF xmlns:rdf="http://www.w3.org/1999/02/22-rdf-syntax-ns#">
      <rdf:Description rdf:about=""/>
   </rdf:RDF>
</x:xmpmeta>
                                                                                                    
                                                                                                    
                                                                                                    
                                                                                                    
                                                                                                    
                                                                                                    
                                                                                                    
                                                                                                    
                                                                                                    
                                                                                                    
                                                                                                    
                                                                                                    
                                                                                                    
                                                                                                    
                                                                                                    
                                                                                                    
                                                                                                    
                                                                                                    
                                                                                                    
                                                                                                    
                           
<?xpacket end="w"?></metadata>
<defs>
    <style>
      .cls-1 {
        fill: #151618;
        fill-rule: evenodd;
      }
    </style>
  </defs>
  <path id="_" data-name="#" class="cls-1" d="M988,476a16,16,0,1,1,16-16A16,16,0,0,1,988,476Zm0-31a15,15,0,1,0,15,15A15,15,0,0,0,988,445Zm1.712,11.865a1.443,1.443,0,0,0-.318-0.549,1.468,1.468,0,0,0-.536-0.356,2.054,2.054,0,0,0-.758-0.127,2.3,2.3,0,0,0-.733.106,1.457,1.457,0,0,0-.515.295,1.232,1.232,0,0,0-.307.443,1.415,1.415,0,0,0-.1.54,1.2,1.2,0,0,0,.526.988,5.546,5.546,0,0,0,1.541.741,9.415,9.415,0,0,1,1.5.672,4.485,4.485,0,0,1,1.079.835,3.219,3.219,0,0,1,.655,1.049,3.7,3.7,0,0,1,.221,1.319,3.47,3.47,0,0,1-.268,1.4,2.829,2.829,0,0,1-.761,1.036,3.416,3.416,0,0,1-1.191.647,4.456,4.456,0,0,1-.741.17v1.956h-2v-2.053a4.481,4.481,0,0,1-.827-0.265,4.137,4.137,0,0,1-.869-0.533,3.451,3.451,0,0,1-.7-0.753,3.592,3.592,0,0,1-.465-0.987,3.426,3.426,0,0,1-.168-1.107h2.153a1.871,1.871,0,0,0,.15.8,1.55,1.55,0,0,0,.418.611,1.656,1.656,0,0,0,.647.34,3.119,3.119,0,0,0,.844.106,2.3,2.3,0,0,0,.722-0.1,1.437,1.437,0,0,0,.508-0.283,1.1,1.1,0,0,0,.3-0.43,1.463,1.463,0,0,0,.1-0.537,1.85,1.85,0,0,0-.079-0.561,1.082,1.082,0,0,0-.3-0.463,2.7,2.7,0,0,0-.622-0.417,8.885,8.885,0,0,0-1.026-.435,11.654,11.654,0,0,1-1.348-.589,4.922,4.922,0,0,1-1.108-.775,3.384,3.384,0,0,1-.751-1.028,3.156,3.156,0,0,1-.275-1.36,3.251,3.251,0,0,1,.282-1.364,3,3,0,0,1,.794-1.052,3.708,3.708,0,0,1,1.216-.676,4.2,4.2,0,0,1,.412-0.1V452h2v1.954a4.043,4.043,0,0,1,.709.195,3.529,3.529,0,0,1,1.208.766,3.4,3.4,0,0,1,.773,1.168,4.084,4.084,0,0,1,.271,1.508h-2.145A2.413,2.413,0,0,0,989.712,456.865Z" transform="translate(-972 -444)"/>
</svg>
