<svg xmlns="http://www.w3.org/2000/svg" viewBox="0 0 793.557 145.164">
  <defs>
    <style>
      .cls-1 {
        fill: #fff;
        opacity: 0.05;
      }
    </style>
  </defs>
  <path id="Path_142" data-name="Path 142" class="cls-1" d="M430.085,466.937l17.756-5.121,6.838-11.965,6.928,5.278,9.16-9.272h10.975l13.889-6.179,7.117,6.179,12.2,9.272,20.982-9.272,10.448-6.179,7.82,6.179h11.036l18.06-17.69,14.613-9.854,7.917,9.854h5.347l9.259-9.854,6.756,9.854,6.055-4.43h17.556l9.66-9.467h9.415l8.381-4.56,16.541-9.823,22.072,9.823,6.944-9.823H731.7l10-7.2h5.231l10.79-7.86,4.153-3.922h13L786,384.823l12.279,4.316,14.589-4.316,6.638,4.316H830.18l12.378,3.545h8.834l5.092-3.545,7.055-4.316h9.677l8.37-3.922,12.6,3.922,4.476,4.316,8.372,10.749,14.212-7.2h6.572l17.482,3.455h14.993l8.749-7,7.109-4.316,9.412-11.371,11.958-7.421,11.482,7.421,8.436,11.371,12.423,7.86,11.38,3.455,15.366-3.455,15.722,7.2,22.711,9.823,4.188,8.6,10.595,5.424s9.906-3.217,11.718,0,10.175,9.219,10.175,9.219h16.326l4.594,6.721h18.4l10.578,6.179,6.947,3.994H1200.7l11.708,5.278,7.485,6.687V511.2H426.336Z" transform="translate(-426.336 -366.031)"/>
</svg>
