<svg xmlns="http://www.w3.org/2000/svg" xmlns:xlink="http://www.w3.org/1999/xlink" viewBox="0 0 336 420">
  <defs>
    <style>
      .cls-1, .cls-5, .cls-6, .cls-7, .cls-8 {
        fill: #fff;
      }

      .cls-2, .cls-3 {
        fill: #1a1b1c;
      }

      .cls-2 {
        fill-rule: evenodd;
      }

      .cls-4 {
        fill: #3bc780;
      }

      .cls-5 {
        font-size: 16px;
      }

      .cls-5, .cls-6, .cls-7 {
        font-family: InterUI-Medium, Inter UI;
        font-weight: 500;
      }

      .cls-6 {
        font-size: 13px;
      }

      .cls-6, .cls-7 {
        letter-spacing: 0.005em;
      }

      .cls-7 {
        font-size: 27px;
      }

      .cls-8 {
        opacity: 0.634;
      }

      .cls-9 {
        fill: #363738;
        opacity: 0.273;
      }

      .cls-10 {
        fill: #c7c7c7;
        opacity: 0.408;
      }

      .cls-11 {
        fill: #e8e8e8;
      }

      .cls-12 {
        fill: none;
        stroke: #000;
        stroke-linecap: round;
        stroke-miterlimit: 10;
      }

      .cls-13 {
        filter: url(#Rectangle_520);
      }

      .cls-14 {
        filter: url(#Rectangle_512);
      }

      .cls-15 {
        filter: url(#Rectangle_498);
      }
    </style>
    <filter id="Rectangle_498" x="0" y="0" width="336" height="420" filterUnits="userSpaceOnUse">
      <feOffset dy="2" input="SourceAlpha"/>
      <feGaussianBlur stdDeviation="10" result="blur"/>
      <feFlood flood-opacity="0.082"/>
      <feComposite operator="in" in2="blur"/>
      <feComposite in="SourceGraphic"/>
    </filter>
    <filter id="Rectangle_512" x="30" y="47" width="276" height="27" filterUnits="userSpaceOnUse">
      <feOffset dy="1" input="SourceAlpha"/>
      <feGaussianBlur result="blur-2"/>
      <feFlood flood-opacity="0.059"/>
      <feComposite operator="in" in2="blur-2"/>
      <feComposite in="SourceGraphic"/>
    </filter>
    <filter id="Rectangle_520" x="24" y="174" width="287" height="136" filterUnits="userSpaceOnUse">
      <feOffset dy="2" input="SourceAlpha"/>
      <feGaussianBlur stdDeviation="10" result="blur-3"/>
      <feFlood flood-opacity="0.082"/>
      <feComposite operator="in" in2="blur-3"/>
      <feComposite in="SourceGraphic"/>
    </filter>
  </defs>
  <g id="Card_3" data-name="Card 3" transform="translate(-818 -2210)">
    <g class="cls-15" transform="matrix(1, 0, 0, 1, 818, 2210)">
      <rect id="Rectangle_498-2" data-name="Rectangle 498" class="cls-1" width="276" height="360" rx="6" transform="translate(30 28)"/>
    </g>
    <g class="cls-14" transform="matrix(1, 0, 0, 1, 818, 2210)">
      <rect id="Rectangle_512-2" data-name="Rectangle 512" class="cls-1" width="276" height="26" transform="translate(30 47)"/>
    </g>
    <path id="_" data-name="#" class="cls-2" d="M599.856,97.385H583.228l-.876-4.082a.349.349,0,0,0-.278-.293l-2.555-.022a.447.447,0,0,0-.537.523c0,.384,0,.567.458.616l1.588.156,2.761,13.791a1.236,1.236,0,0,0,1.1,1.036H598a1.237,1.237,0,0,0,1.1-1.038l1.862-9.441a1.048,1.048,0,0,0-1.1-1.246ZM585.2,107.645l-1.763-8.794h15.987l-1.739,8.794H585.2Zm10.633,2.931a2.2,2.2,0,1,0,2.2,2.2A2.2,2.2,0,0,0,595.833,110.576Zm0,2.931a.733.733,0,1,1,.733-.733A.733.733,0,0,1,595.833,113.507Zm-8.794-2.931a2.2,2.2,0,1,0,2.2,2.2A2.2,2.2,0,0,0,587.04,110.576Zm0,2.931a.733.733,0,1,1,.733-.733A.733.733,0,0,1,587.04,113.507Z" transform="translate(504.027 2157.022)"/>
    <path id="Union_43" data-name="Union 43" class="cls-3" d="M1,14a1,1,0,0,1,0-2H17a1,1,0,0,1,0,2ZM1,8A1,1,0,0,1,1,6H17a1,1,0,0,1,0,2ZM1,2A1,1,0,0,1,1,0H17a1,1,0,0,1,0,2Z" transform="translate(863 2254)"/>
    <rect id="Rectangle_511" data-name="Rectangle 511" class="cls-4" width="226" height="50" rx="3" transform="translate(873 2523)"/>
    <text id="Submit_Order" data-name="Submit Order" class="cls-5" transform="translate(986 2554)"><tspan x="-50.188" y="0">Submit Order</tspan></text>
    <rect id="Rectangle_519" data-name="Rectangle 519" class="cls-4" width="276" height="168" transform="translate(848 2283)"/>
    <text id="FOR_A_FRIEND" data-name="FOR A FRIEND" class="cls-6" transform="translate(1055 2377.923)"><tspan x="-43.916" y="0">FOR A FRIEND</tspan></text>
    <text id="_10.00" data-name="$10.00" class="cls-7" transform="translate(1055 2354)"><tspan x="-42.42" y="0">$10.00</tspan></text>
    <text id="FOR_YOU" data-name="FOR YOU" class="cls-6" transform="translate(917 2377.923)"><tspan x="-28.372" y="0">FOR YOU</tspan></text>
    <text id="_10.00-2" data-name="$10.00" class="cls-7" transform="translate(917 2354)"><tspan x="-42.42" y="0">$10.00</tspan></text>
    <path id="Union_42" data-name="Union 42" class="cls-8" d="M9.347,20.393V11.046H0v-1.7H9.347V0h1.7V9.347h9.347v1.7H11.046v9.347Z" transform="translate(976 2344)"/>
    <g class="cls-13" transform="matrix(1, 0, 0, 1, 818, 2210)">
      <rect id="Rectangle_520-2" data-name="Rectangle 520" class="cls-1" width="227" height="76" rx="4" transform="translate(54 202)"/>
    </g>
    <rect id="Rectangle_517" data-name="Rectangle 517" class="cls-9" width="104.282" height="6" rx="3" transform="translate(957 2441)"/>
    <rect id="Rectangle_518" data-name="Rectangle 518" class="cls-10" width="59" height="6" rx="3" transform="translate(957 2455)"/>
    <g id="Group_60" data-name="Group 60" transform="translate(133 939.461)">
      <g id="Group_59" data-name="Group 59" transform="translate(762 1487)">
        <ellipse id="Ellipse_11" data-name="Ellipse 11" class="cls-11" cx="19.421" cy="21.23" rx="19.421" ry="21.23" transform="translate(4.213 0)"/>
        <g id="Group_54" data-name="Group 54" transform="translate(17.56 5.821)">
          <path id="Path_119" data-name="Path 119" d="M13.136,7.531a11.609,11.609,0,0,1,3.033-2.462,5.192,5.192,0,0,1,1.809-.821,3.84,3.84,0,0,1,2.045.167.088.088,0,0,1,.042.111.03.03,0,0,1-.028.028,7.474,7.474,0,0,1-1.656,1.03,17.087,17.087,0,0,1-1.753.515A18.636,18.636,0,0,0,13.22,7.642c-.028.014-.083.014-.1-.028S13.109,7.545,13.136,7.531Z" transform="translate(-13.113 -4.184)"/>
        </g>
        <g id="Group_55" data-name="Group 55" transform="translate(35.79 5.739)">
          <path id="Path_120" data-name="Path 120" d="M26.263,4.355a7.481,7.481,0,0,1,3.381-.07,3.882,3.882,0,0,1,1.656.543A2.772,2.772,0,0,1,32.37,6.274a.1.1,0,0,1-.056.111h-.028a6.573,6.573,0,0,1-1.642-.334,11.23,11.23,0,0,1-1.336-.71,10.307,10.307,0,0,0-3.033-.849.061.061,0,0,1-.056-.083C26.207,4.382,26.235,4.368,26.263,4.355Z" transform="translate(-26.217 -4.125)"/>
        </g>
        <g id="Group_56" data-name="Group 56" transform="translate(27.125 9.947)">
          <path id="Path_121" data-name="Path 121" d="M26.293,7.233a17.842,17.842,0,0,0,.4,6.483,46.348,46.348,0,0,0,1.962,6.247,7.548,7.548,0,0,1,.543,3.548,3.683,3.683,0,0,1-.89,1.823,5.081,5.081,0,0,1-1.6,1.057,6.814,6.814,0,0,1-6.692-.779.069.069,0,0,1-.014-.1c.014-.028.056-.028.083-.028a7.942,7.942,0,0,0,6.052-.362,2.757,2.757,0,0,0,1.711-1.878A6.272,6.272,0,0,0,27.6,20.3a47.527,47.527,0,0,1-1.586-6.455,18.031,18.031,0,0,1,.153-6.636.076.076,0,0,1,.083-.056A.119.119,0,0,1,26.293,7.233Z" transform="translate(-19.989 -7.15)"/>
        </g>
        <path id="Path_122" data-name="Path 122" class="cls-12" d="M17.25,24.36a22.848,22.848,0,0,0,11.8,1.043" transform="translate(6.064 9.53)"/>
        <g id="Group_57" data-name="Group 57" transform="translate(11.684 15.832)">
          <path id="Path_123" data-name="Path 123" d="M8.973,32.819a34.165,34.165,0,0,1,6.316,2.462c2.045.96,4.076,1.934,6.163,2.741a13.392,13.392,0,0,0,6.414,1.169c2.2-.139,4.4-.668,5.843-2.212a14.085,14.085,0,0,0,2.908-5.732,49,49,0,0,0,1.558-6.455,49.162,49.162,0,0,0,.473-13.342.066.066,0,0,1,.07-.07c.028,0,.07.014.07.056a35.167,35.167,0,0,1,.765,13.592,34.4,34.4,0,0,1-1.628,6.678,15.362,15.362,0,0,1-3.436,6.08,7.662,7.662,0,0,1-3.116,1.809,13.455,13.455,0,0,1-3.45.515,10.9,10.9,0,0,1-3.478-.306,21.949,21.949,0,0,1-3.255-1.127c-2.087-.918-4.076-1.976-6.08-3.019a34.091,34.091,0,0,0-6.163-2.7.076.076,0,0,1-.056-.083C8.9,32.833,8.946,32.8,8.973,32.819Z" transform="translate(-8.89 -11.38)"/>
        </g>
        <g id="Group_58" data-name="Group 58" transform="translate(2.97 2.602)">
          <path id="Path_124" data-name="Path 124" d="M3.786,13.153A16.721,16.721,0,0,1,2.645,7.546a16.475,16.475,0,0,1,.64-5.676,27.092,27.092,0,0,1,.737,5.621A26.785,26.785,0,0,1,3.786,13.153Z" transform="translate(-2.627 -1.87)"/>
        </g>
        <ellipse id="Ellipse_12" data-name="Ellipse 12" cx="2.184" cy="2.908" rx="2.184" ry="2.908" transform="translate(20.894 11.046)"/>
        <ellipse id="Ellipse_13" data-name="Ellipse 13" cx="1.809" cy="2.574" rx="1.809" ry="2.574" transform="translate(36.03 10.573)"/>
        <path id="Path_125" data-name="Path 125" class="cls-12" d="M6.778,11.281A8.458,8.458,0,0,0,3.119,9.7a2.674,2.674,0,0,0-1.2.028C.893,10.071.6,11.379.531,12.464a11.194,11.194,0,0,0,1.349,6.859c1.308,1.989,4.021,3.186,6.135,2.129" transform="translate(-0.492 3.772)"/>
        <path id="Path_126" data-name="Path 126" class="cls-12" d="M3.18,15.527l.167-3.047" transform="translate(0.56 4.882)"/>
      </g>
    </g>
    <g transform="translate(945 2254)">
	<g>
		<path d="M33.636,8.332c-0.391,0.898-0.956,1.593-1.636,2.056c-0.666,0.478-1.463,0.724-2.288,0.724    c-2.303,0-4.258-1.868-4.258-4.258c0-2.245,1.767-4.316,4.214-4.316s4.243,1.941,4.243,4.388c0,0.319-0.029,0.449-0.058,0.637    h-6.025c0.145,0.956,0.941,1.521,1.883,1.521c0.739,0,1.129-0.333,1.463-0.753H33.636z M31.507,5.942    c-0.101-0.478-0.579-1.376-1.825-1.376c-1.245,0-1.723,0.898-1.825,1.376H31.507z"/>
		<path d="M43.342,10.852h-2.404V9.983h-0.029c-0.405,0.782-1.405,1.144-2.346,1.144c-2.549,0-4.041-1.999-4.041-4.301    c0-2.636,1.897-4.287,4.041-4.287c1.318,0,2.056,0.637,2.346,1.129h0.029V2.814h2.404V10.852z M38.925,8.882    c1.506,0,2.013-1.274,2.013-2.056c0-0.97-0.666-2.042-2.028-2.042c-1.376,0-1.984,1.158-1.984,2.071    C36.926,7.608,37.477,8.882,38.925,8.882z"/>
		<path d="M44.139,2.814h2.259v0.854h0.029c0.203-0.391,0.623-1.129,2.013-1.129v2.419c-1.115,0.029-1.897,0.261-1.897,1.477v4.417    h-2.404V2.814z"/>
		<path d="M49.925,10.852h-2.505V8.39h2.505V10.852z"/>
		<path d="M58.89,7.796c-0.434,1.825-2.042,3.316-4.214,3.316c-2.433,0-4.301-1.912-4.301-4.301c0-2.361,1.839-4.272,4.243-4.272    c2.129,0,3.852,1.405,4.258,3.374h-2.433c-0.261-0.55-0.739-1.129-1.738-1.129c-1.144-0.058-1.912,0.884-1.912,2.042    c0,1.173,0.768,2.042,1.912,2.042c0.999,0,1.477-0.579,1.738-1.072H58.89z"/>
		<path d="M63.778,2.43c2.925,0,4.33,2.303,4.33,4.272s-1.405,4.272-4.33,4.272c-2.925,0-4.33-2.303-4.33-4.272    S60.852,2.43,63.778,2.43z M63.778,8.73c1.043,0,1.926-0.854,1.926-2.027s-0.883-2.027-1.926-2.027    c-1.043,0-1.926,0.854-1.926,2.027S62.735,8.73,63.778,8.73z"/>
		<path d="M24.909,6.826c0-1.97-1.405-4.272-4.33-4.272c-2.925,0-4.33,2.303-4.33,4.272s1.405,4.272,4.33,4.272    c0.738,0,1.379-0.147,1.926-0.398v0.555c-0.004,1.169-0.885,2.02-1.926,2.02c-0.863,0-1.615-0.587-1.849-1.454h-2.438    c0.244,1.817,1.642,3.699,4.287,3.699c2.922,0,4.327-2.297,4.33-4.265L24.909,6.826z M20.579,8.853    c-1.043,0-1.926-0.854-1.926-2.027c0-1.173,0.884-2.027,1.926-2.027c1.043,0,1.926,0.854,1.926,2.027    C22.505,7.999,21.621,8.853,20.579,8.853z"/>
		<path d="M68.715,2.691h2.245v0.854h0.029c0.188-0.333,0.71-1.129,2.216-1.129c0.71,0,1.68,0.246,2.317,1.434    c0.492-0.782,1.318-1.434,2.549-1.434c0.565,0,1.463,0.13,2.114,0.811c0.753,0.797,0.869,1.332,0.869,3.114v4.388H78.65V6.456    c0-0.652,0-1.781-1.231-1.781c-1.332,0-1.332,1.216-1.332,1.665v4.388h-2.404V6.355c0-0.434,0-1.68-1.202-1.68    c-1.361,0-1.361,1.303-1.361,1.781v4.272h-2.404V2.691z"/>
	</g>
	<path d="M3.468,10.435c0,0-2.414,0.025-2.414,0c0-1.333,1.081-2.414,2.414-2.414h2.414v2.414c0,1.333-1.081,2.414-2.414,2.414   L3.468,10.435z M6.788,12.849c1.333,0,2.414-1.081,2.414-2.414V4.701H3.468c-1.333,0-2.414,1.081-2.414,2.414l5.734,0L6.788,12.849   z M10.107,12.849c1.333,0,2.414-1.081,2.414-2.414V1.382H3.468c-1.333,0-2.414,1.081-2.414,2.414l9.053,0L10.107,12.849z"/>
    </g>
  </g>
</svg>
