<svg xmlns="http://www.w3.org/2000/svg" width="27.421" height="45.527" viewBox="0 0 27.421 45.527">
  <g id="Arrows" transform="translate(-626.423 -576.017)">
    <path id="패스_3" data-name="패스 3" d="M13.709,13.536a1.244,1.244,0,0,1-.779-.275L.373,1.987A1.15,1.15,0,0,1,.281.383a1.15,1.15,0,0,1,1.6-.092L13.709,10.878,25.533.291a1.15,1.15,0,0,1,1.6.092,1.152,1.152,0,0,1-.092,1.6L14.488,13.261A1.245,1.245,0,0,1,13.709,13.536Z" transform="translate(626.425 592.008)" fill="#3bc780" opacity="0.629"/>
    <path id="패스_135" data-name="패스 135" d="M13.709,13.536a1.244,1.244,0,0,1-.779-.275L.373,1.987A1.15,1.15,0,0,1,.281.383a1.15,1.15,0,0,1,1.6-.092L13.709,10.878,25.533.291a1.15,1.15,0,0,1,1.6.092,1.152,1.152,0,0,1-.092,1.6L14.488,13.261A1.245,1.245,0,0,1,13.709,13.536Z" transform="translate(626.425 608.008)" fill="#3bc780"/>
    <path id="패스_133" data-name="패스 133" d="M13.709,13.536a1.244,1.244,0,0,1-.779-.275L.373,1.987A1.15,1.15,0,0,1,.281.383a1.15,1.15,0,0,1,1.6-.092L13.709,10.878,25.533.291a1.15,1.15,0,0,1,1.6.092,1.152,1.152,0,0,1-.092,1.6L14.488,13.261A1.245,1.245,0,0,1,13.709,13.536Z" transform="translate(626.425 576.008)" fill="#3bc780" opacity="0.14"/>
  </g>
</svg>
