<svg xmlns="http://www.w3.org/2000/svg" xmlns:xlink="http://www.w3.org/1999/xlink" width="828" height="245.752" viewBox="0 0 828 245.752">
  <defs>
    <linearGradient id="linear-gradient" x1="0.5" x2="0.5" y2="1" gradientUnits="objectBoundingBox">
      <stop offset="0" stop-color="#f0f0f0"/>
      <stop offset="0.655" stop-color="#f0f0f0"/>
      <stop offset="1" stop-color="#fff"/>
    </linearGradient>
    <linearGradient id="linear-gradient-2" xlink:href="#linear-gradient"/>
  </defs>
  <g id="Background" transform="translate(-226 -3155.248)">
    <path id="사각형_678" data-name="사각형 678" d="M3,0H73a3,3,0,0,1,3,3V52a0,0,0,0,1,0,0H0a0,0,0,0,1,0,0V3A3,3,0,0,1,3,0Z" transform="translate(899 3207)" fill="#6a6b6c" opacity="0.645"/>
    <rect id="사각형_679" data-name="사각형 679" width="86" height="5" rx="1" transform="translate(894 3259)" fill="#cecece"/>
    <rect id="사각형_680" data-name="사각형 680" width="72" height="48" rx="1" transform="translate(901 3209)" fill="#fff"/>
    <path id="Shape_959" data-name="Shape 959" d="M160.672,97.4a1.332,1.332,0,0,0-1.142-.535h-7.873l.152,2.411h.691c-.54,1.749-1.237,4-1.747,5.652L150.1,96.87H146.5l-5.13,7.738h-3.693l.676-1.688h3.208l.63-2.026H138.98l.465-1.66h4.427l.768-2.365H129.354a2.786,2.786,0,0,0-1.646.486,2.683,2.683,0,0,0-.992,1.4l-2,6.295a1.506,1.506,0,0,0,.086,1.416,1.605,1.605,0,0,0,1.344.478h6.742l2.034-6.052h-4.7l-.7,2.033h1.87l-.664,1.663h-3.005l1.794-5.359h6.994l-2.469,7.715h9.27l1.165-2.02h3.464l.157,2.021h4.759l1.2-3.69h1.656l.559,3.69h2.69l-.763-3.923a1.8,1.8,0,0,0,1.523-1.193l1.027-3.066A1.535,1.535,0,0,0,160.672,97.4Zm-15.1,5.525,1.973-2.923.322,2.923Zm11.911-2.034h-2.768l.472-1.68h2.8Z" transform="translate(794.475 3132.053)" fill="#1a1b1c" fill-rule="evenodd" opacity="0.269"/>
    <rect id="사각형_673" data-name="사각형 673" width="127" height="18" transform="translate(909 3275)" fill="#e0e0e0" opacity="0.47"/>
    <rect id="사각형_677" data-name="사각형 677" width="137" height="18" transform="translate(234 3275)" fill="#e0e0e0" opacity="0.47"/>
    <rect id="사각형_671" data-name="사각형 671" width="145" height="11" transform="translate(909 3264)" fill="#e0e0e0"/>
    <rect id="사각형_675" data-name="사각형 675" width="145" height="11" transform="translate(226 3264)" fill="#e0e0e0"/>
    <rect id="사각형_672" data-name="사각형 672" width="10" height="126" transform="translate(1036 3275)" fill="url(#linear-gradient)"/>
    <rect id="사각형_676" data-name="사각형 676" width="10" height="126" transform="translate(234 3275)" fill="url(#linear-gradient-2)"/>
    <g id="그룹_206" data-name="그룹 206" transform="translate(0 32)">
      <path id="패스_294" data-name="패스 294" d="M0,40.092l3.815.22c.367-2.568-2.091-5.319-.807-7.593.257-.477.7-.88.954-1.357,1.064-1.981-.807-4.438-.11-6.566.587-1.724,2.641-2.641,3.008-4.4.22-1.1-.293-2.274,0-3.375.4-1.541,2.164-2.311,2.971-3.7a8.406,8.406,0,0,0,.7-3.155A15.189,15.189,0,0,1,16.25,0a6.745,6.745,0,0,0,3.118,5.319c.99.624,2.274,1.1,2.678,2.2.55,1.541-.954,3.191-.55,4.768a6.271,6.271,0,0,0,1.284,2.017c2.788,3.962-.22,10.051,2.494,14.085a16.02,16.02,0,0,1,1.614,2.274,6.955,6.955,0,0,1,.4,2.9v7.666a1.221,1.221,0,0,1,1.834.257,3.139,3.139,0,0,1,.293,2.091,17.215,17.215,0,0,1-7.483,12.692A12.863,12.863,0,0,1,6.492,54.948C2.494,51.5.88,45.154,0,40.092Z" transform="translate(278.599 3129.374) rotate(-12)" fill="#3bc780" opacity="0.65"/>
      <path id="패스_295" data-name="패스 295" d="M768.121,3199.517s.134-28.278-4.159-40.885" transform="translate(-464)" fill="none" stroke="#77be9a" stroke-linecap="round" stroke-width="2" opacity="0.844"/>
      <path id="패스_292" data-name="패스 292" d="M0,0H31L28,34H3Z" transform="translate(289 3198)" fill="#cecece"/>
    </g>
    <path id="패스_296" data-name="패스 296" d="M0,0H15L13.548,16H1.452Z" transform="translate(1003.937 3248)" fill="#e3e3e3"/>
    <path id="패스_297" data-name="패스 297" d="M1450.283,3216l-3.026-2.469h2.8l-.34-3.059,2.34,1.232,1.086-4.043,1.848,1.64,1.575-3.476,2.009,3.476,2.594-1.64.413,2.811,2.437-.359-.693,2.8h2.431l-2.8,3.09Z" transform="translate(-445 32)" fill="#3bc780" opacity="0.65"/>
  </g>
</svg>
