<svg xmlns="http://www.w3.org/2000/svg" width="859.919" height="422.901" viewBox="0 0 859.919 422.901">
  <g id="그룹_211" data-name="그룹 211" transform="translate(-210.604 -825.153)">
    <g id="Map" transform="translate(210.481 825.637)" opacity="0.17">
      <path id="패스_149" data-name="패스 149" d="M128.609,61.572l-33.7-8.713c-.256,0-.384-.128-.641-.128l-33.827-.384L19.7,49.912a2.81,2.81,0,0,0-2.178.9L.863,68.876a2.732,2.732,0,0,0-.128,3.588L18.673,95.4a2.712,2.712,0,0,1,.513,2.434l-1.538,6.022a2.766,2.766,0,0,0,3.46,3.331l12.557-3.844a5.193,5.193,0,0,0,1.153-.641l9.61-9.354a2.788,2.788,0,0,1,2.947-.641l27.548,10.25a2.045,2.045,0,0,1,1.153.9l29.854,37.158a2.7,2.7,0,0,1,.641,1.666l.769,16.144a3.642,3.642,0,0,0,.513,1.538l26.523,36.261a2.687,2.687,0,0,0,1.409,1.025h0a2.8,2.8,0,0,0,3.588-3.075l-1.025-6.535a2.79,2.79,0,0,1,4.356-2.691l3.588,2.691a2.492,2.492,0,0,1,1.153,1.794l3.075,18.066a2.684,2.684,0,0,0,1.409,1.922l40.489,23.064c.128,0,.256.128.384.128l23.96,9.482a2.7,2.7,0,0,1,1.666,3.075l-5.766,29.47a3.359,3.359,0,0,0,.256,1.922l7.432,13.454a5.569,5.569,0,0,0,.769.9l18.323,13.069a2.612,2.612,0,0,1,1.025,2.947l-17.938,73.419a2.632,2.632,0,0,0,0,1.409l5.638,19.476a3.03,3.03,0,0,0,1.538,1.794l11.916,5.253a2.612,2.612,0,0,0,2.563-.256l7.688-4.869a2.837,2.837,0,0,0,1.025-3.588L246.1,385.871a2.753,2.753,0,0,1,.256-2.947l41.771-55.1a1.992,1.992,0,0,1,1.025-.769l23.192-11.147a2.477,2.477,0,0,0,1.409-1.794L325.8,271.066a2.853,2.853,0,0,0-1.538-3.331l-42.924-18.579c-.256-.128-.384-.256-.641-.384l-17.81-14.351a3.452,3.452,0,0,0-1.922-.641l-30.5,2.05a2.5,2.5,0,0,1-.9-.128l-28.317-6.919a2.477,2.477,0,0,1-1.794-1.409l-6.278-11.66a3.314,3.314,0,0,0-1.794-1.409l-16.4-3.972a2.586,2.586,0,0,1-2.05-2.434L171.4,191.112a2.792,2.792,0,0,1,2.05-2.947l20.5-5.253a2.748,2.748,0,0,1,2.563.641l9.61,8.585a2.9,2.9,0,0,0,3.716,0l.513-.513a2.84,2.84,0,0,0,.769-2.947l-2.178-6.535a3.018,3.018,0,0,1,.384-2.563l14.479-18.963a2.687,2.687,0,0,0,.513-1.409l1.025-8.585a3.525,3.525,0,0,1,1.025-1.922l30.367-23.064a2.3,2.3,0,0,1,1.794-.513l7.688.384a2.817,2.817,0,0,0,2.563-4.228L259.943,106.8l-.128-.128-9.738-18.963a2.739,2.739,0,0,0-2.178-1.538l-27.036-2.563a2.674,2.674,0,0,0-2.819,1.794l-9.225,26.139a2.715,2.715,0,0,1-3.46,1.666l-9.994-3.331c-.256-.128-.384-.128-.641-.256L177.939,99.243a2.871,2.871,0,0,1-1.153-3.46L187.677,69.9a3.117,3.117,0,0,1,1.922-1.666l14.094-3.588a2.808,2.808,0,0,0,1.281-4.741l-4.356-4.1a2.619,2.619,0,0,0-1.153-.641L173.2,48.118a2.815,2.815,0,0,0-1.794.128l-29.6,12.429a3.016,3.016,0,0,1-1.025.256l-11.532.256C129.121,61.7,128.865,61.572,128.609,61.572Z" transform="translate(0 13.515)" fill="#3bc780"/>
      <path id="패스_150" data-name="패스 150" d="M187.8,40.62l23.576,10.507a8.742,8.742,0,0,1,4.356,4.485l19.22,48.177a8.35,8.35,0,0,0,13.069,3.331L290.3,72.4a6.744,6.744,0,0,0,2.05-2.563L310.8,34.982a7.084,7.084,0,0,0,.9-3.2L313.623,9.1A8.443,8.443,0,0,0,304.91,0L216.884,4.359a8.355,8.355,0,0,0-4.741,1.794L186,26.4A8.358,8.358,0,0,0,187.8,40.62Z" transform="translate(51.388 0)" fill="#3bc780"/>
      <path id="패스_151" data-name="패스 151" d="M291.918,64.3l-16.273,1.281a4.015,4.015,0,0,0-3.716,3.844l-.128,2.947a3.886,3.886,0,0,0,3.716,4.1L287.433,77.5a3.693,3.693,0,0,0,3.331-1.409l4.485-5.253a4.165,4.165,0,0,0,.769-3.844h0A4.159,4.159,0,0,0,291.918,64.3Z" transform="translate(76.423 18.088)" fill="#3bc780"/>
      <path id="패스_152" data-name="패스 152" d="M306.437,89.077l3.716,11.788a2.658,2.658,0,0,0,.769,1.281l1.538,1.409a3.149,3.149,0,0,1,.641,3.46h0a2.881,2.881,0,0,0,3.2,4.1l7.56-1.409a2.866,2.866,0,0,0,2.306-3.716l-.641-2.306a2.658,2.658,0,0,0-.769-1.281l-6.022-5.638a2.922,2.922,0,0,1-.9-2.434l.513-6.15a3.035,3.035,0,0,0-1.922-3.075L312.2,83.439a3.006,3.006,0,0,0-3.075.641l-1.794,1.794A2.956,2.956,0,0,0,306.437,89.077Z" transform="translate(86.121 23.425)" fill="#3bc780"/>
      <path id="패스_153" data-name="패스 153" d="M301.638,97.932l-2.947,5a2.88,2.88,0,0,0,2.435,4.356l3.2.128A3.343,3.343,0,0,0,307.019,106l2.563-4.228a2.937,2.937,0,0,0,.256-2.306l-.384-1.409a2.975,2.975,0,0,0-3.331-2.05l-2.435.384A3.183,3.183,0,0,0,301.638,97.932Z" transform="translate(83.873 26.998)" fill="#3bc780"/>
      <path id="패스_154" data-name="패스 154" d="M346.283,118.4l-22.551,15.76a2.3,2.3,0,0,0-.641.9L319.5,149.668a1.378,1.378,0,0,1-1.153,1.025l-14.991,3.2a1.5,1.5,0,0,0-1.153,1.409v13.838a1.5,1.5,0,0,0,1.153,1.409l13.838,2.563a1.288,1.288,0,0,0,1.409-.641l8.072-11.147a.125.125,0,0,1,.128-.128l9.482-11.019a1.627,1.627,0,0,1,.9-.513l13.582-1.409a1.645,1.645,0,0,1,1.281.513l12.941,15.248a.971.971,0,0,1,.256.513h0a1.4,1.4,0,0,0,2.563.384l1.281-2.178a1.245,1.245,0,0,0,.128-1.153l-1.409-4.869a1.708,1.708,0,0,0-.384-.641l-5.638-5.894a1.421,1.421,0,0,1,1.538-2.306l7.56,2.691a1.155,1.155,0,0,1,.769.769l6.15,14.223a1.333,1.333,0,0,0,1.666.769l2.563-.641a1.248,1.248,0,0,0,1.025-1.281l.513-5.894a1.231,1.231,0,0,1,.769-1.153l2.178-1.153a1.5,1.5,0,0,1,2.05.769l3.2,9.354a1.557,1.557,0,0,0,1.281,1.025l15.632,1.409a1.448,1.448,0,0,1,1.281,1.666L407.785,182.6a1.324,1.324,0,0,1-1.538,1.153l-23.576-2.434-27.036-2.434h-.256l-19.348-5.253c-.256,0-.384-.128-.641,0l-27.036,4.741a1.3,1.3,0,0,0-.9.513L296.952,193.1l-12.685,16.785a1,1,0,0,0-.256,1.025l3.075,21.4a2.713,2.713,0,0,0,.384.9l19.22,18.323a1.455,1.455,0,0,0,1.025.384h25.626l15.5-1.794a1.081,1.081,0,0,1,.9.256l6.535,4.228a1.529,1.529,0,0,1,.641,1.153l-.128,19.22a.77.77,0,0,0,.128.513L360.889,286a1.155,1.155,0,0,1,.128.641l-2.434,24.217a1.155,1.155,0,0,0,.128.641l14.607,38.7a1.576,1.576,0,0,0,1.409.9h18.579a1.409,1.409,0,0,0,1.281-.769l16.273-30.5c0-.128.128-.128.128-.256l3.972-12.941a1.723,1.723,0,0,1,.769-.9l11.66-6.022a1.409,1.409,0,0,0,.769-1.281V271.392a1.821,1.821,0,0,1,.256-.769l20.117-32.033a1.485,1.485,0,0,0-.9-2.178l-13.326-2.947a2.065,2.065,0,0,1-.9-.513l-20.757-29.214a1.5,1.5,0,0,1,1.025-2.306l5.51-.384a1.3,1.3,0,0,1,1.281.641l17.938,25.242a1.411,1.411,0,0,0,1.922.384L469.8,211.3a1.388,1.388,0,0,0,.256-2.306l-17.682-16.016a1.4,1.4,0,0,1,1.153-2.434l43.18,6.15a4.114,4.114,0,0,1,3.2,2.563l13.966,34.6.384.769,3.46,5a4.232,4.232,0,0,0,5.51,1.281h0A4.525,4.525,0,0,0,524.9,239.1l13.582-27.932a4.1,4.1,0,0,1,7.047-.641l7.3,9.738c.128.256.384.512.384.769l7.56,16.144a4.3,4.3,0,0,0,3.588,2.434l19.348.769a4.164,4.164,0,0,0,3.2-1.409l38.055-42.283a4.221,4.221,0,0,0,.9-3.844l-7.688-26.907a1.4,1.4,0,0,1,1.153-1.794l13.838-2.434c.256,0,.384-.128.641-.256l21.013-14.863.384-.384,17.3-25.5a.125.125,0,0,1,.128-.128l16.144-19.732a.7.7,0,0,1,.641-.384l30.111-10.635c.128,0,.256-.128.513-.128h16.785l36.9-6.407a1.107,1.107,0,0,0,.769-.384l5.253-5.125a1.469,1.469,0,0,0-.513-2.434l-55.1-17.17h-.256l-47.536-5.125-63.3-7.816c-.128,0-.384-.128-.513-.128l-25.5-12.685a1.9,1.9,0,0,0-.9-.128l-61.631,8.457c-.128,0-.384.128-.513.128L489.533,59.848a.77.77,0,0,1-.513.128l-27.8,3.588h-.256L423.033,75.608a.817.817,0,0,1-.769,0l-11.916-2.563c-.384-.128-.769-.256-.9-.641l-9.61-15.5a1.577,1.577,0,0,0-1.281-.641l-31.776,1.281a1,1,0,0,0-.9.384L338.467,85.6a1.455,1.455,0,0,0-.384,1.025v14.094a1.409,1.409,0,0,0,.769,1.281l7.688,3.716a1.148,1.148,0,0,0,1.409-.128l12.941-8.072c.256-.128.384-.384.513-.513l7.816-14.863a1.461,1.461,0,0,1,1.538-.769l7.3,1.409a1.469,1.469,0,0,1,1.153,1.922l-3.075,8.969a1.722,1.722,0,0,1-.769.9l-4.741,2.05a1.543,1.543,0,0,0-.9,1.281v10.635a1.576,1.576,0,0,1-.9,1.409L346.8,118.276C346.539,118.276,346.411,118.4,346.283,118.4Z" transform="translate(79.846 9.089)" fill="#3bc780"/>
      <path id="패스_155" data-name="패스 155" d="M570.961,237.505l-37.414,17.426a3.371,3.371,0,0,0-1.794,2.691l-1.153,28.7a2.991,2.991,0,0,0,1.281,2.563l6.663,5a2.712,2.712,0,0,0,2.435.512l32.289-6.919a2.62,2.62,0,0,1,1.409,0l14.735,3.588a3.075,3.075,0,0,1,1.538.9l6.919,7.816a3.208,3.208,0,0,0,2.306,1.025h23.448a3.069,3.069,0,0,0,3.075-2.819l2.435-26.267a2.989,2.989,0,0,0-.769-2.306l-17.81-19.091-.128-.128L599.15,236.224a3.045,3.045,0,0,0-4.613-.128l-3.331,3.588a2.788,2.788,0,0,0-.641,2.947v.128a3.092,3.092,0,0,1-5,3.2h0a2.683,2.683,0,0,1-1.025-2.434l.256-4.228a3.073,3.073,0,0,0-2.435-3.2l-6.535-1.281a2.94,2.94,0,0,0-3.075,1.281l-.256.384A7.955,7.955,0,0,1,570.961,237.505Z" transform="translate(149.227 66.039)" fill="#3bc780"/>
      <path id="패스_156" data-name="패스 156" d="M643.832,290.806l-1.666,4.1a4.54,4.54,0,0,0,.513,4.228h0a4.553,4.553,0,0,0,7.432,0l2.306-3.46a4.459,4.459,0,0,0-.513-5.638l-.641-.641A4.567,4.567,0,0,0,643.832,290.806Z" transform="translate(180.527 81.032)" fill="#3bc780"/>
      <path id="패스_157" data-name="패스 157" d="M637.747,300.844l-8.328,7.432a4.479,4.479,0,0,0,1.025,7.3l1.538.769a4.345,4.345,0,0,0,3.972,0l6.919-3.2a4.38,4.38,0,0,0,2.563-3.716l.256-4.869a4.332,4.332,0,0,0-2.563-4.228l-.513-.256A4.854,4.854,0,0,0,637.747,300.844Z" transform="translate(176.617 84.319)" fill="#3bc780"/>
      <path id="패스_158" data-name="패스 158" d="M495.807,208.632,515.8,228.62a3.01,3.01,0,0,0,1.794.9l34.852,6.15a3.281,3.281,0,0,0,3.716-2.434l.128-.641a3.182,3.182,0,0,0-2.819-3.972l-27.548-2.434a4.211,4.211,0,0,1-2.05-.9l-21.91-21.782a3.449,3.449,0,0,0-3.46-.769l-1.538.513A3.311,3.311,0,0,0,495.807,208.632Z" transform="translate(139.175 56.985)" fill="#3bc780"/>
      <path id="패스_159" data-name="패스 159" d="M532.4,204.8l-8.457,6.535a4.055,4.055,0,0,0-.384,6.022l.9.9a4.322,4.322,0,0,0,2.563,1.153l9.354.769A4.084,4.084,0,0,0,539.7,218.9l3.46-3.716a4.06,4.06,0,0,0,.9-3.972l-1.025-3.075A6.861,6.861,0,0,0,532.4,204.8Z" transform="translate(146.919 57.226)" fill="#3bc780"/>
      <path id="패스_160" data-name="패스 160" d="M571.613,213.614l19.732,2.947a3.812,3.812,0,0,1,2.563,1.538l5.382,7.047a4.134,4.134,0,0,1-1.538,6.15l-.9.384a4.326,4.326,0,0,1-2.563.256l-17.041-3.716a4.032,4.032,0,0,1-1.922-1.025l-7.047-6.663a3.649,3.649,0,0,1-1.153-3.716h0A3.762,3.762,0,0,1,571.613,213.614Z" transform="translate(159.467 60.076)" fill="#3bc780"/>
      <path id="패스_161" data-name="패스 161" d="M562.978,149.19c4.485-2.434,14.351-8.585,17.682-10.763A3.7,3.7,0,0,0,582.2,136.5l5.382-17.554a3.518,3.518,0,0,1,3.972-2.434l2.306.384a3.613,3.613,0,0,1,2.691,5l-12.941,28.829a3.775,3.775,0,0,1-2.563,2.05l-15.5,2.947a3.616,3.616,0,0,1-4.228-3.331h0A2.928,2.928,0,0,1,562.978,149.19Z" transform="translate(157.851 32.758)" fill="#3bc780"/>
      <path id="패스_162" data-name="패스 162" d="M118.9,47.51l15.376-4.485a3.734,3.734,0,0,0,2.434-5.253l-1.922-4.356a3.883,3.883,0,0,0-4.1-2.306l-14.863,2.434a3.857,3.857,0,0,0-3.2,4.613l1.409,6.535A3.836,3.836,0,0,0,118.9,47.51Z" transform="translate(31.619 8.742)" fill="#3bc780"/>
      <path id="패스_163" data-name="패스 163" d="M141.336,37.37l1.025,3.588a3.77,3.77,0,0,0,4.1,2.691l16.4-2.178a3.869,3.869,0,0,0,2.434-6.278h0a3.345,3.345,0,0,0-2.563-1.281l-17.3-1.409A3.854,3.854,0,0,0,141.336,37.37Z" transform="translate(39.679 9.144)" fill="#3bc780"/>
      <path id="패스_164" data-name="패스 164" d="M155.743,8.879,133.32,18.361a3.887,3.887,0,0,0,1.025,7.432h.256L169.965,27.2a4.022,4.022,0,0,0,2.691-.9l5.766-5a3.892,3.892,0,0,0-1.409-6.663L158.433,8.751A3.294,3.294,0,0,0,155.743,8.879Z" transform="translate(36.803 2.399)" fill="#3bc780"/>
    </g>
    <g id="그룹_69" data-name="그룹 69" transform="translate(721 856.161)">
      <path id="패스_144" data-name="패스 144" d="M22.856,29.752,19.9,29.9c-.273-1.916,1.614-3.944.622-5.629-.21-.357-.529-.642-.73-1-.816-1.459.631-3.3.082-4.872-.44-1.268-2.057-1.96-2.344-3.269-.182-.822.224-1.7,0-2.51-.31-1.146-1.685-1.707-2.3-2.735a5.83,5.83,0,0,1-.529-2.338A11.191,11.191,0,0,0,10.262,0,4.978,4.978,0,0,1,7.855,3.944c-.776.465-1.756.811-2.069,1.633-.435,1.138.727,2.373.421,3.547a4.872,4.872,0,0,1-.989,1.5c-2.165,2.945.159,7.46-1.938,10.449a12.616,12.616,0,0,0-1.262,1.7A4.923,4.923,0,0,0,1.7,24.913q0,2.846-.006,5.689a.959.959,0,0,0-1.426.2,2.252,2.252,0,0,0-.227,1.562,12.686,12.686,0,0,0,5.8,9.415A10.331,10.331,0,0,0,17.8,40.811C20.918,38.209,22.168,33.508,22.856,29.752Z" fill="#3bc780" opacity="0.65"/>
      <path id="합치기_48" data-name="합치기 48" d="M-1160.844-809.6l.4-34.347-5.556-7.449.706.218,4.878,4.875.115-9.862h.781l.158,13.6,2.1-4.48h.974l-2.983,7.877-.05-.22.347,29.793Z" transform="translate(1171.257 873.605)" fill="#77be9a" opacity="0.802"/>
    </g>
    <g id="그룹_70" data-name="그룹 70" transform="translate(304 825.153)">
      <path id="패스_144-2" data-name="패스 144" d="M0,39.052c1.236.064,2.476.132,3.712.2.343-2.515-2.029-5.177-.782-7.388.264-.468.665-.843.918-1.315,1.025-1.915-.793-4.334-.1-6.395.554-1.665,2.587-2.572,2.947-4.291.229-1.079-.282-2.226,0-3.294.389-1.5,2.119-2.24,2.887-3.59a7.935,7.935,0,0,0,.665-3.069A14.824,14.824,0,0,1,15.834,0,6.579,6.579,0,0,0,18.86,5.177c.975.611,2.208,1.065,2.6,2.144.547,1.493-.915,3.115-.529,4.655a6.427,6.427,0,0,0,1.243,1.969c2.722,3.866-.2,9.793,2.437,13.715A16.532,16.532,0,0,1,26.2,29.888a6.721,6.721,0,0,1,.4,2.812q.005,3.735.007,7.467a1.175,1.175,0,0,1,1.793.264,3.07,3.07,0,0,1,.286,2.051A16.762,16.762,0,0,1,21.4,54.84,12.555,12.555,0,0,1,6.352,53.568C2.437,50.152.865,43.982,0,39.052Z" fill="#3bc780" opacity="0.65"/>
      <path id="합치기_46" data-name="합치기 46" d="M-745.6-764.033l.453-38.968L-749-813.188h1.279l2.632,5.629.2-17.595h1.025l.148,12.714,6.172-6.169.925-.286-7.062,9.47.528,45.392Z" transform="translate(758.843 848.05)" fill="#77be9a" opacity="0.802"/>
    </g>
    <g id="그룹_72" data-name="그룹 72" transform="translate(352.735 920)">
      <path id="패스_144-3" data-name="패스 144" d="M30.932,27.5l-4,.138c-.369-1.771,2.184-3.646.842-5.2-.285-.33-.715-.594-.988-.926-1.1-1.349.854-3.052.112-4.5-.6-1.172-2.784-1.812-3.173-3.022-.246-.76.3-1.568,0-2.32-.419-1.059-2.28-1.578-3.107-2.529a4.031,4.031,0,0,1-.715-2.161c-.481-2.725-2.7-5.3-6.022-6.977-.1,1.462-1.361,2.868-3.257,3.646-1.05.43-2.377.75-2.8,1.51-.588,1.052.984,2.194.569,3.278-.2.533-.854.936-1.338,1.386-2.93,2.722.215,6.9-2.623,9.659a13.284,13.284,0,0,0-1.707,1.57,3.267,3.267,0,0,0-.435,1.98q-.006,2.631-.008,5.259a1.706,1.706,0,0,0-1.931.186,1.522,1.522,0,0,0-.308,1.444c.592,3.465,3.338,6.854,7.849,8.7a19.353,19.353,0,0,0,16.194-.9C28.309,35.32,30,30.975,30.932,27.5Z" transform="translate(0)" fill="#3bc780" opacity="0.65"/>
      <path id="합치기_47" data-name="합치기 47" d="M-793.162-876.956l.373-32-4.947-6.632.652.2,4.32,4.317.1-8.926h.722l.156,13.412,1.865-3.986h.9l-2.727,7.2.307,26.415Z" transform="translate(807.651 936.125)" fill="#77be9a" opacity="0.802"/>
    </g>
    <g id="그룹_78" data-name="그룹 78" transform="translate(699.293 868.774)">
      <path id="패스_165" data-name="패스 165" d="M.148,29.463s1.635,1.791,6.423,1.791c4.165,0,7.318-1.012,8.058-2.024C15.367,28.2,10.774,1.067,8.069.054S-1.1,20.14.148,29.463Z" fill="#3bc780" opacity="0.65"/>
      <path id="합치기_49" data-name="합치기 49" d="M-1143.592-835.474l1.027-22.227-1.727-4.554h.7l1.126,2.407.1-2.1-.93-2.58.544.428.439,1.009.262-5.68h.564l.5,10.99.628-1.687.389-.351-.915,4.274.915,20.074Z" transform="translate(1148.936 881.576)" fill="#77be9a" opacity="0.802"/>
    </g>
    <g id="그룹_79" data-name="그룹 79" transform="translate(380.293 959.774)">
      <path id="패스_165-2" data-name="패스 165" d="M.148,29.463s1.635,1.791,6.423,1.791c4.165,0,7.318-1.012,8.058-2.024C15.367,28.2,10.774,1.067,8.069.054S-1.1,20.14.148,29.463Z" fill="#3bc780" opacity="0.65"/>
      <path id="합치기_50" data-name="합치기 50" d="M-824.592-926.474l1.026-22.228-1.727-4.553h.7l1.125,2.407.1-2.105-.931-2.579.545.428.438,1.008.262-5.679h.564l.5,10.989.628-1.687.39-.35-.915,4.274.915,20.074Z" transform="translate(829.936 972.576)" fill="#77be9a" opacity="0.802"/>
    </g>
  </g>
</svg>
