<svg xmlns="http://www.w3.org/2000/svg" xmlns:xlink="http://www.w3.org/1999/xlink" viewBox="0 0 336 420">
  <defs>
    <style>
      .cls-1, .cls-17, .cls-18, .cls-8 {
        fill: #fff;
      }

      .cls-2, .cls-3 {
        fill: #1a1b1c;
      }

      .cls-2 {
        fill-rule: evenodd;
      }

      .cls-4 {
        fill: #f0f0f0;
      }

      .cls-5 {
        fill: #1c1c1c;
      }

      .cls-6 {
        fill: #757575;
      }

      .cls-7 {
        fill: #4fcf8f;
      }

      .cls-8 {
        opacity: 0.36;
      }

      .cls-10, .cls-9 {
        fill: #a0a1a5;
      }

      .cls-9 {
        opacity: 0.38;
      }

      .cls-11, .cls-13 {
        fill: #363738;
      }

      .cls-11 {
        opacity: 0.097;
      }

      .cls-12 {
        fill: #7f7f7f;
      }

      .cls-12, .cls-13 {
        opacity: 0.273;
      }

      .cls-14, .cls-16 {
        fill: #3ccb83;
      }

      .cls-15 {
        fill: #3bc780;
      }

      .cls-16 {
        stroke: #fff;
        stroke-width: 2px;
      }

      .cls-17 {
        font-size: 13px;
        font-family: InterUI-Black, Inter UI;
        font-weight: 800;
      }

      .cls-18 {
        font-size: 16px;
        font-family: InterUI-Medium, Inter UI;
        font-weight: 500;
      }

      .cls-19 {
        stroke: none;
      }

      .cls-20 {
        fill: none;
      }

      .cls-21 {
        filter: url(#Rectangle_497);
      }
    </style>
    <filter id="Rectangle_497" x="0" y="0" width="336" height="420" filterUnits="userSpaceOnUse">
      <feOffset dy="2" input="SourceAlpha"/>
      <feGaussianBlur stdDeviation="10" result="blur"/>
      <feFlood flood-opacity="0.082"/>
      <feComposite operator="in" in2="blur"/>
      <feComposite in="SourceGraphic"/>
    </filter>
  </defs>
  <g id="Card_2" data-name="Card 2" transform="translate(-472 -2210)">
    <g class="cls-21" transform="matrix(1, 0, 0, 1, 472, 2210)">
      <rect id="Rectangle_497-2" data-name="Rectangle 497" class="cls-1" width="276" height="360" rx="6" transform="translate(30 28)"/>
    </g>
    <path id="_" data-name="#" class="cls-2" d="M599.856,97.385H583.228l-.876-4.082a.349.349,0,0,0-.278-.293l-2.555-.022a.447.447,0,0,0-.537.523c0,.384,0,.567.458.616l1.588.156,2.761,13.791a1.236,1.236,0,0,0,1.1,1.036H598a1.237,1.237,0,0,0,1.1-1.038l1.862-9.441a1.048,1.048,0,0,0-1.1-1.246ZM585.2,107.645l-1.763-8.794h15.987l-1.739,8.794H585.2Zm10.633,2.931a2.2,2.2,0,1,0,2.2,2.2A2.2,2.2,0,0,0,595.833,110.576Zm0,2.931a.733.733,0,1,1,.733-.733A.733.733,0,0,1,595.833,113.507Zm-8.794-2.931a2.2,2.2,0,1,0,2.2,2.2A2.2,2.2,0,0,0,587.04,110.576Zm0,2.931a.733.733,0,1,1,.733-.733A.733.733,0,0,1,587.04,113.507Z" transform="translate(158.027 2157.022)"/>
    <path id="Union_3" data-name="Union 3" class="cls-3" d="M1,14a1,1,0,0,1,0-2H17a1,1,0,0,1,0,2ZM1,8A1,1,0,0,1,1,6H17a1,1,0,0,1,0,2ZM1,2A1,1,0,0,1,1,0H17a1,1,0,0,1,0,2Z" transform="translate(517 2254)"/>
    <rect id="Rectangle_499" data-name="Rectangle 499" class="cls-4" width="100" height="100" rx="3" transform="translate(527 2326)"/>
    <g id="Group_47" data-name="Group 47" transform="translate(539.055 2349.385)">
      <path id="Path_99" data-name="Path 99" class="cls-5" d="M10.36,11.621s2.083-6.591,7.742-7.3L43.191,24.631l-13.6,2.181Z" transform="translate(15.019 6.261)"/>
      <path id="Path_100" data-name="Path 100" class="cls-5" d="M6,8.867s4.19-5.219,2.891-7.84C10.235.218,11.411-.321,12.22.218s1.446,9.09-3.308,10.364S6,8.867,6,8.867Z" transform="translate(8.185 -0.001)"/>
      <path id="Path_101" data-name="Path 101" class="cls-6" d="M7.12,4.76S9.4,10.248,17.974,9.881,9.4,12.527,9.4,12.527Z" transform="translate(10.32 6.899)"/>
      <path id="Path_102" data-name="Path 102" class="cls-7" d="M5.508,6.015S7.934,1.066,9.184,3.639s2.3,10.927,5.586,10.658c2.3-.27,6.836-5.709,9.825-4.876S42.5,23.068,42.5,23.068,47.87,26.2,49.83,26.351L67.176,38.184l-39.495,1.4L6.145,19.981C6.145,20.005,5.19,6.628,5.508,6.015Z" transform="translate(7.889 4.198)"/>
      <path id="Path_103" data-name="Path 103" class="cls-8" d="M6.98,9.29c-.049,0,17.224,2.156,17.224,2.156l14.063,15.8L23.91,30.311Z" transform="translate(10.117 13.467)"/>
      <path id="Path_104" data-name="Path 104" class="cls-5" d="M13.228,4.32,7.2,13.116S-2.428,20.809.586,29.849c2.94,2.769,9.629,5.194,16.415,5.439,6.615.417,17.591,3.014,24.623,5.611C49,42.737,71.686,48.764,78.546,46.51c.931-3.528,1.176-10.29-6.37-11.883-9.555-.245-18.669-.588-19.5-.833a27.31,27.31,0,0,1-4.68-3.259c-.833-.662-2.352-.417-3.43.417s-7.546,5.023-8.869,4.778a3.413,3.413,0,0,1-2.083-1.421S14.306,15.884,13.228,4.32Z" transform="translate(-0.002 6.261)"/>
      <path id="Path_105" data-name="Path 105" class="cls-9" d="M5.863,9.88S.424,14.511,2.188,16.446c1.936,1.176,6.787,1.838,6.787,1.838Z" transform="translate(2.659 14.323)"/>
      <path id="Path_106" data-name="Path 106" class="cls-10" d="M8.329,11.51,6.05,14.573l2.279,3.063,2.279-3.063Z" transform="translate(8.769 16.686)"/>
    </g>
    <rect id="Rectangle_509" data-name="Rectangle 509" class="cls-11" width="227.282" height="4" rx="2" transform="translate(526 2469)"/>
    <rect id="Rectangle_506" data-name="Rectangle 506" class="cls-12" width="92" height="8" rx="4" transform="translate(526 2493)"/>
    <rect id="Rectangle_507" data-name="Rectangle 507" class="cls-12" width="54" height="8" rx="4" transform="translate(699 2493)"/>
    <g id="Group_61" data-name="Group 61" transform="translate(0 859)">
      <rect id="Rectangle_500" data-name="Rectangle 500" class="cls-13" width="104.282" height="6" rx="3" transform="translate(642 1514)"/>
      <rect id="Rectangle_501" data-name="Rectangle 501" class="cls-12" width="54" height="6" rx="3" transform="translate(642 1529)"/>
      <rect id="Rectangle_502" data-name="Rectangle 502" class="cls-14" width="21" height="6" rx="3" transform="translate(642 1499)"/>
    </g>
    <rect id="Rectangle_503" data-name="Rectangle 503" class="cls-15" width="226" height="50" rx="3" transform="translate(527 2523)"/>
    <g id="Group_48" data-name="Group 48" transform="translate(-145 966)">
      <g id="Group_46" data-name="Group 46" transform="translate(77.645 554.645)">
        <g id="Ellipse_1" data-name="Ellipse 1" class="cls-16" transform="translate(683 795.584)">
          <ellipse class="cls-19" cx="10.855" cy="10.855" rx="10.855" ry="10.855"/>
          <ellipse class="cls-20" cx="10.855" cy="10.855" rx="11.855" ry="11.855"/>
        </g>
      </g>
      <text id="_1" data-name="1" class="cls-17" transform="translate(768 1366)"><tspan x="0" y="0">1</tspan></text>
    </g>
    <text id="Proceed_to_Checkout" data-name="Proceed to Checkout" class="cls-18" transform="translate(640 2554)"><tspan x="-79.108" y="0">Proceed to Checkout</tspan></text>
    <rect id="Rectangle_537" data-name="Rectangle 537" class="cls-4" width="276" height="2" transform="translate(502 2283)"/>
    <rect id="Rectangle_504" data-name="Rectangle 504" class="cls-14" width="29" height="2" transform="translate(735 2283)"/>
    <g transform="translate(600 2254)">
	<g>
		<path d="M33.636,8.332c-0.391,0.898-0.956,1.593-1.636,2.056c-0.666,0.478-1.463,0.724-2.288,0.724    c-2.303,0-4.258-1.868-4.258-4.258c0-2.245,1.767-4.316,4.214-4.316s4.243,1.941,4.243,4.388c0,0.319-0.029,0.449-0.058,0.637    h-6.025c0.145,0.956,0.941,1.521,1.883,1.521c0.739,0,1.129-0.333,1.463-0.753H33.636z M31.507,5.942    c-0.101-0.478-0.579-1.376-1.825-1.376c-1.245,0-1.723,0.898-1.825,1.376H31.507z"/>
		<path d="M43.342,10.852h-2.404V9.983h-0.029c-0.405,0.782-1.405,1.144-2.346,1.144c-2.549,0-4.041-1.999-4.041-4.301    c0-2.636,1.897-4.287,4.041-4.287c1.318,0,2.056,0.637,2.346,1.129h0.029V2.814h2.404V10.852z M38.925,8.882    c1.506,0,2.013-1.274,2.013-2.056c0-0.97-0.666-2.042-2.028-2.042c-1.376,0-1.984,1.158-1.984,2.071    C36.926,7.608,37.477,8.882,38.925,8.882z"/>
		<path d="M44.139,2.814h2.259v0.854h0.029c0.203-0.391,0.623-1.129,2.013-1.129v2.419c-1.115,0.029-1.897,0.261-1.897,1.477v4.417    h-2.404V2.814z"/>
		<path d="M49.925,10.852h-2.505V8.39h2.505V10.852z"/>
		<path d="M58.89,7.796c-0.434,1.825-2.042,3.316-4.214,3.316c-2.433,0-4.301-1.912-4.301-4.301c0-2.361,1.839-4.272,4.243-4.272    c2.129,0,3.852,1.405,4.258,3.374h-2.433c-0.261-0.55-0.739-1.129-1.738-1.129c-1.144-0.058-1.912,0.884-1.912,2.042    c0,1.173,0.768,2.042,1.912,2.042c0.999,0,1.477-0.579,1.738-1.072H58.89z"/>
		<path d="M63.778,2.43c2.925,0,4.33,2.303,4.33,4.272s-1.405,4.272-4.33,4.272c-2.925,0-4.33-2.303-4.33-4.272    S60.852,2.43,63.778,2.43z M63.778,8.73c1.043,0,1.926-0.854,1.926-2.027s-0.883-2.027-1.926-2.027    c-1.043,0-1.926,0.854-1.926,2.027S62.735,8.73,63.778,8.73z"/>
		<path d="M24.909,6.826c0-1.97-1.405-4.272-4.33-4.272c-2.925,0-4.33,2.303-4.33,4.272s1.405,4.272,4.33,4.272    c0.738,0,1.379-0.147,1.926-0.398v0.555c-0.004,1.169-0.885,2.02-1.926,2.02c-0.863,0-1.615-0.587-1.849-1.454h-2.438    c0.244,1.817,1.642,3.699,4.287,3.699c2.922,0,4.327-2.297,4.33-4.265L24.909,6.826z M20.579,8.853    c-1.043,0-1.926-0.854-1.926-2.027c0-1.173,0.884-2.027,1.926-2.027c1.043,0,1.926,0.854,1.926,2.027    C22.505,7.999,21.621,8.853,20.579,8.853z"/>
		<path d="M68.715,2.691h2.245v0.854h0.029c0.188-0.333,0.71-1.129,2.216-1.129c0.71,0,1.68,0.246,2.317,1.434    c0.492-0.782,1.318-1.434,2.549-1.434c0.565,0,1.463,0.13,2.114,0.811c0.753,0.797,0.869,1.332,0.869,3.114v4.388H78.65V6.456    c0-0.652,0-1.781-1.231-1.781c-1.332,0-1.332,1.216-1.332,1.665v4.388h-2.404V6.355c0-0.434,0-1.68-1.202-1.68    c-1.361,0-1.361,1.303-1.361,1.781v4.272h-2.404V2.691z"/>
	</g>
	<path d="M3.468,10.435c0,0-2.414,0.025-2.414,0c0-1.333,1.081-2.414,2.414-2.414h2.414v2.414c0,1.333-1.081,2.414-2.414,2.414   L3.468,10.435z M6.788,12.849c1.333,0,2.414-1.081,2.414-2.414V4.701H3.468c-1.333,0-2.414,1.081-2.414,2.414l5.734,0L6.788,12.849   z M10.107,12.849c1.333,0,2.414-1.081,2.414-2.414V1.382H3.468c-1.333,0-2.414,1.081-2.414,2.414l9.053,0L10.107,12.849z"/>
    </g>
  </g>
</svg>
