<svg xmlns="http://www.w3.org/2000/svg" xmlns:xlink="http://www.w3.org/1999/xlink" viewBox="0 0 598 504">
  <defs>
    <style>
      .cls-1 {
        fill: #fff;
      }

      .cls-10, .cls-2 {
        fill: #1a1b1c;
      }

      .cls-2 {
        fill-rule: evenodd;
      }

      .cls-3 {
        fill: #363738;
      }

      .cls-3, .cls-4 {
        opacity: 0.273;
      }

      .cls-4 {
        fill: #7f7f7f;
      }

      .cls-16, .cls-5 {
        fill: none;
      }

      .cls-5 {
        stroke: #3ccb83;
        stroke-width: 2px;
        opacity: 0.279;
      }

      .cls-6 {
        fill: #3ccb83;
      }

      .cls-6, .cls-8 {
        font-size: 14px;
      }

      .cls-6, .cls-9 {
        font-family: InterUI-Bold, Inter UI;
        font-weight: 700;
      }

      .cls-7 {
        fill: #f0f0f0;
      }

      .cls-8 {
        fill: #262626;
        font-family: InterUI-Regular, Inter UI;
        letter-spacing: 0.02em;
      }

      .cls-11 {
        fill: #3bc780;
      }

      .cls-12 {
        opacity: 0.67;
      }

      .cls-13 {
        fill: #201f1d;
      }

      .cls-14 {
        fill: #acaeb5;
        opacity: 0.28;
      }

      .cls-15 {
        stroke: none;
      }

      .cls-17 {
        filter: url(#Rectangle_549);
      }

      .cls-18 {
        filter: url(#Rectangle_544);
      }

      .cls-19 {
        filter: url(#Rectangle_525);
      }

      .cls-20 {
        filter: url(#Rectangle_522);
      }
    </style>
    <filter id="Rectangle_522" x="0" y="0" width="598" height="504" filterUnits="userSpaceOnUse">
      <feOffset dy="2" input="SourceAlpha"/>
      <feGaussianBlur stdDeviation="10" result="blur"/>
      <feFlood flood-opacity="0.082"/>
      <feComposite operator="in" in2="blur"/>
      <feComposite in="SourceGraphic"/>
    </filter>
    <filter id="Rectangle_525" x="30" y="75" width="135" height="135" filterUnits="userSpaceOnUse">
      <feOffset dy="2" input="SourceAlpha"/>
      <feGaussianBlur stdDeviation="10" result="blur-2"/>
      <feFlood flood-opacity="0.082"/>
      <feComposite operator="in" in2="blur-2"/>
      <feComposite in="SourceGraphic"/>
    </filter>
    <filter id="Rectangle_544" x="30" y="208" width="135" height="135" filterUnits="userSpaceOnUse">
      <feOffset dy="2" input="SourceAlpha"/>
      <feGaussianBlur stdDeviation="10" result="blur-3"/>
      <feFlood flood-opacity="0.082"/>
      <feComposite operator="in" in2="blur-3"/>
      <feComposite in="SourceGraphic"/>
    </filter>
    <filter id="Rectangle_549" x="30" y="341" width="135" height="135" filterUnits="userSpaceOnUse">
      <feOffset dy="2" input="SourceAlpha"/>
      <feGaussianBlur stdDeviation="10" result="blur-4"/>
      <feFlood flood-opacity="0.082"/>
      <feComposite operator="in" in2="blur-4"/>
      <feComposite in="SourceGraphic"/>
    </filter>
  </defs>
  <g id="UI" transform="translate(-341 -2946)">
    <g class="cls-20" transform="matrix(1, 0, 0, 1, 341, 2946)">
      <rect id="Rectangle_522-2" data-name="Rectangle 522" class="cls-1" width="538" height="444" rx="6" transform="translate(30 28)"/>
    </g>
    <g class="cls-19" transform="matrix(1, 0, 0, 1, 341, 2946)">
      <rect id="Rectangle_525-2" data-name="Rectangle 525" class="cls-1" width="75" height="75" rx="6" transform="translate(60 103)"/>
    </g>
    <g class="cls-18" transform="matrix(1, 0, 0, 1, 341, 2946)">
      <rect id="Rectangle_544-2" data-name="Rectangle 544" class="cls-1" width="75" height="75" rx="6" transform="translate(60 236)"/>
    </g>
    <rect id="Rectangle_500" data-name="Rectangle 500" class="cls-3" width="171.141" height="6" rx="3" transform="translate(493 3091)"/>
    <rect id="Rectangle_545" data-name="Rectangle 545" class="cls-3" width="171.141" height="6" rx="3" transform="translate(493 3224)"/>
    <rect id="Rectangle_501" data-name="Rectangle 501" class="cls-4" width="54" height="6" rx="3" transform="translate(493 3106)"/>
    <rect id="Rectangle_546" data-name="Rectangle 546" class="cls-4" width="54" height="6" rx="3" transform="translate(493 3239)"/>
    <g id="Group_196" data-name="Group 196" transform="translate(146 68)">
      <g id="Rectangle_532" data-name="Rectangle 532" class="cls-5" transform="translate(577 2999)">
        <rect class="cls-15" width="156" height="39" rx="19.5"/>
        <rect class="cls-16" x="1" y="1" width="154" height="37" rx="18.5"/>
      </g>
      <text id="Donate_to_Charity" data-name="Donate to Charity" class="cls-6" transform="translate(655 3024)"><tspan x="-58.1" y="0">Donate to Charity</tspan></text>
    </g>
    <g id="Group_197" data-name="Group 197" transform="translate(146 68)">
      <g id="Rectangle_548" data-name="Rectangle 548" class="cls-5" transform="translate(605 3132)">
        <rect class="cls-15" width="128" height="39" rx="19.5"/>
        <rect class="cls-16" x="1" y="1" width="126" height="37" rx="18.5"/>
      </g>
      <text id="View_Product" data-name="View Product" class="cls-6" transform="translate(669 3157)"><tspan x="-44.257" y="0">View Product</tspan></text>
    </g>
    <rect id="Rectangle_534" data-name="Rectangle 534" class="cls-7" width="538" height="2" transform="translate(371 3019)"/>
    <rect id="Rectangle_536" data-name="Rectangle 536" class="cls-7" width="508" height="2" transform="translate(401 3152)"/>
    <rect id="Rectangle_547" data-name="Rectangle 547" class="cls-7" width="508" height="2" transform="translate(401 3285)"/>
    <path id="_" data-name="#" class="cls-2" d="M599.856,97.385H583.228l-.876-4.082a.349.349,0,0,0-.278-.293l-2.555-.022a.447.447,0,0,0-.537.523c0,.384,0,.567.458.616l1.588.156,2.761,13.791a1.236,1.236,0,0,0,1.1,1.036H598a1.237,1.237,0,0,0,1.1-1.038l1.862-9.441a1.048,1.048,0,0,0-1.1-1.246ZM585.2,107.645l-1.763-8.794h15.987l-1.739,8.794H585.2Zm10.633,2.931a2.2,2.2,0,1,0,2.2,2.2A2.2,2.2,0,0,0,595.833,110.576Zm0,2.931a.733.733,0,1,1,.733-.733A.733.733,0,0,1,595.833,113.507Zm-8.794-2.931a2.2,2.2,0,1,0,2.2,2.2A2.2,2.2,0,0,0,587.04,110.576Zm0,2.931a.733.733,0,1,1,.733-.733A.733.733,0,0,1,587.04,113.507Z" transform="translate(282.027 2893.022)"/>
    <text id="A_charity_shared_a_post" data-name="A charity shared a post" class="cls-8" transform="translate(495 3074)"><tspan x="0" y="0">A </tspan><tspan class="cls-9" y="0">charity</tspan><tspan y="0" xml:space="preserve"> shared a post</tspan></text>
    <text id="Your_friend_shared_a_product" data-name="Your friend shared a product" class="cls-8" transform="translate(495 3207)"><tspan x="0" y="0">Your </tspan><tspan class="cls-9" y="0">friend</tspan><tspan y="0" xml:space="preserve"> shared a product</tspan></text>
    <g class="cls-17" transform="matrix(1, 0, 0, 1, 341, 2946)">
      <rect id="Rectangle_549-2" data-name="Rectangle 549" class="cls-1" width="75" height="75" rx="6" transform="translate(60 369)"/>
    </g>
    <rect id="Rectangle_550" data-name="Rectangle 550" class="cls-3" width="171.141" height="6" rx="3" transform="translate(493 3357)"/>
    <rect id="Rectangle_551" data-name="Rectangle 551" class="cls-4" width="54" height="6" rx="3" transform="translate(493 3372)"/>
    <g id="Group_198" data-name="Group 198" transform="translate(146 68)">
      <g id="Rectangle_552" data-name="Rectangle 552" class="cls-5" transform="translate(577 3265)">
        <rect class="cls-15" width="156" height="39" rx="19.5"/>
        <rect class="cls-16" x="1" y="1" width="154" height="37" rx="18.5"/>
      </g>
      <text id="Donate_to_Charity-2" data-name="Donate to Charity" class="cls-6" transform="translate(655 3290)"><tspan x="-58.1" y="0">Donate to Charity</tspan></text>
    </g>
    <text id="A_charity_shared_a_post-2" data-name="A charity shared a post" class="cls-8" transform="translate(495 3340)"><tspan x="0" y="0">A </tspan><tspan class="cls-9" y="0">charity</tspan><tspan y="0" xml:space="preserve"> shared a post</tspan></text>
    <path id="Union_44" data-name="Union 44" class="cls-10" d="M1,14a1,1,0,0,1,0-2H17a1,1,0,0,1,0,2ZM1,8A1,1,0,0,1,1,6H17a1,1,0,0,1,0,2ZM1,2A1,1,0,0,1,1,0H17a1,1,0,0,1,0,2Z" transform="translate(386 2990)"/>
    <path id="Path_290" data-name="Path 290" class="cls-11" d="M29.933,6.9a6.9,6.9,0,0,0-.184-1.286V5.59h0A7.42,7.42,0,0,0,22.454,0a7.8,7.8,0,0,0-4.96,1.785h0A7.035,7.035,0,0,0,14.948,4.8,7.035,7.035,0,0,0,12.4,1.785h0A7.669,7.669,0,0,0,7.469,0,7.473,7.473,0,0,0,.147,5.59h0v.026A10.112,10.112,0,0,0-.037,6.9c-.525,9.054,14.985,19.315,14.985,19.315S30.458,15.956,29.933,6.9Zm-14.985.289V6.928h0Z" transform="translate(424.05 3073)"/>
    <g id="Group_205" data-name="Group 205" transform="translate(421.015 3336)">
      <path id="Path_287" data-name="Path 287" class="cls-11" d="M32.3,0s-12.5,3-17,12.2C12,18.9,13.8,27,15,30.8L25.1,15.9a61.318,61.318,0,0,1-8.4,17c2.9-.9,12.3-4.3,16.1-12C37.4,11.8,32.3,0,32.3,0Z"/>
      <path id="Path_288" data-name="Path 288" class="cls-11" d="M1.8,5.8s-3.3,6.5-1,11.9c1.7,3.9,5.8,6.1,7.9,7L6,14.8a35.537,35.537,0,0,1,4.2,9.9c.7-1.6,2.7-6.9.8-11.4C8.8,8,1.8,5.8,1.8,5.8Z"/>
    </g>
    <g id="Group_208" data-name="Group 208" transform="translate(416.189 3196.189)">
      <path id="Path_298" data-name="Path 298" class="cls-11" d="M30.763,21.7H14.875A14.9,14.9,0,0,0,0,36.575v9.973A2.453,2.453,0,0,0,2.451,49H43.272a2.453,2.453,0,0,0,2.451-2.451V36.575A14.915,14.915,0,0,0,30.763,21.7Z" transform="translate(0 -3.362)"/>
      <path id="Path_299" data-name="Path 299" class="cls-12" d="M33.779,27.7h-16.9a.727.727,0,0,0-.676.676h0a.727.727,0,0,0,.676.676h16.9a.727.727,0,0,0,.676-.676h0A.667.667,0,0,0,33.779,27.7Z" transform="translate(-2.509 -4.291)"/>
      <rect id="Rectangle_681" data-name="Rectangle 681" width="1.014" height="2.366" transform="translate(15.973 24.085)"/>
      <rect id="Rectangle_682" data-name="Rectangle 682" class="cls-13" width="5.747" height="2.62" transform="translate(19.945 30.255)"/>
      <rect id="Rectangle_683" data-name="Rectangle 683" class="cls-1" width="4.226" height="0.761" transform="translate(20.706 31.269)"/>
      <g id="Group_207" data-name="Group 207" transform="translate(6.423 -0.008)">
        <path id="Path_300" data-name="Path 300" class="cls-14" d="M16.643,21.685l-3.127,27.3H7.6l4.057-26.791a15.566,15.566,0,0,1,3.972-.592h1.014Z" transform="translate(-7.6 -3.338)"/>
        <path id="Path_301" data-name="Path 301" class="cls-14" d="M45.088,49H38.665L35.2,21.7h1.521a14.234,14.234,0,0,1,3.381.423h0l4.733,25.946Z" transform="translate(-11.874 -3.354)"/>
        <path id="Path_302" data-name="Path 302" d="M40.814,45.637H34.391l-3.465-27.3-.254-2.028L28.137,5.83s.085-4.479-4.986-4.564c-3.381,0-4.986,3.212-4.986,3.212l.592,1.859-2.2,11.917L13.516,45.637H7.6l4.057-26.791.254-1.69,2.113-8.367,3.634-5.832S20.869-.17,23.573,0c2.789.423,5.747,1.944,6.761,4.648l2.113,2.789,3.381,11.325h0l4.733,25.946Z" transform="translate(-7.6 0.008)"/>
      </g>
    </g>
    <g transform="translate(600 2990)">
	<g>
		<path d="M33.636,8.332c-0.391,0.898-0.956,1.593-1.636,2.056c-0.666,0.478-1.463,0.724-2.288,0.724    c-2.303,0-4.258-1.868-4.258-4.258c0-2.245,1.767-4.316,4.214-4.316s4.243,1.941,4.243,4.388c0,0.319-0.029,0.449-0.058,0.637    h-6.025c0.145,0.956,0.941,1.521,1.883,1.521c0.739,0,1.129-0.333,1.463-0.753H33.636z M31.507,5.942    c-0.101-0.478-0.579-1.376-1.825-1.376c-1.245,0-1.723,0.898-1.825,1.376H31.507z"/>
		<path d="M43.342,10.852h-2.404V9.983h-0.029c-0.405,0.782-1.405,1.144-2.346,1.144c-2.549,0-4.041-1.999-4.041-4.301    c0-2.636,1.897-4.287,4.041-4.287c1.318,0,2.056,0.637,2.346,1.129h0.029V2.814h2.404V10.852z M38.925,8.882    c1.506,0,2.013-1.274,2.013-2.056c0-0.97-0.666-2.042-2.028-2.042c-1.376,0-1.984,1.158-1.984,2.071    C36.926,7.608,37.477,8.882,38.925,8.882z"/>
		<path d="M44.139,2.814h2.259v0.854h0.029c0.203-0.391,0.623-1.129,2.013-1.129v2.419c-1.115,0.029-1.897,0.261-1.897,1.477v4.417    h-2.404V2.814z"/>
		<path d="M49.925,10.852h-2.505V8.39h2.505V10.852z"/>
		<path d="M58.89,7.796c-0.434,1.825-2.042,3.316-4.214,3.316c-2.433,0-4.301-1.912-4.301-4.301c0-2.361,1.839-4.272,4.243-4.272    c2.129,0,3.852,1.405,4.258,3.374h-2.433c-0.261-0.55-0.739-1.129-1.738-1.129c-1.144-0.058-1.912,0.884-1.912,2.042    c0,1.173,0.768,2.042,1.912,2.042c0.999,0,1.477-0.579,1.738-1.072H58.89z"/>
		<path d="M63.778,2.43c2.925,0,4.33,2.303,4.33,4.272s-1.405,4.272-4.33,4.272c-2.925,0-4.33-2.303-4.33-4.272    S60.852,2.43,63.778,2.43z M63.778,8.73c1.043,0,1.926-0.854,1.926-2.027s-0.883-2.027-1.926-2.027    c-1.043,0-1.926,0.854-1.926,2.027S62.735,8.73,63.778,8.73z"/>
		<path d="M24.909,6.826c0-1.97-1.405-4.272-4.33-4.272c-2.925,0-4.33,2.303-4.33,4.272s1.405,4.272,4.33,4.272    c0.738,0,1.379-0.147,1.926-0.398v0.555c-0.004,1.169-0.885,2.02-1.926,2.02c-0.863,0-1.615-0.587-1.849-1.454h-2.438    c0.244,1.817,1.642,3.699,4.287,3.699c2.922,0,4.327-2.297,4.33-4.265L24.909,6.826z M20.579,8.853    c-1.043,0-1.926-0.854-1.926-2.027c0-1.173,0.884-2.027,1.926-2.027c1.043,0,1.926,0.854,1.926,2.027    C22.505,7.999,21.621,8.853,20.579,8.853z"/>
		<path d="M68.715,2.691h2.245v0.854h0.029c0.188-0.333,0.71-1.129,2.216-1.129c0.71,0,1.68,0.246,2.317,1.434    c0.492-0.782,1.318-1.434,2.549-1.434c0.565,0,1.463,0.13,2.114,0.811c0.753,0.797,0.869,1.332,0.869,3.114v4.388H78.65V6.456    c0-0.652,0-1.781-1.231-1.781c-1.332,0-1.332,1.216-1.332,1.665v4.388h-2.404V6.355c0-0.434,0-1.68-1.202-1.68    c-1.361,0-1.361,1.303-1.361,1.781v4.272h-2.404V2.691z"/>
	</g>
	<path d="M3.468,10.435c0,0-2.414,0.025-2.414,0c0-1.333,1.081-2.414,2.414-2.414h2.414v2.414c0,1.333-1.081,2.414-2.414,2.414   L3.468,10.435z M6.788,12.849c1.333,0,2.414-1.081,2.414-2.414V4.701H3.468c-1.333,0-2.414,1.081-2.414,2.414l5.734,0L6.788,12.849   z M10.107,12.849c1.333,0,2.414-1.081,2.414-2.414V1.382H3.468c-1.333,0-2.414,1.081-2.414,2.414l9.053,0L10.107,12.849z"/>
    </g>
  </g>
</svg>
