<svg xmlns="http://www.w3.org/2000/svg" width="1413.93" height="183.164" viewBox="0 0 1413.93 183.164">
  <g id="그룹_209" data-name="그룹 209" transform="translate(50.719 -494.031)">
    <path id="패스_134" data-name="패스 134" d="M433.684,519.008l28.253-32.118,11.32-15.1,11.469,6.66,15.164-11.7h18.168l22.992-7.8,11.781,7.8,20.191,11.7,34.734-11.7,17.3-7.8,12.945,7.8h18.27l29.9-22.32L710.359,432l13.105,12.434h8.852L747.645,432l11.184,12.434,10.023-5.59h29.063L813.906,426.9h15.586l13.875-5.754L870.75,408.75l36.539,12.395,11.5-12.395h13.066l16.551-9.09h8.66l17.863-9.918,6.875-4.949h21.516l18.43,4.949,20.328,5.445,24.152-5.445,10.988,5.445h17.672l20.492,4.473H1130l8.43-4.473,11.68-5.445h16.02l13.855-4.949,20.859,4.949,7.41,5.445,13.859,13.563,23.527-9.09h10.879l28.941,4.359h24.82l14.484-8.832,11.77-5.445,15.582-14.348,19.8-9.363,19.008,9.363,13.965,14.348,20.566,9.918,18.84,4.359,25.438-4.359,26.027,9.09,37.6,12.395L1540.293,432l17.539,6.844s16.4-4.059,19.4,0,16.844,11.633,16.844,11.633H1621.1l7.605,8.48h30.465l17.512,7.8,11.5,5.039h20.086l19.383,6.66,17.654,30.395,62.905,40.348H394.281Z" transform="translate(-445 128)" fill="#fff"/>
  </g>
</svg>
