<svg xmlns="http://www.w3.org/2000/svg" viewBox="0 0 1826.001 351.56">
  <defs>
    <style>
      .cls-1, .cls-2, .cls-3, .cls-4, .cls-5 {
        fill: #fff;
      }

      .cls-1, .cls-3 {
        stroke: rgba(255,255,255,0.05);
      }

      .cls-1 {
        stroke-width: 20px;
      }

      .cls-1, .cls-2, .cls-3 {
        opacity: 0.532;
      }

      .cls-3 {
        stroke-width: 15px;
      }

      .cls-4 {
        opacity: 0.023;
      }

      .cls-5 {
        stroke: #707070;
        opacity: 0.049;
      }

      .cls-6 {
        stroke: none;
      }

      .cls-7 {
        fill: none;
      }
    </style>
  </defs>
  <g id="Landscape" transform="translate(316.266 -90.44)">
    <g id="Ellipse_14" data-name="Ellipse 14" class="cls-1" transform="translate(169 296)">
      <circle class="cls-6" cx="3" cy="3" r="3"/>
      <circle class="cls-7" cx="3" cy="3" r="13"/>
    </g>
    <circle id="Ellipse_15" data-name="Ellipse 15" class="cls-2" cx="3" cy="3" r="3" transform="translate(358 176)"/>
    <circle id="Ellipse_17" data-name="Ellipse 17" class="cls-2" cx="1" cy="1" r="1" transform="translate(1071 173)"/>
    <circle id="Ellipse_20" data-name="Ellipse 20" class="cls-2" cx="1" cy="1" r="1" transform="translate(1150 117)"/>
    <circle id="Ellipse_21" data-name="Ellipse 21" class="cls-2" cx="1" cy="1" r="1" transform="translate(1217 336)"/>
    <circle id="Ellipse_23" data-name="Ellipse 23" class="cls-2" cx="1" cy="1" r="1" transform="translate(229 376)"/>
    <circle id="Ellipse_24" data-name="Ellipse 24" class="cls-2" cx="1" cy="1" r="1" transform="translate(39 278)"/>
    <g id="Ellipse_18" data-name="Ellipse 18" class="cls-3" transform="translate(1104 344)">
      <circle class="cls-6" cx="2" cy="2" r="2"/>
      <circle class="cls-7" cx="2" cy="2" r="9.5"/>
    </g>
    <g id="Ellipse_19" data-name="Ellipse 19" class="cls-3" transform="translate(953 139)">
      <circle class="cls-6" cx="2" cy="2" r="2"/>
      <circle class="cls-7" cx="2" cy="2" r="9.5"/>
    </g>
    <path id="Path_137" data-name="Path 137" class="cls-4" d="M1680.258,135.017h-105.8l-13.539,17.593-68.082,15.332-46.437,23.1L1342.734,197v20.34l118.371,8.379s112.57,34.273,121.8,34.109,130.035-4.289,130.035-4.289L1874.7,248.91s40.051-54.625,27.656-57.871-71.629-49.879-79.992-48.445-123.008,0-123.008,0Z" transform="translate(-395 36)"/>
    <path id="Path_140" data-name="Path 140" class="cls-4" d="M1391.31,135.017h-15.226l-1.948,2.532-9.8,2.207-6.683,3.324-14.92.857v2.927l17.036,1.206s16.2,4.933,17.529,4.909,18.714-.617,18.714-.617l23.281-.953s5.764-7.862,3.98-8.329-10.309-7.178-11.512-6.972-17.7,0-17.7,0Z" transform="translate(-966.441 -44.577)"/>
    <path id="Path_138" data-name="Path 138" class="cls-4" d="M1680.258,135.017h-105.8l-13.539,17.593-68.082,15.332-46.437,23.1L1342.734,197v20.34l118.371,8.379s112.57,34.273,121.8,34.109,130.035-4.289,130.035-4.289L1874.7,248.91s40.051-54.625,27.656-57.871-71.629-49.879-79.992-48.445-123.008,0-123.008,0Z" transform="translate(-1659 -27)"/>
    <path id="Path_139" data-name="Path 139" class="cls-5" d="M469.777,202.473l98.4-9.879,14.664,9.879h31.266l14.133,7.152h36.438l39.875,10.957,22.336,13.164H751.75v10.8H638.324l-24.219,6.422-45.93,9.07H521.633l-12.809-15.492-49.5,6.422h-39.3l-4.918-21.508Z" transform="translate(-450 -11)"/>
    <circle id="Ellipse_22" data-name="Ellipse 22" class="cls-2" cx="1" cy="1" r="1" transform="translate(1227 440)"/>
  </g>
</svg>
