<svg xmlns="http://www.w3.org/2000/svg" xmlns:xlink="http://www.w3.org/1999/xlink" width="1028" height="420" viewBox="0 0 1028 420">
  <defs>
    <filter id="사각형_498" x="692" y="0" width="336" height="420" filterUnits="userSpaceOnUse">
      <feOffset dy="2" input="SourceAlpha"/>
      <feGaussianBlur stdDeviation="10" result="blur"/>
      <feFlood flood-opacity="0.082"/>
      <feComposite operator="in" in2="blur"/>
      <feComposite in="SourceGraphic"/>
    </filter>
    <filter id="사각형_512" x="722" y="47" width="276" height="27" filterUnits="userSpaceOnUse">
      <feOffset dy="1" input="SourceAlpha"/>
      <feGaussianBlur result="blur-2"/>
      <feFlood flood-opacity="0.059"/>
      <feComposite operator="in" in2="blur-2"/>
      <feComposite in="SourceGraphic"/>
    </filter>
    <filter id="사각형_520" x="716" y="174" width="287" height="136" filterUnits="userSpaceOnUse">
      <feOffset dy="2" input="SourceAlpha"/>
      <feGaussianBlur stdDeviation="10" result="blur-3"/>
      <feFlood flood-opacity="0.082"/>
      <feComposite operator="in" in2="blur-3"/>
      <feComposite in="SourceGraphic"/>
    </filter>
    <filter id="사각형_497" x="346" y="0" width="336" height="420" filterUnits="userSpaceOnUse">
      <feOffset dy="2" input="SourceAlpha"/>
      <feGaussianBlur stdDeviation="10" result="blur-4"/>
      <feFlood flood-opacity="0.082"/>
      <feComposite operator="in" in2="blur-4"/>
      <feComposite in="SourceGraphic"/>
    </filter>
    <filter id="사각형_472" x="0" y="0" width="336" height="420" filterUnits="userSpaceOnUse">
      <feOffset dy="2" input="SourceAlpha"/>
      <feGaussianBlur stdDeviation="10" result="blur-5"/>
      <feFlood flood-opacity="0.082"/>
      <feComposite operator="in" in2="blur-5"/>
      <feComposite in="SourceGraphic"/>
    </filter>
  </defs>
  <g id="Graphics" transform="translate(-126 -2210)">
    <g id="Card_3" data-name="Card 3">
      <g transform="matrix(1, 0, 0, 1, 126, 2210)" filter="url(#사각형_498)">
        <rect id="사각형_498-2" data-name="사각형 498" width="276" height="360" rx="6" transform="translate(722 28)" fill="#fff"/>
      </g>
      <g transform="matrix(1, 0, 0, 1, 126, 2210)" filter="url(#사각형_512)">
        <rect id="사각형_512-2" data-name="사각형 512" width="276" height="26" transform="translate(722 47)" fill="#fff"/>
      </g>
      <path id="Shape_959" data-name="Shape 959" d="M182.678,97.732a2.145,2.145,0,0,0-1.839-.862H168.165l.244,3.882h1.113c-.869,2.816-1.991,6.443-2.812,9.1l-1.044-12.98h-5.808L151.6,109.329h-5.946l1.088-2.718h5.164l1.015-3.262h-5.163l.748-2.673h7.127l1.236-3.807H132.26a4.485,4.485,0,0,0-2.65.783,4.32,4.32,0,0,0-1.6,2.256L124.8,110.042a2.424,2.424,0,0,0,.138,2.28,2.584,2.584,0,0,0,2.163.77h10.855l3.274-9.743h-7.562l-1.126,3.273h3.01l-1.069,2.677h-4.838l2.889-8.627h11.26l-3.976,12.42h14.924l1.876-3.252h5.577l.252,3.253H170.1l1.925-5.941h2.666l.9,5.941h4.33l-1.228-6.315a2.891,2.891,0,0,0,2.453-1.921L182.8,99.92A2.471,2.471,0,0,0,182.678,97.732Zm-24.313,8.894,3.176-4.705.518,4.705Zm19.175-3.275h-4.457l.76-2.7h4.508Z" transform="translate(832.003 2155.98)" fill="#1a1b1c" fill-rule="evenodd"/>
      <path id="_" data-name="#" d="M599.856,97.385H583.228l-.876-4.082a.349.349,0,0,0-.278-.293l-2.555-.022a.447.447,0,0,0-.537.523c0,.384,0,.567.458.616l1.588.156,2.761,13.791a1.236,1.236,0,0,0,1.1,1.036H598a1.237,1.237,0,0,0,1.1-1.038l1.862-9.441a1.048,1.048,0,0,0-1.1-1.246ZM585.2,107.645l-1.763-8.794h15.987l-1.739,8.794H585.2Zm10.633,2.931a2.2,2.2,0,1,0,2.2,2.2A2.2,2.2,0,0,0,595.833,110.576Zm0,2.931a.733.733,0,1,1,.733-.733A.733.733,0,0,1,595.833,113.507Zm-8.794-2.931a2.2,2.2,0,1,0,2.2,2.2A2.2,2.2,0,0,0,587.04,110.576Zm0,2.931a.733.733,0,1,1,.733-.733A.733.733,0,0,1,587.04,113.507Z" transform="translate(504.027 2157.022)" fill="#1a1b1c" fill-rule="evenodd"/>
      <path id="합치기_43" data-name="합치기 43" d="M1,14a1,1,0,0,1,0-2H17a1,1,0,0,1,0,2ZM1,8A1,1,0,0,1,1,6H17a1,1,0,0,1,0,2ZM1,2A1,1,0,0,1,1,0H17a1,1,0,0,1,0,2Z" transform="translate(863 2254)" fill="#1a1b1c"/>
      <rect id="사각형_511" data-name="사각형 511" width="226" height="50" rx="3" transform="translate(873 2523)" fill="#3bc780"/>
      <text id="Submit_Order" data-name="Submit Order" transform="translate(986 2554)" fill="#fff" font-size="16" font-family="SegoeUI, Segoe UI"><tspan x="-47.699" y="0">Submit Order</tspan></text>
      <rect id="사각형_519" data-name="사각형 519" width="276" height="168" transform="translate(848 2283)" fill="#3bc780"/>
      <text id="FOR_A_FRIEND" data-name="FOR A FRIEND" transform="translate(1055 2377.923)" fill="#fff" font-size="13" font-family="SegoeUI, Segoe UI" letter-spacing="0.005em"><tspan x="-41.573" y="0">FOR A FRIEND</tspan></text>
      <text id="_10.00" data-name="$10.00" transform="translate(1055 2354)" fill="#fff" font-size="27" font-family="SegoeUI, Segoe UI" letter-spacing="0.005em"><tspan x="-39.651" y="0">$10.00</tspan></text>
      <text id="FOR_YOU" data-name="FOR YOU" transform="translate(917 2377.923)" fill="#fff" font-size="13" font-family="SegoeUI, Segoe UI" letter-spacing="0.005em"><tspan x="-26.643" y="0">FOR YOU</tspan></text>
      <text id="_10.00-2" data-name="$10.00" transform="translate(917 2354)" fill="#fff" font-size="27" font-family="SegoeUI, Segoe UI" letter-spacing="0.005em"><tspan x="-39.651" y="0">$10.00</tspan></text>
      <path id="합치기_42" data-name="합치기 42" d="M9.347,20.393V11.046H0v-1.7H9.347V0h1.7V9.347h9.347v1.7H11.046v9.347Z" transform="translate(976 2344)" fill="#fff" opacity="0.634"/>
      <g transform="matrix(1, 0, 0, 1, 126, 2210)" filter="url(#사각형_520)">
        <rect id="사각형_520-2" data-name="사각형 520" width="227" height="76" rx="4" transform="translate(746 202)" fill="#fff"/>
      </g>
      <rect id="사각형_517" data-name="사각형 517" width="104.282" height="6" rx="3" transform="translate(957 2441)" fill="#363738" opacity="0.273"/>
      <rect id="사각형_518" data-name="사각형 518" width="59" height="6" rx="3" transform="translate(957 2455)" fill="#c7c7c7" opacity="0.408"/>
      <g id="그룹_60" data-name="그룹 60" transform="translate(133 939.461)">
        <g id="그룹_59" data-name="그룹 59" transform="translate(762 1487)">
          <ellipse id="타원_11" data-name="타원 11" cx="19.421" cy="21.23" rx="19.421" ry="21.23" transform="translate(4.213 0)" fill="#e8e8e8"/>
          <g id="그룹_54" data-name="그룹 54" transform="translate(17.56 5.821)">
            <path id="패스_119" data-name="패스 119" d="M13.136,7.531a11.609,11.609,0,0,1,3.033-2.462,5.192,5.192,0,0,1,1.809-.821,3.84,3.84,0,0,1,2.045.167.088.088,0,0,1,.042.111.03.03,0,0,1-.028.028,7.474,7.474,0,0,1-1.656,1.03,17.087,17.087,0,0,1-1.753.515A18.636,18.636,0,0,0,13.22,7.642c-.028.014-.083.014-.1-.028S13.109,7.545,13.136,7.531Z" transform="translate(-13.113 -4.184)"/>
          </g>
          <g id="그룹_55" data-name="그룹 55" transform="translate(35.79 5.739)">
            <path id="패스_120" data-name="패스 120" d="M26.263,4.355a7.481,7.481,0,0,1,3.381-.07,3.882,3.882,0,0,1,1.656.543A2.772,2.772,0,0,1,32.37,6.274a.1.1,0,0,1-.056.111h-.028a6.573,6.573,0,0,1-1.642-.334,11.23,11.23,0,0,1-1.336-.71,10.307,10.307,0,0,0-3.033-.849.061.061,0,0,1-.056-.083C26.207,4.382,26.235,4.368,26.263,4.355Z" transform="translate(-26.217 -4.125)"/>
          </g>
          <g id="그룹_56" data-name="그룹 56" transform="translate(27.125 9.947)">
            <path id="패스_121" data-name="패스 121" d="M26.293,7.233a17.842,17.842,0,0,0,.4,6.483,46.348,46.348,0,0,0,1.962,6.247,7.548,7.548,0,0,1,.543,3.548,3.683,3.683,0,0,1-.89,1.823,5.081,5.081,0,0,1-1.6,1.057,6.814,6.814,0,0,1-6.692-.779.069.069,0,0,1-.014-.1c.014-.028.056-.028.083-.028a7.942,7.942,0,0,0,6.052-.362,2.757,2.757,0,0,0,1.711-1.878A6.272,6.272,0,0,0,27.6,20.3a47.527,47.527,0,0,1-1.586-6.455,18.031,18.031,0,0,1,.153-6.636.076.076,0,0,1,.083-.056A.119.119,0,0,1,26.293,7.233Z" transform="translate(-19.989 -7.15)"/>
          </g>
          <path id="패스_122" data-name="패스 122" d="M17.25,24.36a22.848,22.848,0,0,0,11.8,1.043" transform="translate(6.064 9.53)" fill="none" stroke="#000" stroke-linecap="round" stroke-miterlimit="10" stroke-width="1"/>
          <g id="그룹_57" data-name="그룹 57" transform="translate(11.684 15.832)">
            <path id="패스_123" data-name="패스 123" d="M8.973,32.819a34.165,34.165,0,0,1,6.316,2.462c2.045.96,4.076,1.934,6.163,2.741a13.392,13.392,0,0,0,6.414,1.169c2.2-.139,4.4-.668,5.843-2.212a14.085,14.085,0,0,0,2.908-5.732,49,49,0,0,0,1.558-6.455,49.162,49.162,0,0,0,.473-13.342.066.066,0,0,1,.07-.07c.028,0,.07.014.07.056a35.167,35.167,0,0,1,.765,13.592,34.4,34.4,0,0,1-1.628,6.678,15.362,15.362,0,0,1-3.436,6.08,7.662,7.662,0,0,1-3.116,1.809,13.455,13.455,0,0,1-3.45.515,10.9,10.9,0,0,1-3.478-.306,21.949,21.949,0,0,1-3.255-1.127c-2.087-.918-4.076-1.976-6.08-3.019a34.091,34.091,0,0,0-6.163-2.7.076.076,0,0,1-.056-.083C8.9,32.833,8.946,32.8,8.973,32.819Z" transform="translate(-8.89 -11.38)"/>
          </g>
          <g id="그룹_58" data-name="그룹 58" transform="translate(2.97 2.602)">
            <path id="패스_124" data-name="패스 124" d="M3.786,13.153A16.721,16.721,0,0,1,2.645,7.546a16.475,16.475,0,0,1,.64-5.676,27.092,27.092,0,0,1,.737,5.621A26.785,26.785,0,0,1,3.786,13.153Z" transform="translate(-2.627 -1.87)"/>
          </g>
          <ellipse id="타원_12" data-name="타원 12" cx="2.184" cy="2.908" rx="2.184" ry="2.908" transform="translate(20.894 11.046)"/>
          <ellipse id="타원_13" data-name="타원 13" cx="1.809" cy="2.574" rx="1.809" ry="2.574" transform="translate(36.03 10.573)"/>
          <path id="패스_125" data-name="패스 125" d="M6.778,11.281A8.458,8.458,0,0,0,3.119,9.7a2.674,2.674,0,0,0-1.2.028C.893,10.071.6,11.379.531,12.464a11.194,11.194,0,0,0,1.349,6.859c1.308,1.989,4.021,3.186,6.135,2.129" transform="translate(-0.492 3.772)" fill="none" stroke="#000" stroke-linecap="round" stroke-miterlimit="10" stroke-width="1"/>
          <path id="패스_126" data-name="패스 126" d="M3.18,15.527l.167-3.047" transform="translate(0.56 4.882)" fill="none" stroke="#000" stroke-linecap="round" stroke-miterlimit="10" stroke-width="1"/>
        </g>
      </g>
    </g>
    <g id="Card_2" data-name="Card 2">
      <g transform="matrix(1, 0, 0, 1, 126, 2210)" filter="url(#사각형_497)">
        <rect id="사각형_497-2" data-name="사각형 497" width="276" height="360" rx="6" transform="translate(376 28)" fill="#fff"/>
      </g>
      <path id="Shape_959-2" data-name="Shape 959" d="M182.678,97.732a2.145,2.145,0,0,0-1.839-.862H168.165l.244,3.882h1.113c-.869,2.816-1.991,6.443-2.812,9.1l-1.044-12.98h-5.808L151.6,109.329h-5.946l1.088-2.718h5.164l1.015-3.262h-5.163l.748-2.673h7.127l1.236-3.807H132.26a4.485,4.485,0,0,0-2.65.783,4.32,4.32,0,0,0-1.6,2.256L124.8,110.042a2.424,2.424,0,0,0,.138,2.28,2.584,2.584,0,0,0,2.163.77h10.855l3.274-9.743h-7.562l-1.126,3.273h3.01l-1.069,2.677h-4.838l2.889-8.627h11.26l-3.976,12.42h14.924l1.876-3.252h5.577l.252,3.253H170.1l1.925-5.941h2.666l.9,5.941h4.33l-1.228-6.315a2.891,2.891,0,0,0,2.453-1.921L182.8,99.92A2.471,2.471,0,0,0,182.678,97.732Zm-24.313,8.894,3.176-4.705.518,4.705Zm19.175-3.275h-4.457l.76-2.7h4.508Z" transform="translate(486.003 2155.98)" fill="#1a1b1c" fill-rule="evenodd"/>
      <path id="_2" data-name="#" d="M599.856,97.385H583.228l-.876-4.082a.349.349,0,0,0-.278-.293l-2.555-.022a.447.447,0,0,0-.537.523c0,.384,0,.567.458.616l1.588.156,2.761,13.791a1.236,1.236,0,0,0,1.1,1.036H598a1.237,1.237,0,0,0,1.1-1.038l1.862-9.441a1.048,1.048,0,0,0-1.1-1.246ZM585.2,107.645l-1.763-8.794h15.987l-1.739,8.794H585.2Zm10.633,2.931a2.2,2.2,0,1,0,2.2,2.2A2.2,2.2,0,0,0,595.833,110.576Zm0,2.931a.733.733,0,1,1,.733-.733A.733.733,0,0,1,595.833,113.507Zm-8.794-2.931a2.2,2.2,0,1,0,2.2,2.2A2.2,2.2,0,0,0,587.04,110.576Zm0,2.931a.733.733,0,1,1,.733-.733A.733.733,0,0,1,587.04,113.507Z" transform="translate(158.027 2157.022)" fill="#1a1b1c" fill-rule="evenodd"/>
      <path id="합치기_3" data-name="합치기 3" d="M1,14a1,1,0,0,1,0-2H17a1,1,0,0,1,0,2ZM1,8A1,1,0,0,1,1,6H17a1,1,0,0,1,0,2ZM1,2A1,1,0,0,1,1,0H17a1,1,0,0,1,0,2Z" transform="translate(517 2254)" fill="#1a1b1c"/>
      <rect id="사각형_499" data-name="사각형 499" width="100" height="100" rx="3" transform="translate(527 2326)" fill="#f0f0f0"/>
      <g id="그룹_47" data-name="그룹 47" transform="translate(539.055 2349.385)">
        <path id="패스_99" data-name="패스 99" d="M10.36,11.621s2.083-6.591,7.742-7.3L43.191,24.631l-13.6,2.181Z" transform="translate(15.019 6.261)" fill="#1c1c1c"/>
        <path id="패스_100" data-name="패스 100" d="M6,8.867s4.19-5.219,2.891-7.84C10.235.218,11.411-.321,12.22.218s1.446,9.09-3.308,10.364S6,8.867,6,8.867Z" transform="translate(8.185 -0.001)" fill="#1c1c1c"/>
        <path id="패스_101" data-name="패스 101" d="M7.12,4.76S9.4,10.248,17.974,9.881,9.4,12.527,9.4,12.527Z" transform="translate(10.32 6.899)" fill="#757575"/>
        <path id="패스_102" data-name="패스 102" d="M5.508,6.015S7.934,1.066,9.184,3.639s2.3,10.927,5.586,10.658c2.3-.27,6.836-5.709,9.825-4.876S42.5,23.068,42.5,23.068,47.87,26.2,49.83,26.351L67.176,38.184l-39.495,1.4L6.145,19.981C6.145,20.005,5.19,6.628,5.508,6.015Z" transform="translate(7.889 4.198)" fill="#4fcf8f"/>
        <path id="패스_103" data-name="패스 103" d="M6.98,9.29c-.049,0,17.224,2.156,17.224,2.156l14.063,15.8L23.91,30.311Z" transform="translate(10.117 13.467)" fill="#fff" opacity="0.36"/>
        <path id="패스_104" data-name="패스 104" d="M13.228,4.32,7.2,13.116S-2.428,20.809.586,29.849c2.94,2.769,9.629,5.194,16.415,5.439,6.615.417,17.591,3.014,24.623,5.611C49,42.737,71.686,48.764,78.546,46.51c.931-3.528,1.176-10.29-6.37-11.883-9.555-.245-18.669-.588-19.5-.833a27.31,27.31,0,0,1-4.68-3.259c-.833-.662-2.352-.417-3.43.417s-7.546,5.023-8.869,4.778a3.413,3.413,0,0,1-2.083-1.421S14.306,15.884,13.228,4.32Z" transform="translate(-0.002 6.261)" fill="#1c1c1c"/>
        <path id="패스_105" data-name="패스 105" d="M5.863,9.88S.424,14.511,2.188,16.446c1.936,1.176,6.787,1.838,6.787,1.838Z" transform="translate(2.659 14.323)" fill="#a0a1a5" opacity="0.38"/>
        <path id="패스_106" data-name="패스 106" d="M8.329,11.51,6.05,14.573l2.279,3.063,2.279-3.063Z" transform="translate(8.769 16.686)" fill="#a0a1a5"/>
      </g>
      <rect id="사각형_509" data-name="사각형 509" width="227.282" height="4" rx="2" transform="translate(526 2469)" fill="#363738" opacity="0.097"/>
      <rect id="사각형_506" data-name="사각형 506" width="92" height="8" rx="4" transform="translate(526 2493)" fill="#7f7f7f" opacity="0.273"/>
      <rect id="사각형_507" data-name="사각형 507" width="54" height="8" rx="4" transform="translate(699 2493)" fill="#7f7f7f" opacity="0.273"/>
      <g id="그룹_61" data-name="그룹 61" transform="translate(0 859)">
        <rect id="사각형_500" data-name="사각형 500" width="104.282" height="6" rx="3" transform="translate(642 1514)" fill="#363738" opacity="0.273"/>
        <rect id="사각형_501" data-name="사각형 501" width="54" height="6" rx="3" transform="translate(642 1529)" fill="#7f7f7f" opacity="0.273"/>
        <rect id="사각형_502" data-name="사각형 502" width="21" height="6" rx="3" transform="translate(642 1499)" fill="#3ccb83"/>
      </g>
      <rect id="사각형_503" data-name="사각형 503" width="226" height="50" rx="3" transform="translate(527 2523)" fill="#3bc780"/>
      <g id="그룹_48" data-name="그룹 48" transform="translate(-145 966)">
        <g id="그룹_46" data-name="그룹 46" transform="translate(77.645 554.645)">
          <g id="타원_1" data-name="타원 1" transform="translate(683 795.584)" fill="#3ccb83" stroke="#fff" stroke-width="2">
            <ellipse cx="10.855" cy="10.855" rx="10.855" ry="10.855" stroke="none"/>
            <ellipse cx="10.855" cy="10.855" rx="11.855" ry="11.855" fill="none"/>
          </g>
        </g>
        <text id="_1" data-name="1" transform="translate(768 1366)" fill="#fff" font-size="13" font-family="SegoeUIBlack, Segoe UI"><tspan x="0" y="0">1</tspan></text>
      </g>
      <text id="Proceed_to_Checkout" data-name="Proceed to Checkout" transform="translate(640 2554)" fill="#fff" font-size="16" font-family="SegoeUI, Segoe UI"><tspan x="-73.766" y="0">Proceed to Checkout</tspan></text>
      <rect id="사각형_537" data-name="사각형 537" width="276" height="2" transform="translate(502 2283)" fill="#f0f0f0"/>
      <rect id="사각형_504" data-name="사각형 504" width="29" height="2" transform="translate(735 2283)" fill="#3ccb83"/>
    </g>
    <g id="Card_1" data-name="Card 1">
      <g transform="matrix(1, 0, 0, 1, 126, 2210)" filter="url(#사각형_472)">
        <rect id="사각형_472-2" data-name="사각형 472" width="276" height="360" rx="6" transform="translate(30 28)" fill="#fff"/>
      </g>
      <path id="사각형_496" data-name="사각형 496" d="M6,0H270a6,6,0,0,1,6,6V276a0,0,0,0,1,0,0H0a0,0,0,0,1,0,0V6A6,6,0,0,1,6,0Z" transform="translate(156 2238)" fill="#f0f0f0"/>
      <g id="그룹_43" data-name="그룹 43" transform="translate(189.272 2302.541)">
        <path id="패스_99-2" data-name="패스 99" d="M10.36,24.471S16.108,6.281,31.728,4.32l69.244,56.058L63.442,66.4Z" transform="translate(59.686 24.884)" fill="#1c1c1c"/>
        <path id="패스_100-2" data-name="패스 100" d="M6.612,24.47s11.563-14.4,7.979-21.639C18.31.6,21.556-.887,23.787.6s3.99,25.087-9.129,28.6S6.612,24.47,6.612,24.47Z" transform="translate(32.532 0)" fill="#1c1c1c"/>
        <path id="패스_101-2" data-name="패스 101" d="M7.12,4.76s6.289,15.147,29.956,14.133-23.667,7.3-23.667,7.3Z" transform="translate(41.017 27.419)" fill="#757575"/>
        <path id="패스_102-2" data-name="패스 102" d="M5.623,11.5S12.317-2.157,15.766,4.943,22.122,35.1,31.184,34.358C37.54,33.615,50.05,18.6,58.3,20.9S107.73,58.567,107.73,58.567s14.809,8.655,20.219,9.061l47.876,32.661-109,3.854L7.381,50.047C7.381,50.114,4.744,13.193,5.623,11.5Z" transform="translate(31.357 16.687)" fill="#4fcf8f"/>
        <path id="패스_103-2" data-name="패스 103" d="M6.98,9.29c-.135,0,47.538,5.951,47.538,5.951L93.332,58.856,53.706,67.309Z" transform="translate(40.21 53.522)" fill="#fff" opacity="0.36"/>
        <path id="패스_104-2" data-name="패스 104" d="M36.506,4.32,19.871,28.6S-6.7,49.829,1.614,74.781C9.728,82.422,28.189,89.117,46.92,89.793c18.258,1.15,48.552,8.317,67.959,15.485,20.354,5.072,82.971,21.706,101.9,15.485,2.57-9.737,3.246-28.4-17.581-32.8-26.372-.676-51.527-1.623-53.826-2.3S134.489,78.5,132.46,76.674c-2.3-1.826-6.492-1.15-9.467,1.15S102.166,91.686,98.514,91.01a9.42,9.42,0,0,1-5.748-3.922S39.481,36.237,36.506,4.32Z" transform="translate(0 24.884)" fill="#1c1c1c"/>
        <path id="패스_105-2" data-name="패스 105" d="M12.951,9.88S-2.061,22.66,2.808,28c5.342,3.246,18.731,5.072,18.731,5.072Z" transform="translate(10.572 56.921)" fill="#a0a1a5" opacity="0.38"/>
        <path id="패스_106-2" data-name="패스 106" d="M12.339,11.51,6.05,19.963l6.289,8.453,6.289-8.453Z" transform="translate(34.851 66.313)" fill="#a0a1a5"/>
      </g>
      <text id="Aspect_Climbing_Shoes" data-name="Aspect Climbing Shoes" transform="translate(267 2551)" fill="#262626" font-size="16" font-family="SegoeUI, Segoe UI"><tspan x="-80.871" y="0">Aspect Climbing Shoes</tspan></text>
      <text id="Black_Diamond_Equipment" data-name="Black Diamond Equipment" transform="translate(180 2573)" fill="#888" font-size="13" font-family="SegoeUI, Segoe UI"><tspan x="0" y="0">Black Diamond Equipment</tspan></text>
    </g>
    <g id="Dots">
      <g id="_2-2" data-name="2" transform="translate(926.524 2625.5) rotate(180)">
        <path id="패스_108" data-name="패스 108" stroke="#000" d="M196.048,36.266C182.8,15.485,144.583.5,99.531.5,51.168.5,10.684,17.766.5,40.953" fill="none" transform="translate(0 0)" stroke-linecap="round" stroke-linejoin="round" stroke-width="3" stroke-dasharray="0 10"/>
      </g>
      <g id="_1-2" data-name="1" transform="translate(368.976 2213.047)">
        <path id="패스_108-2" data-name="패스 108" stroke="#000" d="M196.048,36.266C182.8,15.485,144.583.5,99.531.5,51.168.5,10.684,17.766.5,40.953" fill="none" transform="translate(0 0)" stroke-linecap="round" stroke-linejoin="round" stroke-width="3" stroke-dasharray="0 10"/>
      </g>
    </g>
  </g>
</svg>
