<svg id="Logo" xmlns="http://www.w3.org/2000/svg" width="142" height="38.969" viewBox="0 0 142 38.969">
  <metadata><?xpacket begin="﻿" id="W5M0MpCehiHzreSzNTczkc9d"?>
<x:xmpmeta xmlns:x="adobe:ns:meta/" x:xmptk="Adobe XMP Core 5.6-c140 79.160451, 2017/05/06-01:08:21        ">
   <rdf:RDF xmlns:rdf="http://www.w3.org/1999/02/22-rdf-syntax-ns#">
      <rdf:Description rdf:about=""/>
   </rdf:RDF>
</x:xmpmeta>
                                                                                                    
                                                                                                    
                                                                                                    
                                                                                                    
                                                                                                    
                                                                                                    
                                                                                                    
                                                                                                    
                                                                                                    
                                                                                                    
                                                                                                    
                                                                                                    
                                                                                                    
                                                                                                    
                                                                                                    
                                                                                                    
                                                                                                    
                                                                                                    
                                                                                                    
                                                                                                    
                           
<?xpacket end="w"?></metadata>
<defs>
    <style>
      .cls-1 {
        fill: #1a1b1c;
        fill-rule: evenodd;
      }
    </style>
  </defs>
  <path class="cls-1" d="M271.473,100.432A3.611,3.611,0,0,0,268.386,99H247.071l0.383,6.225H249.4c-1.458,4.684-3.51,11.126-4.887,15.544L243.022,99h-9.836l-13.794,21.016h-9.975l1.763-5.032h8.664l1.7-4.982h-8.662l1.316-4.975h11.957L228.169,99H186.88a7.574,7.574,0,0,0-4.448,1.3,7.191,7.191,0,0,0-2.679,3.753l-5.4,16.857q-0.79,2.488.232,3.793c0.665,0.858,1.876,1.281,3.632,1.281h18.212L201.848,110H189.161l-1.661,5h5.05l-1.885,4.968h-8.116l4.847-14.993h18.891l-6.732,21.01h25.038l2.919-4.967h9.537l0.281,4.967h13.04l3.172-9.993h4.472l1.573,9.993h7.266l-2.061-10.505c2.122-.44,3.492-1.357,4.114-3.2l2.774-8.212A4.079,4.079,0,0,0,271.473,100.432ZM230.82,115.019l5.191-7.621,0.87,7.621H230.82Zm32.034-5.031h-7.478l1.184-4.983h7.565Z" transform="translate(-130 -93.031)"/>
  <path class="cls-1" d="M163.168,118.463c-0.032-.03-0.066-0.058-0.1-0.086v0l-0.039-.031-0.008-.008-0.148-.116-6.325-4.7a6.34,6.34,0,0,0-3.251-1.316l-7.483-.074-0.774-.008c-0.923-.01-1.14,1.584-0.45,2.193l0,0,0.04,0.031h0l5.614,4.394a1.059,1.059,0,0,1-.009,1.646l-0.68.53a2.161,2.161,0,0,1-2.517,0l-8.388-6.553a2.4,2.4,0,0,1,0-3.739l8.393-6.556a2.124,2.124,0,0,1,2.5.012l6.088,5.231h0.006a3.035,3.035,0,0,0,3.693.007h0l4.113-3.466a1.542,1.542,0,0,0,.006-2.4l-0.287-.228h0L151.741,94.17h-0.017a5.821,5.821,0,0,0-7.068.1l-0.13.1h0l-12.035,9.4h0l0,0-0.127.1h0l-0.137.108a5.856,5.856,0,0,0-2.215,4.466l0,0.009v7.922h0v0.22l0.007,0.013a5.857,5.857,0,0,0,2.213,4.393l0.27,0.211,0-.006,12.085,9.442h0l0.117,0.091a5.824,5.824,0,0,0,7.215,0l0.116-.091h0l0.408-.318,0.3-.233h0l10.451-7.832v-0.023c0.03-.028.064-0.053,0.092-0.082A2.623,2.623,0,0,0,163.168,118.463Z" transform="translate(-130 -93.031)"/>
</svg>
