<?xml version="1.0" encoding="iso-8859-1"?>
<!-- Generator: Adobe Illustrator 23.1.0, SVG Export Plug-In . SVG Version: 6.00 Build 0)  -->
<svg version="1.1" xmlns="http://www.w3.org/2000/svg" xmlns:xlink="http://www.w3.org/1999/xlink" x="0px" y="0px"
	 viewBox="0 0 576 101" width="576" height="101">
<g id="ART" transform="translate(-108 -255)">
	<g>
		<path d="M342.587,305.143c-2.815,6.465-6.882,11.47-11.782,14.806c-4.797,3.441-10.532,5.214-16.475,5.214
			c-16.579,0-30.656-13.45-30.656-30.655c0-16.161,12.722-31.073,30.343-31.073s30.551,13.973,30.551,31.593
			c0,2.294-0.207,3.232-0.416,4.588h-43.377c1.043,6.882,6.778,10.949,13.555,10.949c5.318,0,8.132-2.4,10.531-5.423H342.587z
			 M327.259,287.938c-0.729-3.441-4.171-9.906-13.138-9.906s-12.408,6.465-13.138,9.906H327.259z"/>
		<path d="M412.472,323.287h-17.31v-6.256h-0.209c-2.919,5.629-10.113,8.238-16.891,8.238c-18.352,0-29.092-14.391-29.092-30.969
			c0-18.976,13.66-30.864,29.092-30.864c9.488,0,14.806,4.588,16.891,8.132h0.209v-6.15h17.31V323.287z M380.668,309.105
			c10.845,0,14.494-9.174,14.494-14.806c0-6.985-4.796-14.702-14.598-14.702c-9.906,0-14.285,8.341-14.285,14.911
			C366.279,299.932,370.242,309.105,380.668,309.105z"/>
		<path d="M418.212,265.418h16.267v6.15h0.209c1.459-2.815,4.484-8.132,14.494-8.132v17.414c-8.029,0.206-13.66,1.876-13.66,10.635
			v31.802h-17.31V265.418z"/>
		<path d="M459.868,323.287h-18.039v-17.726h18.039V323.287z"/>
		<path d="M524.417,301.285c-3.128,13.138-14.702,23.879-30.343,23.879c-17.517,0-30.968-13.764-30.968-30.967
			c0-16.996,13.242-30.761,30.551-30.761c15.329,0,27.737,10.114,30.656,24.294h-17.517c-1.878-3.962-5.319-8.132-12.513-8.132
			c-8.238-0.418-13.764,6.361-13.764,14.702c0,8.447,5.526,14.702,13.764,14.702c7.194,0,10.635-4.171,12.513-7.717H524.417z"/>
		<path d="M559.61,262.652c21.063,0,31.177,16.579,31.177,30.761s-10.114,30.761-31.177,30.761s-31.177-16.579-31.177-30.761
			S538.547,262.652,559.61,262.652z M559.61,308.01c7.507,0,13.867-6.15,13.867-14.597s-6.36-14.597-13.867-14.597
			c-7.507,0-13.869,6.15-13.869,14.597S552.103,308.01,559.61,308.01z"/>
		<path d="M279.754,294.3c0-14.182-10.114-30.761-31.177-30.761c-21.063,0-31.177,16.579-31.177,30.761s10.114,30.761,31.177,30.761
			c5.316,0,9.93-1.061,13.864-2.868v3.998c-0.027,8.419-6.374,14.544-13.865,14.544c-6.215,0-11.631-4.223-13.315-10.468H217.71
			c1.76,13.08,11.823,26.632,30.867,26.632c21.037,0,31.151-16.538,31.176-30.708L279.754,294.3z M248.578,308.896
			c-7.507,0-13.869-6.15-13.869-14.597c0-8.447,6.362-14.597,13.869-14.597s13.867,6.15,13.867,14.597
			C262.445,302.746,256.085,308.896,248.578,308.896z"/>
		<path d="M595.16,264.531h16.163v6.15h0.209c1.355-2.397,5.109-8.132,15.953-8.132c5.11,0,12.095,1.773,16.683,10.323
			c3.545-5.632,9.489-10.323,18.352-10.323c4.066,0,10.531,0.938,15.223,5.838c5.422,5.735,6.257,9.594,6.257,22.42V322.4h-17.31
			v-30.761c0-4.691,0-12.823-8.863-12.823c-9.592,0-9.592,8.759-9.592,11.991V322.4h-17.31v-31.49c0-3.127,0-12.094-8.654-12.094
			c-9.801,0-9.801,9.382-9.801,12.823V322.4h-17.31V264.531z"/>
	</g>
	<path d="M125.382,320.284c0,0-17.382,0.181-17.382,0c0-9.6,7.782-17.382,17.382-17.382h17.382v17.382
		c0,9.6-7.782,17.382-17.382,17.382L125.382,320.284z M149.282,337.666c9.6,0,17.382-7.782,17.382-17.382v-41.282h-41.282
		c-9.6,0-17.382,7.782-17.382,17.382l41.282,0L149.282,337.666z M173.182,337.666c9.6,0,17.382-7.782,17.382-17.382v-65.182h-65.182
		c-9.6,0-17.382,7.782-17.382,17.382l65.182,0L173.182,337.666z"/>
</g>
</svg>
