<svg xmlns="http://www.w3.org/2000/svg" width="47" height="53" viewBox="0 0 47 53">
  <metadata><?xpacket begin="﻿" id="W5M0MpCehiHzreSzNTczkc9d"?>
<x:xmpmeta xmlns:x="adobe:ns:meta/" x:xmptk="Adobe XMP Core 5.6-c140 79.160451, 2017/05/06-01:08:21        ">
   <rdf:RDF xmlns:rdf="http://www.w3.org/1999/02/22-rdf-syntax-ns#">
      <rdf:Description rdf:about=""/>
   </rdf:RDF>
</x:xmpmeta>
                                                                                                    
                                                                                                    
                                                                                                    
                                                                                                    
                                                                                                    
                                                                                                    
                                                                                                    
                                                                                                    
                                                                                                    
                                                                                                    
                                                                                                    
                                                                                                    
                                                                                                    
                                                                                                    
                                                                                                    
                                                                                                    
                                                                                                    
                                                                                                    
                                                                                                    
                                                                                                    
                           
<?xpacket end="w"?></metadata>
<defs>
    <style>
      .cls-1 {
        fill: #2f333b;
        fill-rule: evenodd;
        opacity: 0.2;
      }
    </style>
  </defs>
  <path class="cls-1" d="M45.819,34.59c-0.044-.04-0.091-0.078-0.138-0.116h0l-0.053-.042-0.012-.01-0.2-.159-8.739-6.387a8.855,8.855,0,0,0-4.493-1.789l-10.338-.1-1.07-.012c-1.276-.014-1.575,2.154-0.622,2.982v0.006l0.055,0.043h0l7.756,5.973a1.425,1.425,0,0,1-.011,2.238l-0.94.721a3.025,3.025,0,0,1-3.478,0l-11.59-8.91a3.224,3.224,0,0,1,0-5.084l11.6-8.914a2.974,2.974,0,0,1,3.452.016L35.4,22.159h0.009a4.25,4.25,0,0,0,5.1.01h0L46.2,17.456a2.076,2.076,0,0,0,.009-3.257l-0.4-.311h0L30.03,1.56H30.006a8.146,8.146,0,0,0-9.765.139l-0.181.139h0L3.43,14.622h0l-0.007,0-0.176.135h0l-0.191.147A7.93,7.93,0,0,0,0,20.981l-0.006.012V31.765h0v0.3L0,32.083a7.925,7.925,0,0,0,3.058,5.973L3.43,38.344V38.336l16.7,12.837h0L20.29,51.3a8.15,8.15,0,0,0,9.969,0l0.16-.123h0l0.564-.433,0.412-.317h0l14.44-10.648V39.745c0.042-.038.089-0.073,0.128-0.112a3.527,3.527,0,0,0-.087-4.988Z"/>
</svg>
