<svg id="Icon" xmlns="http://www.w3.org/2000/svg" width="36.031" height="53" viewBox="0 0 36.031 53">
  <metadata><?xpacket begin="﻿" id="W5M0MpCehiHzreSzNTczkc9d"?>
<x:xmpmeta xmlns:x="adobe:ns:meta/" x:xmptk="Adobe XMP Core 5.6-c140 79.160451, 2017/05/06-01:08:21        ">
   <rdf:RDF xmlns:rdf="http://www.w3.org/1999/02/22-rdf-syntax-ns#">
      <rdf:Description rdf:about=""/>
   </rdf:RDF>
</x:xmpmeta>
                                                                                                    
                                                                                                    
                                                                                                    
                                                                                                    
                                                                                                    
                                                                                                    
                                                                                                    
                                                                                                    
                                                                                                    
                                                                                                    
                                                                                                    
                                                                                                    
                                                                                                    
                                                                                                    
                                                                                                    
                                                                                                    
                                                                                                    
                                                                                                    
                                                                                                    
                                                                                                    
                           
<?xpacket end="w"?></metadata>
<defs>
    <style>
      .cls-1, .cls-2, .cls-3 {
        fill: #65c07d;
      }

      .cls-1, .cls-2 {
        fill-rule: evenodd;
      }

      .cls-1 {
        opacity: 0.3;
      }
    </style>
  </defs>
  <path id="Rounded_Rectangle_2" data-name="Rounded Rectangle 2" class="cls-1" d="M751.882,239.525a1.032,1.032,0,0,1-1.393.365L736,231.708V243a1,1,0,0,1-2,0V231.708l-14.489,8.182a1.032,1.032,0,0,1-1.393-.365,0.986,0.986,0,0,1,.373-1.363l15.991-9.03a0.95,0.95,0,0,1,.171-0.056,0.92,0.92,0,0,1,.143-0.047,1.493,1.493,0,0,1,.408,0,0.92,0.92,0,0,1,.143.047,0.95,0.95,0,0,1,.171.056l15.991,9.03A0.986,0.986,0,0,1,751.882,239.525Z" transform="translate(-716.969 -217)"/>
  <path id="Rounded_Rectangle_2-2" data-name="Rounded Rectangle 2" class="cls-2" d="M752,259.818a0.957,0.957,0,0,1-.068.518,0.907,0.907,0,0,1-.071.143,0.954,0.954,0,0,1-.089.132,0.981,0.981,0,0,1-.427.319l-15.827,8.938a0.95,0.95,0,0,1-.171.056,0.92,0.92,0,0,1-.143.047,1.493,1.493,0,0,1-.408,0,0.92,0.92,0,0,1-.143-0.047,0.95,0.95,0,0,1-.171-0.056l-15.827-8.938a0.981,0.981,0,0,1-.427-0.319,0.954,0.954,0,0,1-.089-0.132,0.907,0.907,0,0,1-.071-0.143,0.957,0.957,0,0,1-.068-0.518V240.009a0.949,0.949,0,0,1,.118-0.534,1.032,1.032,0,0,1,1.393-.365L735,247.856l15.489-8.746a1.032,1.032,0,0,1,1.393.365,0.949,0.949,0,0,1,.118.534v19.809ZM735,264c-0.552,0-1-1.448-1-2V249.6l-14-7.906v17.7l15,8.47,15-8.47v-17.7L736,249.6V262C736,262.552,735.552,264,735,264Z" transform="translate(-716.969 -217)"/>
  <path id="Rounded_Rectangle_24" data-name="Rounded Rectangle 24" class="cls-2" d="M717.249,225.249a0.964,0.964,0,0,1,1.366,0l4.1,4.1a0.967,0.967,0,1,1-1.367,1.367l-4.1-4.1A0.964,0.964,0,0,1,717.249,225.249Z" transform="translate(-716.969 -217)"/>
  <rect id="Rounded_Rectangle_25" data-name="Rounded Rectangle 25" class="cls-3" x="17.031" width="2" height="7" rx="1" ry="1"/>
  <path id="Rounded_Rectangle_24-2" data-name="Rounded Rectangle 24" class="cls-2" d="M752.713,225.249a0.964,0.964,0,0,0-1.366,0l-4.1,4.1a0.966,0.966,0,1,0,1.366,1.367l4.1-4.1A0.964,0.964,0,0,0,752.713,225.249Z" transform="translate(-716.969 -217)"/>
</svg>
