<svg xmlns="http://www.w3.org/2000/svg" xmlns:xlink="http://www.w3.org/1999/xlink" viewBox="0 0 100 100">
  <defs>
    <style>
      .cls-1 {
        clip-path: url(#clip-custom_1);
      }

      .cls-2 {
        fill: #1a1b1c;
        fill-rule: evenodd;
      }

      .cls-3 {
        fill: #3ccb83;
      }
    </style>
    <clipPath id="clip-custom_1">
      <rect width="100" height="100"/>
    </clipPath>
  </defs>
  <g id="custom_1" data-name="custom – 1" class="cls-1">
    <path id="Facebook" class="cls-2" d="M793.989,1013.519h-1.116c-1.187,0-1.426.546-1.426,1.378v.521h2.564l-.368,2.559h-2.2v5.709h-2.524v-5.709H787.01v-2.559h1.905v-1.029c0-2.445,1.281-3.423,3.464-3.423a14.5,14.5,0,0,1,1.61.038Z" transform="translate(-787.01 -1010.958)"/>
    <path id="Twitter" class="cls-2" d="M1024.9,1014.321a5.636,5.636,0,0,1-1.7.415,3.139,3.139,0,0,0,1.356-1.733,6.02,6.02,0,0,1-1.963.763,2.981,2.981,0,0,0-2.259-.867,2.889,2.889,0,0,0-3.044,2.9c0,.245-.015.252-.015.5a8.366,8.366,0,0,1-6.326-2.948,3.13,3.13,0,0,0,.956,4.163,3.089,3.089,0,0,1-1.4-.385v.037a3.021,3.021,0,0,0,2.481,2.97,3.268,3.268,0,0,1-.815.111,3.069,3.069,0,0,1-.585-.059,3.019,3.019,0,0,0,2.889,2.074,6.191,6.191,0,0,1-3.837,1.363,6.107,6.107,0,0,1-.741-.044,8.6,8.6,0,0,0,4.741,1.311,8.483,8.483,0,0,0,8.689-8.63c0-.133,0-.274-.007-.407A5.974,5.974,0,0,0,1024.9,1014.321Z" transform="translate(-994.9 -1012.894)"/>
    <path id="email" class="cls-2" d="M735.986,617.2a.749.749,0,0,1-.75.746h-10.5a.748.748,0,0,1-.75-.746v-7.638l6,4.941,6-4.929ZM724.01,607.95h11.963l-5.989,4.951Z" transform="translate(-688.986 -607.95)"/>
    <path id="빼기_1" data-name="빼기 1" class="cls-3" d="M-3360.707-1455.414a14.2,14.2,0,0,1-10.106-4.186,14.2,14.2,0,0,1-4.186-10.107,14.2,14.2,0,0,1,4.186-10.107,14.2,14.2,0,0,1,10.106-4.186,14.2,14.2,0,0,1,10.106,4.186,14.2,14.2,0,0,1,4.186,10.107,14.2,14.2,0,0,1-4.186,10.107A14.2,14.2,0,0,1-3360.707-1455.414Zm-5.257-14.814a1.089,1.089,0,0,0-.274.035,1.093,1.093,0,0,0-.786.785,1.093,1.093,0,0,0,.3,1.067l3.149,3.146a1.147,1.147,0,0,0,.79.314,1.149,1.149,0,0,0,.791-.314l6.365-7.429a1.074,1.074,0,0,0,.316-.767,1.078,1.078,0,0,0-.319-.766,1.076,1.076,0,0,0-.764-.316,1.078,1.078,0,0,0-.769.319l-5.666,6.611-2.346-2.346A1.1,1.1,0,0,0-3365.964-1470.228Z" transform="translate(3375 1504)"/>
    <path id="print" class="cls-2" d="M810,616h-2v2.5a.5.5,0,0,1-.5.5h-7a.5.5,0,0,1-.5-.5V616h-2a1,1,0,0,1-1-1v-4a1,1,0,0,1,1-1h12a1,1,0,0,1,1,1v4A1,1,0,0,1,810,616Zm-3-2h-6v4h6Zm1.5-3a.5.5,0,1,0,.5.5A.5.5,0,0,0,808.5,611Zm-8-2H800v-1.5a.5.5,0,0,1,.5-.5h7a.5.5,0,0,1,.5.5V609Z" transform="translate(-747 -607)"/>
  </g>
</svg>
