<svg xmlns="http://www.w3.org/2000/svg" width="18" height="28" viewBox="0 0 18 28">
  <metadata><?xpacket begin="﻿" id="W5M0MpCehiHzreSzNTczkc9d"?>
<x:xmpmeta xmlns:x="adobe:ns:meta/" x:xmptk="Adobe XMP Core 5.6-c140 79.160451, 2017/05/06-01:08:21        ">
   <rdf:RDF xmlns:rdf="http://www.w3.org/1999/02/22-rdf-syntax-ns#">
      <rdf:Description rdf:about=""/>
   </rdf:RDF>
</x:xmpmeta>
                                                                                                    
                                                                                                    
                                                                                                    
                                                                                                    
                                                                                                    
                                                                                                    
                                                                                                    
                                                                                                    
                                                                                                    
                                                                                                    
                                                                                                    
                                                                                                    
                                                                                                    
                                                                                                    
                                                                                                    
                                                                                                    
                                                                                                    
                                                                                                    
                                                                                                    
                                                                                                    
                           
<?xpacket end="w"?></metadata>
<defs>
    <style>
      .cls-1, .cls-2 {
        fill: #65c07d;
        fill-rule: evenodd;
      }

      .cls-1 {
        opacity: 0.7;
      }
    </style>
  </defs>
  <path id="Rounded_Rectangle_652" data-name="Rounded Rectangle 652" class="cls-1" d="M532,823.592V820h-2v-6a4,4,0,0,0-8,0v6h-3v-6a7,7,0,0,1,14,0v6A6.953,6.953,0,0,1,532,823.592Z" transform="translate(-517 -807)"/>
  <path class="cls-2" d="M526,817a9,9,0,1,1-9,9A9,9,0,0,1,526,817Zm0,3a6,6,0,1,1-6,6A6,6,0,0,1,526,820Zm0,3a1,1,0,0,1,1,1v4a1,1,0,0,1-2,0v-4A1,1,0,0,1,526,823Z" transform="translate(-517 -807)"/>
</svg>
