<svg xmlns="http://www.w3.org/2000/svg" width="24" height="22" viewBox="0 0 24 22">
  <defs>
    <style>
      .cls-1 {
        fill: #7aad29;
        fill-rule: evenodd;
      }
    </style>
  </defs>
  <path id="_" data-name="#" class="cls-1" d="M12.419,1.2L14.71,7.723A0.431,0.431,0,0,0,15.122,8h7.413a0.4,0.4,0,0,1,.255.724l-6,4.46a0.412,0.412,0,0,0-.157.469l2.291,6.817a0.43,0.43,0,0,1-.666.469l-6-4.213a0.444,0.444,0,0,0-.509,0L5.709,20.937a0.43,0.43,0,0,1-.666-0.469L7.38,13.651a0.412,0.412,0,0,0-.157-0.469L1.179,8.723A0.4,0.4,0,0,1,1.433,8h7.46A0.431,0.431,0,0,0,9.3,7.723L11.6,1.2A0.438,0.438,0,0,1,12.419,1.2Z"/>
</svg>
