<svg xmlns="http://www.w3.org/2000/svg" width="144" height="160" viewBox="0 0 144 160">
  <defs>
    <style>
      .cls-1 {
        fill: #ebebeb;
      }

      .cls-1, .cls-2 {
        fill-rule: evenodd;
      }

      .cls-2 {
        fill: #fbfbfb;
      }
    </style>
  </defs>
  <path id="_" data-name="#" class="cls-1" d="M135.664,124.565L110.248,139.1h-0.036l-5.619,3.213h0.037L80.242,156.256l-1.384.792a14.856,14.856,0,0,1-14.686,0l-1.385-.792L39.209,142.777h0l-5.64-3.225h0l-26.2-14.984h0l-0.013-.007A14.565,14.565,0,0,1,0,111.961V46.992a14.561,14.561,0,0,1,7.343-12.6L32.764,19.858H32.8l5.619-3.213H38.382L62.769,2.7l1.385-.792a14.853,14.853,0,0,1,14.685,0L80.224,2.7,103.8,16.183h0l5.639,3.225h0l26.2,14.984h0l0.013,0.007A14.562,14.562,0,0,1,143,47v64.969A14.563,14.563,0,0,1,135.664,124.565Z"/>
  <path id="_2" data-name="#" class="cls-2" d="M103,76.013v29.641a0.973,0.973,0,0,1-.25.652c-7.4,8.137-17.22,12.647-30.2,12.647a38.352,38.352,0,0,1-27.671-11.419c-7.458-7.317-10.9-16.552-10.9-27.706S37.491,59.366,45.09,51.905A37.633,37.633,0,0,1,72.6,40.947,40.3,40.3,0,0,1,99.949,50.8a0.961,0.961,0,0,1,.157,1.268L92.515,63.092a0.946,0.946,0,0,1-1.393.179,31.565,31.565,0,0,0-8.462-5.394,24.8,24.8,0,0,0-9.151-1.793,21.969,21.969,0,0,0-16.056,6.635q-6.531,6.511-6.53,17.162t6.262,17.055a20.163,20.163,0,0,0,14.932,6.4c5.538,0,10.535-1.02,14.3-3.061a0.952,0.952,0,0,0,.49-0.84v-8.59a0.948,0.948,0,0,0-.945-0.951H73.445a0.952,0.952,0,0,1-.78-1.491L78.59,76.42a0.948,0.948,0,0,1,.78-0.413h23.623v0.006h0Z"/>
</svg>
