<svg xmlns="http://www.w3.org/2000/svg" width="22" height="22" viewBox="0 0 22 22">
  <metadata><?xpacket begin="﻿" id="W5M0MpCehiHzreSzNTczkc9d"?>
<x:xmpmeta xmlns:x="adobe:ns:meta/" x:xmptk="Adobe XMP Core 5.6-c138 79.159824, 2016/09/14-01:09:01        ">
   <rdf:RDF xmlns:rdf="http://www.w3.org/1999/02/22-rdf-syntax-ns#">
      <rdf:Description rdf:about=""/>
   </rdf:RDF>
</x:xmpmeta>
                                                                                                    
                                                                                                    
                                                                                                    
                                                                                                    
                                                                                                    
                                                                                                    
                                                                                                    
                                                                                                    
                                                                                                    
                                                                                                    
                                                                                                    
                                                                                                    
                                                                                                    
                                                                                                    
                                                                                                    
                                                                                                    
                                                                                                    
                                                                                                    
                                                                                                    
                                                                                                    
                           
<?xpacket end="w"?></metadata>
<defs>
    <style>
      .cls-1 {
        fill: #262830;
        fill-rule: evenodd;
      }
    </style>
  </defs>
  <path id="Twitter" class="cls-1" d="M1171.75,679h-17.5a2.252,2.252,0,0,0-2.25,2.251v17.5a2.252,2.252,0,0,0,2.25,2.251h17.5a2.252,2.252,0,0,0,2.25-2.251v-17.5A2.252,2.252,0,0,0,1171.75,679Zm-1.28,7.278a5.114,5.114,0,0,1-1.57.376,2.866,2.866,0,0,0,1.26-1.584,5.661,5.661,0,0,1-1.82.695,2.923,2.923,0,0,0-2.15-.833,2.793,2.793,0,0,0-2.87,2.771c0,0.224.01,0.136,0.01,0.358a8.031,8.031,0,0,1-5.96-2.816,2.928,2.928,0,0,0,.9,3.887,2.88,2.88,0,0,1-1.31-.364,0.051,0.051,0,0,0-.01.037,2.828,2.828,0,0,0,2.34,2.769,2.911,2.911,0,0,1-.77.1,2.825,2.825,0,0,1-.54-0.052,3.029,3.029,0,0,0,2.85,1.935,5.747,5.747,0,0,1-3.55,1.252,5.619,5.619,0,0,1-.68-0.041,8.049,8.049,0,0,0,4.38,1.262A7.808,7.808,0,0,0,1169,688.1c0-.124,0-0.29-0.01-0.413A5.652,5.652,0,0,0,1170.47,686.278Z" transform="translate(-1152 -679)"/>
</svg>
