<svg id="slideshow-left_arrow" xmlns="http://www.w3.org/2000/svg" width="33" height="33" viewBox="0 0 33 33">
  <metadata><?xpacket begin="﻿" id="W5M0MpCehiHzreSzNTczkc9d"?>
<x:xmpmeta xmlns:x="adobe:ns:meta/" x:xmptk="Adobe XMP Core 5.6-c138 79.159824, 2016/09/14-01:09:01        ">
   <rdf:RDF xmlns:rdf="http://www.w3.org/1999/02/22-rdf-syntax-ns#">
      <rdf:Description rdf:about=""/>
   </rdf:RDF>
</x:xmpmeta>
                                                                                                    
                                                                                                    
                                                                                                    
                                                                                                    
                                                                                                    
                                                                                                    
                                                                                                    
                                                                                                    
                                                                                                    
                                                                                                    
                                                                                                    
                                                                                                    
                                                                                                    
                                                                                                    
                                                                                                    
                                                                                                    
                                                                                                    
                                                                                                    
                                                                                                    
                                                                                                    
                           
<?xpacket end="w"?></metadata>
<defs>
    <style>
      .cls-1 {
        fill: #151618;
      }

      .cls-2 {
        fill: #fff;
        fill-rule: evenodd;
      }
    </style>
  </defs>
  <circle class="cls-1" cx="16.5" cy="16.5" r="16.5"/>
  <path class="cls-2" d="M173.777,915.745h-0.616v-0.566h-0.616v-0.566h-0.616v-0.566h-0.615v-0.566H170.7v-0.566h-0.616v-0.566h-0.616v-0.566H168.85v-0.566h0.616v-0.566h0.616v-0.566H170.7v-0.566h0.616v-0.566h0.615v-0.566h0.616v-0.566h0.616v-0.566h0.616v-0.566h0.616v-1.7h-0.616v0.566h-0.616v0.566h-0.616v0.566h-0.616v0.566h-0.615v0.566H170.7v0.566h-0.616v0.566h-0.616v0.566H168.85v0.566h-0.615v0.566h-0.616v0.566H167v0.566h0.616v0.566h0.616v0.566h0.615v0.566h0.616v0.566h0.616v0.566H170.7v0.566h0.616v0.566h0.615v0.566h0.616v0.566h0.616v0.566h0.616v0.566h0.616v-1.7h-0.616v-0.566Zm0.629,1.13H175v0.563h-0.594v-0.563Zm0.6,0.568h-0.615v0.566m0-13.018v0.566h0.615m-0.6,0H175v0.563h-0.594v-0.563Z" transform="translate(-155 -895)"/>
</svg>
