<svg id="slideshow-right_arrow" xmlns="http://www.w3.org/2000/svg" width="33" height="33" viewBox="0 0 33 33">
  <metadata><?xpacket begin="﻿" id="W5M0MpCehiHzreSzNTczkc9d"?>
<x:xmpmeta xmlns:x="adobe:ns:meta/" x:xmptk="Adobe XMP Core 5.6-c138 79.159824, 2016/09/14-01:09:01        ">
   <rdf:RDF xmlns:rdf="http://www.w3.org/1999/02/22-rdf-syntax-ns#">
      <rdf:Description rdf:about=""/>
   </rdf:RDF>
</x:xmpmeta>
                                                                                                    
                                                                                                    
                                                                                                    
                                                                                                    
                                                                                                    
                                                                                                    
                                                                                                    
                                                                                                    
                                                                                                    
                                                                                                    
                                                                                                    
                                                                                                    
                                                                                                    
                                                                                                    
                                                                                                    
                                                                                                    
                                                                                                    
                                                                                                    
                                                                                                    
                                                                                                    
                           
<?xpacket end="w"?></metadata>
<defs>
    <style>
      .cls-1 {
        fill: #151618;
      }

      .cls-2 {
        fill: #fff;
        fill-rule: evenodd;
      }
    </style>
  </defs>
  <circle class="cls-1" cx="16.5" cy="16.5" r="16.5"/>
  <path class="cls-2" d="M767.223,907.255h0.616v0.566h0.616v0.566h0.616v0.566h0.615v0.566H770.3v0.566h0.616v0.566h0.616v0.566h0.616v0.566h-0.616v0.566h-0.616v0.566H770.3v0.566h-0.616v0.566h-0.615v0.566h-0.616v0.566h-0.616v0.566h-0.616v0.566h-0.616v1.7h0.616v-0.566h0.616v-0.566h0.616v-0.566h0.616v-0.566h0.615v-0.566H770.3v-0.566h0.616v-0.566h0.616v-0.566h0.616v-0.566h0.615v-0.566h0.616v-0.566H774v-0.566h-0.616v-0.566h-0.616v-0.566H772.15v-0.566h-0.616v-0.566h-0.616v-0.566H770.3v-0.566h-0.616v-0.566h-0.615v-0.566h-0.616v-0.566h-0.616v-0.566h-0.616v-0.566h-0.616v1.7h0.616v0.566ZM766,905.567h0.606v0.566H766v-0.566Zm-0.008-.01h0.615v-0.566m0,13.018v-0.566h-0.615m0.008-.576h0.606v0.566H766v-0.566Z" transform="translate(-753 -895)"/>
</svg>
