<?xml version="1.0" encoding="utf-8"?>
<svg xmlns="http://www.w3.org/2000/svg" xmlns:xlink="http://www.w3.org/1999/xlink">
	<style>:root>svg{display:none}:root>svg:target{display:block}</style>
	<svg id="footer-facebook" data-name="#" viewBox="0 0 24 24" xmlns="http://www.w3.org/2000/svg">
		<defs><style>.acls-1{fill:#fff;fill-rule:evenodd}</style></defs>
		<path id="aFacebook" class="acls-1" d="M20.75 2H4.25A2.251 2.251 0 0 0 2 4.251v16.5A2.251 2.251 0 0 0 4.25 23h8.761v-6.968h-3v-3.074h3V11c0-2.89 1.482-4.042 4.06-4.042 1.43 0 1.95.021 1.941.011v3.053h-1.358c-1.4 0-1.661.62-1.661 1.6v1.341h3l-.435 3.074h-2.565V23h4.757A2.251 2.251 0 0 0 23 20.75V4.251A2.251 2.251 0 0 0 20.75 2z"/>
	</svg>
	<svg viewBox="0 0 28 28" id="footer-instagram" xmlns="http://www.w3.org/2000/svg">
		<defs><style>.bcls-1{fill:#fff;fill-rule:evenodd}</style></defs>
		<path id="bInstagram" class="bcls-1" d="M23.923 18.811a7.689 7.689 0 0 1-.488 2.546 5.363 5.363 0 0 1-3.067 3.068 7.707 7.707 0 0 1-2.546.487c-1.119.051-1.476.063-4.324.063s-3.206-.012-4.325-.063a7.707 7.707 0 0 1-2.546-.487 5.368 5.368 0 0 1-3.067-3.068 7.7 7.7 0 0 1-.488-2.546c-.051-1.119-.063-1.476-.063-4.324s.013-3.206.063-4.325a7.7 7.7 0 0 1 .488-2.545 5.368 5.368 0 0 1 3.067-3.068 7.693 7.693 0 0 1 2.546-.487C10.292 4.01 10.65 4 13.5 4s3.206.012 4.324.063a7.694 7.694 0 0 1 2.546.487 5.363 5.363 0 0 1 3.067 3.068 7.68 7.68 0 0 1 .488 2.545c.051 1.119.063 1.476.063 4.325s-.014 3.205-.065 4.323zm-1.935-8.54a5.8 5.8 0 0 0-.359-1.937 3.458 3.458 0 0 0-1.98-1.979A5.761 5.761 0 0 0 17.713 6c-1.1-.05-1.429-.061-4.215-.061s-3.115.007-4.216.061a5.762 5.762 0 0 0-1.937.359 3.459 3.459 0 0 0-1.98 1.979 5.8 5.8 0 0 0-.359 1.937c-.05 1.1-.061 1.43-.061 4.215s.013 3.11.062 4.21a5.787 5.787 0 0 0 .359 1.937 3.458 3.458 0 0 0 1.98 1.98 5.793 5.793 0 0 0 1.937.359c1.1.05 1.43.061 4.216.061s3.115-.011 4.215-.061a5.792 5.792 0 0 0 1.937-.359 3.457 3.457 0 0 0 1.98-1.98 5.785 5.785 0 0 0 .359-1.937c.05-1.1.061-1.429.061-4.214s-.012-3.114-.063-4.214zm-2.954 0a1.259 1.259 0 1 1 1.259-1.258 1.258 1.258 0 0 1-1.259 1.259zm-5.521 9.742a5.511 5.511 0 1 1 5.511-5.513 5.511 5.511 0 0 1-5.511 5.513zm0-9.087a3.577 3.577 0 1 0 3.578 3.574 3.578 3.578 0 0 0-3.578-3.574z"/>
	</svg>
	<svg id="footer-twitter" data-name="#" viewBox="0 0 24 24" xmlns="http://www.w3.org/2000/svg">
		<defs><style>.ccls-1{fill:#fff;fill-rule:evenodd}</style></defs>
		<path id="cTwitter" class="ccls-1" d="M24.255 4.239A9.676 9.676 0 0 1 21.477 5 4.854 4.854 0 0 0 23.6 2.325 9.682 9.682 0 0 1 20.531 3.5a4.839 4.839 0 0 0-8.24 4.411 13.732 13.732 0 0 1-9.968-5.055 4.841 4.841 0 0 0 1.5 6.455 4.806 4.806 0 0 1-2.191-.6v.058a4.841 4.841 0 0 0 3.878 4.742 4.866 4.866 0 0 1-2.184.083 4.845 4.845 0 0 0 4.518 3.36 9.715 9.715 0 0 1-6.006 2.069 10.056 10.056 0 0 1-1.153-.068A13.635 13.635 0 0 0 8.1 21.05 13.6 13.6 0 0 0 21.854 7.367c0-.209 0-.418-.015-.626a9.862 9.862 0 0 0 2.414-2.5z"/>
	</svg>
	<svg viewBox="0 0 32 30" id="header-icons-cart" xmlns="http://www.w3.org/2000/svg">
		<defs><style>.dcls-1{fill:#333;fill-rule:evenodd}</style></defs>
		<path id="d_" data-name="#" class="dcls-1" d="M30.121 8.412a.121.121 0 0 1 .14.068l-2.57 12.807a.5.5 0 0 1-.178.279H9.772a.507.507 0 0 1-.179-.289L7 8.412h23.121M2.078.995a.614.614 0 0 0-.739.713c0 .524 0 .648.631.716l2.442.212L8.22 21.553a1.7 1.7 0 0 0 1.512 1.413h17.822a1.7 1.7 0 0 0 1.512-1.416l2.567-12.794a1.471 1.471 0 0 0-1.513-1.744H6.94L5.732 1.425a.479.479 0 0 0-.383-.4L2.078.995zM13.5 25a2.5 2.5 0 1 1-2.5 2.5 2.5 2.5 0 0 1 2.5-2.5zm0 1.2a1.3 1.3 0 1 1-1.3 1.3 1.3 1.3 0 0 1 1.3-1.3zm10-1.2a2.5 2.5 0 1 1-2.5 2.5 2.5 2.5 0 0 1 2.5-2.5zm0 1.2a1.3 1.3 0 1 1-1.3 1.3 1.3 1.3 0 0 1 1.3-1.3z"/>
	</svg>
	<svg viewBox="0 0 32 30" id="header-icons-cart-index" xmlns="http://www.w3.org/2000/svg">
		<defs><style>.ecls-1{fill:#fff;fill-rule:evenodd}</style></defs>
		<path id="e_" data-name="#" class="ecls-1" d="M30.121 8.412a.121.121 0 0 1 .14.068l-2.57 12.807a.5.5 0 0 1-.178.279H9.772a.507.507 0 0 1-.179-.289L7 8.412h23.121M2.078.995a.614.614 0 0 0-.739.713c0 .524 0 .648.631.716l2.442.212L8.22 21.553a1.7 1.7 0 0 0 1.512 1.413h17.822a1.7 1.7 0 0 0 1.512-1.416l2.567-12.794a1.471 1.471 0 0 0-1.513-1.744H6.94L5.732 1.425a.479.479 0 0 0-.383-.4L2.078.995zM13.5 25a2.5 2.5 0 1 1-2.5 2.5 2.5 2.5 0 0 1 2.5-2.5zm0 1.2a1.3 1.3 0 1 1-1.3 1.3 1.3 1.3 0 0 1 1.3-1.3zm10-1.2a2.5 2.5 0 1 1-2.5 2.5 2.5 2.5 0 0 1 2.5-2.5zm0 1.2a1.3 1.3 0 1 1-1.3 1.3 1.3 1.3 0 0 1 1.3-1.3z"/>
	</svg>
	<svg viewBox="0 0 26 26" id="header-search" xmlns="http://www.w3.org/2000/svg">
		<defs><style>.fcls-1{fill:#333;fill-rule:evenodd}</style></defs>
		<path id="fSearch" class="fcls-1" d="M23.733 23.072l-.63.63a.823.823 0 0 1-1.2.094l-5.547-5.576a9.022 9.022 0 1 1 1.886-1.894l5.551 5.58a.785.785 0 0 1-.06 1.166zM11 4.406A6.594 6.594 0 1 0 17.594 11 6.594 6.594 0 0 0 11 4.406z"/>
	</svg>
	<svg viewBox="0 0 26 26" id="header-search-index" xmlns="http://www.w3.org/2000/svg">
		<defs><style>.gcls-1{fill:#fff;fill-rule:evenodd}</style></defs>
		<path id="gSearch" class="gcls-1" d="M23.733 23.072l-.63.63a.823.823 0 0 1-1.2.094l-5.547-5.576a9.022 9.022 0 1 1 1.886-1.894l5.551 5.58a.785.785 0 0 1-.06 1.166zM11 4.406A6.594 6.594 0 1 0 17.594 11 6.594 6.594 0 0 0 11 4.406z"/>
	</svg>
	<svg id="logo-black" viewBox="0 0 142 38.969" xmlns="http://www.w3.org/2000/svg">
		<defs><style>.hcls-1{fill:#1a1b1c;fill-rule:evenodd}</style></defs>
		<path class="hcls-1" d="M271.473 100.432A3.611 3.611 0 0 0 268.386 99h-21.315l.383 6.225h1.946c-1.458 4.684-3.51 11.126-4.887 15.544L243.022 99h-9.836l-13.794 21.016h-9.975l1.763-5.032h8.664l1.7-4.982h-8.662l1.316-4.975h11.957L228.169 99H186.88a7.574 7.574 0 0 0-4.448 1.3 7.191 7.191 0 0 0-2.679 3.753l-5.4 16.857q-.79 2.488.232 3.793c.665.858 1.876 1.281 3.632 1.281h18.212L201.848 110h-12.687l-1.661 5h5.05l-1.885 4.968h-8.116l4.847-14.993h18.891l-6.732 21.01h25.038l2.919-4.967h9.537l.281 4.967h13.04l3.172-9.993h4.472l1.573 9.993h7.266l-2.061-10.505c2.122-.44 3.492-1.357 4.114-3.2l2.774-8.212a4.079 4.079 0 0 0-.207-3.636zm-40.653 14.587l5.191-7.621.87 7.621h-6.061zm32.034-5.031h-7.478l1.184-4.983h7.565zM163.168 118.463a2.056 2.056 0 0 0-.1-.086l-.039-.031-.008-.008-.148-.116-6.325-4.7a6.34 6.34 0 0 0-3.251-1.316l-7.483-.074-.774-.008c-.923-.01-1.14 1.584-.45 2.193l.04.031 5.614 4.394a1.059 1.059 0 0 1-.009 1.646l-.68.53a2.161 2.161 0 0 1-2.517 0l-8.388-6.553a2.4 2.4 0 0 1 0-3.739l8.393-6.556a2.124 2.124 0 0 1 2.5.012l6.088 5.231h.006a3.035 3.035 0 0 0 3.693.007l4.113-3.466a1.542 1.542 0 0 0 .006-2.4l-.287-.228-11.421-9.056h-.017a5.821 5.821 0 0 0-7.068.1l-.13.1-12.035 9.4-.127.1-.137.108a5.856 5.856 0 0 0-2.215 4.466v8.151l.007.013a5.857 5.857 0 0 0 2.213 4.393l.27.211v-.006l12.085 9.442.117.091a5.824 5.824 0 0 0 7.215 0l.116-.091.408-.318.3-.233 10.451-7.832v-.023c.03-.028.064-.053.092-.082a2.623 2.623 0 0 0-.118-3.697z" transform="translate(-130 -93.031)"/>
	</svg>
	<svg viewBox="0 0 129 38.969" id="logo-black-sm" xmlns="http://www.w3.org/2000/svg">
		<defs><style>.icls-1{fill:#1a1b1c;fill-rule:evenodd}</style></defs>
		<path class="icls-1" d="M128.527 8.295a3.208 3.208 0 0 0-2.772-1.326h-19.1l.367 5.979h1.678c-1.31 4.337-3.152 10.086-4.389 14.176l-1.335-20.155h-8.833L81.755 25.986H72.8l1.58-4.017h7.781l1.529-5.023h-7.78l1.046-3.951h10.738l1.943-6.026h-37.08a6.368 6.368 0 0 0-6.4 4.68l-4.848 15.608q-.709 2.3.208 3.512a3.853 3.853 0 0 0 3.263 1.186h16.355l4.933-15H54.674l-1.7 5.04h4.534l-1.556 3.953h-7.288l4.216-12.952h16.965L63.936 31.96h22.486l2.826-5.009h8.292l.32 5.009h11.711l2.848-8.979h4.017l1.412 8.979h6.525l-1.85-9.726c1.905-.408 3.136-1.257 3.695-2.959l2.491-7.6a3.88 3.88 0 0 0-.182-3.38zM91.95 21.937l4.73-7.193.781 7.193H91.95zm28.836-4.932h-6.716l1.064-4.056h6.794zm-87.618 8.427a2.056 2.056 0 0 0-.1-.086l-.039-.031-.008-.008-.148-.116-6.325-4.7a6.7 6.7 0 0 0-3.251-1.54l-7.483.025-.774-.007c-.923-.01-1.14 1.71-.45 2.319l.04.031 5.614 4.394a1.059 1.059 0 0 1-.009 1.646l-.68.53a2.161 2.161 0 0 1-2.517 0L8.65 21.336a2.4 2.4 0 0 1 0-3.739l8.393-6.556a2.123 2.123 0 0 1 2.5.012l6.088 5.231h.006a3.036 3.036 0 0 0 3.693.007l4.113-3.466a1.542 1.542 0 0 0 .006-2.4l-.287-.228-11.421-9.058h-.017a5.821 5.821 0 0 0-7.068.1l-.13.1-12.035 9.4-.127.1-.137.108a5.857 5.857 0 0 0-2.215 4.466v8.151l.007.013a5.857 5.857 0 0 0 2.213 4.393l.27.211v-.006l12.085 9.442.117.091a5.823 5.823 0 0 0 7.215 0l.116-.09.408-.318.3-.233 10.451-7.832v-.023c.03-.028.064-.053.092-.082a2.623 2.623 0 0 0-.118-3.698z"/>
	</svg>
	<svg viewBox="0 0 34 26" id="mweb-menu-icon" xmlns="http://www.w3.org/2000/svg">
		<defs><style>.jcls-1{fill:#333;fill-rule:evenodd}</style></defs>
		<path id="j_" data-name="#" class="jcls-1" d="M1 0h32a1 1 0 0 1 1 1v2a1 1 0 0 1-1 1H1a1 1 0 0 1-1-1V1a1 1 0 0 1 1-1zm0 11h32a1 1 0 0 1 1 1v2a1 1 0 0 1-1 1H1a1 1 0 0 1-1-1v-2a1 1 0 0 1 1-1zm0 11h32a1 1 0 0 1 1 1v2a1 1 0 0 1-1 1H1a1 1 0 0 1-1-1v-2a1 1 0 0 1 1-1z"/>
	</svg>
	<svg viewBox="0 0 34 26" id="mweb-menu-icon-index" xmlns="http://www.w3.org/2000/svg">
		<defs><style>.kcls-1{fill:#fff;fill-rule:evenodd}</style></defs>
		<path id="k_" data-name="#" class="kcls-1" d="M1 0h32a1 1 0 0 1 1 1v2a1 1 0 0 1-1 1H1a1 1 0 0 1-1-1V1a1 1 0 0 1 1-1zm0 11h32a1 1 0 0 1 1 1v2a1 1 0 0 1-1 1H1a1 1 0 0 1-1-1v-2a1 1 0 0 1 1-1zm0 11h32a1 1 0 0 1 1 1v2a1 1 0 0 1-1 1H1a1 1 0 0 1-1-1v-2a1 1 0 0 1 1-1z"/>
	</svg>
	<svg id="mweb-menu-x" xmlns="http://www.w3.org/2000/svg"  viewBox="0 0 30 30">
		<defs><style>.lcls-1 {fill: #1a1b1c;fill-rule: evenodd;}</style></defs>
		<path d="M17.073,14.992 L29.558,27.496 C30.133,28.072 30.133,29.004 29.558,29.580 C29.271,29.868 28.894,30.012 28.518,30.012 C28.142,30.012 27.765,29.868 27.478,29.580 L14.993,17.076 L2.508,29.580 C2.221,29.868 1.844,30.012 1.468,30.012 C1.091,30.012 0.715,29.868 0.427,29.580 C-0.147,29.004 -0.147,28.072 0.427,27.496 L12.912,14.992 L0.427,2.488 C-0.147,1.913 -0.147,0.979 0.427,0.404 C1.002,-0.172 1.933,-0.172 2.508,0.404 L14.993,12.908 L27.478,0.404 C28.052,-0.172 28.983,-0.172 29.558,0.404 C30.133,0.979 30.133,1.913 29.558,2.488 L17.073,14.992 Z" class="lcls-1"/>
	</svg>
	<svg viewBox="0 0 8 6" id="nav-dropdown" xmlns="http://www.w3.org/2000/svg">
		<defs><style>.mcls-1{fill:#333;fill-rule:evenodd}</style></defs>
		<path id="m_" data-name="#" class="mcls-1" d="M7.782 1.192L4.46 4.745a.641.641 0 0 1-.949 0L.188 1.192a.753.753 0 0 1 0-1.015.641.641 0 0 1 .949 0l2.848 3.045L6.833.177a.641.641 0 0 1 .949 0 .753.753 0 0 1 0 1.015z"/>
	</svg>
	<svg viewBox="0 0 8 6" id="nav-dropdown-index" xmlns="http://www.w3.org/2000/svg">
		<defs><style>.ncls-1{fill:#fff;fill-rule:evenodd}</style></defs>
		<path id="n_" data-name="#" class="ncls-1" d="M7.782 1.192L4.46 4.745a.641.641 0 0 1-.949 0L.188 1.192a.753.753 0 0 1 0-1.015.641.641 0 0 1 .949 0l2.848 3.045L6.833.177a.641.641 0 0 1 .949 0 .753.753 0 0 1 0 1.015z"/>
	</svg>
	<svg xmlns="http://www.w3.org/2000/svg" id="ico-check-white" width="10" height="8" viewBox="0 0 10 8">
		<defs><style>.ocls-1 {fill: #fff;fill-rule: evenodd;}</style></defs>
		<path class="ocls-1" d="M306,763v1h-1v1h-1v1h-1v1h-1v1h-1v1h-1v-1h-1v-1h-1v-1h-1v-1h1v-1h1v1h1v1h1v-1h1v-1h1v-1h1v-1h1v-1h1v1h1v1h-1Z" transform="translate(-297 -761)"/>
	</svg>
	<svg xmlns="http://www.w3.org/2000/svg" id="merchant_default" width="47" height="53" viewBox="0 0 47 53">
		<defs><style>.pcls-1 {fill: #2f333b;fill-rule: evenodd;opacity: 0.2;}</style></defs>
		<path class="pcls-1" d="M45.819,34.59c-0.044-.04-0.091-0.078-0.138-0.116h0l-0.053-.042-0.012-.01-0.2-.159-8.739-6.387a8.855,8.855,0,0,0-4.493-1.789l-10.338-.1-1.07-.012c-1.276-.014-1.575,2.154-0.622,2.982v0.006l0.055,0.043h0l7.756,5.973a1.425,1.425,0,0,1-.011,2.238l-0.94.721a3.025,3.025,0,0,1-3.478,0l-11.59-8.91a3.224,3.224,0,0,1,0-5.084l11.6-8.914a2.974,2.974,0,0,1,3.452.016L35.4,22.159h0.009a4.25,4.25,0,0,0,5.1.01h0L46.2,17.456a2.076,2.076,0,0,0,.009-3.257l-0.4-.311h0L30.03,1.56H30.006a8.146,8.146,0,0,0-9.765.139l-0.181.139h0L3.43,14.622h0l-0.007,0-0.176.135h0l-0.191.147A7.93,7.93,0,0,0,0,20.981l-0.006.012V31.765h0v0.3L0,32.083a7.925,7.925,0,0,0,3.058,5.973L3.43,38.344V38.336l16.7,12.837h0L20.29,51.3a8.15,8.15,0,0,0,9.969,0l0.16-.123h0l0.564-.433,0.412-.317h0l14.44-10.648V39.745c0.042-.038.089-0.073,0.128-0.112a3.527,3.527,0,0,0-.087-4.988Z"/>
	</svg>
	<svg xmlns="http://www.w3.org/2000/svg" id="filter-multiple" width="6" height="6" viewBox="0 0 6 6">
		<defs><style>.qcls-1 {fill: #fff;fill-rule: evenodd;}</style></defs>
		<path id="Rounded_Rectangle_2" data-name="Rounded Rectangle 2" class="qcls-1" d="M178.715,1013.64l-1.385,1.39,1.277,1.27a0.924,0.924,0,0,1-1.3,1.31l-1.276-1.28-1.385,1.39a0.961,0.961,0,0,1-1.357-1.36l1.385-1.39-1.277-1.27a0.924,0.924,0,0,1,1.3-1.31l1.276,1.28,1.385-1.39A0.961,0.961,0,0,1,178.715,1013.64Z" transform="translate(-173 -1012)"/>
	</svg>
	<svg xmlns="http://www.w3.org/2000/svg" id="popup-close" width="16" height="16" viewBox="0 0 16 16">
		<defs><style>.rcls-1 {fill: #a8b0b0;fill-rule: evenodd;}</style></defs>
		<path class="rcls-1" d="M445,67.331L443.529,68.8l-6.421-6.421-6.628,6.627-1.489-1.49,6.627-6.627-6.43-6.43,1.472-1.472,6.43,6.43L443.51,53,445,54.49l-6.421,6.421Z" transform="translate(-429 -53)"/>
	</svg>
	<svg xmlns="http://www.w3.org/2000/svg" id="gear_logo" width="136.781" height="59" viewBox="0 0 136.781 59">
		<defs><style>.scls-1 {fill: #151618;fill-rule: evenodd;}</style></defs>
		<path class="scls-1" d="M167.482,106a14.211,14.211,0,0,1-10.345-4.091,14.843,14.843,0,0,1,.081-20.736A14.167,14.167,0,0,1,167.5,77a15.19,15.19,0,0,1,10.464,3.971l-3.241,4.693a12.37,12.37,0,0,0-3.462-2.266,9.269,9.269,0,0,0-3.421-.622,8.184,8.184,0,0,0-6,2.427,9.7,9.7,0,0,0-.1,12.755,7.55,7.55,0,0,0,5.583,2.387,11.707,11.707,0,0,0,5.652-1.243V95h-5.963l3-4.994h9v11.347Q174.844,106,167.482,106Zm22.8-31.228-20.542-11.76-0.513-.294a5.5,5.5,0,0,0-5.444,0l-0.513.294-20.542,11.76a5.4,5.4,0,0,0-2.722,4.674v24.108a5.4,5.4,0,0,0,2.722,4.674l20.542,11.761,0.513,0.293a5.5,5.5,0,0,0,5.444,0l0.513-.293,20.542-11.76a5.407,5.407,0,0,0,2.722-4.675V79.448A5.4,5.4,0,0,0,190.286,74.773Zm46.725,8.264V86.63h-9V90.1h8V93.54h-8v3.81h9v3.685h-13v-18h13ZM254.6,101l-1.832-4.007h-7.525L243.378,101h-4.4l8.014-18h4.006l8.014,18H254.6ZM249,88.379l-2.335,5.559h4.644Zm26.966,0.655a5.666,5.666,0,0,1-3.75,5.7l4.575,6.305h-4.963L267.825,95.5H265v5.545h-4v-18h7.162q4.213,0,6.01,1.422A5.486,5.486,0,0,1,275.969,89.034ZM271.2,91.3a3.038,3.038,0,0,0,.749-2.257,2.285,2.285,0,0,0-.775-2,4.964,4.964,0,0,0-2.714-.543H265v5.475h3.384A4.335,4.335,0,0,0,271.2,91.3Zm-57.723,9.731a9.191,9.191,0,0,1-6.743-2.656,9.064,9.064,0,0,1-2.726-6.758A9.488,9.488,0,0,1,213.494,82a9.889,9.889,0,0,1,6.822,2.647L218.2,87.73a8.061,8.061,0,0,0-2.257-1.49,5.983,5.983,0,0,0-2.23-.21,5.183,5.183,0,0,0-3.882,1.526,5.534,5.534,0,0,0-1.774,4.079,5.692,5.692,0,0,0,1.677,4.119,4.811,4.811,0,0,0,3.64,1.472,7.333,7.333,0,0,0,3.615-.658V94.006H213l0.969-3.041h7.024v7.08C219.185,100.085,216.681,101.035,213.481,101.035Z" transform="translate(-140 -62)"/>
	</svg>
	<svg xmlns="http://www.w3.org/2000/svg" id="share-facebook" width="22" height="22" viewBox="0 0 22 22">
		<defs><style>.tcls-1 {fill: #262830;fill-rule: evenodd;}</style></defs>
		<path id="Facebook" class="tcls-1" d="M1143.75,679h-17.5a2.252,2.252,0,0,0-2.25,2.251v17.5a2.252,2.252,0,0,0,2.25,2.251h9.76v-7.969h-3v-3.074h3V688c0-2.89,1.48-4.043,4.06-4.043,1.43,0,1.95.022,1.94,0.012v3.053h-1.36c-1.4,0-1.66.62-1.66,1.6v1.341H1142l-0.44,3.074h-2.57V701h4.76a2.252,2.252,0,0,0,2.25-2.251v-17.5A2.252,2.252,0,0,0,1143.75,679Z" transform="translate(-1124 -679)"/>
	</svg>
	<svg xmlns="http://www.w3.org/2000/svg" id="share-instagram" width="28" height="28" viewBox="0 0 28 28">
		<defs><style>.ucls-1 {fill: #1c1e27;fill-rule: evenodd;}</style></defs>
		<path id="Instagram" class="ucls-1" d="M23.923,18.811a7.689,7.689,0,0,1-.488,2.546,5.363,5.363,0,0,1-3.067,3.068,7.707,7.707,0,0,1-2.546.487c-1.119.051-1.476,0.063-4.324,0.063s-3.206-.012-4.325-0.063a7.707,7.707,0,0,1-2.546-.487A5.368,5.368,0,0,1,3.56,21.357a7.7,7.7,0,0,1-.488-2.546c-0.051-1.119-.063-1.476-0.063-4.324s0.013-3.206.063-4.325A7.7,7.7,0,0,1,3.56,7.617,5.368,5.368,0,0,1,6.627,4.549a7.693,7.693,0,0,1,2.546-.487C10.292,4.01,10.65,4,13.5,4s3.206,0.012,4.324.063a7.694,7.694,0,0,1,2.546.487,5.363,5.363,0,0,1,3.067,3.068,7.68,7.68,0,0,1,.488,2.545c0.051,1.119.063,1.476,0.063,4.325S23.974,17.693,23.923,18.811Zm-1.935-8.54a5.8,5.8,0,0,0-.359-1.937,3.458,3.458,0,0,0-1.98-1.979A5.761,5.761,0,0,0,17.713,6c-1.1-.05-1.429-0.061-4.215-0.061S10.383,5.946,9.282,6a5.762,5.762,0,0,0-1.937.359,3.459,3.459,0,0,0-1.98,1.979,5.8,5.8,0,0,0-.359,1.937c-0.05,1.1-.061,1.43-0.061,4.215S4.958,17.6,5.007,18.7a5.787,5.787,0,0,0,.359,1.937,3.458,3.458,0,0,0,1.98,1.98,5.793,5.793,0,0,0,1.937.359c1.1,0.05,1.43.061,4.216,0.061s3.115-.011,4.215-0.061a5.792,5.792,0,0,0,1.937-.359,3.457,3.457,0,0,0,1.98-1.98,5.785,5.785,0,0,0,.359-1.937c0.05-1.1.061-1.429,0.061-4.214S22.039,11.372,21.988,10.272Zm-2.954,0a1.259,1.259,0,1,1,1.259-1.258A1.258,1.258,0,0,1,19.034,10.272Zm-5.521,9.742A5.511,5.511,0,1,1,19.024,14.5,5.511,5.511,0,0,1,13.513,20.013Zm0-9.087A3.577,3.577,0,1,0,17.091,14.5,3.578,3.578,0,0,0,13.513,10.926Z"/>
	</svg>
	<svg xmlns="http://www.w3.org/2000/svg" id="share-twitter" width="22" height="22" viewBox="0 0 22 22">
		<defs><style>.vcls-1 {fill: #262830;fill-rule: evenodd;}</style></defs>
		<path id="Twitter" class="vcls-1" d="M1171.75,679h-17.5a2.252,2.252,0,0,0-2.25,2.251v17.5a2.252,2.252,0,0,0,2.25,2.251h17.5a2.252,2.252,0,0,0,2.25-2.251v-17.5A2.252,2.252,0,0,0,1171.75,679Zm-1.28,7.278a5.114,5.114,0,0,1-1.57.376,2.866,2.866,0,0,0,1.26-1.584,5.661,5.661,0,0,1-1.82.695,2.923,2.923,0,0,0-2.15-.833,2.793,2.793,0,0,0-2.87,2.771c0,0.224.01,0.136,0.01,0.358a8.031,8.031,0,0,1-5.96-2.816,2.928,2.928,0,0,0,.9,3.887,2.88,2.88,0,0,1-1.31-.364,0.051,0.051,0,0,0-.01.037,2.828,2.828,0,0,0,2.34,2.769,2.911,2.911,0,0,1-.77.1,2.825,2.825,0,0,1-.54-0.052,3.029,3.029,0,0,0,2.85,1.935,5.747,5.747,0,0,1-3.55,1.252,5.619,5.619,0,0,1-.68-0.041,8.049,8.049,0,0,0,4.38,1.262A7.808,7.808,0,0,0,1169,688.1c0-.124,0-0.29-0.01-0.413A5.652,5.652,0,0,0,1170.47,686.278Z" transform="translate(-1152 -679)"/>
	</svg>
	<svg data-name="#" id="share-google" xmlns="http://www.w3.org/2000/svg" width="24" height="24" viewBox="0 0 24 24">
		<defs><style>.wcls-1 {fill: #1c1e27;fill-rule: evenodd;}</style></defs>
		<path id="Google_" data-name="Google+" class="wcls-1" d="M20.75,23H4.25A2.251,2.251,0,0,1,2,20.75V4.251A2.251,2.251,0,0,1,4.25,2h16.5A2.251,2.251,0,0,1,23,4.251v16.5A2.251,2.251,0,0,1,20.75,23ZM16.019,13H16V12.578c-0.015-.233-0.035-0.456-0.057-0.585H11v1.99h2.963a2.77,2.77,0,0,1-2.942,2.011,3.038,3.038,0,0,1-3.03-3.068A2.918,2.918,0,0,1,11.016,10a3.273,3.273,0,0,1,2.136.569l1.294-1.337a4.629,4.629,0,0,0-3.333-1.275,5.012,5.012,0,0,0-5.146,4.964,5.164,5.164,0,0,0,5.146,5.146,4.6,4.6,0,0,0,4.91-4.853C16.024,13.155,16.021,13.077,16.019,13ZM20,12H19V11H18v1H17v1h1v1h1V13h1V12Z"/>
	</svg>
	<svg xmlns="http://www.w3.org/2000/svg" id="share-email" width="22" height="22" viewBox="0 0 22 22">
		<defs><style>.xcls-1 {fill: #262830;fill-rule: evenodd;}</style></defs>
		<path id="Mail" class="xcls-1" d="M1199.75,701h-17.5a2.252,2.252,0,0,1-2.25-2.251v-17.5a2.252,2.252,0,0,1,2.25-2.251h17.5a2.252,2.252,0,0,1,2.25,2.251v17.5A2.252,2.252,0,0,1,1199.75,701Zm-1.75-5.855a0.854,0.854,0,0,1-.88.831h-12.26a0.851,0.851,0,0,1-.87-0.831v-8.353l7,5.5,7-5.491Zm-13.99-10.153h13.97l-6.99,5.515Z" transform="translate(-1180 -679)"/>
	</svg>
	<svg xmlns="http://www.w3.org/2000/svg" id="copy_link" width="22" height="22" viewBox="0 0 22 22">
		<defs><style>.ycls-1 {fill: #262830;fill-rule: evenodd;}</style></defs>
		<path id="Link" class="ycls-1" d="M1227.75,679h-17.5a2.252,2.252,0,0,0-2.25,2.251v17.5a2.252,2.252,0,0,0,2.25,2.251h17.5a2.252,2.252,0,0,0,2.25-2.251v-17.5A2.252,2.252,0,0,0,1227.75,679Zm-7.66,5.815-1.08,1.079a2.9,2.9,0,0,0-.77,2.735l2.83-2.831a1.511,1.511,0,0,1,2.14,2.134l-2.83,2.83a2.885,2.885,0,0,0,2.73-.769l1.08-1.078A2.9,2.9,0,0,0,1220.09,684.815Zm-3.14,9.373a1.507,1.507,0,0,1-2.13-2.133l2.83-2.829a2.9,2.9,0,0,0-2.74.767l-1.08,1.079a2.9,2.9,0,0,0,4.1,4.1l1.08-1.078a2.9,2.9,0,0,0,.77-2.736Zm4.59-6.723a0.756,0.756,0,0,1,0,1.061l-4,4a0.75,0.75,0,1,1-1.06-1.061l4-4A0.749,0.749,0,0,1,1221.54,687.465Z" transform="translate(-1208 -679)"/>
	</svg>
	<svg xmlns="http://www.w3.org/2000/svg" id="nav-arrow" viewBox="0 0 16 28">
		<defs><style>.zcls-1 {fill: #1a1b1c;fill-rule: evenodd;}</style></defs>
		<path d="M0.469,24.457 L11.401,13.520 L0.469,2.583 C-0.115,1.999 -0.115,1.051 0.469,0.466 C1.054,-0.118 2.001,-0.118 2.585,0.466 L14.575,12.462 C15.160,13.046 15.160,13.994 14.575,14.578 L2.585,26.574 C2.001,27.158 1.054,27.158 0.469,26.574 C-0.115,25.989 -0.115,25.042 0.469,24.457 Z" class="zcls-1"/>
	</svg>
	<svg xmlns="http://www.w3.org/2000/svg" id="mweb-cart" viewBox="0 0 46 46">
		<defs><style>.mobile-cls-1 {fill: #1a1b1c;fill-rule: evenodd;}</style></defs>
		<path d="M44.966,11.545 L41.155,30.871 C40.948,31.960 40.006,32.995 38.910,32.995 L12.078,32.995 C10.982,32.995 10.040,31.965 9.832,30.876 L4.180,2.646 L0.929,2.326 C-0.008,2.225 -0.008,1.851 -0.008,1.066 C-0.008,0.281 0.313,-0.004 1.090,-0.004 L6.320,0.039 C6.597,0.039 6.836,0.366 6.889,0.642 L8.683,8.997 L42.720,8.997 C44.155,8.997 45.237,10.117 44.966,11.545 ZM9.527,11.996 L9.107,11.996 L12.716,29.996 L38.271,29.996 L41.831,11.996 L9.527,11.996 ZM16.485,36.003 C18.970,36.003 20.985,38.020 20.985,40.504 C20.985,42.990 18.970,45.005 16.485,45.005 C13.999,45.005 11.985,42.990 11.985,40.504 C11.985,38.020 13.999,36.003 16.485,36.003 ZM16.485,42.004 C17.312,42.004 17.984,41.330 17.984,40.504 C17.984,39.677 17.312,39.004 16.485,39.004 C15.657,39.004 14.985,39.677 14.985,40.504 C14.985,41.330 15.657,42.004 16.485,42.004 ZM34.485,36.003 C36.970,36.003 38.985,38.020 38.985,40.504 C38.985,42.990 36.970,45.005 34.485,45.005 C31.999,45.005 29.985,42.990 29.985,40.504 C29.985,38.020 31.999,36.003 34.485,36.003 ZM34.485,42.004 C35.312,42.004 35.985,41.330 35.985,40.504 C35.985,39.677 35.312,39.004 34.485,39.004 C33.657,39.004 32.985,39.677 32.985,40.504 C32.985,41.330 33.657,42.004 34.485,42.004 Z" class="mobile-cls-1"/>
	</svg>
	<svg xmlns="http://www.w3.org/2000/svg" id="mweb-search" viewBox="0 0 46 46">
		<defs><style>.mobile-search-cls-1 {fill: #1a1b1c;fill-rule: evenodd;}</style></defs>
		<path d="M44.990,41.933 L41.950,44.989 L29.273,31.999 C26.183,34.501 22.267,36.010 18.013,36.010 C8.111,36.010 0.010,27.876 0.010,17.935 C0.010,7.994 8.111,0.011 18.013,0.011 C27.913,0.011 36.015,7.994 36.015,17.935 C36.015,22.233 34.496,26.189 31.977,29.300 L44.990,41.933 ZM18.051,3.012 C9.732,3.012 3.270,9.762 3.270,17.942 C3.270,26.123 9.915,32.754 18.113,32.754 C26.310,32.754 33.012,26.268 33.012,17.958 C33.012,9.647 26.369,3.012 18.051,3.012 Z" class="mobile-search-cls-1"/>
	</svg>

</svg>