<?xml version="1.0" encoding="utf-8"?>
<svg xmlns="http://www.w3.org/2000/svg" xmlns:xlink="http://www.w3.org/1999/xlink">
	<style>:root>svg{display:none}:root>svg:target{display:block}</style>
	<svg xmlns="http://www.w3.org/2000/svg" id="nav-dropdown" viewBox="0 0 8 6">
		<defs><style>.acls-1 {fill: #333;fill-rule: evenodd;}</style></defs>
		<path id="_" data-name="#" class="acls-1" d="M7.782,1.192L4.46,4.745a0.641,0.641,0,0,1-.949,0L0.188,1.192a0.753,0.753,0,0,1,0-1.015,0.641,0.641,0,0,1,.949,0L3.985,3.222,6.833,0.177a0.641,0.641,0,0,1,.949,0A0.753,0.753,0,0,1,7.782,1.192Z"/>
	</svg>
	<svg xmlns="http://www.w3.org/2000/svg" id="btn-fullscreen" viewBox="0 0 42 42">
		<defs>
			<style>.bcls-1 {fill: #fff;filter: url(#drop-shadow-1);fill-rule: evenodd;}</style>
			<filter id="drop-shadow-1" filterUnits="userSpaceOnUse"><feOffset dy="1" in="SourceAlpha"/><feGaussianBlur stdDeviation="1.732" result="dropBlur"/><feFlood flood-color="#2f333b" flood-opacity="0.15"/><feComposite operator="in" in2="dropBlur" result="dropShadowComp"/><feComposite in="SourceGraphic" result="shadowed"/></filter>
		</defs>
		<path d="M-0.000,42.000 L-0.000,-0.000 L42.000,-0.000 L42.000,42.000 L-0.000,42.000 ZM40.000,2.000 L2.000,2.000 L2.000,40.000 L40.000,40.000 L40.000,2.000 ZM6.000,34.000 L6.000,27.000 L8.000,27.000 L8.000,32.643 L17.641,23.002 L18.995,24.356 L9.351,34.000 L15.000,34.000 L15.000,36.000 L6.000,36.000 L6.000,36.000 L6.000,34.649 L5.997,34.646 L6.000,34.643 L6.000,34.000 ZM27.000,8.000 L27.000,6.000 L34.000,6.000 L36.000,6.000 L36.000,7.351 L36.003,7.354 L36.000,7.357 L36.000,8.000 L36.000,15.000 L34.000,15.000 L34.000,9.357 L24.359,18.998 L23.005,17.644 L32.649,8.000 L27.000,8.000 Z" class="bcls-1"/>
	</svg>
	<svg xmlns="http://www.w3.org/2000/svg" id="slideshow-arrow" width="19" height="30" viewBox="0 0 19 30">
		<defs>
			<style>.ccls-1 {fill: #fff;filter: url(#drop-shadow-2);fill-rule: evenodd;}</style>
			<filter id="drop-shadow-2" filterUnits="userSpaceOnUse"><feOffset dy="1" in="SourceAlpha"/><feGaussianBlur stdDeviation="1.732" result="dropBlur"/><feFlood flood-color="#2f333b" flood-opacity="0.15"/><feComposite operator="in" in2="dropBlur" result="dropShadowComp"/><feComposite in="SourceGraphic" result="shadowed"/></filter>
		</defs>
		<path d="M2.470,25.559 L13.409,15.016 L2.470,4.473 C1.885,3.910 1.885,2.997 2.470,2.433 C3.054,1.870 4.002,1.870 4.587,2.433 L16.585,13.996 C17.170,14.559 17.170,15.473 16.585,16.036 L4.587,27.600 C4.002,28.163 3.054,28.163 2.470,27.600 C1.885,27.036 1.885,26.123 2.470,25.559 Z" class="ccls-1"/>
	</svg>
	<svg xmlns="http://www.w3.org/2000/svg" id="close-fullscreen" viewBox="0 0 34 26">
		<defs><style>.dcls-1 {fill: #ffffff;fill-rule: evenodd;}</style></defs>
		<path data-name="#" class="dcls-1" d="M19.844,12.984L29.759,22.9a1,1,0,0,1,0,1.414l-1.414,1.414a1,1,0,0,1-1.414,0l-9.915-9.915L7.1,25.728a1,1,0,0,1-1.414,0L4.272,24.314a1,1,0,0,1,0-1.414l9.915-9.915L4.3,3.1a1,1,0,0,1,0-1.414L5.718,0.272a1,1,0,0,1,1.414,0l9.884,9.884L26.9,0.272a1,1,0,0,1,1.414,0l1.414,1.414a1,1,0,0,1,0,1.414Z"/>
	</svg>

</svg>