<svg xmlns="http://www.w3.org/2000/svg" xmlns:xlink="http://www.w3.org/1999/xlink" viewBox="0 0 200 200">
  <defs>
    <style>
      .cls-1 {
        fill: #1a1b1c;
      }

      .cls-2, .cls-4 {
        fill: none;
        stroke: #9ba0a5;
        stroke-width: 2px;
      }

      .cls-10, .cls-2, .cls-3, .cls-6, .cls-8, .cls-9 {
        fill-rule: evenodd;
      }

      .cls-3 {
        fill: #9ba0a5;
      }

      .cls-5, .cls-8 {
        fill: #fff;
      }

      .cls-6 {
        fill: #1a1b1c;
      }

      .cls-10, .cls-7 {
        fill: #3ccb83;
      }

      .cls-9 {
        fill: rgba(175,180,185,0.64);
      }

      .cls-11 {
        fill: rgba(255,255,255,0);
      }
    </style>
  </defs>
  <g >
    <path d="M159.339,79.339 C159.135,79.543 158.804,79.543 158.600,79.339 L156.487,77.225 C155.860,77.700 155.089,77.993 154.248,77.993 C152.188,77.993 150.502,76.300 150.502,74.232 C150.502,72.163 152.188,70.502 154.248,70.502 C156.308,70.502 157.994,72.163 157.994,74.232 C157.994,75.079 157.700,75.855 157.225,76.486 L159.339,78.600 C159.543,78.804 159.543,79.135 159.339,79.339 ZM154.235,71.496 C152.697,71.496 151.502,72.744 151.502,74.256 C151.502,75.768 152.731,76.994 154.246,76.994 C155.761,76.994 157.000,75.795 157.000,74.259 C157.000,72.722 155.772,71.496 154.235,71.496 Z" class="cls-1"/>
    <path d="M30.459,0.008 C27.610,0.008 25.333,2.389 25.041,5.669 C24.965,6.391 25.022,7.120 25.208,7.821 C25.637,9.634 26.603,11.277 27.983,12.536 L35.000,18.992 L42.053,12.536 C43.433,11.277 44.377,9.634 44.805,7.821 C44.993,7.120 45.050,6.392 44.976,5.670 C44.684,2.389 42.427,0.009 39.580,0.009 C37.666,0.028 35.952,1.062 35.010,2.721 C34.118,1.066 32.346,0.026 30.459,0.008 L30.459,0.008 Z" class="cls-1" transform="translate(100 0)"/>
    <g transform="translate(-4303 -581)">
      <path id="love" class="cls-2" d="M808.447,680.961c-2.85,0-5.129,2.393-5.422,5.689a6,6,0,0,0,.168,2.163,9.32,9.32,0,0,0,2.776,4.738l7.023,6.488,7.059-6.488a9.278,9.278,0,0,0,2.754-4.738,6.013,6.013,0,0,0,.171-2.161c-.293-3.3-2.551-5.69-5.4-5.69A5.3,5.3,0,0,0,813,683.687a5.245,5.245,0,0,0-4.555-2.726h0Z" transform="translate(3501.008 -98.961)"/>
    </g>
    <g transform="translate(-4615 -545)">
      <path id="Link" class="cls-3" d="M1220.09,684.815l-1.08,1.079a2.9,2.9,0,0,0-.77,2.735l2.83-2.831a1.511,1.511,0,0,1,2.14,2.134l-2.83,2.83a2.885,2.885,0,0,0,2.73-.769l1.08-1.078a2.9,2.9,0,0,0-4.1-4.1Zm-3.14,9.373a1.507,1.507,0,1,1-2.13-2.133l2.83-2.829a2.9,2.9,0,0,0-2.74.767l-1.08,1.079a2.9,2.9,0,0,0,4.1,4.1l1.08-1.078a2.9,2.9,0,0,0,.77-2.736Zm4.59-6.723a.756.756,0,0,1,0,1.061l-4,4a.75.75,0,0,1-1.06-1.061l4-4a.749.749,0,0,1,1.06,0Z" transform="translate(3528.97 -99.015)"/>
      <g id="newsletter_store" transform="translate(4733 576)">
        <circle id="_" data-name="#" class="cls-4" cx="15" cy="15" r="15"/>
      </g>
    </g>
    <g transform="translate(-4615 -545)">
      <path id="_2" data-name="#" class="cls-3" d="M126.014,405h11.98l-6,4.94ZM132,411.773l6-4.919s-.009,8.334-.009,6.276a2.089,2.089,0,0,1-.022.225,1.428,1.428,0,0,1,.029.145,1.5,1.5,0,0,1-1.5,1.5h-.231c-.025,0-.049.008-.074.008H127.8c-.025,0-.049-.007-.074-.008H127.5a1.5,1.5,0,0,1-1.492-1.463h0c0-.013-.008-.024-.008-.037s.007-.024.008-.037v-.333h0v.332a.979.979,0,0,1,.021-.108,2.051,2.051,0,0,1-.021-.224v-6.289Z" transform="translate(4577 181)"/>
      <circle id="_3" data-name="#" class="cls-4" cx="15" cy="15" r="15" transform="translate(4694 576)"/>
    </g>
    <g transform="translate(-4615 -545)">
      <path id="패스_6" data-name="패스 6" class="cls-3" d="M139,712.3a5.916,5.916,0,0,1-1.649.438,2.807,2.807,0,0,0,1.263-1.537,5.866,5.866,0,0,1-1.824.674,2.913,2.913,0,0,0-2.1-.877,2.826,2.826,0,0,0-2.872,2.777,2.476,2.476,0,0,0,.014.6,8.091,8.091,0,0,1-5.859-2.873,2.7,2.7,0,0,0-.389,1.4,2.753,2.753,0,0,0,1.278,2.312,2.943,2.943,0,0,1-1.3-.348v.034a2.8,2.8,0,0,0,2.3,2.723,2.939,2.939,0,0,1-.756.1,3.007,3.007,0,0,1-.541-.05,2.864,2.864,0,0,0,2.683,1.928,5.887,5.887,0,0,1-3.566,1.189,5.978,5.978,0,0,1-.686-.039A8.333,8.333,0,0,0,129.4,722a7.975,7.975,0,0,0,8.171-7.9c0-.12,0-.24-.009-.359A5.728,5.728,0,0,0,139,712.3" transform="translate(4538 -125)"/>
      <rect id="Rounded_Rectangle_600" data-name="Rounded Rectangle 600" class="cls-4" width="30" height="30" rx="15" transform="translate(4655 576)"/>
    </g>
    <g transform="translate(-4615 -545)">
      <path id="Facebook" class="cls-3" d="M130.89,672v-7H129v-2.14h1.891v-1.475c0-2.376,1.215-3.376,3.451-3.376H136v2.149H134.58c-1.217,0-1.415.539-1.415,1.343v1.361h2.563l-.27,2.138h-2.294v7Z" transform="translate(4499 -74)"/>
      <rect id="Rounded_Rectangle_600-2" data-name="Rounded Rectangle 600" class="cls-4" width="30" height="30" rx="15" transform="translate(4616 576)"/>
    </g>
    <path id="Apple_Pay_logo" class="cls-5" d="M8.834,2.542A2.95,2.95,0,0,1,6.47,3.659,3.345,3.345,0,0,1,7.314,1.21,3.526,3.526,0,0,1,9.66,0a3.562,3.562,0,0,1-.826,2.542M9.65,3.837c-1.3-.075-2.42.741-3.04.741S5.035,3.875,4,3.893A3.853,3.853,0,0,0,.729,5.882c-1.407,2.42-.366,6,.994,7.974.666.976,1.464,2.045,2.514,2.008.994-.038,1.388-.647,2.589-.647s1.557.647,2.608.629c1.088-.019,1.773-.976,2.439-1.951a8.557,8.557,0,0,0,1.088-2.242,3.535,3.535,0,0,1-2.12-3.218,3.61,3.61,0,0,1,1.717-3.021A3.718,3.718,0,0,0,9.65,3.837m7.533-2.721V15.742h2.27v-5H22.6A4.642,4.642,0,0,0,27.484,5.92a4.587,4.587,0,0,0-4.813-4.8H17.184Zm2.27,1.914h2.617c1.97,0,3.1,1.051,3.1,2.9s-1.126,2.908-3.105,2.908H19.454ZM31.631,15.855a3.756,3.756,0,0,0,3.349-1.867h.047v1.754h2.1V8.462c0-2.111-1.689-3.471-4.287-3.471-2.411,0-4.193,1.379-4.259,3.274h2.045a1.993,1.993,0,0,1,2.148-1.492c1.388,0,2.167.647,2.167,1.839v.807l-2.833.169c-2.636.159-4.062,1.238-4.062,3.115C28.047,14.6,29.52,15.855,31.631,15.855Zm.61-1.736c-1.21,0-1.979-.582-1.979-1.473,0-.919.741-1.454,2.158-1.539l2.524-.159v.826A2.467,2.467,0,0,1,32.241,14.119Zm7.693,5.6c2.214,0,3.255-.844,4.165-3.405L48.086,5.132H45.778L43.1,13.772h-.047l-2.674-8.64H38.01L41.857,15.78l-.206.647a1.8,1.8,0,0,1-1.914,1.52c-.178,0-.525-.019-.666-.038v1.754A6.253,6.253,0,0,0,39.934,19.72Z" transform="translate(73.941)"/>
    <path id="arrow" class="cls-6" d="M1298.47,2330.56l10.94-10.54-10.94-10.55a1.4,1.4,0,0,1,0-2.04,1.548,1.548,0,0,1,2.12,0l11.99,11.57a1.4,1.4,0,0,1,0,2.04l-11.99,11.56a1.548,1.548,0,0,1-2.12,0,1.4,1.4,0,0,1,0-2.04Z" transform="translate(-1248.029 -2307.01)"/>
    <g transform="translate(-14.707 -964.707)">
      <ellipse  class="cls-7" cx="14.293" cy="14.293" rx="14.293" ry="14.293" transform="translate(14.707 1034.707)"/>
      <path id="check" class="cls-8" d="M326.411,250.853l-6.366,7.429a1.153,1.153,0,0,1-1.581,0l-3.149-3.146a1.094,1.094,0,1,1,1.547-1.546l2.346,2.346,5.667-6.611a1.083,1.083,0,0,1,1.535,1.529Z" transform="translate(-292.327 795.231)"/>
    </g>
    <path id="star" class="cls-9" d="M1176.186,1006.235l1.854,5.408a.343.343,0,0,0,.331.236h5.986a.325.325,0,0,1,.213.59l-4.841,3.649a.32.32,0,0,0-.13.378l1.842,5.573a.347.347,0,0,1-.531.39l-4.841-3.448a.375.375,0,0,0-.413,0l-4.853,3.448a.347.347,0,0,1-.531-.39l1.854-5.573a.336.336,0,0,0-.13-.378l-4.853-3.649a.325.325,0,0,1,.213-.59h5.986a.343.343,0,0,0,.331-.236l1.854-5.408a.354.354,0,0,1,.661,0Z" transform="translate(-1132.002 -935.008)"/>
    <path id="star-2" data-name="star" class="cls-10" d="M1176.186,1006.235l1.854,5.408a.343.343,0,0,0,.331.236h5.986a.325.325,0,0,1,.213.59l-4.841,3.649a.32.32,0,0,0-.13.378l1.842,5.573a.347.347,0,0,1-.531.39l-4.841-3.448a.375.375,0,0,0-.413,0l-4.853,3.448a.347.347,0,0,1-.531-.39l1.854-5.573a.336.336,0,0,0-.13-.378l-4.853-3.649a.325.325,0,0,1,.213-.59h5.986a.343.343,0,0,0,.331-.236l1.854-5.408a.354.354,0,0,1,.661,0Z" transform="translate(-1132.002 -916.008)"/>
    <path id="star-3" data-name="star" class="cls-9" d="M1176.186,1006.235l1.854,5.408a.343.343,0,0,0,.331.236h5.986a.325.325,0,0,1,.213.59l-4.841,3.649a.32.32,0,0,0-.13.378l1.842,5.573a.347.347,0,0,1-.531.39l-4.841-3.448a.375.375,0,0,0-.413,0l-4.853,3.448a.347.347,0,0,1-.531-.39l1.854-5.573a.336.336,0,0,0-.13-.378l-4.853-3.649a.325.325,0,0,1,.213-.59h5.986a.343.343,0,0,0,.331-.236l1.854-5.408a.354.354,0,0,1,.661,0Z" transform="translate(-1112.002 -935.008)"/>
    <path id="star-4" data-name="star" class="cls-10" d="M1176.186,1006.235l1.854,5.408a.343.343,0,0,0,.331.236h5.986a.325.325,0,0,1,.213.59l-4.841,3.649a.32.32,0,0,0-.13.378l1.842,5.573a.347.347,0,0,1-.531.39l-4.841-3.448a.375.375,0,0,0-.413,0l-4.853,3.448a.347.347,0,0,1-.531-.39l1.854-5.573a.336.336,0,0,0-.13-.378l-4.853-3.649a.325.325,0,0,1,.213-.59h5.986a.343.343,0,0,0,.331-.236l1.854-5.408a.354.354,0,0,1,.661,0Z" transform="translate(-1112.002 -916.008)"/>
    <path id="star-5" data-name="star" class="cls-9" d="M1176.186,1006.235l1.854,5.408a.343.343,0,0,0,.331.236h5.986a.325.325,0,0,1,.213.59l-4.841,3.649a.32.32,0,0,0-.13.378l1.842,5.573a.347.347,0,0,1-.531.39l-4.841-3.448a.375.375,0,0,0-.413,0l-4.853,3.448a.347.347,0,0,1-.531-.39l1.854-5.573a.336.336,0,0,0-.13-.378l-4.853-3.649a.325.325,0,0,1,.213-.59h5.986a.343.343,0,0,0,.331-.236l1.854-5.408a.354.354,0,0,1,.661,0Z" transform="translate(-1092.002 -935.008)"/>
    <path id="star-6" data-name="star" class="cls-10" d="M1176.186,1006.235l1.854,5.408a.343.343,0,0,0,.331.236h5.986a.325.325,0,0,1,.213.59l-4.841,3.649a.32.32,0,0,0-.13.378l1.842,5.573a.347.347,0,0,1-.531.39l-4.841-3.448a.375.375,0,0,0-.413,0l-4.853,3.448a.347.347,0,0,1-.531-.39l1.854-5.573a.336.336,0,0,0-.13-.378l-4.853-3.649a.325.325,0,0,1,.213-.59h5.986a.343.343,0,0,0,.331-.236l1.854-5.408a.354.354,0,0,1,.661,0Z" transform="translate(-1092.002 -916.008)"/>
    <path id="star-7" data-name="star" class="cls-9" d="M1176.186,1006.235l1.854,5.408a.343.343,0,0,0,.331.236h5.986a.325.325,0,0,1,.213.59l-4.841,3.649a.32.32,0,0,0-.13.378l1.842,5.573a.347.347,0,0,1-.531.39l-4.841-3.448a.375.375,0,0,0-.413,0l-4.853,3.448a.347.347,0,0,1-.531-.39l1.854-5.573a.336.336,0,0,0-.13-.378l-4.853-3.649a.325.325,0,0,1,.213-.59h5.986a.343.343,0,0,0,.331-.236l1.854-5.408a.354.354,0,0,1,.661,0Z" transform="translate(-1072.002 -935.008)"/>
    <path id="star-8" data-name="star" class="cls-10" d="M1176.186,1006.235l1.854,5.408a.343.343,0,0,0,.331.236h5.986a.325.325,0,0,1,.213.59l-4.841,3.649a.32.32,0,0,0-.13.378l1.842,5.573a.347.347,0,0,1-.531.39l-4.841-3.448a.375.375,0,0,0-.413,0l-4.853,3.448a.347.347,0,0,1-.531-.39l1.854-5.573a.336.336,0,0,0-.13-.378l-4.853-3.649a.325.325,0,0,1,.213-.59h5.986a.343.343,0,0,0,.331-.236l1.854-5.408a.354.354,0,0,1,.661,0Z" transform="translate(-1072.002 -916.008)"/>
    <path id="star-9" data-name="star" class="cls-9" d="M1176.186,1006.235l1.854,5.408a.343.343,0,0,0,.331.236h5.986a.325.325,0,0,1,.213.59l-4.841,3.649a.32.32,0,0,0-.13.378l1.842,5.573a.347.347,0,0,1-.531.39l-4.841-3.448a.375.375,0,0,0-.413,0l-4.853,3.448a.347.347,0,0,1-.531-.39l1.854-5.573a.336.336,0,0,0-.13-.378l-4.853-3.649a.325.325,0,0,1,.213-.59h5.986a.343.343,0,0,0,.331-.236l1.854-5.408a.354.354,0,0,1,.661,0Z" transform="translate(-1052.002 -935.008)"/>
    <path id="star-10" data-name="star" class="cls-10" d="M1176.186,1006.235l1.854,5.408a.343.343,0,0,0,.331.236h5.986a.325.325,0,0,1,.213.59l-4.841,3.649a.32.32,0,0,0-.13.378l1.842,5.573a.347.347,0,0,1-.531.39l-4.841-3.448a.375.375,0,0,0-.413,0l-4.853,3.448a.347.347,0,0,1-.531-.39l1.854-5.573a.336.336,0,0,0-.13-.378l-4.853-3.649a.325.325,0,0,1,.213-.59h5.986a.343.343,0,0,0,.331-.236l1.854-5.408a.354.354,0,0,1,.661,0Z" transform="translate(-1052.002 -916.008)"/>
    <path id="arrow-2" data-name="arrow" class="cls-6" d="M1298.47,2330.56l10.94-10.54-10.94-10.55a1.4,1.4,0,0,1,0-2.04,1.548,1.548,0,0,1,2.12,0l11.99,11.57a1.4,1.4,0,0,1,0,2.04l-11.99,11.56a1.548,1.548,0,0,1-2.12,0,1.4,1.4,0,0,1,0-2.04Z" transform="translate(1343.021 2333.02) rotate(180)"/>
    <path id="star-11" data-name="star" class="cls-9" d="M1178.839,1006.3l2.389,6.97a.443.443,0,0,0,.426.3h7.716a.419.419,0,0,1,.274.761l-6.24,4.7a.413.413,0,0,0-.168.487l2.375,7.183a.447.447,0,0,1-.685.5l-6.24-4.444a.484.484,0,0,0-.533,0l-6.255,4.444a.447.447,0,0,1-.685-.5l2.389-7.183a.434.434,0,0,0-.167-.487l-6.255-4.7a.418.418,0,0,1,.274-.761h7.716a.443.443,0,0,0,.426-.3l2.389-6.97a.457.457,0,0,1,.852,0Z" transform="translate(-1132.002 -890.008)"/>
    <path id="star-12" data-name="star" class="cls-10" d="M1178.839,1006.3l2.389,6.97a.443.443,0,0,0,.426.3h7.716a.419.419,0,0,1,.274.761l-6.24,4.7a.413.413,0,0,0-.168.487l2.375,7.183a.447.447,0,0,1-.685.5l-6.24-4.444a.484.484,0,0,0-.533,0l-6.255,4.444a.447.447,0,0,1-.685-.5l2.389-7.183a.434.434,0,0,0-.167-.487l-6.255-4.7a.418.418,0,0,1,.274-.761h7.716a.443.443,0,0,0,.426-.3l2.389-6.97a.457.457,0,0,1,.852,0Z" transform="translate(-1132.002 -866.008)"/>
    <path id="star-13" data-name="star" class="cls-9" d="M1178.839,1006.3l2.389,6.97a.443.443,0,0,0,.426.3h7.716a.419.419,0,0,1,.274.761l-6.24,4.7a.413.413,0,0,0-.168.487l2.375,7.183a.447.447,0,0,1-.685.5l-6.24-4.444a.484.484,0,0,0-.533,0l-6.255,4.444a.447.447,0,0,1-.685-.5l2.389-7.183a.434.434,0,0,0-.167-.487l-6.255-4.7a.418.418,0,0,1,.274-.761h7.716a.443.443,0,0,0,.426-.3l2.389-6.97a.457.457,0,0,1,.852,0Z" transform="translate(-1107.002 -890.008)"/>
    <path id="star-14" data-name="star" class="cls-10" d="M1178.839,1006.3l2.389,6.97a.443.443,0,0,0,.426.3h7.716a.419.419,0,0,1,.274.761l-6.24,4.7a.413.413,0,0,0-.168.487l2.375,7.183a.447.447,0,0,1-.685.5l-6.24-4.444a.484.484,0,0,0-.533,0l-6.255,4.444a.447.447,0,0,1-.685-.5l2.389-7.183a.434.434,0,0,0-.167-.487l-6.255-4.7a.418.418,0,0,1,.274-.761h7.716a.443.443,0,0,0,.426-.3l2.389-6.97a.457.457,0,0,1,.852,0Z" transform="translate(-1107.002 -866.008)"/>
    <path id="star-15" data-name="star" class="cls-9" d="M1178.839,1006.3l2.389,6.97a.443.443,0,0,0,.426.3h7.716a.419.419,0,0,1,.274.761l-6.24,4.7a.413.413,0,0,0-.168.487l2.375,7.183a.447.447,0,0,1-.685.5l-6.24-4.444a.484.484,0,0,0-.533,0l-6.255,4.444a.447.447,0,0,1-.685-.5l2.389-7.183a.434.434,0,0,0-.167-.487l-6.255-4.7a.418.418,0,0,1,.274-.761h7.716a.443.443,0,0,0,.426-.3l2.389-6.97a.457.457,0,0,1,.852,0Z" transform="translate(-1082.002 -890.008)"/>
    <path id="star-16" data-name="star" class="cls-10" d="M1178.839,1006.3l2.389,6.97a.443.443,0,0,0,.426.3h7.716a.419.419,0,0,1,.274.761l-6.24,4.7a.413.413,0,0,0-.168.487l2.375,7.183a.447.447,0,0,1-.685.5l-6.24-4.444a.484.484,0,0,0-.533,0l-6.255,4.444a.447.447,0,0,1-.685-.5l2.389-7.183a.434.434,0,0,0-.167-.487l-6.255-4.7a.418.418,0,0,1,.274-.761h7.716a.443.443,0,0,0,.426-.3l2.389-6.97a.457.457,0,0,1,.852,0Z" transform="translate(-1082.002 -866.008)"/>
    <path id="star-17" data-name="star" class="cls-9" d="M1178.839,1006.3l2.389,6.97a.443.443,0,0,0,.426.3h7.716a.419.419,0,0,1,.274.761l-6.24,4.7a.413.413,0,0,0-.168.487l2.375,7.183a.447.447,0,0,1-.685.5l-6.24-4.444a.484.484,0,0,0-.533,0l-6.255,4.444a.447.447,0,0,1-.685-.5l2.389-7.183a.434.434,0,0,0-.167-.487l-6.255-4.7a.418.418,0,0,1,.274-.761h7.716a.443.443,0,0,0,.426-.3l2.389-6.97a.457.457,0,0,1,.852,0Z" transform="translate(-1057.002 -890.008)"/>
    <path id="star-18" data-name="star" class="cls-10" d="M1178.839,1006.3l2.389,6.97a.443.443,0,0,0,.426.3h7.716a.419.419,0,0,1,.274.761l-6.24,4.7a.413.413,0,0,0-.168.487l2.375,7.183a.447.447,0,0,1-.685.5l-6.24-4.444a.484.484,0,0,0-.533,0l-6.255,4.444a.447.447,0,0,1-.685-.5l2.389-7.183a.434.434,0,0,0-.167-.487l-6.255-4.7a.418.418,0,0,1,.274-.761h7.716a.443.443,0,0,0,.426-.3l2.389-6.97a.457.457,0,0,1,.852,0Z" transform="translate(-1057.002 -866.008)"/>
    <path id="star-19" data-name="star" class="cls-9" d="M1178.839,1006.3l2.389,6.97a.443.443,0,0,0,.426.3h7.716a.419.419,0,0,1,.274.761l-6.24,4.7a.413.413,0,0,0-.168.487l2.375,7.183a.447.447,0,0,1-.685.5l-6.24-4.444a.484.484,0,0,0-.533,0l-6.255,4.444a.447.447,0,0,1-.685-.5l2.389-7.183a.434.434,0,0,0-.167-.487l-6.255-4.7a.418.418,0,0,1,.274-.761h7.716a.443.443,0,0,0,.426-.3l2.389-6.97a.457.457,0,0,1,.852,0Z" transform="translate(-1032.002 -890.008)"/>
    <path id="star-20" data-name="star" class="cls-10" d="M1178.839,1006.3l2.389,6.97a.443.443,0,0,0,.426.3h7.716a.419.419,0,0,1,.274.761l-6.24,4.7a.413.413,0,0,0-.168.487l2.375,7.183a.447.447,0,0,1-.685.5l-6.24-4.444a.484.484,0,0,0-.533,0l-6.255,4.444a.447.447,0,0,1-.685-.5l2.389-7.183a.434.434,0,0,0-.167-.487l-6.255-4.7a.418.418,0,0,1,.274-.761h7.716a.443.443,0,0,0,.426-.3l2.389-6.97a.457.457,0,0,1,.852,0Z" transform="translate(-1032.002 -866.008)"/>
  </g>
  <g>
    <path id="camera" d="M384,276h13a2,2,0,0,1,2,2v13a2,2,0,0,1-2,2H384a2,2,0,0,1-2-2V278A2,2,0,0,1,384,276Zm10.5,14h-8a1.5,1.5,0,0,1-1.5-1.5v-5a1.5,1.5,0,0,1,1.5-1.5h1.6a1.466,1.466,0,0,1-.1-.5,1.5,1.5,0,0,1,1.5-1.5h2a1.5,1.5,0,0,1,1.5,1.5,1.466,1.466,0,0,1-.1.5h1.6a1.5,1.5,0,0,1,1.5,1.5v5A1.5,1.5,0,0,1,394.5,290Zm-4-7a2.5,2.5,0,1,0,2.5,2.5A2.5,2.5,0,0,0,390.5,283Z" transform="translate(-222 -276)" fill="#c5cbd0" fill-rule="evenodd"/>
    <path id="camera-white" d="M384,276h13a2,2,0,0,1,2,2v13a2,2,0,0,1-2,2H384a2,2,0,0,1-2-2V278A2,2,0,0,1,384,276Zm10.5,14h-8a1.5,1.5,0,0,1-1.5-1.5v-5a1.5,1.5,0,0,1,1.5-1.5h1.6a1.466,1.466,0,0,1-.1-.5,1.5,1.5,0,0,1,1.5-1.5h2a1.5,1.5,0,0,1,1.5,1.5,1.466,1.466,0,0,1-.1.5h1.6a1.5,1.5,0,0,1,1.5,1.5v5A1.5,1.5,0,0,1,394.5,290Zm-4-7a2.5,2.5,0,1,0,2.5,2.5A2.5,2.5,0,0,0,390.5,283Z" transform="translate(-202 -276)" fill="#ffffff" fill-rule="evenodd"/>
    <path id="product" d="M511,275h13a2,2,0,0,1,2,2v13a2,2,0,0,1-2,2H511a2,2,0,0,1-2-2V277A2,2,0,0,1,511,275Zm11,13h-3v-4h3a1,1,0,0,1,1,1v2A1,1,0,0,1,522,288Zm-1-5h-2v-2h-4a1,1,0,0,1,0-2h6a1,1,0,0,1,1,1v2A1,1,0,0,1,521,283Zm-3-1v6h-5a1,1,0,0,1-1-1v-4a1,1,0,0,1,1-1Z" transform="translate(-349 -255)" fill="#c5cbd0" fill-rule="evenodd"/>
    <path id="product-white" d="M511,275h13a2,2,0,0,1,2,2v13a2,2,0,0,1-2,2H511a2,2,0,0,1-2-2V277A2,2,0,0,1,511,275Zm11,13h-3v-4h3a1,1,0,0,1,1,1v2A1,1,0,0,1,522,288Zm-1-5h-2v-2h-4a1,1,0,0,1,0-2h6a1,1,0,0,1,1,1v2A1,1,0,0,1,521,283Zm-3-1v6h-5a1,1,0,0,1-1-1v-4a1,1,0,0,1,1-1Z" transform="translate(-329 -255)" fill="#ffffff" fill-rule="evenodd"/>
    <path id="Charity" data-name="Charity" d="M15,17H2a2,2,0,0,1-2-2V2A2,2,0,0,1,2,0H15a2,2,0,0,1,2,2V15A2,2,0,0,1,15,17ZM6.452,5l0,0A2.5,2.5,0,0,0,4.015,7.385a2.348,2.348,0,0,0,.076.907A3.848,3.848,0,0,0,5.339,10.28L8.5,13l3.174-2.72A3.832,3.832,0,0,0,12.91,8.293a2.364,2.364,0,0,0,.076-.906A2.494,2.494,0,0,0,10.558,5,2.419,2.419,0,0,0,8.5,6.143,2.387,2.387,0,0,0,6.452,5Z" transform="translate(160 40)" fill="#c5cbd0"/>
    <path id="Charity-white" data-name="Charity" d="M15,17H2a2,2,0,0,1-2-2V2A2,2,0,0,1,2,0H15a2,2,0,0,1,2,2V15A2,2,0,0,1,15,17ZM6.452,5l0,0A2.5,2.5,0,0,0,4.015,7.385a2.348,2.348,0,0,0,.076.907A3.848,3.848,0,0,0,5.339,10.28L8.5,13l3.174-2.72A3.832,3.832,0,0,0,12.91,8.293a2.364,2.364,0,0,0,.076-.906A2.494,2.494,0,0,0,10.558,5,2.419,2.419,0,0,0,8.5,6.143,2.387,2.387,0,0,0,6.452,5Z" transform="translate(180 40)" fill="#ffffff"/>
  </g>
  <g id="Button" transform="translate(-519 -120)">
    <circle id="Circle_7" data-name="Circle 7" cx="1.5" cy="1.5" r="1.5" transform="translate(525 225)" fill="#6d6e6f"/>
    <circle id="Circle_8" data-name="Circle 8" cx="1.5" cy="1.5" r="1.5" transform="translate(531 225)" fill="#6d6e6f"/>
    <circle id="Circle_9" data-name="Circle 9" cx="1.5" cy="1.5" r="1.5" transform="translate(519 225)" fill="#6d6e6f"/>
  </g>
</svg>
