<?xml version="1.0" encoding="utf-8"?>
<svg xmlns="http://www.w3.org/2000/svg" xmlns:xlink="http://www.w3.org/1999/xlink">
	<style>:root>svg{display:none}:root>svg:target{display:block}</style>
	<svg xmlns="http://www.w3.org/2000/svg" id="caret" viewBox="0 0 4.968 8.91">
		<defs><style>.acls-1 {fill: #fff;fill-rule: evenodd;}</style></defs>
		<path id="_" data-name="› " class="acls-1" d="M660.081,1668.03h1.948l3.022-4.35v-0.2l-3.022-4.35h-1.948l2.657,4.45Z" transform="translate(-660.094 -1659.12)"/>
	</svg>
	<svg viewBox="0 0 50 50" id="slideshow-arrow" xmlns="http://www.w3.org/2000/svg">
		<defs><style>.ocls-1{fill:#1a1b1c}.ocls-2{fill:#fff;fill-rule:evenodd}</style></defs>
		<circle class="ocls-1" cx="25" cy="25" r="25"/><path id="o_" data-name="#" class="ocls-2" d="M1307.31 993.31l7.3-7.3-7.3-7.3a1 1 0 1 1 1.41-1.413l8 8a1 1 0 0 1 0 1.413l-8 8a1 1 0 1 1-1.41-1.4z" transform="translate(-1286 -961)"/>
	</svg>
	<svg viewBox="0 0 50 50" id="slideshow-arrow-hover" xmlns="http://www.w3.org/2000/svg">
		<defs><style>.pcls-1,.pcls-2{fill:#fff}.pcls-1{opacity:.4}.pcls-2{fill-rule:evenodd}</style></defs>
		<circle class="pcls-1" cx="25" cy="25" r="25"/><path id="p_" data-name="#" class="pcls-2" d="M1307.31 396.31l7.3-7.3-7.3-7.3a1 1 0 1 1 1.41-1.413l8 8a1 1 0 0 1 0 1.413l-8 8a1 1 0 1 1-1.41-1.4z" transform="translate(-1286 -364)"/>
	</svg>
	<svg id="slideshow-arrow2" data-name="#" viewBox="0 0 50 50" xmlns="http://www.w3.org/2000/svg">
		<defs><style>.qcls-1,.qcls-2{fill:#fff}.qcls-1{opacity:.3}.qcls-2{fill-rule:evenodd}</style></defs>
		<circle class="qcls-1" cx="25" cy="25" r="25"/><path id="q_2" data-name="#" class="qcls-2" d="M1307.31 396.31l7.3-7.3-7.3-7.3a1 1 0 1 1 1.41-1.413l8 8a1 1 0 0 1 0 1.413l-8 8a1 1 0 1 1-1.41-1.4z" transform="translate(-1286 -364)"/>
	</svg>
	<svg xmlns="http://www.w3.org/2000/svg"  id="category-arrow"  viewBox="0 0 15 25">
		<defs><style>.bcls-1 {fill: #737a81;fill-rule: evenodd;}</style></defs>
		<path d="M14.562,2.469 L3.622,12.999 L14.562,23.529 C15.146,24.092 15.146,25.005 14.562,25.567 C13.977,26.131 13.029,26.131 12.444,25.567 L0.446,14.019 C-0.138,13.456 -0.138,12.543 0.446,11.980 L12.444,0.431 C13.029,-0.131 13.977,-0.131 14.562,0.431 C15.146,0.994 15.146,1.906 14.562,2.469 Z" class="bcls-1"/>
	</svg>
</svg>