<svg xmlns="http://www.w3.org/2000/svg" width="20" height="20" viewBox="0 0 20 20">
  <defs>
    <style>
      .cls-1 {
        fill: #1d1f28;
        fill-rule: evenodd;
      }
    </style>
  </defs>
  <path id="Twitter" class="cls-1" d="M18.787,6.305a7.593,7.593,0,0,1-1.4,1.569,10.635,10.635,0,0,1-2.641,6.777A10.028,10.028,0,0,1,7.1,18.02a10.265,10.265,0,0,1-5.546-1.625,1.172,1.172,0,0,1,.765-2.151,5.6,5.6,0,0,0,.632.036,5.35,5.35,0,0,0,1.143-.122,4.37,4.37,0,0,1-1.272-1.946A1.172,1.172,0,0,1,2.793,11.6a4.438,4.438,0,0,1-1.15-2.989,1.172,1.172,0,0,1,.288-0.77,4.389,4.389,0,0,1,.331-3.7A1.172,1.172,0,0,1,3.184,3.57c0.03,0,.061,0,0.091,0A1.172,1.172,0,0,1,4.184,4,7.969,7.969,0,0,0,8.67,6.749a4.379,4.379,0,0,1,6.992-2.871,5.262,5.262,0,0,0,1.108-.49,1.165,1.165,0,0,1,.58-0.172h0.038a1.172,1.172,0,0,1,1.124,1.5A1.173,1.173,0,0,1,18.787,6.305Zm-2.78.145-0.035,0a0.293,0.293,0,0,1-.15-0.544,2.931,2.931,0,0,0,.919-0.868,6.745,6.745,0,0,1-1.339.413,0.293,0.293,0,0,1-.271-0.087,2.915,2.915,0,0,0-4.963,2.656,0.293,0.293,0,0,1-.285.359H9.868A9.423,9.423,0,0,1,3.342,5.267,2.919,2.919,0,0,0,4.43,8.774a0.293,0.293,0,0,1-.163.537H4.258a3.515,3.515,0,0,1-1.112-.221,2.923,2.923,0,0,0,2.3,2.423,0.293,0.293,0,0,1,.018.57,3.533,3.533,0,0,1-.921.123c-0.048,0-.1,0-0.144,0a2.915,2.915,0,0,0,2.54,1.586,0.293,0.293,0,0,1,.175.524,6.673,6.673,0,0,1-3.732,1.421,8.8,8.8,0,0,0,3.72.823,8.743,8.743,0,0,0,8.828-8.829l-0.01-.408a0.293,0.293,0,0,1,.122-0.245,6.1,6.1,0,0,0,.917-0.806A6.706,6.706,0,0,1,16.007,6.45Z"/>
</svg>
