<svg xmlns="http://www.w3.org/2000/svg" width="20" height="20" viewBox="0 0 20 20">
  <defs>
    <style>
      .cls-1 {
        fill: #1d1f28;
        fill-rule: evenodd;
      }
    </style>
  </defs>
  <path id="Facebook" class="cls-1" d="M17.332,19H2.668A1.65,1.65,0,0,1,1,17.332V2.668A1.65,1.65,0,0,1,2.668,1H17.332A1.65,1.65,0,0,1,19,2.668V17.332A1.65,1.65,0,0,1,17.332,19ZM17.488,3.425a0.893,0.893,0,0,0-.91-0.91H3.421a0.893,0.893,0,0,0-.91.91V16.582a0.893,0.893,0,0,0,.91.91h6.614V11.954H8.028V10.08H10V8.7c0-1.528.487-2.63,2.162-2.63h1.746V8h-1.1a0.765,0.765,0,0,0-.862.894v1.123H13.9L13.6,11.954H11.893l0.033,5.537h4.653a0.893,0.893,0,0,0,.91-0.91h0V3.425Z"/>
</svg>
