<svg xmlns="http://www.w3.org/2000/svg" width="20" height="20" viewBox="0 0 20 20">
  <defs>
    <style>
      .cls-1 {
        fill: #1d1f28;
        fill-rule: evenodd;
      }
    </style>
  </defs>
  <path id="Link" class="cls-1" d="M18.582,7.408L14.59,11.4a1.412,1.412,0,0,1-2,0l-0.711-.711L12.8,9.774a1.446,1.446,0,0,0,1.776-.2L16.648,7.5a1.466,1.466,0,0,0,0-2.074L14.574,3.355a1.467,1.467,0,0,0-2.074,0L10.426,5.429a1.446,1.446,0,0,0-.2,1.772L9.31,8.116,8.6,7.408a1.411,1.411,0,0,1,0-2l3.992-3.992a1.412,1.412,0,0,1,2,0l3.992,3.992A1.411,1.411,0,0,1,18.582,7.408ZM6.24,13.759a0.761,0.761,0,0,1,0-1.076L12.7,6.228A0.761,0.761,0,0,1,13.771,7.3L7.316,13.759A0.761,0.761,0,0,1,6.24,13.759ZM5.473,10.382L3.414,12.442a1.456,1.456,0,0,0,0,2.059L5.473,16.56a1.456,1.456,0,0,0,2.059,0L9.592,14.5a1.437,1.437,0,0,0,.215-1.736l0.883-.883L11.4,12.591a1.41,1.41,0,0,1,0,1.994L7.411,18.571a1.41,1.41,0,0,1-1.993,0L1.43,14.584a1.41,1.41,0,0,1,0-1.994L5.417,8.6a1.41,1.41,0,0,1,1.993,0L8.117,9.31l-0.877.877A1.436,1.436,0,0,0,5.473,10.382Z"/>
</svg>
