<svg xmlns="http://www.w3.org/2000/svg" width="18" height="20" viewBox="0 0 18 20">
  <defs>
    <style>
      .cls-1 {
        fill: #fff;
        fill-rule: evenodd;
      }
    </style>
  </defs>
  <path class="cls-1" d="M15.651,18.443a1.241,1.241,0,0,1-1.151,1.5H2.849a1.5,1.5,0,0,1-1.5-1.5L0,5.443a1.5,1.5,0,0,1,1.5-1.5H5V2A2,2,0,0,1,7,0h3a2,2,0,0,1,2,2V3.943h3.5a1.5,1.5,0,0,1,1.5,1.5ZM11,2a1,1,0,0,0-1-1H7A1,1,0,0,0,6,2V3.943h5V2Zm4.5,2.985H1.5a0.459,0.459,0,0,0-.458.458L2.387,18.35a0.493,0.493,0,0,0,.462.552H14.5a0.564,0.564,0,0,0,.109-0.458L15.963,5.35A0.462,0.462,0,0,0,15.5,4.985Z"/>
</svg>
