<?xml version="1.0" encoding="UTF-8" ?>
<!DOCTYPE svg PUBLIC "-//W3C//DTD SVG 1.1//EN" "http://www.w3.org/Graphics/SVG/1.1/DTD/svg11.dtd">
<svg xmlns="http://www.w3.org/2000/svg" width="800px" height="800px" viewBox="0 0 800 800" version="1.1">
	<g>
		<path fill="#3987d5" opacity="1.00" d=" M 9.97 19.01 C 9.47 14.48 13.42 10.02 17.95 9.95 C 22.48 9.43 26.99 13.40 27.01 17.95 C 27.00 21.63 27.07 25.31 26.97 28.98 C 25.68 30.95 22.95 29.67 21.00 30.01 C 20.98 32.26 21.17 34.53 20.87 36.76 C 19.88 38.52 17.09 38.49 16.10 36.75 C 15.85 34.51 16.02 32.25 16.00 30.01 C 14.05 29.67 11.32 30.95 10.03 28.98 C 9.91 25.66 10.03 22.33 9.97 19.01 Z"/>
		<path fill="#9197a3" opacity="1.00" d=" M 43.97 18.99 C 43.47 14.47 47.43 10.00 51.96 9.95 C 56.49 9.43 61.00 13.40 61.01 17.95 C 61.00 21.63 61.07 25.31 60.97 28.99 C 59.68 30.95 56.95 29.67 55.00 30.01 C 54.98 32.26 55.16 34.52 54.88 36.76 C 53.89 38.53 51.07 38.51 50.09 36.74 C 49.86 34.50 50.02 32.25 50.00 30.01 C 48.05 29.67 45.32 30.95 44.03 28.99 C 43.91 25.66 44.03 22.32 43.97 18.99 Z"/>
		<path fill="#9197a3" opacity="1.00" d=" M 79.00 10.00 C 80.99 10.00 82.98 10.00 84.97 9.98 C 85.57 11.92 86.01 13.90 86.31 15.91 C 93.56 16.13 100.81 15.87 108.05 16.05 C 109.76 16.47 108.85 18.81 108.78 20.02 C 107.79 24.00 107.60 28.21 106.07 32.05 C 99.41 31.90 92.74 32.13 86.08 31.94 C 84.37 25.36 83.34 18.63 81.85 12.00 C 81.14 12.00 79.71 12.00 79.00 12.00 C 79.00 11.50 79.00 10.50 79.00 10.00 Z"/>
		<path fill="#9197a3" opacity="1.00" d=" M 135.31 18.46 C 137.63 15.80 140.06 13.20 142.66 10.80 C 144.86 13.47 147.48 15.76 149.66 18.45 C 150.86 19.50 149.25 21.54 147.96 20.96 C 146.54 19.70 145.33 18.23 144.02 16.86 C 143.97 21.24 144.05 25.62 143.98 30.01 C 143.24 30.01 141.76 30.01 141.02 30.01 C 140.95 25.64 141.03 21.26 140.94 16.88 C 139.65 18.24 138.46 19.70 137.05 20.95 C 135.76 21.55 134.16 19.53 135.31 18.46 Z"/>
		<path fill="#ffffff" opacity="1.00" d=" M 170.09 11.16 C 172.68 11.19 175.28 11.19 177.88 11.19 C 178.37 13.23 178.97 15.26 179.65 17.25 C 188.71 17.14 197.77 17.15 206.83 17.25 C 206.78 19.19 206.64 21.14 206.03 23.00 C 204.90 26.90 204.21 30.92 202.89 34.76 C 195.29 34.87 187.69 34.80 180.09 34.80 C 178.21 27.86 176.57 20.83 175.08 13.79 C 173.46 13.78 171.84 13.77 170.22 13.77 C 170.18 13.11 170.12 11.81 170.09 11.16 Z"/>
		<path fill="#ffffff" opacity="1.00" d=" M 220.37 19.06 C 221.64 14.56 226.14 10.66 231.01 11.15 C 235.88 10.66 240.36 14.56 241.64 19.07 C 241.96 24.63 241.87 30.24 241.70 35.81 C 239.81 37.89 236.29 36.37 233.77 36.77 C 233.76 39.73 234.02 42.72 233.62 45.66 C 232.56 47.35 229.46 47.34 228.37 45.68 C 227.97 42.73 228.23 39.74 228.23 36.77 C 225.72 36.36 222.16 37.90 220.31 35.80 C 220.11 30.23 220.04 24.63 220.37 19.06 Z"/>
		<path fill="#9197a3" opacity="1.00" d=" M 131.01 24.99 C 131.75 24.99 133.24 24.99 133.99 24.99 C 134.02 27.66 134.01 30.33 134.00 33.00 C 139.67 33.00 145.33 33.00 151.00 33.00 C 150.99 30.33 150.98 27.66 151.01 24.99 C 151.75 24.99 153.24 24.99 153.99 24.99 C 154.02 28.66 154.03 32.32 153.99 35.99 C 146.33 36.01 138.67 36.02 131.01 35.99 C 130.98 32.32 130.98 28.66 131.01 24.99 Z"/>
		<path fill="#949aa6" d=" M 90.23 34.05 C 92.70 33.13 94.27 36.87 91.87 37.99 C 89.34 38.95 87.73 35.16 90.23 34.05 Z"/>
		<path fill="#949aa6" d=" M 100.29 34.03 C 102.75 33.19 104.24 36.90 101.87 37.99 C 99.31 38.97 97.73 35.07 100.29 34.03 Z"/>
		<path fill="#ffffff" opacity="1.00" d=" M 183.40 38.50 C 186.56 36.27 189.90 41.54 186.66 43.51 C 183.46 45.80 180.03 40.41 183.40 38.50 Z"/>
		<path fill="#ffffff" opacity="1.00" d=" M 196.35 38.53 C 198.53 36.87 201.89 39.44 200.83 41.98 C 200.22 44.01 197.29 44.69 195.88 43.10 C 194.54 41.84 194.80 39.49 196.35 38.53 Z"/>
	</g>
</svg>