<?xml version="1.0" encoding="utf-8"?>
<!-- Generator: Adobe Illustrator 17.0.0, SVG Export Plug-In . SVG Version: 6.00 Build 0)  -->
<!DOCTYPE svg PUBLIC "-//W3C//DTD SVG 1.1//EN" "http://www.w3.org/Graphics/SVG/1.1/DTD/svg11.dtd">
<svg version="1.1" id="Layer_1" xmlns="http://www.w3.org/2000/svg" xmlns:xlink="http://www.w3.org/1999/xlink" x="0px" y="0px"
	 width="500px" height="500px" viewBox="0 0 500 500" enable-background="new 0 0 500 500" xml:space="preserve">
<path fill="#9197A3" d="M97,16h1c0.552,0,1,0.448,1,1v10h-2c-0.552,0-1-0.448-1-1v-9C96,16.448,96.448,16,97,16z"/>
<path fill="#9197A3" d="M96,24h22v3H97c-0.552,0-1-0.448-1-1V24z"/>
<path fill="#9197A3" d="M117,16h1c0.552,0,1,0.448,1,1v9c0,0.552-0.448,1-1,1h-2V17C116,16.448,116.448,16,117,16z"/>
<path fill="#9197A3" d="M106,4h3v16c0,0.552-0.448,1-1,1h-1c-0.552,0-1-0.448-1-1V4z"/>
<path fill="#9197A3" d="M107.526,1.961l-1.897,1.981l7.12,7.781c0.367,0.382,0.961,0.382,1.327,0l0.664-0.692
	c0.366-0.382,0.367-1.001,0-1.383L107.526,1.961z"/>
<path fill="#9197A3" d="M107.474,1.961l1.897,1.981l-7.12,7.781c-0.367,0.382-0.961,0.382-1.327,0l-0.664-0.692
	c-0.367-0.382-0.367-1.001,0-1.383L107.474,1.961z"/>
<path fill="#9197A3" d="M86.029,7.791l-2.477,13.016c-0.134,0.701-0.747,1.207-1.459,1.207H64.262c-0.712,0-1.324-0.506-1.459-1.207
	L59.028,2.094l-2.45-0.211c-0.504,0-0.609-0.428-0.609-0.934s0.104-0.914,0.609-0.914l5.044-0.014c0.18,0,0.335,0.128,0.37,0.305
	l1.34,5.696H84.57C85.503,6.022,86.206,6.873,86.029,7.791z"/>
<path fill="#9197A3" d="M68.026,24.063c1.084,0,1.964,0.879,1.964,1.963s-0.879,1.963-1.964,1.963s-1.964-0.879-1.964-1.963
	S66.942,24.063,68.026,24.063z"/>
<path fill="#9197A3" d="M78.026,24.063c1.084,0,1.964,0.879,1.964,1.963s-0.879,1.963-1.964,1.963s-1.964-0.879-1.964-1.963
	S76.942,24.063,78.026,24.063z"/>
<path fill="#9197A3" d="M43.11,20H39v5.531h-0.003C38.98,26.898,37.87,28,36.5,28s-2.48-1.103-2.497-2.469H34V20h-4.11
	C28.785,20,28,19.215,28,18.11V8.455c0-0.015,0.004-0.029,0.005-0.044C28.053,3.758,31.836,0,36.5,0
	c4.665,0,8.447,3.758,8.496,8.411C44.996,8.426,45,8.44,45,8.455v9.655C45,19.215,44.215,20,43.11,20z"/>
<path fill="#4385C6" d="M15.11,20H11v5.531h-0.003C10.98,26.898,9.87,28,8.5,28s-2.48-1.103-2.497-2.469H6V20H1.89
	C0.786,20,0,19.215,0,18.11V8.455C0,8.44,0.004,8.426,0.005,8.411C0.053,3.758,3.836,0,8.5,0c4.665,0,8.447,3.758,8.496,8.411
	C16.996,8.426,17,8.44,17,8.455v9.655C17,19.215,16.215,20,15.11,20z"/>
</svg>
