<?xml version="1.0" encoding="utf-8"?>
<!-- Generator: Adobe Illustrator 18.1.1, SVG Export Plug-In . SVG Version: 6.00 Build 0)  -->
<!DOCTYPE svg PUBLIC "-//W3C//DTD SVG 1.1//EN" "http://www.w3.org/Graphics/SVG/1.1/DTD/svg11.dtd">
<svg version="1.1" id="Layer_1" xmlns="http://www.w3.org/2000/svg" xmlns:xlink="http://www.w3.org/1999/xlink" x="0px" y="0px"
	 viewBox="0 0 576 314.3" enable-background="new 0 0 576 314.3" xml:space="preserve">
<g>
	<g>
		<path fill="#FFFFFF" d="M0,0v314.3h576V0H0z"/>
	</g>
	<rect x="3.2" y="3.2" width="569.7" height="308"/>
	<rect x="3.2" y="21.6" fill="#ED174C" width="569.7" height="3.3"/>
	<g>
		<g>
			<g>
				<path d="M59.8,227.7c-18,0-32.6,14.6-32.6,32.6c0,18,14.6,32.6,32.6,32.6c17.9,0,32.6-14.6,32.6-32.6
					C92.3,242.3,77.7,227.7,59.8,227.7z"/>
				<path fill="#FFFFFF" d="M59.8,226.1c-18.8,0-34.2,15.3-34.2,34.2c0,18.8,15.3,34.2,34.2,34.2c18.8,0,34.2-15.3,34.2-34.2
					C93.9,241.4,78.6,226.1,59.8,226.1z M59.8,292.8c-18,0-32.6-14.6-32.6-32.6c0-18,14.6-32.6,32.6-32.6
					c17.9,0,32.6,14.6,32.6,32.6C92.3,278.2,77.7,292.8,59.8,292.8z"/>
			</g>
			<g>
				<path fill="#FFFFFF" d="M70.9,280.2H46.6c0-7,2.8-11.9,8.7-17.3l3.2-3c3.5-3.2,4.1-5,4.1-9c0-3.3-1.4-4.9-3.9-4.9
					c-4,0-4.4,3.5-4.5,7.7h-7.7v-1.5c0-7.3,3.8-11.4,12.3-11.4c7.9,0,11.8,4,11.8,10.8c0,5.1-1.6,8.5-6.1,12.5l-4.5,4.1
					c-2.3,2.1-3.7,4.3-4.1,5.8h14.9V280.2z"/>
			</g>
		</g>
		<g>
			<g>
				<path d="M143,227.7c-18,0-32.6,14.6-32.6,32.6c0,18,14.6,32.6,32.6,32.6c17.9,0,32.6-14.6,32.6-32.6
					C175.6,242.3,161,227.7,143,227.7z"/>
				<path fill="#FFFFFF" d="M143,226.1c-18.8,0-34.2,15.3-34.2,34.2c0,18.8,15.3,34.2,34.2,34.2s34.2-15.3,34.2-34.2
					C177.2,241.4,161.9,226.1,143,226.1z M143,292.8c-18,0-32.6-14.6-32.6-32.6c0-18,14.6-32.6,32.6-32.6
					c17.9,0,32.6,14.6,32.6,32.6C175.6,278.2,161,292.8,143,292.8z"/>
			</g>
			<g>
				<path fill="#FFFFFF" d="M131.3,253.8c-0.1-6.5,0.9-13.7,11.2-13.7s11.3,7.2,11.2,13.7v13.5c0.1,6.4-0.9,13.6-11.2,13.6
					s-11.3-7.2-11.2-13.6V253.8z M138.7,268.3c0,5.1,0.7,7.3,3.7,7.3c3,0,3.7-2.2,3.7-7.3v-15.5c0-5.2-0.7-7.3-3.7-7.3
					c-3,0-3.7,2.1-3.7,7.3V268.3z"/>
			</g>
		</g>
		<g>
			<circle fill="#F58426" cx="226.3" cy="260.3" r="33.4"/>
			<g>
				<path fill="#FFFFFF" d="M223.6,280.1v-27.9h-7.9V247h0.7c5.2,0,8.5-2,9.2-6.4h5.9v39.4H223.6z"/>
			</g>
		</g>
		<g>
			<circle fill="#006BB6" cx="309.5" cy="260.3" r="33.4"/>
			<g>
				<path fill="#FFFFFF" d="M320.4,247.6h-14.5l-0.8,9h0.1c1.5-2.1,3.8-3,7.2-3c7.6,0,9.6,6.4,9.6,12.6c0,8.6-2.5,14.6-12.6,14.6
					c-10,0-11.6-6.6-11.6-11v-1.1h7.7c0,2.6,0.4,6.5,3.9,6.5c3.2,0,4.7-2.6,4.7-7.7c0-6.5-1-8.4-4.6-8.4c-2.3,0-3.5,1.4-3.8,3.6
					h-7.2l1.4-21.4h20.6V247.6z"/>
			</g>
		</g>
	</g>
	<g>
		<g>
			<polygon fill="#FFFFFF" points="245.1,100.9 231.1,91.1 217,100.7 222,84.4 208.5,74 225.6,73.7 231.3,57.6 236.9,73.7 
				253.9,74.2 240.4,84.5 			"/>
			<g>
				<path fill="#FFFFFF" d="M102.4,39.2h20.5l21.7,82.1h-17.3l-3.8-17.4h-21.9l-3.8,17.4H80.7L102.4,39.2z M104.6,90.3h16.1
					l-7.9-36.9h-0.2L104.6,90.3z"/>
				<path fill="#FFFFFF" d="M150.5,39.2h15.9v82.1h-15.9V39.2z"/>
				<path fill="#FFFFFF" d="M178.1,39.2H194v82.1h-15.9V39.2z"/>
			</g>
			<g>
				<path fill="#FFFFFF" d="M280.4,94.5v2.4c0,7.7,2.2,12.7,10.9,12.7c5.1,0,9.9-3.2,9.9-10.1c0-7.5-3.8-10.2-14.7-14
					C271.8,80.3,265,74.3,265,60.6c0-16,9.8-24.2,25.4-24.2c14.7,0,25.4,6.3,25.4,22.1v2.3h-15.9c0-7.7-2.6-12.2-9-12.2
					c-7.5,0-9.4,4.7-9.4,9.5c0,5.1,1.5,8.2,8.5,11.2l12.8,5.5c12.4,5.4,15.6,11.7,15.6,21.7c0,17.4-10.6,25.2-28.5,25.2
					c-18.8,0-26.1-8.7-26.1-23.9v-3.3H280.4z"/>
				<path fill="#FFFFFF" d="M329.7,40.5h15.9v17.7h9.2v10.8h-9.2v33.5c0,4.8,1,6.8,5.6,6.8c1.3,0,2.5-0.1,3.6-0.2v11
					c-3.5,0.3-6.7,0.7-10.4,0.7c-12.4,0-14.7-3.8-14.7-16.3V69.1h-8.1V58.3h8.1V40.5z"/>
				<path fill="#FFFFFF" d="M360.2,77.2v-1.5c0-14.3,9.8-19.1,21.7-19.1c18.9,0,22.4,7.8,22.4,19v32.6c0,5.8,0.3,8.4,2,12h-15.2
					c-1-2-1.5-4.4-2-6.4H389c-3.7,6.4-8.2,8.1-15.8,8.1c-11,0-15-9.4-15-17.7c0-11.6,4.7-16.3,15.6-19.3l9-2.4
					c4.7-1.3,6.3-3.1,6.3-7.2c0-4.7-2.1-7.6-7.4-7.6c-4.8,0-7.4,3.2-7.4,8.1v1.7H360.2z M389.2,89.2c-2.2,1.6-4.8,2.6-6.8,3.1
					c-6.4,1.4-9,4.5-9,10c0,4.7,1.7,8.6,6,8.6c4.3,0,9.8-2.8,9.8-9.5V89.2z"/>
				<path fill="#FFFFFF" d="M415.7,58.3h15.2v8.3h0.2c3.2-6,7.7-9.9,14.3-9.9c0.9,0,2,0.1,2.9,0.2v15.2c-1.6-0.1-3.3-0.2-4.9-0.2
					c-5.5,0-11.7,2.9-11.7,11.2v37.2h-15.9V58.3z"/>
			</g>
		</g>
		<g>
			<path fill="#FFFFFF" d="M65.7,116.2c0,3.8-2.7,6.8-6.3,7.4h-0.1c3.3-2,1.3-5.8,0.6-8c0-0.1,0.1-0.3,0.1-0.4c0.2-0.3-0.2-1-0.2-1
				c-0.4-0.4-0.5-2.2-0.7-3c-0.4-1.4,0.6-3.8,0.6-4.6c0-0.8-0.6-2-1.7-3.4c-0.3-0.3-1.1-7.3-1.8-9.1c-1-2.4-1.3-2.1-2.5-5
				c-0.9-2.1-0.2-5.1-2.3-12.2c0,0,0.5-0.4,0.5-0.4s-1.7-6.1-2.2-7.8c-0.6-1.7-1.5-1.8-1.5-1.8s0-0.7,0-0.9c0.1-0.3,2-5.4,2.2-5.5
				c0-0.1,2.8-2,2.9-1.8c0.2,1.3,1.3,7.6,1.8,8.6c0.5,1,2.1,4.1,2.9,6.1c-2.9,0.7-5.1,3.3-5.1,6.5c0,3.7,3,6.7,6.7,6.7
				c2.8,0,5.2-1.7,6.2-4.2V116.2z M36.1,123.7c-4.1,0-7.5-3.3-7.5-7.5v-75c0-4.1,3.3-7.5,7.5-7.5h12.6c-2.4,0.9-2.8,2-2.9,5.4
				c-0.4,0-1.3-0.3-1,1.7c0,0,0.2,1.4,0.7,1.1c-0.5,3.6,0.1,3.9-3.7,4.1l-0.2,0.3c-3.7,0.4-4.9-0.1-8.1,6.3c0,0-0.8,2-1.1,2.8
				c-0.8,1.6-2.7,5.2-3.2,7.6c-0.2,0.8-0.5,1,0,2.2c0.7,1.6-0.5,2.1,3.7,2v1c0,0-1.1,1-1.4,1.6c-0.3,0.6-0.9,3.5-0.9,4.9
				c0.1,3.6,3,6.6,3.9,10.2l1.9,0.3c1.1,2.5,5.9,9.3,6.9,10.2c0.2,0.6,1.4,1.4,2.1,2.2c0.6,0.6,4,4.3,8.1,6.7c0,0,0.7,1.4,1,2.4
				c-1.3,1.1,1.3,3.1,2,6.3c0.1,0.4-0.7,0.9,0.4,1.9c-0.1,4.9-1.6,7.6,1,8.9H36.1z M50.4,46.3c0.6-0.1,1.4-1.4,2-2.8
				c0.5,0,0.7-0.5,0.8-0.7c0.5-0.9,1.1-1.6,0.4-2.1c1.7-3.1,0.6-5.1-0.3-5.2c-0.4-0.8-1-1.3-2.2-1.7h7.1c4.1,0,7.5,3.3,7.5,7.5v36.2
				c-0.2-0.5-0.5-1.1-0.9-1.6c0-1-1.1-1-1.4-1.4c-0.3-0.3,0.3-0.5-1.6-0.9c-0.4-0.2-0.6-2.9-0.6-2.9c-0.3-1.8-0.9-3-1.8-4.8
				c-0.5-1-0.7-3.9-1.2-5.5c0.3-7-1.9-9-3.7-10.1c-0.7-0.4-1-0.8-1.7-1.2l0-0.3c-0.5-0.5-1.6-1-2.5-1.4
				C50.1,47.1,50.2,46.5,50.4,46.3 M58.3,31.5H36.1c-5.4,0-9.8,4.4-9.8,9.8v75c0,5.4,4.4,9.8,9.8,9.8h22.1c5.4,0,9.8-4.4,9.8-9.8
				v-75C68.1,35.9,63.7,31.5,58.3,31.5"/>
			<path fill="#006BB6" d="M51.9,118.5l-0.2-2.5h-1.8l-0.3,2.5H47l2.1-11.2h3.4l2.1,11.2H51.9z M43.9,118.5h-3.7v-11.2h3.6
				c1.9,0,2.8,0.7,2.8,2.6c0,1.2-0.2,2.2-1.4,2.6v0c1.3,0.2,1.7,1.2,1.7,2.6C46.9,117.1,46.2,118.5,43.9,118.5 M36.8,118.5L35,112
				l-0.1-0.4h0v6.9h-2.2v-11.2h2.5l1.8,6.2l0.1,0.5h0v-6.6h2.2v11.2H36.8z M57.3,114.8c-1.2-1.1-0.4-1.5-0.4-1.9
				c-0.8-3.3-3.4-5.3-2-6.3c-0.3-1.1-1-2.4-1-2.4c-4.1-2.3-7.5-6.1-8.1-6.7c-0.7-0.8-1.9-1.5-2.1-2.2c-1-0.9-5.8-7.7-6.9-10.2
				l-1.9-0.3c-0.9-3.6-3.8-6.6-3.9-10.2c0-1.4,0.6-4.3,0.9-4.9c0.2-0.6,1.4-1.6,1.4-1.6v-1c-4.2,0.1-3-0.3-3.7-2
				c-0.5-1.1-0.1-1.4,0-2.2c0.6-2.3,2.5-5.9,3.2-7.6c0.2-0.8,1.1-2.8,1.1-2.8c3.2-6.4,4.3-5.9,8.1-6.3l0.2-0.3
				c3.8-0.2,3.1-0.4,3.7-4.1c-0.5,0.2-0.7-1.1-0.7-1.1c-0.3-2.1,0.6-1.7,1-1.7c0.1-3.4,0.4-4.4,2.9-5.4H36.1c-4.1,0-7.5,3.4-7.5,7.5
				v74.9c0,4.1,3.3,7.5,7.5,7.5h22.1C55.7,122.3,57.2,119.7,57.3,114.8"/>
			<path fill="#006BB6" d="M43.7,113.6h-0.8v3h0.8c0.8,0,0.9-0.4,0.9-1.5C44.6,114.3,44.5,113.6,43.7,113.6"/>
			<path fill="#006BB6" d="M43.6,111.8c0.8,0,0.9-0.6,0.9-1.3c0-0.8-0.2-1.2-0.8-1.2h-0.8v2.5H43.6z"/>
			<polygon fill="#006BB6" points="50.8,109.3 50.8,109 50.7,109 50.7,109.3 50.1,114.3 51.4,114.3 			"/>
			<path fill="#ED174C" d="M52.8,48.8l0,0.3c0.7,0.4,1,0.7,1.7,1.2c1.8,1.1,4,3.2,3.7,10.1c0.5,1.5,0.7,4.5,1.2,5.5
				c0.9,1.9,1.6,3.1,1.8,4.8c0,0,0.3,2.7,0.6,2.9c1.9,0.4,1.3,0.6,1.6,0.9c0.3,0.4,1.4,0.4,1.4,1.4c0.4,0.5,0.7,1,0.9,1.6V41.3
				c0-4.1-3.4-7.5-7.5-7.5h-7.2c1.1,0.4,1.8,0.9,2.2,1.7c0.9,0.1,2,2.1,0.3,5.2c0.8,0.5,0.2,1.3-0.4,2.1c-0.2,0.3-0.3,0.8-0.8,0.7
				c-0.6,1.4-1.4,2.7-2,2.8c-0.2,0.2-0.3,0.8,0,1.1C51.2,47.8,52.3,48.3,52.8,48.8"/>
			<path fill="#ED174C" d="M65.7,82.4c-1,2.5-3.4,4.2-6.2,4.2c-3.7,0-6.7-3-6.7-6.7c0-3.1,2.2-5.8,5.1-6.5c-0.8-1.9-2.4-5-2.9-6.1
				c-0.5-1-1.6-7.4-1.8-8.6c-0.1-0.3-2.9,1.6-2.9,1.8c-0.2,0.2-2.1,5.3-2.2,5.5c0,0.2,0,0.9,0,0.9s1,0.1,1.5,1.8
				c0.5,1.7,2.2,7.8,2.2,7.8s-0.5,0.5-0.5,0.4c2.1,7.1,1.4,10.1,2.3,12.2c1.2,2.9,1.5,2.5,2.5,5c0.7,1.8,1.5,8.8,1.8,9.1
				c1.1,1.4,1.7,2.6,1.7,3.4c0,0.8-1,3.2-0.6,4.6c0.2,0.8,0.3,2.7,0.7,3c0,0,0.4,0.7,0.2,1c-0.1,0.1-0.2,0.3-0.1,0.4
				c0.6,2.2,2.7,6-0.6,8h0.1c3.6-0.6,6.3-3.6,6.3-7.4V82.4z"/>
			<polygon fill="#FFFFFF" points="39.3,107.3 37.1,107.3 37.1,113.9 37,113.9 37,113.5 35.2,107.3 32.6,107.3 32.6,118.5 
				34.9,118.5 34.9,111.6 34.9,111.6 35,112 36.8,118.5 39.3,118.5 			"/>
			<path fill="#FFFFFF" d="M43.6,116.6h-0.8v-3h0.8c0.8,0,0.9,0.7,0.9,1.5C44.6,116.2,44.5,116.6,43.6,116.6 M42.8,109.2h0.8
				c0.6,0,0.8,0.4,0.8,1.2c0,0.7-0.1,1.3-0.9,1.3h-0.7V109.2z M45.2,112.6L45.2,112.6c1.2-0.5,1.4-1.5,1.4-2.7
				c0-1.9-0.9-2.6-2.8-2.6h-3.7v11.2h3.7c2.3,0,3-1.4,3-3.3C46.9,113.8,46.5,112.9,45.2,112.6"/>
			<path fill="#FFFFFF" d="M50.1,114.3l0.6-5l0-0.3h0l0,0.3l0.6,5H50.1z M52.5,107.3h-3.4L47,118.5h2.6l0.3-2.5h1.8l0.2,2.5h2.7
				L52.5,107.3z"/>
		</g>
	</g>
	<g>
		<circle fill="#FFFFFF" cx="132.6" cy="171.5" r="4.8"/>
		<g>
			<path fill="#FFFFFF" d="M26.4,150.1h14c6.9,0,11.8,2.6,11.8,10.5c0,4.5-2.2,7.9-6.3,9.1v0.1c4.6,0.6,7.6,4.1,7.6,9.7
				c0,6.5-3.2,12.2-13,12.2H26.4V150.1z M34.8,167.2h2.4c4.6,0,6.7-1.6,6.7-5.5c0-4-1.9-5.4-6.1-5.4h-3V167.2z M34.8,185.5h3.3
				c4,0,6.8-1.5,6.8-6.3c0-4.8-2.7-6.2-6.4-6.2h-3.6V185.5z"/>
			<path fill="#FFFFFF" d="M67.2,150.1v16.7h0.1l10.6-16.7H87l-11.3,17.8l12.6,23.8h-9.4l-8.6-17.1l-3.1,4.7v12.4h-8.4v-41.6H67.2z"
				/>
			<path fill="#FFFFFF" d="M99.8,150.1l10.1,28.5h0.1v-28.5h7.7v41.6h-9.6l-10.3-29.1h-0.1v29.1h-7.7v-41.6H99.8z"/>
		</g>
		<g>
			<path fill="#FFFFFF" d="M157,150.1l10.1,28.5h0.1v-28.5h7.7v41.6h-9.6l-10.3-29.1H155v29.1h-7.7v-41.6H157z"/>
			<path fill="#FFFFFF" d="M187.5,150.1l5.5,16.1h0.1l5.8-16.1h9.1l-10.8,25.2v16.4h-8.4v-16.4L178,150.1H187.5z"/>
			<path fill="#FFFFFF" d="M219.5,150.1v16.7h0.1l10.6-16.7h9.1L228,167.9l12.6,23.8h-9.4l-8.6-17.1l-3.1,4.7v12.4h-8.4v-41.6H219.5
				z"/>
		</g>
	</g>
	<g>
		<g>
			<path fill="#00A94F" d="M485.6,104V34.5h-3V104c0.5-0.1,0.9-0.2,1.4-0.2C484.5,103.8,485,103.9,485.6,104z"/>
			<circle fill="#00A94F" cx="484" cy="110.6" r="5"/>
			<path fill="#00A94F" d="M568.2,262.9h-8.9c0.1,0.4,0.1,0.9,0.1,1.4c0,0.6-0.1,1.1-0.2,1.6h9V262.9z"/>
			<path fill="#00A94F" d="M554.2,257.7l0-38.2c0-0.4,1-8.6-2.8-12.9c-1.5-1.7-3.4-2.5-5.8-2.5h-50.8c-3.5,0-6.2-0.8-7.6-2.8
				c-2.2-3.2-2-7.8-2-7.9l0.5-76c0,0-0.8,0.2-1.6,0.2c-0.8,0-1.4-0.2-1.4-0.2l-0.3,75.3c0,1-0.6,6.6,2.5,10.5
				c2.1,2.6,5.5,3.9,9.9,3.9h50.8c1.5,0,2.6,0.5,3.5,1.5c2.4,2.7,2.3,8.5,2,10.7v38.4c0.5-0.1,1-0.2,1.5-0.2
				C553.2,257.5,553.7,257.6,554.2,257.7z"/>
			<circle fill="#00A94F" cx="552.7" cy="264.3" r="5"/>
		</g>
		<g>
			<path fill="#FCD700" d="M566.3,117.8l-58.9,75.9l-6.2-5.8l-2.2,2.3l6.5,6l-11.7,15.1c-1,1.3-2.1,2.5-3.3,3.6
				c0.8,0.7,1.4,1.7,1.7,2.7c1.5-1.3,2.8-2.8,4.1-4.4l72.6-93.6L566.3,117.8z"/>
			<path fill="#FCD700" d="M470.5,223.2h-90.8c0.2,0.6,0.3,1.1,0.3,1.8c0,0.5-0.1,1-0.2,1.4h90.7c3.6,0,7-0.6,10.4-1.8
				c-0.7-0.8-1.3-1.8-1.6-2.8C476.4,222.7,473.5,223.2,470.5,223.2z"/>
			<circle fill="#FCD700" cx="485.8" cy="219.9" r="5"/>
			<circle fill="#FCD700" cx="373.1" cy="225" r="5"/>
		</g>
		<path fill="none" d="M445.7,247.3c0.2,0.1,0.5,0.2,0.7,0.2C446.2,247.4,445.9,247.3,445.7,247.3z"/>
		<path d="M444.4,246.5C444.4,246.6,444.4,246.6,444.4,246.5c0.4,0.3,0.8,0.5,1.3,0.7C445.3,247.1,444.8,246.8,444.4,246.5z"/>
		<g>
			<path fill="#006BB6" d="M445.7,247.3c-0.5-0.2-0.9-0.4-1.3-0.7c0,0.3,0,0.5,0,0.8v49.9c0,5.2,2,10.2,5.4,13.8l2.3-2.2
				c-2.9-3-4.5-7.2-4.5-11.5v-49.5c-0.2,0-0.3-0.1-0.5-0.1c-0.2,0-0.4-0.1-0.6-0.1C446.2,247.4,445.9,247.4,445.7,247.3z"/>
			<path fill="#006BB6" d="M566.3,137.8l-66.3,87c-5.8,7.5-14.3,11.9-23.3,11.9h-22.4c-0.3,0-0.6,0-0.9,0.1c0.7,0.9,1.2,1.9,1.4,3.1
				h21.9c9.9,0,19.3-4.8,25.8-13.1l66.4-87L566.3,137.8z"/>
			<circle fill="#006BB6" cx="448.2" cy="240.9" r="5"/>
		</g>
		<g>
			<circle fill="#F58426" cx="416.7" cy="143.8" r="5"/>
			<circle fill="#F58426" cx="430.4" cy="278.1" r="5"/>
			<path fill="#F58426" d="M419.9,150.1l7.5,8.8v113.6c0.9-0.6,2-0.9,3.2-0.9c0,0,0,0,0,0V157.7l-8.4-9.9
				C421.6,148.8,420.8,149.5,419.9,150.1z"/>
			<path fill="#F58426" d="M492.4,277.8c-3.9-0.1-16.7-0.1-29.3-0.1c0,0.4,0,0.8,0.1,1.1c1.6,0.2,3,0.9,4,2c11.2,0,21.7,0,25.1,0.1
				c5.3,0.2,12,5.3,19.3,14.7c5.7,7.3,9.7,14.7,9.7,14.8l2.8-1.5C523.4,307.7,507.3,278.3,492.4,277.8z"/>
			<path fill="#F58426" d="M460,279.1c0-0.5,0-1-0.1-1.4c-9.7,0-18.8,0.1-22.9,0.1c0,0.2,0,0.5,0,0.7c0,0.9-0.2,1.7-0.4,2.5
				c3.5,0,11.7-0.1,20.7-0.1C458,280.1,458.9,279.5,460,279.1z"/>
		</g>
		<path d="M467.9,161.3c-0.2-0.3-0.4-0.5-0.7-0.8C467.5,160.8,467.7,161,467.9,161.3C467.9,161.3,467.9,161.3,467.9,161.3z"/>
		<path d="M460.4,171.8C460.4,171.8,460.4,171.9,460.4,171.8c0.3,0.1,0.6,0.2,0.9,0.3C461.1,172.1,460.7,172,460.4,171.8z"/>
		<g>
			<path fill="#ED174C" d="M467.9,161.3c1.3-2,2.9-3.9,4.7-5.6l0.1-0.1l96.1-119.5l-2.5-2l-51.8,64.5l-6.9-6.5l-2.2,2.3l7.1,6.6
				l-42.1,52.4c-1.8,1.7-3.5,3.6-4.8,5.7c0.7,0.3,1.2,0.8,1.7,1.4C467.5,160.7,467.7,161,467.9,161.3z"/>
			<circle fill="#ED174C" cx="462.2" cy="285.5" r="5"/>
			<path fill="#ED174C" d="M466.7,290.6c-0.7,0.8-1.6,1.4-2.7,1.7c1.5,2.6,3.3,5,5.5,7l15.1,11.6l1.9-2.5L471.6,297
				C469.7,295.1,468,293,466.7,290.6z"/>
			<path fill="#ED174C" d="M468.1,261v-3.2H463v-79.5c0-2.1,0.2-4.1,0.6-6c-0.3,0-0.5,0.1-0.8,0.1c-0.5,0-1-0.1-1.4-0.2
				c-0.3-0.1-0.6-0.2-0.9-0.3c-0.4,2.1-0.6,4.3-0.6,6.4v98c0,0.5,0,0.9,0.1,1.4c0,0.5,0,1,0.1,1.5c0.1-0.1,0.3-0.1,0.4-0.1
				c0.2-0.1,0.4-0.1,0.5-0.2c0.4-0.1,0.8-0.1,1.2-0.1c0.3,0,0.7,0,1,0.1c0-0.4,0-0.8-0.1-1.2c0-0.5-0.1-0.9-0.1-1.4V261H468.1z"/>
			<circle fill="#ED174C" cx="462.6" cy="165.5" r="5"/>
		</g>
	</g>
</g>
</svg>
