<?xml version="1.0" encoding="utf-8"?>
<!-- Generator: Adobe Illustrator 16.0.3, SVG Export Plug-In . SVG Version: 6.00 Build 0)  -->
<!DOCTYPE svg PUBLIC "-//W3C//DTD SVG 1.1//EN" "http://www.w3.org/Graphics/SVG/1.1/DTD/svg11.dtd">
<svg version="1.1" id="Layer_1" xmlns="http://www.w3.org/2000/svg" xmlns:xlink="http://www.w3.org/1999/xlink" x="0px" y="0px"
	 width="576px" height="223.674px" viewBox="0 0 576 223.674" enable-background="new 0 0 576 223.674" xml:space="preserve">
<g>
	<defs>
		<rect id="SVGID_1_" width="576" height="223.674"/>
	</defs>
	<clipPath id="SVGID_2_">
		<use xlink:href="#SVGID_1_"  overflow="visible"/>
	</clipPath>
	<path clip-path="url(#SVGID_2_)" fill="#C3002F" d="M574.471,49.59c-6.785-7.561-13.832-15.105-20.946-22.424l-2.134-2.195
		l-3.025,0.447c-83.204,12.266-168.046,18.616-252.32,18.999c-0.788-1.361-1.85-2.631-3.22-3.714l-2.454-13.501l-1.653-1.239
		l-3.233-23.11l-4.544-2.854l-4.545,2.854l-3.233,23.11l-1.652,1.239l-2.447,13.466c-1.349,1.056-2.391,2.295-3.183,3.62
		c-79.639-0.995-159.673-7.287-238.246-18.87l-3.026-0.447l-2.133,2.195C15.362,34.483,8.314,42.029,1.529,49.59L0,51.294v119.892
		l1.536,1.705c6.8,7.555,13.848,15.074,20.947,22.354l2.132,2.185l3.02-0.445c18.49-2.726,37.874-5.247,57.663-7.505
		c11.212,11.146,21.697,21.674,31.988,32.115l2.047,2.078l2.898-0.335c54.877-6.346,110.713-9.563,165.957-9.563
		c55.242,0,111.079,3.217,165.957,9.563l2.898,0.335l2.048-2.078c10.2-10.352,20.67-20.864,31.946-32.075
		c19.703,2.251,38.975,4.76,57.328,7.465l3.02,0.445l2.132-2.185c7.101-7.28,14.147-14.8,20.947-22.354l1.536-1.705V51.294
		L574.471,49.59z"/>
	<path clip-path="url(#SVGID_2_)" d="M549.178,30.358C465.01,42.684,380.187,48.967,295.346,49.313
		c-0.098-2.91-1.804-5.517-4.487-7.389l-2.454-13.504l-1.693-1.27l-2.973-23.3l-2.797-1.601l-2.797,1.601l-2.973,23.3l-1.694,1.27
		l-2.449,13.475c-2.67,1.846-4.382,4.415-4.526,7.29c-80.12-0.956-160.192-7.187-239.68-18.827
		c-6.938,7.238-13.871,14.746-20.8,22.562v116.636c6.929,7.792,13.862,15.276,20.8,22.491c20.513-3.004,41.068-5.624,61.649-7.917
		c11.025,11.117,22.058,22.325,33.102,33.667c110.785-11.375,222.444-11.375,333.229,0c11.031-11.328,22.051-22.523,33.063-33.627
		c20.469,2.284,40.911,4.889,61.313,7.877c6.938-7.215,13.872-14.699,20.8-22.491V52.92
		C563.05,45.104,556.116,37.596,549.178,30.358"/>
	<path clip-path="url(#SVGID_2_)" fill="#FFFFFF" d="M103.01,64.729c4.09,0.295,8.181,0.581,12.273,0.857
		c7.654,30.905,15.311,60.745,22.971,89.727c-4.914,0.286-9.827,0.585-14.739,0.899c-1.444-6.36-2.889-12.76-4.333-19.197
		c-6.692,0.25-13.382,0.515-20.069,0.795c-1.443,6.754-2.887,13.554-4.33,20.401c-4.906,0.369-9.811,0.753-14.714,1.151
		C87.712,126.61,95.359,95.134,103.01,64.729 M109.218,91.657c-0.096-0.003-0.192-0.006-0.288-0.009
		c-2.407,11.046-4.813,22.211-7.219,33.504c4.908-0.106,9.817-0.209,14.727-0.306C114.031,113.901,111.624,102.84,109.218,91.657"/>
	<path clip-path="url(#SVGID_2_)" fill="#FFFFFF" d="M145.482,67.441c4.915,0.273,9.832,0.532,14.749,0.776v73.604
		c9.738-0.344,19.48-0.648,29.225-0.912v11.94c-14.666,0.559-29.325,1.242-43.974,2.053V67.441z"/>
	<path clip-path="url(#SVGID_2_)" fill="#FFFFFF" d="M199.01,69.849c4.922,0.17,9.844,0.325,14.768,0.466v70.016
		c9.749-0.199,19.501-0.358,29.253-0.478v11.516c-14.677,0.252-29.352,0.63-44.021,1.134V69.849z"/>
	<path clip-path="url(#SVGID_2_)" fill="#FFFFFF" d="M378.945,93.594c-4.921,0.075-9.844,0.144-14.767,0.207v-2.646
		c0-2.685-0.796-4.994-2.388-6.916c-1.593-1.922-4.272-2.839-8.037-2.767c-2.027,0.038-3.693,0.373-4.997,1.002
		c-1.304,0.631-2.317,1.424-3.04,2.382c-0.726,0.96-1.232,2.064-1.521,3.317s-0.434,2.561-0.434,3.924
		c0,1.59,0.072,2.934,0.216,4.03c0.147,1.098,0.507,2.041,1.087,2.833c0.579,0.791,1.423,1.487,2.534,2.087
		c1.11,0.602,2.631,1.2,4.563,1.799c3.766,1.16,7.53,2.326,11.294,3.501c3.28,0.985,5.936,2.152,7.964,3.499
		c2.026,1.349,3.593,2.935,4.704,4.757c1.108,1.823,1.856,3.922,2.244,6.289c0.385,2.371,0.578,5.07,0.578,8.099
		c0,3.493-0.434,6.728-1.303,9.691c-0.868,2.967-2.293,5.484-4.27,7.552c-1.979,2.069-4.609,3.667-7.892,4.796
		c-3.282,1.13-7.288,1.624-12.017,1.499c-3.573-0.095-6.904-0.669-9.993-1.719c-3.091-1.05-5.746-2.44-7.966-4.175
		c-2.223-1.732-3.984-3.771-5.288-6.119c-1.304-2.347-1.955-4.871-1.955-7.576v-4.286c4.925,0.034,9.85,0.075,14.773,0.121v3.634
		c0,2.12,0.798,4.039,2.392,5.769c1.592,1.729,4.271,2.628,8.037,2.699c2.508,0.048,4.463-0.198,5.863-0.744
		c1.399-0.545,2.463-1.328,3.186-2.348c0.725-1.022,1.181-2.297,1.376-3.828c0.193-1.53,0.29-3.217,0.289-5.059
		c0.001-2.147-0.097-3.914-0.289-5.297c-0.195-1.382-0.604-2.495-1.23-3.344c-0.629-0.846-1.498-1.54-2.606-2.082
		c-1.111-0.54-2.584-1.119-4.417-1.735c-3.523-1.156-7.047-2.305-10.571-3.444c-6.372-2.052-10.645-4.741-12.818-8.086
		c-2.174-3.343-3.259-7.528-3.259-12.566c0-3.007,0.53-5.869,1.593-8.59c1.063-2.721,2.63-5.074,4.707-7.069
		c2.076-1.994,4.708-3.607,7.895-4.849c3.187-1.241,6.901-1.92,11.151-2.034c3.668-0.098,7.022,0.339,10.063,1.323
		c3.04,0.986,5.646,2.33,7.818,4.043c2.171,1.713,3.836,3.658,4.995,5.838c1.157,2.179,1.735,4.436,1.735,6.767V93.594z"/>
	<path clip-path="url(#SVGID_2_)" fill="#FFFFFF" d="M401.809,80.228c-5.69,0.186-11.382,0.359-17.074,0.518V69.51
		c16.306-0.622,32.604-1.4,48.889-2.334V79.04c-5.685,0.238-11.372,0.463-17.061,0.673v74.536
		c-4.917-0.248-9.835-0.482-14.754-0.702V80.228z"/>
	<path clip-path="url(#SVGID_2_)" fill="#FFFFFF" d="M451.397,66.093c4.093-0.263,8.185-0.536,12.275-0.82
		c7.653,30.067,15.303,61.156,22.948,93.475c-4.905-0.383-9.811-0.751-14.719-1.105c-1.444-6.763-2.887-13.479-4.33-20.149
		c-6.689-0.269-13.381-0.522-20.075-0.761c-1.445,6.37-2.891,12.702-4.336,18.998c-4.913-0.3-9.827-0.585-14.743-0.856
		C436.081,126.161,443.741,96.637,451.397,66.093 M457.608,91.877c-0.097,0.003-0.192,0.005-0.288,0.008
		c-2.408,11.051-4.815,21.984-7.223,32.807c4.911,0.094,9.821,0.191,14.731,0.293C462.422,113.829,460.016,102.796,457.608,91.877"
		/>
	<path clip-path="url(#SVGID_2_)" fill="#FFFFFF" d="M496.718,62.77c7.883-0.65,15.761-1.336,23.635-2.058
		c17.282-1.709,25.906,7.724,25.907,28.577c0,6.15-0.934,11.466-2.805,15.874c-1.871,4.413-5.156,7.922-9.856,10.495
		c5.277,15.775,10.552,32.019,15.824,48.775c-5.176-0.533-10.355-1.052-15.536-1.554c-4.558-15.163-9.117-29.937-13.678-44.353
		c-2.93-0.039-5.858-0.077-8.788-0.114v42.394c-4.899-0.432-9.8-0.848-14.703-1.249V62.77z M511.421,105.862
		c2.786-0.027,5.57-0.054,8.354-0.081c2.593-0.026,4.656-0.403,6.192-1.137c1.534-0.734,2.711-1.781,3.528-3.141
		c0.814-1.359,1.367-3.033,1.655-5.017c0.288-1.981,0.432-4.28,0.432-6.884c0-2.603-0.144-4.888-0.432-6.848
		c-0.288-1.959-0.889-3.61-1.799-4.947c-0.915-1.334-2.185-2.282-3.815-2.841c-1.635-0.557-3.794-0.743-6.481-0.563
		c-2.544,0.169-5.089,0.336-7.635,0.5V105.862z"/>
	<path clip-path="url(#SVGID_2_)" fill="#8A8A8D" d="M550.497,178.82c-174.651-22.915-351.945-22.915-526.597,0
		c1.647,1.692,3.294,3.369,4.942,5.029c22.134-3.091,44.312-5.764,66.519-8.056c10.277,10.455,20.559,20.99,30.849,31.626
		c107.757-9.909,216.197-9.909,323.954,0c10.234-10.578,20.46-21.054,30.682-31.453c21.602,2.251,43.176,4.876,64.71,7.883
		C547.203,182.189,548.851,180.513,550.497,178.82"/>
	<polygon clip-path="url(#SVGID_2_)" fill="#C3002F" points="279.111,67.967 282.661,67.967 282.182,49.527 279.584,49.527 	"/>
	<path clip-path="url(#SVGID_2_)" fill="#8A8A8D" d="M304.531,79.25c-2.856-3.647-8.079-6.557-14.49-8.025l-2.122-18.765
		l-4.087-2.823l1.47,20.788c-1.433-0.149-2.895-0.247-4.399-0.247c-1.519,0-2.994,0.1-4.44,0.252l1.451-20.78l-3.424,1.773
		l-0.192-0.283l4.281-4.637h5.16l6.535,4.3l0.246,1.84c0.601-0.943,0.95-1.983,0.95-3.086c0-2.539-1.776-4.773-4.478-6.136
		l-1.509-13.732l-1.068-0.806l-2.142-23.568l-0.387-0.258l1.761,37.262c-0.878-0.168-1.784-0.287-2.737-0.287
		c-0.958,0-1.868,0.12-2.75,0.29l1.763-37.292l-0.386,0.257l-2.144,23.595l-1.068,0.807l-1.51,13.74
		c-2.694,1.364-4.465,3.594-4.465,6.128c0,2.114,1.231,4.017,3.201,5.384l-1.789,16.285c-6.41,1.468-11.631,4.378-14.488,8.024
		c-7.733,4.473-13.058,11.129-14.779,18.816l0.357,0.198c4.996-12.605,20.123-21.78,38.051-21.78
		c17.932,0,33.06,9.179,38.054,21.789l0.355-0.198C317.594,90.383,312.268,83.725,304.531,79.25"/>
	<path clip-path="url(#SVGID_2_)" fill="#8A8A8D" d="M317.328,113.306l0.527-0.183c-0.563-15.054-15.909-27.127-36.953-27.127
		c-21.046,0-36.394,12.075-36.953,27.132l0.532,0.185c0.425-3.37,1.71-6.557,3.685-9.448l2.198,2.819
		c-3.444,4.075-5.467,8.873-5.467,14.029c0,10.294,7.945,19.203,19.543,23.616l0.198-1.533
		c-8.654-3.872-14.427-10.722-14.427-18.549c0-12.096,13.741-21.902,30.691-21.902s30.69,9.806,30.69,21.902
		c0,7.841-5.792,14.699-14.471,18.568l0.208,1.526c11.617-4.408,19.578-13.323,19.578-23.629c0-5.274-2.108-10.178-5.699-14.312
		l2.256-2.785C315.538,106.57,316.89,109.84,317.328,113.306 M297.781,92.081l-1.378,4.672c-4.042-1.427-8.49-2.31-13.194-2.53
		v-5.082C288.439,89.379,293.375,90.403,297.781,92.081 M278.295,89.152v5.082c-4.744,0.252-9.223,1.18-13.28,2.657l-1.291-4.683
		C268.123,90.492,273.053,89.423,278.295,89.152 M252.224,104.691l-2.368-3.037c2.753-3.223,6.439-5.968,10.754-8.077l1.268,4.603
		C258.143,99.901,254.876,102.109,252.224,104.691 M309.331,104.444c-2.698-2.565-6.016-4.746-9.791-6.438l1.352-4.586
		c4.356,2.083,8.068,4.817,10.867,8.026L309.331,104.444z"/>
	<path clip-path="url(#SVGID_2_)" fill="#8D734A" d="M280.903,106.291c-15.143,0-27.42,8.416-27.42,18.798
		c0,6.298,4.535,11.858,11.471,15.27l0.212-1.638c-1.408-0.791-2.686-1.686-3.805-2.666c3.257-2.85,5.185-6.618,5.185-11.002
		c0-3.606-1.596-7.093-4.287-10.076c4.526-3.527,11.191-5.768,18.644-5.768c7.432,0,14.08,2.229,18.605,5.74
		c-2.707,2.989-4.313,6.487-4.313,10.104c0,4.398,1.94,8.179,5.217,11.031c-1.13,0.985-2.42,1.885-3.842,2.678l0.222,1.628
		c6.97-3.408,11.531-8.984,11.531-15.301C308.323,114.706,296.046,106.291,280.903,106.291 M260.369,135.146
		c-2.255-2.28-3.688-4.956-4.048-7.841h8.053C263.979,130.333,262.538,132.975,260.369,135.146 M264.491,125.452h-8.243
		c0.129-3.387,1.742-6.519,4.431-9.113C263.035,119.066,264.474,122.197,264.491,125.452 M301.091,116.307
		c2.71,2.601,4.337,5.745,4.467,9.146h-8.308C297.268,122.185,298.718,119.042,301.091,116.307 M301.407,135.179
		c-2.189-2.176-3.644-4.831-4.04-7.874h8.118C305.123,130.202,303.681,132.893,301.407,135.179"/>
	<path clip-path="url(#SVGID_2_)" fill="#8D734A" d="M287.57,83.282c1.715,0.227,3.376,0.564,5.004,0.958l0.449-3.267
		c-1.697-0.407-3.444-0.744-5.259-0.975L287.57,83.282z M302.907,88.119c1.246,0.664,2.431,1.387,3.561,2.156l0.898-2.9
		c-1.165-0.843-2.38-1.649-3.692-2.373L302.907,88.119z M260.771,83.673l0.775,3.155c1.407-0.625,2.873-1.177,4.388-1.664
		l-0.452-3.277C263.846,82.41,262.262,82.994,260.771,83.673 M254.423,87.375l0.902,2.907c1.13-0.769,2.314-1.492,3.559-2.156
		l-0.767-3.124C256.805,85.726,255.588,86.531,254.423,87.375 M308.523,91.785c1.001,0.79,1.959,1.612,2.838,2.484l0.895-2.545
		c-0.873-0.967-1.832-1.883-2.858-2.756L308.523,91.785z M313.213,96.276c0.854,1.017,1.604,2.085,2.289,3.182l0.613-2.186
		c-0.599-1.159-1.284-2.283-2.071-3.36L313.213,96.276z M295.858,85.16c1.515,0.487,2.981,1.038,4.388,1.663l0.773-3.149
		c-1.49-0.68-3.075-1.264-4.711-1.786L295.858,85.16z M243.391,103.813l0.181,1.554c0.359-1.196,0.846-2.354,1.394-3.49
		l-0.513-1.826C244.003,101.276,243.625,102.524,243.391,103.813 M277.874,79.657l0.193,3.281c0.939-0.052,1.881-0.093,2.837-0.093
		c0.95,0,1.887,0.041,2.82,0.093l0.194-3.281c-0.997-0.055-1.998-0.1-3.022-0.1S278.87,79.603,277.874,79.657 M317.337,100.057
		l-0.509,1.807c0.549,1.132,1.035,2.286,1.395,3.479l0.176-1.517C318.164,102.536,317.785,101.285,317.337,100.057 M268.767,80.972
		l0.451,3.271c1.627-0.394,3.288-0.732,5.003-0.96l-0.194-3.285C272.21,80.229,270.463,80.566,268.767,80.972 M245.673,97.268
		l0.618,2.202c0.685-1.098,1.435-2.167,2.289-3.184l-0.834-2.376C246.958,94.985,246.273,96.108,245.673,97.268 M249.535,91.721
		l0.898,2.556c0.878-0.873,1.836-1.694,2.837-2.485l-0.877-2.826C251.367,89.839,250.406,90.755,249.535,91.721"/>
	<path clip-path="url(#SVGID_2_)" fill="#8A8A8D" d="M265.26,164.536l4.482,0.478l3.988-51.044c-1.692,0.414-2.82,0.898-3.524,1.284
		L265.26,164.536z M291.582,115.225c-0.689-0.396-1.818-0.886-3.525-1.297l3.991,51.086l4.482-0.478L291.582,115.225z"/>
	<path clip-path="url(#SVGID_2_)" fill="#C3002F" d="M285.016,113.419c-1.174-0.131-2.452-0.229-3.978-0.229
		c-1.638,0-3.01,0.11-4.262,0.26l-2.589,44.852h13.42L285.016,113.419z"/>
	<path clip-path="url(#SVGID_2_)" fill="#C3002F" d="M280.886,4.39l-0.23,0.153l-0.865,35.64c0.367-0.041,0.739-0.076,1.125-0.076
		c0.362,0,0.708,0.041,1.054,0.078l-0.879-35.658L280.886,4.39z"/>
	<path clip-path="url(#SVGID_2_)" fill="#FFFFFF" d="M58.211,62.416H35.193c-5.589,0-10.135,4.546-10.135,10.134v77.968
		c0,5.589,4.546,10.136,10.135,10.136c0,0,22.955-0.005,23.008-0.005c5.59,0,10.139-4.546,10.139-10.134l0.004-77.964
		C68.344,66.961,63.798,62.416,58.211,62.416"/>
	<path clip-path="url(#SVGID_2_)" fill="#DD0031" d="M52.534,80.717c0.692,0.421,1.059,0.747,1.771,1.204
		c1.865,1.187,4.177,3.286,3.884,10.525c0.529,1.58,0.762,4.684,1.258,5.672c0.972,1.946,1.619,3.201,1.904,5.027
		c0,0,0.284,2.856,0.648,3.059c1.945,0.443,1.38,0.628,1.661,0.972c0.303,0.384,1.431,0.375,1.428,1.413
		c0.391,0.52,0.678,1.054,0.903,1.626V72.549c0-4.3-3.484-7.781-7.78-7.781h-7.433c1.193,0.425,1.858,0.931,2.268,1.723
		c0.95,0.08,2.086,2.231,0.316,5.405c0.774,0.53,0.169,1.32-0.382,2.236c-0.179,0.279-0.363,0.807-0.873,0.772
		c-0.698,1.425-1.506,2.8-2.112,2.882c-0.183,0.221-0.315,0.841-0.051,1.125c0.911,0.404,2.011,0.956,2.556,1.483L52.534,80.717z"/>
	<path clip-path="url(#SVGID_2_)" fill="#DD0031" d="M59.373,158.207c3.406-2.067,1.29-5.988,0.64-8.298
		c-0.035-0.128,0.066-0.3,0.124-0.407c0.171-0.314-0.195-1.055-0.195-1.055c-0.405-0.361-0.518-2.278-0.737-3.157
		c-0.366-1.459,0.649-3.969,0.649-4.821c0-0.852-0.649-2.029-1.824-3.526c-0.284-0.324-1.145-7.635-1.906-9.483
		c-1.054-2.553-1.377-2.146-2.633-5.188c-0.973-2.146-0.204-5.307-2.393-12.643c0.011,0.036,0.49-0.446,0.49-0.446
		s-1.744-6.361-2.311-8.105c-0.568-1.742-1.583-1.864-1.583-1.864s0.009-0.708,0.061-0.891c0.081-0.284,2.108-5.588,2.29-5.755
		c0.011-0.12,2.943-2.12,3.001-1.822c0.241,1.297,1.378,7.902,1.862,8.955c0.485,1.055,2.187,4.296,2.977,6.301
		c-3.042,0.736-5.301,3.478-5.301,6.747c0,3.836,3.108,6.945,6.945,6.945c2.927,0,5.443-1.813,6.465-4.379l-0.005,35.203
		c0,3.912-2.816,7.117-6.544,7.69H59.373z"/>
	<path clip-path="url(#SVGID_2_)" fill="#003DA6" d="M43.835,144.507c0-0.816-0.174-1.272-0.831-1.272h-0.842v2.629H42.9
		C43.748,145.863,43.835,145.234,43.835,144.507 M50.415,143.014h-0.029l-0.017,0.27l-0.669,5.237h1.34l-0.612-5.237L50.415,143.014
		z M57.218,149.014c-1.239-1.111-0.408-1.575-0.469-2.02c-0.809-3.404-3.524-5.474-2.126-6.591c-0.344-1.135-1.037-2.545-1.01-2.531
		c-4.216-2.431-7.824-6.36-8.431-6.928c-0.73-0.809-1.988-1.62-2.23-2.271c-1.013-0.931-5.999-7.982-7.132-10.575l-2.028-0.285
		c-0.909-3.742-3.971-6.889-4.049-10.656c-0.034-1.425,0.647-4.458,0.891-5.067c0.242-0.605,1.419-1.619,1.419-1.619v-1.015
		c-4.401,0.131-3.129-0.319-3.893-2.026c-0.529-1.187-0.155-1.445,0.04-2.27c0.579-2.407,2.552-6.161,3.365-7.86
		c0.244-0.853,1.094-2.92,1.094-2.92c3.283-6.686,4.5-6.198,8.387-6.564l0.205-0.284c3.902-0.163,3.267-0.471,3.808-4.214
		c-0.568,0.243-0.728-1.175-0.728-1.175c-0.316-2.15,0.587-1.742,1.011-1.784c0.1-3.51,0.447-4.618,3.002-5.591H35.192
		c-4.3,0-7.782,3.481-7.782,7.782v77.967c0,4.296,3.482,7.783,7.782,7.783H58.21C55.576,156.881,57.136,154.162,57.218,149.014
		 M38.476,152.906H35.86l-1.885-6.786l-0.066-0.421h-0.023v7.207h-2.33v-11.652h2.63l1.854,6.402l0.083,0.464h0.027v-6.866h2.325
		V152.906z M43.288,152.906h-3.891v-11.652h3.804c1.953,0,2.9,0.742,2.9,2.742c0,1.224-0.172,2.303-1.472,2.74v0.029
		c1.314,0.233,1.762,1.211,1.762,2.683C46.391,151.404,45.678,152.906,43.288,152.906 M51.553,152.906l-0.248-2.561H49.42
		l-0.277,2.561H46.46l2.162-11.652h3.558l2.187,11.652H51.553z M43.019,147.756h-0.856v3.167h0.798c0.89,0,0.992-0.438,0.992-1.593
		C43.953,148.533,43.851,147.756,43.019,147.756"/>
	<path clip-path="url(#SVGID_2_)" fill="#FFFFFF" d="M133.135,178.34c-3.165,0.279-6.33,0.565-9.494,0.861v-3.617
		c7.805-0.729,15.613-1.407,23.425-2.032v3.618c-3.167,0.253-6.334,0.516-9.5,0.786v21.706c-1.477,0.126-2.954,0.254-4.431,0.384
		V178.34z"/>
	<path clip-path="url(#SVGID_2_)" fill="#FFFFFF" d="M151.699,195.979v-20.258c0.985-0.921,1.971-1.84,2.957-2.759
		c5.49-0.416,10.983-0.807,16.476-1.17c0.986,0.778,1.973,1.558,2.959,2.339v20.258c-0.986,0.908-1.973,1.817-2.959,2.728
		c-5.493,0.363-10.986,0.754-16.476,1.17C153.67,197.516,152.685,196.747,151.699,195.979 M169.654,193.597v-18.089
		c-4.507,0.303-9.014,0.623-13.519,0.96v18.089C160.641,194.22,165.147,193.899,169.654,193.597"/>
	<path clip-path="url(#SVGID_2_)" fill="#FFFFFF" d="M180.839,171.174c6.2-0.376,12.401-0.721,18.603-1.031
		c0.987,0.794,1.974,1.59,2.961,2.386v9.044c-0.705,0.637-1.41,1.275-2.115,1.913c0.705,0.568,1.41,1.136,2.115,1.704v10.13
		c-1.48,0.072-2.96,0.146-4.44,0.221v-10.13c-4.229,0.216-8.457,0.447-12.684,0.694v10.13c-1.48,0.086-2.96,0.174-4.44,0.264
		V171.174z M197.963,181.793v-7.959c-4.229,0.216-8.457,0.447-12.684,0.693v7.959C189.506,182.24,193.734,182.009,197.963,181.793"
		/>
	<path clip-path="url(#SVGID_2_)" fill="#FFFFFF" d="M209.156,192.472v-20.258c0.987-0.889,1.974-1.776,2.961-2.663
		c5.499-0.237,10.999-0.448,16.499-0.633c0.987,0.811,1.975,1.623,2.962,2.435v20.26c-0.987,0.876-1.975,1.752-2.962,2.63
		c-5.5,0.185-11,0.396-16.499,0.633C211.129,194.073,210.143,193.271,209.156,192.472 M227.136,190.675v-18.089
		c-4.513,0.156-9.025,0.329-13.537,0.519v18.089C218.11,191.004,222.623,190.831,227.136,190.675"/>
	<path clip-path="url(#SVGID_2_)" fill="#FFFFFF" d="M238.759,168.605c1.834-0.051,3.667-0.101,5.501-0.146
		c4.232,5.695,8.464,11.405,12.696,17.131c0.028,0,0.056-0.001,0.084-0.002v-17.4c1.454-0.025,2.907-0.049,4.361-0.071v25.324
		c-1.369,0.021-2.738,0.043-4.107,0.066c-4.698-6.382-9.395-12.744-14.092-19.089c-0.029,0.001-0.056,0.001-0.085,0.002v19.392
		c-1.452,0.037-2.905,0.076-4.358,0.117V168.605z"/>
	<path clip-path="url(#SVGID_2_)" fill="#FFFFFF" d="M275.99,171.574c-3.174,0.021-6.349,0.052-9.523,0.091v-3.617
		c7.83-0.096,15.66-0.14,23.49-0.132v3.617c-3.174-0.003-6.35,0.002-9.523,0.016v21.706c-1.481,0.007-2.963,0.015-4.444,0.025
		V171.574z"/>
	<path clip-path="url(#SVGID_2_)" fill="#FFFFFF" d="M294.6,190.717v-20.259c0.988-0.84,1.977-1.68,2.963-2.519
		c5.503,0.028,11.006,0.084,16.509,0.165c0.986,0.857,1.975,1.718,2.963,2.578v20.259c-0.988,0.828-1.977,1.657-2.963,2.485
		c-5.503-0.079-11.006-0.135-16.509-0.163C296.576,192.413,295.588,191.565,294.6,190.717 M312.59,189.789V171.7
		c-4.515-0.062-9.029-0.107-13.544-0.135v18.089C303.56,189.683,308.075,189.728,312.59,189.789"/>
	<path clip-path="url(#SVGID_2_)" fill="#FFFFFF" d="M351.285,183.149c0.987-0.81,1.975-1.617,2.962-2.425
		c4.09,0.153,8.179,0.319,12.268,0.501v-7.959c-3.596-0.159-7.191-0.308-10.787-0.444v3.257c-1.481-0.057-2.962-0.112-4.442-0.165
		v-4.341c0.987-0.81,1.975-1.617,2.962-2.425c4.583,0.172,9.166,0.36,13.748,0.567c0.987,0.889,1.974,1.778,2.96,2.668v10.13
		c-0.985,0.799-1.973,1.597-2.96,2.396c-4.089-0.185-8.179-0.355-12.268-0.511v6.513c5.076,0.194,10.153,0.41,15.228,0.646v3.617
		c-6.555-0.307-13.111-0.577-19.67-0.811V183.149z"/>
	<path clip-path="url(#SVGID_2_)" fill="#FFFFFF" d="M379.4,193.059v-20.258c0.987-0.794,1.974-1.586,2.96-2.378
		c4.651,0.248,9.301,0.515,13.951,0.799c0.986,0.905,1.972,1.81,2.958,2.717v20.258c-0.986,0.783-1.972,1.565-2.958,2.35
		c-4.65-0.285-9.3-0.552-13.951-0.8C381.374,194.85,380.388,193.953,379.4,193.059 M394.832,192.839V174.75
		c-3.664-0.222-7.328-0.432-10.991-0.631v18.09C387.504,192.407,391.168,192.617,394.832,192.839"/>
	<path clip-path="url(#SVGID_2_)" fill="#FFFFFF" d="M412.991,175.939c-1.901-0.134-3.802-0.266-5.704-0.394v-3.617
		c3.38,0.229,6.76,0.465,10.139,0.713v25.324c-1.478-0.109-2.956-0.215-4.435-0.32V175.939z"/>
	<path clip-path="url(#SVGID_2_)" fill="#FFFFFF" d="M427.133,196.171v-20.259c0.985-0.767,1.971-1.532,2.955-2.297
		c4.505,0.362,9.008,0.742,13.51,1.139c0.984,0.932,1.97,1.863,2.954,2.796v4.343c-1.477-0.134-2.954-0.265-4.431-0.394
		c0-1.086,0-2.171,0-3.257c-3.517-0.307-7.035-0.604-10.554-0.89v8.573c0.027,0.004,0.056,0.006,0.084,0.008
		c0.521-0.404,1.042-0.808,1.563-1.211c3.462,0.284,6.923,0.579,10.384,0.885c0.984,0.931,1.97,1.863,2.954,2.796v9.405
		c-0.984,0.756-1.97,1.513-2.954,2.27c-4.502-0.396-9.005-0.777-13.51-1.139C429.104,198.016,428.118,197.092,427.133,196.171
		 M442.121,196.331c0-2.412,0-4.824,0-7.235c-3.517-0.308-7.035-0.604-10.554-0.891v7.236
		C435.086,195.728,438.604,196.024,442.121,196.331"/>
	<polygon clip-path="url(#SVGID_2_)" fill="#FFFFFF" points="334.874,172.5 336.919,178.794 343.537,178.794 338.184,182.684 
		340.229,188.979 334.874,185.089 329.521,188.979 331.565,182.684 326.21,178.794 332.829,178.794 	"/>
	<path clip-path="url(#SVGID_2_)" fill="#8D734A" d="M545.556,38.654c-83.612,11.672-167.819,17.606-252.04,17.891l0.775,4.266
		c85.622-0.299,171.227-5.979,256.206-17.128C548.851,41.99,547.203,40.314,545.556,38.654 M23.9,43.683
		c80.845,10.607,162.256,16.24,243.709,17.027l0.776-4.273c-80.052-0.807-160.066-6.689-239.543-17.783
		C27.194,40.314,25.547,41.99,23.9,43.683"/>
</g>
</svg>
