<svg xmlns="http://www.w3.org/2000/svg" width="20" height="26" viewBox="0 0 20 26">
  <defs>
    <style>
      .cls-1 {
        fill: #121314;
        fill-rule: evenodd;
      }
    </style>
  </defs>
  <path id="_" data-name="#" class="cls-1" d="M18.651,23.5A1.241,1.241,0,0,1,17.5,25H2.849a1.5,1.5,0,0,1-1.5-1.5L0,8.5A1.5,1.5,0,0,1,1.5,7H5V4.125A4.109,4.109,0,0,1,9,0h2a4.109,4.109,0,0,1,4,4.125V7h3.5A1.5,1.5,0,0,1,20,8.5ZM13,4.125A2.11,2.11,0,0,0,11,2H9A2.11,2.11,0,0,0,7,4.125V7h6V4.125Z"/>
</svg>
