<svg xmlns="http://www.w3.org/2000/svg" width="22" height="22" viewBox="0 0 22 22"><path d="M10.5,2C7.65,2,8.292,2.01,7.173,2.062a7.705,7.705,0,0,0-2.546.487A5.144,5.144,0,0,0,2.77,3.76,5.121,5.121,0,0,0,1.56,5.617a7.691,7.691,0,0,0-.488,2.545c-0.051,1.119-.063.476-0.063,3.325s0.013,2.205.063,3.324a7.7,7.7,0,0,0,.488,2.546,5.134,5.134,0,0,0,1.21,1.857,5.149,5.149,0,0,0,1.857,1.21,7.719,7.719,0,0,0,2.546.488c1.119,0.051.476,0.062,3.324,0.062s2.206-.011,3.325-0.062a7.72,7.72,0,0,0,2.546-.488,5.362,5.362,0,0,0,3.067-3.067,7.694,7.694,0,0,0,.488-2.546c0.051-1.119.063-.476,0.063-3.324s-0.012-2.206-.063-3.325a7.682,7.682,0,0,0-.488-2.545,5.365,5.365,0,0,0-3.067-3.068,7.707,7.707,0,0,0-2.546-.487C12.7,2.01,13.346,2,10.5,2m0,1.937c2.786,0,2.115.011,3.215,0.061a5.767,5.767,0,0,1,1.937.359,3.229,3.229,0,0,1,1.2.78,3.239,3.239,0,0,1,.781,1.2,5.793,5.793,0,0,1,.359,1.937c0.05,1.1.061,0.43,0.061,3.215s-0.01,2.115-.061,3.214a5.782,5.782,0,0,1-.359,1.937,3.458,3.458,0,0,1-1.98,1.98,5.793,5.793,0,0,1-1.937.359c-1.1.049-.429,0.061-3.215,0.061s-2.115-.011-3.215-0.061a5.794,5.794,0,0,1-1.937-.359,3.458,3.458,0,0,1-1.98-1.98A5.782,5.782,0,0,1,3.007,14.7c-0.05-1.1-.061-0.429-0.061-3.214s0.011-2.115.061-3.215a5.793,5.793,0,0,1,.359-1.937,3.246,3.246,0,0,1,.781-1.2,3.234,3.234,0,0,1,1.2-.78A5.769,5.769,0,0,1,7.282,4c1.1-.05.43-0.061,3.215-0.061M10.513,14.08c-1.975,0-2.577-.6-2.577-2.577s0.6-2.577,2.577-2.577,2.578,0.6,2.578,2.577-0.6,2.577-2.578,2.577m0-7.088C7.47,6.992,6,8.459,6,11.5s1.467,4.51,4.511,4.51,4.511-1.467,4.511-4.51-1.467-4.511-4.511-4.511m5.78,0.022a1.258,1.258,0,1,1-1.259-1.26,1.259,1.259,0,0,1,1.259,1.26"/></svg>
