<svg xmlns="http://www.w3.org/2000/svg" width="28" height="50" viewBox="0 0 28 50">
  <defs>
    <style>
      .cls-1 {
        fill: #161719;
        fill-rule: evenodd;
      }
    </style>
  </defs>
  <path id="_" data-name="#" class="cls-1" d="M26.763,2.1L4.34,24.488,26.764,46.88a0.879,0.879,0,0,1,0,1.244l-0.623.622a0.882,0.882,0,0,1-1.246,0l-23-22.971c-0.016-.014-0.036-0.019-0.052-0.034l-0.623-.622a0.9,0.9,0,0,1,0-1.26l0.623-.622c0.013-.013.03-0.017,0.044-0.029L24.894,0.231a0.882,0.882,0,0,1,1.246,0l0.623,0.622A0.879,0.879,0,0,1,26.763,2.1Z"/>
</svg>
