<svg xmlns="http://www.w3.org/2000/svg" width="232" height="20" viewBox="0 0 232 20">
  <defs>
    <style>
      .cls-1 {
        fill: #121314;
        fill-rule: evenodd;
      }
    </style>
  </defs>
  <path id="WESTBROOK" class="cls-1" d="M232.064,19.981h-5.011l-5.846-8.537-2.193,2.388v6.148H215V0.012h4.015v8.7l7.879-8.7h5.037L224.024,8.52Zm-35.562.064a8.935,8.935,0,0,1-6.836-2.844,10.077,10.077,0,0,1-2.658-7.16V10.013a10.051,10.051,0,0,1,2.671-7.159,9.67,9.67,0,0,1,13.686-.014,10.026,10.026,0,0,1,2.658,7.145v0.028a10.1,10.1,0,0,1-2.671,7.174A8.958,8.958,0,0,1,196.5,20.045Zm3.981-14.3a5.454,5.454,0,0,0-7.984-.057,6.169,6.169,0,0,0-1.515,4.246V9.96a6.277,6.277,0,0,0,1.529,4.3,5.452,5.452,0,0,0,7.97.014A6.267,6.267,0,0,0,202,9.988,6.31,6.31,0,0,0,200.483,5.742ZM168.5,20.045a8.937,8.937,0,0,1-6.836-2.844,10.076,10.076,0,0,1-2.657-7.16V10.013a10.051,10.051,0,0,1,2.67-7.159,9.67,9.67,0,0,1,13.686-.014,10.026,10.026,0,0,1,2.658,7.145v0.028a10.1,10.1,0,0,1-2.671,7.174A8.958,8.958,0,0,1,168.5,20.045Zm3.981-14.3a5.455,5.455,0,0,0-7.985-.057,6.173,6.173,0,0,0-1.514,4.246V9.96a6.277,6.277,0,0,0,1.529,4.3,5.452,5.452,0,0,0,7.97.014A6.267,6.267,0,0,0,174,9.988,6.31,6.31,0,0,0,172.483,5.742Zm-25.351,14.27-4.645-6.027h-3.481v6.027h-4V0.006h8.71a7.822,7.822,0,0,1,5.405,1.758,6.265,6.265,0,0,1,1.906,4.844V6.665a6.078,6.078,0,0,1-4.083,6.2l5.092,7.145h-4.9ZM147.007,7.033V6.974a2.746,2.746,0,0,0-.912-2.231,3.845,3.845,0,0,0-2.538-.763h-4.551V10h4.636a3.553,3.553,0,0,0,2.467-.809A2.757,2.757,0,0,0,147.007,7.033ZM118.93,19.919h-8.923V-0.021h8.432a7.809,7.809,0,0,1,4.768,1.332A4.531,4.531,0,0,1,125,5.188a5.036,5.036,0,0,1-.7,2.59,4.465,4.465,0,0,1-1.868,1.751,5.1,5.1,0,0,1,3.558,4.862V14.42a4.748,4.748,0,0,1-1.9,4.138A8.7,8.7,0,0,1,118.93,19.919ZM118.4,3.975H114V7.967h4.289q2.728,0,2.728-2.026C121.015,4.609,120.142,3.975,118.4,3.975Zm2.87,8.54a3.284,3.284,0,0,0-1.992-.526H114v3.966h5.3q2.671,0,2.672-1.97A1.728,1.728,0,0,0,121.267,12.515ZM95,20H91V4H85V0h16V4H95V20Zm-26.132.015a11.693,11.693,0,0,1-6.919-2.164l1.112-3.718a7.669,7.669,0,0,0,2.729,1.379,11.246,11.246,0,0,0,3.186.478,3.7,3.7,0,0,0,1.963-.464,1.459,1.459,0,0,0,.753-1.309,1.406,1.406,0,0,0-.807-1.309,14.38,14.38,0,0,0-2.8-.971,19.912,19.912,0,0,1-2.487-.83,9.646,9.646,0,0,1-1.869-1.069A3.844,3.844,0,0,1,62.4,8.377,6.148,6.148,0,0,1,61.985,6V5.971a5.363,5.363,0,0,1,1.976-4.447A7.878,7.878,0,0,1,69.029-.052a10.037,10.037,0,0,1,5.992,1.792L74.165,5.6A10.093,10.093,0,0,0,68.814,4a2.95,2.95,0,0,0-1.855.506,1.456,1.456,0,0,0-.645,1.154,1.52,1.52,0,0,0,.067.464,1.2,1.2,0,0,0,.215.394,2.534,2.534,0,0,0,.309.324,2,2,0,0,0,.457.281q0.3,0.142.524,0.239a4.952,4.952,0,0,0,.632.211c0.269,0.076.493,0.141,0.672,0.2s0.425,0.126.739,0.211S70.5,8.138,70.7,8.194a8.745,8.745,0,0,1,3.98,2.04,4.911,4.911,0,0,1,1.344,3.645v0.028a5.455,5.455,0,0,1-1.976,4.531A8.051,8.051,0,0,1,68.868,20.015ZM39,20V0H53V4H43V8h9v4H43v4H53v4H39Zm-19-.014-0.012-.025-5-9.875,0-.009-5,9.909L0.014,0h4.16L9.987,11.678l2.951-5.727L9.945,0h20.07l-10,19.988H20ZM16.033,3.978l3.974,7.684L23.93,3.978h-7.9Z"/>
</svg>
