<svg xmlns="http://www.w3.org/2000/svg" width="28" height="50" viewBox="0 0 28 50">
  <defs>
    <style>
      .cls-1 {
        fill: #161719;
        fill-rule: evenodd;
      }
    </style>
  </defs>
  <path id="_" data-name="#" class="cls-1" d="M25.784,25.119l-0.623.622c-0.015.015-.036,0.02-0.052,0.034l-23,22.971a0.882,0.882,0,0,1-1.246,0l-0.623-.622a0.879,0.879,0,0,1,0-1.244L22.66,24.488,0.237,2.1a0.879,0.879,0,0,1,0-1.244L0.86,0.231a0.882,0.882,0,0,1,1.246,0l23.01,22.976c0.014,0.012.031,0.016,0.044,0.029l0.623,0.622A0.9,0.9,0,0,1,25.784,25.119Z"/>
</svg>
