<svg xmlns="http://www.w3.org/2000/svg" width="22" height="22" viewBox="0 0 22 22"><path d="M15.931,19.861A6.157,6.157,0,0,1,12.3,20.975H12.161c-4.25,0-5.173-3.125-5.173-4.948V10.991H5.345a0.351,0.351,0,0,1-.351-0.351h0V8.216a0.6,0.6,0,0,1,.4-0.561,4.445,4.445,0,0,0,2.936-4.12,0.532,0.532,0,0,1,.565-0.574h2.745a0.351,0.351,0,0,1,.351.351V6.989H14.66a0.351,0.351,0,0,1,.351.35v3.313A0.351,0.351,0,0,1,14.66,11H12.007v4.623a1.347,1.347,0,0,0,1.317,1.5,4.12,4.12,0,0,0,1.138-.117,0.76,0.76,0,0,1,.448-0.079,0.372,0.372,0,0,1,.259.277l0.774,2.137A0.493,0.493,0,0,1,15.931,19.861Z"/></svg>