<svg xmlns="http://www.w3.org/2000/svg" width="22" height="22" viewBox="0 0 22 22"><path d="M21.078,4.971a8.855,8.855,0,0,1-2.521.683,4.364,4.364,0,0,0,1.929-2.4A8.864,8.864,0,0,1,17.7,4.307a4.4,4.4,0,0,0-7.593,2.967,4.247,4.247,0,0,0,.115.989A12.512,12.512,0,0,1,1.172,3.731,4.272,4.272,0,0,0,.578,5.912,4.323,4.323,0,0,0,2.53,9.522,4.4,4.4,0,0,1,.542,8.979V9.034a4.355,4.355,0,0,0,3.52,4.254,4.46,4.46,0,0,1-1.982.074,4.342,4.342,0,0,0,4.1,2.958A8.931,8.931,0,0,1,.729,18.232a9.13,9.13,0,0,1-1.047-.06,12.491,12.491,0,0,0,6.729,1.893A12.282,12.282,0,0,0,18.9,7.777c0-.188,0-0.375-0.014-0.561a8.889,8.889,0,0,0,2.191-2.245h0Z"/></svg>
