<svg xmlns="http://www.w3.org/2000/svg" width="192" height="92" viewBox="0 0 192 92"><path id="_" data-name="#" class="cls-1" d="M0,46H70v0.938H0V46Zm120,0h70v0.938H120V46ZM96,27A20,20,0,1,1,76,47,20,20,0,0,1,96,27Zm0,1.709A18.291,18.291,0,1,1,77.709,47,18.291,18.291,0,0,1,96,28.708Zm-1.733,20.7q-0.483-.711-1.162-1.67t-0.959-1.365q0.152-.241.838-1.238t1.289-1.892q0.6-.9.768-1.187H92.718L90.952,44.85l-1.765-2.794H86.838q0.406,0.661.883,1.378t1.079,1.6q0.6,0.883.921,1.353l-0.749,1.067q-0.508.724-.806,1.156t-0.711,1.054q-0.413.622-.743,1.143h2.311l1.9-2.883,1.892,2.883h2.349Q94.749,50.12,94.267,49.409Zm10.755-3a4.565,4.565,0,1,0-9.13.013v0.013a4.566,4.566,0,1,0,9.13-.013V46.412Zm-2.774,1.937a2.457,2.457,0,0,1-3.575-.006,2.789,2.789,0,0,1-.686-1.917V46.412a2.738,2.738,0,0,1,.679-1.892,2.457,2.457,0,0,1,3.581.025A3,3,0,0,1,102.248,48.349Zm85.415-32.358h-4.009l-4.677-6.83-1.755,1.911v4.919H174.01V0.015h3.212V6.977l6.3-6.963h4.03l-6.325,6.808Zm-28.451.052a7.148,7.148,0,0,1-5.469-2.276,8.06,8.06,0,0,1-2.127-5.728V8.016a8.037,8.037,0,0,1,2.137-5.728A7.737,7.737,0,0,1,164.7,2.277a8.022,8.022,0,0,1,2.127,5.717V8.016a8.08,8.08,0,0,1-2.137,5.739A7.167,7.167,0,0,1,159.212,16.043ZM162.4,4.6a4.363,4.363,0,0,0-6.387-.046,4.936,4.936,0,0,0-1.212,3.4V7.973a5.021,5.021,0,0,0,1.223,3.442,4.361,4.361,0,0,0,6.376.011A5.01,5.01,0,0,0,163.608,8,5.043,5.043,0,0,0,162.4,4.6ZM136.81,16.043a7.151,7.151,0,0,1-5.469-2.276,8.064,8.064,0,0,1-2.126-5.728V8.016a8.037,8.037,0,0,1,2.137-5.728A7.737,7.737,0,0,1,142.3,2.277a8.025,8.025,0,0,1,2.126,5.717V8.016a8.076,8.076,0,0,1-2.137,5.739A7.165,7.165,0,0,1,136.81,16.043ZM140,4.6a4.364,4.364,0,0,0-6.388-.046,4.936,4.936,0,0,0-1.212,3.4V7.973a5.022,5.022,0,0,0,1.224,3.442,4.361,4.361,0,0,0,6.376.011A5.015,5.015,0,0,0,141.207,8,5.048,5.048,0,0,0,140,4.6ZM119.713,16.016L116,11.194h-2.785v4.822h-3.2V0.01h6.969A6.256,6.256,0,0,1,121.3,1.417a5.012,5.012,0,0,1,1.525,3.876V5.338a4.863,4.863,0,0,1-3.267,4.962l4.074,5.716h-3.92Zm-0.1-10.384V5.584a2.195,2.195,0,0,0-.73-1.785,3.071,3.071,0,0,0-2.03-.611h-3.641V8h3.709a2.845,2.845,0,0,0,1.974-.647A2.206,2.206,0,0,0,119.613,5.633ZM97.15,15.941H90.011V-0.012h6.746a6.251,6.251,0,0,1,3.815,1.065,3.625,3.625,0,0,1,1.433,3.1,4.031,4.031,0,0,1-.562,2.073,3.571,3.571,0,0,1-1.494,1.4,4.083,4.083,0,0,1,2.846,3.89v0.023a3.8,3.8,0,0,1-1.522,3.311A6.956,6.956,0,0,1,97.15,15.941ZM96.724,3.185H93.2V6.379h3.431q2.183,0,2.183-1.621C98.819,3.693,98.12,3.185,96.724,3.185Zm2.3,6.833A2.627,2.627,0,0,0,97.426,9.6H93.2V12.77h4.243q2.138,0,2.138-1.576A1.384,1.384,0,0,0,99.02,10.018ZM78,16.007H74.8V3.205H70v-3.2h12.8v3.2H78v12.8ZM57.1,16.018a9.354,9.354,0,0,1-5.536-1.732l0.889-2.974a6.14,6.14,0,0,0,2.183,1.1,9.006,9.006,0,0,0,2.549.383,2.956,2.956,0,0,0,1.57-.372,1.166,1.166,0,0,0,.6-1.047,1.124,1.124,0,0,0-.645-1.047,11.466,11.466,0,0,0-2.237-.777,15.926,15.926,0,0,1-1.99-.664,7.709,7.709,0,0,1-1.495-.855,3.077,3.077,0,0,1-1.065-1.329,4.921,4.921,0,0,1-.333-1.9V4.782a4.291,4.291,0,0,1,1.581-3.558A6.3,6.3,0,0,1,57.227-.037,8.026,8.026,0,0,1,62.021,1.4L61.336,4.489a8.077,8.077,0,0,0-4.281-1.283,2.36,2.36,0,0,0-1.484.405,1.165,1.165,0,0,0-.516.924,1.218,1.218,0,0,0,.054.371,0.956,0.956,0,0,0,.172.315,2.026,2.026,0,0,0,.247.259,1.618,1.618,0,0,0,.366.225q0.237,0.113.42,0.191a4.023,4.023,0,0,0,.505.169q0.323,0.09.538,0.157t0.592,0.169q0.376,0.1.613,0.169a7,7,0,0,1,3.184,1.633A3.931,3.931,0,0,1,62.82,11.11v0.022a4.364,4.364,0,0,1-1.581,3.625A6.44,6.44,0,0,1,57.1,16.018Zm-23.9-.011v-16H44.4v3.2h-8v3.2h7.2v3.2H36.4v3.2h8v3.2H33.2ZM18,16l-0.01-.019-4-7.9,0-.007L9.99,16,2.011,0H5.339L9.99,9.348l2.361-4.582L9.957,0H26.014L18.011,16H18ZM14.828,3.187l3.179,6.148,3.139-6.148H14.828ZM8.033,86.26A3.478,3.478,0,0,0,6.369,85.3a2.856,2.856,0,0,0,1.312-.944,2.5,2.5,0,0,0,.512-1.584,2.413,2.413,0,0,0-.992-2.08,4.4,4.4,0,0,0-2.64-.72h-4.5V90.964H4.657a5,5,0,0,0,2.912-.76,2.565,2.565,0,0,0,1.088-2.248A2.4,2.4,0,0,0,8.033,86.26ZM6.2,84.356a2.9,2.9,0,0,1-1.736.48H1.393v-3.68H4.481a2.988,2.988,0,0,1,1.752.448,1.539,1.539,0,0,1,.632,1.344A1.627,1.627,0,0,1,6.2,84.356ZM6.593,89.3a3.594,3.594,0,0,1-1.984.48H1.393V85.972H4.625a3.56,3.56,0,0,1,1.968.48,1.561,1.561,0,0,1,.736,1.392A1.62,1.62,0,0,1,6.593,89.3Zm9.584-9.36L11.969,89.989l-0.432.976h1.392l1.2-2.832h5.536l1.184,2.832h1.424L17.649,79.94H16.177Zm-1.616,7.04L16.9,81.4l2.336,5.584H14.561Zm17.04-.512A4.026,4.026,0,0,0,33.809,85.4a3.159,3.159,0,0,0-.272-4.536,4.532,4.532,0,0,0-2.944-.9H25.777V90.964h1.264V86.692h3.2l3.248,4.272h1.552Zm0.96-1.5a3.346,3.346,0,0,1-2.08.608h-3.44V81.125H30.5a3.407,3.407,0,0,1,2.112.576,1.9,1.9,0,0,1,.752,1.6A1.978,1.978,0,0,1,32.561,84.965Zm14.656-4.992H45.9v8.769l-6.368-8.769H38.209V90.964h1.312v-8.88l6.464,8.88h1.232V79.972Zm12.224,9.792H53.089V86H58.9V84.821H53.089V81.173h6.3v-1.2H51.745V90.964h7.7v-1.2Zm13.072-9.792H70.977l-3.52,5.376-3.5-5.376H62.369l4.4,6.608v4.384h1.36V86.581Zm5.1,1.52a2.81,2.81,0,0,1,1.688-.48,5.049,5.049,0,0,1,3.264,1.136q0.128-.319.416-1.184A5.8,5.8,0,0,0,79.36,79.8a4.3,4.3,0,0,0-2.712.824,2.69,2.69,0,0,0-1.064,2.248,2.824,2.824,0,0,0,.272,1.279,2.354,2.354,0,0,0,.848.92,6.174,6.174,0,0,0,1.248.624,13.082,13.082,0,0,0,1.7.472,4.41,4.41,0,0,1,1.8.72,1.466,1.466,0,0,1,.552,1.2,1.546,1.546,0,0,1-.72,1.352,3.122,3.122,0,0,1-1.792.488,5.684,5.684,0,0,1-3.68-1.28L75.376,89.8a6.532,6.532,0,0,0,4.048,1.344,4.562,4.562,0,0,0,2.816-.84,2.731,2.731,0,0,0,1.12-2.312,2.5,2.5,0,0,0-.928-2.04,6.078,6.078,0,0,0-2.656-1.112,6.136,6.136,0,0,1-2.136-.752,1.473,1.473,0,0,1-.7-1.3A1.518,1.518,0,0,1,77.608,81.493Zm24.664-1.52H100.96v8.769l-6.368-8.769H93.264V90.964h1.312v-8.88l6.464,8.88h1.232V79.972ZM114.5,89.764h-6.352V86h5.808V84.821h-5.808V81.173h6.3v-1.2H106.8V90.964h7.7v-1.2Zm4.56-9.792h-1.424q0.992,2.992,3.456,11.024h1.344l2.72-9.04,2.7,9.04H129.2l3.456-11.024h-1.392l-2.736,9.12-2.688-9.136h-1.36l-2.688,9.136Zm32.368,0h-1.536l-3.521,5.376-3.5-5.376H141.28l4.4,6.608v4.384h1.36V86.581Zm8.3-.192a4.99,4.99,0,0,0-3.9,1.624,5.832,5.832,0,0,0-1.464,4.056,5.891,5.891,0,0,0,1.464,4.072,5.41,5.41,0,0,0,7.768-.008,5.9,5.9,0,0,0,1.472-4.08,5.82,5.82,0,0,0-1.456-4.048A4.974,4.974,0,0,0,159.727,79.781Zm0,10.144a3.6,3.6,0,0,1-2.9-1.28,4.792,4.792,0,0,1-1.08-3.2,4.724,4.724,0,0,1,1.072-3.176,3.949,3.949,0,0,1,5.784.008,4.729,4.729,0,0,1,1.08,3.184,4.782,4.782,0,0,1-1.072,3.192,3.571,3.571,0,0,1-2.88,1.272h0Zm14.848-3.456a4.024,4.024,0,0,0,2.208-1.064,3.159,3.159,0,0,0-.272-4.536,4.531,4.531,0,0,0-2.944-.9h-4.816V90.964h1.264V86.692h3.2l3.248,4.272h1.552Zm0.96-1.5a3.346,3.346,0,0,1-2.08.608h-3.44V81.125h3.456a3.4,3.4,0,0,1,2.112.576,1.9,1.9,0,0,1,.752,1.6A1.978,1.978,0,0,1,175.535,84.965Zm14.544-4.992h-1.632l-6.432,6.56v-6.56h-1.264V90.964h1.264V88l2.384-2.368,4.3,5.328h1.584l-5.008-6.192Z"/></svg>