<?xml version="1.0" encoding="UTF-8"?>
<svg width="125px" height="35px" viewBox="0 0 125 35" version="1.1" xmlns="http://www.w3.org/2000/svg" xmlns:xlink="http://www.w3.org/1999/xlink">
    <!-- Generator: Sketch 50.2 (55047) - http://www.bohemiancoding.com/sketch -->
    <title>Sweet_Logo_Horizontal_RGB</title>
    <desc>Created with Sketch.</desc>
    <defs>
        <polygon id="path-1" points="0.0531914894 0.586923077 124.304078 0.586923077 124.304078 34.1025641 0.0531914894 34.1025641"></polygon>
    </defs>
    <g id="Symbols" stroke="none" stroke-width="1" fill="none" fill-rule="evenodd">
        <g id="Desktop/Header/signuppanel" transform="translate(-16.000000, -46.000000)">
            <g id="Sweet_Logo_Horizontal_RGB" transform="translate(16.000000, 46.000000)">
                <mask id="mask-2" fill="white">
                    <use xlink:href="#path-1"></use>
                </mask>
                <g id="Clip-2"></g>
                <path d="M98.4503546,30.2570513 C98.2765957,30.3073077 98.0992908,30.3414103 97.9193262,30.3611538 C97.7393617,30.3791026 97.5611702,30.3889744 97.3874113,30.3889744 C97.0514184,30.3889744 96.7774823,30.2983333 96.5656028,30.1152564 C96.3546099,29.9330769 96.2491135,29.5839744 96.2491135,29.0670513 L96.2491135,24.514359 L98.4875887,24.514359 L98.4875887,22.4547436 L96.2491135,22.4547436 L96.2491135,19.8297436 L93.6365248,19.8297436 L93.6365248,22.4547436 L92.106383,22.4547436 L92.106383,24.514359 L95.3617021,24.514359 L93.6365248,26.2616667 L93.6365248,29.1235897 C93.6365248,30.345 93.8945035,31.2146154 94.4113475,31.730641 C94.927305,32.2466667 95.7198582,32.5051282 96.7898936,32.5051282 C97.1010638,32.5051282 97.427305,32.4826923 97.7703901,32.4387179 C98.1125887,32.3947436 98.462766,32.3166667 98.8235816,32.2035897 L98.4503546,30.2570513 Z M70.4184397,30.2570513 C70.2446809,30.3073077 70.0673759,30.3414103 69.8874113,30.3611538 C69.7065603,30.3791026 69.5283688,30.3889744 69.3546099,30.3889744 C69.018617,30.3889744 68.7455674,30.2983333 68.5336879,30.1152564 C68.3218085,29.9330769 68.2163121,29.5839744 68.2163121,29.0670513 L68.2163121,24.514359 L70.4556738,24.514359 L70.4556738,22.4547436 L68.2163121,22.4547436 L68.2163121,19.8297436 L65.6046099,19.8297436 L65.6046099,22.4547436 L64.0735816,22.4547436 L64.0735816,24.514359 L67.3297872,24.514359 L65.6046099,26.2616667 L65.6046099,29.1235897 C65.6046099,30.345 65.8625887,31.2146154 66.3785461,31.730641 C66.8953901,32.2466667 67.6879433,32.5051282 68.7579787,32.5051282 C69.0691489,32.5051282 69.3953901,32.4826923 69.7375887,32.4387179 C70.0789007,32.3947436 70.4308511,32.3166667 70.7916667,32.2035897 L70.4184397,30.2570513 Z M115.47695,22.4547436 L118.015957,22.4547436 L118.015957,23.8152564 C118.400709,23.2355128 118.858156,22.8146154 119.387411,22.5498718 C119.914894,22.2851282 120.465426,22.1523077 121.038121,22.1523077 C122.14539,22.1523077 122.967199,22.4466667 123.501773,23.0317949 C124.036348,23.6169231 124.304078,24.5403846 124.304078,25.7994872 L124.304078,32.3166667 L121.691489,32.3166667 L121.691489,26.1575641 C121.691489,25.465641 121.56117,24.9926923 121.299645,24.7405128 C121.038121,24.4892308 120.689716,24.3626923 120.254433,24.3626923 C119.91844,24.3626923 119.629433,24.4138462 119.387411,24.514359 C119.144504,24.6157692 118.916667,24.7602564 118.705674,24.9487179 C118.531915,25.1255128 118.385638,25.3355128 118.26773,25.5823077 C118.148936,25.8273077 118.090426,26.0947436 118.090426,26.3846154 L118.090426,32.3166667 L115.47695,32.3166667 L115.47695,22.4547436 Z M109.075355,30.5029487 C109.821809,30.5029487 110.37766,30.2319231 110.745567,29.6907692 C111.112589,29.1487179 111.296099,28.3742308 111.296099,27.3673077 C111.296099,26.3594872 111.112589,25.5903846 110.745567,25.0626923 C110.37766,24.5332051 109.821809,24.269359 109.075355,24.269359 C108.328901,24.269359 107.771277,24.5332051 107.405142,25.0626923 C107.038121,25.5903846 106.85461,26.3594872 106.85461,27.3673077 C106.85461,28.3876923 107.034574,29.1648718 107.39539,29.700641 C107.756206,30.2346154 108.315603,30.5029487 109.075355,30.5029487 Z M109.075355,32.6191026 C107.507092,32.6191026 106.294326,32.165 105.43617,31.2585897 C104.578014,30.3512821 104.148936,29.0544872 104.148936,27.3673077 C104.148936,26.5614103 104.263298,25.8335897 104.493794,25.1847436 C104.724291,24.5367949 105.054078,23.9884615 105.483156,23.5415385 C105.911348,23.0946154 106.430851,22.7508974 107.04078,22.5121795 C107.649823,22.2725641 108.328901,22.1523077 109.075355,22.1523077 C109.833333,22.1523077 110.518617,22.2725641 111.12766,22.5121795 C111.737589,22.7508974 112.257092,23.0946154 112.68617,23.5415385 C113.115248,23.9884615 113.442376,24.5367949 113.66578,25.1847436 C113.889184,25.8335897 114.000887,26.5614103 114.000887,27.3673077 C114.000887,28.1857692 113.886525,28.9189744 113.656915,29.5678205 C113.426418,30.2166667 113.096631,30.7667949 112.667553,31.2208974 C112.237589,31.6741026 111.718085,32.0205128 111.109043,32.2592308 C110.499113,32.4988462 109.821809,32.6191026 109.075355,32.6191026 Z M100.053191,32.3157692 L102.664894,32.3157692 L102.664894,22.4547436 L100.053191,22.4547436 L100.053191,32.3157692 Z M100.015957,21.2082051 L102.702128,21.2082051 L102.702128,18.8282051 L100.015957,18.8282051 L100.015957,21.2082051 Z M91.2092199,28.7457692 C91.1099291,29.9294872 90.7083333,30.8708974 90.0062057,31.57 C89.3031915,32.2691026 88.2491135,32.6191026 86.8430851,32.6191026 C86.0221631,32.6191026 85.3129433,32.4925641 84.7154255,32.2412821 C84.1179078,31.9882051 83.6303191,31.6364103 83.2508865,31.1832051 C82.8705674,30.7291026 82.5886525,30.1816667 82.4015957,29.5391026 C82.2154255,28.8965385 82.1214539,28.1857692 82.1214539,27.405 C82.1214539,26.6242308 82.2296099,25.9089744 82.4485816,25.2601282 C82.6657801,24.6121795 82.9796099,24.0575641 83.3909574,23.5980769 C83.8014184,23.1385897 84.3049645,22.7832051 84.9015957,22.5310256 C85.4991135,22.2788462 86.1826241,22.1523077 86.9556738,22.1523077 C87.6143617,22.1523077 88.1888298,22.2375641 88.6808511,22.4080769 C89.1728723,22.5776923 89.5859929,22.8146154 89.9219858,23.1170513 C90.2579787,23.4194872 90.518617,23.7811538 90.7056738,24.2029487 C90.8927305,24.6247436 91.016844,25.0878205 91.0789007,25.5903846 L88.447695,25.9502564 C88.3856383,25.4458974 88.2429078,25.0402564 88.018617,24.7315385 C87.7943262,24.4237179 87.4086879,24.269359 86.8617021,24.269359 C86.4636525,24.269359 86.1338652,24.3546154 85.8723404,24.5242308 C85.6117021,24.6938462 85.4033688,24.9235897 85.2473404,25.2134615 C85.0913121,25.5033333 84.983156,25.8335897 84.9210993,26.2051282 C84.858156,26.5766667 84.8271277,26.964359 84.8271277,27.3673077 C84.8271277,27.7828205 84.858156,28.1785897 84.9210993,28.5573077 C84.983156,28.9351282 85.0886525,29.2689744 85.2375887,29.5579487 C85.3874113,29.8487179 85.5921986,30.0775641 85.8537234,30.2480769 C86.1152482,30.4176923 86.4441489,30.5029487 86.8430851,30.5029487 C87.3661348,30.5029487 87.7695035,30.3512821 88.0558511,30.0488462 C88.3421986,29.7464103 88.5097518,29.3129487 88.5593972,28.7457692 L91.2092199,28.7457692 Z M78.1870567,26.2903846 C78.1870567,25.6101282 78.0221631,25.080641 77.6923759,24.7028205 C77.3625887,24.325 76.8492908,24.1365385 76.1533688,24.1365385 C75.804078,24.1365385 75.5,24.1930769 75.2393617,24.3070513 C74.9778369,24.4201282 74.7562057,24.5744872 74.5762411,24.7701282 C74.3962766,24.9648718 74.2553191,25.1910256 74.1560284,25.4494872 C74.0567376,25.7070513 74.0008865,25.9879487 73.9884752,26.2903846 L78.1870567,26.2903846 Z M80.5948582,29.2366667 C80.4202128,30.345 79.981383,31.1858974 79.2783688,31.759359 C78.5753546,32.3319231 77.552305,32.6191026 76.2092199,32.6191026 C74.5913121,32.6191026 73.375,32.165 72.5602837,31.2585897 C71.7455674,30.3512821 71.3386525,29.0670513 71.3386525,27.405 C71.3386525,26.5730769 71.4565603,25.8335897 71.6932624,25.1847436 C71.929078,24.5367949 72.2624113,23.9848718 72.6914894,23.5325641 C73.1205674,23.079359 73.6338652,22.735641 74.231383,22.5023077 C74.8280142,22.2689744 75.4875887,22.1523077 76.2092199,22.1523077 C77.7021277,22.1523077 78.8244681,22.5875641 79.5771277,23.4571795 C80.3297872,24.325 80.7065603,25.4970513 80.7065603,26.970641 L80.7065603,28.0278205 L73.9512411,28.0278205 C73.9760638,28.8211538 74.1755319,29.4412821 74.5478723,29.8891026 C74.9210993,30.3360256 75.481383,30.5594872 76.2278369,30.5594872 C77.2606383,30.5594872 77.8696809,30.1179487 78.0558511,29.2366667 L80.5948582,29.2366667 Z M58.4875887,30.5029487 C59.2340426,30.5029487 59.7907801,30.2319231 60.1578014,29.6907692 C60.5248227,29.1487179 60.7083333,28.3742308 60.7083333,27.3673077 C60.7083333,26.3594872 60.5248227,25.5903846 60.1578014,25.0626923 C59.7907801,24.5332051 59.2340426,24.269359 58.4875887,24.269359 C57.7411348,24.269359 57.1843972,24.5332051 56.8173759,25.0626923 C56.4503546,25.5903846 56.266844,26.3594872 56.266844,27.3673077 C56.266844,28.3876923 56.4468085,29.1648718 56.8085106,29.700641 C57.1693262,30.2346154 57.7287234,30.5029487 58.4875887,30.5029487 Z M58.4875887,32.6191026 C56.9210993,32.6191026 55.7065603,32.165 54.8492908,31.2585897 C53.9902482,30.3512821 53.5620567,29.0544872 53.5620567,27.3673077 C53.5620567,26.5614103 53.6764184,25.8335897 53.9060284,25.1847436 C54.1365248,24.5367949 54.4663121,23.9884615 54.8953901,23.5415385 C55.3253546,23.0946154 55.8439716,22.7508974 56.4539007,22.5121795 C57.0638298,22.2725641 57.7411348,22.1523077 58.4875887,22.1523077 C59.2464539,22.1523077 59.9308511,22.2725641 60.5407801,22.5121795 C61.1498227,22.7508974 61.6693262,23.0946154 62.0984043,23.5415385 C62.5283688,23.9884615 62.8546099,24.5367949 63.0789007,25.1847436 C63.302305,25.8335897 63.4148936,26.5614103 63.4148936,27.3673077 C63.4148936,28.1857692 63.2996454,28.9189744 63.0691489,29.5678205 C62.8386525,30.2166667 62.5088652,30.7667949 62.0797872,31.2208974 C61.6515957,31.6741026 61.1312057,32.0205128 60.5221631,32.2592308 C59.912234,32.4988462 59.2340426,32.6191026 58.4875887,32.6191026 Z M46.8962766,22.4547436 L49.4335106,22.4547436 L49.4335106,23.8341026 C49.7579787,23.3180769 50.1489362,22.9312821 50.6090426,22.6719231 C51.0700355,22.414359 51.5549645,22.2851282 52.0647163,22.2851282 C52.3138298,22.2851282 52.5195035,22.295 52.6808511,22.3138462 C52.8421986,22.3326923 52.9858156,22.3542308 53.1108156,22.379359 L52.7925532,24.7791026 C52.4946809,24.7028205 52.126773,24.6651282 51.6914894,24.6651282 C51.4060284,24.6651282 51.1320922,24.7001282 50.8705674,24.7701282 C50.6090426,24.8392308 50.373227,24.9675641 50.162234,25.1569231 C49.9379433,25.3588462 49.7730496,25.585 49.6675532,25.8371795 C49.5611702,26.0884615 49.5079787,26.3469231 49.5079787,26.6107692 L49.5079787,32.3166667 L46.8962766,32.3166667 L46.8962766,22.4547436 Z M38.733156,21.965641 L40.5301418,21.965641 C40.9742908,21.965641 41.3457447,22.0060256 41.6356383,22.0867949 C41.9237589,22.1666667 42.1542553,22.2824359 42.322695,22.4296154 C42.4893617,22.5758974 42.608156,22.7589744 42.6746454,22.9725641 C42.7420213,23.190641 42.7774823,23.4455128 42.7774823,23.7317949 C42.7774823,24.0073077 42.7446809,24.2657692 42.6826241,24.5026923 C42.6223404,24.7333333 42.5062057,24.9307692 42.3386525,25.0887179 C42.1710993,25.2475641 41.9397163,25.3741026 41.6524823,25.465641 C41.3643617,25.5571795 40.9920213,25.6038462 40.5478723,25.6038462 L38.733156,25.6038462 L38.733156,21.965641 Z M45.1764184,22.1882051 C45.0310284,21.7116667 44.7721631,21.2889744 44.4051418,20.9291026 C44.0398936,20.5719231 43.5407801,20.279359 42.9210993,20.0621795 C42.302305,19.8467949 41.5097518,19.7364103 40.5647163,19.7364103 L36.1161348,19.7364103 L36.1161348,32.3166667 L38.733156,32.3166667 L38.733156,27.8501282 L40.6347518,27.8501282 C41.5576241,27.8501282 42.3333333,27.7379487 42.9388298,27.5153846 C43.5469858,27.2928205 44.0398936,26.9858974 44.4060284,26.6035897 C44.7721631,26.2230769 45.0310284,25.7725641 45.1764184,25.2664103 C45.320922,24.7629487 45.3945035,24.2289744 45.3945035,23.6797436 C45.3945035,23.1646154 45.320922,22.6638462 45.1764184,22.1882051 Z M88.5780142,12.8441026 C88.4024823,12.894359 88.2260638,12.929359 88.0452128,12.9482051 C87.8652482,12.9670513 87.6879433,12.9769231 87.5132979,12.9769231 C87.1781915,12.9769231 86.9042553,12.8853846 86.6932624,12.7032051 C86.4804965,12.5201282 86.375,12.1710256 86.375,11.6541026 L86.375,7.10141026 L88.6152482,7.10141026 L88.6152482,5.04269231 L86.375,5.04269231 L86.375,2.41679487 L83.7632979,2.41679487 L83.7632979,5.04269231 L82.2322695,5.04269231 L82.2322695,7.10141026 L85.4884752,7.10141026 L83.7632979,8.84871795 L83.7632979,11.710641 C83.7632979,12.9320513 84.0212766,13.8016667 84.537234,14.3176923 C85.0531915,14.8346154 85.8466312,15.0921795 86.9166667,15.0921795 C87.2269504,15.0921795 87.554078,15.0697436 87.8962766,15.0257692 C88.2384752,14.9817949 88.589539,14.9037179 88.9512411,14.7897436 L88.5780142,12.8441026 Z M78.8962766,8.8774359 C78.8962766,8.19717949 78.731383,7.66858974 78.4015957,7.29076923 C78.0718085,6.91294872 77.5585106,6.72358974 76.8625887,6.72358974 C76.5132979,6.72358974 76.2092199,6.78102564 75.9485816,6.89410256 C75.6870567,7.00717949 75.4663121,7.16153846 75.2863475,7.35717949 C75.1046099,7.55192308 74.964539,7.77897436 74.8661348,8.03653846 C74.7659574,8.295 74.7101064,8.575 74.697695,8.8774359 L78.8962766,8.8774359 Z M81.304078,11.8246154 C81.1294326,12.9320513 80.6906028,13.7729487 79.9875887,14.3464103 C79.2845745,14.9189744 78.2615248,15.2061538 76.9184397,15.2061538 C75.3005319,15.2061538 74.0851064,14.7520513 73.2703901,13.845641 C72.4547872,12.9383333 72.0478723,11.6541026 72.0478723,9.99205128 C72.0478723,9.16102564 72.1657801,8.42153846 72.4024823,7.77269231 C72.6382979,7.12384615 72.9716312,6.57282051 73.4015957,6.11961538 C73.8297872,5.66551282 74.3430851,5.32358974 74.9406028,5.09025641 C75.5381206,4.85692308 76.1968085,4.74025641 76.9184397,4.74025641 C78.4113475,4.74025641 79.5336879,5.17461538 80.2863475,6.04423077 C81.0390071,6.91294872 81.4157801,8.08410256 81.4157801,9.55769231 L81.4157801,10.6148718 L74.6595745,10.6148718 C74.6852837,11.4091026 74.8838652,12.0292308 75.2570922,12.4761538 C75.6303191,12.9230769 76.1906028,13.1465385 76.9370567,13.1465385 C77.9698582,13.1465385 78.5789007,12.7058974 78.7650709,11.8246154 L81.304078,11.8246154 Z M68.2056738,8.8774359 C68.2056738,8.19717949 68.0407801,7.66858974 67.7118794,7.29076923 C67.3812057,6.91294872 66.8679078,6.72358974 66.1710993,6.72358974 C65.8235816,6.72358974 65.518617,6.78102564 65.2570922,6.89410256 C64.9964539,7.00717949 64.7748227,7.16153846 64.5948582,7.35717949 C64.4148936,7.55192308 64.2748227,7.77897436 64.1746454,8.03653846 C64.0753546,8.295 64.0195035,8.575 64.0070922,8.8774359 L68.2056738,8.8774359 Z M70.6125887,11.8246154 C70.4388298,12.9320513 70.0008865,13.7729487 69.2978723,14.3464103 C68.5948582,14.9189744 67.570922,15.2061538 66.2278369,15.2061538 C64.6099291,15.2061538 63.393617,14.7520513 62.5789007,13.845641 C61.7650709,12.9383333 61.3572695,11.6541026 61.3572695,9.99205128 C61.3572695,9.16102564 61.4751773,8.42153846 61.7118794,7.77269231 C61.9485816,7.12384615 62.2810284,6.57282051 62.7101064,6.11961538 C63.1391844,5.66551282 63.6524823,5.32358974 64.2491135,5.09025641 C64.8466312,4.85692308 65.5062057,4.74025641 66.2278369,4.74025641 C67.7207447,4.74025641 68.8430851,5.17461538 69.5966312,6.04423077 C70.3484043,6.91294872 70.7251773,8.08410256 70.7251773,9.55769231 L70.7251773,10.6148718 L63.9698582,10.6148718 C63.9946809,11.4091026 64.1941489,12.0292308 64.5673759,12.4761538 C64.9406028,12.9230769 65.4991135,13.1465385 66.2464539,13.1465385 C67.2783688,13.1465385 67.8882979,12.7058974 68.0753546,11.8246154 L70.6125887,11.8246154 Z M46.7420213,5.04269231 L49.5780142,5.04269231 L50.9414894,11.5787179 L52.8067376,5.11807692 L55.0833333,5.11807692 L56.8554965,11.5787179 L58.2189716,5.04269231 L60.9432624,5.04269231 L58.1072695,14.9037179 L55.5682624,14.9037179 L53.8333333,8.40538462 L52.0789007,14.9037179 L49.5780142,14.9037179 L46.7420213,5.04269231 Z M44.9556738,8.7975641 C44.3306738,8.19448718 43.3351064,7.75294872 41.9964539,7.48371795 L40.3014184,7.15076923 C39.6870567,7.02423077 39.2473404,6.84474359 38.9946809,6.61589744 C38.7446809,6.39153846 38.6179078,6.04782051 38.6179078,5.59371795 C38.6179078,5.42410256 38.6515957,5.25897436 38.7180851,5.10012821 C38.7845745,4.94487179 38.9024823,4.80487179 39.0691489,4.68730769 C39.2367021,4.56794872 39.462766,4.47012821 39.7411348,4.39474359 C40.018617,4.32025641 40.3803191,4.2825641 40.8129433,4.2825641 C41.5381206,4.2825641 42.0859929,4.4324359 42.4414894,4.72948718 C42.7952128,5.02564103 43.0390071,5.51923077 43.1631206,6.19589744 L43.1702128,6.23089744 L45.6799645,5.90602564 L45.6755319,5.86923077 C45.6179078,5.3774359 45.498227,4.89730769 45.3191489,4.44141026 C45.1391844,3.98282051 44.8590426,3.57448718 44.4875887,3.22807692 C44.1161348,2.88166667 43.623227,2.59897436 43.0212766,2.38807692 C42.4202128,2.17807692 41.6595745,2.07038462 40.7606383,2.07038462 C40.0567376,2.07038462 39.4015957,2.15115385 38.8138298,2.30910256 C38.2242908,2.46615385 37.7109929,2.70128205 37.287234,3.00641026 C36.8634752,3.31153846 36.5283688,3.69923077 36.2898936,4.15782051 C36.052305,4.61551282 35.9317376,5.15217949 35.9317376,5.75166667 C35.9317376,6.34935897 36.018617,6.8725641 36.1932624,7.30602564 C36.3679078,7.74217949 36.6241135,8.11461538 36.9556738,8.41525641 C37.2863475,8.715 37.7012411,8.96179487 38.1870567,9.14935897 C38.6719858,9.33602564 39.2384752,9.49038462 39.8714539,9.60615385 L41.4804965,9.90320513 C42.1143617,10.030641 42.5558511,10.2352564 42.7907801,10.5125641 C43.0265957,10.7907692 43.1462766,11.0923077 43.1462766,11.4082051 C43.1462766,11.6361538 43.1090426,11.8488462 43.035461,12.0426923 C42.962766,12.2347436 42.8413121,12.4034615 42.6737589,12.5434615 C42.5062057,12.6861538 42.2836879,12.8010256 42.0124113,12.8871795 C41.7411348,12.9733333 41.4007092,13.0164103 41.0026596,13.0164103 C40.1728723,13.0164103 39.537234,12.8423077 39.1143617,12.4994872 C38.6914894,12.1575641 38.4494681,11.6011538 38.3927305,10.8446154 L38.3900709,10.8105128 L35.7047872,10.8105128 L35.7065603,10.8491026 C35.7757092,12.3253846 36.266844,13.4444872 37.1640071,14.1785897 C38.0602837,14.91 39.3696809,15.280641 41.054078,15.280641 C41.8617021,15.280641 42.5762411,15.1828205 43.1764184,14.9898718 C43.7774823,14.7969231 44.2863475,14.5232051 44.6861702,14.1776923 C45.0859929,13.8312821 45.391844,13.4202564 45.5948582,12.9553846 C45.7987589,12.4914103 45.9007092,11.9771795 45.9007092,11.4252564 C45.9007092,10.2882051 45.5833333,9.40333333 44.9556738,8.7975641 Z M25.2960993,14.7978205 C24.3067376,13.7962821 23.0106383,13.2955128 21.7136525,13.2955128 L10.2083333,13.2955128 C8.79787234,13.2955128 7.5212766,12.7166667 6.59751773,11.7815385 C5.84929078,11.0241026 5.56117021,9.97948718 5.73049645,9.00038462 L5.40425532,8.67012821 L1.48315603,12.6394872 C0.566489362,13.5674359 0,14.8498718 0,16.2660256 C0,19.0974359 2.2677305,21.3939744 5.06648936,21.3939744 L14.6312057,21.3939744 L7.59840426,28.2396154 L13.3900709,34.1025641 L24.6409574,22.7123077 C26.3280142,21.0053846 26.7783688,19.7058974 26.7783688,18.3462821 C26.7783688,16.8 26.0381206,15.5489744 25.2960993,14.7978205 Z M13.3900709,11.214359 L8.14007092,5.90064103 L13.3900709,0.586923077 L18.6391844,5.90064103 L13.3900709,11.214359 Z" id="Fill-1" fill="#000105" mask="url(#mask-2)"></path>
            </g>
        </g>
    </g>
</svg>