<svg xmlns="http://www.w3.org/2000/svg" viewBox="0 0 319.3 254.7"><path d="M42.8 121.6V0h10v121.6h-10zm50.3-3c-2.6 2.5-7.5 4-14.6 4s-11.9-1.4-14.6-4c-2.5-2.7-2.7-6.8-2.7-11V41.2c0-4.2.1-8.3 2.7-11 2.7-2.5 7.5-4 14.6-4s12 1.4 14.6 4c2.7 2.7 2.8 6.8 2.8 11v34.5H71.4v33.8c0 4 3.2 5.7 7.2 5.7 4.1 0 7.4-1.7 7.4-5.7V88.6h10v18.9c0 4.3-.2 8.4-2.9 11.1zM78.6 33.7c-4 0-7.2 1.7-7.2 5.8v28.7H86V39.4c-.1-4-3.3-5.7-7.4-5.7zm61 87.9h-10v-3.8c-4.8 5.4-12.3 5.5-17.2 4-4.9-1.6-7.4-4.2-7.4-13.6V82.3c0-9.3 5.5-14.1 13.4-14.1h11.2V39.4c0-4.1-3.2-5.7-7.2-5.7-4.1 0-7.4 1.6-7.4 5.7v14.1h-10V41.1c0-4.2.1-8.2 2.8-10.9 2.5-2.7 7.5-4 14.6-4s11.9 1.3 14.6 4c2.5 2.7 2.7 6.6 2.7 11v80.4zm-10.1-45.8h-7.3c-4 0-7.2 1.7-7.2 5.8v27.7c0 4.1 3.2 5.9 7.2 5.9 4.1 0 7.3-1.8 7.3-5.8V75.8zm43.3 45.8v-82c0-4.1-3.2-5.9-7.2-5.9-4.1 0-7.3 1.8-7.3 5.8v82.1h-10V27.3h10v3.8c4.8-5.4 12.4-5.5 17.2-4 5 1.6 7.5 4.2 7.5 13.6v80.9h-10.2zm-148.1 0V81.2c0-2.4-2-5.6-6.5-5.6h-8.1v45.9H.1V0h10v64.5l14.4-37.2h10.2l-16 40.8h2.9s5.6-.3 9.2 3.3c3.6 3.6 3.9 9.3 3.9 9.3v40.9h-10zM24.6 253.7v-40.3c0-2.4-2-5.6-6.5-5.6H10v45.9H0V132.2h10v64.5l14.4-37.2h10.2l-16 40.8h2.9s5.6-.3 9.2 3.3c3.6 3.6 3.9 9.3 3.9 9.3v40.9h-10zm52 0h-10v-3.8c-4.8 5.4-12.3 5.5-17.2 4-4.9-1.6-7.3-4.2-7.3-13.6v-25.8c0-9.3 5.5-14.1 13.4-14.1h11.2v-28.7c0-4.1-3.2-5.7-7.2-5.7-4.1 0-7.4 1.6-7.4 5.7v14.1H42v-12.4c0-4.2.1-8.2 2.8-10.9 2.5-2.7 7.5-4 14.6-4s11.9 1.3 14.6 4c2.6 2.7 2.7 6.6 2.7 11v80.2zm-10-45.8h-7.4c-4 0-7.2 1.7-7.2 5.8v27.7c0 4.1 3.3 5.9 7.2 5.9 4.1 0 7.4-1.8 7.4-5.8v-33.6zm42.5 45.8v-82c0-4.1-3.2-5.9-7.2-5.9-4.1 0-7.4 1.8-7.4 5.8v82.1h-10v-94.3h10v3.8c4.8-5.4 12.4-5.5 17.2-4 5 1.5 7.5 4.2 7.5 13.6v80.9h-10.1zm30.4-86.8v74.6c0 4.1 3.4 5.7 7.4 5.7h4.8v7.5h-4.8c-7.1 0-12-1.3-14.6-4-2.7-2.7-2.8-6.6-2.8-10.9v-72.9h-5.2v-7.5h5.2v-27.3h10v27.3h12.7v7.5h-12.7zm49.9 83.9c-2.5 2.5-7.5 4-14.6 4s-11.9-1.4-14.6-4c-2.5-2.7-2.7-6.8-2.7-11v-66.4c0-4.2.1-8.3 2.7-11 2.7-2.5 7.5-4 14.6-4s12 1.4 14.6 4c2.7 2.7 2.8 6.8 2.8 11v34.5h-24.6v33.8c0 4 3.3 5.7 7.2 5.7 4.1 0 7.3-1.7 7.3-5.7v-20.8h10v18.9c.2 4.2 0 8.3-2.7 11zm-14.5-85c-4 0-7.2 1.7-7.2 5.8v28.7h14.6v-28.7c-.1-4.1-3.3-5.8-7.4-5.8zm57.1 85c-2.5 2.5-7.5 4-14.6 4s-11.9-1.4-14.6-4c-2.5-2.7-2.7-6.8-2.7-11v-66.4c0-4.2.1-8.3 2.7-11 2.7-2.5 7.5-4 14.6-4s12 1.4 14.6 4c2.7 2.7 2.8 6.8 2.8 11v34.5h-24.6v33.8c0 4 3.2 5.7 7.2 5.7 4.1 0 7.4-1.7 7.4-5.7v-20.8h10v18.9c0 4.2-.1 8.3-2.8 11zm-14.6-85c-4 0-7.2 1.7-7.2 5.8v28.7h14.6v-28.7c0-4.1-3.3-5.8-7.4-5.8zm49.9 87.9v-82c0-4.1-3.2-5.9-7.2-5.9-4.1 0-7.3 1.8-7.3 5.8v82.1h-10v-94.3h10v3.8c4.8-5.4 12.4-5.5 17.2-4 4.9 1.5 7.5 4.2 7.5 13.6v80.9h-10.2zM287.8 161.7V178h-1.9v-16.3h-2.1v-1.4h6.1v1.4h-2.1zm12.6 16.3v-15.3l-3.1 15.3h-1.6l-3.1-15.3V178h-1.9v-17.7h3.3l2.5 12.6 2.5-12.6h3.3V178h-1.9zM222 27.5c-2.2 8.7-.6 17.1 6.3 26.6 5.5 7.6 11.6 11.7 19.3 14-1.9 6.6-1.8 15.6 10.4 21.3 8.2 3.8-15 35.3-7.8 35.3 7.1-22 31.9-14.4 34.9-38.1 2.4-19.3-26.7-36.3-35.8-21-13-8.7-3.8-24.9 3.5-24.9 5.1 0 10.2 9.9 7.8 1.8-2.9-10.3 13.6-21.1 9.7-27-3-.8 37.7.3 49 49.3-5.8-46.6-44.8-60.2-68-58.7-7.1.5-15.1 2.3-18.1 4.4-4.4 3-9 8.2-11.2 17zm-15.2 84c-31.7-38.7-6.7-79.2 4.3-87.6-8.7 12.3-22.6 38.4-10.8 62.3 0 0 15.8 1.4 23.4 10.8 7.6 9.3 7 32.1 7 32.1s-14.3-5.8-23.9-17.6z"/><path d="M298 34.5s-9.5 11.7-7.3 17.7c10.2 27.9 17.3 1.4 22.1 17.1 8.2 26.8-18.2 65.2-62.8 64.4 0 0 38.8 6 61.2-32.2 17.8-30.3-4-56.1-5.7-59.2-3.4-5.6-7.5-7.8-7.5-7.8z"/></svg>