<?xml version="1.0" encoding="utf-8"?>
<!-- Generator: Adobe Illustrator 19.2.1, SVG Export Plug-In . SVG Version: 6.00 Build 0)  -->
<svg version="1.1" id="Layer_1" xmlns="http://www.w3.org/2000/svg" xmlns:xlink="http://www.w3.org/1999/xlink" x="0px" y="0px"
	 viewBox="0 0 593.4 330" style="enable-background:new 0 0 593.4 330;" xml:space="preserve">
<style type="text/css">
	.st0{fill:#231F20;}
</style>
<title>Artboard 1</title>
<path class="st0" d="M36.1,289.4l-6.5,22c-0.2,0.8-0.6,1.7-1.5,1.8h-8.4c-0.9-0.1-1.1-1-1.5-1.8l-6.5-21.7v38.8
	c0,0.7-0.3,0.9-0.9,0.9h-10c-0.5,0-0.9-0.4-0.9-0.9c0,0,0,0,0,0v-77.7c0-0.5,0.3-0.9,0.8-0.9c0,0,0.1,0,0.1,0h9.7
	c1.2,0,1.4,0.9,1.6,1.6L24,291.9l11.8-40.4c0.2-0.7,0.3-1.6,1.7-1.6H47c0.5,0,0.9,0.3,0.9,0.8c0,0,0,0.1,0,0.1v77.7
	c0,0.5-0.4,0.9-0.9,0.9c0,0,0,0,0,0H37c-0.5,0-0.9-0.3-0.9-0.7c0-0.1,0-0.1,0-0.2L36.1,289.4z"/>
<path class="st0" d="M63.8,319.1v-58.6c0-7,3.1-11.1,11.5-11.1h11.6c8.4,0,11.5,4.1,11.5,11v58.5c0,7-2.5,11.1-11.4,11.1H75.5
	C66.4,330,63.8,325.9,63.8,319.1z M85.7,260.8h-9.3c-0.4,0-0.6,0.1-0.6,0.6v56.5c0,0.5,0.1,0.6,0.6,0.6h9.3c0.4,0,0.6-0.1,0.6-0.6
	v-56.6C86.3,260.9,86.2,260.8,85.7,260.8L85.7,260.8z"/>
<path class="st0" d="M126.4,318.5h9.3c0.4,0,0.6-0.1,0.6-0.6v-67.1c0-0.5,0.4-0.9,0.9-0.9c0,0,0,0,0,0h10.3c0.4,0,0.8,0.4,0.8,0.8
	c0,0,0,0.1,0,0.1v68c0,7-2.5,11.1-11.4,11.1h-11.5c-9.1,0-11.7-4.1-11.7-10.9v-68.2c0-0.5,0.3-0.9,0.8-0.9c0,0,0.1,0,0.1,0h10.2
	c0.5,0,0.9,0.3,0.9,0.8c0,0,0,0.1,0,0.1v67.1C125.8,318.4,125.9,318.5,126.4,318.5z"/>
<path class="st0" d="M188.3,329.4c-0.5,0-0.9-0.4-0.9-0.9c0,0,0,0,0,0l-10.7-37.8v37.9c0,0.7-0.3,0.9-0.9,0.9h-10
	c-0.5,0-0.9-0.4-0.9-0.9c0,0,0,0,0,0v-77.7c0-0.5,0.3-0.9,0.8-0.9c0,0,0.1,0,0.1,0H176c0.5,0,0.9,0.3,0.9,0.8c0,0,0,0.1,0,0.1
	l10.7,37.8v-37.8c0-0.5,0.3-0.9,0.8-0.9c0,0,0.1,0,0.1,0h10c0.5,0,0.9,0.4,0.9,0.9c0,0,0,0,0,0v77.7c0,0.5-0.3,0.9-0.7,0.9
	c-0.1,0-0.1,0-0.2,0L188.3,329.4z"/>
<path class="st0" d="M233,261.3v67.3c0,0.7-0.3,0.9-0.8,0.9h-10.3c-0.5,0-0.9-0.4-0.9-0.9v-67.3h-8.6c-0.4,0.1-0.8-0.3-0.9-0.7
	c0,0,0-0.1,0-0.1v-9.6c0-0.5,0.3-0.9,0.8-0.9c0,0,0.1,0,0.1,0h29.4c0.5,0,0.9,0.4,0.9,0.9c0,0,0,0,0,0v9.6c0,0.4-0.4,0.8-0.8,0.8
	c0,0-0.1,0-0.1,0H233z"/>
<path class="st0" d="M272.2,249.9c0.5,0,0.9,0.4,0.9,0.9c0,0,0,0,0,0l12.8,77.7c0,0.5-0.3,0.9-0.8,0.9c0,0-0.1,0-0.1,0h-10.7
	c-0.5,0-0.9-0.4-0.9-0.9c0,0,0,0,0,0l-2.6-19h-9.4l-2.8,19c0,0.5-0.3,0.9-0.8,0.9c0,0-0.1,0-0.1,0H247c-0.5,0-0.9-0.3-0.9-0.8
	c0,0,0-0.1,0-0.1l13.5-77.7c0-0.5,0.4-0.9,0.9-0.9c0,0,0,0,0,0L272.2,249.9z M263.1,298.2h6.2l-3-21.9L263.1,298.2z"/>
<path class="st0" d="M298.9,329.4c-0.5,0-0.9-0.4-0.9-0.9c0,0,0,0,0,0v-77.7c0-0.5,0.3-0.9,0.8-0.9c0,0,0.1,0,0.1,0h10.2
	c0.5,0,0.9,0.3,0.9,0.7c0,0.1,0,0.1,0,0.2v77.7c0,0.7-0.3,0.9-0.9,0.9L298.9,329.4z"/>
<path class="st0" d="M350.4,329.4c-0.5,0-0.9-0.4-0.9-0.9c0,0,0,0,0,0l-10.7-37.8v37.9c0,0.7-0.3,0.9-0.9,0.9h-10
	c-0.5,0-0.9-0.4-0.9-0.9c0,0,0,0,0,0v-77.7c0-0.5,0.3-0.9,0.8-0.9c0,0,0.1,0,0.1,0h10.2c0.5,0,0.9,0.3,0.9,0.7c0,0.1,0,0.1,0,0.2
	l10.7,37.8v-37.8c0-0.5,0.3-0.9,0.8-0.9c0,0,0.1,0,0.1,0h10c0.5,0,0.9,0.4,0.9,0.9c0,0,0,0,0,0v77.7c0,0.5-0.3,0.9-0.7,0.9
	c-0.1,0-0.1,0-0.2,0L350.4,329.4z"/>
<path class="st0" d="M376.9,260.5c0-7,3.1-11.1,11.5-11.1h11.6c8.4,0,11.5,4.1,11.5,11v10.6c0,0.6-0.3,0.8-0.9,0.8h-10.2
	c-0.4,0.1-0.8-0.3-0.9-0.7c0,0,0-0.1,0-0.1v-9.5c0-0.5-0.1-0.6-0.6-0.6h-9.3c-0.5,0-0.6,0.1-0.6,0.6v21.9c0,0.5,0.1,0.6,0.6,0.6
	h10.5c9,0,11.5,4.1,11.5,10.9v24.1c0,7-2.5,11.1-11.4,11.1h-11.5c-9.1,0-11.7-4.1-11.7-10.9v-11.7c0-0.6,0.3-0.8,0.9-0.8H388
	c0.4-0.1,0.8,0.3,0.9,0.7c0,0,0,0.1,0,0.1v10.6c0,0.5,0.1,0.6,0.6,0.6h9.3c0.5,0,0.6-0.1,0.6-0.6v-22c0-0.5-0.1-0.6-0.6-0.6h-10.4
	c-8.2,0-11.5-1.6-11.5-10.9V260.5z"/>
<path class="st0" d="M462.9,289.4l-6.5,22c-0.2,0.8-0.6,1.7-1.5,1.8h-8.4c-0.9-0.1-1.1-1-1.5-1.8l-6.5-21.7v38.8
	c0,0.7-0.3,0.9-0.9,0.9h-10c-0.5,0-0.9-0.4-0.9-0.9c0,0,0,0,0,0v-77.7c0-0.5,0.3-0.9,0.8-0.9c0,0,0.1,0,0.1,0h9.6
	c1.2,0,1.4,0.9,1.6,1.6l11.8,40.4l11.9-40.4c0.2-0.7,0.3-1.6,1.7-1.6h9.5c0.5,0,0.9,0.3,0.9,0.8c0,0,0,0.1,0,0.1v77.7
	c0,0.5-0.4,0.9-0.9,0.9c0,0,0,0,0,0h-10c-0.5,0-0.9-0.3-0.9-0.7c0-0.1,0-0.1,0-0.2L462.9,289.4z"/>
<path class="st0" d="M492.7,329.4c-0.5,0-0.9-0.4-0.9-0.9c0,0,0,0,0,0v-77.7c0-0.5,0.3-0.9,0.8-0.9c0,0,0.1,0,0.1,0h10.2
	c0.5,0,0.9,0.3,0.9,0.7c0,0.1,0,0.1,0,0.2v77.7c0,0.7-0.3,0.9-0.9,0.9L492.7,329.4z"/>
<path class="st0" d="M537.3,261.3v67.3c0,0.7-0.3,0.9-0.8,0.9h-10.3c-0.5,0-0.9-0.4-0.9-0.9v-67.3h-8.6c-0.4,0.1-0.8-0.3-0.9-0.7
	c0,0,0-0.1,0-0.1v-9.6c0-0.5,0.3-0.9,0.8-0.9c0,0,0.1,0,0.1,0h29.4c0.5,0,0.9,0.4,0.9,0.9c0,0,0,0,0,0v9.6c0,0.4-0.4,0.8-0.8,0.8
	c0,0-0.1,0-0.1,0H537.3z"/>
<path class="st0" d="M582.3,329.4c-0.5,0-0.9-0.4-0.9-0.9c0,0,0,0,0,0v-33.7h-10.4v33.8c0,0.7-0.3,0.9-0.9,0.9h-10.2
	c-0.5,0-0.9-0.4-0.9-0.9c0,0,0,0,0,0v-77.7c0-0.5,0.3-0.9,0.8-0.9c0,0,0.1,0,0.1,0H570c0.5,0,0.9,0.3,0.9,0.7c0,0.1,0,0.1,0,0.2
	v32.5h10.5v-32.5c0-0.5,0.3-0.9,0.7-0.9c0.1,0,0.1,0,0.2,0h10.2c0.5,0,0.9,0.3,0.9,0.7c0,0.1,0,0.1,0,0.2v77.7
	c0,0.7-0.3,0.9-0.9,0.9L582.3,329.4z"/>
<path class="st0" d="M512.4,29.7H398.8V0h-270v19.9h-38v22.6c0,7.3,2,15.9,9,19.1s21.6,3.5,40.2,9.2c0,0,47.6,9.5,47.6,70.6
	c0,9.9-2.1,21.1-27.2,28.9S138,203.4,138,203.4h283.2c0-25.7-15.1-30.4-21.5-33.2c-7.9-3.5-24.4-8.7-24.4-28.9
	C379.2,85.8,443,109.2,510,40.2C510,40.2,518.7,31,512.4,29.7z"/>
<path class="st0" d="M448.7,194.4c0.1,5.1-3.9,9.3-8.9,9.4c-5.1,0.1-9.3-3.9-9.4-8.9c-0.1-5.1,3.9-9.3,8.9-9.4c0.1,0,0.2,0,0.3,0
	C444.6,185.4,448.7,189.4,448.7,194.4C448.7,194.3,448.7,194.4,448.7,194.4z M432.7,194.4c-0.1,3.8,2.9,7,6.7,7.1c0.1,0,0.2,0,0.3,0
	c3.8,0,6.8-3.1,6.8-6.9c0-0.1,0-0.1,0-0.2c0.2-3.8-2.7-7.1-6.5-7.3c-3.8-0.2-7.1,2.7-7.3,6.5C432.8,193.9,432.8,194.2,432.7,194.4
	L432.7,194.4z M438.2,199.1h-2.1v-8.9c1.1-0.2,2.3-0.3,3.4-0.3c1.1-0.1,2.2,0.1,3.1,0.6c0.6,0.5,0.9,1.2,0.9,2c-0.1,1-0.9,1.8-1.9,2
	v0.1c0.9,0.4,1.5,1.2,1.6,2.2c0.1,0.8,0.3,1.5,0.7,2.2h-2.2c-0.3-0.7-0.6-1.4-0.7-2.2c-0.2-1-0.7-1.4-1.9-1.4h-1L438.2,199.1z
	 M438.3,194h1c1.1,0,2.1-0.4,2.1-1.3s-0.6-1.4-1.9-1.4c-0.4,0-0.8,0-1.1,0.1L438.3,194z"/>
</svg>
