<svg xmlns="http://www.w3.org/2000/svg" width="24" height="24" viewBox="0 0 24 24">
  <metadata><?xpacket begin="﻿" id="W5M0MpCehiHzreSzNTczkc9d"?>
<x:xmpmeta xmlns:x="adobe:ns:meta/" x:xmptk="Adobe XMP Core 5.6-c140 79.160451, 2017/05/06-01:08:21        ">
   <rdf:RDF xmlns:rdf="http://www.w3.org/1999/02/22-rdf-syntax-ns#">
      <rdf:Description rdf:about=""/>
   </rdf:RDF>
</x:xmpmeta>
                                                                                                    
                                                                                                    
                                                                                                    
                                                                                                    
                                                                                                    
                                                                                                    
                                                                                                    
                                                                                                    
                                                                                                    
                                                                                                    
                                                                                                    
                                                                                                    
                                                                                                    
                                                                                                    
                                                                                                    
                                                                                                    
                                                                                                    
                                                                                                    
                                                                                                    
                                                                                                    
                           
<?xpacket end="w"?></metadata>
<defs>
    <style>
      .cls-1 {
        fill: #fff;
        fill-rule: evenodd;
      }
    </style>
  </defs>
  <path id="Twitter" class="cls-1" d="M24.255,4.239A9.645,9.645,0,0,1,21.477,5,4.854,4.854,0,0,0,23.6,2.324,9.68,9.68,0,0,1,20.531,3.5a4.839,4.839,0,0,0-8.24,4.411A13.73,13.73,0,0,1,2.323,2.856a4.842,4.842,0,0,0,1.5,6.456,4.79,4.79,0,0,1-2.191-.6V8.768A4.84,4.84,0,0,0,5.507,13.51a4.87,4.87,0,0,1-2.184.083,4.844,4.844,0,0,0,4.518,3.36,9.71,9.71,0,0,1-6.006,2.069,10.264,10.264,0,0,1-1.153-.067A13.649,13.649,0,0,0,8.1,21.065a13.615,13.615,0,0,0,13.759-13.7c0-.209,0-0.419-0.015-0.626a9.866,9.866,0,0,0,2.414-2.5h0Z"/>
</svg>
