<?xml version="1.0" encoding="utf-8"?>
<!-- Generator: Adobe Illustrator 22.1.0, SVG Export Plug-In . SVG Version: 6.00 Build 0)  -->
<svg version="1.1" id="Layer_1" xmlns="http://www.w3.org/2000/svg" xmlns:xlink="http://www.w3.org/1999/xlink" x="0px" y="0px"
	 viewBox="0 0 1430 170" style="enable-background:new 0 0 1430 170;" xml:space="preserve">
<style type="text/css">
	.st0{fill:none;}
	.st1{opacity:0.6;clip-path:url(#SVGID_2_);fill:none;stroke:#342F6E;stroke-miterlimit:10;}
	.st2{fill:#E6E6E6;}
	.st3{opacity:0.6;}
	.st4{clip-path:url(#SVGID_4_);fill:url(#SVGID_5_);}
	.st5{clip-path:url(#SVGID_7_);fill:url(#SVGID_8_);}
	.st6{clip-path:url(#SVGID_10_);fill:url(#SVGID_11_);}
	.st7{clip-path:url(#SVGID_13_);fill:url(#SVGID_14_);}
	.st8{fill:#E5E5E5;}
	.st9{fill:#63A6B0;}
	.st10{fill:#296169;}
	.st11{clip-path:url(#SVGID_16_);fill:url(#SVGID_17_);}
	.st12{fill:#B1B2B9;}
	.st13{clip-path:url(#SVGID_19_);fill:url(#SVGID_20_);}
	.st14{fill:#E9E4E1;}
	.st15{fill:#6B6562;}
	.st16{fill:#67A0F0;}
	.st17{fill:#F01C00;}
	.st18{filter:url(#Adobe_OpacityMaskFilter);}
	.st19{clip-path:url(#SVGID_22_);fill:url(#SVGID_24_);}
	.st20{clip-path:url(#SVGID_22_);mask:url(#SVGID_23_);fill:url(#SVGID_25_);}
	.st21{fill:#C9AE0E;}
	.st22{fill:#786E33;}
	.st23{fill:#8A6B33;}
	.st24{fill:#3B8B96;}
	.st25{clip-path:url(#SVGID_27_);fill:url(#SVGID_28_);}
	.st26{fill:#1D5B63;}
	.st27{fill:#16444A;}
	.st28{clip-path:url(#SVGID_30_);fill:url(#SVGID_31_);}
	.st29{clip-path:url(#SVGID_33_);fill:url(#SVGID_34_);}
	.st30{clip-path:url(#SVGID_36_);fill:url(#SVGID_37_);}
	.st31{clip-path:url(#SVGID_39_);fill:url(#SVGID_40_);}
</style>
<pattern  y="170" width="801.3" height="815.5" patternUnits="userSpaceOnUse" id="Unnamed_Pattern_21" viewBox="0 -815.5 801.3 815.5" style="overflow:visible;">
	<g>
		<rect x="0" y="-815.5" class="st0" width="801.3" height="815.5"/>
		<g>
			<defs>
				<rect id="SVGID_1_" x="0" y="-815.5" width="801.3" height="815.5"/>
			</defs>
			<clipPath id="SVGID_2_">
				<use xlink:href="#SVGID_1_"  style="overflow:visible;"/>
			</clipPath>
			<path class="st1" d="M1.4-815L1.4-815l-1,1.3C0.7-814.1,1.1-814.6,1.4-815z"/>
			<path class="st1" d="M4.1-806.6l-3.7,4.5C1.6-803.7,2.8-805.1,4.1-806.6z"/>
			<path class="st1" d="M11.3-815c-2.3,2.9-4.8,5.6-7.2,8.4L11-815H11.3z"/>
			<path class="st1" d="M20.6-815L20.6-815L0.4-790.6C7.3-798.9,13.9-806.9,20.6-815z"/>
			<path class="st1" d="M30.4-815c-4.3,5.4-8.9,10.7-13.4,16l13.3-16H30.4z"/>
			<path class="st1" d="M16.9-798.9L0.4-779C5.6-785.8,11.3-792.4,16.9-798.9z"/>
			<path class="st1" d="M39.8-815c-7,8.6-14.2,17.2-21.3,25.7L39.8-815L39.8-815z"/>
			<path class="st1" d="M18.5-789.3L0.4-767.5C6.4-774.8,12.4-782,18.5-789.3z"/>
			<path class="st1" d="M49.4-815c-9.6,11.8-19.1,23.3-29.1,35.3c-6.9,8-12.9,16-19.9,23.7L49.4-815L49.4-815z"/>
			<path class="st1" d="M59-815c-8.8,10.7-17.7,21.4-26.6,32L59-815L59-815z"/>
			<path class="st1" d="M32.4-782.9l-32,38.6C10.9-757.3,21.6-770.1,32.4-782.9z"/>
			<path class="st1" d="M68.5-815c-22.8,27.5-45.4,54.8-68.1,82.2L68.5-815L68.5-815z"/>
			<path class="st1" d="M78.1-815c-25.7,31.3-51.6,62.5-77.7,93.7L78.1-815L78.1-815z"/>
			<path class="st1" d="M87.7-815c-20,24.5-40.1,48.5-60.2,72.6L87.7-815L87.7-815z"/>
			<path class="st1" d="M27.5-742.3L0.4-709.7C9.4-720.6,18.4-731.5,27.5-742.3z"/>
			<path class="st1" d="M97.2-815c-32.3,39-64.4,77.7-96.8,116.8L97.2-815L97.2-815z"/>
			<path class="st1" d="M0.4-686.6l38.2-46.1C25.9-717.3,13.2-701.9,0.4-686.6z"/>
			<path class="st1" d="M106.8-815L106.8-815l-68.2,82.3C61.2-760.1,83.8-787.6,106.8-815z"/>
			<path class="st1" d="M116.4-815c-38.5,46.6-77.2,93.3-116,140L116.4-815L116.4-815z"/>
			<path class="st1" d="M125.9-815C84.2-764.6,42.3-714,0.4-663.5L125.9-815z"/>
			<path class="st1" d="M135.5-815c-37.5,45.7-75.4,91-113.2,136.6L135.5-815L135.5-815z"/>
			<path class="st1" d="M22.3-678.3L0.4-651.9C7.7-660.7,15-669.5,22.3-678.3z"/>
			<path class="st1" d="M145.1-815c-27.3,33.3-54.8,66.3-82.3,99.3L145.1-815L145.1-815z"/>
			<path class="st1" d="M62.9-715.7L0.4-640.4C21.1-665.6,42-690.7,62.9-715.7z"/>
			<path class="st1" d="M154.7-815c-28.2,34.3-56.2,67.8-85.2,103.1c-23.7,28.2-46.1,55.6-69.1,83.1L154.7-815L154.7-815z"/>
			<path class="st1" d="M164.2-815L164.2-815l-114,137.7C88.2-723.3,126.1-769.3,164.2-815z"/>
			<path class="st1" d="M0.4-617.2l49.8-60.1C33.6-657.3,17-637.3,0.4-617.2z"/>
			<path class="st1" d="M173.8-815C130.7-762.4,87.2-710.3,43.8-658L173.8-815L173.8-815z"/>
			<path class="st1" d="M43.8-658L0.4-605.7C14.8-623.2,29.3-640.6,43.8-658z"/>
			<path class="st1" d="M183.4-815c-61,73.6-121.8,147.4-183,220.8L183.4-815L183.4-815z"/>
			<path class="st1" d="M193-815c-35.7,43.2-71.6,86.4-107.4,129.6L193-815L193-815z"/>
			<path class="st1" d="M85.5-685.3L0.4-582.6C28.7-616.8,57.1-651.1,85.5-685.3z"/>
			<path class="st1" d="M0.4-571l41-49.4C27.7-604,14.1-587.5,0.4-571z"/>
			<path class="st1" d="M202.5-815L202.5-815L41.4-620.4C95.1-685.3,148.7-750.2,202.5-815z"/>
			<path class="st1" d="M212.1-815L212.1-815L0.4-559.5C71-644.7,141.6-729.9,212.1-815z"/>
			<path class="st1" d="M0.4-547.9L58-617.4C38.8-594.2,19.6-571,0.4-547.9z"/>
			<path class="st1" d="M221.7-815L221.7-815L58-617.4C112.5-683.3,166.9-749.3,221.7-815z"/>
			<path class="st1" d="M231.3-815c-44.6,54-89.3,107.8-134,161.7L231.3-815L231.3-815z"/>
			<path class="st1" d="M97.3-653.3L0.4-536.4C32.7-575.4,65-614.4,97.3-653.3z"/>
			<path class="st1" d="M0.4-524.8L100-644.9C66.8-604.9,33.7-564.8,0.4-524.8z"/>
			<path class="st1" d="M240.8-815L240.8-815L100-644.9C146.9-701.7,193.8-758.4,240.8-815z"/>
			<path class="st1" d="M250.4-815c-50.9,62-102.1,123.5-153.4,185.1L250.4-815L250.4-815z"/>
			<path class="st1" d="M97.1-629.9L0.4-513.2C32.6-552.3,64.8-591.1,97.1-629.9z"/>
			<path class="st1" d="M260-815c-48.1,58.3-96.3,116.4-144.5,174.4L260-815L260-815z"/>
			<path class="st1" d="M115.5-640.6L0.4-501.7C38.7-548.1,77.1-594.3,115.5-640.6z"/>
			<path class="st1" d="M269.6-815c-70.2,84.9-140.6,169.7-211,254.7L269.6-815L269.6-815z"/>
			<path class="st1" d="M58.6-560.3L0.4-490.1C19.8-513.6,39.2-536.9,58.6-560.3z"/>
			<path class="st1" d="M279.1-815L279.1-815L66.4-558.2c35.7-43.2,71.5-86.5,108.2-130.8C210.1-731.9,244.2-773,279.1-815z"/>
			<path class="st1" d="M0.4-478.6l66-79.6C44.4-531.7,22.5-505.2,0.4-478.6z"/>
			<path class="st1" d="M288.7-815C192.7-699.1,96.6-583.1,0.4-467L288.7-815z"/>
			<path class="st1" d="M0.4-455.5L261.8-771C174.8-665.8,87.8-560.4,0.4-455.5z"/>
			<path class="st1" d="M298.3-815L298.3-815l-36.5,44C274-785.6,286.1-800.3,298.3-815z"/>
			<path class="st1" d="M307.9-815c-60.5,73.5-121.3,146.6-182,219.7L307.9-815L307.9-815z"/>
			<path class="st1" d="M125.9-595.3L0.4-443.9C42.1-494.5,84-544.9,125.9-595.3z"/>
			<path class="st1" d="M317.4-815C212-687.7,106-559.8,0.4-432.4L317.4-815L317.4-815z"/>
			<path class="st1" d="M327-815L327-815L111.1-554.4C183.1-641.4,254.9-728.3,327-815z"/>
			<path class="st1" d="M0.4-420.8l110.7-133.6C74.3-509.9,37.4-465.3,0.4-420.8z"/>
			<path class="st1" d="M336.6-815c-74.5,90.3-149.1,180.1-223.7,270L336.6-815L336.6-815z"/>
			<path class="st1" d="M112.9-545L0.4-409.2C37.9-454.6,75.4-499.8,112.9-545z"/>
			<path class="st1" d="M346.2-815L346.2-815L0.4-397.7C115.5-536.6,230.9-675.9,346.2-815z"/>
			<path class="st1" d="M355.7-815L355.7-815L0.4-386.1C119-529.4,237.2-672.1,355.7-815z"/>
			<path class="st1" d="M365.3-815C243.8-667.9,122.1-521.4,0.4-374.6L365.3-815L365.3-815z"/>
			<path class="st1" d="M374.9-815L374.9-815L0.4-363C125.3-513.8,250.1-664.4,374.9-815z"/>
			<path class="st1" d="M186.8-576.5L0.4-351.5C62.4-426.7,124.6-501.6,186.8-576.5z"/>
			<path class="st1" d="M384.5-815c-65.7,79.8-131.7,159.1-197.6,238.5L384.5-815L384.5-815z"/>
			<path class="st1" d="M0.4-339.9l94.3-113.8C63.3-415.8,31.9-377.9,0.4-339.9z"/>
			<path class="st1" d="M394-815L394-815L94.7-453.7C194.4-574.1,294-694.5,394-815z"/>
			<path class="st1" d="M403.6-815L403.6-815L0.4-328.4C135.1-490.9,269.1-652.7,403.6-815z"/>
			<path class="st1" d="M413.2-815c-36.5,44.1-73,88.2-109.5,132.2L413.2-815L413.2-815z"/>
			<path class="st1" d="M303.6-682.8L0.4-316.8C101.4-439.1,202.6-560.9,303.6-682.8z"/>
			<path class="st1" d="M422.8-815c-83.9,101.5-167.9,202.7-251.9,304L422.8-815L422.8-815z"/>
			<path class="st1" d="M170.9-511L0.4-305.3C57.2-373.9,114-442.5,170.9-511z"/>
			<path class="st1" d="M0.4-293.7l122-147.3C81.8-391.9,41.1-342.7,0.4-293.7z"/>
			<path class="st1" d="M432.3-815L432.3-815L122.4-441C225.7-565.7,328.8-690.6,432.3-815z"/>
			<path class="st1" d="M441.9-815c-36,43.5-72.1,87-108.1,130.5L441.9-815L441.9-815z"/>
			<path class="st1" d="M333.8-684.5L0.4-282.1C111.4-416.5,222.6-550.4,333.8-684.5z"/>
			<path class="st1" d="M451.5-815C301.3-633.2,150.8-452.1,0.4-270.6L451.5-815L451.5-815z"/>
			<path class="st1" d="M84.1-360L0.4-259C28.3-292.7,56.2-326.4,84.1-360z"/>
			<path class="st1" d="M461.1-815c-125.6,151.9-251.3,303.3-377,455L461.1-815L461.1-815z"/>
			<path class="st1" d="M470.6-815c-75.3,91.1-150.8,182.1-226.3,273L470.6-815L470.6-815z"/>
			<path class="st1" d="M244.4-541.9L0.4-247.5C81.6-345.7,163-443.8,244.4-541.9z"/>
			<path class="st1" d="M215.4-495.4L0.4-235.9C72-322.5,143.7-409,215.4-495.4z"/>
			<path class="st1" d="M480.2-815C392-708.4,303.7-601.9,215.4-495.4L480.2-815L480.2-815z"/>
			<path class="st1" d="M489.8-815c-163,197-326,393.7-489.4,590.6L489.8-815L489.8-815z"/>
			<path class="st1" d="M499.4-815C441.7-745.2,384-675.6,326.3-606.1L499.4-815L499.4-815z"/>
			<path class="st1" d="M326.3-606.1L0.4-212.8C108.8-344.2,217.5-475.1,326.3-606.1z"/>
			<path class="st1" d="M508.9-815C339.4-610.4,170.1-406,0.4-201.3L508.9-815z"/>
			<path class="st1" d="M518.5-815L518.5-815L185.1-412.6C296.1-546.7,407.1-680.9,518.5-815z"/>
			<path class="st1" d="M0.4-189.7l184.7-222.9C123.5-338.3,62-264,0.4-189.7z"/>
			<path class="st1" d="M528.1-815c-79.2,95.8-158.5,191.5-237.9,287.1L528.1-815L528.1-815z"/>
			<path class="st1" d="M290.2-527.9L0.4-178.1C96.9-294.9,193.5-411.4,290.2-527.9z"/>
			<path class="st1" d="M537.7-815C358.4-598.6,179.6-382.8,0.4-166.6L537.7-815L537.7-815z"/>
			<path class="st1" d="M547.2-815C425.1-667.5,303-520.2,180.9-372.9L547.2-815L547.2-815z"/>
			<path class="st1" d="M180.9-372.9L0.4-155C60.6-227.7,120.7-300.3,180.9-372.9z"/>
			<path class="st1" d="M556.8-815C434.2-666.6,311.3-518.6,188.4-370.4L556.8-815L556.8-815z"/>
			<path class="st1" d="M188.4-370.4L0.4-143.5C63.1-219.2,125.7-294.8,188.4-370.4z"/>
			<path class="st1" d="M566.4-815L566.4-815l-566,683C189.3-360,377.6-587.2,566.4-815z"/>
			<path class="st1" d="M576-815c-58.6,70.8-117.3,141.6-176,212.3L576-815L576-815z"/>
			<path class="st1" d="M400-602.6L0.4-120.4C133.5-281.4,266.8-442,400-602.6z"/>
			<path class="st1" d="M585.5-815c-81.9,99.1-163.9,197.9-245.8,296.7L585.5-815L585.5-815z"/>
			<path class="st1" d="M339.7-518.3L0.4-108.8C113.4-245.6,226.6-381.9,339.7-518.3z"/>
			<path class="st1" d="M595.1-815L595.1-815L0.4-97.3C198.8-336.7,396.8-575.7,595.1-815z"/>
			<path class="st1" d="M604.7-815L604.7-815L0.4-85.7C201.6-329.1,403.2-571.9,604.7-815z"/>
			<path class="st1" d="M239.3-362.5L0.4-74.2C80-170.4,159.7-266.4,239.3-362.5z"/>
			<path class="st1" d="M614.3-815c-124.9,151-249.9,301.7-375,452.5L614.3-815L614.3-815z"/>
			<path class="st1" d="M623.8-815C416.1-563.9,208.3-313.5,0.4-62.6L623.8-815L623.8-815z"/>
			<path class="st1" d="M393.8-525.8L0.4-51C131.3-209.6,262.6-367.7,393.8-525.8z"/>
			<path class="st1" d="M633.4-815c-79.8,96.5-159.7,192.9-239.6,289.2L633.4-815L633.4-815z"/>
			<path class="st1" d="M643-815C516.9-662.6,390.7-510.4,264.5-358.2L643-815L643-815z"/>
			<path class="st1" d="M264.5-358.2L0.4-39.5C88.4-145.8,176.4-252,264.5-358.2z"/>
			<path class="st1" d="M0.4-27.9l271-327.1C181.1-246,90.8-136.9,0.4-27.9z"/>
			<path class="st1" d="M652.5-815L652.5-815L271.4-355C398.4-508.4,525.4-661.8,652.5-815z"/>
			<path class="st1" d="M171.9-223.4L0.4-16.4C57.6-85.4,114.7-154.4,171.9-223.4z"/>
			<path class="st1" d="M662.1-815C498.8-617.5,335.3-420.5,171.9-223.4L662.1-815L662.1-815z"/>
			<path class="st1" d="M671.7-815C448-544.9,224.4-275,0.4-4.8L671.7-815z"/>
			<path class="st1" d="M10.6-5.6l470.6-567.9C324.4-384.2,167.7-194.8,10.6-5.6z"/>
			<path class="st1" d="M681.2-815L681.2-815l-200,241.4C547.8-654,614.5-734.5,681.2-815z"/>
			<path class="st1" d="M690.8-815L690.8-815L20.2-5.6C243.7-275.6,467.2-545.3,690.8-815z"/>
			<path class="st1" d="M700.4-815C476.9-545.1,253.6-275.6,29.8-5.6L700.4-815L700.4-815z"/>
			<path class="st1" d="M710-815L603.6-686.6C639.1-729.4,674.5-772.2,710-815L710-815z"/>
			<path class="st1" d="M39.4-5.6l564.3-681C415.5-459.6,227.6-232.6,39.4-5.6z"/>
			<path class="st1" d="M719.5-815L719.5-815L48.9-5.6C272.6-275.7,495.9-545.2,719.5-815z"/>
			<path class="st1" d="M729.1-815L729.1-815L58.5-5.6C282.1-275.4,505.4-545.2,729.1-815z"/>
			<path class="st1" d="M738.6-815L738.6-815L481.6-504.6C567.2-608.1,652.9-711.6,738.6-815z"/>
			<path class="st1" d="M68.1-5.6l413.5-499C343.8-338.2,206.1-171.8,68.1-5.6z"/>
			<path class="st1" d="M748.3-815c-64.5,77.8-128.9,155.6-193.4,233.4L748.3-815L748.3-815z"/>
			<path class="st1" d="M554.9-581.6L77.7-5.6C236.7-197.7,395.8-389.6,554.9-581.6z"/>
			<path class="st1" d="M757.9-815L757.9-815L87.2-5.6C310.9-275.5,534.3-545.2,757.9-815z"/>
			<path class="st1" d="M767.4-815L767.4-815L96.9-5.7C320.4-275.6,543.8-545.2,767.4-815z"/>
			<path class="st1" d="M777-815L777-815L106.4-5.7C329.9-275.6,553.4-545.3,777-815z"/>
			<path class="st1" d="M786.6-815C563.2-545,339.7-275.7,116-5.6L786.6-815L786.6-815z"/>
			<path class="st1" d="M796.2-815L796.2-815L125.6-5.7C349.2-275.7,572.4-545.1,796.2-815z"/>
			<path class="st1" d="M135.1-5.6c221.8-268,443.6-535.3,665.3-802.9"/>
			<path class="st1" d="M144.7-5.6C363.2-269.4,581.9-533.3,800.4-797"/>
			<path class="st1" d="M154.3-5.7C369.6-266,585-525.3,800.4-785.4"/>
			<path class="st1" d="M163.9-5.7c212-256.2,424.3-512,636.5-768.2"/>
			<path class="st1" d="M173.4-5.6c209.1-252,417.6-504.4,627-756.7"/>
			<path class="st1" d="M183-5.7c205.8-248.5,411.5-496.8,617.4-745.1"/>
			<path class="st1" d="M192.6-5.6C395.4-250,597.7-494.8,800.4-739.2"/>
			<path class="st1" d="M202.1-5.6C329.8-159.8,454.7-310.5,585-467.8c73.2-88.3,143.5-173.2,215.4-259.8"/>
			<path class="st1" d="M211.7-5.6C408-242.8,604.3-479.2,800.4-716.1"/>
			<path class="st1" d="M221.3-5.7c193-232.9,385.8-465.9,579.1-698.9"/>
			<path class="st1" d="M230.9-5.6C421-234.4,610.3-464,800.4-693"/>
			<path class="st1" d="M240.5-5.7C427-231.4,613.7-456,800.4-681.4"/>
			<path class="st1" d="M250.1-5.7c183.5-221.5,366.8-442.7,550.3-664.2"/>
			<path class="st1" d="M259.6-5.6C440.2-223,619.7-440.8,800.4-658.3"/>
			<path class="st1" d="M269.2-5.7c177-213.9,354-427.5,531.2-641.1"/>
			<path class="st1" d="M278.7-5.6c174.1-210.1,347.6-419.5,521.7-629.6"/>
			<path class="st1" d="M288.3-5.7c170.5-206.3,341.5-411.9,512.1-618"/>
			<path class="st1" d="M297.9-5.7C465.5-208.1,633-409.9,800.4-612.1"/>
			<path class="st1" d="M307.5-5.7c164.3-198.3,328.6-396.6,492.9-594.8"/>
			<path class="st1" d="M317.1-5.6c161.3-194.5,322.2-389,483.4-583.3"/>
			<path class="st1" d="M326.6-5.7c157.8-191,315.8-381,473.8-571.8"/>
			<path class="st1" d="M336.2-5.6C491-192.1,645.6-379.1,800.4-565.9"/>
			<path class="st1" d="M345.8-5.7c151.5-183.1,303-365.8,454.6-548.7"/>
			<path class="st1" d="M355.3-5.6c148.3-179.3,296.9-357.9,445.1-537.1"/>
			<path class="st1" d="M365-5.7c145.3-175,290.1-350.6,435.4-525.5"/>
			<path class="st1" d="M374.5-5.7c142-171.2,283.7-342.9,425.9-514"/>
			<path class="st1" d="M384-5.6c138.8-167.5,277.3-335,416.4-502.5"/>
			<path class="st1" d="M393.6-5.6C529.5-168.9,664.5-333,800.4-496.5"/>
			<path class="st1" d="M403.3-5.7C535.8-165.5,668-325.4,800.4-485"/>
			<path class="st1" d="M412.8-5.6c129.4-156.1,258.4-312.2,387.6-467.8"/>
			<path class="st1" d="M422.4-5.6c126.1-151.8,251.6-304.1,378-456.2"/>
			<path class="st1" d="M432-5.7c122.8-148.4,245.8-296.1,368.4-444.7"/>
			<path class="st1" d="M441.5-5.6c119.9-144.2,239.1-288.9,358.9-433.1"/>
			<path class="st1" d="M451.1-5.6c116.6-140.5,232.7-281.3,349.3-421.6"/>
			<path class="st1" d="M460.7-5.6c113.3-136.6,226.3-273.7,339.7-410"/>
			<path class="st1" d="M470.2-5.6c110.1-132.8,220.2-265.7,330.2-398.5"/>
			<path class="st1" d="M479.8-5.7c106.8-129,213.7-258,320.6-386.9"/>
			<path class="st1" d="M489.4-5.7c103.8-125.2,207.3-250.4,311-375.3"/>
			<path class="st1" d="M499-5.7C599.5-127,699.9-248.1,800.4-369.4"/>
			<path class="st1" d="M508.5-5.6C605.9-123.2,703-240.5,800.4-357.9"/>
			<path class="st1" d="M518.1-5.6c94.1-113.8,188.1-227.3,282.3-340.7"/>
			<path class="st1" d="M527.7-5.6c90.8-109.6,182-219.7,272.7-329.2"/>
			<path class="st1" d="M537.3-5.7c87.5-106.1,175.2-212,263.1-317.5"/>
			<path class="st1" d="M546.9-5.7c84.6-101.9,169.1-204,253.5-306"/>
			<path class="st1" d="M556.4-5.6c81.6-98.2,162.7-196.4,244-294.5"/>
			<path class="st1" d="M566-5.7c39.8-48.6,79.3-95.8,120.3-145.3c38.8-46.8,76-91.8,114.1-137.5"/>
			<path class="st1" d="M575.6-5.7C650.3-96.2,725.4-186.4,800.4-277"/>
			<path class="st1" d="M585.1-5.6C657-92.4,728.6-178.8,800.4-265.4"/>
			<path class="st1" d="M594.7-5.7C663-88.6,732.1-170.8,800.4-253.9"/>
			<path class="st1" d="M604.3-5.6c65.6-78.7,130.6-157.9,196.1-236.7"/>
			<path class="st1" d="M613.8-5.6c62.4-75,124.2-150.4,186.6-225.2"/>
			<path class="st1" d="M623.4-5.6c58.8-71.5,118.1-142.3,177-213.6"/>
			<path class="st1" d="M633-5.6c55.8-67.3,111.7-134.7,167.4-202"/>
			<path class="st1" d="M642.6-5.6c52.6-63.1,104.9-127.1,157.8-190.5"/>
			<path class="st1" d="M652.1-5.6c49.3-59.7,98.8-119.5,148.3-178.9"/>
			<path class="st1" d="M661.7-5.7c46.3-55.9,92.4-111.5,138.7-167.3"/>
			<path class="st1" d="M671.3-5.6c43.4-51.7,85.7-103.9,129.1-155.8"/>
			<path class="st1" d="M680.9-5.6c39.8-48.3,79.6-96.3,119.5-144.2"/>
			<path class="st1" d="M690.5-5.6c36.6-44.1,73.5-88.6,109.9-132.7"/>
			<path class="st1" d="M700.1-5.7c33.3-40.6,67-80.6,100.4-121.1"/>
			<path class="st1" d="M709.6-5.6c30-36.9,60.6-73,90.8-109.6"/>
			<path class="st1" d="M719.2-5.6c27.1-32.7,54.2-65.4,81.2-98"/>
			<path class="st1" d="M728.7-5.6c24.1-28.5,47.5-57.8,71.7-86.5"/>
			<path class="st1" d="M738.3-5.6c20.6-25.1,41.4-50.2,62.1-74.9"/>
			<path class="st1" d="M747.9-5.6c17.6-21.3,35-42.2,52.5-63.4"/>
			<path class="st1" d="M757.5-5.6c14-17.8,28.8-34.2,42.9-51.8"/>
			<path class="st1" d="M767.1-5.6c11.1-13.6,22.1-27,33.4-40.3"/>
			<path class="st1" d="M776.6-5.6c8.1-9.5,15.7-19.4,23.8-28.7"/>
			<path class="st1" d="M786.2-5.6c4.9-5.7,9.3-11.7,14.2-17.1"/>
			<path class="st1" d="M795.8-5.6c1.3-2.2,3.2-3.8,4.6-5.6"/>
			<path class="st1" d="M1.9-810.5L1.9-810.5l-1,1.3C1.2-809.6,1.6-810.1,1.9-810.5z"/>
			<path class="st1" d="M4.6-802.1l-3.7,4.5C2.1-799.2,3.3-800.6,4.6-802.1z"/>
			<path class="st1" d="M11.8-810.5c-2.3,2.9-4.8,5.6-7.2,8.4l6.9-8.4H11.8z"/>
			<path class="st1" d="M21.1-810.5L21.1-810.5L0.9-786.1C7.8-794.4,14.4-802.4,21.1-810.5z"/>
			<path class="st1" d="M30.9-810.5c-4.3,5.4-8.9,10.7-13.4,16l13.3-16H30.9z"/>
			<path class="st1" d="M17.4-794.4L0.9-774.5C6.1-781.3,11.8-787.9,17.4-794.4z"/>
			<path class="st1" d="M40.3-810.5c-7,8.6-14.2,17.2-21.3,25.7L40.3-810.5L40.3-810.5z"/>
			<path class="st1" d="M19-784.8L0.9-763C6.9-770.3,12.9-777.5,19-784.8z"/>
			<path class="st1" d="M49.9-810.5c-9.6,11.8-19.1,23.3-29.1,35.3c-6.9,8-12.9,16-19.9,23.7L49.9-810.5L49.9-810.5z"/>
			<path class="st1" d="M59.5-810.5c-8.8,10.7-17.7,21.4-26.6,32L59.5-810.5L59.5-810.5z"/>
			<path class="st1" d="M32.9-778.4l-32,38.6C11.4-752.8,22.1-765.6,32.9-778.4z"/>
			<path class="st1" d="M69-810.5C46.2-783,23.6-755.6,0.9-728.3L69-810.5L69-810.5z"/>
			<path class="st1" d="M78.6-810.5C52.9-779.2,27-748,0.9-716.7L78.6-810.5L78.6-810.5z"/>
			<path class="st1" d="M88.2-810.5C68.2-786,48-762,28-737.8L88.2-810.5L88.2-810.5z"/>
			<path class="st1" d="M28-737.8L0.9-705.2C9.9-716.1,18.9-727,28-737.8z"/>
			<path class="st1" d="M97.7-810.5c-32.3,39-64.4,77.7-96.8,116.8L97.7-810.5L97.7-810.5z"/>
			<path class="st1" d="M0.9-682.1l38.2-46.1C26.4-712.8,13.7-697.4,0.9-682.1z"/>
			<path class="st1" d="M107.3-810.5L107.3-810.5l-68.2,82.3C61.7-755.6,84.3-783.1,107.3-810.5z"/>
			<path class="st1" d="M116.9-810.5c-38.5,46.6-77.2,93.3-116,140L116.9-810.5L116.9-810.5z"/>
			<path class="st1" d="M126.4-810.5C84.7-760.1,42.8-709.5,0.9-659L126.4-810.5z"/>
			<path class="st1" d="M136-810.5c-37.5,45.7-75.4,91-113.2,136.6L136-810.5L136-810.5z"/>
			<path class="st1" d="M22.8-673.8L0.9-647.4C8.2-656.2,15.5-665,22.8-673.8z"/>
			<path class="st1" d="M145.6-810.5c-27.3,33.3-54.8,66.3-82.3,99.3L145.6-810.5L145.6-810.5z"/>
			<path class="st1" d="M63.4-711.2L0.9-635.9C21.6-661.1,42.5-686.2,63.4-711.2z"/>
			<path class="st1" d="M155.2-810.5C127-776.2,99-742.6,70-707.4C46.4-679.2,24-651.8,0.9-624.3L155.2-810.5L155.2-810.5z"/>
			<path class="st1" d="M164.7-810.5L164.7-810.5l-114,137.7C88.7-718.8,126.6-764.8,164.7-810.5z"/>
			<path class="st1" d="M0.9-612.7l49.8-60.1C34.1-652.8,17.5-632.8,0.9-612.7z"/>
			<path class="st1" d="M174.3-810.5c-43.1,52.6-86.7,104.7-130.1,156.9L174.3-810.5L174.3-810.5z"/>
			<path class="st1" d="M44.3-653.5L0.9-601.2C15.3-618.7,29.8-636.1,44.3-653.5z"/>
			<path class="st1" d="M183.9-810.5c-61,73.6-121.8,147.4-183,220.8L183.9-810.5L183.9-810.5z"/>
			<path class="st1" d="M193.5-810.5c-35.7,43.2-71.6,86.4-107.4,129.6L193.5-810.5L193.5-810.5z"/>
			<path class="st1" d="M86-680.8L0.9-578.1C29.2-612.3,57.6-646.6,86-680.8z"/>
			<path class="st1" d="M0.9-566.5l41-49.4C28.2-599.5,14.6-583,0.9-566.5z"/>
			<path class="st1" d="M203-810.5L203-810.5L41.9-615.9C95.6-680.8,149.2-745.7,203-810.5z"/>
			<path class="st1" d="M212.6-810.5L212.6-810.5L0.9-555C71.5-640.2,142.1-725.4,212.6-810.5z"/>
			<path class="st1" d="M0.9-543.4l57.6-69.5C39.3-589.7,20.1-566.5,0.9-543.4z"/>
			<path class="st1" d="M222.2-810.5L222.2-810.5L58.5-612.9C113-678.8,167.4-744.8,222.2-810.5z"/>
			<path class="st1" d="M231.8-810.5c-44.6,54-89.3,107.8-134,161.7L231.8-810.5L231.8-810.5z"/>
			<path class="st1" d="M97.8-648.8L0.9-531.9C33.2-570.9,65.5-609.9,97.8-648.8z"/>
			<path class="st1" d="M0.9-520.3l99.5-120.1C67.3-600.4,34.2-560.3,0.9-520.3z"/>
			<path class="st1" d="M241.3-810.5L241.3-810.5l-140.9,170C147.4-697.2,194.3-753.9,241.3-810.5z"/>
			<path class="st1" d="M250.9-810.5C200-748.5,148.8-687,97.6-625.4L250.9-810.5L250.9-810.5z"/>
			<path class="st1" d="M97.6-625.4L0.9-508.7C33.1-547.8,65.3-586.6,97.6-625.4z"/>
			<path class="st1" d="M260.5-810.5c-48.1,58.3-96.3,116.4-144.5,174.4L260.5-810.5L260.5-810.5z"/>
			<path class="st1" d="M116-636.1L0.9-497.2C39.2-543.6,77.6-589.8,116-636.1z"/>
			<path class="st1" d="M270.1-810.5c-70.2,84.9-140.6,169.7-211,254.7L270.1-810.5L270.1-810.5z"/>
			<path class="st1" d="M59.1-555.8L0.9-485.6C20.3-509.1,39.7-532.4,59.1-555.8z"/>
			<path class="st1" d="M279.6-810.5L279.6-810.5L66.9-553.7c35.7-43.2,71.5-86.5,108.2-130.8C210.6-727.4,244.7-768.5,279.6-810.5z
				"/>
			<path class="st1" d="M0.9-474.1l66-79.6C44.9-527.2,23-500.7,0.9-474.1z"/>
			<path class="st1" d="M289.2-810.5C193.2-694.6,97.1-578.6,0.9-462.5L289.2-810.5z"/>
			<path class="st1" d="M0.9-451l261.4-315.5C175.3-661.3,88.3-555.9,0.9-451z"/>
			<path class="st1" d="M298.8-810.5L298.8-810.5l-36.5,44C274.5-781.1,286.6-795.8,298.8-810.5z"/>
			<path class="st1" d="M308.4-810.5c-60.5,73.5-121.3,146.6-182,219.7L308.4-810.5L308.4-810.5z"/>
			<path class="st1" d="M126.4-590.8L0.9-439.4C42.6-490,84.5-540.4,126.4-590.8z"/>
			<path class="st1" d="M317.9-810.5C212.5-683.2,106.5-555.3,0.9-427.9L317.9-810.5L317.9-810.5z"/>
			<path class="st1" d="M327.5-810.5L327.5-810.5L111.6-549.9C183.6-636.9,255.4-723.8,327.5-810.5z"/>
			<path class="st1" d="M0.9-416.3l110.7-133.6C74.8-505.4,37.9-460.8,0.9-416.3z"/>
			<path class="st1" d="M337.1-810.5c-74.5,90.3-149.1,180.1-223.7,270L337.1-810.5L337.1-810.5z"/>
			<path class="st1" d="M113.4-540.5L0.9-404.7C38.4-450.1,75.9-495.3,113.4-540.5z"/>
			<path class="st1" d="M346.7-810.5L346.7-810.5L0.9-393.2C116-532.1,231.4-671.4,346.7-810.5z"/>
			<path class="st1" d="M356.2-810.5L356.2-810.5L0.9-381.6C119.5-524.9,237.7-667.6,356.2-810.5z"/>
			<path class="st1" d="M365.8-810.5C244.3-663.4,122.6-516.9,0.9-370.1L365.8-810.5L365.8-810.5z"/>
			<path class="st1" d="M375.4-810.5L375.4-810.5L0.9-358.5C125.8-509.3,250.6-659.9,375.4-810.5z"/>
			<path class="st1" d="M187.3-572L0.9-347C62.9-422.2,125.1-497.1,187.3-572z"/>
			<path class="st1" d="M385-810.5C319.3-730.7,253.3-651.3,187.3-572L385-810.5L385-810.5z"/>
			<path class="st1" d="M0.9-335.4l94.3-113.8C63.8-411.3,32.4-373.4,0.9-335.4z"/>
			<path class="st1" d="M394.5-810.5L394.5-810.5L95.2-449.2C194.9-569.6,294.5-690,394.5-810.5z"/>
			<path class="st1" d="M404.1-810.5L404.1-810.5L0.9-323.9C135.6-486.4,269.6-648.2,404.1-810.5z"/>
			<path class="st1" d="M413.7-810.5c-36.5,44.1-73,88.2-109.5,132.2L413.7-810.5L413.7-810.5z"/>
			<path class="st1" d="M304.1-678.3L0.9-312.3C101.9-434.6,203.1-556.4,304.1-678.3z"/>
			<path class="st1" d="M423.3-810.5c-83.9,101.5-167.9,202.7-251.9,304L423.3-810.5L423.3-810.5z"/>
			<path class="st1" d="M171.4-506.5L0.9-300.8C57.7-369.4,114.5-438,171.4-506.5z"/>
			<path class="st1" d="M0.9-289.2l122-147.3C82.3-387.4,41.6-338.2,0.9-289.2z"/>
			<path class="st1" d="M432.8-810.5L432.8-810.5l-309.9,374C226.2-561.2,329.3-686.1,432.8-810.5z"/>
			<path class="st1" d="M442.4-810.5c-36,43.5-72.1,87-108.1,130.5L442.4-810.5L442.4-810.5z"/>
			<path class="st1" d="M334.3-680L0.9-277.6C111.9-412,223.1-545.9,334.3-680z"/>
			<path class="st1" d="M452-810.5C301.8-628.7,151.3-447.6,0.9-266.1L452-810.5L452-810.5z"/>
			<path class="st1" d="M84.6-355.5l-83.7,101C28.8-288.2,56.7-321.9,84.6-355.5z"/>
			<path class="st1" d="M461.6-810.5c-125.6,151.9-251.3,303.3-377,455L461.6-810.5L461.6-810.5z"/>
			<path class="st1" d="M471.1-810.5c-75.3,91.1-150.8,182.1-226.3,273L471.1-810.5L471.1-810.5z"/>
			<path class="st1" d="M244.9-537.4L0.9-243C82.1-341.2,163.5-439.3,244.9-537.4z"/>
			<path class="st1" d="M215.9-490.9L0.9-231.4C72.5-318,144.2-404.5,215.9-490.9z"/>
			<path class="st1" d="M480.7-810.5c-88.2,106.6-176.5,213.1-264.8,319.5L480.7-810.5L480.7-810.5z"/>
			<path class="st1" d="M490.3-810.5c-163,197-326,393.7-489.4,590.6L490.3-810.5L490.3-810.5z"/>
			<path class="st1" d="M499.9-810.5c-57.7,69.8-115.4,139.3-173.1,208.9L499.9-810.5L499.9-810.5z"/>
			<path class="st1" d="M326.8-601.6L0.9-208.3C109.3-339.7,218-470.6,326.8-601.6z"/>
			<path class="st1" d="M509.4-810.5C339.9-605.9,170.6-401.5,0.9-196.8L509.4-810.5z"/>
			<path class="st1" d="M519-810.5L519-810.5L185.6-408.1C296.6-542.2,407.6-676.4,519-810.5z"/>
			<path class="st1" d="M0.9-185.2l184.7-222.9C124-333.8,62.5-259.5,0.9-185.2z"/>
			<path class="st1" d="M528.6-810.5C449.4-714.6,370-619,290.7-523.4L528.6-810.5L528.6-810.5z"/>
			<path class="st1" d="M290.7-523.4L0.9-173.6C97.4-290.4,194-406.9,290.7-523.4z"/>
			<path class="st1" d="M538.2-810.5C358.9-594.1,180.1-378.3,0.9-162.1L538.2-810.5L538.2-810.5z"/>
			<path class="st1" d="M547.7-810.5C425.6-663,303.5-515.7,181.4-368.4L547.7-810.5L547.7-810.5z"/>
			<path class="st1" d="M181.4-368.4L0.9-150.5C61.1-223.2,121.2-295.8,181.4-368.4z"/>
			<path class="st1" d="M557.3-810.5C434.7-662.1,311.8-514.1,188.9-365.9L557.3-810.5L557.3-810.5z"/>
			<path class="st1" d="M188.9-365.9L0.9-139C63.6-214.7,126.2-290.3,188.9-365.9z"/>
			<path class="st1" d="M566.9-810.5L566.9-810.5l-566,683C189.8-355.5,378.1-582.7,566.9-810.5z"/>
			<path class="st1" d="M576.5-810.5c-58.6,70.8-117.3,141.6-176,212.3L576.5-810.5L576.5-810.5z"/>
			<path class="st1" d="M400.5-598.1L0.9-115.9C134-276.9,267.3-437.5,400.5-598.1z"/>
			<path class="st1" d="M586-810.5c-81.9,99.1-163.9,197.9-245.8,296.7L586-810.5L586-810.5z"/>
			<path class="st1" d="M340.2-513.8L0.9-104.3C113.9-241.1,227.1-377.4,340.2-513.8z"/>
			<path class="st1" d="M595.6-810.5L595.6-810.5L0.9-92.8C199.3-332.2,397.3-571.2,595.6-810.5z"/>
			<path class="st1" d="M605.2-810.5L605.2-810.5L0.9-81.2C202.1-324.6,403.7-567.4,605.2-810.5z"/>
			<path class="st1" d="M239.8-358L0.9-69.7C80.5-165.9,160.2-261.9,239.8-358z"/>
			<path class="st1" d="M614.8-810.5c-124.9,151-249.9,301.7-375,452.5L614.8-810.5L614.8-810.5z"/>
			<path class="st1" d="M624.3-810.5C416.6-559.4,208.8-309,0.9-58.1L624.3-810.5L624.3-810.5z"/>
			<path class="st1" d="M394.3-521.3L0.9-46.5C131.8-205.1,263.1-363.2,394.3-521.3z"/>
			<path class="st1" d="M633.9-810.5C554.1-714,474.2-617.6,394.3-521.3L633.9-810.5L633.9-810.5z"/>
			<path class="st1" d="M643.5-810.5C517.4-658.1,391.2-505.9,265-353.7L643.5-810.5L643.5-810.5z"/>
			<path class="st1" d="M265-353.7L0.9-35C88.9-141.3,176.9-247.5,265-353.7z"/>
			<path class="st1" d="M0.9-23.4l271-327.1C181.6-241.5,91.3-132.4,0.9-23.4z"/>
			<path class="st1" d="M653-810.5L653-810.5l-381.1,460C398.9-503.9,525.9-657.3,653-810.5z"/>
			<path class="st1" d="M172.4-218.9L0.9-11.9C58.1-80.9,115.2-149.9,172.4-218.9z"/>
			<path class="st1" d="M662.6-810.5C499.3-613,335.8-416,172.4-218.9L662.6-810.5L662.6-810.5z"/>
			<path class="st1" d="M672.2-810.5C448.5-540.4,224.9-270.5,0.9-0.3L672.2-810.5z"/>
			<path class="st1" d="M11.1-1.1L481.7-569C324.9-379.7,168.2-190.3,11.1-1.1z"/>
			<path class="st1" d="M681.7-810.5L681.7-810.5L481.7-569C548.3-649.5,615-730,681.7-810.5z"/>
			<path class="st1" d="M691.3-810.5L691.3-810.5L20.7-1.1C244.2-271.1,467.7-540.8,691.3-810.5z"/>
			<path class="st1" d="M700.9-810.5C477.4-540.6,254.1-271.1,30.3-1.1L700.9-810.5L700.9-810.5z"/>
			<path class="st1" d="M710.5-810.5L604.1-682.1C639.6-724.9,675-767.7,710.5-810.5L710.5-810.5z"/>
			<path class="st1" d="M39.9-1.1l564.3-681C416-455.1,228.1-228.1,39.9-1.1z"/>
			<path class="st1" d="M720-810.5L720-810.5L49.4-1.1C273.1-271.2,496.4-540.7,720-810.5z"/>
			<path class="st1" d="M729.6-810.5L729.6-810.5L59-1.1C282.6-270.9,505.9-540.7,729.6-810.5z"/>
			<path class="st1" d="M739.1-810.5L739.1-810.5L482.1-500.1C567.7-603.6,653.4-707.1,739.1-810.5z"/>
			<path class="st1" d="M68.6-1.1l413.5-499C344.3-333.7,206.6-167.3,68.6-1.1z"/>
			<path class="st1" d="M748.8-810.5c-64.5,77.8-128.9,155.6-193.4,233.4L748.8-810.5L748.8-810.5z"/>
			<path class="st1" d="M555.4-577.1L78.2-1.1C237.2-193.2,396.3-385.1,555.4-577.1z"/>
			<path class="st1" d="M758.4-810.5L758.4-810.5L87.7-1.1C311.4-271,534.8-540.7,758.4-810.5z"/>
			<path class="st1" d="M767.9-810.5L767.9-810.5L97.4-1.2C320.9-271.1,544.3-540.7,767.9-810.5z"/>
			<path class="st1" d="M777.5-810.5L777.5-810.5L106.9-1.2C330.4-271.1,553.9-540.8,777.5-810.5z"/>
			<path class="st1" d="M787.1-810.5C563.7-540.5,340.2-271.2,116.5-1.1L787.1-810.5L787.1-810.5z"/>
			<path class="st1" d="M796.7-810.5L796.7-810.5L126.1-1.2C349.7-271.2,572.9-540.6,796.7-810.5z"/>
			<path class="st1" d="M135.6-1.1c221.8-268,443.6-535.3,665.3-802.9"/>
			<path class="st1" d="M145.2-1.1c218.6-263.8,437.2-527.7,655.7-791.3"/>
			<path class="st1" d="M154.8-1.2c215.3-260.3,430.7-519.6,646.1-779.7"/>
			<path class="st1" d="M164.4-1.2c212-256.2,424.3-512,636.5-768.2"/>
			<path class="st1" d="M173.9-1.1c209.1-252,417.6-504.4,627-756.7"/>
			<path class="st1" d="M183.5-1.2C389.3-249.7,595-497.9,800.9-746.3"/>
			<path class="st1" d="M193.1-1.1c202.9-244.4,405.1-489.2,607.8-733.6"/>
			<path class="st1" d="M202.6-1.1C330.3-155.3,455.2-306,585.5-463.3c73.2-88.3,143.5-173.2,215.4-259.8"/>
			<path class="st1" d="M212.2-1.1c196.3-237.2,392.6-473.6,588.7-710.5"/>
			<path class="st1" d="M221.8-1.2c193-232.9,385.8-465.9,579.1-698.9"/>
			<path class="st1" d="M231.4-1.1c190.1-228.8,379.4-458.4,569.6-687.4"/>
			<path class="st1" d="M241-1.2c186.5-225.7,373.3-450.3,559.9-675.7"/>
			<path class="st1" d="M250.6-1.2c183.5-221.5,366.8-442.7,550.3-664.2"/>
			<path class="st1" d="M260.1-1.1c180.6-217.3,360.1-435.1,540.8-652.7"/>
			<path class="st1" d="M269.7-1.2c177-213.9,354-427.5,531.2-641.1"/>
			<path class="st1" d="M279.2-1.1c174.1-210.1,347.6-419.5,521.7-629.6"/>
			<path class="st1" d="M288.8-1.2c170.5-206.3,341.5-411.9,512.1-618"/>
			<path class="st1" d="M298.4-1.2C466-203.6,633.5-405.4,800.9-607.6"/>
			<path class="st1" d="M308-1.2C472.3-199.4,636.6-397.8,800.9-596"/>
			<path class="st1" d="M317.6-1.1c161.3-194.5,322.2-389,483.4-583.3"/>
			<path class="st1" d="M327.1-1.2c157.8-191,315.8-381,473.8-571.8"/>
			<path class="st1" d="M336.7-1.1c154.8-186.5,309.4-373.4,464.2-560.2"/>
			<path class="st1" d="M346.3-1.2c151.5-183.1,303-365.8,454.6-548.7"/>
			<path class="st1" d="M355.8-1.1C504.1-180.4,652.7-359,800.9-538.3"/>
			<path class="st1" d="M365.5-1.2c145.3-175,290.1-350.6,435.4-525.5"/>
			<path class="st1" d="M375-1.2c142-171.2,283.7-342.9,425.9-514"/>
			<path class="st1" d="M384.5-1.1c138.8-167.5,277.3-335,416.4-502.5"/>
			<path class="st1" d="M394.1-1.1C530-164.4,665-328.5,800.9-492"/>
			<path class="st1" d="M403.8-1.2C536.3-161,668.5-320.9,800.9-480.5"/>
			<path class="st1" d="M413.3-1.1c129.4-156.1,258.4-312.2,387.6-467.8"/>
			<path class="st1" d="M422.9-1.1c126.1-151.8,251.6-304.1,378-456.2"/>
			<path class="st1" d="M432.5-1.2c122.8-148.4,245.8-296.1,368.4-444.7"/>
			<path class="st1" d="M442-1.1c119.9-144.2,239.1-288.9,358.9-433.1"/>
			<path class="st1" d="M451.6-1.1c116.6-140.5,232.7-281.3,349.3-421.6"/>
			<path class="st1" d="M461.2-1.1c113.3-136.6,226.3-273.7,339.7-410"/>
			<path class="st1" d="M470.7-1.1C580.8-134,690.9-266.8,800.9-399.6"/>
			<path class="st1" d="M480.3-1.2c106.8-129,213.7-258,320.6-386.9"/>
			<path class="st1" d="M489.9-1.2c103.8-125.2,207.3-250.4,311-375.3"/>
			<path class="st1" d="M499.5-1.2C600-122.5,700.4-243.6,800.9-364.9"/>
			<path class="st1" d="M509-1.1C606.4-118.7,703.5-236,800.9-353.4"/>
			<path class="st1" d="M518.6-1.1c94.1-113.8,188.1-227.3,282.3-340.7"/>
			<path class="st1" d="M528.2-1.1c90.8-109.6,182-219.7,272.7-329.2"/>
			<path class="st1" d="M537.8-1.2c87.5-106.1,175.2-212,263.1-317.5"/>
			<path class="st1" d="M547.4-1.2c84.6-101.9,169.1-204,253.5-306"/>
			<path class="st1" d="M556.9-1.1c81.6-98.2,162.7-196.4,244-294.5"/>
			<path class="st1" d="M566.5-1.2c39.8-48.6,79.3-95.8,120.3-145.3c38.8-46.8,76-91.8,114.1-137.5"/>
			<path class="st1" d="M576.1-1.2c74.8-90.5,149.8-180.8,224.8-271.3"/>
			<path class="st1" d="M585.6-1.1c71.9-86.8,143.5-173.2,215.3-259.8"/>
			<path class="st1" d="M595.2-1.2c68.2-82.9,137.3-165.2,205.7-248.2"/>
			<path class="st1" d="M604.8-1.1c65.6-78.7,130.6-157.9,196.1-236.7"/>
			<path class="st1" d="M614.3-1.1c62.4-75,124.2-150.4,186.6-225.2"/>
			<path class="st1" d="M623.9-1.1c58.8-71.5,118.1-142.3,177-213.6"/>
			<path class="st1" d="M633.5-1.1c55.8-67.3,111.7-134.7,167.4-202"/>
			<path class="st1" d="M643.1-1.1C695.6-64.3,748-128.2,800.9-191.6"/>
			<path class="st1" d="M652.6-1.1C702-60.8,751.5-120.6,800.9-180"/>
			<path class="st1" d="M662.2-1.2c46.3-55.9,92.4-111.5,138.7-167.3"/>
			<path class="st1" d="M671.8-1.1c43.4-51.7,85.7-103.9,129.1-155.8"/>
			<path class="st1" d="M681.4-1.1c39.8-48.3,79.6-96.3,119.5-144.2"/>
			<path class="st1" d="M691-1.1c36.6-44.1,73.5-88.6,109.9-132.7"/>
			<path class="st1" d="M700.6-1.2c33.3-40.6,67-80.6,100.4-121.1"/>
			<path class="st1" d="M710.1-1.1c30-36.9,60.6-73,90.8-109.6"/>
			<path class="st1" d="M719.7-1.1c27.1-32.7,54.2-65.4,81.2-98"/>
			<path class="st1" d="M729.2-1.1c24.1-28.5,47.5-57.8,71.7-86.5"/>
			<path class="st1" d="M738.8-1.1c20.6-25.1,41.4-50.2,62.1-74.9"/>
			<path class="st1" d="M748.4-1.1c17.6-21.3,35-42.2,52.5-63.4"/>
			<path class="st1" d="M758-1.1c14-17.8,28.8-34.2,42.9-51.8"/>
			<path class="st1" d="M767.6-1.1c11.1-13.6,22.1-27,33.4-40.3"/>
			<path class="st1" d="M777.1-1.1c8.1-9.5,15.7-19.4,23.8-28.7"/>
			<path class="st1" d="M786.7-1.1c4.9-5.7,9.3-11.7,14.2-17.1"/>
			<path class="st1" d="M796.3-1.1c1.3-2.2,3.2-3.8,4.6-5.6"/>
		</g>
	</g>
</pattern>
<g>
	<path class="st2" d="M693,174c0,7.7-7.2,13.9-14.9,13.9h-26c-7.7,0-13-6.1-13-13.9V73.8H693V174z"/>
	<path class="st2" d="M693,48.9c0-7.7-7.2-14.2-14.9-14.2h-26c-7.7,0-13,6.5-13,14.2v20.6H693V48.9z"/>
	<g class="st3">
		<g>
			<defs>
				<rect id="SVGID_3_" x="639" y="73.7" width="20.4" height="114.3"/>
			</defs>
			<clipPath id="SVGID_4_">
				<use xlink:href="#SVGID_3_"  style="overflow:visible;"/>
			</clipPath>
			<pattern  id="SVGID_5_" xlink:href="#Unnamed_Pattern_21" patternTransform="matrix(1.0203 0 0 -1.0203 328.5557 -2130.2175)">
			</pattern>
			<path class="st4" d="M659.4,73.7H639V174c0,7.7,5.5,14,13.2,14h7.2V73.7z"/>
		</g>
	</g>
	<g class="st3">
		<g>
			<defs>
				<rect id="SVGID_6_" x="639" y="34.9" width="20.4" height="34.5"/>
			</defs>
			<clipPath id="SVGID_7_">
				<use xlink:href="#SVGID_6_"  style="overflow:visible;"/>
			</clipPath>
			<pattern  id="SVGID_8_" xlink:href="#Unnamed_Pattern_21" patternTransform="matrix(1.0203 0 0 -1.0203 328.5557 -2130.2175)">
			</pattern>
			<path class="st5" d="M659.4,34.9h-7.2c-7.7,0-13.2,6.3-13.2,14v20.5h20.4V34.9z"/>
		</g>
	</g>
	<rect x="639.2" y="67.4" width="53.9" height="6.3"/>
	<path class="st2" d="M693,174c0,7.7-7.2,13.9-14.9,13.9h-26c-7.7,0-13-6.1-13-13.9V73.8H693V174z"/>
	<path class="st2" d="M693,48.9c0-7.7-7.2-14.2-14.9-14.2h-26c-7.7,0-13,6.5-13,14.2v20.6H693V48.9z"/>
	<g class="st3">
		<g>
			<defs>
				<rect id="SVGID_9_" x="639" y="73.7" width="20.4" height="114.3"/>
			</defs>
			<clipPath id="SVGID_10_">
				<use xlink:href="#SVGID_9_"  style="overflow:visible;"/>
			</clipPath>
			<pattern  id="SVGID_11_" xlink:href="#Unnamed_Pattern_21" patternTransform="matrix(1.0203 0 0 -1.0203 328.5557 -2130.2175)">
			</pattern>
			<path class="st6" d="M659.4,73.7H639V174c0,7.7,5.5,14,13.2,14h7.2V73.7z"/>
		</g>
	</g>
	<g class="st3">
		<g>
			<defs>
				<rect id="SVGID_12_" x="639" y="34.9" width="20.4" height="34.5"/>
			</defs>
			<clipPath id="SVGID_13_">
				<use xlink:href="#SVGID_12_"  style="overflow:visible;"/>
			</clipPath>
			<pattern  id="SVGID_14_" xlink:href="#Unnamed_Pattern_21" patternTransform="matrix(1.0203 0 0 -1.0203 328.5557 -2130.2175)">
			</pattern>
			<path class="st7" d="M659.4,34.9h-7.2c-7.7,0-13.2,6.3-13.2,14v20.5h20.4V34.9z"/>
		</g>
	</g>
	<rect x="639.2" y="67.4" width="53.9" height="6.3"/>
</g>
<g>
	<path class="st8" d="M150,175.1c0,0-62.7,1.8-72.2-1c-9.5-2.9-33.1-8.6-37-6.7c0,0,26.2-31.3,109.2-16"/>
	<path class="st9" d="M235.2,154c-3.3,0-6.1-3.7-7.5-3.8c-5.1-0.4-7.6,4-10.9,4c-3.3,0-6.1-3.9-7.5-4c-5.5-0.6-7.6,4-10.9,4
		c-3.3,0-6.1-3.9-7.5-4c-6-0.6-7.6,3.8-10.9,3.8c-3.3,0-6.1-4.2-7.5-4.2c-4.2,0.1-16.8,1.1-16.8,1.1c-2.2,0-2.2,24.8,0,24.8
		c0,0,60.4,4.1,97.2-3.8c1.7-0.4,1.1-20.4,1.1-20.4c0-1.5-9.4-1-9.4-1C243.1,150.6,238.4,154,235.2,154"/>
	<rect x="150" y="151.4" class="st10" width="5.5" height="24.3"/>
	<g class="st3">
		<g>
			<defs>
				<rect id="SVGID_15_" x="155.4" y="163.2" width="98.5" height="13.6"/>
			</defs>
			<clipPath id="SVGID_16_">
				<use xlink:href="#SVGID_15_"  style="overflow:visible;"/>
			</clipPath>
			<pattern  id="SVGID_17_" xlink:href="#Unnamed_Pattern_21" patternTransform="matrix(1.0203 0 0 -1.0203 327.5557 -2133.4402)">
			</pattern>
			<path class="st11" d="M155.6,163.4c0,0,0,12.5-0.1,12.3c0,0,60.5,4.1,97.3-3.8c0.7-0.2,1-4.3,1.2-8.7L155.6,163.4z"/>
		</g>
	</g>
	<path class="st12" d="M40,167.4c1.7-0.9,7.5-0.2,14.1,1.1c15.8-7.5,46.1-15.3,95.9-9v-8.1C67.1,136.1,40,167.4,40,167.4"/>
</g>
<path class="st9" d="M588,97.3c-5.4,0-9.7-4.4-9.7-9.7c0-5.3,4.4-9.7,9.7-9.7c5.4,0,9.7,4.4,9.7,9.7C597.7,93,593.4,97.3,588,97.3
	 M588,82.5c-2.8,0-5.1,2.3-5.1,5.1c0,2.8,2.3,5.1,5.1,5.1c2.8,0,5.1-2.3,5.1-5.1C593.1,84.8,590.8,82.5,588,82.5"/>
<path class="st9" d="M553.8,137.8c0-18.9,15.3-34.2,34.2-34.2c18.9,0,34.2,15.3,34.2,34.2s-15.3,34.2-34.2,34.2
	C569.1,172.1,553.8,156.7,553.8,137.8"/>
<g class="st3">
	<g>
		<defs>
			<rect id="SVGID_18_" x="554.6" y="109.1" width="59.6" height="62.1"/>
		</defs>
		<clipPath id="SVGID_19_">
			<use xlink:href="#SVGID_18_"  style="overflow:visible;"/>
		</clipPath>
		<pattern  id="SVGID_20_" xlink:href="#Unnamed_Pattern_21" patternTransform="matrix(1.0203 0 0 -1.0203 328.5557 -2130.2175)">
		</pattern>
		<path class="st13" d="M597.1,163.3c-18.5,0-33.4-15-33.4-33.4c0-7.8,2.7-15,7.2-20.7c-9.8,5.8-16.4,16.5-16.4,28.7
			c0,18.5,15,33.4,33.4,33.4c10.6,0,20.1-5,26.2-12.7C609.2,161.5,603.4,163.3,597.1,163.3"/>
	</g>
</g>
<path class="st14" d="M562.2,137.8c0-14.2,11.6-25.8,25.8-25.8c14.2,0,25.8,11.5,25.8,25.8s-11.6,25.8-25.8,25.8
	C573.8,163.6,562.2,152.1,562.2,137.8"/>
<polygon class="st15" points="590.4,139.9 612.8,138 590.3,136.2 588.5,113.8 586.7,136.3 564.2,138.1 586.7,139.9 588.6,162.4 "/>
<polygon class="st16" points="587.1,136.5 604.3,119 590.3,139.2 "/>
<polygon class="st17" points="587.1,136.5 573.1,156.7 590.3,139.2 "/>
<rect x="584.1" y="89.4" class="st10" width="6.7" height="19"/>
<g>
	<defs>
		<polygon id="SVGID_21_" points="1261.2,44.5 1261.2,254.7 1304.6,243.1 1291.1,32.4 		"/>
	</defs>
	<clipPath id="SVGID_22_">
		<use xlink:href="#SVGID_21_"  style="overflow:visible;"/>
	</clipPath>
	<defs>
		<filter id="Adobe_OpacityMaskFilter" filterUnits="userSpaceOnUse" x="1261.2" y="32.4" width="43.4" height="222.3">
			<feColorMatrix  type="matrix" values="1 0 0 0 0  0 1 0 0 0  0 0 1 0 0  0 0 0 1 0"/>
		</filter>
	</defs>
	<mask maskUnits="userSpaceOnUse" x="1261.2" y="32.4" width="43.4" height="222.3" id="SVGID_23_">
		<g class="st18">
			
				<linearGradient id="SVGID_24_" gradientUnits="userSpaceOnUse" x1="324.9063" y1="482.3987" x2="325.9997" y2="482.3987" gradientTransform="matrix(39.668 0 0 -39.668 -11627.1904 19279.3828)">
				<stop  offset="0" style="stop-color:#000000"/>
				<stop  offset="0.528" style="stop-color:#191919"/>
				<stop  offset="0.9935" style="stop-color:#333333"/>
				<stop  offset="1" style="stop-color:#333333"/>
			</linearGradient>
			<rect x="1261.2" y="32.4" class="st19" width="43.4" height="222.3"/>
		</g>
	</mask>
	
		<linearGradient id="SVGID_25_" gradientUnits="userSpaceOnUse" x1="324.9063" y1="482.3987" x2="325.9997" y2="482.3987" gradientTransform="matrix(39.668 0 0 -39.668 -11627.1904 19279.3828)">
		<stop  offset="0" style="stop-color:#000000"/>
		<stop  offset="0.9935" style="stop-color:#000000"/>
		<stop  offset="1" style="stop-color:#000000"/>
	</linearGradient>
	<rect x="1261.2" y="32.4" class="st20" width="43.4" height="222.3"/>
</g>
<g>
	<path class="st21" d="M1342.1,197.3c0,7.4-6,13.4-13.4,13.4h-22.4c-7.4,0-13.4-6-13.4-13.4v-35.5c0-7.4,6-13.4,13.4-13.4h22.4
		c7.4,0,13.4,6,13.4,13.4V197.3z"/>
	<path class="st22" d="M1347.6,176.5c0,7.4-6,13.4-13.4,13.4h-34.5c-7.4,0-13.4-6-13.4-13.4v-18.1c0-7.4,6-13.4,13.4-13.4h34.5
		c7.4,0,13.4,6,13.4,13.4V176.5z"/>
	<rect x="1292.9" y="60.9" class="st23" width="49.2" height="5.5"/>
	<rect x="1292.9" y="75.1" class="st23" width="49.2" height="5.5"/>
	<rect x="1292.9" y="89.3" class="st23" width="49.2" height="5.5"/>
	<path class="st24" d="M1388,245.4c0,7.4-6,13.4-13.4,13.4h-114.3c-7.4,0-13.4-6-13.4-13.4V54.6c0-7.4,6-13.4,13.4-13.4h114.3
		c7.4,0,13.4,6,13.4,13.4V245.4z"/>
	<g class="st3">
		<g>
			<defs>
				<rect id="SVGID_26_" x="1246.8" y="41.2" width="31.3" height="217.5"/>
			</defs>
			<clipPath id="SVGID_27_">
				<use xlink:href="#SVGID_26_"  style="overflow:visible;"/>
			</clipPath>
			<pattern  id="SVGID_28_" xlink:href="#Unnamed_Pattern_21" patternTransform="matrix(1.0203 0 0 -1.0203 328.3887 -2130.6082)">
			</pattern>
			<path class="st25" d="M1278.1,41.2h-17.9c-7.4,0-13.4,6-13.4,13.4v190.7c0,7.4,6,13.4,13.4,13.4h17.9V41.2z"/>
		</g>
	</g>
	<path class="st10" d="M1349.8,129.8c0,3.6-2.9,6.5-6.5,6.5h-51.4c-3.6,0-6.5-2.9-6.5-6.5v-93c0-3.6,2.9-6.5,6.5-6.5h51.4
		c3.6,0,6.5,2.9,6.5,6.5V129.8z"/>
	<path class="st9" d="M1247,153.8h-11.6c-4,0-7,2.7-7,5.4V229c0,2.7,2.9,4.6,7,4.6h11.6V153.8z"/>
	<path class="st10" d="M1247,195.3v-53.6h-14.3c-5,0-8.7,4.3-8.7,9.3v44.3H1247z"/>
	<path class="st9" d="M1388,153.8h11.2c4.1,0,7.4,2.7,7.4,5.4V229c0,2.7-3.4,4.6-7.4,4.6H1388V153.8z"/>
	<path class="st10" d="M1388,195.3v-53.6h13.8c5,0,9.1,4.3,9.1,9.3v44.3H1388z"/>
	<rect x="1265.6" y="41.2" class="st26" width="10.9" height="114.8"/>
	<rect x="1357.4" y="41.2" class="st26" width="9.8" height="114.8"/>
	<path class="st9" d="M1342.1,197.3c0,7.4-6,13.4-13.4,13.4h-22.4c-7.4,0-13.4-6-13.4-13.4v-35.5c0-7.4,6-13.4,13.4-13.4h22.4
		c7.4,0,13.4,6,13.4,13.4V197.3z"/>
	<rect x="1292.9" y="60.9" class="st27" width="49.2" height="5.5"/>
	<rect x="1292.9" y="169.1" class="st27" width="49.2" height="5.5"/>
	<rect x="1228.4" y="195.3" class="st27" width="18.6" height="5.5"/>
	<g class="st3">
		<g>
			<defs>
				<rect id="SVGID_29_" x="1224" y="142.1" width="12" height="91.5"/>
			</defs>
			<clipPath id="SVGID_30_">
				<use xlink:href="#SVGID_29_"  style="overflow:visible;"/>
			</clipPath>
			<pattern  id="SVGID_31_" xlink:href="#Unnamed_Pattern_21" patternTransform="matrix(1.0203 0 0 -1.0203 328.5557 -2130.2175)">
			</pattern>
			<path class="st28" d="M1236,142.1c-5.5,0-12,4-12,9v44.3h4.4v5.8V229c0,2.7,3.3,4.5,7.7,4.5V142.1z"/>
		</g>
	</g>
	<rect x="1388" y="195.3" class="st27" width="18.6" height="5.5"/>
	<g class="st3">
		<g>
			<defs>
				<rect id="SVGID_32_" x="1388" y="142.1" width="8.7" height="91.5"/>
			</defs>
			<clipPath id="SVGID_33_">
				<use xlink:href="#SVGID_32_"  style="overflow:visible;"/>
			</clipPath>
			<pattern  id="SVGID_34_" xlink:href="#Unnamed_Pattern_21" patternTransform="matrix(1.0203 0 0 -1.0203 328.9814 -2130.2175)">
			</pattern>
			<rect x="1388" y="142.1" class="st29" width="8.7" height="91.5"/>
		</g>
	</g>
	<rect x="1292.9" y="75.1" class="st27" width="49.2" height="5.5"/>
	<rect x="1292.9" y="89.3" class="st27" width="49.2" height="5.5"/>
	<rect x="1264.5" y="156" class="st9" width="14.2" height="13.1"/>
	<rect x="1355.2" y="156" class="st9" width="13.1" height="13.1"/>
	<path class="st10" d="M1347.6,169.1v-10.3c0-7.4-6.2-13.7-13.6-13.7h-34.6c-7.4,0-13.1,6.3-13.1,13.7v10.3H1347.6z"/>
	<g class="st3">
		<g>
			<defs>
				<rect id="SVGID_35_" x="1284.9" y="30.5" width="22.8" height="106"/>
			</defs>
			<clipPath id="SVGID_36_">
				<use xlink:href="#SVGID_35_"  style="overflow:visible;"/>
			</clipPath>
			<pattern  id="SVGID_37_" xlink:href="#Unnamed_Pattern_21" patternTransform="matrix(1.0203 0 0 -1.0203 328.5557 -2130.2175)">
			</pattern>
			<path class="st30" d="M1307.7,30.5h-16.3c-3.6,0-6.5,2.9-6.5,6.5v92.9c0,3.6,2.9,6.5,6.5,6.5h16.3V30.5z"/>
		</g>
	</g>
	<g class="st3">
		<g>
			<defs>
				<rect id="SVGID_38_" x="1286" y="145" width="21.7" height="65.8"/>
			</defs>
			<clipPath id="SVGID_39_">
				<use xlink:href="#SVGID_38_"  style="overflow:visible;"/>
			</clipPath>
			<pattern  id="SVGID_40_" xlink:href="#Unnamed_Pattern_21" patternTransform="matrix(1.0203 0 0 -1.0203 328.5557 -2130.5398)">
			</pattern>
			<path class="st31" d="M1307.7,145h-8.3c-7.4,0-13.4,6-13.4,13.4l0.1,10.8h6.9c0,5-0.3,28.2-0.3,28.2c0,7.4,6,13.4,13.4,13.4h1.6
				V145z"/>
		</g>
	</g>
</g>
</svg>
