<svg xmlns="http://www.w3.org/2000/svg" viewBox="0 0 422.96 581.67"><defs><style>.cls-1{fill:#fff;}</style></defs><title>footer</title><g id="Layer_1" data-name="Layer 1"><path class="cls-1" d="M564.6,415.83A209.19,209.19,0,0,0,608,287.1c-.22-114.77-93.74-209.44-208.47-211A211.47,211.47,0,0,0,224.18,410.14l0,0,1.7,2.32.11.15,3.11,4.23,0-.06A211.09,211.09,0,0,0,396.48,499a210.27,210.27,0,0,0,162.9-76.63l0,.08,3.39-4.3.73-1,1.06-1.35ZM193,287.53c0-113.16,92.85-205,206.38-203.47C509.77,85.6,599.75,176.69,600,287.12a201.25,201.25,0,0,1-40.09,121.72l-47.44-69.91-18.1-66.75-40.28-54.09h0l-59.22-49.54-57,89.6-36.75,11.49-23,72.46-48.7,61.52A201.82,201.82,0,0,1,193,287.53M403.26,318.8l-33.89,50.85-97.73,39.54-27.82-4.54,45.07-52.83h0l23.72-67.23,33.9-12.71,50.84-80.5L433.59,222h0l21.44,22,22.21,34.65Z" transform="translate(-185 -76.04)"/><path class="cls-1" d="M194.61,558.75q0-16.62,7.31-25.6t20.91-9a29.22,29.22,0,0,1,12.44,2.47,23.41,23.41,0,0,1,8.83,7,30.62,30.62,0,0,1,5.23,10.92A54.63,54.63,0,0,1,251,558.75q0,16.62-7.36,25.6t-20.85,9a29.44,29.44,0,0,1-12.54-2.47,23.05,23.05,0,0,1-8.79-7,31.24,31.24,0,0,1-5.18-10.92A54.63,54.63,0,0,1,194.61,558.75Zm13.68,0a46.66,46.66,0,0,0,.86,9.26,23.48,23.48,0,0,0,2.61,7.27,13.22,13.22,0,0,0,4.51,4.75,12.19,12.19,0,0,0,6.56,1.71,12.36,12.36,0,0,0,10.73-5.41q3.8-5.43,3.8-17.58a47.53,47.53,0,0,0-.81-9,25.56,25.56,0,0,0-2.51-7.31,13.07,13.07,0,0,0-4.47-4.89,13.37,13.37,0,0,0-17.48,3.8Q208.3,546.87,208.29,558.75Z" transform="translate(-185 -76.04)"/><path class="cls-1" d="M271.94,544.5v27q0,5.79,1.38,8.36t5.37,2.57a8.45,8.45,0,0,0,5.84-2.09,13,13,0,0,0,3.47-5.14V544.5h12.34v33.06a73.92,73.92,0,0,0,.39,7.65,48.74,48.74,0,0,0,1.13,6.79h-9.31l-2.18-7H290a17.79,17.79,0,0,1-6.08,6,17.4,17.4,0,0,1-9.22,2.37,20.5,20.5,0,0,1-6.46-1,10.65,10.65,0,0,1-4.75-3.13,14.7,14.7,0,0,1-2.89-5.89,36.41,36.41,0,0,1-1-9.32V544.5Z" transform="translate(-185 -76.04)"/><path class="cls-1" d="M306.23,544.5h6.56v-8.93l12.35-3.52V544.5h11.59V555H325.14v18.24q0,4.93,1,7.08a3.75,3.75,0,0,0,3.75,2.14,12.58,12.58,0,0,0,3.28-.38,23.35,23.35,0,0,0,3.08-1.15l2.19,9.5a30.3,30.3,0,0,1-6,2.09,28.47,28.47,0,0,1-6.93.86q-6.56,0-9.64-3.37t-3.09-11.07V555h-6.56Z" transform="translate(-185 -76.04)"/><path class="cls-1" d="M384.7,575.28c0,2.66,0,5.32.1,8a68.15,68.15,0,0,0,.85,8.83h-8.83l-1.71-6.17h-.38a14.38,14.38,0,0,1-5.46,5.37,16.66,16.66,0,0,1-8.41,2q-8.92,0-13.87-5.89T342.05,569q0-12.16,5.51-18.9t16.15-6.75a29.09,29.09,0,0,1,4.84.33,19.25,19.25,0,0,1,3.8,1.1V525.5H384.7Zm-21,7.6a8.58,8.58,0,0,0,5.7-1.76,9.49,9.49,0,0,0,2.94-5.08V555.9a9.26,9.26,0,0,0-2.94-1.57,14.17,14.17,0,0,0-4.18-.52c-3.48,0-6.1,1.17-7.84,3.52s-2.61,6.36-2.61,12.06c0,4.05.71,7.32,2.14,9.78A7.27,7.27,0,0,0,363.71,582.88Z" transform="translate(-185 -76.04)"/><path class="cls-1" d="M393.25,568.25q0-12.06,5.89-18.57t16.53-6.51a24.83,24.83,0,0,1,9.88,1.8,18.51,18.51,0,0,1,6.94,5.09,21.84,21.84,0,0,1,4.13,7.93A36,36,0,0,1,438,568.25q0,12.06-5.84,18.57t-16.49,6.51a24.86,24.86,0,0,1-9.88-1.8,19,19,0,0,1-7-5.09,21.32,21.32,0,0,1-4.18-7.93A36,36,0,0,1,393.25,568.25Zm12.73,0a27.59,27.59,0,0,0,.57,5.79,16.11,16.11,0,0,0,1.71,4.66,8.25,8.25,0,0,0,3,3.09,8.49,8.49,0,0,0,4.41,1.09,8.12,8.12,0,0,0,7.22-3.51q2.39-3.52,2.38-11.12,0-6.56-2.19-10.59t-7.41-4a8.39,8.39,0,0,0-7.12,3.42Q406,560.46,406,568.25Z" transform="translate(-185 -76.04)"/><path class="cls-1" d="M444.27,568.25q0-12.06,5.89-18.57t16.53-6.51a24.86,24.86,0,0,1,9.88,1.8,18.55,18.55,0,0,1,6.93,5.09,21.53,21.53,0,0,1,4.13,7.93A36,36,0,0,1,489,568.25q0,12.06-5.84,18.57t-16.48,6.51a24.83,24.83,0,0,1-9.88-1.8,18.93,18.93,0,0,1-7-5.09,21.47,21.47,0,0,1-4.18-7.93A36.33,36.33,0,0,1,444.27,568.25Zm12.73,0a27.59,27.59,0,0,0,.57,5.79,16.11,16.11,0,0,0,1.71,4.66,8.23,8.23,0,0,0,3,3.09,8.52,8.52,0,0,0,4.42,1.09,8.13,8.13,0,0,0,7.22-3.51q2.37-3.52,2.37-11.12,0-6.56-2.18-10.59t-7.41-4a8.41,8.41,0,0,0-7.13,3.42Q457,560.46,457,568.25Z" transform="translate(-185 -76.04)"/><path class="cls-1" d="M523.78,556.09a16,16,0,0,0-5.32-1.05,8.72,8.72,0,0,0-5.56,1.76,8.51,8.51,0,0,0-3,4.52V592H497.56V544.5h9.6l1.42,6.27H509a12.92,12.92,0,0,1,4.37-5.41,11.08,11.08,0,0,1,6.46-1.9,17.86,17.86,0,0,1,5.61,1Z" transform="translate(-185 -76.04)"/><path class="cls-1" d="M543.63,576a10.29,10.29,0,0,0,.86,4.84,2.92,2.92,0,0,0,2.76,1.53,12.75,12.75,0,0,0,2.23-.2,13.27,13.27,0,0,0,2.71-.85l1.33,9.69a23.62,23.62,0,0,1-4.66,1.52,27.13,27.13,0,0,1-6.46.76c-3.61,0-6.36-.84-8.27-2.52s-2.84-4.45-2.84-8.31v-57h12.34Z" transform="translate(-185 -76.04)"/><path class="cls-1" d="M576.12,571.2l1.71,7.41h.57l1.24-7.51,7.22-26.6h12.73l-14.44,42.84q-1.8,5.32-3.47,9.74a44.06,44.06,0,0,1-3.66,7.65,17.44,17.44,0,0,1-4.41,5,9.54,9.54,0,0,1-5.75,1.75,16.44,16.44,0,0,1-7.89-1.61l2.28-9.88a7.62,7.62,0,0,0,2.85.57,6.28,6.28,0,0,0,4.23-1.85q2-1.86,3.09-6.7l-19.86-47.5h14.82Z" transform="translate(-185 -76.04)"/><path class="cls-1" d="M210.77,621.3h7V657h-7Z" transform="translate(-185 -76.04)"/><path class="cls-1" d="M255,627.52h-10.4V657h-7V627.52H227.2V621.3H255Z" transform="translate(-185 -76.04)"/><path class="cls-1" d="M263.66,624.16a3.09,3.09,0,0,1,1-2.4,3.57,3.57,0,0,1,2.52-.92,3.68,3.68,0,0,1,2.91,1.23,4.7,4.7,0,0,1,1.07,3.21,8.18,8.18,0,0,1-2.17,5.84,7.38,7.38,0,0,1-1.89,1.48,16.36,16.36,0,0,1-1.65.79l-1.69-2.81a6.07,6.07,0,0,0,1.81-1.22,3,3,0,0,0,.9-1.94,2.6,2.6,0,0,1-1.92-.79A3.26,3.26,0,0,1,263.66,624.16Z" transform="translate(-185 -76.04)"/><path class="cls-1" d="M296.66,647.41a3.31,3.31,0,0,0-1.2-2.65,13.15,13.15,0,0,0-3-1.86q-1.81-.84-3.93-1.74A19.44,19.44,0,0,1,284.6,639a11.1,11.1,0,0,1-3-3.24,9.25,9.25,0,0,1-1.2-4.94,10.85,10.85,0,0,1,.87-4.52,8.52,8.52,0,0,1,2.47-3.19,10.83,10.83,0,0,1,3.8-1.88,18.08,18.08,0,0,1,4.89-.61,30.51,30.51,0,0,1,5.87.53,15,15,0,0,1,4.54,1.56l-2.19,5.86a12.44,12.44,0,0,0-3.37-1.3,19.19,19.19,0,0,0-4.85-.58,6.2,6.2,0,0,0-3.74,1,3.08,3.08,0,0,0-1.3,2.6,3.21,3.21,0,0,0,1.19,2.56,14.15,14.15,0,0,0,3,1.88c1.21.58,2.52,1.17,3.93,1.79a21,21,0,0,1,3.93,2.22,11.25,11.25,0,0,1,3,3.21,8.88,8.88,0,0,1,1.2,4.77,11.77,11.77,0,0,1-.95,4.92,9.31,9.31,0,0,1-2.65,3.44,11.18,11.18,0,0,1-4.13,2,20.26,20.26,0,0,1-5.33.66,28.14,28.14,0,0,1-6.73-.71,20.65,20.65,0,0,1-4.29-1.43l2.25-6a14.22,14.22,0,0,0,1.45.66,17.57,17.57,0,0,0,2,.66,22.63,22.63,0,0,0,2.38.51,15.46,15.46,0,0,0,2.57.2,8.94,8.94,0,0,0,4.77-1A3.53,3.53,0,0,0,296.66,647.41Z" transform="translate(-185 -76.04)"/><path class="cls-1" d="M331.34,621.3H352.5v6.22H338.32v8.82h13.06v6.23H338.32V657h-7Z" transform="translate(-185 -76.04)"/><path class="cls-1" d="M361.17,639.15q0-8.92,3.93-13.74t11.22-4.82a15.77,15.77,0,0,1,6.68,1.32,12.54,12.54,0,0,1,4.74,3.78,16.38,16.38,0,0,1,2.81,5.86,29.37,29.37,0,0,1,.92,7.6q0,8.93-4,13.74t-11.19,4.82a15.91,15.91,0,0,1-6.73-1.32,12.33,12.33,0,0,1-4.72-3.78,16.68,16.68,0,0,1-2.78-5.86A29.37,29.37,0,0,1,361.17,639.15Zm7.35,0a24.78,24.78,0,0,0,.46,5,12.51,12.51,0,0,0,1.4,3.9,7.07,7.07,0,0,0,2.42,2.55,6.48,6.48,0,0,0,3.52.92,6.62,6.62,0,0,0,5.76-2.91c1.36-1.93,2-5.08,2-9.43a25.59,25.59,0,0,0-.43-4.85,13.6,13.6,0,0,0-1.35-3.92,7,7,0,0,0-2.4-2.63,7.19,7.19,0,0,0-9.38,2Q368.52,632.78,368.52,639.15Z" transform="translate(-185 -76.04)"/><path class="cls-1" d="M401.51,621.66c.79-.14,1.63-.27,2.53-.39s1.8-.21,2.7-.28l2.63-.15c.85,0,1.63-.05,2.34-.05a26.14,26.14,0,0,1,4.93.46,13.22,13.22,0,0,1,4.33,1.58,8.4,8.4,0,0,1,3.06,3.09,9.55,9.55,0,0,1,1.15,4.92,11.71,11.71,0,0,1-2,7.14,10.51,10.51,0,0,1-5.46,3.82l2.5,1.58L428.34,657h-8.06l-8.11-14-3.67-.67V657h-7ZM412.22,627c-.71,0-1.42,0-2.11,0a8.55,8.55,0,0,0-1.61.21v10.35h3a7.41,7.41,0,0,0,4.64-1.33c1.16-.88,1.73-2.34,1.73-4.38a4.63,4.63,0,0,0-1.42-3.6A6.08,6.08,0,0,0,412.22,627Z" transform="translate(-185 -76.04)"/><path class="cls-1" d="M455.32,621.66c1.43-.27,3-.49,4.72-.64s3.42-.23,5.12-.23a33.12,33.12,0,0,1,5.33.43,13.23,13.23,0,0,1,4.82,1.74,10,10,0,0,1,3.49,3.62,11.92,11.92,0,0,1,1.36,6,12.54,12.54,0,0,1-1.18,5.69,10.86,10.86,0,0,1-3.11,3.8,12.57,12.57,0,0,1-4.41,2.14,19.82,19.82,0,0,1-5.13.66h-.81c-.38,0-.77,0-1.18,0s-.8,0-1.19-.08-.68-.07-.85-.1V657h-7Zm10.4,5.15c-.68,0-1.32,0-1.94.07s-1.1.12-1.48.18v11.58a5.74,5.74,0,0,0,.62.1c.27,0,.56.06.86.08s.61,0,.9,0h.63a14.67,14.67,0,0,0,2.73-.25,6.87,6.87,0,0,0,2.42-.94,4.84,4.84,0,0,0,1.71-1.92,6.86,6.86,0,0,0,.64-3.21,5.64,5.64,0,0,0-.61-2.78,5.06,5.06,0,0,0-1.61-1.76,6.28,6.28,0,0,0-2.27-.92A13.17,13.17,0,0,0,465.72,626.81Z" transform="translate(-185 -76.04)"/><path class="cls-1" d="M489.64,621.66c.78-.14,1.63-.27,2.53-.39s1.8-.21,2.7-.28l2.63-.15c.85,0,1.63-.05,2.34-.05a26,26,0,0,1,4.92.46,13.28,13.28,0,0,1,4.34,1.58,8.55,8.55,0,0,1,3.06,3.09,9.65,9.65,0,0,1,1.15,4.92,11.71,11.71,0,0,1-2,7.14,10.51,10.51,0,0,1-5.46,3.82l2.5,1.58L516.47,657h-8.06l-8.11-14-3.67-.67V657h-7ZM500.35,627c-.71,0-1.42,0-2.11,0a8.43,8.43,0,0,0-1.61.21v10.35h3a7.41,7.41,0,0,0,4.64-1.33Q506,635,506,631.91a4.63,4.63,0,0,0-1.42-3.6A6.08,6.08,0,0,0,500.35,627Z" transform="translate(-185 -76.04)"/><path class="cls-1" d="M522.59,639.15q0-8.92,3.93-13.74t11.22-4.82a15.8,15.8,0,0,1,6.68,1.32,12.62,12.62,0,0,1,4.74,3.78,16.36,16.36,0,0,1,2.8,5.86,28.94,28.94,0,0,1,.92,7.6q0,8.93-4,13.74t-11.19,4.82a16,16,0,0,1-6.74-1.32,12.37,12.37,0,0,1-4.71-3.78,16.51,16.51,0,0,1-2.78-5.86A28.94,28.94,0,0,1,522.59,639.15Zm7.34,0a24.78,24.78,0,0,0,.46,5,12.77,12.77,0,0,0,1.4,3.9,7.1,7.1,0,0,0,2.43,2.55,6.46,6.46,0,0,0,3.52.92,6.62,6.62,0,0,0,5.76-2.91c1.36-1.93,2-5.08,2-9.43a25.57,25.57,0,0,0-.44-4.85,13,13,0,0,0-1.35-3.92,7.09,7.09,0,0,0-2.39-2.63,7.2,7.2,0,0,0-9.39,2Q529.93,632.78,529.93,639.15Z" transform="translate(-185 -76.04)"/><path class="cls-1" d="M578.33,647.41a3.31,3.31,0,0,0-1.2-2.65,13.15,13.15,0,0,0-3-1.86c-1.2-.56-2.51-1.14-3.92-1.74a19.79,19.79,0,0,1-3.93-2.19,11.1,11.1,0,0,1-3-3.24,9.25,9.25,0,0,1-1.2-4.94,10.85,10.85,0,0,1,.87-4.52,8.62,8.62,0,0,1,2.47-3.19,10.83,10.83,0,0,1,3.8-1.88,18.16,18.16,0,0,1,4.9-.61,30.41,30.41,0,0,1,5.86.53,15,15,0,0,1,4.54,1.56l-2.19,5.86a12.44,12.44,0,0,0-3.37-1.3,19.11,19.11,0,0,0-4.84-.58,6.26,6.26,0,0,0-3.75,1,3.08,3.08,0,0,0-1.3,2.6,3.22,3.22,0,0,0,1.2,2.56,13.9,13.9,0,0,0,3,1.88c1.2.58,2.51,1.17,3.92,1.79a21,21,0,0,1,3.93,2.22,11.12,11.12,0,0,1,3,3.21,8.79,8.79,0,0,1,1.2,4.77,11.93,11.93,0,0,1-.94,4.92,9.33,9.33,0,0,1-2.66,3.44,11.11,11.11,0,0,1-4.13,2,20.21,20.21,0,0,1-5.33.66,28.19,28.19,0,0,1-6.73-.71,20.31,20.31,0,0,1-4.28-1.43l2.24-6a15.31,15.31,0,0,0,1.45.66,17.77,17.77,0,0,0,2,.66,23,23,0,0,0,2.37.51,15.5,15.5,0,0,0,2.58.2,8.92,8.92,0,0,0,4.76-1A3.51,3.51,0,0,0,578.33,647.41Z" transform="translate(-185 -76.04)"/></g></svg>