<svg xmlns="http://www.w3.org/2000/svg" width="24" height="24" viewBox="0 0 24 24">
  <metadata><?xpacket begin="﻿" id="W5M0MpCehiHzreSzNTczkc9d"?>
<x:xmpmeta xmlns:x="adobe:ns:meta/" x:xmptk="Adobe XMP Core 5.6-c140 79.160451, 2017/05/06-01:08:21        ">
   <rdf:RDF xmlns:rdf="http://www.w3.org/1999/02/22-rdf-syntax-ns#">
      <rdf:Description rdf:about=""/>
   </rdf:RDF>
</x:xmpmeta>
                                                                                                    
                                                                                                    
                                                                                                    
                                                                                                    
                                                                                                    
                                                                                                    
                                                                                                    
                                                                                                    
                                                                                                    
                                                                                                    
                                                                                                    
                                                                                                    
                                                                                                    
                                                                                                    
                                                                                                    
                                                                                                    
                                                                                                    
                                                                                                    
                                                                                                    
                                                                                                    
                           
<?xpacket end="w"?></metadata>
<defs>
    <style>
      .cls-1 {
        fill: #fff;
        fill-rule: evenodd;
      }
    </style>
  </defs>
  <path id="Instagram" class="cls-1" d="M22.924,16.811a7.694,7.694,0,0,1-.488,2.547,5.358,5.358,0,0,1-3.067,3.067,7.709,7.709,0,0,1-2.546.487c-1.119.051-1.476,0.062-4.324,0.062s-3.206-.011-4.325-0.062a7.709,7.709,0,0,1-2.546-.487A5.363,5.363,0,0,1,2.56,19.358a7.711,7.711,0,0,1-.488-2.547c-0.051-1.118-.063-1.476-0.063-4.324s0.013-3.207.063-4.325A7.686,7.686,0,0,1,2.56,5.618,5.121,5.121,0,0,1,3.77,3.76,5.135,5.135,0,0,1,5.627,2.549a7.69,7.69,0,0,1,2.546-.486C9.292,2.01,9.65,2,12.5,2s3.206,0.012,4.324.064a7.69,7.69,0,0,1,2.546.486,5.365,5.365,0,0,1,3.067,3.069,7.669,7.669,0,0,1,.488,2.545c0.051,1.118.063,1.476,0.063,4.325S22.974,15.693,22.924,16.811ZM20.988,8.272a5.793,5.793,0,0,0-.359-1.937,3.239,3.239,0,0,0-.781-1.2,3.217,3.217,0,0,0-1.2-.78A5.752,5.752,0,0,0,16.713,4c-1.1-.05-1.429-0.062-4.215-0.062S9.383,3.947,8.282,4a5.752,5.752,0,0,0-1.937.359,3.222,3.222,0,0,0-1.2.78,3.248,3.248,0,0,0-.781,1.2,5.8,5.8,0,0,0-.358,1.937c-0.05,1.1-.061,1.429-0.061,4.216S3.958,15.6,4.008,16.7a5.789,5.789,0,0,0,.358,1.937,3.462,3.462,0,0,0,1.98,1.981,5.8,5.8,0,0,0,1.937.359c1.1,0.049,1.43.06,4.216,0.06s3.115-.011,4.215-0.06a5.8,5.8,0,0,0,1.937-.359,3.461,3.461,0,0,0,1.98-1.981,5.786,5.786,0,0,0,.359-1.937c0.05-1.1.061-1.428,0.061-4.213S21.039,9.372,20.988,8.272Zm-2.954,0a1.259,1.259,0,1,1,1.259-1.258A1.258,1.258,0,0,1,18.034,8.271Zm-5.521,9.742A5.511,5.511,0,1,1,18.024,12.5,5.511,5.511,0,0,1,12.513,18.014Zm0-9.088A3.577,3.577,0,1,0,16.091,12.5,3.578,3.578,0,0,0,12.513,8.926Z"/>
</svg>
