<svg xmlns="http://www.w3.org/2000/svg" width="15" height="15" viewBox="0 0 15 15">
  <metadata><?xpacket begin="﻿" id="W5M0MpCehiHzreSzNTczkc9d"?>
<x:xmpmeta xmlns:x="adobe:ns:meta/" x:xmptk="Adobe XMP Core 5.6-c140 79.160451, 2017/05/06-01:08:21        ">
   <rdf:RDF xmlns:rdf="http://www.w3.org/1999/02/22-rdf-syntax-ns#">
      <rdf:Description rdf:about=""/>
   </rdf:RDF>
</x:xmpmeta>
                                                                                                    
                                                                                                    
                                                                                                    
                                                                                                    
                                                                                                    
                                                                                                    
                                                                                                    
                                                                                                    
                                                                                                    
                                                                                                    
                                                                                                    
                                                                                                    
                                                                                                    
                                                                                                    
                                                                                                    
                                                                                                    
                                                                                                    
                                                                                                    
                                                                                                    
                                                                                                    
                           
<?xpacket end="w"?></metadata>
<defs>
    <style>
      .cls-1 {
        fill: #1a1b1c;
        fill-rule: evenodd;
      }
    </style>
  </defs>
  <path id="_" data-name="#" class="cls-1" d="M13.718,10.245a0.844,0.844,0,0,1-.748.708H4.026a0.842,0.842,0,0,1-.748-0.706L1.393,0.882,0.31,0.775C0,0.742,0,.617,0,0.355A0.305,0.305,0,0,1,.363,0L2.107,0.013a0.237,0.237,0,0,1,.19.2l0.6,2.762H14.24a0.733,0.733,0,0,1,.749.872ZM3.176,3.976H3.036l1.2,5.977h8.518l1.187-5.977H3.176ZM5.484,12a1.5,1.5,0,1,1-1.5,1.5A1.5,1.5,0,0,1,5.484,12Zm0,2a0.5,0.5,0,1,0-.5-0.5A0.5,0.5,0,0,0,5.484,14Zm6-2a1.5,1.5,0,1,1-1.5,1.5A1.5,1.5,0,0,1,11.484,12Zm0,2a0.5,0.5,0,1,0-.5-0.5A0.5,0.5,0,0,0,11.484,14Z"/>
</svg>
