<svg xmlns="http://www.w3.org/2000/svg" width="14" height="14" viewBox="0 0 14 14">
  <metadata><?xpacket begin="&#65279;" id="W5M0MpCehiHzreSzNTczkc9d"?>
<x:xmpmeta xmlns:x="adobe:ns:meta/" x:xmptk="Adobe XMP Core 5.6-c140 79.160451, 2017/05/06-01:08:21        ">
   <rdf:RDF xmlns:rdf="http://www.w3.org/1999/02/22-rdf-syntax-ns#">
      <rdf:Description rdf:about=""/>
   </rdf:RDF>
</x:xmpmeta>
                                                                                                    
                                                                                                    
                                                                                                    
                                                                                                    
                                                                                                    
                                                                                                    
                                                                                                    
                                                                                                    
                                                                                                    
                                                                                                    
                                                                                                    
                                                                                                    
                                                                                                    
                                                                                                    
                                                                                                    
                                                                                                    
                                                                                                    
                                                                                                    
                                                                                                    
                                                                                                    
                           
<?xpacket end="w"?></metadata>
<defs>
    <style>
      .cls-1 {
        fill: #FF4C5F;
        fill-rule: evenodd;
      }
    </style>
  </defs>
  <path class="cls-1" d="M293,124a7,7,0,1,1-7,7A7,7,0,0,1,293,124Zm0,1.431A5.569,5.569,0,1,1,287.431,131,5.569,5.569,0,0,1,293,125.431ZM293,127a1,1,0,1,1-1,1A1,1,0,0,1,293,127Zm0,3a1,1,0,0,1,1,1v3a1,1,0,0,1-2,0v-3A1,1,0,0,1,293,130Z" transform="translate(-286 -124)"/>
</svg>