<svg id="Layer_1" data-name="Layer 1" xmlns="http://www.w3.org/2000/svg" viewBox="0 0 199.92 45.5"><defs><style>.cls-1{fill:#fff;}</style></defs><title>logo-header-white</title><path class="cls-1" d="M42.66,49.24l-5.94-8.75-1.93-7.11-4.12-5.54-5.36-4.48-5.68,8.92-3.78,1.18L13.5,40.88,7.36,48.64,6.91,48A22.55,22.55,0,0,1,2.5,34.57a22.75,22.75,0,0,1,45.5,0,22.55,22.55,0,0,1-4.85,14.1ZM37.78,40l4.94,7.27a21.35,21.35,0,0,0,4.13-12.75A21.69,21.69,0,0,0,25.56,13h-.31A21.6,21.6,0,0,0,7.4,46.72l5.06-6.39,2.47-7.79,3.95-1.24L25,21.63,31.51,27l4.34,5.82Z" transform="translate(-2.5 -11.82)"/><path class="cls-1" d="M37.78,40l-1.93-7.14L31.51,27,25,21.63,18.88,31.3l-3.95,1.24-2.47,7.79L6.65,47.67l.26.36a22.7,22.7,0,0,0,18.34,9.29,22.64,22.64,0,0,0,17.9-8.7l.26-.33ZM26,37.91l-3.63,5.43L11.91,47.57l-3-.48,4.81-5.65h0l2.54-7.18,3.62-1.36,5.43-8.61,3.88,3.28h0l2.29,2.35,2.38,3.7Z" transform="translate(-2.5 -11.82)"/><polygon class="cls-1" points="26.72 15.75 26.72 15.75 26.72 15.75 26.72 15.75"/><path class="cls-1" d="M53.78,33.84q0-6.11,2.69-9.4a9.33,9.33,0,0,1,7.67-3.29,10.71,10.71,0,0,1,4.57.91A8.53,8.53,0,0,1,72,24.64a11.24,11.24,0,0,1,1.92,4,19.9,19.9,0,0,1,.63,5.19q0,6.1-2.71,9.4a9.35,9.35,0,0,1-7.65,3.29,10.88,10.88,0,0,1-4.6-.9,8.53,8.53,0,0,1-3.23-2.58,11.55,11.55,0,0,1-1.9-4A20,20,0,0,1,53.78,33.84Zm5,0a17.08,17.08,0,0,0,.32,3.4,8.73,8.73,0,0,0,1,2.67,4.93,4.93,0,0,0,1.65,1.74,4.91,4.91,0,0,0,6.35-1.36q1.4-2,1.39-6.45a17.28,17.28,0,0,0-.29-3.31,9.36,9.36,0,0,0-.93-2.69,4.79,4.79,0,0,0-1.63-1.79,4.9,4.9,0,0,0-6.42,1.39C59.27,28.8,58.8,30.94,58.8,33.84Z" transform="translate(-2.5 -11.82)"/><path class="cls-1" d="M82.17,28.61v9.9a6.85,6.85,0,0,0,.5,3.07,2,2,0,0,0,2,.94,3.11,3.11,0,0,0,2.15-.76,4.79,4.79,0,0,0,1.27-1.89V28.61h4.53V40.75c0,1,0,1.88.14,2.8A16.52,16.52,0,0,0,93.15,46H89.73l-.8-2.58h-.14a6.44,6.44,0,0,1-2.23,2.2,6.37,6.37,0,0,1-3.38.87,7.21,7.21,0,0,1-2.37-.35A3.86,3.86,0,0,1,79.06,45,5.33,5.33,0,0,1,78,42.87a13,13,0,0,1-.37-3.41V28.61Z" transform="translate(-2.5 -11.82)"/><path class="cls-1" d="M94.75,28.61h2.41V25.33L101.69,24v4.57h4.25v3.84h-4.25v6.69a6.51,6.51,0,0,0,.37,2.6,1.37,1.37,0,0,0,1.37.78,4.33,4.33,0,0,0,1.21-.14,8.9,8.9,0,0,0,1.13-.41l.8,3.48a11.87,11.87,0,0,1-2.19.77,10.47,10.47,0,0,1-2.55.31,4.61,4.61,0,0,1-3.54-1.23,6,6,0,0,1-1.13-4.07V32.45H94.75Z" transform="translate(-2.5 -11.82)"/><path class="cls-1" d="M123.55,39.91c0,1,0,2,0,2.93a25.48,25.48,0,0,0,.31,3.24h-3.24L120,43.81h-.14a5.19,5.19,0,0,1-2,2,6.1,6.1,0,0,1-3.09.75,6.29,6.29,0,0,1-5.09-2.16q-1.81-2.16-1.81-6.76a10.67,10.67,0,0,1,2-6.94,7.21,7.21,0,0,1,5.93-2.48,10.88,10.88,0,0,1,1.78.12,7.54,7.54,0,0,1,1.39.41V21.64h4.53Zm-7.7,2.79a3.15,3.15,0,0,0,2.09-.65A3.5,3.5,0,0,0,119,40.19V32.8a3.53,3.53,0,0,0-1.08-.58,5.06,5.06,0,0,0-1.53-.19,3.36,3.36,0,0,0-2.88,1.29c-.64.86-1,2.33-1,4.43a7.21,7.21,0,0,0,.78,3.59A2.68,2.68,0,0,0,115.85,42.7Z" transform="translate(-2.5 -11.82)"/><path class="cls-1" d="M126.69,37.33c0-2.95.72-5.23,2.16-6.82a7.78,7.78,0,0,1,6.07-2.39,9,9,0,0,1,3.63.67,6.74,6.74,0,0,1,2.54,1.86,8.06,8.06,0,0,1,1.52,2.91,13.54,13.54,0,0,1,.5,3.77q0,4.43-2.14,6.81a7.69,7.69,0,0,1-6.05,2.39,9.16,9.16,0,0,1-3.63-.66A7,7,0,0,1,128.73,44a7.76,7.76,0,0,1-1.53-2.92A13.05,13.05,0,0,1,126.69,37.33Zm4.67,0a10.19,10.19,0,0,0,.21,2.13,5.78,5.78,0,0,0,.63,1.7,3,3,0,0,0,1.1,1.14,3.19,3.19,0,0,0,1.62.4,3,3,0,0,0,2.65-1.29,7.45,7.45,0,0,0,.87-4.08,8.21,8.21,0,0,0-.8-3.89A2.84,2.84,0,0,0,134.92,32a3.1,3.1,0,0,0-2.62,1.25A7,7,0,0,0,131.36,37.33Z" transform="translate(-2.5 -11.82)"/><path class="cls-1" d="M145.41,37.33c0-2.95.72-5.23,2.17-6.82a7.76,7.76,0,0,1,6.06-2.39,8.94,8.94,0,0,1,3.63.67,6.74,6.74,0,0,1,2.54,1.86,7.91,7.91,0,0,1,1.52,2.91,13.17,13.17,0,0,1,.51,3.77q0,4.43-2.15,6.81a7.68,7.68,0,0,1-6.05,2.39,9.1,9.1,0,0,1-3.62-.66A6.92,6.92,0,0,1,147.45,44a8.05,8.05,0,0,1-1.53-2.92A13.05,13.05,0,0,1,145.41,37.33Zm4.68,0a10.19,10.19,0,0,0,.21,2.13,5.77,5.77,0,0,0,.62,1.7A3.09,3.09,0,0,0,152,42.3a3.21,3.21,0,0,0,1.62.4,3,3,0,0,0,2.65-1.29,7.45,7.45,0,0,0,.87-4.08,8.09,8.09,0,0,0-.8-3.89A2.83,2.83,0,0,0,153.64,32,3.1,3.1,0,0,0,151,33.21,7,7,0,0,0,150.09,37.33Z" transform="translate(-2.5 -11.82)"/><path class="cls-1" d="M174.6,32.87a5.81,5.81,0,0,0-1.95-.39,3.17,3.17,0,0,0-2,.65,3.06,3.06,0,0,0-1.1,1.65V46H165V28.61h3.53l.52,2.3h.14a4.68,4.68,0,0,1,1.6-2,4.06,4.06,0,0,1,2.37-.7,6.75,6.75,0,0,1,2.06.38Z" transform="translate(-2.5 -11.82)"/><path class="cls-1" d="M181.88,40.19A3.81,3.81,0,0,0,182.2,42a1.07,1.07,0,0,0,1,.55,4.47,4.47,0,0,0,.82-.07,4.52,4.52,0,0,0,1-.31l.49,3.56a8.58,8.58,0,0,1-1.71.55,9.73,9.73,0,0,1-2.37.28,4.48,4.48,0,0,1-3-.92,3.88,3.88,0,0,1-1.05-3V21.64h4.53Z" transform="translate(-2.5 -11.82)"/><path class="cls-1" d="M193.81,38.41l.63,2.72h.21l.45-2.76,2.65-9.76h4.67l-5.3,15.73c-.44,1.3-.86,2.49-1.27,3.57a16.38,16.38,0,0,1-1.34,2.81,6.39,6.39,0,0,1-1.62,1.83,3.52,3.52,0,0,1-2.11.64,6,6,0,0,1-2.9-.59l.84-3.63a2.81,2.81,0,0,0,1.05.21,2.28,2.28,0,0,0,1.55-.68A4.62,4.62,0,0,0,192.45,46l-7.29-17.43h5.44Z" transform="translate(-2.5 -11.82)"/></svg>