<svg xmlns="http://www.w3.org/2000/svg" width="167" height="40" viewBox="0 0 167 40">
  <defs>
    <style>
      .cls-1 {
        fill: #18374e;
        fill-rule: evenodd;
      }
    </style>
  </defs>
  <path id="_" data-name="#" class="cls-1" d="M20,39.475A19.475,19.475,0,1,1,39.475,20,19.475,19.475,0,0,1,20,39.475ZM20,1.5A18.5,18.5,0,1,0,38.5,20,18.5,18.5,0,0,0,20,1.5Z"/>
  <path id="_2" data-name="#" class="cls-1" d="M31.006,24.8L35.344,31.2a18.768,18.768,0,0,0,3.63-11.2A19.061,19.061,0,0,0,20.264,1.054l-0.271,0A18.982,18.982,0,0,0,4.3,30.715L8.751,25.1l2.174-6.849L14.4,17.162l5.411-8.5L25.5,13.42,29.3,18.533Zm4.285,8.124L30.07,25.235l-1.7-6.25-3.621-4.862-4.71-3.941-4.989,7.839-3.32,1.037L9.664,25.581,4.266,32.4l-0.4-.538A20,20,0,0,1,20.278.039,20.082,20.082,0,0,1,39.99,19.993a19.79,19.79,0,0,1-4.27,12.39ZM20.63,22.97l-3.183,4.775L8.267,31.46l-2.613-.424,4.233-4.963h0l2.229-6.315L15.3,18.564,20.073,11l3.407,2.876h0l0,0L25.5,15.948,27.581,19.2Zm10.375,1.835-1.7-6.272L25.5,13.419l-5.69-4.761-5.41,8.5-3.471,1.085L8.751,25.1l-5.11,6.454,0.23,0.312a19.959,19.959,0,0,0,16.122,8.167,19.892,19.892,0,0,0,15.726-7.645l0.229-.291ZM23.482,13.881h0ZM47,8.963H59.526v3.68H51.138v4.918h7.633v3.681H51.138V26.4h8.538v3.681H47V8.963ZM66.435,15v8.569a5.947,5.947,0,0,0,.437,2.654,1.754,1.754,0,0,0,1.7.815,2.676,2.676,0,0,0,1.856-.664,4.075,4.075,0,0,0,1.1-1.629V15h3.922V25.5a24.091,24.091,0,0,0,.12,2.428,15.092,15.092,0,0,0,.363,2.158H72.982l-0.694-2.233h-0.12a5.642,5.642,0,0,1-1.931,1.9,5.517,5.517,0,0,1-2.927.755,6.459,6.459,0,0,1-2.052-.3,3.373,3.373,0,0,1-1.508-1,4.641,4.641,0,0,1-.92-1.871,11.638,11.638,0,0,1-.317-2.957V15h3.922Zm20.788,3.68a5.132,5.132,0,0,0-1.69-.331,2.766,2.766,0,0,0-1.765.558,2.684,2.684,0,0,0-.95,1.433v9.745H78.895V15h3.047l0.453,1.991h0.121a4.114,4.114,0,0,1,1.388-1.72,3.529,3.529,0,0,1,2.052-.6,5.7,5.7,0,0,1,1.78.333Zm1.539,3.863a8.5,8.5,0,0,1,1.87-5.9,6.72,6.72,0,0,1,5.25-2.066,7.863,7.863,0,0,1,3.137.574,5.873,5.873,0,0,1,2.2,1.614,6.9,6.9,0,0,1,1.312,2.519,11.474,11.474,0,0,1,.437,3.258,8.534,8.534,0,0,1-1.856,5.9A6.672,6.672,0,0,1,95.881,30.5a7.863,7.863,0,0,1-3.138-.574,5.981,5.981,0,0,1-2.218-1.614A6.759,6.759,0,0,1,89.2,25.8,11.482,11.482,0,0,1,88.762,22.54Zm4.043,0a8.807,8.807,0,0,0,.181,1.841,5.162,5.162,0,0,0,.543,1.479,2.62,2.62,0,0,0,.951.98,2.721,2.721,0,0,0,1.4.347,2.58,2.58,0,0,0,2.293-1.117,6.445,6.445,0,0,0,.755-3.53,7.069,7.069,0,0,0-.694-3.365,2.456,2.456,0,0,0-2.353-1.282,2.668,2.668,0,0,0-2.263,1.086A6.012,6.012,0,0,0,92.8,22.54ZM106,9.174q1.267-.241,2.792-0.377t3.032-.136a19.792,19.792,0,0,1,3.153.256,7.855,7.855,0,0,1,2.85,1.026,5.958,5.958,0,0,1,2.067,2.143,7.052,7.052,0,0,1,.8,3.575A7.4,7.4,0,0,1,120,19.026a6.436,6.436,0,0,1-1.84,2.248,7.432,7.432,0,0,1-2.61,1.267,11.674,11.674,0,0,1-3.032.392h-0.483q-0.332,0-.694-0.016t-0.709-.045q-0.348-.03-0.5-0.061v7.271H106V9.174h0Zm6.155,3.047c-0.4,0-.785.016-1.146,0.045s-0.654.066-.875,0.106v6.849a3.3,3.3,0,0,0,.362.06c0.161,0.02.332,0.034,0.513,0.045s0.356,0.015.528,0.015h0.377a8.666,8.666,0,0,0,1.614-.151,4,4,0,0,0,1.433-.558,2.9,2.9,0,0,0,1.01-1.131,4.131,4.131,0,0,0,.378-1.9,3.35,3.35,0,0,0-.363-1.645,2.965,2.965,0,0,0-.95-1.041,3.721,3.721,0,0,0-1.343-.543A7.918,7.918,0,0,0,112.152,12.221Zm10.582-1.479a1.992,1.992,0,0,1,.649-1.494,2.5,2.5,0,0,1,1.8-.619,2.726,2.726,0,0,1,1.856.619,1.914,1.914,0,0,1,.709,1.494,1.825,1.825,0,0,1-.709,1.463,2.81,2.81,0,0,1-1.856.589,2.569,2.569,0,0,1-1.8-.589A1.9,1.9,0,0,1,122.734,10.742ZM123.308,15h3.922V30.082h-3.922V15Zm14,10.922a1.126,1.126,0,0,0-.513-0.966,6.262,6.262,0,0,0-1.267-.664q-0.754-.3-1.659-0.619a6.2,6.2,0,0,1-1.659-.875,4.783,4.783,0,0,1-1.267-1.418,4.27,4.27,0,0,1-.513-2.217,4.313,4.313,0,0,1,1.327-3.41,5.6,5.6,0,0,1,3.832-1.177,12.348,12.348,0,0,1,3.107.362,9,9,0,0,1,2.173.815l-0.875,2.837c-0.463-.181-1.045-0.372-1.75-0.574a7.783,7.783,0,0,0-2.142-.3q-1.75,0-1.75,1.358a1,1,0,0,0,.513.875,6.714,6.714,0,0,0,1.267.619q0.754,0.287,1.659.619a7.228,7.228,0,0,1,1.659.859,4.5,4.5,0,0,1,1.267,1.372,4.135,4.135,0,0,1,.514,2.173,4.6,4.6,0,0,1-1.464,3.606,6.4,6.4,0,0,1-4.389,1.313,10.719,10.719,0,0,1-3-.408,9.24,9.24,0,0,1-2.278-.951l1.086-2.926a10.461,10.461,0,0,0,1.841.769,7.474,7.474,0,0,0,2.353.378,2.6,2.6,0,0,0,1.4-.333A1.211,1.211,0,0,0,137.307,25.919ZM142.225,15h2.082V12.16l3.921-1.117V15h3.681v3.318h-3.681v5.793a5.744,5.744,0,0,0,.317,2.248,1.191,1.191,0,0,0,1.192.679,3.958,3.958,0,0,0,1.041-.121,7.039,7.039,0,0,0,.98-0.362l0.694,3.017a9.939,9.939,0,0,1-1.9.663,9.057,9.057,0,0,1-2.2.272,3.963,3.963,0,0,1-3.063-1.072,5.133,5.133,0,0,1-.98-3.515v-7.6h-2.082V15h0Zm24.016,13.788a7.66,7.66,0,0,1-2.459,1.222,10.754,10.754,0,0,1-3.3.5q-3.651,0-5.34-2.127a9.143,9.143,0,0,1-1.69-5.838q0-3.982,1.9-5.974a7.031,7.031,0,0,1,5.34-1.991,8.278,8.278,0,0,1,2.232.3,5.2,5.2,0,0,1,1.931,1,4.9,4.9,0,0,1,1.358,1.87,7.334,7.334,0,0,1,.513,2.926,13.23,13.23,0,0,1-.075,1.359q-0.076.723-.226,1.508h-9.051a4.425,4.425,0,0,0,.981,2.866,3.758,3.758,0,0,0,2.882.966,6.414,6.414,0,0,0,3.711-1.147ZM160.63,17.712a2.744,2.744,0,0,0-2.277.92,4.546,4.546,0,0,0-.891,2.459h5.613a3.81,3.81,0,0,0-.5-2.5A2.22,2.22,0,0,0,160.63,17.712Z"/>
</svg>
