<svg xmlns="http://www.w3.org/2000/svg" width="15" height="15" viewBox="0 0 15 15">
  <defs>
    <style>
      .cls-1 {
        fill: #1a1718;
        fill-rule: evenodd;
      }
    </style>
  </defs>
  <path id="_" data-name="#" class="cls-1" d="M13.036,5.963a1.836,1.836,0,0,1-1.808-1.087A1.918,1.918,0,0,1,9.361,5.963,1.936,1.936,0,0,1,7.468,4.912a1.858,1.858,0,0,1-1.84,1.051A1.885,1.885,0,0,1,3.77,4.9,1.865,1.865,0,0,1,1.924,5.963,1.97,1.97,0,0,1-.007,3.905l0.019-.067L2.043,1.021A0.162,0.162,0,0,1,2.187.932H12.8a0.163,0.163,0,0,1,.144.088l2.042,2.817L15.007,3.9A2,2,0,0,1,13.036,5.963Zm-0.712-4H2.666L1.034,4.133a0.914,0.914,0,0,0,.89.8,0.814,0.814,0,0,0,.9-0.328,1.05,1.05,0,0,1,.954-0.643H3.8a1.024,1.024,0,0,1,.918.647,0.846,0.846,0,0,0,.908.324,0.809,0.809,0,0,0,.89-0.317A1.057,1.057,0,0,1,7.472,3.97H7.5a0.993,0.993,0,0,1,.912.622,0.9,0.9,0,0,0,.954.342,0.863,0.863,0,0,0,.918-0.355,1.044,1.044,0,0,1,.444-0.516,1.027,1.027,0,0,1,1.446.5,0.806,0.806,0,0,0,.867.373,0.954,0.954,0,0,0,.928-0.8ZM4.5,12a0.5,0.5,0,0,1,0-1h6a0.5,0.5,0,0,1,0,1h-6ZM3,12.967h9V7.086a2.238,2.238,0,0,0,1,.369L13,13a0.966,0.966,0,0,1-.957.974H2.913A0.924,0.924,0,0,1,2.008,13L2,7.454a2.218,2.218,0,0,0,1-.368Z"/>
</svg>
