<svg xmlns="http://www.w3.org/2000/svg" width="18" height="18" viewBox="0 0 18 18">
  <metadata><?xpacket begin="﻿" id="W5M0MpCehiHzreSzNTczkc9d"?>
<x:xmpmeta xmlns:x="adobe:ns:meta/" x:xmptk="Adobe XMP Core 5.6-c140 79.160451, 2017/05/06-01:08:21        ">
   <rdf:RDF xmlns:rdf="http://www.w3.org/1999/02/22-rdf-syntax-ns#">
      <rdf:Description rdf:about=""/>
   </rdf:RDF>
</x:xmpmeta>
                                                                                                    
                                                                                                    
                                                                                                    
                                                                                                    
                                                                                                    
                                                                                                    
                                                                                                    
                                                                                                    
                                                                                                    
                                                                                                    
                                                                                                    
                                                                                                    
                                                                                                    
                                                                                                    
                                                                                                    
                                                                                                    
                                                                                                    
                                                                                                    
                                                                                                    
                                                                                                    
                           
<?xpacket end="w"?></metadata>
<defs>
    <style>
      .cls-1 {
        fill: #ff4c5f;
        fill-rule: evenodd;
      }
    </style>
  </defs>
  <path id="_" data-name="#" class="cls-1" d="M9.286,0.254l1.885,5.5a0.349,0.349,0,0,0,.336.24h6.086a0.33,0.33,0,0,1,.216.6L12.887,10.3a0.326,0.326,0,0,0-.132.384l1.873,5.666a0.353,0.353,0,0,1-.54.4L9.166,13.244a0.381,0.381,0,0,0-.42,0L3.812,16.749a0.353,0.353,0,0,1-.54-0.4l1.885-5.666A0.342,0.342,0,0,0,5.024,10.3L0.091,6.593a0.33,0.33,0,0,1,.216-0.6H6.393a0.349,0.349,0,0,0,.336-0.24l1.885-5.5A0.36,0.36,0,0,1,9.286.254Z"/>
</svg>
