<svg id="Layer_1" data-name="Layer 1" xmlns="http://www.w3.org/2000/svg" viewBox="0 0 45.5 45.5"><defs><style>.cls-1,.cls-2{fill:#231f20;}.cls-2{stroke:#fff;stroke-miterlimit:10;}</style></defs><title>logo-header-black</title>
<g><path class="cls-1" d="M42.66,49.24l-5.94-8.75-1.93-7.11-4.12-5.54-5.36-4.48-5.68,8.92-3.78,1.18L13.5,40.88,7.36,48.64,6.91,48A22.55,22.55,0,0,1,2.5,34.57a22.75,22.75,0,0,1,45.5,0,22.55,22.55,0,0,1-4.85,14.1ZM37.78,40l4.94,7.27a21.35,21.35,0,0,0,4.13-12.75A21.69,21.69,0,0,0,25.56,13h-.31A21.6,21.6,0,0,0,7.4,46.72l5.06-6.39,2.47-7.79,3.95-1.24L25,21.63,31.51,27l4.34,5.82Z" transform="translate(-2.5 -11.82)"/><path class="cls-1" d="M37.78,40l-1.93-7.14L31.51,27,25,21.63,18.88,31.3l-3.95,1.24-2.47,7.79L6.65,47.67l.26.36a22.7,22.7,0,0,0,18.34,9.29,22.64,22.64,0,0,0,17.9-8.7l.26-.33ZM29.22,27.57h0l2.29,2.35,2.38,3.7L26,37.91l-3.63,5.43L11.91,47.57l-3-.48,4.81-5.65h0l2.54-7.18,3.62-1.36,5.43-8.61" transform="translate(-2.5 -11.82)"/><polygon class="cls-2" points="26.72 15.75 26.72 15.75 26.72 15.75 26.72 15.75"/></g></svg>