<svg xmlns="http://www.w3.org/2000/svg" width="24" height="24" viewBox="0 0 24 24">
  <defs>
    <style>
      .cls-1 {
        fill: #465f71;
        fill-rule: evenodd;
      }
    </style>
  </defs>
  <path id="Instagram" class="cls-1" d="M12.5,2C9.65,2,9.292,2.01,8.173,2.063a7.678,7.678,0,0,0-2.546.486A5.127,5.127,0,0,0,3.77,3.76,5.124,5.124,0,0,0,2.56,5.618a7.684,7.684,0,0,0-.488,2.545c-0.051,1.119-.063,1.476-0.063,4.325s0.013,3.205.063,4.324a7.707,7.707,0,0,0,.488,2.546,5.361,5.361,0,0,0,3.067,3.067,7.7,7.7,0,0,0,2.546.487c1.119,0.052,1.476.062,4.324,0.062s3.206-.011,4.325-0.062a7.7,7.7,0,0,0,2.546-.487,5.356,5.356,0,0,0,3.067-3.067,7.691,7.691,0,0,0,.488-2.546c0.051-1.118.063-1.476,0.063-4.324s-0.012-3.207-.063-4.325a7.667,7.667,0,0,0-.488-2.545,5.365,5.365,0,0,0-3.067-3.069,7.678,7.678,0,0,0-2.546-.486C15.7,2.01,15.346,2,12.5,2m0,1.937c2.786,0,3.115.011,4.215,0.061a5.74,5.74,0,0,1,1.937.359,3.216,3.216,0,0,1,1.2.78,3.238,3.238,0,0,1,.781,1.2,5.8,5.8,0,0,1,.359,1.937c0.05,1.1.061,1.429,0.061,4.216s-0.01,3.114-.061,4.213a5.792,5.792,0,0,1-.359,1.937,3.461,3.461,0,0,1-1.98,1.981,5.8,5.8,0,0,1-1.937.359c-1.1.05-1.429,0.06-4.215,0.06s-3.115-.011-4.216-0.06a5.8,5.8,0,0,1-1.937-.359,3.461,3.461,0,0,1-1.98-1.981A5.788,5.788,0,0,1,4.007,16.7c-0.05-1.1-.061-1.428-0.061-4.213s0.011-3.116.061-4.216a5.8,5.8,0,0,1,.359-1.937,3.246,3.246,0,0,1,.781-1.2,3.222,3.222,0,0,1,1.2-.78A5.741,5.741,0,0,1,8.282,4c1.1-.05,1.43-0.061,4.216-0.061M12.513,16.08A3.577,3.577,0,1,1,16.091,12.5a3.578,3.578,0,0,1-3.577,3.577m0-9.088A5.511,5.511,0,1,0,18.024,12.5a5.511,5.511,0,0,0-5.511-5.511m6.78,0.022a1.258,1.258,0,1,1-1.259-1.259,1.259,1.259,0,0,1,1.259,1.259"/>
</svg>
