<svg xmlns="http://www.w3.org/2000/svg" width="24" height="24" viewBox="0 0 24 24">
  <defs>
    <style>
      .cls-1 {
        fill: #465f71;
        fill-rule: evenodd;
      }
    </style>
  </defs>
  <path id="Facebook" class="cls-1" d="M20.75,2H4.25A2.251,2.251,0,0,0,2,4.251v16.5A2.25,2.25,0,0,0,4.25,23h8.761V16.032h-3V12.958h3V11c0-2.89,1.482-4.042,4.06-4.042,1.43,0,1.95.021,1.941,0.011v3.052l-1.358,0c-1.4,0-1.661.619-1.661,1.6v1.34h3l-0.435,3.074H15.993V23H20.75A2.251,2.251,0,0,0,23,20.75V4.251A2.251,2.251,0,0,0,20.75,2Z"/>
</svg>
