<svg xmlns="http://www.w3.org/2000/svg" width="24" height="24" viewBox="0 0 24 24">
  <defs>
    <style>
      .cls-1 {
        fill: #465f71;
        fill-rule: evenodd;
      }
    </style>
  </defs>
  <path id="Twitter" class="cls-1" d="M24.255,4.239A9.637,9.637,0,0,1,21.477,5,4.853,4.853,0,0,0,23.6,2.324,9.68,9.68,0,0,1,20.531,3.5a4.839,4.839,0,0,0-8.24,4.411A13.73,13.73,0,0,1,2.323,2.856a4.843,4.843,0,0,0,1.5,6.456,4.8,4.8,0,0,1-2.191-.6V8.768a4.84,4.84,0,0,0,3.878,4.742,4.874,4.874,0,0,1-2.184.082,4.844,4.844,0,0,0,4.518,3.36,9.711,9.711,0,0,1-6.006,2.069,10.335,10.335,0,0,1-1.153-.067A13.649,13.649,0,0,0,8.1,21.065a13.615,13.615,0,0,0,13.759-13.7c0-.209,0-0.419-0.015-0.626a9.87,9.87,0,0,0,2.414-2.5h0Z"/>
</svg>
