<svg id="_" data-name="–" xmlns="http://www.w3.org/2000/svg" width="50" height="50" viewBox="0 0 50 50">
  <defs>
    <style>
      .cls-1, .cls-2 {
        fill: #2a97f9;
        fill-rule: evenodd;
      }

      .cls-1 {
        opacity: 0.6;
      }

      .cls-3 {
        fill: #bbe5ff;
      }
    </style>
  </defs>
  <path id="_2" data-name="#" class="cls-1" d="M25,50A25,25,0,1,1,50,25,25,25,0,0,1,25,50ZM25,2A23,23,0,1,0,48,25,23,23,0,0,0,25,2Z"/>
  <path id="_3" data-name="#" class="cls-2" d="M19.5,12.983H30.509a2.5,2.5,0,0,1,2.5,2.5V34.5a2.5,2.5,0,0,1-2.5,2.5H19.5A2.5,2.5,0,0,1,17,34.5V15.484A2.5,2.5,0,0,1,19.5,12.983Z"/>
  <rect id="_4" data-name="#" class="cls-3" x="19" y="16" width="12" height="18"/>
</svg>
