<svg id="_" data-name="–" xmlns="http://www.w3.org/2000/svg" width="50" height="50" viewBox="0 0 50 50">
  <defs>
    <style>
      .cls-1, .cls-3 {
        fill: #2a97f9;
        fill-rule: evenodd;
      }

      .cls-1 {
        opacity: 0.6;
      }

      .cls-2 {
        fill: #bbe5ff;
      }
    </style>
  </defs>
  <path id="_2" data-name="#" class="cls-1" d="M25,50A25,25,0,1,1,50,25,25,25,0,0,1,25,50ZM25,2A23,23,0,1,0,48,25,23,23,0,0,0,25,2Z"/>
  <circle id="_3" data-name="#" class="cls-2" cx="25" cy="25" r="11"/>
  <path id="_4" data-name="#" class="cls-3" d="M25,12.969a12,12,0,1,0,12,12A12,12,0,0,0,25,12.969ZM20.356,15.78a10.568,10.568,0,0,0-.616.96,12.944,12.944,0,0,0-.8,1.682q-0.744-.205-1.481-0.461A10.372,10.372,0,0,1,20.356,15.78ZM16.218,19.6q1.056,0.4,2.129.695a18.838,18.838,0,0,0-.538,3.7h-3.06A10.23,10.23,0,0,1,16.218,19.6Zm0,10.746a10.229,10.229,0,0,1-1.469-4.392h3.06a18.839,18.839,0,0,0,.538,3.7Q17.275,29.945,16.218,30.342Zm1.244,1.635q0.736-.255,1.481-0.46a12.938,12.938,0,0,0,.8,1.681,10.519,10.519,0,0,0,.616.96A10.357,10.357,0,0,1,17.462,31.977Zm6.558,2.781a6.317,6.317,0,0,1-3.142-3.686,22.814,22.814,0,0,1,3.142-.357v4.043Zm0-6.007a24.682,24.682,0,0,0-3.761.443,16.916,16.916,0,0,1-.487-3.244H24.02v2.8Zm0-4.762H19.772a16.926,16.926,0,0,1,.487-3.244,24.555,24.555,0,0,0,3.761.443v2.8Zm0-4.766a22.751,22.751,0,0,1-3.142-.356A6.321,6.321,0,0,1,24.02,15.18v4.043ZM33.782,19.6a10.226,10.226,0,0,1,1.469,4.392h-3.06a18.846,18.846,0,0,0-.538-3.7Q32.725,19.993,33.782,19.6Zm-1.244-1.635q-0.736.256-1.481,0.46a12.932,12.932,0,0,0-.8-1.682,10.546,10.546,0,0,0-.616-0.96A10.368,10.368,0,0,1,32.538,17.961ZM25.98,15.18a6.32,6.32,0,0,1,3.142,3.687,22.7,22.7,0,0,1-3.142.356V15.18Zm0,6.008a24.654,24.654,0,0,0,3.761-.443,16.926,16.926,0,0,1,.487,3.244H25.98v-2.8h0Zm0,4.762h4.248a16.924,16.924,0,0,1-.487,3.244,24.679,24.679,0,0,0-3.761-.443v-2.8h0Zm0,8.808V30.715a22.81,22.81,0,0,1,3.142.357A6.317,6.317,0,0,1,25.98,34.758Zm3.665-.6a10.56,10.56,0,0,0,.616-0.96,12.919,12.919,0,0,0,.8-1.682q0.744,0.2,1.481.46A10.352,10.352,0,0,1,29.645,34.158Zm4.137-3.816q-1.056-.4-2.129-0.7a18.842,18.842,0,0,0,.538-3.7h3.06A10.227,10.227,0,0,1,33.782,30.341Z"/>
</svg>
