<svg id="Graphic" xmlns="http://www.w3.org/2000/svg" width="775" height="570" viewBox="0 0 775 570">
  <defs>
    <style>
      .cls-1 {
        fill: #65bb3b;
      }

      .cls-1, .cls-2, .cls-3, .cls-4, .cls-5, .cls-6, .cls-7, .cls-8, .cls-9 {
        fill-rule: evenodd;
      }

      .cls-2 {
        fill: #0664b5;
      }

      .cls-3 {
        fill: #fdad00;
      }

      .cls-4 {
        fill: #f0333a;
      }

      .cls-6 {
        fill: #f90;
      }

      .cls-7 {
        fill: #3995de;
      }

      .cls-8 {
        fill: #fff;
      }

      .cls-9 {
        fill: #1f3547;
      }
    </style>
  </defs>
  <g id="Ebay">
    <path id="_" data-name="#" class="cls-1" d="M701.341,386.991h15.143l22.149,44.3,22.195-44.3h13.689l-40.069,78.964H719.806l11.6-21.942Z"/>
    <path id="_2" data-name="#" class="cls-2" d="M617.158,384.968c-16.281-.091-23.161,9.625-23.161,9.625V362.086H581.008l0.033,68.7s-0.079,8-.572,13.291h12.677l0.544-7.718s5.913,9.716,23.194,9.716S647.639,435.454,648,415.75,633.44,385.058,617.158,384.968Zm-2.991,52.326c-20.561.258-20.226-21.77-20.226-21.77s-0.75-21.2,20.194-21.748,20.086,22.2,20.086,22.2S634.729,437.035,614.167,437.294Z"/>
    <path id="_3" data-name="#" class="cls-3" d="M708.769,430.518c0.032-8.887.294-16.823,0-22.42-0.345-6.49.275-21.865-27.964-23.023,0,0-27.072-2.741-29.883,17.281h13.845s1.076-9.057,15.125-8.793c13.295,0.25,15.718,6.614,15.649,14.582,0,0-11.4.033-15.2,0.051-6.854.035-30.838,0.789-33.077,15.3-2.663,17.261,12.841,22.645,24.972,22.577s19.052-3.677,24.193-10.147l0.549,8.035,12.064-.068S708.732,439.405,708.769,430.518Zm-34.27,7.251s-13.143.016-13.914-10.419c-0.821-11.135,20.22-10.465,20.22-10.465l14.866-.015S698.077,438.076,674.5,437.769Z"/>
    <path id="_4" data-name="#" class="cls-4" d="M549.259,384.968c-32.148-.006-33.4,25.158-33.233,31.691,0,0-1.575,29.419,32.446,29.419,29.234,0,30.673-18.46,30.673-18.46l-13.45.028s-2.619,10.169-17.167,9.9c-18.7-.35-19.429-18.569-19.429-18.569h51.813S584.844,384.975,549.259,384.968ZM529.53,410.052s0.92-16.475,19.412-16.481c18.424-.005,18.424,16.481,18.424,16.481H529.53Z"/>
  </g>
  <g id="Amazon">
    <path id="_5" data-name="#" class="cls-5" d="M318.7,528.688h-9.933a1.869,1.869,0,0,1-1.765-1.6V499.471c0-5.567.648-13.7-6.2-13.7a6.488,6.488,0,0,0-5.737,4.066c-1.387,3.105-1.574,6.207-1.574,9.636v27.386a1.9,1.9,0,0,1-1.928,1.831H281.69a1.861,1.861,0,0,1-1.779-1.827l-0.017-50.881a1.878,1.878,0,0,1,1.9-1.661l9.191,0a1.886,1.886,0,0,1,1.762,1.424v7.781h0.186c2.777-6.96,6.66-10.276,13.5-10.276,4.441,0,8.789,1.605,11.565,6,2.59,4.066,2.59,10.915,2.59,15.84v32.007A1.882,1.882,0,0,1,318.7,528.688Zm-68.874,1.072c-14.431,0-22.3-12.633-22.3-28.364,0-15.842,7.955-28.151,22.3-28.151,14.709,0,22.663,12.632,22.663,28.686C272.487,517.448,263.7,529.76,249.824,529.76Zm6.567-41.208c-1.11-3.533-3.331-4.923-6.477-4.923-7.307,0-7.769,9.951-7.769,16.16s-0.091,19.48,7.679,19.48c7.68,0,8.048-10.7,8.048-17.23C257.872,497.758,257.687,492.619,256.391,488.552Zm-36.028,38.607a37.517,37.517,0,0,0-34.418.065c-1.132.6-2.318-.616-2.318-1.686v-7.371a8.765,8.765,0,0,1,1.213-5l19.55-28.047-17.022,0a1.812,1.812,0,0,1-1.883-1.83v-7.267a1.8,1.8,0,0,1,1.843-1.84l32.575,0a1.814,1.814,0,0,1,1.878,1.834v6.233c-0.01,1.046-.89,2.409-2.452,4.575l-16.874,24.092c6.263-.147,12.889.793,18.58,3.991a3.326,3.326,0,0,1,1.729,2.836V525.5A1.743,1.743,0,0,1,220.363,527.159Zm-50.83,1.424-0.025-.022a2.05,2.05,0,0,1-2.34.23c-3.291-2.735-3.881-4-5.681-6.6-5.44,5.541-9.292,7.2-16.339,7.2-8.342,0-14.833-5.151-14.833-15.447a16.834,16.834,0,0,1,10.569-16.2c5.376-2.36,12.886-2.789,18.635-3.434v-1.287c0-2.361.185-5.147-1.206-7.186a6.623,6.623,0,0,0-5.563-2.575c-3.78,0-7.139,1.936-7.965,5.95a2.1,2.1,0,0,1-1.721,1.824L133.458,490a1.747,1.747,0,0,1-1.48-2.073c2.211-11.653,12.733-15.172,22.162-15.172,4.823,0,11.126,1.285,14.926,4.935,4.823,4.5,4.358,10.512,4.358,17.057v15.436c0,4.647,1.929,6.683,3.74,9.184,0.634,0.9.776,1.975-.032,2.635C175.108,523.7,171.512,526.821,169.533,528.583ZM159.519,504.4v-2.144c-7.17,0-14.741,1.534-14.741,9.974,0,4.292,2.225,7.189,6.026,7.189,2.78,0,5.284-1.718,6.859-4.505C159.611,511.477,159.519,508.261,159.519,504.4Zm-37.85,22.46a1.87,1.87,0,0,1-1.913,1.831h-9.9a1.858,1.858,0,0,1-1.777-1.827l0-26.966c0-2.137.185-7.49-.278-9.523-0.74-3.427-2.96-4.391-5.826-4.391a6.575,6.575,0,0,0-5.923,4.174c-1.017,2.57-.925,6.85-0.925,9.74v26.962a1.869,1.869,0,0,1-1.91,1.831h-9.9a1.86,1.86,0,0,1-1.78-1.827L81.527,499.9c0-5.671.925-14.018-6.1-14.018-7.124,0-6.846,8.132-6.846,14.018l0,26.962a1.87,1.87,0,0,1-1.912,1.831h-9.91a1.869,1.869,0,0,1-1.773-1.676l0.008-50.863a1.867,1.867,0,0,1,1.912-1.83l9.229,0a1.865,1.865,0,0,1,1.8,1.71v6.639h0.186c2.4-6.422,6.938-9.42,13.043-9.42,6.2,0,10.083,3,12.858,9.42a14.636,14.636,0,0,1,25.163-3.853c3.144,4.282,2.5,10.488,2.5,15.947Zm-82.05,1.726-0.023-.022a2.051,2.051,0,0,1-2.341.23c-3.294-2.735-3.883-4-5.681-6.6-5.441,5.541-9.294,7.2-16.339,7.2C6.892,529.392.4,524.241,0.4,513.945a16.831,16.831,0,0,1,10.568-16.2c5.376-2.36,12.887-2.789,18.633-3.434v-1.287c0-2.361.186-5.147-1.2-7.186a6.624,6.624,0,0,0-5.562-2.575c-3.78,0-7.142,1.936-7.965,5.95a2.1,2.1,0,0,1-1.722,1.824L3.545,490a1.746,1.746,0,0,1-1.48-2.073c2.207-11.653,12.73-15.172,22.162-15.172,4.821,0,11.125,1.285,14.926,4.935,4.819,4.5,4.357,10.512,4.357,17.057v15.436c0,4.647,1.928,6.683,3.739,9.184,0.632,0.9.776,1.975-.031,2.635C45.194,523.7,41.6,526.821,39.619,528.583ZM29.6,504.4v-2.144c-7.167,0-14.74,1.534-14.74,9.974,0,4.292,2.226,7.189,6.026,7.189,2.781,0,5.286-1.718,6.86-4.505C29.7,511.477,29.6,508.261,29.6,504.4Z"/>
    <path id="_6" data-name="#" class="cls-6" d="M204.213,561.686c-1.535,1.284-3,.6-2.315-1.1,2.247-5.609,7.274-18.164,4.891-21.213s-15.729-1.443-21.726-.725c-1.817.218-2.1-1.37-.461-2.519,10.65-7.48,28.1-5.321,30.126-2.816C216.772,535.843,214.191,553.338,204.213,561.686Zm-5.165-13.47c-18.6,13.729-45.576,21.03-68.8,21.03A124.507,124.507,0,0,1,46.2,537.185c-1.742-1.573-.188-3.72,1.905-2.5A169.174,169.174,0,0,0,132.2,557a167.3,167.3,0,0,0,64.143-13.126C199.488,542.535,202.125,545.941,199.048,548.216Z"/>
  </g>
  <g id="Fancy">
    <path id="_7" data-name="#" class="cls-7" d="M562.665,254H363.325A27.325,27.325,0,0,1,336,226.674V27.335A27.325,27.325,0,0,1,363.325.01h199.34A27.324,27.324,0,0,1,589.99,27.335V226.674A27.325,27.325,0,0,1,562.665,254Z"/>
    <path id="_8" data-name="#" class="cls-8" d="M516,150.905V152a14,14,0,0,1-14,14h-0.662c-0.158.006-.316,0.028-0.474,0.028L489.611,166h-13.6v29.063a13,13,0,0,1-26,0L450,166H436.35l-11.3.028c-0.159,0-.315-0.022-0.474-0.028H424a14,14,0,0,1-14-14V124c0-.028,0-0.055,0-0.083l-0.014-22.823a53.006,53.006,0,1,1,106.011,0v49.8C516,150.9,516,150.9,516,150.905Z"/>
  </g>
  <path class="cls-9" d="M675.017,351.7a345.188,345.188,0,0,0-61.149-94.836c-1.08-1.189.684-2.961,1.768-1.768a347.135,347.135,0,0,1,61.539,95.342C677.809,351.9,675.654,353.174,675.017,351.7ZM185.6,424.931c-1.416.769-2.676-1.39-1.262-2.159A438.443,438.443,0,0,0,335.191,287.464c0.911-1.315,3.077-.064,2.159,1.262A441.164,441.164,0,0,1,185.6,424.931Z"/>
</svg>
