<svg id="Icon" xmlns="http://www.w3.org/2000/svg" width="64" height="64" viewBox="0 0 64 64">
  <defs>
    <style>
      .cls-1 {
        fill: #fff;
      }

      .cls-2 {
        fill: #c8d0d5;
      }

      .cls-2, .cls-4 {
        fill-rule: evenodd;
      }

      .cls-3 {
        fill: #f2f5f7;
      }

      .cls-4 {
        fill: #8d9faa;
      }
    </style>
  </defs>
  <circle id="_" data-name="#" class="cls-1" cx="32" cy="32" r="32"/>
  <path id="_2" data-name="#" class="cls-2" d="M47,36.5a1.5,1.5,0,0,1-3,0c0-.025.006-0.048,0.007-0.072H44c0-6.893-5.045-12.5-11.937-12.5S20,29.535,20,36.428H19.993c0,0.024.007,0.047,0.007,0.072a1.5,1.5,0,0,1-3,0c0-.025.006-0.048,0.007-0.072H17c0-8.547,6.516-15.5,15.063-15.5S47,27.881,47,36.428H46.993C46.994,36.452,47,36.476,47,36.5Z"/>
  <circle id="_3" data-name="#" class="cls-3" cx="32" cy="22" r="3"/>
  <path id="_4" data-name="#" class="cls-4" d="M48,25a1.992,1.992,0,0,1-1.723-1H35.859a3.981,3.981,0,0,1-7.717,0H17.723a2,2,0,1,1,0-2H28.141a3.981,3.981,0,0,1,7.717,0H46.277A2,2,0,1,1,48,25ZM32,21a2,2,0,1,0,2,2A2,2,0,0,0,32,21ZM18.5,36A3.5,3.5,0,1,1,15,39.5,3.5,3.5,0,0,1,18.5,36Zm0,5A1.5,1.5,0,1,0,17,39.5,1.5,1.5,0,0,0,18.5,41Zm27-5A3.5,3.5,0,1,1,42,39.5,3.5,3.5,0,0,1,45.5,36Zm0,5A1.5,1.5,0,1,0,44,39.5,1.5,1.5,0,0,0,45.5,41Z"/>
</svg>
