<svg id="_" data-name="–" xmlns="http://www.w3.org/2000/svg" width="50" height="50" viewBox="0 0 50 50">
  <defs>
    <style>
      .cls-1, .cls-2, .cls-3, .cls-4 {
        fill: #2a97f9;
        fill-rule: evenodd;
      }

      .cls-1 {
        opacity: 0.6;
      }

      .cls-3 {
        opacity: 0.5;
      }

      .cls-4 {
        opacity: 0.8;
      }
    </style>
  </defs>
  <path id="_2" data-name="#" class="cls-1" d="M25,50A25,25,0,1,1,50,25,25,25,0,0,1,25,50ZM25,2A23,23,0,1,0,48,25,23,23,0,0,0,25,2Z"/>
  <g id="_3" data-name="&gt;">
    <path id="_4" data-name="#" class="cls-2" d="M19,33a1,1,0,0,1-1-1V18a1,1,0,1,1,2,0V32A1,1,0,0,1,19,33Zm-4,0a1,1,0,0,1-1-1V24a1,1,0,0,1,2,0v8A1,1,0,0,1,15,33Z"/>
    <path id="_5" data-name="#" class="cls-3" d="M35,33a1,1,0,0,1-1-1V26a1,1,0,1,1,2,0v6A1,1,0,0,1,35,33Zm-4,0a1,1,0,0,1-1-1V22a1,1,0,0,1,2,0V32A1,1,0,0,1,31,33Z"/>
    <path id="_6" data-name="#" class="cls-4" d="M27,33a1,1,0,0,1-1-1V18a1,1,0,1,1,2,0V32A1,1,0,0,1,27,33Zm-4,0a1,1,0,0,1-1-1V22a1,1,0,0,1,2,0V32A1,1,0,0,1,23,33Z"/>
  </g>
</svg>
