<svg version="1.1" id="OBJECTS" xmlns="http://www.w3.org/2000/svg" xmlns:xlink="http://www.w3.org/1999/xlink" x="0px" y="0px" viewBox="0 0 921.26 204.09" style="enable-background:new 0 0 921.26 204.09;" xml:space="preserve"> <style type="text/css"> .st0{fill:none;} .st1{fill:#F0EFE6;} .st2{fill:#FFA59F;} .st3{fill:#F0FFFA;} .st4{fill:#ABBDC6;} .st5{fill:#A1A6A8;} .st6{fill:#FFD072;} .st7{fill:#ED7D7A;} .st8{fill:#E59390;} .st9{fill:#292E47;} .st10{fill:#D37C79;} .st11{fill:#FFA49C;} .st12{fill:#102241;} .st13{fill:#707A87;} .st14{fill:#BBCDD9;} .st15{fill:#D5DFE8;} .st16{opacity:0.39;} .st17{fill:#D3C0BE;} .st18{fill:#222A46;} .st19{fill:#FF9592;} .st20{fill:#FDA29D;} .st21{fill:#F4FFFA;} .st22{fill:#3A3231;} .st23{fill:#EACFCA;} .st24{fill:url(#SVGID_1_);} .st25{fill:#FEFFEE;} .st26{fill:#2B261C;} .st27{fill:#4D5677;} .st28{fill:#F8F8F8;} </style> <pattern x="60.63" y="-297.95" width="16.13" height="14.36" patternUnits="userSpaceOnUse" id="Motivo_nuevo" viewBox="1.5 -14.36 16.13 14.36" style="overflow:visible;"> <g> <rect x="1.5" y="-14.36" class="st0" width="16.13" height="14.36"/> <g> <path class="st1" d="M17.49-3.33c0.26,0.17,0.42,0.48,0.4,0.79c-0.02,0.31-0.23,0.6-0.51,0.73c-0.05,0.02-0.1,0.04-0.16,0.03 c-0.06-0.02-0.1-0.07-0.14-0.12c-0.2-0.3-0.34-0.67-0.23-1.01c0.11-0.34,0.59-0.56,0.85-0.32c0.18,0.16,0.19,0.43,0.19,0.68"/> </g> <g> <path class="st1" d="M16.39-7.77c0.39-0.1,0.83,0.03,1.11,0.32c0.27,0.3,0.37,0.74,0.24,1.13c-0.02,0.07-0.05,0.13-0.11,0.17 c-0.07,0.04-0.16,0.03-0.24,0.02c-0.46-0.08-0.94-0.27-1.16-0.68C16-7.22,16.21-7.86,16.67-7.9c0.31-0.03,0.58,0.2,0.81,0.42"/> <path class="st1" d="M12.02-9.07c0.39-0.1,0.83,0.03,1.11,0.32c0.27,0.3,0.37,0.74,0.24,1.13c-0.02,0.07-0.05,0.13-0.11,0.17 c-0.07,0.04-0.16,0.03-0.24,0.02c-0.46-0.08-0.94-0.27-1.16-0.68c-0.22-0.41-0.01-1.04,0.45-1.09c0.31-0.03,0.58,0.2,0.81,0.42" /> <path class="st1" d="M13.76-3.56c0.34,0.22,0.55,0.63,0.52,1.03c-0.03,0.4-0.29,0.78-0.66,0.95c-0.06,0.03-0.13,0.05-0.2,0.03 c-0.08-0.02-0.13-0.09-0.18-0.16c-0.26-0.39-0.44-0.87-0.3-1.31c0.15-0.44,0.75-0.72,1.1-0.42c0.24,0.21,0.25,0.56,0.25,0.88"/> <path class="st1" d="M5.78-2.28c0.39-0.1,0.83,0.03,1.11,0.32c0.28,0.3,0.37,0.74,0.24,1.13C7.11-0.76,7.08-0.7,7.02-0.66 C6.95-0.62,6.86-0.63,6.78-0.64C6.32-0.72,5.84-0.91,5.62-1.32C5.4-1.73,5.61-2.37,6.07-2.41c0.31-0.03,0.58,0.2,0.81,0.42"/> <path class="st1" d="M3.06-11.98c0.34,0.22,0.55,0.63,0.52,1.03c-0.03,0.4-0.29,0.78-0.66,0.95c-0.06,0.03-0.13,0.05-0.2,0.03 c-0.08-0.02-0.13-0.09-0.18-0.16C2.29-10.52,2.1-11,2.25-11.45c0.15-0.44,0.75-0.72,1.1-0.42c0.24,0.21,0.25,0.56,0.25,0.88"/> <path class="st1" d="M1.35-3.33c0.26,0.17,0.42,0.48,0.4,0.79C1.73-2.23,1.53-1.93,1.24-1.8c-0.05,0.02-0.1,0.04-0.16,0.03 C1.02-1.79,0.98-1.85,0.95-1.9c-0.2-0.3-0.34-0.67-0.23-1.01c0.11-0.34,0.59-0.56,0.85-0.32C1.76-3.08,1.77-2.8,1.77-2.56"/> <path class="st1" d="M8.88-6.05c0.4-0.01,0.81,0.21,1.01,0.56c0.2,0.35,0.2,0.81-0.01,1.15C9.84-4.28,9.79-4.22,9.72-4.2 c-0.08,0.03-0.16,0-0.24-0.03C9.06-4.41,8.63-4.71,8.51-5.16C8.38-5.6,8.73-6.18,9.19-6.12c0.31,0.04,0.52,0.33,0.7,0.59"/> <path class="st1" d="M13.1-13.86c0.37,0.17,0.62,0.55,0.65,0.96c0.02,0.4-0.19,0.81-0.53,1.02c-0.06,0.04-0.13,0.07-0.2,0.06 c-0.08-0.01-0.14-0.08-0.2-0.14c-0.3-0.35-0.55-0.81-0.46-1.27c0.09-0.46,0.66-0.81,1.04-0.55c0.26,0.18,0.32,0.53,0.36,0.84"/> <path class="st1" d="M8.68-12.45c0.12,0.38,0.02,0.83-0.26,1.12c-0.28,0.29-0.72,0.41-1.11,0.31c-0.07-0.02-0.14-0.05-0.18-0.1 c-0.05-0.07-0.04-0.16-0.03-0.24c0.05-0.46,0.22-0.95,0.61-1.2c0.39-0.25,1.04-0.07,1.11,0.38c0.05,0.31-0.17,0.6-0.37,0.84"/> <path class="st1" d="M5.93-8.16c0.32,0.25,0.48,0.68,0.42,1.07C6.28-6.69,5.98-6.34,5.6-6.21C5.54-6.19,5.46-6.17,5.4-6.19 C5.32-6.22,5.28-6.3,5.24-6.37C5.02-6.78,4.88-7.28,5.07-7.71c0.19-0.43,0.82-0.65,1.14-0.31c0.21,0.23,0.2,0.59,0.16,0.9"/> </g> <g> <path class="st1" d="M0.25-7.77c0.39-0.1,0.83,0.03,1.11,0.32c0.28,0.3,0.37,0.74,0.24,1.13C1.58-6.26,1.55-6.19,1.49-6.15 C1.42-6.11,1.33-6.12,1.25-6.13C0.79-6.21,0.31-6.41,0.09-6.82S0.08-7.86,0.54-7.9c0.31-0.03,0.58,0.2,0.81,0.42"/> </g> </g> </pattern> <g> <g> <g> <g> <g> <g> <path class="st2" d="M826.63,106.97c0,0,30.66,23.09,30.54,33.51c-0.17,14.86-40.31-21.39-40.31-21.39L826.63,106.97z"/> <path class="st2" d="M900.18,102.33c0.57-1.25-5.76,2.33-5.76,2.33c5.48-5.93,5.48-5.5,5.48-5.93 c0.01-1.13-7.27,4.59-7.27,4.59s4.35-4.25,4.02-5.3c-0.33-1.05-9.47,6.12-9.47,6.12s0.56-2.65-0.92-4.64 c-0.38-0.51-1.22-0.51-1.63-0.29c0.81,2.57-1.12,8.23-1.77,10.02c-33.23,22.53-34.45,31.95-34.45,31.95 c8.74,13.63,41.15-25.98,43.74-29.19c3.33-2.61,7.27-5.77,7.56-6.34c0.52-0.99-4.41,1.72-4.41,1.72 S899.47,103.9,900.18,102.33z"/> </g> <polygon class="st3" points="844.03,117.99 832.57,135.2 808.23,107.08 817.68,94.88 "/> </g> <path class="st3" d="M762.53,182.04c0,0-9.66-91.19,36.44-93.4c46.93-2.25,35.57,97.94,35.73,96.51L762.53,182.04z"/> </g> <polygon class="st4" points="762.53,182.04 761.56,200.81 797.87,219.46 851.33,208.15 844.32,183.46 "/> </g> <g> <g> <rect x="759.45" y="120.98" class="st5" width="82.58" height="65.71"/> <circle class="st3" cx="800.75" cy="149.7" r="5.36"/> </g> <g> <path class="st2" d="M781.84,127.21c0,0-6.68,39.45-15.99,44.11c-9.32,4.66,3.01-47.32,3.01-47.32L781.84,127.21z"/> <g> <path class="st2" d="M811.95,149.1l-7.54-4.81c-45.13,17.23-41.05,25.63-41.05,25.63C769.69,185.56,811.95,149.1,811.95,149.1z "/> <path class="st2" d="M802.79,145.38c0,0,4.29-6.84,3.9-10.04c0.45-0.14,1.27,0.02,1.55,0.59c1.09,2.23,0.05,4.73,0.05,4.73 s10.3-5.36,10.43-4.27c0.13,1.09-4.93,4.47-4.93,4.47s8.21-4.28,7.99-3.17c-0.08,0.43,0,0-6.48,4.82c0,0,6.88-2.35,6.09-1.23 c-0.99,1.41-5.73,4.04-5.73,4.04s5.34-1.75,4.65-0.88c-0.69,0.88-13.85,7.53-13.85,7.53l-2.45-2.08L802.79,145.38z"/> </g> <polygon class="st3" points="782.02,134.3 761.49,131.81 776.63,99.93 791.78,102.88 "/> </g> </g> </g> <g> <path class="st6" d="M787.7,54.75c0,0-5.29,7.28,0.1,12.67l3.14-9.98L787.7,54.75z"/> <g> <path class="st2" d="M788.68,58.09c1.59-3.62,4.73-6.04,8.84-6.09c5.76-0.07,9.33,3.01,11.19,9.02c0.59,1.89,0.79,4.05,0.7,6.21 c0.75,0.06,1.34,0.43,1.7,0.96c0.92,1.35-0.14,3.2-1.77,3.33c-0.16,0.01-0.32,0.03-0.5,0.04c-0.64,2.86-1.73,5.39-3.07,6.86 l1.44,15.84c0,5.69-15.42,8.63-16.93-0.02l1.37-15.71c0,0-1.98-2.19-3.14-6.82c-0.14-0.01-0.29-0.02-0.42-0.03 c-1.63-0.11-2.72-1.94-1.83-3.3c0.33-0.5,0.86-0.86,1.54-0.96c-0.13-1.56-0.17-3.28-0.04-5.19 C787.86,60.81,788.11,59.38,788.68,58.09z"/> <g> <path class="st7" d="M787.88,70.5c-0.35-0.17-0.62-0.46-0.79-0.83c-0.06-0.19-0.09-0.44,0.04-0.63c0.12-0.2,0.32-0.27,0.5-0.31 c-0.14,0.13-0.27,0.26-0.32,0.4c-0.05,0.14-0.04,0.3,0.03,0.45C787.44,69.9,787.68,70.18,787.88,70.5z"/> </g> <g> <path class="st7" d="M809.21,70.34c0.2-0.32,0.44-0.6,0.54-0.92c0.07-0.15,0.08-0.3,0.03-0.45c-0.05-0.15-0.18-0.27-0.32-0.41 c0.18,0.05,0.38,0.12,0.5,0.32c0.12,0.19,0.1,0.44,0.03,0.63C809.83,69.89,809.56,70.18,809.21,70.34z"/> </g> <path class="st7" d="M805.76,78.41c-3.8,3.17-7.78,4.8-14.12,0.11c0,0,6.32,7.62,14.53,4.4L805.76,78.41z"/> </g> <path class="st6" d="M795.75,48.35c-3.64,0.52-6.86,2.92-8.05,6.4c-0.82,2.38-0.49,4.72,4.08,4.56c9.14-0.33,9.75-6.37,13.82-2.3 c4.07,4.07,3.81,10.21,3.81,10.21s4.74-7.91-1.18-13.83C803.97,49.14,800.06,47.73,795.75,48.35z"/> <g> <g> <path class="st8" d="M807.95,70.41c0.03,0.94-1.11,1.73-2.53,1.77c-1.43,0.04-2.6-0.68-2.63-1.62 c-0.03-0.94,1.11-1.73,2.53-1.77C806.75,68.75,807.92,69.47,807.95,70.41z"/> <path class="st8" d="M794.55,70.54c-0.13,0.93-1.39,1.51-2.8,1.31c-1.41-0.2-2.45-1.12-2.31-2.05c0.13-0.93,1.39-1.51,2.8-1.31 C793.64,68.69,794.68,69.61,794.55,70.54z"/> </g> <g> <g> <path class="st9" d="M794.35,66.39c-0.01,0.55-0.35,0.99-0.76,0.98c-0.41-0.01-0.73-0.46-0.71-1.01 c0.01-0.55,0.35-0.99,0.76-0.98S794.36,65.84,794.35,66.39z"/> <path class="st9" d="M804.95,66.64c-0.01,0.55-0.35,0.99-0.76,0.98c-0.41-0.01-0.73-0.46-0.71-1.01 c0.01-0.55,0.35-0.99,0.76-0.98C804.64,65.64,804.96,66.09,804.95,66.64z"/> </g> </g> </g> <g> <g> <path class="st10" d="M796.21,72.04c0.76,0.9,1.75,1.65,2.85,1.57c0.55-0.01,1.07-0.23,1.58-0.47c0.51-0.27,0.97-0.62,1.47-0.96 c-0.18,0.24-0.38,0.46-0.58,0.69c-0.22,0.2-0.46,0.4-0.7,0.58c-0.51,0.33-1.11,0.58-1.75,0.63c-0.65,0-1.29-0.21-1.78-0.6 C796.8,73.1,796.42,72.6,796.21,72.04z"/> </g> <g> <path class="st10" d="M798.49,69.51c0.24-0.27,0.5-0.48,0.77-0.69c0.27-0.21,0.56-0.4,0.85-0.57l-0.01,0.51 c-0.46-0.36-0.73-0.83-0.9-1.31c-0.17-0.48-0.27-0.97-0.28-1.47c0.22,0.45,0.43,0.88,0.67,1.29c0.25,0.4,0.52,0.78,0.85,1 l0.38,0.25l-0.39,0.25c-0.29,0.19-0.57,0.37-0.88,0.52c-0.3,0.16-0.61,0.3-0.95,0.4c-0.06,0.02-0.12-0.02-0.13-0.07 C798.46,69.57,798.47,69.53,798.49,69.51z"/> </g> </g> </g> <g> <g> <g> <polygon class="st11" points="791.33,211.69 765.05,222.68 769.07,232.94 798.88,223.26 "/> <g> <path class="st12" d="M772.72,219.48l-4.02,6.85h3.5l0.69,7.48h-5.36c0,0-15.79,8.1-20.46,3.43 c-4.24-4.24,18.62-15.98,22.82-18.07C770.99,218.61,772.83,219.36,772.72,219.48z"/> <g> <g> <path class="st13" d="M761.83,229.45c0.23,0.7,0.35,1.42,0.48,2.13c0.1,0.72,0.2,1.44,0.19,2.18 c-0.23-0.7-0.35-1.42-0.48-2.13C761.93,230.9,761.82,230.18,761.83,229.45z"/> </g> <g> <path class="st13" d="M764.94,229.21c0.23,0.7,0.35,1.42,0.48,2.13c0.1,0.72,0.2,1.44,0.19,2.18 c-0.23-0.7-0.35-1.42-0.48-2.13C765.04,230.66,764.93,229.94,764.94,229.21z"/> </g> </g> </g> </g> <path class="st14" d="M786.92,211.08c0,0,55.96-34.47,74.2-30.41c18.25,4.05,11.76,25.14-49.87,41.36l-16.85,4.46L786.92,211.08z "/> </g> <g> <g> <polygon class="st11" points="809.76,206.62 836.04,217.61 832.02,227.87 802.21,218.19 "/> <g> <path class="st12" d="M827,213.83l3.78,6.75h-3.5l-0.69,7.48h5.36c0,0,15.79,8.1,20.46,3.43c4.24-4.24-18.55-16.12-22.82-18.07 C828.87,213.1,827.36,213.18,827,213.83z"/> <g> <g> <path class="st13" d="M834.41,223.7c-0.1,0.73-0.3,1.43-0.5,2.13c-0.23,0.69-0.45,1.38-0.78,2.04c0.1-0.73,0.3-1.43,0.5-2.13 C833.87,225.05,834.09,224.36,834.41,223.7z"/> </g> <g> <path class="st13" d="M837.32,224.84c-0.1,0.73-0.3,1.43-0.5,2.13c-0.23,0.69-0.45,1.38-0.78,2.04 c0.1-0.73,0.3-1.43,0.5-2.13C836.77,226.19,836.99,225.5,837.32,224.84z"/> </g> </g> </g> </g> <path class="st15" d="M813.25,206c0,0-55.96-34.47-74.2-30.41c-18.25,4.05-11.76,25.14,49.87,41.36l16.85,4.46L813.25,206z"/> </g> </g> </g> <g> <g class="st16"> <g> <path class="st17" d="M264.48,321.18c-29.94,2.05-59.93,1.14-89.91,1.01c0.35,1.28,0.69,2.55,1.04,3.83 c6.39-3.04,14.86-1.9,21.72-1.76c7.69,0.16,15.39,0.28,23.09,0.37c14.69,0.18,29.38,0.33,44.07,0.66 C267.13,325.35,267.12,321.26,264.48,321.18c-15.48-0.43-30.97-0.49-46.44-0.92c-2.64-0.07-2.64,4.03,0,4.11 c15.48,0.43,30.97,0.49,46.44,0.92C264.48,323.92,264.48,322.55,264.48,321.18c-15.74-0.35-31.49-0.49-47.24-0.7 c-8.2-0.11-16.41-0.29-24.61-0.43c-6.32-0.11-13.25-0.36-19.1,2.42c-1.91,0.9-0.89,3.82,1.04,3.83 c29.98,0.13,59.97,1.04,89.91-1.01C267.1,325.11,267.12,321,264.48,321.18L264.48,321.18z"/> </g> </g> <g> <g> <path class="st12" d="M225.04,34.49c0,0,12.82-5.74,16.47,5.72c3.65,11.46,1.92,25.08,1.92,25.08h-14.05L225.04,34.49z"/> <g> <g> <g> <path class="st2" d="M216.5,41.58c-2.11,5.38-3.91,13.36,2,16.81l-2.05,15.97c0,0,3.84,7.53,16.94,0.54l0.71-20.33 c0,0,4.07-13.36-1.29-17.94c-1.34-1.14-2.87-1.74-4.41-1.99C223.32,33.8,218.38,36.79,216.5,41.58z"/> <g> <g> <g> <path class="st2" d="M235.21,49.41c0.64-4.28,0.78-10.07-2.4-12.78c-1.34-1.14-2.87-1.74-4.41-1.99 c-5.08-0.83-10.02,2.16-11.9,6.95c-2.11,5.38-3.91,13.36,2,16.81l-2.05,15.97c0,0,3.84,7.53,16.94,0.54l0.71-20.33 c0,0,0.12-0.4,0.28-1.05c1.93-0.16,2.91-2.93,1.22-3.89L235.21,49.41z"/> <g> <path class="st7" d="M234.11,51.97c0.05-0.34,0.23-0.64,0.51-0.87c0.15-0.1,0.36-0.17,0.55-0.11 c0.2,0.06,0.3,0.22,0.37,0.37c-0.15-0.08-0.29-0.16-0.42-0.16c-0.13,0-0.25,0.04-0.35,0.13 C234.53,51.48,234.35,51.74,234.11,51.97z"/> </g> </g> <path class="st7" d="M218.5,58.39c0,0,1.61,1.09,4.96,0.41c0,0-2.72,1.84-5.35,2.66L218.5,58.39z"/> </g> </g> </g> <g> <g> <path class="st7" d="M218.68,45.7l-0.44-1.46l0-0.02l0-0.43l0.32,0.12c0.27,0.1,0.63,0.09,0.98,0.03 c0.35-0.06,0.7-0.17,1.04-0.3c-0.3,0.22-0.62,0.41-0.96,0.56c-0.35,0.15-0.73,0.28-1.18,0.23l0.32-0.31l0.01,0.01l0.08,1.52 c0,0.05-0.04,0.09-0.09,0.1C218.73,45.76,218.69,45.74,218.68,45.7z"/> </g> <g> <path class="st7" d="M216.54,46.44c0.21,0.47,0.46,0.9,0.79,1.23c0.33,0.33,0.72,0.56,1.16,0.65 c0.44,0.12,0.91,0.05,1.39,0.01c0.48-0.08,0.96-0.22,1.46-0.34c-0.2,0.16-0.43,0.28-0.65,0.43 c-0.23,0.12-0.48,0.21-0.72,0.31c-0.51,0.14-1.06,0.25-1.61,0.11c-0.55-0.13-1.06-0.46-1.36-0.92 C216.69,47.48,216.53,46.96,216.54,46.44z"/> </g> <g> <path class="st18" d="M223.31,42.04c-0.12,0.5-0.2,1.01-0.2,1.51c-0.01,0.49,0.17,1.03,0.62,1c0.43,0.03,0.79-0.41,1.04-0.83 c0.25-0.44,0.45-0.91,0.61-1.4c0.02-0.05,0.07-0.09,0.13-0.07c0.05,0.01,0.08,0.07,0.07,0.12c-0.12,0.52-0.3,1.02-0.56,1.49 c-0.26,0.44-0.62,1-1.29,1c-0.31,0-0.63-0.22-0.74-0.5c-0.12-0.27-0.14-0.56-0.14-0.82c0.01-0.54,0.13-1.06,0.31-1.56 c0.02-0.04,0.06-0.07,0.11-0.05C223.3,41.95,223.32,42,223.31,42.04z"/> </g> <g> <path class="st18" d="M224.34,40.35c0.6-0.21,1.34-0.16,1.88,0.28c0.25,0.23,0.45,0.51,0.55,0.82 c0.06,0.15,0.08,0.32,0.12,0.47l0.02,0.48c0,0.03-0.02,0.05-0.05,0.05c-0.02,0-0.04-0.02-0.05-0.04 c-0.14-0.6-0.35-1.18-0.8-1.53c-0.43-0.37-1.05-0.44-1.64-0.39l-0.01,0c-0.04,0-0.07-0.03-0.07-0.06 C224.29,40.39,224.31,40.36,224.34,40.35z"/> </g> <g> <path class="st18" d="M218.34,39.56c-0.15,0.44-0.26,0.9-0.31,1.35c-0.05,0.44,0.07,0.95,0.48,0.96 c0.39,0.06,0.75-0.31,1.01-0.66c0.26-0.38,0.48-0.79,0.67-1.22c0.02-0.05,0.07-0.07,0.12-0.05c0.04,0.02,0.07,0.07,0.05,0.12 c-0.15,0.46-0.35,0.9-0.63,1.31c-0.27,0.37-0.65,0.86-1.26,0.8c-0.28-0.03-0.55-0.25-0.63-0.51 c-0.09-0.26-0.08-0.52-0.06-0.76c0.06-0.49,0.21-0.95,0.41-1.39c0.02-0.04,0.06-0.06,0.1-0.04 C218.33,39.47,218.35,39.52,218.34,39.56z"/> </g> <g> <path class="st18" d="M219.01,38.16c0.6-0.21,1.34-0.16,1.88,0.28c0.25,0.23,0.45,0.51,0.55,0.82 c0.06,0.15,0.08,0.32,0.12,0.47l0.02,0.48c0,0.03-0.02,0.05-0.05,0.05c-0.02,0-0.04-0.02-0.05-0.04 c-0.14-0.6-0.35-1.18-0.8-1.53c-0.43-0.37-1.05-0.44-1.64-0.39l-0.01,0c-0.04,0-0.07-0.03-0.07-0.06 C218.96,38.19,218.98,38.17,219.01,38.16z"/> </g> <path class="st19" d="M224.83,47.45c-0.27,0.65-1.29,0.84-2.27,0.43c-0.98-0.41-1.56-1.27-1.3-1.91 c0.27-0.65,1.29-0.84,2.27-0.43C224.52,45.95,225.1,46.8,224.83,47.45z"/> <g> <path class="st7" d="M218.68,45.7l-0.44-1.46l0-0.02l0-0.43l0.32,0.12c0.27,0.1,0.63,0.09,0.98,0.03 c0.35-0.06,0.7-0.17,1.04-0.3c-0.3,0.22-0.62,0.41-0.96,0.56c-0.35,0.15-0.73,0.28-1.18,0.23l0.32-0.31l0.01,0.01l0.08,1.52 c0,0.05-0.04,0.09-0.09,0.1C218.73,45.76,218.69,45.74,218.68,45.7z"/> </g> <g> <path class="st7" d="M216.54,46.44c0.21,0.47,0.46,0.9,0.79,1.23c0.33,0.33,0.72,0.56,1.16,0.65 c0.44,0.12,0.91,0.05,1.39,0.01c0.48-0.08,0.96-0.22,1.46-0.34c-0.2,0.16-0.43,0.28-0.65,0.43 c-0.23,0.12-0.48,0.21-0.72,0.31c-0.51,0.14-1.06,0.25-1.61,0.11c-0.55-0.13-1.06-0.46-1.36-0.92 C216.69,47.48,216.53,46.96,216.54,46.44z"/> </g> <g> <path class="st18" d="M223.31,42.04c-0.12,0.5-0.2,1.01-0.2,1.51c-0.01,0.49,0.17,1.03,0.62,1c0.43,0.03,0.79-0.41,1.04-0.83 c0.25-0.44,0.45-0.91,0.61-1.4c0.02-0.05,0.07-0.09,0.13-0.07c0.05,0.01,0.08,0.07,0.07,0.12c-0.12,0.52-0.3,1.02-0.56,1.49 c-0.26,0.44-0.62,1-1.29,1c-0.31,0-0.63-0.22-0.74-0.5c-0.12-0.27-0.14-0.56-0.14-0.82c0.01-0.54,0.13-1.06,0.31-1.56 c0.02-0.04,0.06-0.07,0.11-0.05C223.3,41.95,223.32,42,223.31,42.04z"/> </g> <g> <path class="st18" d="M224.34,40.35c0.6-0.21,1.34-0.16,1.88,0.28c0.25,0.23,0.45,0.51,0.55,0.82 c0.06,0.15,0.08,0.32,0.12,0.47l0.02,0.48c0,0.03-0.02,0.05-0.05,0.05c-0.02,0-0.04-0.02-0.05-0.04 c-0.14-0.6-0.35-1.18-0.8-1.53c-0.43-0.37-1.05-0.44-1.64-0.39l-0.01,0c-0.04,0-0.07-0.03-0.07-0.06 C224.29,40.39,224.31,40.36,224.34,40.35z"/> </g> <g> <path class="st18" d="M218.34,39.56c-0.15,0.44-0.26,0.9-0.31,1.35c-0.05,0.44,0.07,0.95,0.48,0.96 c0.39,0.06,0.75-0.31,1.01-0.66c0.26-0.38,0.48-0.79,0.67-1.22c0.02-0.05,0.07-0.07,0.12-0.05c0.04,0.02,0.07,0.07,0.05,0.12 c-0.15,0.46-0.35,0.9-0.63,1.31c-0.27,0.37-0.65,0.86-1.26,0.8c-0.28-0.03-0.55-0.25-0.63-0.51 c-0.09-0.26-0.08-0.52-0.06-0.76c0.06-0.49,0.21-0.95,0.41-1.39c0.02-0.04,0.06-0.06,0.1-0.04 C218.33,39.47,218.35,39.52,218.34,39.56z"/> </g> <g> <path class="st18" d="M219.01,38.16c0.6-0.21,1.34-0.16,1.88,0.28c0.25,0.23,0.45,0.51,0.55,0.82 c0.06,0.15,0.08,0.32,0.12,0.47l0.02,0.48c0,0.03-0.02,0.05-0.05,0.05c-0.02,0-0.04-0.02-0.05-0.04 c-0.14-0.6-0.35-1.18-0.8-1.53c-0.43-0.37-1.05-0.44-1.64-0.39l-0.01,0c-0.04,0-0.07-0.03-0.07-0.06 C218.96,38.19,218.98,38.17,219.01,38.16z"/> </g> <path class="st19" d="M224.83,47.45c-0.27,0.65-1.29,0.84-2.27,0.43c-0.98-0.41-1.56-1.27-1.3-1.91 c0.27-0.65,1.29-0.84,2.27-0.43C224.52,45.95,225.1,46.8,224.83,47.45z"/> </g> </g> <path class="st20" d="M215.72,72.26c0,0-18.97,15.27-29.68,26.78c-0.72,0.78-1.42,1.58-2.05,2.43 c-0.71,0.97-1.14,1.19-2.21,3.43c-1.21,2.53,0.36,5.68,3.15,5.93c0.18,0.02,0.35,0.02,0.51,0.01c5.13-0.4,14.57-4.33,30.37-20.7 L215.72,72.26z"/> <path class="st20" d="M297.1,57.63c0,0,4.57-2.28,6.5-1.45c0.17-0.25,0.22-0.8-0.08-1.08c-1.19-1.09-2.95-0.89-2.95-0.89 s5.23-5.46,4.57-5.74c-0.66-0.28-3.69,2.27-3.69,2.27s4.17-4.35,3.44-4.42c-0.28-0.03,0,0-4.19,3.17c0,0,2.72-3.87,1.88-3.58 c-1.06,0.36-3.57,2.84-3.57,2.84s2.07-3.02,1.4-2.75c-0.67,0.27-7.23,7.28-7.23,7.28l-2.64,1.84l0,0l0,0 c-8.02,4.65-13.26,8.38-16.67,11.33c-3.29,2.85-7.41,4.56-11.76,4.71c-7.83,0.26-15.33,1.22-15.33,1.22l-5.25,14.34 c0,0,21.47-4.77,31.94-9.01C282.37,75.18,297.1,57.63,297.1,57.63z"/> <polygon class="st2" points="193.26,226.8 188.5,318.44 193.26,318.34 211.28,226.4 "/> <polygon class="st2" points="225.25,226.67 225.25,318.18 231.71,318.18 240.22,224.97 "/> <g> <path class="st21" d="M222.72,323.73l0.68-20.31l11.68-0.03c0,0-0.73,8.01,1.31,8.9c2.04,0.89,13.35,2.14,13.98,10.01 L222.72,323.73z"/> <g> <g> <path class="st22" d="M222.57,320.4c4.5-0.29,9-0.46,13.5-0.7c4.5-0.16,9-0.38,13.5-0.48c0.14,0,0.26,0.11,0.26,0.25 c0,0.14-0.11,0.26-0.24,0.26c-4.5,0.25-9,0.38-13.5,0.57c-4.5,0.11-9,0.29-13.51,0.35c-0.07,0-0.12-0.05-0.13-0.12 C222.45,320.46,222.5,320.4,222.57,320.4z"/> </g> <g> <path class="st22" d="M229.81,320.27c-0.26-0.8-0.64-1.57-1.09-2.28c-0.46-0.7-1-1.35-1.66-1.85 c-0.31-0.27-0.68-0.47-1.04-0.68c-0.39-0.15-0.76-0.33-1.17-0.42c-0.8-0.24-1.66-0.24-2.51-0.23l-0.02,0 c-0.07,0-0.13-0.06-0.13-0.13c0-0.07,0.05-0.13,0.12-0.13c0.44-0.04,0.88-0.14,1.32-0.14c0.45,0.02,0.9,0.02,1.34,0.13 c0.89,0.16,1.74,0.56,2.46,1.11c1.43,1.13,2.37,2.77,2.74,4.52c0.02,0.1-0.04,0.19-0.14,0.21c-0.09,0.02-0.18-0.03-0.21-0.12 L229.81,320.27z"/> </g> <g> <path class="st22" d="M241.72,319.75c0.02-0.95,0.15-1.88,0.26-2.82c0.14-0.93,0.28-1.86,0.52-2.78 c0.02-0.1,0.12-0.15,0.22-0.13c0.08,0.02,0.14,0.1,0.14,0.18c-0.03,0.95-0.16,1.88-0.28,2.82c-0.15,0.93-0.29,1.86-0.54,2.78 c-0.02,0.09-0.11,0.14-0.2,0.11C241.77,319.89,241.72,319.82,241.72,319.75z"/> </g> <g> <path class="st22" d="M233.29,313.58c0.57-0.89,1.25-1.68,2.03-2.38c0.09-0.08,0.24-0.07,0.32,0.02 c0.07,0.08,0.07,0.2,0.02,0.28c-0.6,0.86-1.32,1.62-2.14,2.29c-0.07,0.06-0.17,0.04-0.22-0.02 C233.26,313.71,233.26,313.64,233.29,313.58z"/> </g> <g> <path class="st22" d="M235.72,315.1c0.56-0.87,1.16-1.71,1.82-2.52c0.07-0.08,0.19-0.09,0.27-0.03 c0.07,0.06,0.09,0.16,0.05,0.24c-0.5,0.91-1.04,1.79-1.64,2.64c-0.09,0.14-0.28,0.17-0.42,0.07 C235.67,315.42,235.63,315.24,235.72,315.1z"/> </g> <g> <path class="st22" d="M238.64,316.3c0.24-1.07,0.6-2.09,1.11-3.07c0.04-0.07,0.13-0.1,0.2-0.06 c0.06,0.03,0.09,0.09,0.08,0.15c-0.17,1.09-0.48,2.13-0.92,3.13c-0.05,0.12-0.2,0.18-0.32,0.13 C238.67,316.53,238.61,316.41,238.64,316.3z"/> </g> <g> <g> <path class="st22" d="M226.16,310.08c0.77,0.01,1.45,0.72,1.44,1.53c0.02,0.81-0.72,1.58-1.6,1.55 c-0.88-0.07-1.53-0.91-1.43-1.71C224.64,310.64,225.39,310.01,226.16,310.08z M226.15,310.3c-0.66-0.05-1.25,0.54-1.22,1.16 c0,0.62,0.55,1.12,1.1,1.1c0.55,0.09,1.15-0.35,1.21-0.97C227.33,310.97,226.8,310.33,226.15,310.3z"/> </g> </g> </g> </g> <g> <path class="st21" d="M198.89,323.73l-1.3-20.28l-11.67,0.33c0,0,0.98,7.98-1.04,8.93c-2.02,0.95-13.28,2.54-13.67,10.44 L198.89,323.73z"/> <g> <g> <path class="st22" d="M198.93,320.64c-4.51,0.08-9.01,0.04-13.51,0.06c-4.5-0.05-9.01-0.04-13.51-0.15 c-0.14,0-0.25-0.12-0.25-0.26c0-0.14,0.12-0.25,0.26-0.25c4.5-0.03,9.01,0.05,13.51,0.07c4.5,0.1,9.01,0.13,13.51,0.29 c0.07,0,0.12,0.06,0.12,0.13C199.05,320.59,199,320.64,198.93,320.64z"/> </g> <g> <path class="st22" d="M191.34,320.42c0.32-1.76,1.2-3.43,2.6-4.6c0.7-0.58,1.54-1,2.42-1.19c0.44-0.12,0.89-0.14,1.34-0.17 c0.45-0.01,0.89,0.07,1.33,0.1c0.07,0,0.13,0.07,0.12,0.14c0,0.07-0.06,0.12-0.13,0.12l-0.02,0 c-0.86,0.01-1.71,0.04-2.51,0.3c-0.41,0.1-0.78,0.29-1.16,0.45c-0.35,0.22-0.71,0.43-1.02,0.71 c-0.64,0.52-1.17,1.18-1.61,1.9c-0.43,0.72-0.79,1.51-1.02,2.31l0,0.01c-0.03,0.09-0.13,0.15-0.22,0.12 C191.38,320.6,191.32,320.51,191.34,320.42z"/> </g> <g> <path class="st22" d="M179.46,320.39c-0.27-0.91-0.44-1.84-0.62-2.76c-0.15-0.93-0.31-1.86-0.37-2.81 c-0.01-0.1,0.07-0.18,0.17-0.19c0.09-0.01,0.16,0.05,0.18,0.13c0.26,0.91,0.43,1.84,0.6,2.76c0.14,0.93,0.29,1.86,0.35,2.81 c0,0.09-0.06,0.16-0.15,0.17C179.54,320.5,179.48,320.46,179.46,320.39z"/> </g> <g> <path class="st22" d="M187.78,314.13c-0.84-0.64-1.58-1.38-2.21-2.22c-0.08-0.1-0.05-0.24,0.05-0.32 c0.09-0.06,0.2-0.06,0.28,0.01c0.81,0.67,1.51,1.44,2.11,2.31c0.05,0.07,0.03,0.17-0.04,0.22 C187.91,314.17,187.83,314.17,187.78,314.13z"/> </g> <g> <path class="st22" d="M185.14,315.85c-0.62-0.83-1.19-1.69-1.72-2.59c-0.05-0.09-0.02-0.21,0.07-0.26 c0.08-0.05,0.18-0.03,0.24,0.04c0.68,0.79,1.31,1.61,1.9,2.46c0.09,0.14,0.06,0.32-0.08,0.42 C185.42,316.01,185.24,315.98,185.14,315.85z"/> </g> <g> <path class="st22" d="M182.29,316.95c-0.47-0.99-0.81-2.02-1.01-3.1c-0.02-0.08,0.04-0.16,0.12-0.17 c0.06-0.01,0.13,0.02,0.16,0.07c0.53,0.96,0.93,1.98,1.2,3.04c0.03,0.13-0.05,0.26-0.18,0.3 C182.46,317.11,182.34,317.06,182.29,316.95z"/> </g> <g> <g> <path class="st22" d="M195.05,310.41c-0.66,0.04-1.16,0.7-1.05,1.31c0.08,0.62,0.7,1.04,1.24,0.94 c0.55,0.01,1.09-0.51,1.07-1.13C196.31,310.91,195.7,310.35,195.05,310.41z M195.03,310.19c0.76-0.09,1.54,0.52,1.63,1.32 c0.13,0.8-0.5,1.66-1.37,1.75c-0.88,0.05-1.64-0.7-1.64-1.5C193.6,310.95,194.26,310.23,195.03,310.19z"/> </g> </g> </g> </g> <path class="st23" d="M215.82,70.35c0,0-4.13,9.65-15.88,19.75l8.26-0.79c0,0-7.86,24.14-1.95,27.67h27.21 c0,0,3.91-2.27,4.21-13.41c0.3-11.2,0.75-11.64,0.75-11.64l15.91-4.24V71.61l-19.25-1.98 C235.08,69.64,224.32,75.79,215.82,70.35z"/> <path class="st14" d="M206.24,116.98c0,0-4.42,0-14.29,58.85c-9.87,58.85-19.39,120.42-19.39,120.42h33.68l11.91-122.47 l3.4,0.34v122.13l31.3,1.36l-7.48-122.81c0,0,2.38-49.33-11.91-57.83H206.24z"/> <path class="st23" d="M215.82,70.35c0,0-14.53,11.29-19.67,16.61l5.03,16.61l6.83-4.1L215.82,70.35z"/> </g> <path class="st12" d="M221.53,35.84c0,0,3.73,1.72,9.16,0.31c0,0-2.64,14.57,5.79,13.25c0,0,1.51-9.63-0.9-12.78 C233.18,33.47,230.6,30.71,221.53,35.84z"/> </g> <g> <g> <g> <polygon class="st12" points="209.68,79.33 235.59,76.98 235.59,122.4 207.47,123.96 "/> <pattern id="SVGID_1_" xlink:href="#Motivo_nuevo" patternTransform="matrix(1.1088 0 0 1.1088 839.2228 745.1604)"> </pattern> <polygon class="st24" points="209.68,79.33 235.59,76.98 235.59,122.4 207.47,123.96 "/> </g> <polygon class="st25" points="230.77,94.44 214.19,95.66 214.19,88.97 230.77,87.66 "/> </g> <g> <path class="st2" d="M219.53,92.32L214,88.4c-34.83,11.34-32.06,17.86-32.06,17.86C186.14,118.34,219.53,92.32,219.53,92.32z"/> <path class="st2" d="M212.73,89.16c0,0,3.5-5.02,3.33-7.46c0.34-0.09,0.96,0.06,1.15,0.5c0.74,1.73-0.14,3.58-0.14,3.58 s8.01-3.67,8.06-2.84c0.06,0.83-3.9,3.2-3.9,3.2s6.38-2.93,6.17-2.1c-0.08,0.32,0,0-5.09,3.41c0,0,5.3-1.52,4.66-0.7 c-0.8,1.03-4.49,2.84-4.49,2.84s4.11-1.12,3.56-0.49c-0.55,0.64-10.77,5.18-10.77,5.18l-1.78-1.67L212.73,89.16z"/> </g> </g> </g> </g> <g> <g class="st16"> <g> <path class="st17" d="M109.53,287.84c-28.26,2.6-56.62,2.4-84.96,2.94c0.35,1.28,0.69,2.55,1.04,3.83 c6.29-3.13,14.73-2.13,21.55-2.15c7.03-0.02,14.06-0.08,21.08-0.16c13.76-0.15,27.53-0.33,41.29-0.35 C112.17,291.94,112.18,287.85,109.53,287.84c-14.64-0.06-29.28,0.22-43.92,0.16c-2.64-0.01-2.65,4.09,0,4.11 c14.64,0.06,29.28-0.22,43.92-0.16C109.53,290.57,109.53,289.21,109.53,287.84c-14.81,0.02-29.62,0.23-44.44,0.38 c-7.58,0.08-15.16,0.1-22.74,0.13c-6.25,0.03-13.09-0.15-18.82,2.7c-1.85,0.92-0.93,3.86,1.04,3.83 c28.34-0.54,56.71-0.34,84.96-2.94C112.14,291.7,112.17,287.6,109.53,287.84L109.53,287.84z"/> </g> </g> <g> <path class="st26" d="M99.04,48.49c-4.64-2.31-3.49-6.69-11.57-8.7c-8.09-2-10.08,7.94-12.84,8.91c-3.26,1.15-7.02,4.29-9.72,8.36 c-1.48,2.23-3.7,3.85-6.32,4.38c-0.15,0.03-0.3,0.06-0.45,0.09C41.24,65,46.63,89.69,66.49,95.02 c19.85,5.33,35.45-31.71,35.45-31.71S105.97,51.93,99.04,48.49z"/> <g> <g> <g> <g> <g> <g> <g> <path class="st2" d="M98.95,59.66c-0.23-0.71-0.84-1.26-1.68-1.35c0.07-1.44,0.04-3.04-0.15-4.81 c-0.13-1.16-0.37-2.32-0.86-3.37c-1.52-3.29-4.45-5.44-8.21-5.34c-5.17,0.12-8.27,3-9.75,8.46 c-0.46,1.72-0.57,3.66-0.42,5.59c-0.68,0.07-1.19,0.43-1.49,0.91c-0.78,1.24,0.23,2.86,1.7,2.93 c0.14,0.01,0.29,0.01,0.45,0.02c0.66,2.55,1.73,4.78,2.98,6.06l-0.84,15.5c-0.11,2.01,1.07,3.89,2.96,4.59 c4.55,1.7,8.28,0.57,10.53-0.59c1.41-0.73,2.22-2.25,2.02-3.82L94.18,68.4c0,0,1.7-2.03,2.59-6.22l0.38-0.04 C98.42,62.02,99.33,60.87,98.95,59.66z"/> <path class="st7" d="M81.5,68.76c3.51,2.72,7.14,4.05,12.67-0.36c0,0-5.42,7.05-12.9,4.42L81.5,68.76z"/> </g> <g> <path class="st7" d="M97.49,61.15l0.19-0.46c0.06-0.15,0.12-0.29,0.14-0.43c0.04-0.14,0.03-0.27-0.02-0.38 c-0.05-0.12-0.18-0.22-0.32-0.33c0.17,0.01,0.37,0.04,0.51,0.2c0.14,0.16,0.15,0.39,0.12,0.57 C98.01,60.68,97.8,60.97,97.49,61.15z"/> </g> <g> <path class="st7" d="M77.85,61.58c-0.31-0.17-0.54-0.45-0.66-0.81c-0.04-0.18-0.04-0.41,0.1-0.58 c0.13-0.17,0.33-0.21,0.5-0.22c-0.13,0.12-0.26,0.22-0.3,0.34c-0.05,0.12-0.05,0.25,0,0.38c0.02,0.14,0.1,0.28,0.16,0.43 L77.85,61.58z"/> </g> </g> </g> </g> <g> <g> <path class="st21" d="M79.9,292.9l0.65-23.73l13.24-0.2c0,0,0.69,10.53,2.99,11.74c2.31,1.21,15.38,3.6,15.46,12.83 L79.9,292.9z"/> <g> <g> <path class="st27" d="M80.01,289c5.26,0.03,10.52,0.21,15.78,0.31c5.26,0.19,10.52,0.31,15.77,0.56 c0.17,0.01,0.3,0.15,0.29,0.32c-0.01,0.17-0.15,0.3-0.31,0.29c-5.26-0.09-10.52-0.31-15.78-0.47 c-5.26-0.25-10.52-0.42-15.77-0.73c-0.08,0-0.14-0.08-0.14-0.16C79.86,289.07,79.93,289,80.01,289z"/> </g> <g> <path class="st27" d="M88.45,289.47c-0.25-0.95-0.62-1.88-1.09-2.74c-0.47-0.86-1.06-1.65-1.78-2.29 c-0.34-0.34-0.75-0.6-1.15-0.87c-0.44-0.21-0.86-0.45-1.33-0.58c-0.91-0.35-1.91-0.41-2.91-0.48l-0.02,0 c-0.09-0.01-0.15-0.08-0.15-0.17c0.01-0.08,0.07-0.14,0.14-0.15c1.02-0.09,2.09-0.1,3.11,0.21 c1.03,0.26,1.99,0.8,2.78,1.51c0.78,0.72,1.43,1.58,1.89,2.52c0.46,0.95,0.79,1.93,0.92,2.98 c0.01,0.12-0.07,0.22-0.19,0.24c-0.11,0.01-0.21-0.06-0.23-0.16L88.45,289.47z"/> </g> <g> <path class="st27" d="M102.37,289.85c0.1-1.1,0.32-2.18,0.53-3.26c0.25-1.07,0.48-2.15,0.84-3.2 c0.04-0.11,0.16-0.17,0.27-0.14c0.1,0.03,0.16,0.13,0.15,0.23c-0.11,1.1-0.34,2.18-0.56,3.26 c-0.25,1.07-0.5,2.14-0.86,3.19c-0.03,0.1-0.14,0.15-0.24,0.12C102.42,290.02,102.37,289.94,102.37,289.85z"/> </g> <g> <path class="st27" d="M93.07,281.96c0.35-0.51,0.78-0.95,1.19-1.39c0.44-0.42,0.87-0.85,1.37-1.21 c0.12-0.09,0.3-0.06,0.38,0.06c0.07,0.1,0.07,0.23-0.01,0.32c-0.37,0.49-0.81,0.91-1.25,1.33 c-0.46,0.4-0.91,0.81-1.43,1.15c-0.09,0.06-0.21,0.03-0.27-0.06C93.02,282.11,93.02,282.02,93.07,281.96z"/> </g> <g> <path class="st27" d="M95.76,283.93c0.72-0.97,1.5-1.9,2.34-2.78c0.09-0.09,0.24-0.1,0.33-0.01c0.08,0.08,0.1,0.2,0.04,0.3 c-0.65,1.03-1.36,2.01-2.12,2.94c-0.13,0.16-0.36,0.18-0.52,0.05C95.66,284.31,95.64,284.08,95.76,283.93z"/> </g> <g> <path class="st27" d="M99.06,285.57c0.16-0.62,0.41-1.2,0.66-1.79c0.27-0.58,0.54-1.15,0.89-1.7 c0.05-0.08,0.16-0.11,0.25-0.05c0.06,0.04,0.09,0.11,0.08,0.18c-0.12,0.64-0.34,1.23-0.55,1.83 c-0.24,0.59-0.46,1.18-0.78,1.74c-0.08,0.14-0.26,0.19-0.4,0.11C99.08,285.83,99.03,285.7,99.06,285.57z"/> </g> <g> <path class="st27" d="M85.05,277.28c0.9,0.08,1.64,0.96,1.55,1.9c-0.04,0.95-0.97,1.79-2,1.69 c-1.02-0.15-1.72-1.2-1.52-2.12C83.23,277.81,84.16,277.14,85.05,277.28z M85.02,277.55c-0.37-0.04-0.75,0.07-1.04,0.31 c-0.28,0.24-0.45,0.59-0.47,0.94c-0.06,0.72,0.55,1.35,1.19,1.36c0.62,0.15,1.36-0.31,1.48-1.03 c0.06-0.35-0.01-0.73-0.23-1.03C85.73,277.81,85.39,277.6,85.02,277.55z"/> </g> </g> </g> <path class="st23" d="M74.16,114.8l-2.81,19.47c-1.6,11.08-2.01,22.3-1.23,33.46l7.26,103.78h21.13l-1.33-148.56L74.16,114.8z "/> </g> <g> <g> <path class="st21" d="M46.59,252.85l21.75-9.53l5.82,11.89c0,0-9.24,5.11-9.35,7.71c-0.11,2.6,3.29,15.45-5.02,19.45 L46.59,252.85z"/> <g> <g> <path class="st27" d="M50.16,251.29c2.21,4.78,4.3,9.61,6.45,14.41c2.07,4.84,4.2,9.65,6.21,14.51 c0.07,0.16-0.01,0.34-0.17,0.4c-0.15,0.06-0.33-0.01-0.4-0.16c-2.16-4.8-4.2-9.65-6.3-14.47 c-2.02-4.86-4.11-9.69-6.06-14.57c-0.03-0.08,0.01-0.16,0.08-0.19C50.05,251.18,50.13,251.22,50.16,251.29z"/> </g> <g> <path class="st27" d="M53.34,259.12c0.75-0.62,1.44-1.36,2.02-2.15c0.57-0.79,1.05-1.66,1.31-2.59 c0.17-0.46,0.22-0.94,0.3-1.41c0-0.48,0.04-0.97-0.04-1.45c-0.07-0.98-0.44-1.9-0.81-2.83l-0.01-0.01 c-0.03-0.08,0.01-0.17,0.09-0.21c0.07-0.03,0.16,0,0.19,0.07c0.52,0.89,0.98,1.85,1.13,2.9c0.2,1.04,0.13,2.14-0.18,3.15 c-0.31,1.02-0.82,1.96-1.47,2.79c-0.66,0.82-1.41,1.54-2.31,2.1c-0.1,0.06-0.23,0.03-0.3-0.07 c-0.06-0.09-0.04-0.21,0.04-0.28L53.34,259.12z"/> </g> <g> <path class="st27" d="M58.93,271.88c1.04-0.38,2.11-0.64,3.18-0.91c1.08-0.23,2.15-0.48,3.25-0.6 c0.12-0.01,0.23,0.07,0.24,0.19c0.01,0.1-0.05,0.2-0.14,0.23c-1.04,0.37-2.12,0.62-3.18,0.88 c-1.08,0.23-2.15,0.46-3.26,0.58c-0.11,0.01-0.2-0.07-0.21-0.17C58.79,271.99,58.85,271.91,58.93,271.88z"/> </g> <g> <path class="st27" d="M62.1,260.1c0.61,0.1,1.19,0.3,1.77,0.49c0.57,0.22,1.14,0.42,1.68,0.73 c0.13,0.07,0.18,0.24,0.1,0.37c-0.06,0.11-0.18,0.16-0.3,0.13c-0.6-0.13-1.17-0.35-1.74-0.56 c-0.56-0.24-1.12-0.48-1.65-0.8c-0.09-0.06-0.12-0.17-0.06-0.26C61.95,260.12,62.03,260.09,62.1,260.1z"/> </g> <g> <path class="st27" d="M61.47,263.37c1.19,0.24,2.35,0.55,3.51,0.93c0.12,0.04,0.19,0.17,0.15,0.3 c-0.04,0.11-0.14,0.17-0.25,0.16c-1.21-0.15-2.39-0.38-3.57-0.67c-0.2-0.05-0.32-0.25-0.27-0.45 C61.08,263.45,61.28,263.33,61.47,263.37z"/> </g> <g> <path class="st27" d="M61.39,267.06c0.63-0.12,1.27-0.14,1.9-0.17c0.64,0,1.27-0.01,1.91,0.08c0.1,0.01,0.17,0.1,0.15,0.2 c-0.01,0.07-0.06,0.13-0.13,0.15c-0.63,0.16-1.26,0.22-1.89,0.29c-0.63,0.04-1.27,0.09-1.91,0.04 c-0.16-0.01-0.28-0.15-0.27-0.32C61.16,267.19,61.26,267.08,61.39,267.06z"/> </g> <g> <path class="st27" d="M62.92,250.85c0.31,0.85-0.17,1.89-1.06,2.21c-0.87,0.37-2.03-0.12-2.38-1.09 c-0.3-0.99,0.35-2.06,1.27-2.28C61.66,249.43,62.67,249.99,62.92,250.85z M62.66,250.94c-0.12-0.35-0.39-0.65-0.72-0.81 c-0.34-0.15-0.72-0.16-1.05-0.03c-0.68,0.26-0.99,1.07-0.72,1.65c0.13,0.63,0.86,1.1,1.56,0.91 c0.34-0.09,0.65-0.32,0.83-0.64C62.73,251.69,62.77,251.3,62.66,250.94z"/> </g> </g> </g> <path class="st23" d="M104.13,112.55l41.38,88.95c0,0,4.69,20.54-12.27,28.88s-60.86,30.57-60.86,30.57l-9.31-19.63 l58.49-29.53l-42.35-93.41L104.13,112.55z"/> </g> <path class="st20" d="M129.86,108.75c0.66-9.96,7.63-25.73,7.63-25.73l0,0c0,0,0.03-5.03-1.53-6.38 c0.15-0.26,0.61-0.54,0.99-0.39c1.48,0.58,2.07,2.22,2.07,2.22s2.56-6.99,3.09-6.53c0.54,0.46-0.4,4.25-0.4,4.25 s2.03-5.57,2.41-4.96c0.15,0.24,0,0-0.98,5.08c0,0,2.24-4.08,2.35-3.21c0.14,1.09-0.96,4.39-0.96,4.39s1.77-3.14,1.82-2.43 c0.05,0.71-3.3,9.55-3.3,9.55l-0.48,3.13l0,0h0c-1.86,26.77-7.09,28.88-8.45,28.97c-3.25,1.3-14.3,3.12-35.23-18.13l-0.09-17.6 C98.8,80.99,119.62,97.4,129.86,108.75z"/> <path class="st2" d="M56.01,123.45c9.7-9.05,22.36-23.44,22.36-23.44l-13.49-5.45c0,0-10.22,13.91-14.5,21.38 c-3.92,2.29-9.7,6.88-18.13,15.77l0,0h0l-2.44,2.17c0,0-8.45,4.82-8.87,5.42s3.04-0.73,3.04-0.73s-3.03,1.89-3.64,2.85 c-0.48,0.76,3.97-1.01,3.97-1.01c-4.11,3.39-4.07,3.1-4.11,3.39c-0.11,0.74,5.16-2.35,5.16-2.35s-3.22,2.39-3.1,3.11 c0.12,0.72,6.73-3.15,6.73-3.15s-0.6,1.68,0.19,3.11c0.2,0.36,0.75,0.44,1.04,0.34c-0.36-2.09,2.96-6.06,2.96-6.06l0,0 c0,0,8.73-4.37,16.12-9.68c0.38-0.26,0.78-0.56,1.2-0.88C52.58,126.65,54.49,125.04,56.01,123.45z"/> <path class="st28" d="M62.28,96.39c0,0,9.28-16.61,18.82-17.45c0,0,4.65,9.17,14.01-0.2c0,0,11.85,2.77,19.18,12.72 l-9.82,13.66l2.1,12.3l-33.65,2.31l1.06-12.5L62.28,96.39z"/> </g> <g> <g> <g> <path class="st8" d="M94.98,62.96c0.02,0.75-0.88,1.38-2.02,1.42c-1.14,0.03-2.08-0.55-2.1-1.3 c-0.02-0.75,0.88-1.38,2.02-1.42C94.02,61.63,94.96,62.21,94.98,62.96z"/> <path class="st8" d="M84.26,63.06c-0.11,0.74-1.11,1.21-2.24,1.05c-1.13-0.16-1.96-0.89-1.85-1.64 c0.11-0.74,1.11-1.21,2.24-1.05C83.54,61.59,84.37,62.32,84.26,63.06z"/> </g> <g> <g> <path class="st9" d="M84.1,59.75c-0.01,0.44-0.28,0.79-0.61,0.78c-0.32-0.01-0.58-0.37-0.57-0.81 c0.01-0.44,0.28-0.79,0.61-0.78C83.86,58.95,84.11,59.31,84.1,59.75z"/> <path class="st9" d="M92.58,59.95c-0.01,0.44-0.28,0.79-0.61,0.78c-0.32-0.01-0.58-0.37-0.57-0.81 c0.01-0.44,0.28-0.79,0.61-0.78C92.33,59.15,92.59,59.51,92.58,59.95z"/> </g> </g> </g> <g> <g> <path class="st10" d="M85.59,64.27c0.64,0.7,1.42,1.27,2.28,1.21c0.43-0.01,0.84-0.17,1.25-0.36 c0.41-0.21,0.78-0.48,1.19-0.74c-0.14,0.2-0.3,0.38-0.45,0.57c-0.18,0.16-0.36,0.32-0.56,0.48 c-0.41,0.28-0.89,0.48-1.42,0.52c-0.53,0-1.05-0.17-1.45-0.49C86.04,65.14,85.74,64.73,85.59,64.27z"/> </g> <g> <path class="st10" d="M87.41,62.22l1.26-1.04l0.02-0.01l-0.01,0.5c-0.36-0.33-0.53-0.72-0.66-1.11 c-0.13-0.39-0.2-0.78-0.24-1.17c0.14,0.37,0.31,0.72,0.52,1.04c0.2,0.32,0.46,0.61,0.73,0.74l0.35,0.17L89,61.69l-0.01,0.01 l-1.47,0.7c-0.05,0.02-0.11,0-0.14-0.05C87.36,62.3,87.37,62.25,87.41,62.22z"/> </g> </g> </g> </g> <g> <path class="st26" d="M77.43,57.33c0,0,3.88-0.73,5.73-6.23c1.85-5.5,6.47-0.56,9.42-1.21c2.95-0.64,3.02-2.97,3.02-2.97 s-2.31-5.88-9.1-4.44c-3.73,0.79-6.88,3.53-8.61,7.21C76.77,52.09,76.08,54.97,77.43,57.33z"/> <path class="st26" d="M95.61,46.53c0,0-1.49,2.88,0,5.74c0.93,1.78,1.65,4.65,1.65,4.65S100.01,49.82,95.61,46.53z"/> </g> </g> </g> </g> </svg>
