<?xml version="1.0" encoding="utf-8"?>
<!-- Generator: Adobe Illustrator 23.0.1, SVG Export Plug-In . SVG Version: 6.00 Build 0)  -->
<svg version="1.1" id="Lager_1" xmlns="http://www.w3.org/2000/svg" xmlns:xlink="http://www.w3.org/1999/xlink" x="0px" y="0px"
	 viewBox="0 0 181 55" style="enable-background:new 0 0 181 55;" xml:space="preserve">
<style type="text/css">
	.st0{fill-rule:evenodd;clip-rule:evenodd;fill:#12181E;}
	.st1{fill-rule:evenodd;clip-rule:evenodd;fill:#FFFFFF;}
	.st2{fill:url(#SVGID_1_);}
	.st3{fill:url(#SVGID_2_);}
	.st4{fill:url(#SVGID_3_);}
	.st5{fill:url(#SVGID_4_);}
</style>
<path id="_" class="st0" d="M168.4,0H12.7c-0.5,0-1,0-1.5,0c-0.4,0-0.8,0-1.2,0C9.1,0,8.2,0.1,7.3,0.3C6.5,0.4,5.6,0.7,4.8,1.1
	C4,1.5,3.3,2,2.7,2.6C2,3.3,1.5,4,1.1,4.8C0.7,5.6,0.4,6.4,0.3,7.3C0.1,8.2,0,9.1,0,10c0,0.4,0,0.8,0,1.2v32.7c0,0.4,0,0.8,0,1.2
	c0,0.9,0.1,1.8,0.2,2.7c0.1,0.9,0.4,1.7,0.8,2.5C1.5,51,2,51.8,2.7,52.4C3.3,53,4,53.6,4.8,54c0.8,0.4,1.6,0.7,2.5,0.8
	C8.2,54.9,9.1,55,10,55c0.4,0,0.8,0,1.2,0c0.5,0,1,0,1.5,0h155.7c0.5,0,1,0,1.4,0c0.4,0,0.8,0,1.2,0c0.9,0,1.8-0.1,2.7-0.2
	c0.9-0.2,1.7-0.4,2.5-0.8c0.8-0.4,1.5-0.9,2.1-1.6c0.6-0.6,1.2-1.3,1.6-2.1c0.4-0.8,0.7-1.6,0.8-2.5c0.1-0.9,0.2-1.8,0.2-2.7
	c0-0.4,0-0.8,0-1.2c0-0.5,0-1,0-1.5V12.6c0-0.5,0-1,0-1.4c0-0.4,0-0.8,0-1.2c0-0.9-0.1-1.8-0.2-2.7c-0.1-0.9-0.4-1.7-0.8-2.5
	c-0.8-1.6-2.1-2.9-3.7-3.7c-0.8-0.4-1.7-0.7-2.5-0.8C172.8,0.1,171.9,0,171,0c-0.4,0-0.8,0-1.2,0C169.3,0,168.8,0,168.4,0L168.4,0
	L168.4,0z"/>
<path id="_2" class="st1" d="M91.1,30c-3,0-5.5,2.5-5.5,5.5c0,3,2.5,5.5,5.5,5.5c3,0,5.5-2.5,5.5-5.5c0-3-2.4-5.5-5.3-5.5
	C91.2,30,91.1,30,91.1,30z M91.1,38.9c-1.8,0.1-3.4-1.3-3.6-3.1s1.3-3.4,3.1-3.6c1.8-0.1,3.4,1.3,3.6,3.1c0,0.1,0,0.2,0,0.2
	C94.2,37.3,92.9,38.8,91.1,38.9C91.1,38.9,91.1,38.9,91.1,38.9L91.1,38.9z M79,30c-3,0-5.5,2.5-5.5,5.5c0,3,2.5,5.5,5.5,5.5
	c3,0,5.5-2.5,5.5-5.5c0-3-2.4-5.5-5.3-5.5C79.1,30,79.1,30,79,30z M79,38.9c-1.8,0.1-3.4-1.3-3.6-3.1s1.3-3.4,3.1-3.6
	c1.8-0.1,3.4,1.3,3.6,3.1c0,0.1,0,0.2,0,0.2C82.2,37.3,80.8,38.8,79,38.9C79.1,38.9,79,38.9,79,38.9L79,38.9z M64.7,31.7v2.3h5.6
	c-0.1,1.1-0.5,2.1-1.3,2.9c-1.1,1.2-2.7,1.8-4.3,1.7c-3.4,0-6.2-2.9-6.1-6.3c0-3.4,2.8-6.1,6.1-6.1c1.6,0,3.1,0.6,4.2,1.7l1.6-1.6
	c-1.6-1.5-3.7-2.4-5.9-2.4c-4.7-0.1-8.6,3.7-8.7,8.4c-0.1,4.7,3.7,8.6,8.4,8.7c0.1,0,0.2,0,0.3,0c2.2,0.1,4.4-0.8,6-2.4
	c1.4-1.5,2.1-3.4,2-5.5c0-0.5,0-1-0.1-1.5L64.7,31.7L64.7,31.7z M123.3,33.5c-0.7-2-2.6-3.4-4.7-3.5c-2.9,0-5.2,2.4-5.2,5.3
	c0,0.1,0,0.2,0,0.2c-0.1,3,2.3,5.4,5.3,5.5c0.1,0,0.1,0,0.2,0c1.8,0,3.6-0.9,4.6-2.4l-1.9-1.3c-0.6,0.9-1.6,1.5-2.7,1.5
	c-1.1,0-2.2-0.6-2.7-1.7l7.4-3L123.3,33.5z M115.8,35.4c-0.1-1.7,1.2-3.1,2.8-3.2c0,0,0,0,0.1,0c0.9-0.1,1.7,0.4,2,1.2L115.8,35.4z
	 M109.8,40.7h2.4V24.5h-2.4V40.7z M105.9,31.3L105.9,31.3c-0.8-0.8-1.9-1.3-3-1.2c-3,0.1-5.4,2.7-5.3,5.7c0.1,2.8,2.4,5.1,5.3,5.3
	c1.1,0,2.2-0.4,2.9-1.2h0.1v0.8c0,2.1-1.1,3.2-2.9,3.2c-1.2,0-2.3-0.8-2.8-2L98,42.7c0.8,2,2.7,3.3,4.9,3.3c2.8,0,5.2-1.7,5.2-5.7
	v-9.9h-2.3L105.9,31.3L105.9,31.3z M103.1,38.9c-1.8-0.2-3.2-1.8-3-3.6c0.1-1.6,1.4-2.9,3-3c1.7,0.1,3,1.5,2.9,3.2c0,0,0,0.1,0,0.1
	c0.1,1.7-1.1,3.2-2.8,3.3C103.2,38.9,103.1,38.9,103.1,38.9L103.1,38.9z M134.6,24.5h-5.8v16.2h2.4v-6.1h3.4c2.8,0.2,5.2-2,5.3-4.7
	c0.2-2.8-2-5.2-4.7-5.3C135,24.5,134.8,24.5,134.6,24.5L134.6,24.5z M134.7,32.3h-3.4v-5.5h3.4c1.5-0.1,2.8,1.1,2.9,2.7
	c0.1,1.5-1.1,2.8-2.7,2.9C134.8,32.3,134.8,32.3,134.7,32.3L134.7,32.3z M149.6,30c-1.8-0.1-3.5,0.9-4.3,2.5l2.1,0.9
	c0.4-0.8,1.3-1.3,2.2-1.2c1.3-0.1,2.4,0.8,2.5,2.1v0.2c-0.8-0.4-1.6-0.6-2.5-0.6c-2.3,0-4.7,1.3-4.7,3.6c0.1,2.1,1.8,3.7,3.9,3.6
	c0,0,0.1,0,0.1,0c1.2,0.1,2.4-0.5,3.1-1.6h0.1v1.2h2.3v-6.2C154.5,31.6,152.4,30,149.6,30L149.6,30z M149.3,38.9
	c-0.8,0-1.9-0.4-1.9-1.4c0-1.2,1.4-1.7,2.6-1.7c0.8,0,1.5,0.2,2.2,0.5C152,37.8,150.8,38.9,149.3,38.9L149.3,38.9z M163,30.4l-2.8,7
	h-0.1l-2.9-7h-2.6l4.3,9.8l-2.5,5.5h2.5l6.6-15.3L163,30.4L163,30.4z M141.3,40.7h2.4V24.5h-2.4V40.7z"/>
<path id="_3" class="st1" d="M105.9,18.9h-1.1l-3.7-6l0,1.1v4.9h-1.2V11h1.4l3.6,5.7l0-1.1V11h1.2v7.9L105.9,18.9L105.9,18.9z
	 M94.6,19c-1.1,0-2.2-0.4-2.9-1.2c-0.8-0.8-1.2-1.8-1.2-2.9c0-1.1,0.4-2.1,1.2-2.9c1.6-1.6,4.2-1.6,5.8,0c0.8,0.8,1.2,1.8,1.2,2.9
	c0,1.1-0.4,2.1-1.2,2.9C96.8,18.6,95.7,19.1,94.6,19L94.6,19z M96.6,12.8c-1.1-1.1-2.9-1.1-4,0c-0.5,0.6-0.8,1.3-0.8,2.1
	c0,0.8,0.3,1.5,0.8,2.1c1.1,1.1,2.9,1.1,4,0c0.5-0.6,0.8-1.3,0.8-2.1C97.5,14.1,97.2,13.4,96.6,12.8L96.6,12.8z M85.4,18.7v0.1h-1.2
	v-6.7H82V11h5.5v1.2h-2.1L85.4,18.7L85.4,18.7z M79.9,18.9h-0.1V11H81v7.9L79.9,18.9L79.9,18.9z M74.1,18.7v0.1h-1.2v-6.7h-2.1V11
	h5.5v1.2h-2.1L74.1,18.7L74.1,18.7z M65.2,11h4.7v1.2h-3.5v2.2h3.2v1.2h-3.2v2.2h3.5v1.2h-4.7L65.2,11L65.2,11z M63,17.9L63,17.9
	c-0.8,0.8-1.8,1.2-2.9,1.2c-1.1,0-2.1-0.4-2.9-1.2C56.4,17.1,56,16,56,14.9c0-1.1,0.4-2.2,1.2-2.9c0.8-0.8,1.8-1.2,2.9-1.2
	c0.6,0,1.1,0.1,1.6,0.3c0.5,0.2,0.9,0.5,1.2,0.9l0.1,0.1L63,12.2L62.2,13l-0.1-0.1c-0.5-0.6-1.2-0.9-2-0.9c-1.6,0-2.8,1.2-2.9,2.8
	c0,0,0,0.1,0,0.1c0,1.6,1.3,2.9,2.9,2.9c0.8,0,1.5-0.3,2-0.8c0.3-0.4,0.5-0.8,0.6-1.3H60v-1.2h4l0,0.1c0,0.2,0.1,0.4,0.1,0.6
	C64.1,16.2,63.7,17.1,63,17.9L63,17.9L63,17.9z"/>
<g>
	
		<linearGradient id="SVGID_1_" gradientUnits="userSpaceOnUse" x1="30.7144" y1="43.8277" x2="9.835" y2="22.9483" gradientTransform="matrix(1 0 0 -1 0 57.78)">
		<stop  offset="0" style="stop-color:#00A0FF"/>
		<stop  offset="6.574450e-03" style="stop-color:#00A1FF"/>
		<stop  offset="0.2601" style="stop-color:#00BEFF"/>
		<stop  offset="0.5122" style="stop-color:#00D2FF"/>
		<stop  offset="0.7604" style="stop-color:#00DFFF"/>
		<stop  offset="1" style="stop-color:#00E3FF"/>
	</linearGradient>
	<path class="st2" d="M16.6,12.5c-0.4,0.4-0.6,1-0.6,1.7v27.5c0,0.8,0.2,1.4,0.6,1.7l0.1,0.1l15.4-15.4V28v-0.2L16.6,12.5L16.6,12.5
		z"/>
	
		<linearGradient id="SVGID_2_" gradientUnits="userSpaceOnUse" x1="45.687" y1="29.7794" x2="15.5831" y2="29.7794" gradientTransform="matrix(1 0 0 -1 0 57.78)">
		<stop  offset="0" style="stop-color:#FFE000"/>
		<stop  offset="0.4087" style="stop-color:#FFBD00"/>
		<stop  offset="0.7754" style="stop-color:#FFA500"/>
		<stop  offset="1" style="stop-color:#FF9C00"/>
	</linearGradient>
	<path class="st3" d="M37.2,33.3l-5.1-5.1V28v-0.2l5.1-5.1l0.1,0.1l6.1,3.5c1.7,1,1.7,2.6,0,3.6l-6.1,3.5L37.2,33.3z"/>
	
		<linearGradient id="SVGID_3_" gradientUnits="userSpaceOnUse" x1="34.4806" y1="26.9246" x2="6.1666" y2="-1.3895" gradientTransform="matrix(1 0 0 -1 0 57.78)">
		<stop  offset="0" style="stop-color:#FF3A44"/>
		<stop  offset="1" style="stop-color:#C31162"/>
	</linearGradient>
	<path class="st4" d="M37.3,33.3L32.1,28L16.6,43.5c0.6,0.6,1.5,0.7,2.6,0.1L37.3,33.3"/>
	
		<linearGradient id="SVGID_4_" gradientUnits="userSpaceOnUse" x1="12.6716" y1="54.4445" x2="25.3151" y2="41.801" gradientTransform="matrix(1 0 0 -1 0 57.78)">
		<stop  offset="0" style="stop-color:#32A071"/>
		<stop  offset="6.850000e-02" style="stop-color:#2DA771"/>
		<stop  offset="0.4762" style="stop-color:#15CF74"/>
		<stop  offset="0.8009" style="stop-color:#06E775"/>
		<stop  offset="1" style="stop-color:#00F076"/>
	</linearGradient>
	<path class="st5" d="M37.3,22.7L19.2,12.4c-1.1-0.6-2-0.5-2.6,0.1L32.1,28L37.3,22.7z"/>
</g>
</svg>
