<svg xmlns="http://www.w3.org/2000/svg" width="165" height="55" viewBox="0 0 165 55">
  <defs>
    <style>
      .cls-1 {
        fill: #12181e;
      }

      .cls-1, .cls-2 {
        fill-rule: evenodd;
      }

      .cls-2 {
        fill: #fff;
      }
    </style>
  </defs>
  <path id="_" data-name="#" class="cls-1" d="M152.371,0H12.659c-0.486,0-.967,0-1.452,0-0.406,0-.809.01-1.218,0.017A17.546,17.546,0,0,0,7.331.254a8.838,8.838,0,0,0-2.521.831A8.533,8.533,0,0,0,2.664,2.648,8.3,8.3,0,0,0,1.1,4.8,8.755,8.755,0,0,0,.273,7.322,17.232,17.232,0,0,0,.036,9.976c-0.012.407-.014,0.815-0.02,1.221v32.65c0.006,0.412.008,0.811,0.02,1.222a17.23,17.23,0,0,0,.238,2.655A8.737,8.737,0,0,0,1.1,50.25a8.232,8.232,0,0,0,1.562,2.141,8.319,8.319,0,0,0,2.146,1.563,8.888,8.888,0,0,0,2.521.837,17.845,17.845,0,0,0,2.657.234c0.41,0.009.813,0.014,1.218,0.014,0.485,0,.965,0,1.452,0H152.371c0.476,0,.96,0,1.437,0,0.4,0,.818-0.005,1.222-0.014a17.594,17.594,0,0,0,2.652-.234,9.022,9.022,0,0,0,2.531-.837,8.331,8.331,0,0,0,2.144-1.563,8.471,8.471,0,0,0,1.567-2.141,8.741,8.741,0,0,0,.821-2.525,17.918,17.918,0,0,0,.246-2.655c0-.412,0-0.811,0-1.222,0.011-.482.011-0.961,0.011-1.45V12.645c0-.486,0-0.967-0.011-1.448,0-.406,0-0.814,0-1.221a17.919,17.919,0,0,0-.246-2.655,8.759,8.759,0,0,0-.821-2.524,8.578,8.578,0,0,0-3.711-3.713,8.971,8.971,0,0,0-2.531-.831A17.3,17.3,0,0,0,155.03.019c-0.4-.006-0.818-0.014-1.222-0.017-0.477,0-.961,0-1.437,0h0Z"/>
  <path id="_2" data-name="#" class="cls-2" d="M140.471,35.615v0.149a3.126,3.126,0,0,0,3.229,3.4,2.717,2.717,0,0,0,2.773-1.689h2.34c-0.332,2.18-2.454,3.675-5.17,3.675-3.492,0-5.66-2.34-5.66-6.094s2.18-6.208,5.557-6.208c3.321,0,5.41,2.282,5.41,5.922v0.844h-8.479Zm3.069-4.769a3.04,3.04,0,0,0-3.058,3.047h6A2.886,2.886,0,0,0,143.54,30.845Zm-5-13.392a1.579,1.579,0,0,0,1.591,1.711,1.431,1.431,0,0,0,1.42-.724h1.134a2.423,2.423,0,0,1-2.587,1.727c-1.711,0-2.758-1.173-2.758-3.082s1.069-3.12,2.753-3.12c1.661,0,2.664,1.135,2.664,3.01v0.411h-4.217v0.066Zm3.016-.937a1.44,1.44,0,0,0-1.469-1.547,1.527,1.527,0,0,0-1.547,1.547h3.016Zm-4.1,14.751a3.443,3.443,0,0,0-1.107-.149,2.483,2.483,0,0,0-2.568,2.762V41h-2.465V29h2.351v2.043h0.057a2.863,2.863,0,0,1,2.888-2.169,3.8,3.8,0,0,1,.844.092v2.3Zm-2.819-14.779a1.214,1.214,0,0,0-1.277-1.437,1.4,1.4,0,0,0-1.5,1.514v3.487h-1.179v-8.3h1.168v3.29h0.093a1.838,1.838,0,0,1,1.821-1.07,1.967,1.967,0,0,1,2.056,2.226v3.855h-1.179V16.488ZM123.584,41.15c-3.491,0-5.693-2.363-5.693-6.151s2.224-6.151,5.693-6.151,5.7,2.374,5.7,6.151S127.077,41.15,123.584,41.15Zm0-10.272c-2,0-3.183,1.541-3.183,4.121,0,2.6,1.187,4.119,3.183,4.119S126.769,37.6,126.769,35,125.581,30.879,123.584,30.879Zm3.006-12.406V15.1h-0.948V14.109h0.948V12.595h1.18v1.514h1.293V15.1H127.77v3.07a0.752,0.752,0,0,0,.844.9,3.946,3.946,0,0,0,.449-0.027v0.981a3.837,3.837,0,0,1-.641.06C127.112,20.085,126.59,19.624,126.59,18.473Zm-6.72-2.053a1.2,1.2,0,0,0-1.288-1.437,1.37,1.37,0,0,0-1.426,1.513V19.99h-1.178V14.019h1.134v0.949H117.2a1.787,1.787,0,0,1,1.782-1.064,1.942,1.942,0,0,1,2.067,2.221V19.99H119.87V16.42Zm-8.287,3.685c-1.749,0-2.818-1.168-2.818-3.1s1.074-3.1,2.818-3.1S114.4,15.077,114.4,17,113.327,20.105,111.583,20.105Zm0-5.155c-1.025,0-1.6.757-1.6,2.051s0.576,2.056,1.6,2.056,1.6-.756,1.6-2.056S112.6,14.951,111.583,14.951Zm-8.859,11.467c-1.985,0-3.344,1-3.344,2.464,0,1.164.868,1.849,2.99,2.374l1.814,0.445c3.378,0.8,4.782,2.156,4.782,4.565,0,3.081-2.454,5.01-6.357,5.01-3.652,0-6.117-1.884-6.277-4.863h2.523c0.183,1.633,1.769,2.705,3.937,2.705,2.077,0,3.571-1.072,3.571-2.545,0-1.278-.9-2.043-3.035-2.568l-2.134-.514c-3.024-.73-4.428-2.144-4.428-4.439,0-2.841,2.476-4.793,5.992-4.793,3.48,0,5.865,1.951,5.945,4.793h-2.488C106.068,27.41,104.709,26.418,102.724,26.418Zm0.036-7.371h-0.093a2.072,2.072,0,0,1-1.875,1.042c-1.519,0-2.479-1.2-2.479-3.087s0.97-3.082,2.479-3.082a1.968,1.968,0,0,1,1.831,1.048h0.088V11.688h1.178v8.3H102.76V19.046Zm-1.634-4.068c-0.992,0-1.6.767-1.6,2.023s0.6,2.029,1.6,2.029,1.607-.773,1.607-2.023S102.113,14.978,101.126,14.978Zm-5.5,4.172H95.537a2.009,2.009,0,0,1-1.793.938,1.8,1.8,0,0,1-1.99-1.787c0-1.075.8-1.694,2.221-1.783l1.617-.093V15.91a1.006,1.006,0,0,0-1.222-.987,1.168,1.168,0,0,0-1.244.663H91.983c0.12-1.025,1.085-1.683,2.44-1.683,1.5,0,2.341.745,2.341,2.007v4.08H95.63V19.151Zm-0.039-1.859-1.458.093c-0.822.055-1.2,0.335-1.2,0.861a0.943,0.943,0,0,0,1.107.85,1.408,1.408,0,0,0,1.546-1.305v-0.5ZM87.7,20.105c-1.748,0-2.818-1.168-2.818-3.1s1.075-3.1,2.818-3.1,2.815,1.173,2.815,3.1S89.442,20.105,87.7,20.105Zm0-5.155c-1.024,0-1.6.757-1.6,2.051s0.576,2.056,1.6,2.056S89.3,18.3,89.3,17,88.718,14.951,87.7,14.951ZM90.123,35c0,3.731-2,6.128-5.01,6.128a4.07,4.07,0,0,1-3.777-2.1H81.278v5.947H78.814V29H81.2v2h0.045a4.259,4.259,0,0,1,3.823-2.122C88.114,28.87,90.123,31.279,90.123,35Zm-8.855,0c0,2.419,1.266,4.039,3.149,4.039,1.916,0,3.173-1.586,3.173-4.039,0-2.431-1.256-4.029-3.173-4.029C82.535,30.971,81.268,32.6,81.268,35Zm0.8-23.311h1.178v8.3H82.063v-8.3ZM79.007,16.42a1.2,1.2,0,0,0-1.288-1.437A1.37,1.37,0,0,0,76.293,16.5V19.99H75.115V14.019h1.134v0.949h0.088A1.788,1.788,0,0,1,78.119,13.9a1.942,1.942,0,0,1,2.067,2.221V19.99H79.007V16.42ZM70.869,19.99l-1.234-4.4H69.541l-1.229,4.4H67.1l-1.646-5.971h1.2l1.07,4.556h0.088l1.228-4.556h1.131l1.228,4.556h0.093l1.064-4.556H73.73L72.091,19.99H70.869Zm-9.078.115c-1.748,0-2.818-1.168-2.818-3.1s1.075-3.1,2.818-3.1S64.6,15.077,64.6,17,63.535,20.105,61.791,20.105Zm0-5.155c-1.024,0-1.6.757-1.6,2.051s0.576,2.056,1.6,2.056,1.6-.756,1.6-2.056S62.811,14.951,61.791,14.951ZM61.366,41L59.86,36.551H53.583L52.076,41H49.417l5.945-16.467h2.762L64.07,41h-2.7Zm-4.61-13.728H56.687L54.233,34.5h4.975ZM53.862,19.99H51V12.078h2.858c2.346,0,3.723,1.442,3.723,3.932C57.585,18.537,56.219,19.99,53.862,19.99ZM53.725,13.2H52.233v5.675h1.492c1.655,0,2.609-1.031,2.609-2.846C56.334,14.238,55.364,13.2,53.725,13.2ZM38.58,37.4c-1.192,1.783-2.442,3.526-4.426,3.558-1.928.044-2.576-1.134-4.787-1.134-2.232,0-2.922,1.1-4.771,1.179-1.89.07-3.334-1.9-4.569-3.67-2.469-3.608-4.392-10.168-1.815-14.631a7.086,7.086,0,0,1,5.963-3.636c1.891-.039,3.647,1.277,4.81,1.277,1.141,0,3.311-1.574,5.549-1.34a6.752,6.752,0,0,1,5.32,2.876,6.6,6.6,0,0,0-3.141,5.535A6.374,6.374,0,0,0,40.6,33.275,14.617,14.617,0,0,1,38.58,37.4Zm-9.823-18.73a6.181,6.181,0,0,1,1.525-4.481,6.608,6.608,0,0,1,4.276-2.212,6.5,6.5,0,0,1-1.486,4.653A5.465,5.465,0,0,1,28.757,18.667ZM67.986,30.993h0.045a4.259,4.259,0,0,1,3.823-2.122c3.047,0,5.056,2.409,5.056,6.129s-2,6.128-5.01,6.128a4.07,4.07,0,0,1-3.778-2.1H68.065v5.947H65.6V29h2.385v2ZM71.2,39.038c1.917,0,3.173-1.586,3.173-4.039,0-2.431-1.256-4.029-3.173-4.029-1.883,0-3.149,1.632-3.149,4.029C68.054,37.418,69.321,39.038,71.2,39.038Zm40.605-12.883h2.476V29h2.283v1.952h-2.283v6.619a1.292,1.292,0,0,0,1.461,1.507,7.711,7.711,0,0,0,.811-0.057v1.94a6.767,6.767,0,0,1-1.369.114c-2.431,0-3.379-.913-3.379-3.241V30.948h-1.745V29h1.745V26.155Z"/>
</svg>
