<svg xmlns="http://www.w3.org/2000/svg" width="14" height="14" viewBox="0 0 14 14">
  <metadata><?xpacket begin="﻿" id="W5M0MpCehiHzreSzNTczkc9d"?>
<x:xmpmeta xmlns:x="adobe:ns:meta/" x:xmptk="Adobe XMP Core 5.6-c140 79.160451, 2017/05/06-01:08:21        ">
   <rdf:RDF xmlns:rdf="http://www.w3.org/1999/02/22-rdf-syntax-ns#">
      <rdf:Description rdf:about=""/>
   </rdf:RDF>
</x:xmpmeta>
                                                                                                    
                                                                                                    
                                                                                                    
                                                                                                    
                                                                                                    
                                                                                                    
                                                                                                    
                                                                                                    
                                                                                                    
                                                                                                    
                                                                                                    
                                                                                                    
                                                                                                    
                                                                                                    
                                                                                                    
                                                                                                    
                                                                                                    
                                                                                                    
                                                                                                    
                                                                                                    
                           
<?xpacket end="w"?></metadata>
<defs>
    <style>
      .cls-1 {
        fill: #9099a6;
        fill-rule: evenodd;
        opacity: 0.8;
      }
    </style>
  </defs>
  <path id="status_in_progress_grey" class="cls-1" d="M586,257a1,1,0,1,1-1,1A1,1,0,0,1,586,257Zm4,2a1,1,0,1,1-1,1A1,1,0,0,1,590,259Zm2,4a1,1,0,1,1-1,1A1,1,0,0,1,592,263Zm-2,4a1,1,0,1,1-1,1A1,1,0,0,1,590,267Zm-4,2a1,1,0,1,1-1,1A1,1,0,0,1,586,269Zm-4-2a1,1,0,1,1-1,1A1,1,0,0,1,582,267Zm-2-4a1,1,0,1,1-1,1A1,1,0,0,1,580,263Zm2-4a1,1,0,1,1-1,1A1,1,0,0,1,582,259Z" transform="translate(-579 -257)"/>
</svg>
