<svg id="store" xmlns="http://www.w3.org/2000/svg" width="30" height="30" viewBox="0 0 30 30">
  <metadata><?xpacket begin="﻿" id="W5M0MpCehiHzreSzNTczkc9d"?>
<x:xmpmeta xmlns:x="adobe:ns:meta/" x:xmptk="Adobe XMP Core 5.6-c140 79.160451, 2017/05/06-01:08:21        ">
   <rdf:RDF xmlns:rdf="http://www.w3.org/1999/02/22-rdf-syntax-ns#">
      <rdf:Description rdf:about=""/>
   </rdf:RDF>
</x:xmpmeta>
                                                                                                    
                                                                                                    
                                                                                                    
                                                                                                    
                                                                                                    
                                                                                                    
                                                                                                    
                                                                                                    
                                                                                                    
                                                                                                    
                                                                                                    
                                                                                                    
                                                                                                    
                                                                                                    
                                                                                                    
                                                                                                    
                                                                                                    
                                                                                                    
                                                                                                    
                                                                                                    
                           
<?xpacket end="w"?></metadata>
<defs>
    <style>
      .cls-1 {
        fill: #5eb648;
      }

      .cls-2 {
        fill: #fff;
      }

      .cls-2, .cls-3 {
        fill-rule: evenodd;
      }

      .cls-3 {
        fill: #dff0da;
      }
    </style>
  </defs>
  <circle id="_" data-name="#" class="cls-1" cx="15" cy="15" r="15"/>
  <path id="_2" data-name="#" class="cls-2" d="M83.13,73.005a1.8,1.8,0,0,1-1.665-1.145,1.953,1.953,0,0,1-1.775,1.145A1.829,1.829,0,0,1,78,71.867a1.922,1.922,0,0,1-1.754,1.139,1.943,1.943,0,0,1-1.766-1.145,1.736,1.736,0,0,1-1.619,1.145,1.885,1.885,0,0,1-1.872-1.893,0.159,0.159,0,0,1,.018-0.074l1.834-2.979a0.152,0.152,0,0,1,.134-0.082h9.945a0.153,0.153,0,0,1,.134.082l1.926,2.979a0.16,0.16,0,0,1,.018.074A1.885,1.885,0,0,1,83.13,73.005Z" transform="translate(-63 -60)"/>
  <path id="_3" data-name="#" class="cls-3" d="M73,76a1,1,0,0,1,1-1h8a1,1,0,0,1,1,1l0,4.69a1.329,1.329,0,0,1-1.329,1.329h-0.34A1.329,1.329,0,0,1,80,80.69v-3.7s0,0,0-.007H76V77s0,0,0,.005V80.69a1.329,1.329,0,0,1-1.329,1.329H74.33A1.329,1.329,0,0,1,73,80.69V76Z" transform="translate(-63 -60)"/>
</svg>
