<svg xmlns="http://www.w3.org/2000/svg" width="14" height="14" viewBox="0 0 14 14">
  <defs>
    <style>
      .cls-1 {
        fill: #9099a6;
        fill-rule: evenodd;
      }
    </style>
  </defs>
  <path id="Duplicate" class="cls-1" d="M12,10.9V8h0V1.5A0.5,0.5,0,0,0,11.5,1H2.1A1.488,1.488,0,0,1,3.5,0h8A1.5,1.5,0,0,1,13,1.5v8A1.488,1.488,0,0,1,12,10.9ZM11,3.5v8A1.5,1.5,0,0,1,9.5,13h-8A1.5,1.5,0,0,1,0,11.5v-8A1.5,1.5,0,0,1,1.5,2h8A1.5,1.5,0,0,1,11,3.5ZM1,3.5v8a0.5,0.5,0,0,0,.5.5h8a0.5,0.5,0,0,0,.5-0.5v-8A0.5,0.5,0,0,0,9.5,3h-8A0.5,0.5,0,0,0,1,3.5ZM6,10H5V8H3V7H5V5H6V7H8V8H6v2Z"/>
</svg>
