<svg xmlns="http://www.w3.org/2000/svg" width="30.062" height="28.06" viewBox="0 0 30.062 28.06">
  <metadata><?xpacket begin="﻿" id="W5M0MpCehiHzreSzNTczkc9d"?>
<x:xmpmeta xmlns:x="adobe:ns:meta/" x:xmptk="Adobe XMP Core 5.6-c140 79.160451, 2017/05/06-01:08:21        ">
   <rdf:RDF xmlns:rdf="http://www.w3.org/1999/02/22-rdf-syntax-ns#">
      <rdf:Description rdf:about=""/>
   </rdf:RDF>
</x:xmpmeta>
                                                                                                    
                                                                                                    
                                                                                                    
                                                                                                    
                                                                                                    
                                                                                                    
                                                                                                    
                                                                                                    
                                                                                                    
                                                                                                    
                                                                                                    
                                                                                                    
                                                                                                    
                                                                                                    
                                                                                                    
                                                                                                    
                                                                                                    
                                                                                                    
                                                                                                    
                                                                                                    
                           
<?xpacket end="w"?></metadata>
<defs>
    <style>
      .cls-1 {
        fill: #2994ed;
        fill-rule: evenodd;
      }
    </style>
  </defs>
  <path class="cls-1" d="M664.239,4630.78l2.68,8.06a1.268,1.268,0,0,0,1.205.86H676.8a1.234,1.234,0,0,1,.745,2.24l-7.016,4.98a1.232,1.232,0,0,0-.46,1.39l2.68,8.06a1.258,1.258,0,0,1-1.951,1.38l-7.016-4.98a1.275,1.275,0,0,0-1.489,0l-7.017,4.98a1.258,1.258,0,0,1-1.95-1.38l2.68-8.06a1.232,1.232,0,0,0-.46-1.39l-7.016-4.98a1.234,1.234,0,0,1,.745-2.24h8.672a1.268,1.268,0,0,0,1.205-.86l2.68-8.06A1.277,1.277,0,0,1,664.239,4630.78Z" transform="translate(-648 -4629.94)"/>
</svg>
