<svg xmlns="http://www.w3.org/2000/svg" width="16" height="16" viewBox="0 0 16 16">
  <defs>
    <style>
      .cls-1 {
        fill: #fff;
        fill-rule: evenodd;
      }
    </style>
  </defs>
  <path id="_2_Products" data-name="2 Products" class="cls-1" d="M13,15H12V12h1a1,1,0,0,0,1-1V4a1,1,0,0,0-1-1H12V2h1a2,2,0,0,1,2,2v9A2,2,0,0,1,13,15ZM9,15H2a2,2,0,0,1-2-2V4A2,2,0,0,1,2,2H9a2,2,0,0,1,2,2v9A2,2,0,0,1,9,15ZM10,4A1,1,0,0,0,9,3H2A1,1,0,0,0,1,4v7a1,1,0,0,0,1,1H9a1,1,0,0,0,1-1V4ZM6.5,10h-2a0.5,0.5,0,1,1,0-1H6V8H4.5a0.5,0.5,0,1,1,0-1H6V6H4.5a0.5,0.5,0,0,1,0-1h2a0.5,0.5,0,0,1,.5.5v4A0.5,0.5,0,0,1,6.5,10Z"/>
</svg>
