<svg id="homepage_product" xmlns="http://www.w3.org/2000/svg" width="18" height="18" viewBox="0 0 18 18">
  <metadata><?xpacket begin="﻿" id="W5M0MpCehiHzreSzNTczkc9d"?>
<x:xmpmeta xmlns:x="adobe:ns:meta/" x:xmptk="Adobe XMP Core 5.6-c140 79.160451, 2017/05/06-01:08:21        ">
   <rdf:RDF xmlns:rdf="http://www.w3.org/1999/02/22-rdf-syntax-ns#">
      <rdf:Description rdf:about=""/>
   </rdf:RDF>
</x:xmpmeta>
                                                                                                    
                                                                                                    
                                                                                                    
                                                                                                    
                                                                                                    
                                                                                                    
                                                                                                    
                                                                                                    
                                                                                                    
                                                                                                    
                                                                                                    
                                                                                                    
                                                                                                    
                                                                                                    
                                                                                                    
                                                                                                    
                                                                                                    
                                                                                                    
                                                                                                    
                                                                                                    
                           
<?xpacket end="w"?></metadata>
<defs>
    <style>
      .cls-2 {
        fill: #fff;
        fill-rule: evenodd;
      }
    </style>
  </defs>
  <path id="_2" data-name="#" class="cls-2" d="M154,107.206a0.8,0.8,0,0,1-.8.8h-1.411a0.8,0.8,0,0,1-.8-0.8v-2.241a0.043,0.043,0,0,1,0-.005h-1.975a0.043,0.043,0,0,1,0,.005v2.241a0.8,0.8,0,0,1-.8.8H146.8a0.8,0.8,0,0,1-.8-0.8l0-4.144a0.412,0.412,0,0,1,.221-0.367l3.6-2.668a0.393,0.393,0,0,1,.357,0l3.6,2.668a0.411,0.411,0,0,1,.222.367Z" transform="translate(-141 -95)"/>
</svg>
