<svg id="social_media" xmlns="http://www.w3.org/2000/svg" width="18" height="18" viewBox="0 0 18 18">
  <metadata><?xpacket begin="﻿" id="W5M0MpCehiHzreSzNTczkc9d"?>
<x:xmpmeta xmlns:x="adobe:ns:meta/" x:xmptk="Adobe XMP Core 5.6-c140 79.160451, 2017/05/06-01:08:21        ">
   <rdf:RDF xmlns:rdf="http://www.w3.org/1999/02/22-rdf-syntax-ns#">
      <rdf:Description rdf:about=""/>
   </rdf:RDF>
</x:xmpmeta>
                                                                                                    
                                                                                                    
                                                                                                    
                                                                                                    
                                                                                                    
                                                                                                    
                                                                                                    
                                                                                                    
                                                                                                    
                                                                                                    
                                                                                                    
                                                                                                    
                                                                                                    
                                                                                                    
                                                                                                    
                                                                                                    
                                                                                                    
                                                                                                    
                                                                                                    
                                                                                                    
                           
<?xpacket end="w"?></metadata>
<defs>
    <style>
      .cls-2, .cls-3 {
        fill: #fff;
        fill-rule: evenodd;
      }

      .cls-3 {
        opacity: 0.5;
      }
    </style>
  </defs>
  <path id="_2" data-name="#" class="cls-2" d="M227,100a2,2,0,1,1-2,2A2,2,0,0,1,227,100Zm6,0a2,2,0,1,1-2,2A2,2,0,0,1,233,100Zm-3,5a2,2,0,1,1-2,2A2,2,0,0,1,230,105Z" transform="translate(-221 -95)"/>
  <path id="_3" data-name="#" class="cls-3" d="M233.4,102.634l-2.718,5.513-0.71-.436-0.71.436-2.719-5.513,1.17-.719,0.1,0.209V101.25h4.374V102l0.041-.082Zm-5.276.116,1.848,3.746,1.847-3.746h-3.695Z" transform="translate(-221 -95)"/>
</svg>
