<svg xmlns="http://www.w3.org/2000/svg" width="116" height="116" viewBox="0 0 116 116">
  <metadata><?xpacket begin="﻿" id="W5M0MpCehiHzreSzNTczkc9d"?>
<x:xmpmeta xmlns:x="adobe:ns:meta/" x:xmptk="Adobe XMP Core 5.6-c140 79.160451, 2017/05/06-01:08:21        ">
   <rdf:RDF xmlns:rdf="http://www.w3.org/1999/02/22-rdf-syntax-ns#">
      <rdf:Description rdf:about=""/>
   </rdf:RDF>
</x:xmpmeta>
                                                                                                    
                                                                                                    
                                                                                                    
                                                                                                    
                                                                                                    
                                                                                                    
                                                                                                    
                                                                                                    
                                                                                                    
                                                                                                    
                                                                                                    
                                                                                                    
                                                                                                    
                                                                                                    
                                                                                                    
                                                                                                    
                                                                                                    
                                                                                                    
                                                                                                    
                                                                                                    
                           
<?xpacket end="w"?></metadata>
<defs>
    <style>
      .cls-1 {
        fill: #fff;
        fill-rule: evenodd;
      }
    </style>
  </defs>
  <path id="_" data-name="?" class="cls-1" d="M1946,5402a58,58,0,1,1-58,58A58,58,0,0,1,1946,5402Zm-16.03,47.95H1939c0.2-3.6,2.73-6.56,6.57-6.56,3.8,0,6.33,2.21,6.33,5.24s-1.3,4.59-5.6,7.05c-4.6,2.58-6.43,5.46-6,10.46l0.07,1.86h8.83v-1.7c0-3.12,1.23-4.69,5.66-7.14,4.7-2.65,7.14-6,7.14-10.82,0-7.28-6.3-12.35-15.83-12.35C1935.94,5435.99,1930.14,5442.1,1929.97,5449.95Zm15.03,34.04a5,5,0,1,0-4.99-5A4.972,4.972,0,0,0,1945,5483.99Z" transform="translate(-1888 -5402)"/>
</svg>
