<svg xmlns="http://www.w3.org/2000/svg" width="14" height="14" viewBox="0 0 14 14">
  <metadata><?xpacket begin="﻿" id="W5M0MpCehiHzreSzNTczkc9d"?>
<x:xmpmeta xmlns:x="adobe:ns:meta/" x:xmptk="Adobe XMP Core 5.6-c140 79.160451, 2017/05/06-01:08:21        ">
   <rdf:RDF xmlns:rdf="http://www.w3.org/1999/02/22-rdf-syntax-ns#">
      <rdf:Description rdf:about=""/>
   </rdf:RDF>
</x:xmpmeta>
                                                                                                    
                                                                                                    
                                                                                                    
                                                                                                    
                                                                                                    
                                                                                                    
                                                                                                    
                                                                                                    
                                                                                                    
                                                                                                    
                                                                                                    
                                                                                                    
                                                                                                    
                                                                                                    
                                                                                                    
                                                                                                    
                                                                                                    
                                                                                                    
                                                                                                    
                                                                                                    
                           
<?xpacket end="w"?></metadata>
<defs>
    <style>
      .cls-1 {
        fill: #9099a6;
        fill-rule: evenodd;
      }
    </style>
  </defs>
  <path id="status_pending" class="cls-1" d="M894,660a1,1,0,1,1-1,1A1,1,0,0,1,894,660Zm4,2a1,1,0,1,1-1,1A1,1,0,0,1,898,662Zm2,4a1,1,0,1,1-1,1A1,1,0,0,1,900,666Zm-2,4a1,1,0,1,1-1,1A1,1,0,0,1,898,670Zm-4,2a1,1,0,1,1-1,1A1,1,0,0,1,894,672Zm-4-2a1,1,0,1,1-1,1A1,1,0,0,1,890,670Zm-2-4a1,1,0,1,1-1,1A1,1,0,0,1,888,666Zm2-4a1,1,0,1,1-1,1A1,1,0,0,1,890,662Z" transform="translate(-887 -660)"/>
</svg>
