<svg id="holiday" xmlns="http://www.w3.org/2000/svg" width="18" height="18" viewBox="0 0 18 18">
  <metadata><?xpacket begin="﻿" id="W5M0MpCehiHzreSzNTczkc9d"?>
<x:xmpmeta xmlns:x="adobe:ns:meta/" x:xmptk="Adobe XMP Core 5.6-c140 79.160451, 2017/05/06-01:08:21        ">
   <rdf:RDF xmlns:rdf="http://www.w3.org/1999/02/22-rdf-syntax-ns#">
      <rdf:Description rdf:about=""/>
   </rdf:RDF>
</x:xmpmeta>
                                                                                                    
                                                                                                    
                                                                                                    
                                                                                                    
                                                                                                    
                                                                                                    
                                                                                                    
                                                                                                    
                                                                                                    
                                                                                                    
                                                                                                    
                                                                                                    
                                                                                                    
                                                                                                    
                                                                                                    
                                                                                                    
                                                                                                    
                                                                                                    
                                                                                                    
                                                                                                    
                           
<?xpacket end="w"?></metadata>
<defs>
    <style>

      .cls-2 {
        fill: #fafcff;
        fill-rule: evenodd;
      }
    </style>
  </defs>
  <path id="_2" data-name="#" class="cls-2" d="M267.623,104.711l-0.6,2.913a0.3,0.3,0,0,0,.114.31,0.3,0.3,0,0,0,.329.016l2.542-1.553,2.54,1.553a0.3,0.3,0,0,0,.152.042,0.293,0.293,0,0,0,.177-0.058,0.3,0.3,0,0,0,.114-0.309l-0.565-2.913,2.452-1.957a0.293,0.293,0,0,0,.1-0.319,0.309,0.309,0,0,0-.27-0.206l-3.238-.251-1.183-2.809a0.3,0.3,0,0,0-.549,0l-1.184,2.809-3.238.251a0.308,0.308,0,0,0-.27.206,0.292,0.292,0,0,0,.095.319Z" transform="translate(-261 -95)"/>
</svg>
