<svg xmlns="http://www.w3.org/2000/svg" width="14" height="14" viewBox="0 0 14 14">
  <defs>
    <style>
      .cls-1 {
        fill: #9099a6;
        fill-rule: evenodd;
      }
    </style>
  </defs>
  <path id="Rename" class="cls-1" d="M10.5,9H9v1a1,1,0,0,0,1,1h1v1H10a1.987,1.987,0,0,1-1.5-.69A1.987,1.987,0,0,1,7,12H6V11H7a1,1,0,0,0,1-1V3A1,1,0,0,0,7,2H6V1H7a1.987,1.987,0,0,1,1.5.69A1.987,1.987,0,0,1,10,1h1V2H10A1,1,0,0,0,9,3V4h1.5A1.5,1.5,0,0,1,12,5.5v2A1.5,1.5,0,0,1,10.5,9ZM11,5.5A0.5,0.5,0,0,0,10.5,5H9V8h1.5A0.5,0.5,0,0,0,11,7.5v-2ZM7,6V7H3V6H7ZM7,5H2.5a0.5,0.5,0,0,0-.5.5v2a0.5,0.5,0,0,0,.5.5H7V9H2.5A1.5,1.5,0,0,1,1,7.5v-2A1.5,1.5,0,0,1,2.5,4H7V5Z"/>
</svg>
