<svg xmlns="http://www.w3.org/2000/svg" width="18" height="18" viewBox="0 0 18 18">
  <defs>
    <style>
      .cls-1 {
        fill: #fff;
        fill-rule: evenodd;
      }
    </style>
  </defs>
  <path id="_" data-name="#" class="cls-1" d="M15,17H3a2,2,0,0,1-2-2V2A2,2,0,0,1,3,0H15a2,2,0,0,1,2,2V15A2,2,0,0,1,15,17ZM16,2a1,1,0,0,0-1-1H3A1,1,0,0,0,2,2V15a1,1,0,0,0,1,1H15a1,1,0,0,0,1-1V2ZM7,13V7H9V8h2v5H7Zm3-2H8v1h2V11ZM7,5H9V6H7V5ZM7,3H9V4H7V3ZM7,1H9V2H7V1Zm4,1V3H9V2h2Zm0,2V5H9V4h2Zm0,2V7H9V6h2Z"/>
</svg>
