<svg xmlns="http://www.w3.org/2000/svg" width="16" height="16" viewBox="0 0 16 16">
  <defs>
    <style>
      .cls-1 {
        fill: #fff;
        fill-rule: evenodd;
      }
    </style>
  </defs>
  <path id="Title" class="cls-1" d="M13.006,1.978H1V5.823H1.768a5.142,5.142,0,0,1,.31-0.766,6.142,6.142,0,0,1,.513-0.876,4.894,4.894,0,0,1,.634-0.739,1.2,1.2,0,0,1,.663-0.363q0.407-.046.852-0.06t0.746-.014h0.5V13.192a1.067,1.067,0,0,1-.15.6,0.933,0.933,0,0,1-.47.344,3.335,3.335,0,0,1-.77.138c-0.371.037-.429,0.061-0.609,0.073V15h6.019V14.349a3.4,3.4,0,0,1-.585-0.119C9.049,14.156,8.712,14.1,8.6,14.055a0.888,0.888,0,0,1-.474-0.39,1.154,1.154,0,0,1-.136-0.555V3.006H8.548c0.259,0,.665.006,0.969,0.018s0.556,0.031.757,0.055a1.285,1.285,0,0,1,.665.363,4.378,4.378,0,0,1,.636.739,6.971,6.971,0,0,1,.509.858,4.209,4.209,0,0,1,.315.785h0.606V1.978Z"/>
</svg>
