<svg xmlns="http://www.w3.org/2000/svg" width="14" height="14" viewBox="0 0 14 14">
  <metadata><?xpacket begin="﻿" id="W5M0MpCehiHzreSzNTczkc9d"?>
<x:xmpmeta xmlns:x="adobe:ns:meta/" x:xmptk="Adobe XMP Core 5.6-c140 79.160451, 2017/05/06-01:08:21        ">
   <rdf:RDF xmlns:rdf="http://www.w3.org/1999/02/22-rdf-syntax-ns#">
      <rdf:Description rdf:about=""/>
   </rdf:RDF>
</x:xmpmeta>
                                                                                                    
                                                                                                    
                                                                                                    
                                                                                                    
                                                                                                    
                                                                                                    
                                                                                                    
                                                                                                    
                                                                                                    
                                                                                                    
                                                                                                    
                                                                                                    
                                                                                                    
                                                                                                    
                                                                                                    
                                                                                                    
                                                                                                    
                                                                                                    
                                                                                                    
                                                                                                    
                           
<?xpacket end="w"?></metadata>
<defs>
    <style>
      .cls-1 {
        fill: #2994ed;
        fill-rule: evenodd;
        opacity: 0.8;
      }
    </style>
  </defs>
  <path class="cls-1" d="M894,659a1,1,0,1,1-1,1A1,1,0,0,1,894,659Zm4,2a1,1,0,1,1-1,1A1,1,0,0,1,898,661Zm2,4a1,1,0,1,1-1,1A1,1,0,0,1,900,665Zm-2,4a1,1,0,1,1-1,1A1,1,0,0,1,898,669Zm-4,2a1,1,0,1,1-1,1A1,1,0,0,1,894,671Zm-4-2a1,1,0,1,1-1,1A1,1,0,0,1,890,669Zm-2-4a1,1,0,1,1-1,1A1,1,0,0,1,888,665Zm2-4a1,1,0,1,1-1,1A1,1,0,0,1,890,661Z" transform="translate(-887 -659)"/>
</svg>
