<svg xmlns="http://www.w3.org/2000/svg" width="14" height="14" viewBox="0 0 14 14">
  <metadata><?xpacket begin="﻿" id="W5M0MpCehiHzreSzNTczkc9d"?>
<x:xmpmeta xmlns:x="adobe:ns:meta/" x:xmptk="Adobe XMP Core 5.6-c140 79.160451, 2017/05/06-01:08:21        ">
   <rdf:RDF xmlns:rdf="http://www.w3.org/1999/02/22-rdf-syntax-ns#">
      <rdf:Description rdf:about=""/>
   </rdf:RDF>
</x:xmpmeta>
                                                                                                    
                                                                                                    
                                                                                                    
                                                                                                    
                                                                                                    
                                                                                                    
                                                                                                    
                                                                                                    
                                                                                                    
                                                                                                    
                                                                                                    
                                                                                                    
                                                                                                    
                                                                                                    
                                                                                                    
                                                                                                    
                                                                                                    
                                                                                                    
                                                                                                    
                                                                                                    
                           
<?xpacket end="w"?></metadata>
<defs>
    <style>
      .cls-1 {
        fill: #2994ed;
        fill-rule: evenodd;
      }
    </style>
  </defs>
  <path id="status_complete" class="cls-1" d="M900.721,463.644l-6.014,6.063a0.989,0.989,0,0,1-.734.288,1.048,1.048,0,0,1-.774-0.3L891.3,467.8a1.055,1.055,0,1,1,1.492-1.491l1.246,1.245,5.314-5.271A0.965,0.965,0,0,1,900.721,463.644ZM894,463a5,5,0,1,0,5,5c0-.027-0.008-0.051-0.008-0.078l1.739-1.738A6.89,6.89,0,0,1,901,468a7,7,0,1,1-7-7,6.928,6.928,0,0,1,3.25.835l-1.5,1.5A4.957,4.957,0,0,0,894,463Z" transform="translate(-887 -461)"/>
</svg>
