
<!-- Generator: Adobe Illustrator 22.0.1, SVG Export Plug-In . SVG Version: 6.00 Build 0)  -->
<svg version="1.1" id="fancy_collection" xmlns="http://www.w3.org/2000/svg" xmlns:xlink="http://www.w3.org/1999/xlink" x="0px"
	 y="0px" viewBox="0 0 18 18" style="enable-background:new 0 0 18 18;" xml:space="preserve">
<style type="text/css">
	.st1{opacity:0.5;fill:#FFFFFF;enable-background:new    ;}
	.st2{fill:#FFFFFF;}
</style>
<path id="_2" class="st1" d="M9.2,5.5l3.7,1c0.8,0.2,1.2,1,1,1.8L12.7,13c-0.2,0.8-1,1.2-1.8,1l-3.7-1c-0.8-0.2-1.2-1-1-1.8l0,0
	l1.3-4.7C7.6,5.8,8.4,5.3,9.2,5.5L9.2,5.5z"/>
<path id="_3_1_" class="st2" d="M9.7,5H10c0.6,0,1,0.4,1,1v6c0,0.6-0.4,1-1,1H5c-0.6,0-1-0.4-1-1v-0.5l0,0v-5l0,0V6c0-0.6,0.4-1,1-1
	h0.3H9.7z"/>
</svg>
