<svg id="usps" xmlns="http://www.w3.org/2000/svg" width="140" height="50" viewBox="0 0 140 50">
  <defs>
    <style>
      .cls-1 {
        fill: #004b82;
      }

      .cls-1, .cls-2, .cls-3 {
        fill-rule: evenodd;
      }

      .cls-3 {
        fill: #ea4155;
      }
    </style>
  </defs>
  <path id="_" data-name="#" class="cls-1" d="M35.189,34.956H6.653L6.709,34.9l0.221-.053,0.387-.166,0.5-.166,0.608-.276,0.717-.276,0.827-.331L10.9,33.3l0.993-.385L14.1,32.03l1.159-.441,1.269-.441,1.215-.553,1.27-.441,1.324-.5,1.269-.551,1.27-.441,1.27-.5,2.429-1,1.1-.441,1.1-.386,1.049-.442,0.938-.331,0.829-.331,0.772-.332,0.608-.22,0.552-.221,0.386-.166,0.276-.11,0.111-.055,0.11-.166,0.275-.441,0.332-.663,0.331-.827,0.276-.828,0.111-.883-0.111-.717-0.386-.607-0.055-.111-0.442-.22-0.165-.055H34.416l-0.165-.056H34.029l-0.222-.056H31.436V18.454L31.38,18.4V18.343L31.1,18.068l-0.165-.111L30.5,17.736l-0.331-.111-0.442-.165-0.441-.11-0.552-.165-0.663-.111-0.718-.166h-0.11l-0.166-.055L26.8,16.8l-0.387-.055-0.441-.055-0.5-.111-0.552-.165L24.26,16.3,23.6,16.136l-0.773-.111-0.772-.165-0.828-.166-0.772-.166-0.883-.165-0.828-.221-2.649-.5-0.828-.221-0.828-.11-0.773-.221-0.772-.11-0.717-.166-0.663-.167-1.214-.22L9.413,13.21l-0.331-.055L8.806,13.1H8.64V12.989H39.824Zm-1.6-14.128-0.111-.055-0.165-.056H31.821l-0.385.056-0.332.055-0.386.054-0.441.056H29.89l-0.773.11H28.785l-0.331.055H27.9l-0.221-.055h-0.22l-0.111-.11v-0.11l0.056-.111,0.11-.055,0.165-.055,0.332-.056h0.22l0.221-.056h0.276l1.1-.22L30,20.22l0.165-.11L30.276,20l0.11-.054,0.111-.221,0.11-.055h0.055l0.055-.056h2.318l0.386,0.056,0.331,0.055,0.276,0.111L34.25,20l0.165,0.166,0.11,0.277v0.331l-0.055.275-0.111.332-0.165.331-0.165.387-0.166.331L33.7,22.7l-0.11.165-0.221.221-0.111.056-0.11-.111,0.056-.22,0.11-.386,0.165-.387,0.111-.331,0.054-.277,0.055-.221v-0.22ZM27.35,18.233l1.435,0.221,0.552,0.165,0.5,0.165,0.332,0.165,0.22,0.277-0.054.275H16.975l2.1,6.513,0.386-.22,0.5-.222,0.552-.22,0.663-.331,0.717-.276,0.772-.276,0.829-.275,0.827-.331,0.883-.276,0.828-.276,0.883-.276,0.827-.22,0.828-.167,0.772-.166,0.718-.109,0.663-.056,0.386-.054h0.332l0.331,0.054h0.22l0.221,0.056,0.165,0.055,0.111,0.22V22.7H32.429l-0.111.111-0.165.054H31.987l-0.165.056-0.22.055-0.663.11-1.159.331-0.387.055-1.159.332-0.993.331-0.277.055-0.22.11-0.221.056-1.491.5-3.311,1.378-0.663.334-0.662.275-0.607.331-0.663.276-0.552.276-0.607.331-0.607.276-0.5.276-0.552.276-0.386.165-0.552.276-0.717.331-0.829.442-0.993.5-1.049.5-1.049.551-1.1.5-1.049.553-1.1.5-0.939.5-0.827.386L5,34.459l-0.552.222L4.115,34.9l-0.166.056L7.591,18.068H25.033Z"/>
  <path id="_2" data-name="#" class="cls-2" d="M129.071,14.314l-0.441.11-0.331.221-0.056.11-0.055.166v0.22l0.055,0.221,0.166,0.221,0.166,0.276,0.5,0.5,0.331,0.221,0.276,0.221,0.332,0.276,0.551,0.552,0.222,0.276,0.33,0.662,0.056,0.331-0.056.387L131,19.668l-0.167.386-0.276.331-0.386.276-0.441.22-0.552.166-0.718.111-0.773.054h-2.814l0.331-1.324h2.98l0.276-.055,0.221-.056,0.166-.11,0.166-.221,0.109-.221-0.055-.442-0.331-.442-0.552-.442-0.551-.5-0.607-.552-0.5-.607-0.33-.607-0.055-.717,0.11-.386,0.221-.442,0.222-.331,0.385-.276,0.5-.22,0.5-.165,0.662-.111h3.2l-0.276,1.325h-2.595Zm-7.947,0-0.5,2.153h3.644l-0.276,1.158h-3.643l-0.442,2.263h4.14l-0.277,1.324h-5.96l1.766-8.224h5.961l-0.277,1.325h-4.138Zm-5.574,0-1.491,6.9h-1.821l1.49-6.9h-2.595l0.332-1.325h6.9l-0.276,1.325H115.55Zm-9.439,5.574h2.595l-0.718-5.243-3.643,6.567h-1.821l4.747-8.224h2.152l1.27,8.224h-5.3Zm-3.587-5.574-1.491,6.9H99.211l1.491-6.9H98.109l0.331-1.325h6.9l-0.275,1.325h-2.539Zm-7.893,0-0.276.054-0.221.055-0.165.111-0.221.22v0.386L93.8,15.363l0.109,0.221,0.221,0.276,0.5,0.5,0.275,0.221L95.239,16.8l0.827,0.828L96.287,17.9l0.22,0.331,0.112,0.331,0.055,0.331v0.387l-0.111.387-0.165.386-0.331.331-0.331.276-0.5.22-0.552.166-0.662.111-0.828.054h-2.76l0.276-1.324h3.035l0.276-.055,0.221-.056,0.165-.11,0.166-.221,0.055-.22-0.055-.442-0.331-.442-0.5-.442L93.2,17.4l-0.608-.552-0.5-.607-0.331-.607-0.056-.717,0.112-.386,0.165-.442,0.276-.331,0.387-.276,0.442-.22,0.552-.165,0.663-.111h3.2L97.17,14.314H94.631ZM91.319,26.677h2.429L93.471,28H91.153l-0.552.11-0.221.056-0.11.11-0.166.11L90,28.609v0.276l0.054,0.221,0.111,0.22,0.22,0.222,0.22,0.275,0.276,0.221,0.275,0.276,0.33,0.222,0.277,0.275,0.331,0.222,0.221,0.331,0.221,0.275,0.221,0.332,0.111,0.276,0.054,0.387v0.33l-0.11.442-0.165.331-0.663.663-0.441.221-0.608.166-0.661.109H86.683l0.276-1.268H90l0.275-.056,0.221-.11,0.165-.11,0.165-.165,0.109-.222-0.109-.442-0.331-.441-0.5-.5-0.552-.5-0.608-.5-0.5-.607-0.331-.663-0.056-.661,0.111-.442,0.166-.386L88.5,27.5l0.387-.275,0.441-.22,0.553-.166,0.663-.11Zm-3.034-9.6-0.055.221-0.112.5-0.165.441-0.221.442-0.553.773-0.661.662-0.662.441-0.387.221-0.441.165-0.772.221H83.813l-0.441.054h-3.7L80.5,17.074l0.883-4.084h4.028l0.829,0.055,0.717,0.221L87.511,13.6l0.441,0.5,0.277,0.552,0.165,0.607,0.054,0.717-0.11.772ZM86.627,15.8l-0.11-.441-0.166-.331L86.077,14.7l-0.333-.221L85.3,14.314H82.93l-0.607,2.759-0.553,2.815h1.656l0.663-.111,0.332-.11,0.275-.11,0.552-.331,0.442-.442,0.22-.277,0.167-.219,0.11-.331,0.11-.276,0.165-.331,0.056-.276h0V17.019l0.11-.331V15.8ZM75.7,14.314l-0.5,2.153h3.587l-0.221,1.158H74.927l-0.442,2.263h4.084l-0.22,1.324H72.389l1.766-8.224H80.06l-0.276,1.325H75.7Zm-5.629,0-1.491,6.9H66.814l1.49-6.9H65.71l0.275-1.325h6.9l-0.221,1.325H70.071ZM71.506,28H68.911L67.42,34.9H65.6L67.09,28H64.551l0.276-1.325h6.9ZM61.239,21.213l1.711-8.224h1.821l-1.766,8.224H61.239Zm-4.029,0-2.043-6.126H55.113l-1.269,6.126h-1.6l1.766-8.224h2.318l1.987,6.182,1.27-6.182h1.656l-1.766,8.224H57.21Zm-5.464-5.795-0.111.275V15.8l-0.056.332-0.165.827-0.386,1.6-0.055.331-0.165.332L50.7,19.5l-0.165.276-0.22.276L49.87,20.5l-0.277.166-0.331.166-0.276.165-0.331.11-0.331.056-0.332.109-0.772.111H46.779l-0.717-.055-0.718-.165-0.552-.166-0.5-.331-0.331-.386-0.221-.5-0.055-.551,0.055-.663L44.02,17.35l0.22-1.1,0.221-.939,0.165-.772,0.112-.663,0.11-.5L44.9,13.1l0.054-.111h1.822l-0.055.221-0.11.552-0.221.828-0.165.938-0.221.939L45.73,17.846l-0.056.165-0.055.442v0.773L45.73,19.5l0.22,0.221,0.276,0.165L46.613,20l0.442,0.055,0.5-.055,0.386-.054,0.387-.166L48.6,19.5l0.221-.275,0.221-.333,0.331-.882,0.054-.441,0.165-.663,0.167-.828,0.165-.883,0.221-.828,0.111-.717,0.11-.5,0.055-.165h1.822l-0.332,1.6ZM46.557,26.733L47,26.955l0.386,0.275,0.221,0.387L47.717,28l0.055,0.441v0.442l-0.055.386-0.166.551-0.276.5-0.331.441-0.44.388-0.442.276-1.1.33-0.606.054H44.13l-0.11-.054H43.688l-0.11-.056h-0.11l-0.111-1.158H43.8L43.853,30.6h0.332l0.441-.054,0.662-.222,0.221-.221,0.331-.442,0.11-.221v-0.22l0.055-.276V28.665l-0.055-.222-0.11-.165-0.331-.222H45.288L45.068,28H43.577l-1.49,6.9H40.266l1.767-8.223h3.918Zm1.877,3.586,0.165-.551,0.166-.442,0.221-.441,0.276-.331,0.276-.387,0.331-.332,0.331-.22,0.386-.276,0.331-.221,0.387-.165,0.442-.168,0.441-.11,0.883-.109h0.939l0.441,0.053,0.387,0.112L55.278,26.9l0.331,0.165,0.331,0.222L56.217,27.5l0.44,0.553,0.331,0.663,0.055,0.387L57.1,29.548v0.827l-0.111.441-0.11.553-0.165.5-0.442.883-0.22.387-0.332.33-0.275.331-0.331.276-0.386.222-0.331.22-0.386.166-0.442.166-0.441.109-0.882.11H51.3l-0.442-.054L50.422,34.9l-0.387-.165L49.7,34.57l-0.331-.221-0.5-.5-0.22-.331-0.331-.663L48.158,31.7l0.111-.883Zm1.6,1.6,0.11,0.551,0.166,0.387,0.276,0.386,0.386,0.276,0.441,0.221L52.022,33.8l0.607-.054,0.5-.166,0.5-.276,0.442-.331,0.385-.386,0.277-.5L55,31.479l0.166-.663,0.111-.607V29.657l-0.11-.5L55,28.719l-0.276-.331-0.386-.332-0.5-.11-0.553-.11-0.608.056-0.5.165-0.5.222-0.441.387-0.386.385-0.276.5-0.276.607-0.166.661-0.11.553v0.552Zm10.156,1.71,0.22-.056,0.442-.221,0.11-.165,0.111-.222-0.055-.442-0.331-.441-0.5-.5-0.608-.5-0.552-.5-0.5-.607L58.2,29.326l-0.111-.661,0.111-.442,0.22-.386L58.7,27.5l0.331-.275,0.442-.22,0.606-.166,0.662-.11,0.717-.056h2.429L63.613,28H61.294l-0.552.11-0.166.056-0.166.11-0.22.22-0.055.11v0.276l0.055,0.221,0.331,0.442,0.22,0.275,0.276,0.221,0.276,0.276,0.332,0.222,0.331,0.275,0.275,0.222,0.221,0.331,0.276,0.275,0.165,0.332,0.111,0.276,0.11,0.387-0.055.33-0.111.442-0.166.331-0.275.331-0.332.332-0.5.221-0.607.166-0.663.109H56.879L57.1,33.632h3.091Zm15.674-6.955,1.27,8.223h-5.3l0.717-1.268h2.594l-0.772-5.3L70.788,34.9H68.966l4.692-8.223h2.206Zm5.8,0-1.49,6.955h3.753L83.647,34.9H78.073l1.712-8.223h1.876Zm19.594,0L100.978,28H96.839L96.4,30.155h3.587l-0.221,1.214H96.122l-0.442,2.263h4.139L99.543,34.9H93.527l1.766-8.223h5.961Zm5.133,0,0.551,0.056,0.5,0.11,0.386,0.166L108.1,27.23l0.22,0.275,0.166,0.388,0.055,0.441v0.441l-0.055.552-0.166.5-0.22.442-0.276.331-0.332.331-0.441.222-0.386.165-0.442.056,1.325,3.531h-1.987l-1.49-4.47h1.049l0.331-.054,0.331-.11,0.275-.166,0.221-.165,0.222-.222,0.109-.276,0.112-.33,0.053-.221V28.665l-0.109-.332-0.11-.11-0.221-.11L105.78,28h-1.656l-1.491,6.9h-1.82l1.766-8.223h3.808Zm5.8,6.623,3.643-6.623h1.766L112.9,34.9h-2.153l-1.214-8.223h1.821Zm8.335-6.623L118.75,34.9h-1.821l1.766-8.223h1.822Zm0.109,4.139,0.166-.5,0.165-.551,0.442-.883,0.275-.387,0.664-.662,0.387-.276,0.772-.441,0.882-.332,0.443-.11,0.44-.056,0.5-.053h1.158l0.221,0.053h0.222l0.22,0.056H127.8l0.221,0.056-0.165,1.38-0.222-.056H127.47l-0.44-.11-0.277-.054h-0.275l-0.221-.056h-0.331l-0.608.056-0.552.165-0.552.222-0.5.387-0.387.385-0.386.5-0.22.607-0.222.661-0.111.663,0.056,0.607,0.165,0.5,0.221,0.386,0.331,0.331,0.442,0.276,0.5,0.166,0.553,0.054h0.33l0.332-.054h0.276l0.552-.11h0.22l0.277-.056,0.221-.054L126.422,34.9l-0.221.056h-0.275l-0.222.056h-0.275l-0.221.054h-1.27l-0.883-.11-0.387-.109-0.386-.166-0.331-.166-0.331-.221-0.276-.222-0.276-.276-0.165-.331-0.165-.386-0.166-.331-0.055-.441V31.865l0.055-.5Zm14.848-4.139L135.2,28H131l-0.442,2.153h3.643l-0.277,1.214h-3.642l-0.442,2.263h4.14L133.708,34.9h-5.961l1.766-8.223h5.961Z"/>
  <path id="_3" data-name="#" class="cls-3" d="M136.043,24.485H42.529l0.134-1.405h93.515Z"/>
</svg>
