<svg id="dhl_express" data-name="dhl express" xmlns="http://www.w3.org/2000/svg" width="140" height="50" viewBox="0 0 140 50">
  <defs>
    <style>
      .cls-1 {
        fill: #fc0;
      }

      .cls-1, .cls-2 {
        fill-rule: evenodd;
      }

      .cls-2 {
        fill: #d2002d;
      }
    </style>
  </defs>
  <path class="cls-1" d="M15.015,42.009V41.047H126v0.962H15.015Zm0-3.451H126V39.52H15.015V38.558Zm0-2.489H126v0.962H15.015V36.068Zm0-29.043H126V32.008H15.015V7.025Z"/>
  <path id="_" data-name="#" class="cls-2" d="M109.528,28.029l0.816-1.135H126v1.133Zm2.341-3.253H126v1.14h-14.95Zm1.523-2.117H126V23.8H112.572ZM91.307,28.027c-4.175,0-5.306-2.06-4.026-3.828,0.362-.5,1.106-1.54,1.106-1.54h23.14l-3.864,5.368H91.307ZM89.26,21.444s6.815-9.464,6.818-9.464h10.787l-6.813,9.464H89.26Zm-28.231,0,6.814-9.464H78.029l-3.906,5.427h4.546l3.907-5.427H92.76l-6.812,9.465H61.029Zm-3.32,0h-7.9c-1.5,0-1.048-.631-0.8-0.977,0.494-.682,1.305-1.85,1.79-2.521s0.49-1.041-.486-1.041H30.987l3.546-4.926H54.984c5.193,0,6.52,4.195,5.067,6.21C58.983,19.671,57.709,21.444,57.709,21.444ZM30.728,23.8H15.015V22.66H31.549ZM29.2,25.917H15.015v-1.14H30.024Zm-1.52,2.111H15.015V26.894H28.5Zm17.828-9.9c0.977,0,.964.38,0.487,1.041S44.689,21,44.2,21.682c-0.251.346-.7,0.978,0.8,0.978h11.84a12.247,12.247,0,0,1-9.914,5.368H29.552l7.122-9.9h8.838ZM59.853,36.07l-0.533.737H56.834L55.6,38.516h2.264l-0.533.737H55.065L53.671,41.18h2.486l-0.533.737h-3.34l4.23-5.847h3.34Zm0.956,0h1.025L61.8,38.315,65,36.07h0.974L61.951,38.86l-0.008,3.057H60.867L60.9,39.437l-3.494,2.479H56.382l4.4-3.041Zm-4.518-8.043s3.86-5.368,3.863-5.368H70.341l-3.862,5.369H56.291ZM68.512,36.07c1.221,0,1.935.419,0.971,1.751A4.183,4.183,0,0,1,66.1,39.58H65.263l-1.691,2.337H62.719l4.23-5.847h1.563Zm-1.869,2.773a2.5,2.5,0,0,0,1.941-1.03c0.533-.737-0.058-1.005-0.588-1.005H67.269L65.8,38.843h0.846Zm6.686-2.773c1.179,0,2.182.184,1.17,1.583A3.528,3.528,0,0,1,72.3,38.985L72.292,39c0.192,0.1.229,0.226,0.157,0.586l-0.557,2.329H70.918l0.552-2.027c0.147-.57-0.135-0.57-0.587-0.57H70.37l-1.879,2.6H67.638l4.23-5.847h1.461Zm-1.7,2.513a2.4,2.4,0,0,0,1.95-.913c0.382-.527.214-0.863-0.572-0.863h-0.82L70.9,38.583H71.63Zm8.716-2.513-0.533.737H77.327l-1.236,1.709h2.264l-0.533.737H75.558L74.164,41.18H76.65l-0.533.737h-3.34l4.23-5.847h3.34Zm-1.37,5.21a2.49,2.49,0,0,0,1.861-.955c0.946-1.307-1.878-.947-0.563-2.764a3.906,3.906,0,0,1,3.065-1.592,2.81,2.81,0,0,1,1.121.209l-0.677.771a1.655,1.655,0,0,0-.943-0.243,1.967,1.967,0,0,0-1.606.779c-0.812,1.122,1.938.863,0.545,2.789a4.2,4.2,0,0,1-3.438,1.743,2.6,2.6,0,0,1-1.046-.243L77.943,41A2.188,2.188,0,0,0,78.976,41.28ZM71.025,28.027s3.86-5.368,3.863-5.368H85.073L81.21,28.027H71.025ZM83.247,41.28a2.49,2.49,0,0,0,1.861-.955c0.945-1.307-1.878-.947-0.563-2.764a3.905,3.905,0,0,1,3.065-1.592,2.811,2.811,0,0,1,1.122.209l-0.677.771a1.655,1.655,0,0,0-.943-0.243,1.967,1.967,0,0,0-1.606.779c-0.812,1.122,1.938.863,0.545,2.789a4.2,4.2,0,0,1-3.439,1.743,2.6,2.6,0,0,1-1.046-.243L82.215,41A2.186,2.186,0,0,0,83.247,41.28Z"/>
</svg>
