<svg id="new_zealand" data-name="new zealand" xmlns="http://www.w3.org/2000/svg" width="140" height="50" viewBox="0 0 140 50">
  <defs>
    <style>
      .cls-1 {
        fill: #ff0101;
      }

      .cls-1, .cls-2 {
        fill-rule: evenodd;
      }
    </style>
  </defs>
  <path id="_" data-name="#" class="cls-1" d="M138.861,27.029A13.988,13.988,0,0,1,125.042,38.94a14.228,14.228,0,0,1-2.067-.151A13.936,13.936,0,1,1,138.861,27.029Zm-4.868-4.721c0-.144-2.213.756-2.213,1.964v3.414a0.583,0.583,0,0,1-.7.657H119.954a0.59,0.59,0,0,1-.655-0.657V22.321c0-.416.049-0.528,0.4-0.239l4.46,3.674a1.727,1.727,0,0,0,2.532,0l6.885-5.115a0.906,0.906,0,0,0,.413-0.824c0.006-.455-0.051-0.823-0.536-0.823H122.136a3.573,3.573,0,0,0,.711,1.209,2.6,2.6,0,0,0,1.554.842h4.14c0.844,0,.865-0.041.143,0.452l-3.093,2.113c-0.237.147-.24,0.149-0.474-0.014l-5.157-4.128a1.371,1.371,0,0,0-1.145-.474h-1.878v9.647a2.175,2.175,0,0,0,1.856,1.791h13.138c0.665-.007,2.062-0.866,2.062-1.791V22.308Z"/>
  <path id="_2" data-name="#" class="cls-2" d="M79.75,18.59a2.935,2.935,0,0,0-1.024.285,2.651,2.651,0,0,0-.61.468,6.02,6.02,0,0,0-1.309,2.733l-0.129.434H75.9a6.142,6.142,0,0,0-1.532.115,5.147,5.147,0,0,0-1.031.346A4.159,4.159,0,0,0,71.477,24.9a4.5,4.5,0,0,0-.1,4.165,2.508,2.508,0,0,0,.624.59,2.476,2.476,0,0,0,.909.3,2.823,2.823,0,0,0,2.082-.631c0.179-.131.21-0.149,0.23-0.115a1.618,1.618,0,0,1-.047.3c-0.086.394-.129,0.361,0.454,0.346,0.26-.007.783-0.021,1.159-0.027s0.693-.01.705-0.014,0.013-.04-0.007-0.115a4.131,4.131,0,0,1,.041-1.133c0.19-1.062.47-2.325,1.261-5.643,0.654-2.74.819-3.4,0.97-3.873,0.072-.226.136-0.419,0.142-0.434S79.888,18.58,79.75,18.59Zm-22.377.1a3.668,3.668,0,0,0-.814.17,4.689,4.689,0,0,0-.949.461,3.433,3.433,0,0,0-1.356,1.831c-0.1.3-.331,1.22-0.556,2.191L53.08,26.01c-0.254,1.1-.513,2.21-0.576,2.469a3.7,3.7,0,0,1-.461,1.262l-0.068.095,1.322-.014a5.756,5.756,0,0,0,1.356-.041,2.447,2.447,0,0,0,.1-0.441c0.335-1.835.865-4.248,1.377-6.294a31.218,31.218,0,0,1,1.071-3.7L57.44,18.7ZM2.514,19.9a0.892,0.892,0,0,0-.156.007,0.252,0.252,0,0,0,.007.115,1.6,1.6,0,0,1,.014.332A21.661,21.661,0,0,1,1.9,22.741C1.272,25.6,1.079,26.423.819,27.407c-0.239.905-.551,1.966-0.732,2.476a0.9,0.9,0,0,0-.061.21,0.3,0.3,0,0,0,.095.027,1.766,1.766,0,0,0,.868-0.1,3.7,3.7,0,0,0,1.77-2.245,18.976,18.976,0,0,0,.7-2.72A8.726,8.726,0,0,1,3.952,23c0.032,0-.1-0.308,1.187,2.686,1.446,3.36,1.752,4.041,1.8,4.076a4.069,4.069,0,0,0,.943.007c0.5-.012.907-0.025,0.915-0.034s0.731-3.239,1.112-5.012c0.271-1.263.982-4.3,1.044-4.463,0.026-.07.073-0.173,0.1-0.231a0.28,0.28,0,0,0,.041-0.115c-0.006-.006-0.458-0.005-1,0.007a2.962,2.962,0,0,0-1.031.061,10.6,10.6,0,0,0-.305,1.363c-0.44,2.151-1.043,4.87-1.078,4.877a11.128,11.128,0,0,1-.766-1.709A27.225,27.225,0,0,0,5.579,21.54a2.944,2.944,0,0,0-2.048-1.614C3.359,19.91,2.795,19.9,2.514,19.9Zm81.84,0.136c-0.218,0-.453,0-0.746.007l-1.221.014L82.4,20.1a1.941,1.941,0,0,1,.013.305,13.053,13.053,0,0,1-.312,1.987c-0.205,1.086-.873,4.334-1.044,5.073-0.188.814-.45,1.756-0.665,2.394a1.385,1.385,0,0,0-.081.312,0.474,0.474,0,0,0,.136.034,3.07,3.07,0,0,0,.841-0.041,2.6,2.6,0,0,0,1.722-1.526,6.364,6.364,0,0,0,.522-1.573c0.069-.291.128-0.543,0.136-0.563a1.216,1.216,0,0,1,.685-0.027,7.856,7.856,0,0,0,2.665-.271,3.285,3.285,0,0,0,1.451-.9,3.563,3.563,0,0,0,.787-1.357,3.733,3.733,0,0,0,.2-1.39,2.7,2.7,0,0,0-.278-1.18,2.289,2.289,0,0,0-1.275-1.105,4.819,4.819,0,0,0-1.349-.176C85.463,20.047,85.007,20.033,84.354,20.035Zm23.259,0.013c-0.067,0-.2.009-0.3,0.02a2.563,2.563,0,0,0-1.769.889,2.807,2.807,0,0,0-.55,1.1c-0.043.145-.093,0.315-0.115,0.373l-0.041.1h-0.454a0.759,0.759,0,0,0-.509.047,3.138,3.138,0,0,0-.264.76c-0.119.394-.217,0.714-0.217,0.719s0.238,0,.529-0.007a2.1,2.1,0,0,1,.549.007,10.415,10.415,0,0,1-.319,1.418,12.082,12.082,0,0,0-.569,2.876,1.512,1.512,0,0,0,.129.739,1.535,1.535,0,0,0,1.275.821c0.1,0.013.187,0.024,0.2,0.027a7.59,7.59,0,0,0,1.01-.02,4.7,4.7,0,0,0,.739-0.142c0.016-.015.439-1.488,0.441-1.533a0.52,0.52,0,0,0-.169.041,1.054,1.054,0,0,1-1.323-.2c-0.125-.257-0.114-0.314.462-2.666,0.173-.71.329-1.317,0.345-1.343l0.027-.041,0.638,0.007a1.522,1.522,0,0,0,.678-0.02,2.365,2.365,0,0,0,.2-0.57c0.088-.293.187-0.618,0.224-0.719a0.66,0.66,0,0,0,.054-0.19c-0.007,0-.336,0-0.732.014a4.461,4.461,0,0,1-.739,0,18.7,18.7,0,0,1,.624-2.347l0.061-.163h-0.122Zm-68.753.014s-0.757,0-1.675.014-2.42.018-3.336,0.014a9.6,9.6,0,0,0-1.7.027,2.607,2.607,0,0,0-.217.407c-0.1.21-.282,0.6-0.407,0.861s-0.224.479-.224,0.482a0.358,0.358,0,0,0,.095-0.02,7.946,7.946,0,0,1,2.082-.1c0.86,0,1.589,0,1.614.007a0.043,0.043,0,0,1,.041.034c0,0.036-4.357,6.134-4.842,6.776-0.409.542-.943,1.282-0.943,1.3,0,0,.476,0,1.065-0.007s2.195-.012,3.567-0.014c2.886,0,2.546.03,2.631-.251,0.131-.434.421-1.377,0.454-1.479A0.318,0.318,0,0,0,37.091,28c-0.007,0-.085.018-0.176,0.034-0.214.038-.77,0.056-2.082,0.081-0.581.011-1.174,0.028-1.315,0.034-0.271.01-.319,0-0.319-0.041s4.35-6.213,5.377-7.63C38.739,20.25,38.865,20.066,38.86,20.062Zm46.45,1.567c0.265,0,.558.012,0.685,0.027a1.151,1.151,0,0,1,.909.515,1.01,1.01,0,0,1,.19.712,1.341,1.341,0,0,1-.047.454,1.99,1.99,0,0,1-1.892,1.479c-0.23.023-1,.05-1.038,0.034A0.066,0.066,0,0,1,84.09,24.8c0-.1.674-3.1,0.705-3.14A2.715,2.715,0,0,1,85.31,21.628Zm-18.519.7-0.258.054c-0.354.079-.965,0.179-1.655,0.271-0.322.043-.593,0.084-0.6,0.088a0.619,0.619,0,0,0,.027.129A5.342,5.342,0,0,1,64.14,24.7,37.28,37.28,0,0,1,62.9,29.727a0.763,0.763,0,0,0-.095.373,1.036,1.036,0,0,0,.129.027,2.1,2.1,0,0,0,.705-0.047,3.281,3.281,0,0,0,1.98-2.2,11.886,11.886,0,0,0,.6-2.306,3.528,3.528,0,0,1,.278-1.1,2.972,2.972,0,0,1,.712-0.346,1.4,1.4,0,0,1,.359-0.041,0.554,0.554,0,0,1,.366.081,0.626,0.626,0,0,1,.339.339c0.136,0.276.1,0.644-.224,2.143-0.092.427-.3,1.309-0.454,1.96s-0.285,1.2-.285,1.221,0.019,0.031.19,0.02c0.1-.006.619-0.02,1.139-0.027a2.451,2.451,0,0,0,.99-0.054A23.2,23.2,0,0,0,70.209,27c0.07-.36.189-0.956,0.264-1.323a3.944,3.944,0,0,0,.129-2.238,1.5,1.5,0,0,0-.875-0.9,1.89,1.89,0,0,0-.861-0.142,2.057,2.057,0,0,0-.61.054,3.722,3.722,0,0,0-1.363.638,0.259,0.259,0,0,1-.17.081,1.309,1.309,0,0,1,.068-0.387l0.088-.373-0.047-.041Zm33.77,0a5.9,5.9,0,0,0-.733.034,3.3,3.3,0,0,0-1.417.509,2.33,2.33,0,0,0-1,1.94,1.7,1.7,0,0,0,.875,1.519c0.109,0.072.447,0.252,0.753,0.407s0.614,0.32.685,0.366a0.73,0.73,0,0,1,.386.773,0.94,0.94,0,0,1-.752.678,1.748,1.748,0,0,1-.475.034,1.636,1.636,0,0,1-.536-0.054,2.751,2.751,0,0,1-1.288-.76c-0.094-.095-0.177-0.176-0.183-0.176a0.028,0.028,0,0,0-.007.027c0,0.014-.1.369-0.224,0.787a3.269,3.269,0,0,0-.2.814,0.443,0.443,0,0,0,.244.183,4.493,4.493,0,0,0,1.8.529,13.118,13.118,0,0,0,1.4-.041,2.863,2.863,0,0,0,2.2-1.3,2.439,2.439,0,0,0,.271-1.73,2.275,2.275,0,0,0-1.437-1.445l-0.516-.244a0.954,0.954,0,0,1-.739-0.793,0.479,0.479,0,0,1,.061-0.271,1.065,1.065,0,0,1,1.017-.482,2.2,2.2,0,0,1,.984.237,1.975,1.975,0,0,1,.63.468l0.149,0.156,0.028-.095c0.029-.092.134-0.447,0.318-1.106,0.119-.424.125-0.4-0.183-0.536a5.584,5.584,0,0,0-1.383-.393A5.909,5.909,0,0,0,100.561,22.327Zm-85.976.054a4.9,4.9,0,0,0-.644.034,3.851,3.851,0,0,0-1.56.59,4.2,4.2,0,0,0-1.187,1.241,5.161,5.161,0,0,0-.651,3.466,2.616,2.616,0,0,0,.739,1.384,3.141,3.141,0,0,0,2.062.814c0.186,0.02,1.24-.006,1.438-0.034a5.621,5.621,0,0,0,.766-0.163,2.831,2.831,0,0,0,.692-0.3,1.137,1.137,0,0,0,.149-0.441c0.054-.214.172-0.623,0.258-0.909s0.149-.535.149-0.549-0.015-.011-0.048.02a4.975,4.975,0,0,1-1.065.6,3.776,3.776,0,0,1-1.621.237,1.881,1.881,0,0,1-.78-0.2,1.063,1.063,0,0,1-.312-0.21,1.36,1.36,0,0,1-.305-0.536,3.3,3.3,0,0,1,0-.8c0.032-.032,1.184-0.059,2.875-0.068,0.988-.005,1.528-0.014,1.553-0.027a0.847,0.847,0,0,0,.142-0.482,4.5,4.5,0,0,0,.122-1.248,2.637,2.637,0,0,0-.156-0.983,1.776,1.776,0,0,0-.475-0.726,2.423,2.423,0,0,0-1.512-.685A4.6,4.6,0,0,0,14.585,22.381Zm78.666,0.007a3.77,3.77,0,0,0-1.3.156,3.653,3.653,0,0,0-1.892,1.282,4.961,4.961,0,0,0-.705,4.694,2.4,2.4,0,0,0,1.119,1.072,3.732,3.732,0,0,0,1.288.332A8.628,8.628,0,0,0,93.02,29.9,3.672,3.672,0,0,0,96.1,27.468a5.337,5.337,0,0,0,.231-3.3,2.613,2.613,0,0,0-1.878-1.655A3.69,3.69,0,0,0,93.251,22.388ZM28.8,22.436a2.576,2.576,0,0,0-2.129,1.228c-0.05.083-.465,1-0.915,2.035s-0.821,1.886-.827,1.892a0.031,0.031,0,0,1-.034-0.014c-0.018-.018-0.013-0.521.014-2.136,0.019-1.162.027-2.119,0.02-2.13a2.2,2.2,0,0,1,.068-0.583c0.021-.064.04-0.117,0.041-0.122s-0.567-.011-1.255-0.014l-1.248-.007-0.061.061c-0.047.049-.312,0.636-1.105,2.448-0.574,1.311-1.052,2.4-1.058,2.4a10.758,10.758,0,0,1-.061-2.476l-0.014-2.442-0.061-.041L20.111,22.5l-0.488.041-0.848.075c-0.2.018-.511,0.041-0.692,0.048a2.585,2.585,0,0,0-.326.02c0,0.006.058,0.1,0.115,0.217a1.318,1.318,0,0,1,.142.414c0.029,0.154.086,0.981,0.237,3.323l0.2,3.12L18.511,29.8a0.319,0.319,0,0,0,.291.034c0.13-.007.643-0.021,1.139-0.034l0.9-.02,1.092-2.462c0.716-1.609,1.107-2.455,1.126-2.455a23.766,23.766,0,0,1,.034,2.442V29.74l0.047,0.041,0.047,0.047,1.2-.034c0.66-.018,1.207-0.041,1.214-0.047s0.173-.354.366-0.773c0.557-1.209,1.393-2.977,2.048-4.314,0.29-.594,1.011-1.966,1.1-2.1a0.231,0.231,0,0,0,.041-0.088C29.157,22.435,29.065,22.423,28.8,22.436Zm12.87,0.02a3.773,3.773,0,0,0-1.112.122,3.693,3.693,0,0,0-1.81,1.106,5.058,5.058,0,0,0-.868,1.472,6.53,6.53,0,0,0-.251,1,7.278,7.278,0,0,0-.02,1.418,2.588,2.588,0,0,0,.712,1.519,2.189,2.189,0,0,0,.644.481,3.681,3.681,0,0,0,1.424.373c0.043,0,.353,0,0.692,0a4.868,4.868,0,0,0,1.627-.21,3.06,3.06,0,0,0,.637-0.292,2.144,2.144,0,0,0,.088-0.312c0.037-.155.155-0.567,0.258-0.916s0.181-.64.176-0.644a0.355,0.355,0,0,0-.1.075,3.874,3.874,0,0,1-.963.536,3.786,3.786,0,0,1-1.39.271,1.521,1.521,0,0,1-1.654-.889,1.131,1.131,0,0,1-.054-0.475,0.5,0.5,0,0,1,.061-0.427c0.064-.025,1.435-0.054,2.889-0.061,0.815,0,1.5-.014,1.519-0.02a1.594,1.594,0,0,0,.163-0.6,5.794,5.794,0,0,0,.061-1.594,2.075,2.075,0,0,0-1.648-1.818A3.906,3.906,0,0,0,41.668,22.456ZM63.211,22.5c-0.832,0-2.538.014-2.9,0.034a6.123,6.123,0,0,0-1.4.217,4.251,4.251,0,0,0-2.936,2.774,4.333,4.333,0,0,0-.027,3.215,2.089,2.089,0,0,0,1.031,1.017,2.479,2.479,0,0,0,.719.17,2.9,2.9,0,0,0,1.383-.244,2.106,2.106,0,0,0,.692-0.441c0.154-.139.165-0.108,0.1,0.264-0.04.234-.039,0.295,0.007,0.312s2.075-.039,2.116-0.054a0.056,0.056,0,0,0,.034-0.041c0-.051.218-1.394,0.292-1.8,0.162-.882.416-2,0.814-3.595a12.023,12.023,0,0,1,.475-1.668,1.232,1.232,0,0,0,.061-0.149A4.331,4.331,0,0,0,63.211,22.5Zm-10.327.041s-0.795,0-1.756.014a13.616,13.616,0,0,0-2.455.115,4.391,4.391,0,0,0-1.288.407,4.037,4.037,0,0,0-1.905,1.9,4.877,4.877,0,0,0-.563,2.177,3.257,3.257,0,0,0,.332,1.709A1.965,1.965,0,0,0,46.9,29.937a3.3,3.3,0,0,0,.726-0.034,2.871,2.871,0,0,0,1.3-.57,1.764,1.764,0,0,1,.21-0.163c0.04,0,.039.069-0.007,0.339a0.557,0.557,0,0,0-.02.305,7.628,7.628,0,0,0,1.065-.007c0.574-.015,1.049-0.032,1.058-0.041s0.051-.249.095-0.529A49,49,0,0,1,52.375,24.3a12.944,12.944,0,0,1,.475-1.641A0.315,0.315,0,0,0,52.884,22.544ZM14.517,23.684a0.891,0.891,0,0,1,.956.766,2.411,2.411,0,0,1-.047.692l-0.027.095-0.353.014c-0.194.007-.755,0.012-1.248,0.014a3.734,3.734,0,0,1-.9-0.027,2.564,2.564,0,0,1,.434-0.916,1.679,1.679,0,0,1,.6-0.5A1.208,1.208,0,0,1,14.517,23.684Zm27.117,0.034a0.968,0.968,0,0,1,.685.271,0.945,0.945,0,0,1,.258.753,1.8,1.8,0,0,1-.1.543,1.748,1.748,0,0,1-.5.041c-0.542.015-1.957,0.015-1.994,0s-0.023-.093.047-0.278a1.9,1.9,0,0,1,1.322-1.3A1.3,1.3,0,0,1,41.634,23.717Zm51.6,0.047a0.9,0.9,0,0,1,.712.264,1.212,1.212,0,0,1,.319.794,6.5,6.5,0,0,1-.359,2.245,1.955,1.955,0,0,1-1.343,1.479,1.1,1.1,0,0,1-.617-0.048,1.023,1.023,0,0,1-.644-0.787,4.834,4.834,0,0,1,.02-1.112,5.878,5.878,0,0,1,.692-2.157A1.448,1.448,0,0,1,93.23,23.765Zm-17.251.217c0.248,0,.326.017,0.326,0.068s-0.862,3.893-.875,3.914a3.178,3.178,0,0,1-.5.319,1.777,1.777,0,0,1-.258.095,1.635,1.635,0,0,1-.583,0,1.082,1.082,0,0,1-.441-0.244,1.266,1.266,0,0,1-.183-0.271,1.606,1.606,0,0,1-.169-0.841,3.764,3.764,0,0,1,.38-1.675,2.259,2.259,0,0,1,1.037-1.119A2.583,2.583,0,0,1,75.98,23.982Zm-26.12.007c0.33,0,.393.012,0.393,0.088S49.4,27.948,49.371,28a1.909,1.909,0,0,1-.461.339,1.783,1.783,0,0,1-.271.095,1.45,1.45,0,0,1-.61.007,1.094,1.094,0,0,1-.753-0.841,3.045,3.045,0,0,1,.054-1.363,3.252,3.252,0,0,1,.787-1.526,2.006,2.006,0,0,1,.909-0.59A2.334,2.334,0,0,1,49.859,23.989Zm10.673,0c0.409-.011.482,0,0.481,0.068,0,0.018-.2.911-0.441,1.98a8.709,8.709,0,0,1-.495,1.994,2.552,2.552,0,0,1-.529.319,1.357,1.357,0,0,1-.325.075c-0.1.011-.184,0.022-0.19,0.02s-0.067-.011-0.136-0.02a1.161,1.161,0,0,1-.482-0.21,1.134,1.134,0,0,1-.264-0.36,2.575,2.575,0,0,1-.075-1.533,3.537,3.537,0,0,1,.9-1.73,2.41,2.41,0,0,1,.97-0.543A2.041,2.041,0,0,1,60.532,23.989Z"/>
</svg>
