<svg xmlns="http://www.w3.org/2000/svg" width="56" height="56" viewBox="0 0 56 56">
  <defs>
    <style>
      .cls-1 {
        fill: #4a505c;
        fill-rule: evenodd;
      }
    </style>
  </defs>
  <path id="Same" class="cls-1" d="M223.926,14.045h-1.89v16.31h0l6.609,6.354,1.254-1.392-5.977-5.742V14.045Zm-0.359,36.144a22.662,22.662,0,1,1,0-45.323,23.025,23.025,0,0,1,20.606,13.343l1.405,0.439,0.121-1.707a24.546,24.546,0,1,0-22.14,35.109,24.3,24.3,0,0,0,24.463-22.633l-1.858-.019A22.44,22.44,0,0,1,223.567,50.188Zm24.477-37.169-1.052,7.923L239,18.6V16.963l6.315,1.3,1.17-5.245h1.561ZM182,11h14v2H182V11Zm-3,9h14v2H179V20Zm-7,10h20v2H172V30Zm7,10h16v2H179V40Z"/>
  <path id="_2" data-name="2" class="cls-1" d="M54,56H2a2,2,0,0,1-2-2V17a0.98,0.98,0,0,1,.115-0.443l-0.009,0,8-16,0.009,0A0.992,0.992,0,0,1,9,.005H47a0.992,0.992,0,0,1,.885.557l0.009,0,8,16-0.009,0a0.98,0.98,0,0,1,.115.443V54A2,2,0,0,1,54,56Zm-28-54L24,18v8h8V18l-2-16H26ZM54,21V18H37a1,1,0,1,1,0-2H53.377l-7-14H32l2,16v8a1.959,1.959,0,0,1-2,2H24a1.959,1.959,0,0,1-2-2V18l2-16H9.617l-7,14H19a1,1,0,1,1,0,2H2V54H54V21ZM7,42H25a1,1,0,1,1,0,2H7A1,1,0,1,1,7,42Zm0,6H21a1,1,0,0,1,0,2H7A1,1,0,0,1,7,48Zm35.29,0.293L46.582,44H45a1,1,0,0,1,0-2h4a1,1,0,0,1,1,1v4a1,1,0,0,1-2,0V45.415L43.7,49.707a1,1,0,1,1-1.415-1.413h0Z"/>
</svg>
