<svg id="canada" xmlns="http://www.w3.org/2000/svg" width="140" height="50" viewBox="0 0 140 50">
  <defs>
    <style>
      .cls-1 {
        fill: #004790;
      }

      .cls-1, .cls-2, .cls-3 {
        fill-rule: evenodd;
      }

      .cls-2 {
        fill: #fff;
      }

      .cls-3 {
        fill: #d11c00;
      }
    </style>
  </defs>
  <path id="_" data-name="#" class="cls-1" d="M127.967,38.007H12.015V10.973H128Z"/>
  <path id="_2" data-name="#" class="cls-2" d="M12,25V24.211H128V25H12Zm104.278-4.547a4.463,4.463,0,0,1-1.217-.163l0.055-.922a2.177,2.177,0,0,0,1.112.326,0.772,0.772,0,0,0,.844-0.651c0-.921-2.115-0.541-2.115-2.168a1.483,1.483,0,0,1,1.691-1.517,4.086,4.086,0,0,1,1.166.163l-0.106.812a2.764,2.764,0,0,0-.954-0.217,0.7,0.7,0,0,0-.793.7c0,0.868,2.117.488,2.117,2.168C118.078,20.074,117.285,20.454,116.278,20.454Zm-6.717-5.037h2.855v0.812h-1.9V17.42h1.745v0.812h-1.745v1.354h1.9V20.4h-2.855V15.416ZM105.805,20.4h-0.952v-4.17h-1.376V15.416h3.7v0.812h-1.376V20.4Zm-6.3.055a4.452,4.452,0,0,1-1.216-.163l0.106-.922a1.877,1.877,0,0,0,1.059.326,0.828,0.828,0,0,0,.9-0.651c0-.921-2.116-0.541-2.116-2.168a1.443,1.443,0,0,1,1.639-1.517,3.839,3.839,0,0,1,1.166.163l-0.054.812a3.372,3.372,0,0,0-1.005-.217,0.68,0.68,0,0,0-.74.7c0,0.868,2.116.488,2.116,2.168C101.361,20.074,100.516,20.454,99.509,20.454Zm-6.135,0a2.244,2.244,0,0,1-2.328-2.547,2.245,2.245,0,0,1,2.328-2.546,2.282,2.282,0,0,1,2.378,2.546A2.281,2.281,0,0,1,93.374,20.454Zm0-4.335a1.525,1.525,0,0,0-1.323,1.787c0,0.868.371,1.789,1.323,1.789a1.528,1.528,0,0,0,1.374-1.789A1.561,1.561,0,0,0,93.374,16.119Zm-6.4,2.385H86.55v1.9H85.6V15.416h1.217c1.057,0,2.009.324,2.009,1.515C88.823,18.069,88.031,18.5,86.973,18.5ZM86.92,16.228H86.55v1.516h0.37a0.748,0.748,0,0,0,.9-0.758A0.775,0.775,0,0,0,86.92,16.228Zm-33.7,3.033H51.266L50.843,20.4H49.838l1.9-4.983H52.8L54.7,20.4H53.647Zm-0.952-2.816H52.218L51.53,18.5h1.428ZM44.918,20.4H43.6V15.416h1.323c1.482,0,2.8.54,2.8,2.49S46.4,20.4,44.918,20.4Zm0.212-4.171H44.548v3.358H45.13a1.589,1.589,0,0,0,1.587-1.68A1.589,1.589,0,0,0,45.13,16.228Zm-5.4,3.034H37.777L37.353,20.4h-1l1.905-4.983h1.111l1.9,4.983h-1.11Zm-0.952-2.816L38.094,18.5H39.47Zm-7.776.27V20.4h-0.9V15.416H31.27l1.852,3.736V15.416h0.951V20.4H32.857ZM26.3,19.262H24.341L23.918,20.4h-1l1.851-4.983h1.11l1.9,4.983H26.722Zm-0.951-2.816H25.292L24.606,18.5h1.428Zm-5.5,3.25a2.837,2.837,0,0,0,1.058-.217l0.053,0.866a7.657,7.657,0,0,1-1.111.109c-1.534,0-2.645-.758-2.645-2.438a2.41,2.41,0,0,1,2.645-2.656,2.9,2.9,0,0,1,1.111.217l-0.053.814a2.036,2.036,0,0,0-1.058-.272,1.663,1.663,0,0,0-1.64,1.787A1.635,1.635,0,0,0,19.844,19.7Zm-1.27,9.318c1.058,0,2.011.325,2.011,1.517,0,1.139-.794,1.571-1.852,1.571H18.31V34H17.358V29.013h1.217Zm-0.264,2.33h0.37a0.748,0.748,0,0,0,.9-0.758,0.775,0.775,0,0,0-.9-0.759H18.31v1.517Zm6.824-2.385a2.283,2.283,0,0,1,2.38,2.547,2.282,2.282,0,0,1-2.38,2.546,2.244,2.244,0,0,1-2.328-2.546A2.245,2.245,0,0,1,25.134,28.958Zm0,4.335a1.528,1.528,0,0,0,1.375-1.788,1.527,1.527,0,0,0-1.375-1.787c-0.952,0-1.323.92-1.323,1.787A1.527,1.527,0,0,0,25.134,33.293Zm6.559-4.336a3.693,3.693,0,0,1,1.111.163l-0.053.812a3.047,3.047,0,0,0-1-.215,0.68,0.68,0,0,0-.741.7c0,0.866,2.117.486,2.117,2.166,0,1.085-.846,1.463-1.8,1.463a4.758,4.758,0,0,1-1.27-.163l0.106-.919a1.888,1.888,0,0,0,1.058.324,0.829,0.829,0,0,0,.9-0.65c0-.921-2.116-0.543-2.116-2.167A1.484,1.484,0,0,1,31.693,28.958Zm7.248,0.867H37.566V34H36.613V29.825H35.238V29.013h3.7v0.812Zm49.3-.867a2.484,2.484,0,0,1,1.057.216l-0.052.815a1.924,1.924,0,0,0-1.058-.271A1.623,1.623,0,0,0,86.6,31.5a1.606,1.606,0,0,0,1.64,1.788,3.071,3.071,0,0,0,1.057-.217v0.868a6.367,6.367,0,0,1-1.057.108c-1.587,0-2.7-.758-2.7-2.438A2.449,2.449,0,0,1,88.243,28.958Zm5.977,0.055L96.124,34H95.066l-0.423-1.138H92.686L92.262,34H91.257l1.906-4.985H94.22ZM94.379,32.1L93.69,30.042,92.95,32.1h1.429Zm7.089,0.65h0.052V29.013h0.9V34h-1.165L99.4,30.313V34H98.452V29.013h1.216Zm6.241-3.739,1.9,4.985h-1.057l-0.424-1.138h-1.957L105.752,34h-1.006l1.853-4.985h1.11Zm0.159,3.088-0.741-2.059L106.439,32.1h1.429Zm8.2-.6c0,1.948-1.269,2.492-2.8,2.492H111.94V29.013h1.324C114.8,29.013,116.066,29.555,116.066,31.505Zm-3.12,1.678h0.53a1.682,1.682,0,0,0,0-3.359h-0.53v3.359Zm8.253-4.171L123.1,34h-1.111l-0.424-1.138h-1.957L119.188,34h-1l1.9-4.985H121.2ZM121.3,32.1l-0.688-2.059L119.928,32.1H121.3Z"/>
  <path id="_3" data-name="#" class="cls-3" d="M69.961,13A11.246,11.246,0,0,0,58.989,24.517a11.01,11.01,0,1,0,22,0A11.289,11.289,0,0,0,69.961,13"/>
  <path id="_4" data-name="#" class="cls-2" d="M66.566,26.264l0.794-.83,9.045-.444,0.37-.389H67.942l-4.867-5.927,16.134,5.651-5.343,5.653H63.075l1.058-1.165,9.045-.444,0.37-.387H64.979l0.793-.832,8.993-.442,0.423-.444H66.566"/>
</svg>
