<svg id="ems" xmlns="http://www.w3.org/2000/svg" width="140" height="50" viewBox="0 0 140 50">
  <defs>
    <style>
      .cls-1 {
        fill: #10499f;
      }

      .cls-1, .cls-2 {
        fill-rule: evenodd;
      }

      .cls-2 {
        fill: #f8971d;
      }
    </style>
  </defs>
  <path id="_" data-name="#" class="cls-1" d="M94.224,11c2.675-.039,5.366-0.08,8.042.021,0.722,1.574,1.956,2.87,2.624,4.463-0.095,1.234-.652,2.4-0.872,3.625-2.319,0-4.639.023-6.956-.006,0.05-.343.106-0.686,0.168-1.026-0.465.012-.928,0.025-1.391,0.041q-0.324,1.25-.619,2.511c1.447,0.228,3.584-.72,4.377.942,0.781,1.441,1.962,2.662,2.6,4.167-0.279,2.367-1.138,4.66-1.562,7.016a2.9,2.9,0,0,1-.959,1.923c-1.372,1.014-2.417,2.42-3.908,3.28-2.841.092-5.7,0.043-8.54,0.014a31.277,31.277,0,0,1-2.251-3.383c3.547-.056,7.1-0.006,10.646-0.023,0.9,0.043,1.491-.751,2.159-1.223-4.3-.156-8.615.016-12.921-0.086,0.282-1.125.532-2.256,0.858-3.37,2.377-.062,4.757.008,7.135-0.045-0.087.484-.156,0.975-0.212,1.466q0.639-.009,1.281-0.01,0.171-.708.334-1.42c1.57-.056,3.144-0.008,4.715,0,0.1-.425.185-0.852,0.272-1.281-3-.09-6.009.072-9-0.064a22.735,22.735,0,0,1-3.16-3.379c4.176-.053,8.351.017,12.527-0.025-0.355-.486-0.519-1.392-1.294-1.281-3.729-.025-7.46,0-11.19,0,0.266-1.143.629-2.262,0.887-3.407,1.607-.008,3.214.029,4.817-0.07,0.081-.419.166-0.835,0.262-1.25-1.574,0-3.146-.014-4.72,0,0.295-1.135.579-2.274,0.884-3.408,4.356-.031,8.713,0,13.069-0.033-0.345-.491-0.528-1.4-1.3-1.283-3.647-.008-7.3.059-10.943-0.027A31.051,31.051,0,0,1,94.224,11M78.879,23.91c-0.116.409-.235,0.817-0.351,1.225q2.025,0,4.053,0c0.083-.423.158-0.85,0.233-1.275a33.519,33.519,0,0,0-3.935.051m-9.038-.051c-0.073.425-.15,0.848-0.222,1.273,2.166,0.031,4.331-.029,6.495.045q0.321-.659.637-1.32c-2.3-.041-4.607-0.021-6.91,0M66.365,11c2.6-.035,5.2-0.035,7.8-0.018,0.455,3.112.316,6.3,0.681,9.43,2.961,0.01,5.924.066,8.883-.025q0.143-.637.295-1.275c-2.859,0-5.72.014-8.58,0.01q0.847-1.675,1.57-3.412c2.653-.072,5.311.057,7.963-0.076,0.071-.417.141-0.835,0.218-1.252-2.492.016-4.985,0.055-7.477-.031,0.343-1.166.961-2.227,1.368-3.369,3.1-.006,6.19-0.021,9.286,0-1.173,5.425-2.712,10.771-4,16.171-1,3.586-1.692,7.248-2.73,10.826-2.342.053-4.686,0.016-7.031,0,0.343-1.119.652-2.248,0.92-3.387,1.539-.095,3.1.1,4.622-0.121a11.92,11.92,0,0,0,.363-1.148c-1.536-.07-3.075-0.02-4.614-0.053,0.326-1.127.586-2.27,0.87-3.407,1.489,0,2.978,0,4.466-.008,0.112-.427.233-0.852,0.351-1.279-1.474,0-2.951-.023-4.425-0.008,0.044-.283.085-0.567,0.123-0.848-1.688,3.319-2.957,6.85-4.722,10.122-1.161.378-2.514,0.07-3.748,0.142a15.333,15.333,0,0,0,.268-3.377c0.934-.035,1.869-0.035,2.8-0.088,0.116-.4.232-0.8,0.336-1.207-0.982-.021-1.962-0.025-2.944-0.053-0.041-1.129-.039-2.26,0-3.389,1.561-.051,3.123,0,4.686-0.018,0.162-.423.326-0.844,0.49-1.267-1.657-.035-3.314.037-4.969-0.043,0-.757-0.021-1.517-0.085-2.272-1.134,3.861-1.927,7.817-2.932,11.717-2.272.031-4.543,0-6.815,0.016,0.172-1.154.513-2.274,0.745-3.416,1.508-.041,3.013-0.014,4.52-0.013,0.085-.416.16-0.833,0.23-1.252-1.462-.047-2.926-0.035-4.387-0.068,0.3-1.133.6-2.262,0.891-3.4,1.5,0,2.99,0,4.485-.008,0.087-.417.181-0.831,0.27-1.248-1.485-.029-2.971-0.008-4.456-0.053a23.3,23.3,0,0,1,.855-3.28c1.48-.349,3.027.035,4.531-0.195,0.071-.411.139-0.821,0.214-1.232-1.453-.018-2.9.006-4.356-0.031,0.156-1.151.517-2.262,0.733-3.4q4.329,0.034,8.657.012c0-.437,0-0.872.012-1.31-2.776-.029-5.554.045-8.33-0.033,0.287-1.123.556-2.248,0.864-3.364,2.429-.043,4.857-0.025,7.286-0.031q-0.009-.647-0.014-1.291c-2.307,0-4.616.031-6.925-.031A26.172,26.172,0,0,1,66.365,11m-15.444.035c4.441-.113,8.891-0.068,13.334-0.029-0.675,2.558-1.2,5.15-1.923,7.694-1.977.014-3.953,0.053-5.93,0.01-0.116.569-.249,1.137-0.349,1.71,1.773,0.014,3.544-.023,5.318,0-0.511,2.744-1.271,5.442-1.937,8.151-1.836,0-3.669,0-5.5.025-0.129.7-.295,1.386-0.447,2.077,1.933,0.045,3.87-.058,5.8.029-0.494,2.4-.949,4.828-1.651,7.18-4.419.279-8.9,0.059-13.343,0.1,0.243-1.137.552-2.26,0.766-3.405,3.7-.01,7.4-0.027,11.094.01,0.1-.435.2-0.866,0.3-1.3-3.681.006-7.365-.006-11.048,0,0.241-1.151.575-2.28,0.868-3.42,1.684-.031,3.368.018,5.054-0.021,0.087-.433.187-0.866,0.289-1.3q-2.5.068-5,.006c0.264-1.141.546-2.28,0.887-3.4,3.495-.078,6.991.053,10.482-0.066,0.073-.409.143-0.819,0.222-1.227-3.449-.078-6.9.021-10.347-0.053,0.139-1.145.484-2.254,0.731-3.379,1.721-.035,3.443.037,5.164-0.027,0.044-.421.1-0.84,0.145-1.258-1.655-.049-3.308-0.021-4.963-0.041,0.289-1.135.581-2.27,0.853-3.408,3.7-.037,7.392.027,11.088-0.023,0.083-.425.166-0.85,0.255-1.273-3.667-.012-7.336.047-11-0.047,0.2-1.121.515-2.215,0.789-3.319"/>
  <path id="_2" data-name="#" class="cls-2" d="M36.8,34.73a19,19,0,0,1,4.865.041,7.6,7.6,0,0,1-.511,2.81,0.794,0.794,0,0,1-1.285.152,21.636,21.636,0,0,1-3.069-3m-5.031-4.7c3.706-.322,7.458-0.094,11.183-0.14a8.9,8.9,0,0,1-.818,3.3c-2.159.125-4.354,0.088-6.526,0.082-0.845.062-1.341-.679-1.846-1.217a27.519,27.519,0,0,1-1.993-2.026m-4.942-4.769c5.754-.244,11.53-0.068,17.292-0.094-0.2,1.117-.17,2.412-0.891,3.34-3.918.113-7.851-.051-11.773,0.06-2.176.254-3.314-1.991-4.628-3.305M107.2,23.828c-0.018-1.18-.22-3.432,1.487-3.393q8.546,0,17.093,0c-0.2,1.139-.486,2.26-0.765,3.381-5.938.019-11.877,0-17.815,0.012M21.768,20.5c5.99-.168,12-0.016,17.99-0.068a52.022,52.022,0,0,1,5.629.121,18.683,18.683,0,0,1-.864,3.116,5.914,5.914,0,0,1-2.06.086c-5.793,0-11.588-.043-17.381.066A30.149,30.149,0,0,1,21.768,20.5m87.049-4.7c6.034-.2,12.084-0.035,18.125-0.086q-0.4,1.706-.823,3.4c-5.944-.016-11.893.041-17.838-0.033a7.9,7.9,0,0,1,.536-3.282M16.75,15.74c9.865-.029,19.738-0.088,29.6.033-0.212,1.139.079,3.4-1.622,3.3-7.745.064-15.494,0.051-23.239,0.008-0.671-.006-1.516.191-2-0.4-0.866-1.024-1.865-1.93-2.739-2.948m93.273-4.682c5.986-.078,12,0.012,17.99-0.033-0.189,1.127-.478,2.235-0.733,3.352-6.051-.07-12.122.181-18.158-0.127,0.274-1.041.2-2.379,0.9-3.192m-98.155.09a20.609,20.609,0,0,1,4.009-.115q14.43-.009,28.864-0.006a8.806,8.806,0,0,1,2.778.127,5.62,5.62,0,0,1-.768,3.18c-10.077.129-20.166-.006-30.249,0.068a2.462,2.462,0,0,1-1.817-.419,18.578,18.578,0,0,1-2.818-2.835"/>
</svg>
