<svg id="china_post" data-name="china post" xmlns="http://www.w3.org/2000/svg" width="140" height="50" viewBox="0 0 140 50">
  <defs>
    <style>
      .cls-1, .cls-2 {
        fill-rule: evenodd;
      }

      .cls-2 {
        fill: #148246;
      }
    </style>
  </defs>
  <path id="_" data-name="#" class="cls-1" d="M127.2,31.392v7.313h-2.022V31.392h-2.791v-1.6h7.6v1.6H127.2Zm0.346-6.574,0.44,0.246,0.392,0.2,0.391,0.148,0.881,0.3L129.3,26.2l-0.195.3-0.147.3-0.1.1-0.1.246-0.146.345-0.147.394-0.49-.246-0.489-.246-0.489-.3-0.489-.3-0.441-.345-0.44-.345-0.44-.345-0.441-.345-0.538.394-0.489.394-0.538.345-0.538.3-0.636.3-0.636.3-1.468.542-0.244-.591-0.2-.394-0.391-.443-0.489-.591,0.733-.148,0.392-.1,0.342-.1,0.734-.3,0.783-.3,0.489-.3,0.44-.3,0.392-.3,0.391-.3-0.294-.443-0.244-.443-0.2-.443-0.2-.492-0.489-1.231-0.44-1.428-0.245.246-0.342-.345-0.294-.394v1.625h-0.88l-1.321-.049v2.757l0.831-.2,0.685-.148,1.37-.492v0.2l-0.049.394-0.049.443v1.083l-0.391.1-6.262,1.674-0.538.2-0.685.246-0.44-1.231-0.245-.591-0.245-.541,0.93-.148V18.467l-0.049-1.33h2.152l-0.048,1.576v5.12l0.929-.148V15.119h-3.718V13.1l4.207,0.049,4.11-.049v2.018h-2.5v3.4H120.2l-0.685-.541,0.293-.3,0.294-.345,0.294-.394,0.244-.394,0.245-.443,0.244-.443,0.2-.541,0.245-.541,0.146-.492,0.147-.443,0.1-.394,0.1-.394,0.1-.345,0.049-.394,0.1-.985,0.588,0.148,0.587,0.148,0.587,0.1,0.587,0.1L124.166,13.3l-0.49,1.674h4.159l1.418-.049v2.018l-1.027-.049h-0.88L127.2,19.4,127,21.175l-0.147.689-0.147.591-0.244.64-0.294.739,0.93,0.689Zm-2.348-7.188V16.891h-2.348l-0.441.788-0.391.788,0.293-.049,0.294-.049,0.343-.049,0.293-.049,0.293,1.182,0.2,0.541,0.1,0.394,0.2,0.492,0.195,0.394,0.2,0.443,0.245,0.394,0.146-.591,0.147-.591,0.1-.492,0.049-.541,0.049-.443,0.049-.541V17.63ZM112.564,32.118l0.193,0.484,0.048,0.242,0.048,0.242,0.048,0.581,0.048,0.581-0.048.581v0.291l-0.048.242-0.048.29-0.048.242-0.193.484-0.1.194-0.1.242-0.24.387-0.145.194-0.144.194-0.337.339-0.289.242-0.288.194-0.338.194-0.384.146-0.385.1-0.433.1-0.482.048h-0.962l-0.481-.048-0.434-.1-0.385-.1-0.385-.146-0.144-.1-0.193-.1-0.288-.194-0.289-.242-0.337-.339-0.144-.194-0.145-.194-0.24-.387-0.193-.436-0.144-.484L104,35.364l-0.048-.533-0.048-.581,0.048-.581V33.378l0.048-.29,0.048-.242,0.1-.242,0.144-.484,0.193-.436,0.24-.387,0.145-.194,0.144-.194,0.337-.339,0.289-.242,0.288-.194,0.337-.194,0.385-.145,0.385-.1,0.434-.1,0.481-.049h0.962l0.482,0.049,0.433,0.1,0.385,0.1,0.384,0.145,0.145,0.1,0.193,0.1,0.288,0.194,0.289,0.242,0.193,0.194,0.144,0.145,0.144,0.194,0.145,0.194,0.24,0.387Zm-1.588,2.131V33.862l-0.048-.339-0.049-.291-0.1-.29-0.1-.291-0.1-.242-0.144-.242-0.144-.242-0.192-.194-0.193-.145-0.192-.145-0.241-.1-0.241-.1L109,31.15h-0.288l-0.289-.049-0.289.049H107.9l-0.289.1-0.241.1-0.192.1-0.241.145-0.192.145-0.193.194-0.144.242-0.145.194-0.1.291-0.1.291-0.048.145-0.049.145-0.048.291-0.048.339v0.727l0.048,0.387,0.048,0.291,0.1,0.29,0.1,0.291,0.1,0.242,0.145,0.242,0.144,0.242,0.193,0.194,0.192,0.145,0.241,0.145,0.1,0.049,0.1,0.049,0.241,0.1L107.9,37.3l0.24,0.048,0.289,0.048,0.289-.048L109,37.3l0.241-.049,0.241-.1,0.241-.1,0.1-.048,0.1-.1,0.193-.145,0.192-.194,0.144-.242,0.144-.242,0.1-.242,0.1-.291,0.1-.29,0.049-.291,0.048-.387V34.249Zm-3.493-11.155-0.1.246-0.1.246-0.146.246-0.147.246-0.2.246-0.146.147-0.245.2-0.2.148-0.2.148-0.489.246-0.293.1-0.294.1-0.195.1-0.245.049-0.538.1-0.44-1.231-0.2-.492-0.245-.541h0.685l0.245-.049,0.44-.1,0.147-.049,0.2-.1,0.244-.2,0.147-.148,0.1-.1,0.1-.2,0.048-.148,0.049-.2v-0.2l-0.049-.345-0.048-.3-0.1-.344-0.147-.3-0.1-.2-0.147-.246-0.293-.443-0.343-.443-0.342-.394-0.587-.64V17.482l0.342-1.034,0.294-.837,0.2-.886,0.244-1.034h-1.663V25.507l0.049,2.215h-2.153l0.1-2.215V13.642l-0.049-1.871,5.235,0.049,1.027,1.034-1.663,4.825,0.685,0.738,0.489,0.591,0.293,0.394,0.2,0.345,0.2,0.394,0.146,0.394,0.147,0.394,0.049,0.394,0.1,0.443V22.5l-0.049.3Zm-6.518,6.893,0.289,0.1L101.5,30.23l0.24,0.1,0.193,0.194,0.241,0.194,0.144,0.194,0.144,0.242,0.145,0.242,0.1,0.291,0.048,0.29,0.048,0.291V32.99l-0.048.388-0.048.291-0.1.291-0.145.29-0.144.242-0.144.194-0.241.194-0.193.145-0.24.1-0.289.145-0.289.1-0.288.048-0.337.049-0.386.049H97.548v3.2H95.575V29.842h4.765l0.336,0.1Zm-0.529,1.647-0.192-.1L100,31.44l-0.289-.048-0.337-.049H97.548v2.616h2.166L100,33.91l0.241-.1,0.192-.145,0.1-.1,0.1-.1,0.144-.242v-0.1l0.048-.145,0.048-.339-0.048-.339-0.048-.145v-0.1l-0.144-.242Zm-0.683-6.915,0.1,2.166h-2.1V26.492H92.856v0.394h-2.2l0.1-2.166V16.153L90.7,14.331h3.522l-0.049-3h2.2l-0.049,3H99.8l-0.049.739v9.649ZM94.225,16.2h-1.37v3.3h1.37V16.2Zm0,5.169h-1.37v3.249h1.37V21.371ZM97.748,16.2H96.329v3.3h1.419V16.2Zm0,5.169H96.329v3.249h1.419V21.371Zm-12.9,15.494H81.378L80.7,38.705H78.635L82,29.794h2.214l3.369,8.912H85.42ZM83.11,31.828l-1.2,3.487h2.358Zm1.428-4.352h-2.25V27.132H71.428v0.246H69.275V12.067H84.539l-0.049.788v0.788Zm-2.25-13.539H71.428V25.31H82.288V13.937ZM75.831,20.19l-3.376.049V18.368l1.615,0.049h1.761V16.744h-2.1l-1.712.049v-1.92l2.348,0.1H79.3l2.593-.1v1.92H81.261l-0.88-.049h-2.4v1.674H79.94l1.419-.049v1.871l-1.321-.049,0.245,0.246,0.245,0.246,0.978,0.935-0.832.886,1.37-.049v1.822l-2.4-.049L77.1,24.178l-2.593.049-2.789.049V22.455L75.831,22.5V20.19ZM77.983,22.5h1.761l-0.294-.345-0.343-.345-0.391-.394-0.489-.443,0.489-.345,0.489-.443H77.983V22.5Zm-11.91,7.29h1.973v8.912H66.073V29.794Zm-3.658,4.94H58.758v3.971H56.785V29.794h1.973v3.39h3.658v-3.39h1.973v8.912H62.416V34.734ZM62.377,22.356H59.931v-0.3h-4.06v3.545l0.1,2.068H53.376l0.049-2.068V22.061H49.462l0.049,0.3H47.065l0.049-2.117V16.35l-0.049-1.821,1.908,0.1h4.452l-0.049-3.249h2.593L55.92,12.9l-0.049,1.723h4.6l1.908-.1L62.329,16.35v3.889Zm-8.953-5.613H49.462v3.151h3.963V16.744Zm6.507,0h-4.06v3.151h4.06V16.744Zm-12.772,16,0.048-.242,0.1-.242,0.193-.436,0.192-.387,0.144-.194,0.145-.145,0.144-.194,0.144-.145,0.144-.145,0.192-.145,0.144-.1,0.145-.1,0.337-.194,0.337-.145,0.385-.145,0.385-.1,0.433-.049H51.2L51.78,29.7h0.289l0.24,0.049,0.481,0.1,0.481,0.194,0.385,0.194,0.192,0.1,0.193,0.145,0.337,0.291,0.144,0.194L54.667,31.1l0.289,0.436,0.192,0.388L55.2,32.167l0.1,0.194v0.194L55.341,32.8H53.368l-0.1-.339-0.144-.242-0.1-.242-0.144-.145-0.144-.145-0.192-.145-0.144-.1-0.193-.048-0.192-.1H51.78l-0.241-.049H51.01l-0.241.049-0.241.048-0.192.1-0.241.1-0.144.145-0.193.194-0.144.194-0.144.194-0.144.242-0.1.242-0.1.291-0.1.291-0.048.339v1.066l0.048,0.339,0.048,0.291,0.048,0.29,0.1,0.291,0.1,0.242,0.144,0.242,0.144,0.194,0.193,0.145,0.144,0.145,0.192,0.145,0.24,0.1,0.193,0.1,0.24,0.049,0.241,0.048h0.481L51.78,37.3l0.193-.049,0.24-.049,0.193-.1,0.144-.145,0.192-.1,0.144-.145,0.144-.194,0.1-.242,0.144-.29,0.1-.339h1.925l-0.048.387-0.1.339L55,36.671l-0.144.339-0.192.291-0.192.242-0.241.242-0.241.242-0.241.242-0.289.145-0.337.194-0.337.1-0.337.1-0.337.1-0.385.048H50.817l-0.481-.1-0.433-.1-0.385-.1-0.385-.194-0.385-.194L48.6,38.124l-0.192-.1-0.144-.145-0.144-.145-0.144-.194L47.833,37.4l-0.24-.339L47.4,36.671l-0.144-.436L47.111,35.8l-0.1-.436-0.048-.485V33.765l0.1-.533,0.048-.242Zm28.491,3.245v-6.2H77.48v8.912H75.506l-3.85-6.3v6.3H69.827V29.794H71.9Zm40.282,0.242,0.048,0.242,0.1,0.242,0.145,0.145,0.144,0.145,0.144,0.1,0.145,0.1,0.192,0.1,0.241,0.048,0.24,0.048h1.155l0.289-.048,0.193-.1,0.192-.049,0.193-.1,0.144-.1,0.1-.145,0.1-.145,0.048-.145,0.048-.145V36.041l-0.1-.194-0.049-.1-0.047-.049-0.193-.145-0.241-.1-0.289-.1-0.336-.145L118.1,35.17l-0.962-.242-0.674-.145-0.577-.194-0.241-.049-0.24-.1-0.338-.194-0.192-.145-0.193-.194-0.192-.194-0.1-.242-0.145-.242-0.048-.29-0.048-.291v-0.63l0.048-.242,0.048-.291,0.1-.242L114.489,31l0.144-.242,0.193-.194,0.24-.242,0.241-.145,0.241-.194,0.337-.1,0.289-.145,0.384-.1,0.386-.048,0.384-.049h0.77l0.385,0.049,0.338,0.048,0.336,0.1,0.289,0.1,0.289,0.145,0.288,0.145,0.289,0.194,0.241,0.194,0.193,0.194,0.1,0.145,0.1,0.1,0.144,0.242,0.145,0.291,0.1,0.291,0.048,0.339,0.048,0.339h-1.925l-0.048-.387-0.048-.145-0.1-.145-0.049-.049-0.048-.1-0.144-.1-0.144-.1-0.145-.1-0.24-.1-0.289-.1-0.289-.049H117.28l-0.336.1-0.289.049-0.241.145-0.1.1-0.1.048-0.145.194-0.1.242v0.1l-0.048.145,0.048,0.194,0.1,0.194,0.048,0.1,0.1,0.1,0.192,0.1,0.192,0.1,0.241,0.1,0.77,0.194,1.636,0.387,0.482,0.1,0.433,0.145,0.385,0.194,0.144,0.1,0.145,0.1,0.192,0.145,0.193,0.194,0.144,0.194,0.1,0.242,0.1,0.242,0.1,0.242,0.048,0.242v0.581l-0.048.291-0.1.29-0.1.242-0.1.145-0.048.1-0.193.242-0.192.242-0.241.194-0.24.194-0.289.145-0.289.145-0.192.048-0.145.049-0.385.1-0.385.1h-0.385l-0.481.048-0.433-.048H117.04l-0.385-.1-0.385-.049-0.337-.145-0.337-.145-0.289-.145-0.289-.194-0.24-.194-0.193-.242-0.192-.242-0.1-.1-0.049-.145-0.1-.291-0.1-.29-0.049-.339V35.945h1.878Z"/>
  <path id="_2" data-name="#" class="cls-2" d="M27.621,23.333l-0.676,3.335-0.194.822-0.677,3.334H19.213l-0.145.773H27.09l1.063-4.929,0.676-3.335h9.617l-0.725,3.335H30.038L28.3,34.931H18.343L18.2,35.7H29.361l1.063-4.881L31.1,27.489h6.476L36.9,30.823H32.309L31.294,35.7l-0.725,3.335H15.588l1.74-8.216H11.045l0.725-3.334,0.145-.822,0.725-3.335h6.234l1.74-8.215h6.862l0.87-4.156h12.71L40.331,14.3H29.506l-0.145.822-0.677,3.334H21.822l-0.193.773H29.7l0.145-.773,0.725-3.334h9.617l-0.725,3.334H31.777l-0.87,4.108H20.952l-0.194.773h6.862Zm-2.754,4.156,0.145-.822H20.083l-0.194.822h4.978ZM13.8,26.667l-0.145.822H18l0.193-.822H13.8Z"/>
</svg>
