<svg id="dhl_global" data-name="dhl global" xmlns="http://www.w3.org/2000/svg" width="140" height="50" viewBox="0 0 140 50">
  <defs>
    <style>
      .cls-1 {
        fill: #fc0;
      }

      .cls-1, .cls-2 {
        fill-rule: evenodd;
      }

      .cls-2 {
        fill: #d2002d;
      }
    </style>
  </defs>
  <path id="_" data-name="#" class="cls-1" d="M15.015,42.009V41.047H126v0.962H15.015Zm0-3.451H126V39.52H15.015V38.558Zm0-2.489H126v0.962H15.015V36.068Zm0-29.043H126V32.008H15.015V7.025Z"/>
  <path id="_2" data-name="#" class="cls-2" d="M96.607,41.842H94.531l4.264-5.778h2.076Zm-2.349-4.649,0.834-1.129h2.077l-0.834,1.129H94.258ZM92.9,41.842H90.828l3.017-4.089h2.077Zm-2.568-1.364a11.438,11.438,0,0,0-.891,1.364h-1.9c0.218-.31.4-0.61,0.625-0.909H88.143a4.519,4.519,0,0,1-2.673,1.042c-1.188,0-1.832-.566-0.908-1.819a5.545,5.545,0,0,1,4.56-1.974,5.254,5.254,0,0,1,.912.078c0.569-.787.114-1-0.637-1a6.224,6.224,0,0,0-2.234.433l0.964-1.353a9.077,9.077,0,0,1,2.7-.41c1.534,0,2.394.632,1.093,2.4Zm-1.907-1.231a2.2,2.2,0,0,0-1.822.765c-0.295.4-.1,0.632,0.387,0.632a3.384,3.384,0,0,0,2.287-1.364C89.025,39.269,88.741,39.247,88.429,39.247ZM82.29,41.842H80.214l2.291-3.105c0.483-.654.6-1.142,0.012-1.142-0.738,0-1.594.566-2.511,1.808l-1.8,2.44H76.13l2.291-3.105c0.483-.654.6-1.142,0.012-1.142-0.738,0-1.594.566-2.511,1.808l-1.8,2.44H72.046l4.264-5.779H78.2l-0.786,1.065h0.023a4.982,4.982,0,0,1,3.076-1.2c0.853,0,1.3.355,1.062,1.109a5.127,5.127,0,0,1,2.953-1.109c1.731,0,1.427.942,0.273,2.506Zm-10.743-.727-0.539.728H67.632L71.9,36.064H72.76l-3.729,5.05h2.516Zm-5.715.728L66.3,40.386H63.35l-1.688,1.457h-0.9l6.834-5.778h0.9L66.77,41.843H65.833Zm-1.706-2.136h2.4l0.917-2.866Zm-3.343-.812-0.013.017c0.77,0.066.968,0.58,0.369,1.392a3.971,3.971,0,0,1-3.429,1.541h-1.6l4.267-5.778H62c1.249,0,1.824.387,1.035,1.456A3.536,3.536,0,0,1,60.784,38.895Zm-3.312,2.27h0.646a2.478,2.478,0,0,0,2.164-.936c0.66-.894-0.067-1.019-0.807-1.019h-0.56Zm4.169-4.423h-0.9l-1.32,1.789h0.474a2.4,2.4,0,0,0,2.227-.928C62.623,36.915,62.14,36.741,61.64,36.741Zm-9.708,5.2c-1.835,0-1.984-1.234-.688-2.99a6.927,6.927,0,0,1,5.1-2.99c1.827,0,1.953,1.276.688,2.99A6.839,6.839,0,0,1,51.932,41.943Zm3.875-5.252a5.161,5.161,0,0,0-3.65,2.261c-0.85,1.152-1.074,2.261.313,2.261a5.1,5.1,0,0,0,3.651-2.261C56.988,37.777,57.14,36.683,55.807,36.692Zm-6.191,4.423-0.539.728H45.7l4.267-5.778h0.862L47.1,41.115h2.516ZM46.2,36.691a5.46,5.46,0,0,0-3.978,2.261c-1,1.359-.652,2.261.6,2.261a4.572,4.572,0,0,0,1.038-.1l1.3-1.756H43.891l0.5-.679h2.128L44.3,41.686a7.744,7.744,0,0,1-2.025.257c-1.9,0-2.3-1.176-.946-3.015A7.247,7.247,0,0,1,46.7,35.963a3.158,3.158,0,0,1,1.552.29l-0.686.836A1.633,1.633,0,0,0,46.2,36.691Z"/>
  <path id="_3" data-name="#" class="cls-2" d="M109.528,28.029l0.816-1.135H126v1.133Zm2.341-3.253H126v1.14h-14.95Zm1.523-2.117H126V23.8H112.572ZM91.307,28.027c-4.175,0-5.306-2.06-4.026-3.828,0.362-.5,1.106-1.54,1.106-1.54h23.14l-3.864,5.368H91.307ZM89.26,21.444s6.815-9.464,6.818-9.464h10.787l-6.813,9.464H89.26Zm-28.231,0,6.814-9.464H78.029l-3.906,5.427h4.546l3.907-5.427H92.76l-6.812,9.465H61.029Zm-3.32,0h-7.9c-1.5,0-1.048-.631-0.8-0.977,0.494-.682,1.305-1.85,1.79-2.521s0.49-1.041-.486-1.041H30.987l3.546-4.926H54.984c5.193,0,6.52,4.195,5.067,6.21C58.983,19.671,57.709,21.444,57.709,21.444ZM30.728,23.8H15.015V22.66H31.549ZM29.2,25.917H15.015v-1.14H30.024Zm-1.52,2.111H15.015V26.894H28.5Zm17.828-9.9c0.977,0,.964.38,0.487,1.041S44.689,21,44.2,21.682c-0.251.346-.7,0.978,0.8,0.978h11.84a12.247,12.247,0,0,1-9.914,5.368H29.552l7.122-9.9h8.838Zm24.828,4.526-3.862,5.369H56.291s3.86-5.368,3.863-5.368H70.341Zm14.733,0L81.21,28.027H71.025s3.86-5.368,3.863-5.368H85.073Z"/>
</svg>
