<svg id="hongkong" xmlns="http://www.w3.org/2000/svg" width="140" height="50" viewBox="0 0 140 50">
  <defs>
    <style>
      .cls-1 {
        fill: #00936e;
      }

      .cls-1, .cls-2 {
        fill-rule: evenodd;
      }

      .cls-2 {
        fill: #282e75;
      }
    </style>
  </defs>
  <path id="_" data-name="#" class="cls-1" d="M122.679,27.076h-1.162v2.463c0,0.411,0,.821.617,0.821h0.75l-0.545,1.37h-0.617a2.225,2.225,0,0,1-1.846-.548,3.048,3.048,0,0,1-.2-1.436V27.076h-1.234l0.412-1.162h0.822V24.477l1.846-1.027v2.463h1.574Zm-7.046-.547a0.688,0.688,0,0,0-.821.547,0.957,0.957,0,0,0,1.026.411c1.165,0.205,2.8.616,2.8,2.258,0,1.436-1.639,2.189-3.009,2.189a3.843,3.843,0,0,1-2.875-.958l0.412-1.437a3.089,3.089,0,0,0,2.259.821c0.614,0.206,1.231,0,1.231-.41s-0.2-.411-0.2-0.411a2.618,2.618,0,0,0-1.234-.2,0.986,0.986,0,0,0-.819-0.205,4.6,4.6,0,0,1-1.027-.616,2.922,2.922,0,0,1-.41-1.231,2.389,2.389,0,0,1,2.668-2.189,3.268,3.268,0,0,1,2.394.821l-0.409,1.162A4.574,4.574,0,0,0,115.633,26.529Zm-6.7,5.4a3.4,3.4,0,0,1-3.487-3.421,3.444,3.444,0,0,1,3.487-3.42,3.344,3.344,0,0,1,3.216,3.42A3.3,3.3,0,0,1,108.928,31.934Zm0-5.4a1.776,1.776,0,0,0-1.641,1.984,1.661,1.661,0,0,0,1.641,1.847,1.637,1.637,0,0,0,1.439-1.847C110.367,27.692,109.955,26.529,108.928,26.529ZM101.4,28.923H99.967v2.806H97.778V23.04H101.2c1.436,0,2.667,0,3.49,1.232a2.291,2.291,0,0,1,.547,1.643,2.7,2.7,0,0,1-.343,1.368C104.279,28.923,102.635,28.923,101.4,28.923Zm0-4.241H99.967v2.6H101.2c0.822,0,1.846,0,1.846-1.368C103.045,24.682,102.021,24.682,101.4,24.682ZM62.89,11.753c-4.242.342-8.141,3.01-12.382,6.431-4.036,3.489-11.151,4.036-13.2,3.831-0.2,0-.2-0.206,0-0.206,1.436-.136,8.756-1.573,12.587-4.994a18.533,18.533,0,0,1,11.972-5.267,1.6,1.6,0,0,1,1.027,0C63.3,11.547,63.095,11.753,62.89,11.753ZM60.427,8.879c-4.242.411-8.278,3.079-12.383,6.705C44.008,19,36.893,19.414,34.91,19.21c-0.411,0-.206-0.2,0-0.2,1.367-.206,8.688-1.437,12.313-5.063A20.743,20.743,0,0,1,59.4,8.674h1.027C60.837,8.674,60.632,8.879,60.427,8.879ZM45.445,12.711c-3.9,3.488-11.15,4.1-13.2,3.9-0.2,0-.2-0.205,0-0.205C33.679,16.2,41,14.762,44.829,11.342A18.976,18.976,0,0,1,56.8,6.074a1.426,1.426,0,0,1,1.027,0c0.616,0,.2,0,0.2.206C53.723,6.69,49.687,9.29,45.445,12.711Z"/>
  <path id="_2" data-name="#" class="cls-2" d="M120.49,43.291a8.876,8.876,0,0,0,2.053,1.846l-0.616.617a9.09,9.09,0,0,1-2.051-1.849,5.8,5.8,0,0,1-2.463,1.849l-0.548-.617a4.765,4.765,0,0,0,2.394-1.846c-0.2-.412-0.617-0.822-1.026-1.439a0.714,0.714,0,0,1-.206.41l-0.614-.2a12.132,12.132,0,0,0,1.229-5.607h0.824a6.691,6.691,0,0,1-.207,1.982h2.875v0.822h-0.617A9.628,9.628,0,0,1,120.49,43.291Zm-1.231-4.038q-0.307.925-.617,1.846a10.422,10.422,0,0,1,1.234,1.575,7.375,7.375,0,0,0,.819-3.421h-1.436Zm-1.437,1.027-0.409.615h-1.368v2.6h0l1.776-.412v0.822l-4.447,1.232V39.459H114.2V44.11l1.024-.2V37.817h-1.846V37h4.447v0.822h-1.776V40.28h1.776Zm-6.088,1.777a1.566,1.566,0,0,1-1.779,1.438l-0.41-.822s1.437,0.2,1.574-.822c0.206-.548-0.547-1.163-1.164-1.982l0.412-2.258H109.34v8.142h-0.821V36.791h3.01l-0.752,2.873C111.529,40.485,112.144,41.3,111.734,42.058Zm-5.883-3.626h2.258a0.611,0.611,0,0,1,0,.822h-0.822v1.231h0.822V41.3h-0.822v1.37h0.822V43.5h-2.258V44.52l2.258-.41v0.822l-4.652.615-0.412-.822,2.053-.2V43.5h-2.053V42.674h0.617V41.3h-1.027v-0.82h1.027V39.253h-0.617V38.432H105.1V37.612l-1.641.2L102.84,37.2l4.859-.617,0.615,0.617-2.463.41v0.819Zm-0.753.822h-0.615v1.231H105.1V39.254Zm0,2.051h-0.615v1.37H105.1V41.3Zm0.753,1.37h0.614V41.3h-0.614v1.37Zm0-2.189h0.614V39.254h-0.614v1.231Zm-5.269,2.6c-0.41-.41-0.819-0.822-1.162-1.231V44.11H96.752l0.2-.819h1.849V42.262H96.343V44.52c0,0.412,0,.412.205,0.412h3.625l-0.2.822H96.343a0.728,0.728,0,0,1-.82-0.822V42.057a4.818,4.818,0,0,1-1.029,1.026l-0.615-.615a6.38,6.38,0,0,0,1.848-1.984H94.289V39.663h1.643V38.432H94.7V37.612h1.234V36.45h0.819v1.163H98.4V36.45h0.819v1.163h1.162v0.819H99.215v1.232h1.574v0.821H99.42a5.577,5.577,0,0,0,1.779,1.984ZM98.4,38.432H96.547v1.232H98.4V38.432Zm0.2,2.053H96.547a1.406,1.406,0,0,1-.615,1.027h3.283C99.01,41.1,98.805,40.9,98.6,40.485ZM94.905,27.692a2.444,2.444,0,0,1-2.6,2.258H91.895a0.441,0.441,0,0,0-.41.411,0.2,0.2,0,0,0,.2.2,17.449,17.449,0,0,0,1.846.616c0.548,0.2,1.574.548,1.369,1.572,0,1.438-1.779,1.848-3.011,1.848-1.027,0-2.463-.2-2.463-1.436,0-1.027,1.026-1.437,1.846-1.779a0.858,0.858,0,0,1-.819-0.616c0-.41.819-0.821,1.027-1.026A1.828,1.828,0,0,1,90.458,28.1a2.247,2.247,0,0,1,2.463-1.983,3.491,3.491,0,0,1,1.367.41h1.438v0.342H94.494A1.567,1.567,0,0,1,94.905,27.692ZM90.049,32.96q0,1.232,1.846,1.232c0.617,0,2.189-.41,2.189-1.232a0.9,0.9,0,0,0-.548-0.617l-1.846-.753C91.278,31.729,90.049,32.344,90.049,32.96Zm3.078-6.636c-1.024,0-1.641,1.367-1.641,2.189a0.827,0.827,0,0,0,.822,1.027c1.024,0,1.572-1.233,1.572-2.053A0.946,0.946,0,0,0,93.127,26.324Zm-5.336,5.4c-0.343,0-.343-0.138-0.343-0.343a1.553,1.553,0,0,1,.2-0.821L88.405,27.9a2.071,2.071,0,0,0,.2-0.616,0.2,0.2,0,0,0-.2-0.206,3.026,3.026,0,0,0-1.777,1.231,4.56,4.56,0,0,0-1.234,2.463l-0.41.958H84.165L85.6,27.076c0.2-.752-0.207-0.752-0.412-0.752H84.78l0.2-.206h1.643l-0.617,2.395c0.617-.822,2.189-2.395,3.216-2.395a0.544,0.544,0,0,1,.617.616,4.721,4.721,0,0,0-.2.548L88.61,29.95c0,0.2-.2.41-0.2,0.616a0.2,0.2,0,0,0,.2.205,1.69,1.69,0,0,0,1.234-.821l0.2,0.2-0.617.616A2.716,2.716,0,0,1,87.791,31.729Zm-7.251.205a2.277,2.277,0,0,1-2.463-2.6,3.883,3.883,0,0,1,3.694-3.42,2.207,2.207,0,0,1,2.189,2.6A3.677,3.677,0,0,1,80.539,31.934Zm1.231-5.61c-1.641,0-2.463,1.983-2.668,3.42,0,1.026.2,1.846,1.436,1.846,1.573,0,2.395-2.257,2.395-3.488C83.139,27.077,82.728,26.324,81.77,26.324Zm-4.1.41c-0.206.137-1.985,1.369-1.985,1.369,1.162,2.874,1.162,3.284,2.394,3.489v0.138H77.667a2.128,2.128,0,0,1-1.985-1.164,11.121,11.121,0,0,1-.82-1.642l-0.616.411-0.616,2.395H72.6l2.463-7.663c0.2-.821-0.2-0.821-0.411-0.821h-0.41l0.2-.206h1.642l-1.642,5.679c1.027-.821,2.394-1.847,2.6-1.984,0.2-.41-0.206-0.41-0.206-0.41h-0.41V26.118h2.257v0.206A1.565,1.565,0,0,0,77.667,26.734Zm-5.474.138a1.232,1.232,0,0,1,.206.821A2.3,2.3,0,0,1,70,29.95a0.757,0.757,0,0,1-.617-0.2,1.084,1.084,0,0,0-.409.616l0.2,0.2s1.027,0.411,1.779.616c0.821,0.2,1.641.548,1.436,1.572,0,1.233-1.847,1.848-3.011,1.848-0.821-.2-2.257-0.2-2.257-1.436,0-1.027.821-1.437,1.641-1.779a0.859,0.859,0,0,1-.82-0.616c0-.41.82-0.821,1.027-1.026A1.83,1.83,0,0,1,67.951,28.1a2.222,2.222,0,0,1,2.395-1.983,1.733,1.733,0,0,1,1.436.41h1.643l-0.206.342H72.192ZM67.542,32.96c0,0.822.616,1.232,2.052,1.232,0.616,0,1.984-.41,1.984-1.232a0.876,0.876,0,0,0-.616-0.617l-1.779-.753C68.978,31.729,67.542,32.139,67.542,32.96Zm3.01-6.636c-0.958,0-1.573,1.367-1.573,2.189A0.88,0.88,0,0,0,70,29.54c0.752,0,1.367-1.233,1.368-2.053A0.944,0.944,0,0,0,70.552,26.324ZM66.31,30.771a1.822,1.822,0,0,0,1.026-.821l0.206,0.2-0.41.616a2.7,2.7,0,0,1-1.847.959,0.385,0.385,0,0,1-.411-0.343,1.547,1.547,0,0,1,.206-0.821L65.9,27.9c0.2,0,.2-0.411.2-0.616s0-.206-0.2-0.206a2.834,2.834,0,0,0-1.778,1.231,4.554,4.554,0,0,0-1.232,2.463l-0.411.959h-0.82L63.1,26.871c0.2-.547,0-0.547-0.411-0.547H62.479V26.118h1.847l-0.821,2.4c0.616-1.027,2.189-2.4,3.214-2.4a0.516,0.516,0,0,1,.616.411c0,0.2,0,.547-0.2.547L66.1,29.95c0,0.2-.2.41-0.2,0.616S66.1,30.771,66.31,30.771Zm-8.277,1.164a2.277,2.277,0,0,1-2.463-2.6,3.87,3.87,0,0,1,3.625-3.42,2.129,2.129,0,0,1,2.258,2.6A3.523,3.523,0,0,1,58.033,31.934Zm1.162-5.61c-1.573,0-2.4,1.983-2.6,3.42,0,1.026.2,1.846,1.438,1.846,1.573,0,2.394-2.257,2.6-3.488C60.632,27.077,60.427,26.324,59.2,26.324Zm-2.189-3.078c-0.411,0-.616,0-0.822.821l-2.052,6.7c-0.2.82,0,.82,0.412,0.82h0.2v0.138H51.74l0.2-.138H52.15c0.41,0,.615,0,0.752-0.82l1.027-3.284H49.892l-1.027,3.284c-0.2.82,0,.82,0.411,0.82h0.2v0.138h-2.8V31.591h0.206c0.342,0,.547,0,0.752-0.82l2.053-6.7c0.2-.821,0-0.821-0.411-0.821h-0.2V23.04H52.15l-0.206.206h-0.2c-0.411,0-.616,0-0.821.821l-1.027,3.01h4.241l0.822-3.01c0.2-.821,0-0.821-0.411-0.821h-0.2V23.04h3.078l-0.2.206H57.006ZM42.367,35.833c-2.189-5.062-7.252-7.32-12.93-11.356-5.882-4.036-4.1-12.382-3.9-13.956h0.206C25.948,11.958,27.18,19,32.857,23.246c5.679,3.83,9.1,6.7,10.331,12.587a21.254,21.254,0,0,1,.411,2.8H43.392A11.023,11.023,0,0,0,42.367,35.833ZM31.216,14.146C32.857,8.263,33.473,1.218,17.671,9.7c-0.411.41-.616,0.2-0.206,0C22.323,6.28,41.2-3.229,31.216,14.353,31.216,14.353,31.011,14.353,31.216,14.146ZM84.78,39.459h-2.8V38.637H85.6V37.613l-2.668.2L82.523,37.2l6.5-.753,0.41,0.753-3.009.41v1.024h3.831v0.822H87.448v0.205h0.2a5,5,0,0,0,3.011,1.984l-0.615.822c-0.409-.207-0.822-0.412-1.231-0.617v3.08a0.73,0.73,0,0,1-.822.822H83.138v-3.9a3.557,3.557,0,0,1-1.162.617l-0.617-.822A6.909,6.909,0,0,0,84.78,39.459Zm1.849,0.205H86.423v1.848H88.2A8.294,8.294,0,0,1,86.628,39.664ZM83.96,43.291h3.693l-0.41.819H83.96v0.822h3.831c0.2,0,.2,0,0.2-0.207V43.5h0V42.262H83.96v1.029ZM85.6,41.512V39.664a5.321,5.321,0,0,1-1.847,1.848H85.6Zm7.115-4.721,1.572,1.231-0.41.615L92.1,37.408ZM92.1,39.664l0.412-.617,1.572,1.029-0.548.615Zm1.779,2.189-1.163,3.489-0.822-.2,1.231-3.49Z"/>
</svg>
