<svg id="fedex" xmlns="http://www.w3.org/2000/svg" width="140" height="50" viewBox="0 0 140 50">
  <defs>
    <style>
      .cls-1 {
        fill: #412c91;
      }

      .cls-1, .cls-2 {
        fill-rule: evenodd;
      }

      .cls-2 {
        fill: #acabab;
      }
    </style>
  </defs>
  <path id="_" data-name="#" class="cls-1" d="M66.011,10.956V21.6H65.944a6.172,6.172,0,0,0-4.989-2.089,8.417,8.417,0,0,0-8.08,6.322c-1.208-3.966-4.323-6.4-8.94-6.4a9.088,9.088,0,0,0-8.258,4.426v-3.19h-7.69V16.818h8.4V10.956H21.015V36.972h6.973V26.037h6.825a10.373,10.373,0,0,0-.315,2.571,9.088,9.088,0,0,0,9.437,9.235c4.449,0,7.381-2.089,8.932-5.9H46.945a2.973,2.973,0,0,1-3.01,1.484,3.558,3.558,0,0,1-3.458-3.541H52.535c0.523,4.311,3.881,8.028,8.489,8.028a5.9,5.9,0,0,0,4.921-2.629h0.067v1.684H72.1V10.956H66.011ZM40.669,26.114a3.335,3.335,0,0,1,3.266-2.732,3.172,3.172,0,0,1,3.3,2.732H40.669Zm21.645,6.9c-2.245,0-3.641-2.092-3.641-4.277,0-2.335,1.214-4.581,3.641-4.581,2.517,0,3.519,2.246,3.519,4.581,0,2.214-1.062,4.277-3.519,4.277"/>
  <path id="_2" data-name="#" class="cls-2" d="M114.89,37.042a3.094,3.094,0,1,1,3.127-3.094A3.065,3.065,0,0,1,114.89,37.042Zm0-5.689a2.6,2.6,0,1,0,2.528,2.595A2.482,2.482,0,0,0,114.89,31.353Zm1.165,3.377a3.506,3.506,0,0,0,.234,1.048H115.64a11.984,11.984,0,0,1-.251-1.264,0.55,0.55,0,0,0-.63-0.434h-0.533v1.7h-0.549V32.034h1.363a0.969,0.969,0,0,1,1.165,1.031,0.779,0.779,0,0,1-.649.8v0.018A0.778,0.778,0,0,1,116.055,34.73Zm-0.466-1.664c0-.3-0.15-0.531-0.682-0.531h-0.681V33.6h0.681A0.558,0.558,0,0,0,115.589,33.066Zm-14.351,3.907h0l-3.606-4.044-3.573,4.044H86.543l7.348-8.257-7.348-8.258H94.3l3.64,4.011,3.5-4.011h7.483l-7.313,8.224,7.414,8.291h-7.786ZM78,26.037v5.121h8.543v5.814H72.009V10.956H86.543v5.8H78v3.7h8.543v5.579H78Z"/>
</svg>
