<svg xmlns="http://www.w3.org/2000/svg" width="76" height="50" viewBox="0 0 76 50">
  <defs>
    <style>
      .cls-1 {
        fill: #4a505c;
        fill-rule: evenodd;
      }
    </style>
  </defs>
  <path id="Same" class="cls-1" d="M50.036,27.354V11.045h1.89v15.53L57.9,32.316l-1.254,1.392L50.04,27.354h0Zm24.957-9.412L67,15.6V13.963l5.072,1.046a23.011,23.011,0,0,0-20.5-13.143,22.662,22.662,0,1,0,0,45.323,22.441,22.441,0,0,0,22.6-20.79l1.858,0.019A24.3,24.3,0,0,1,51.559,49.05,24.523,24.523,0,1,1,73.635,13.82l0.848-3.8h1.56ZM10,8H24v2H10V8ZM21,19H7V17H21v2ZM20,29H0V27H20v2Zm3,10H7V37H23v2Z"/>
</svg>
