<svg id="dpd" xmlns="http://www.w3.org/2000/svg" width="140" height="50" viewBox="0 0 140 50">
  <defs>
    <style>
      .cls-1 {
        fill: #383838;
      }

      .cls-1, .cls-2 {
        fill-rule: evenodd;
      }

      .cls-2 {
        fill: #e01542;
      }
    </style>
  </defs>
  <path id="_" data-name="#" class="cls-1" d="M114.98,34.39a24.7,24.7,0,0,1-7,.612,7.662,7.662,0,0,1-6.026-3.21c-1.912-3.179-1.455-7.9,1.554-10.261a8.386,8.386,0,0,1,7.5-1.155c0-2.195,0-4.2,0-6.4,1.294-.024,2.684-0.016,3.981-0.008C114.988,20.84,115,27.522,114.98,34.39Zm-3.974-10.55c-1.794-.663-4.1-0.694-5.4.921-1.391,1.9-1.069,5.139,1.09,6.354a6.5,6.5,0,0,0,4.323.434C110.994,28.979,111.019,26.411,111.006,23.84ZM91.135,35.365q-0.008-1.724,0-3.447a4.344,4.344,0,0,0,3.82-2.021c0.855-1.729.8-4.19-.8-5.478-1.456-1.118-3.47-1-5.147-.519C89,29.592,89.014,35.282,89,40.973c-1.328,0-2.655.007-3.981,0-0.018-6.6-.048-13.2.015-19.8a17.613,17.613,0,0,1,7.795-1.109,7.405,7.405,0,0,1,5.737,3.426A8.664,8.664,0,0,1,97.439,33.2,8.593,8.593,0,0,1,91.135,35.365ZM75.977,35a7.661,7.661,0,0,1-6.026-3.21c-1.912-3.179-1.456-7.9,1.553-10.261a8.387,8.387,0,0,1,7.5-1.155c0-2.195,0-4.2,0-6.4,1.295-.024,2.685-0.016,3.981-0.008,0,6.869.013,13.55-.007,20.419A24.7,24.7,0,0,1,75.977,35ZM79.006,23.84c-1.793-.663-4.1-0.694-5.4.921-1.391,1.9-1.069,5.139,1.09,6.354a6.5,6.5,0,0,0,4.323.434C78.994,28.979,79.019,26.411,79.006,23.84Z"/>
  <path id="_2" data-name="#" class="cls-2" d="M41.253,5.224a1.473,1.473,0,0,1,1.541,0q7.563,4.165,15.131,8.325c0.258,0.121-.083.348-0.211,0.416C54.22,16,50.926,18.031,47.437,20.078c-0.561.252-.412,0.942-0.407,1.443-0.024.848,0.95,1.044,1.515,1.414C52.133,20.942,55.432,18.8,59,16.77c0.032,5.794-.026,11.589-0.017,17.385a1.442,1.442,0,0,1-.807,1.427c-5.132,3.055-10.233,6.108-15.363,9.166a1.411,1.411,0,0,1-1.574.011q-7.754-4.619-15.508-9.23a1.7,1.7,0,0,1-.747-1.71c0.026-5.681-.029-11.365.026-17.046C30.2,19.75,35.348,22.8,40.493,25.856c0.026,4.508-.037,9.019.032,13.523a1.653,1.653,0,0,0,3-.155c0.037-4.86.01-9.724,0.016-14.583a0.9,0.9,0,0,0-.59-0.92c-5.579-3.258-11.14-6.546-16.716-9.807a0.22,0.22,0,0,1,0-.437Q33.751,9.363,41.253,5.224Z"/>
</svg>
