<svg id="australia" xmlns="http://www.w3.org/2000/svg" width="140" height="50" viewBox="0 0 140 50">
  <defs>
    <style>
      .cls-1 {
        fill: #d61535;
        fill-rule: evenodd;
      }
    </style>
  </defs>
  <path id="australia-2" data-name="australia" class="cls-1" d="M5.99,39.015V11.029H135.01V39.015H5.99Zm62.4-19.565a7.346,7.346,0,0,0,0,14.121Zm2.154-.312c-0.175,0-.347.007-0.519,0.018v0.756c0.1-.007.205-0.011,0.308-0.011a4.587,4.587,0,1,1,.058,9.173v4.805l0.156,0A7.373,7.373,0,1,0,70.54,19.138Zm14.494-2.974H84.449l-1.081,3.4h0.556l0.234-.81H85.3l0.225,0.81h0.56Zm3.84,0h-0.5v2.189a1.123,1.123,0,0,1-.088.574,0.537,0.537,0,0,1-.5.256,0.525,0.525,0,0,1-.5-0.256,1.1,1.1,0,0,1-.093-0.579V16.163H86.71v2.143a1.452,1.452,0,0,0,.2.921,0.979,0.979,0,0,0,.875.389,1.051,1.051,0,0,0,.775-0.253,1.461,1.461,0,0,0,.309-1.08v-2.12Zm1.5,0.5a0.525,0.525,0,0,1,.372-0.139,0.456,0.456,0,0,1,.335.113,0.538,0.538,0,0,1,.129.395v0.1h0.533V17.016a0.889,0.889,0,0,0-.238-0.658,1.011,1.011,0,0,0-.738-0.249,0.916,0.916,0,0,0-1.033.885,1.138,1.138,0,0,0,.77,1l0.138,0.086a0.9,0.9,0,0,1,.61.644,0.49,0.49,0,0,1-.534.475,0.442,0.442,0,0,1-.328-0.107,0.647,0.647,0,0,1-.134-0.47V18.531H89.69v0.034h0c0,0.018,0,.035,0,0.052a0.42,0.42,0,0,0,0,.05,0.94,0.94,0,0,0,.244.7,1.067,1.067,0,0,0,.775.253,1.112,1.112,0,0,0,.813-0.276,0.913,0.913,0,0,0,.253-0.678,1.052,1.052,0,0,0-.672-0.883l-0.189-.121a0.966,0.966,0,0,1-.657-0.716A0.394,0.394,0,0,1,90.369,16.661Zm3.864-.5H92.084v0.41h0.83v2.988h0.513V16.574h0.806v-0.41ZM92.67,22.1a7.746,7.746,0,0,0-4.235-.8H83.442V24.3l5.148,0c1.366,0,2.041.133,2.041,1.232,0,1.049-.657,1.141-2.041,1.141H83.443v6.594h3.9V29.605h2.328c3.036,0,4.673-1.483,4.673-4.146A3.721,3.721,0,0,0,92.67,22.1Zm4.188-2.578a2.375,2.375,0,0,1-.088-0.671c0-.044,0-0.093,0-0.144s0-.124,0-0.193a0.6,0.6,0,0,0-.407-0.708,0.924,0.924,0,0,0,.283-1.391,1.194,1.194,0,0,0-.862-0.248H94.87v3.4h0.514V18.039h0.5c0.269,0,.358.111,0.368,0.457,0,0.1,0,.2.006,0.288a2.64,2.64,0,0,0,.076.753l0.007,0.024h0.529Zm2.277-3.355H98.551l-1.081,3.4h0.555l0.235-.81H99.4l0.225,0.81h0.561Zm3.387,2.946h-1.154V16.163H100.86v3.4h1.662V19.11Zm1.053,0.418V16.163h-0.523v3.4h0.523V19.527Zm2.333-3.364h-0.586l-1.08,3.4H104.8l0.235-.81h1.143l0.224,0.81h0.56Zm-4.838,4.816c-3.9,0-6.31,2.414-6.31,6.31s2.414,6.309,6.312,6.309,6.292-2.415,6.291-6.311S104.967,20.979,101.07,20.979Zm12.273,2.712c0.945,0,1.578.349,1.588,1.282h3.7c-0.124-2.606-2.077-4-5.216-3.995-3.239,0-5.095,1.5-5.094,3.813a3.173,3.173,0,0,0,1.4,2.763,12.274,12.274,0,0,0,3.289,1.149c1.434,0.366,2.143.432,2.143,1.181,0,0.516-.523.866-1.468,0.866a1.532,1.532,0,0,1-1.816-1.449H108.1c0.119,2.775,2.155,4.3,5.412,4.3,3.542,0,5.433-1.516,5.432-4.113a3.092,3.092,0,0,0-1.552-2.8,12.514,12.514,0,0,0-3.477-1.132c-1.18-.3-1.8-0.416-1.8-1.048C112.112,23.958,112.517,23.692,113.343,23.691Zm16.464-2.4H119V24.44h3.492v8.824h3.9V24.439h3.425Zm-28.736,9.293c-1.652,0-2.379-1.05-2.379-3.3s0.725-3.3,2.378-3.3,2.362,1.049,2.362,3.3S102.723,30.585,101.071,30.586Zm4.539-13.751,0.429,1.457h-0.875Zm-6.772,0,0.428,1.457H98.393Zm-3.162.777H95.384V16.578h0.466a0.516,0.516,0,0,1,.373.119,0.481,0.481,0,0,1,.118.357C96.342,17.45,96.149,17.611,95.677,17.611Zm-10.941-.777,0.43,1.457H84.291Z"/>
</svg>
