<svg xmlns="http://www.w3.org/2000/svg" viewBox="0 0 187.13 24.271">
  <defs>
    <style>
      .cls-1 {
        opacity: 0.8;
      }

      .cls-2 {
        fill: #2971ff;
      }

      .cls-10, .cls-11, .cls-12, .cls-13, .cls-2, .cls-3, .cls-4, .cls-5, .cls-6, .cls-7, .cls-8 {
        fill-rule: evenodd;
      }

      .cls-3 {
        fill: #fff;
      }

      .cls-4 {
        fill: #d1a838;
      }

      .cls-5 {
        fill: #323232;
      }

      .cls-6 {
        fill: #141414;
      }

      .cls-7 {
        fill: #878888;
      }

      .cls-8 {
        fill: #373737;
      }

      .cls-14, .cls-9 {
        fill: #f89d2e;
      }

      .cls-10 {
        fill: #52c74f;
      }

      .cls-11 {
        fill: #8d8d8d;
      }

      .cls-12 {
        fill: #ff6602;
      }

      .cls-13 {
        fill: #4c4c4c;
      }

      .cls-14 {
        opacity: 0.802;
      }

      .cls-15 {
        fill: #6a5c4b;
      }
    </style>
  </defs>
  <g id="그룹_50" data-name="그룹 50" transform="translate(-87 -50)">
    <g id="Decred" class="cls-1" transform="translate(161.99 49.988)">
      <path id="_" data-name="#" class="cls-2" d="M871.986,335.981a9.976,9.976,0,1,1-10.007,9.976,9.976,9.976,0,0,1,10.007-9.976" transform="translate(-861.969 -335.969)"/>
      <path id="_2" data-name="#" class="cls-3" d="M872.961,344.993h-3.222a1.7,1.7,0,0,0-1.751,1.927,1.835,1.835,0,0,0,1.751,2.08h.947l2.243,1.977h-3.19a3.9,3.9,0,0,1-3.759-4.029,4.04,4.04,0,0,1,2.343-3.733L865.98,341h2.681Zm-1.951,1.982h3.222a1.7,1.7,0,0,0,1.751-1.926,1.835,1.835,0,0,0-1.751-2.083h-.947l-2.243-1.978h3.19a3.9,3.9,0,0,1,3.759,4.03,4.04,4.04,0,0,1-2.343,3.733l2.343,2.211H875.31Z" transform="translate(-861.969 -335.969)"/>
    </g>
    <g id="Dogecoin" class="cls-1" transform="translate(186.99 49.988)">
      <path id="_3" data-name="#" class="cls-4" d="M847.986,335.981a9.976,9.976,0,1,1-10.007,9.976,9.976,9.976,0,0,1,10.007-9.976" transform="translate(-837.969 -335.969)"/>
      <path id="_4" data-name="#" class="cls-3" d="M847.021,348.979l-.028-5.913h1.536a2.1,2.1,0,0,1,1.209,1.543,4.61,4.61,0,0,1-.372,3.584,1.844,1.844,0,0,1-1.148.786h-1.2m2.391-7.968h-6.42l-.007,2h1.029V349h-1.022v2.056h6.243a4.112,4.112,0,0,0,2.71-1.5,6.346,6.346,0,0,0,.628-5.779,4.577,4.577,0,0,0-3.161-2.761" transform="translate(-837.969 -335.969)"/>
    </g>
    <g id="Ethereum" class="cls-1" transform="translate(211.995 49.992)">
      <path id="_5" data-name="#" class="cls-5" d="M891.986,356.012h0m5.978-8.639L891.986,351v5.017l5.978-8.639" transform="translate(-886.031 -336.031)"/>
      <path id="_6" data-name="#" class="cls-5" d="M891.986,336.039v9.323l5.974.849h0l-5.974-10.172m0,0h0" transform="translate(-886.031 -336.031)"/>
      <path id="_7" data-name="#" class="cls-6" d="M891.986,349.834h0m0-6.41v6.41l5.974-3.623-5.974-2.787" transform="translate(-886.031 -336.031)"/>
      <path id="_8" data-name="#" class="cls-7" d="M892.014,356.012h0m-5.978-8.639L892.014,351v5.017l-5.978-8.639" transform="translate(-886.031 -336.031)"/>
      <path id="_9" data-name="#" class="cls-7" d="M892.014,336.039v9.323l-5.974.849h0l5.974-10.172m0,0h0" transform="translate(-886.031 -336.031)"/>
      <path id="_10" data-name="#" class="cls-8" d="M892.014,349.834h0m0-6.41v6.41l-5.974-3.623,5.974-2.787" transform="translate(-886.031 -336.031)"/>
    </g>
    <g id="Icon-1" class="cls-1" transform="translate(87 50.015)">
      <circle id="타원_3" data-name="타원 3" class="cls-9" cx="10.015" cy="10.015" r="10.015" transform="translate(0 -0.015)"/>
      <path id="패스_7" data-name="패스 7" class="cls-3" d="M804.018,299.519c.164-1.3-.851-1.976-2.226-2.409l.4-1.769-1.087-.24-.388,1.723c-.286-.063-.579-.122-.87-.181l.391-1.734-1.086-.241-.4,1.77c-.237-.048-.469-.1-.694-.144v-.006l-1.5-.332-.259,1.151s.806.162.79.174a.57.57,0,0,1,.518.61l-.454,2.017a.945.945,0,0,1,.113.032l-.115-.025-.637,2.825a.393.393,0,0,1-.489.266c.011.016-.79-.175-.79-.175l-.506,1.239,1.414.313c.264.059.522.12.775.178l-.4,1.79,1.086.241.4-1.772c.3.072.584.139.866.2l-.4,1.763,1.087.24.4-1.787c1.85.3,3.232.126,3.774-1.539a1.874,1.874,0,0,0-1.057-2.573,1.713,1.713,0,0,0,1.341-1.606h0Zm-2.383,3.492c-.3,1.338-2.577.674-3.314.512l.535-2.371c.737.163,3.093.464,2.779,1.859Zm.249-3.458c-.275,1.217-2.17.649-2.783.513l.485-2.151c.614.136,2.584.368,2.3,1.638Z" transform="translate(-790 -291)"/>
    </g>
    <g id="Icon" class="cls-1" transform="translate(112.011 50)">
      <path id="_11" data-name="#" class="cls-10" d="M819,292.336A10,10,0,1,1,815.329,306,10,10,0,0,1,819,292.336Z" transform="translate(-814 -291)"/>
      <path id="_12" data-name="#" class="cls-3" d="M827.085,297.717c-.51-1.211-1.725-1.287-3.132-.974l-.539-1.732-1.061.336.525,1.686c-.279.088-.563.184-.844.279l-.529-1.7-1.06.335.538,1.732c-.228.077-.452.152-.672.222h0l-1.464.462.351,1.126s.779-.263.771-.244a.57.57,0,0,1,.754.269l.615,1.974a.749.749,0,0,1,.114-.029l-.112.036.861,2.765a.394.394,0,0,1-.29.475c.017.008-.772.243-.772.243l.181,1.326,1.381-.436c.257-.081.512-.157.76-.233l.546,1.752,1.061-.335-.54-1.733c.292-.087.575-.173.85-.26l.537,1.725,1.061-.335-.546-1.749c1.752-.665,2.862-1.506,2.5-3.22a1.873,1.873,0,0,0-2.2-1.7,1.712,1.712,0,0,0,.358-2.061h0Zm-.318,4.215c.408,1.309-1.894,1.873-2.613,2.1l-.723-2.322C824.151,301.484,826.342,300.566,826.767,301.932Zm-1.513-3.119c.37,1.191-1.555,1.646-2.154,1.835l-.655-2.105c.6-.189,2.422-.973,2.809.27Z" transform="translate(-814 -291)"/>
    </g>
    <g id="Litecoin" transform="translate(229.01 50.01)">
      <path id="_13" data-name="#" class="cls-11" d="M834.06,345.994a10.035,10.035,0,1,1-10.035-10.035,10.035,10.035,0,0,1,10.035,10.035m-2.131,0" transform="translate(-814 -335.969)"/>
      <path id="_14" data-name="#" class="cls-3" d="M823.439,348.987l.651-2.392,1.544-.626.383-1.442-.017-.036-1.519.555,1.1-4.09h-2.917l-1.431,5.347-1.445.655-.4,1.487,1.444-.655-.843,3.17h8.26l.53-1.973H823.44" transform="translate(-814 -335.969)"/>
    </g>
    <g id="XMR" class="cls-1" transform="translate(136.996 49.992)">
      <path id="_15" data-name="#" class="cls-12" d="M799.989,335.979A10.016,10.016,0,0,0,789.973,346a9.08,9.08,0,0,0,.509,3.007h3.528v-7.9l5.979,6.136,6.01-6.136V349h3.5a9.1,9.1,0,0,0,.509-3.007,10.012,10.012,0,0,0-10.017-10.016h0Z" transform="translate(-789.969 -335.969)"/>
      <path id="_16" data-name="#" class="cls-13" d="M798.492,348.74l-2.5-2.467v4.74h-4.66a9.989,9.989,0,0,0,17.309,0h-4.629v-4.74l-2.529,2.467-1.5,1.5-1.5-1.5h0Z" transform="translate(-789.969 -335.969)"/>
    </g>
    <g id="그룹_51" data-name="그룹 51" transform="translate(-437.9 -830)">
      <circle id="타원_3-2" data-name="타원 3" class="cls-14" cx="10.015" cy="10.015" r="10.015" transform="translate(692 884)"/>
      <path id="패스_10" data-name="패스 10" class="cls-15" d="M1077.947,844.384l-9.989,15.32,6.086-.406,2.435-.2,3.391-4.668-5.037.37Z" transform="translate(-373 36)"/>
      <path id="패스_11" data-name="패스 11" class="cls-15" d="M1074.044,859.3l-2.768,6.785,5.343-7.443Z" transform="translate(-373 36)"/>
      <path id="패스_7-2" data-name="패스 7" class="cls-3" d="M804.018,299.519c.164-1.3-.851-1.976-2.226-2.409l.4-1.769-1.087-.24-.388,1.723c-.286-.063-.579-.122-.87-.181l.391-1.734-1.086-.241-.4,1.77c-.237-.048-.469-.1-.694-.144v-.006l-1.5-.332-.259,1.151s.806.162.79.174a.57.57,0,0,1,.518.61l-.454,2.017a.945.945,0,0,1,.113.032l-.115-.025-.637,2.825a.393.393,0,0,1-.489.266c.011.016-.79-.175-.79-.175l-.506,1.239,1.414.313c.264.059.522.12.775.178l-.4,1.79,1.086.241.4-1.772c.3.072.584.139.866.2l-.4,1.763,1.087.24.4-1.787c1.85.3,3.232.126,3.774-1.539a1.874,1.874,0,0,0-1.057-2.573,1.713,1.713,0,0,0,1.341-1.606h0Zm-2.383,3.492c-.3,1.338-2.577.674-3.314.512l.535-2.371c.737.163,3.093.464,2.779,1.859Zm.249-3.458c-.275,1.217-2.17.649-2.783.513l.485-2.151c.614.136,2.584.368,2.3,1.638Z" transform="translate(-98 593.015)"/>
      <path id="패스_12" data-name="패스 12" class="cls-15" d="M1074.011,859.1l-3.981,9.175,6.34-9.175Z" transform="translate(-373 36)"/>
    </g>
  </g>
</svg>
