<svg xmlns="http://www.w3.org/2000/svg" width="200" height="200" viewBox="0 0 200 200">
  <polygon class="icon" points="0,8 7,0 11,4 18,0 11,8 6,4" fill="#60a84e"/>
  <polygon points="1.5,33 8,26.5 1.5,20 0,21.5 5,26.25 0,31.5" fill="#9099a6" />
  <polygon points="10,26.5 16.5,33 18,31.5 13,26.5 18,21.5 16.5,20" fill="#9099a6" />
  <polygon points="1.5,53 8,46.5 1.5,40 0,41.5 5,46.25 0,51.5" fill="#ffffff" />
  <polygon points="10,46.5 16.5,53 18,51.5 13,46.5 18,41.5 16.5,40" fill="#ffffff" />
  <polygon points="80,1.5 86.5,8 93,1.5 91.5,0 86.5,5 81.5,0" fill="#9099a6" />
  <path fill="#318cde" style="transform:translate(80px,10px);" d="M7.5,5H6V4H7.5a1.5,1.5,0,0,0,0-3H6V0H7.5A2.5,2.5,0,1,1,7.5,5ZM3,2.5A0.5,0.5,0,0,1,3.5,2h3a0.5,0.5,0,1,1,0,1h-3A0.5,0.5,0,0,1,3,2.5Zm-2,0A1.5,1.5,0,0,0,2.5,4H4V5H2.5a2.5,2.5,0,1,1,0-5H4V1H2.5A1.5,1.5,0,0,0,1,2.5Z"/>
  <g id="location" style="transform:translateX(100px) scale(0.9)">
	<path fill-rule="evenodd" clip-rule="evenodd" fill="#9099a6" d="M16,0C9.382,0,4,5.316,4,12.001c0,7,6.001,14.161,10.376,19.194   C14.392,31.215,15.094,32,15.962,32c0.002,0,0.073,0,0.077,0c0.867,0,1.57-0.785,1.586-0.805   c4.377-5.033,10.377-12.193,10.377-19.194C28.002,5.316,22.619,0,16,0z M16.117,29.883c-0.021,0.02-0.082,0.064-0.135,0.098 M16.002,17.746c3.309,0,6-2.692,6-6s-2.691-6-6-6   c-3.309,0-6,2.691-6,6S12.693,17.746,16.002,17.746z " stroke-width="0" />
  </g>
  <g style="transform:translateX(20px) scale(0.9)">
	<path fill-rule="evenodd"  stroke="rgb(33, 132, 220)" stroke-width="2px" stroke-linecap="butt" stroke-linejoin="miter" opacity="0.302" fill="none" d="M29.000,1.000 C44.464,1.000 57.000,13.536 57.000,29.000 C57.000,44.464 44.464,57.000 29.000,57.000 C13.536,57.000 1.000,44.464 1.000,29.000 C1.000,13.536 13.536,1.000 29.000,1.000 Z"/>
	<path fill-rule="evenodd"  fill="rgb(33, 132, 220)" d="M38.000,24.000 L38.000,25.000 L37.000,25.000 L37.000,26.000 L36.000,26.000 L36.000,27.000 L35.000,27.000 L35.000,28.000 L34.000,28.000 L34.000,29.000 L33.000,29.000 L33.000,30.000 L32.000,30.000 L32.000,31.000 L31.000,31.000 L31.000,32.000 L30.000,32.000 L30.000,33.000 L29.000,33.000 L29.000,34.000 L28.000,34.000 L28.000,35.000 L27.000,35.000 L27.000,36.000 L26.000,36.000 L26.000,37.000 L25.000,37.000 L25.000,36.000 L24.000,36.000 L24.000,35.000 L23.000,35.000 L23.000,34.000 L22.000,34.000 L22.000,33.000 L21.000,33.000 L21.000,32.000 L20.000,32.000 L20.000,31.000 L19.000,31.000 L19.000,29.000 L20.000,29.000 L20.000,28.000 L21.000,28.000 L21.000,29.000 L22.000,29.000 L22.000,30.000 L23.000,30.000 L23.000,31.000 L24.000,31.000 L24.000,32.000 L25.000,32.000 L25.000,33.000 L26.000,33.000 L26.000,32.000 L27.000,32.000 L27.000,31.000 L28.000,31.000 L28.000,30.000 L29.000,30.000 L29.000,29.000 L30.000,29.000 L30.000,28.000 L31.000,28.000 L31.000,27.000 L32.000,27.000 L32.000,26.000 L33.000,26.000 L33.000,25.000 L34.000,25.000 L34.000,24.000 L35.000,24.000 L35.000,23.000 L36.000,23.000 L36.000,22.000 L37.000,22.000 L37.000,21.000 L38.000,21.000 L38.000,22.000 L39.000,22.000 L39.000,24.000 L38.000,24.000 Z"/>
  </g>
</svg>
