<svg xmlns="http://www.w3.org/2000/svg" xmlns:xlink="http://www.w3.org/1999/xlink" width="290" height="444" viewBox="0 0 290 444">
  <defs>
    <style>
      .cls-1 {
        fill: #90c2f7;
      }

      .cls-1, .cls-10, .cls-11, .cls-12, .cls-13, .cls-14, .cls-15, .cls-16, .cls-2, .cls-3, .cls-4, .cls-5, .cls-6, .cls-7, .cls-8, .cls-9 {
        fill-rule: evenodd;
      }

      .cls-2 {
        fill: #5facf6;
      }

      .cls-3 {
        fill: #83b9f4;
      }

      .cls-4 {
        fill: #3872c3;
      }

      .cls-5 {
        fill: #459cd2;
      }

      .cls-6 {
        fill: #558fde;
      }

      .cls-7, .cls-9 {
        fill: #fff;
      }

      .cls-7 {
        filter: url(#filter);
      }

      .cls-8 {
        fill: #edeef2;
      }

      .cls-10 {
        fill: #1b416a;
      }

      .cls-11 {
        fill: #d34a27;
      }

      .cls-12 {
        fill: #ed532e;
      }

      .cls-13 {
        fill: #f69f35;
      }

      .cls-14 {
        fill: #e9ebf2;
      }

      .cls-15 {
        fill: #68bf7e;
      }

      .cls-16 {
        fill: #f6f7f9;
      }
    </style>
    <filter id="filter" x="8" y="-3" width="265" height="452" filterUnits="userSpaceOnUse">
      <feOffset result="offset" in="SourceAlpha"/>
      <feGaussianBlur result="blur" stdDeviation="4.583"/>
      <feFlood result="flood" flood-color="#1b233e" flood-opacity="0.15"/>
      <feComposite result="composite" operator="in" in2="blur"/>
      <feGaussianBlur result="blur-2" stdDeviation="1.333" in="SourceAlpha"/>
      <feComposite result="composite-2"/>
      <feComposite result="composite-3"/>
      <feComposite result="composite-4"/>
      <feFlood result="flood-2" flood-opacity="0.04"/>
      <feComposite result="composite-5" operator="in" in2="composite-4"/>
      <feBlend result="blend" in2="composite"/>
      <feBlend result="blend-2" in="SourceGraphic"/>
      <feGaussianBlur result="blur-3" stdDeviation="3.162" in="SourceAlpha"/>
      <feFlood result="flood-3" flood-opacity="0.04"/>
      <feComposite result="composite-6" operator="out" in2="blur-3"/>
      <feOffset result="offset-2" dx="-1.545" dy="-4.755"/>
      <feComposite result="composite-7" operator="in" in2="SourceAlpha"/>
      <feBlend result="blend-3" mode="multiply" in2="blend-2"/>
    </filter>
  </defs>
  <path id="_" data-name="#" class="cls-1" d="M182.947,284.854a9.134,9.134,0,0,1-8.707,9.541L19.132,301.481a9.134,9.134,0,0,1-9.541-8.707L7.966,257.19l173.356-7.92Z"/>
  <path id="_2" data-name="#" class="cls-2" d="M7.966,257.19L0.463,92.958A9.133,9.133,0,0,1,9.17,83.417l155.108-7.086a9.133,9.133,0,0,1,9.541,8.707l7.5,164.232Z"/>
  <path id="_3" data-name="#" class="cls-3" d="M95.064,275.764L22.072,279.1a1.826,1.826,0,0,1-1.908-1.741l-0.347-7.6a1.827,1.827,0,0,1,1.742-1.909l72.992-3.334a1.826,1.826,0,0,1,1.908,1.741l0.347,7.6A1.827,1.827,0,0,1,95.064,275.764Zm-72.756,8.5L78.573,281.7a1.827,1.827,0,0,1,1.908,1.742l0.083,1.824a1.826,1.826,0,0,1-1.741,1.908l-56.265,2.571A1.827,1.827,0,0,1,20.65,288l-0.083-1.825A1.826,1.826,0,0,1,22.308,284.269Z"/>
  <path id="_4" data-name="#" class="cls-1" d="M289.886,255.283a8.652,8.652,0,0,1-8.336,8.956l-146.984,5.268a8.651,8.651,0,0,1-8.956-8.337L124.4,227.451l164.277-5.888Z"/>
  <path id="_5" data-name="#" class="cls-4" d="M124.4,227.451L118.824,71.82a8.652,8.652,0,0,1,8.336-8.956L274.144,57.6a8.652,8.652,0,0,1,8.956,8.336l5.578,155.63Z"/>
  <path id="_6" data-name="#" class="cls-5" d="M254.033,233.194l13.834-.5a10.526,10.526,0,1,1,.753,21.039l-13.833.5A10.526,10.526,0,1,1,254.033,233.194Z"/>
  <path id="_7" data-name="#" class="cls-6" d="M89.988,294.337l19-154.567a8.651,8.651,0,0,1,9.642-7.532l145.98,17.944a8.652,8.652,0,0,1,7.532,9.643l-19,154.567Z"/>
  <path id="_8" data-name="#" class="cls-1" d="M89.988,294.337l163.154,20.055-4.116,33.489a8.652,8.652,0,0,1-9.643,7.532L93.4,337.469a8.652,8.652,0,0,1-7.531-9.643Zm0,0h0Zm163.154,20.055h0Z"/>
  <path id="_9" data-name="#" class="cls-7" d="M80.356,17.293l143.17,8.5A30.078,30.078,0,0,1,251.771,57.6l-20.25,341.126a30.078,30.078,0,0,1-31.81,28.241l-143.17-8.5A30.078,30.078,0,0,1,28.3,386.66L48.547,45.534A30.078,30.078,0,0,1,80.356,17.293Z"/>
  <path id="_10" data-name="#" class="cls-8" d="M59.35,61.345L239.393,72.033a1.476,1.476,0,0,1,1.386,1.561l-18,303.263a1.476,1.476,0,0,1-1.56,1.386L41.173,367.554a1.476,1.476,0,0,1-1.386-1.561l18-303.262A1.476,1.476,0,0,1,59.35,61.345Z"/>
  <path id="_11" data-name="#" class="cls-9" d="M216.73,322.8a8.63,8.63,0,0,1-9.146,8.081L61.153,321.838a8.63,8.63,0,0,1-8.081-9.146L55.147,279.1l163.658,10.11Z"/>
  <path id="_12" data-name="#" class="cls-10" d="M55.147,279.1l9.578-155.044a8.631,8.631,0,0,1,9.146-8.082L220.3,125.019a8.63,8.63,0,0,1,8.081,9.146l-9.577,155.044Z"/>
  <path id="_13" data-name="#" class="cls-11" d="M101.329,211.253l79.62,5.368a6.009,6.009,0,0,1,5.589,6.4l-1.818,26.968a6.007,6.007,0,0,1-6.4,5.59L98.7,250.208a6.01,6.01,0,0,1-5.588-6.4l1.818-26.968a6.01,6.01,0,0,1,6.4-5.589h0Z"/>
  <path id="_14" data-name="#" class="cls-12" d="M123.657,160.73l41.949,2.828a18.021,18.021,0,0,1,16.766,19.19l-7.045,72.623a6.008,6.008,0,0,1-6.4,5.59l-61.64-4.155a6.007,6.007,0,0,1-5.59-6.4l2.765-72.912a18.022,18.022,0,0,1,19.192-16.766h0Zm0,0"/>
  <path id="_15" data-name="#" class="cls-11" d="M114.667,160.124l59.929,4.04a12.012,12.012,0,0,1,11.176,12.792l-0.808,11.986a12.013,12.013,0,0,1-12.792,11.177l-59.929-4.04a12.012,12.012,0,0,1-11.178-12.792l0.808-11.987a12.013,12.013,0,0,1,12.794-11.176h0Zm0,0"/>
  <path id="_16" data-name="#" class="cls-13" d="M162.788,224.425l2.572,0.174-0.538,7.983-14.982-1.01,0.538-7.983,3.421,0.231,5.814-60.666,8.989,0.606ZM145.035,156.15c-4.962-.334-9.171,2.079-9.394,5.388l-5.992-.4c0.446-6.619,7.514-11.534,15.79-10.976s14.621,6.377,14.174,13l-5.994-.4C153.842,159.441,150,156.485,145.035,156.15Zm-14.347,66.112-0.538,7.982-14.982-1.01,0.538-7.982,2.573,0.173,2.38-60.9,8.99,0.606-2.38,60.9Zm-3.788,9.205-0.218,5.575s-2.588,5.847-4.806,5.7c-2.278-.154-4.184-6.3-4.184-6.3l0.218-5.575Zm34.987,2.359-0.533,5.553s-2.587,5.847-4.8,5.7c-2.279-.153-4.184-6.3-4.184-6.3l0.532-5.553Z"/>
  <path id="_17" data-name="#" class="cls-14" d="M136.918,303.749a1.725,1.725,0,0,1-1.829,1.616l-68.908-4.256a1.726,1.726,0,0,1-1.616-1.829l0.444-7.178a1.727,1.727,0,0,1,1.829-1.617l68.908,4.257a1.727,1.727,0,0,1,1.617,1.829ZM65.879,305.99L119,309.271a1.726,1.726,0,0,1,1.616,1.829l-0.106,1.723a1.726,1.726,0,0,1-1.829,1.616L65.56,311.158a1.726,1.726,0,0,1-1.616-1.829l0.106-1.723A1.726,1.726,0,0,1,65.879,305.99Z"/>
  <path id="_18" data-name="#" class="cls-15" d="M183.281,297.39l13.782,0.852a10.5,10.5,0,0,1-1.295,20.959l-13.782-.851A10.5,10.5,0,0,1,183.281,297.39Z"/>
  <path id="_19" data-name="#" class="cls-16" d="M231.494,106.471a8.63,8.63,0,0,1-9.145,8.082L75.918,105.507a8.63,8.63,0,0,1-8.082-9.146l2.124-34.387,163.682,9.717ZM214.6,349.476l-1.747,28.269L49.169,368.029l1.771-28.663a8.63,8.63,0,0,1,9.146-8.081l146.431,9.045A8.631,8.631,0,0,1,214.6,349.476Z"/>
</svg>
