<svg xmlns="http://www.w3.org/2000/svg" width="118" height="201" viewBox="0 0 118 201">
  <metadata><?xpacket begin="﻿" id="W5M0MpCehiHzreSzNTczkc9d"?>
<x:xmpmeta xmlns:x="adobe:ns:meta/" x:xmptk="Adobe XMP Core 5.6-c140 79.160451, 2017/05/06-01:08:21        ">
   <rdf:RDF xmlns:rdf="http://www.w3.org/1999/02/22-rdf-syntax-ns#">
      <rdf:Description rdf:about=""/>
   </rdf:RDF>
</x:xmpmeta>
                                                                                                    
                                                                                                    
                                                                                                    
                                                                                                    
                                                                                                    
                                                                                                    
                                                                                                    
                                                                                                    
                                                                                                    
                                                                                                    
                                                                                                    
                                                                                                    
                                                                                                    
                                                                                                    
                                                                                                    
                                                                                                    
                                                                                                    
                                                                                                    
                                                                                                    
                                                                                                    
                           
<?xpacket end="w"?></metadata>
<defs>
    <style>
      .cls-1 {
        fill: #c8ccd3;
        fill-rule: evenodd;
      }
    </style>
  </defs>
  <path class="cls-1" d="M683.666,508.494a8.652,8.652,0,0,1-3.389.686h-4.315v3h4.315a11.631,11.631,0,0,0,4.556-.922l-1.167-2.766h0Zm-11.3.686h-8.4v3h8.4v-3h0Zm-12,0h-8.4v3h8.4v-3h0Zm-12,0h-4.521v6.882h3v-3.88h1.521v-3h0Zm-4.521,10.486v8.408h3v-8.408h-3Zm0,12.012v8.408h3v-8.408h-3Zm0,12.011V552.1h3v-8.408h-3ZM643.4,555.22a10.916,10.916,0,0,1-4.257,5.863l1.7,2.471a13.935,13.935,0,0,0,5.431-7.477l-2.876-.857h0Zm-7.081,7.257a10.869,10.869,0,0,1-7.229-.211l-1.083,2.8a13.85,13.85,0,0,0,9.229.267l-0.917-2.858h0Zm-9.969-1.766a10.917,10.917,0,0,1-3.913-6.1l-2.918.688a13.918,13.918,0,0,0,4.988,7.779l1.843-2.37h0Zm-4.2-9.329v-8.409h-3v8.409h3Zm0-12.012v-8.408h-3v8.408h3Zm0-12.012V518.95h-3v8.408h3Zm0-12.011V509.18h-5.239v3h2.239v3.165h3Zm-8.837-6.167h-8.4v3h8.4v-3h0Zm-12,0h-8.4v3h8.4v-3h0Zm-12,0h-3.6a8.622,8.622,0,0,1-3.942-.944l-1.36,2.677a11.635,11.635,0,0,0,5.3,1.269h3.6v-3h0Zm-9.982-2.786A8.718,8.718,0,0,1,577,500.43v-0.718h-3v0.718a11.743,11.743,0,0,0,3.146,8.012l2.194-2.048h0ZM577,496.108V487.7h-3v8.408h3Zm0-12.011v-8.409h-3V484.1h3Zm0-12.012v-8.408h-3v8.408h3Zm0-12.012v-8.408h-3v8.408h3Zm0-12.011v-8.409h-3v8.409h3Zm0-12.012v-8.408h-3v8.408h3Zm0-12.007a56.554,56.554,0,0,1,.6-8.158l-2.968-.438a60.1,60.1,0,0,0-.636,8.591l3,0h0Zm1.222-11.61a55.812,55.812,0,0,1,2.278-7.861l-2.81-1.045a58.845,58.845,0,0,0-2.4,8.282l2.933,0.624h0Zm3.6-11.113a56.118,56.118,0,0,1,3.86-7.212l-2.532-1.607a59.028,59.028,0,0,0-4.069,7.6l2.741,1.221h0Zm5.829-10.117a56.33,56.33,0,0,1,5.263-6.258l-2.147-2.095a59.235,59.235,0,0,0-5.545,6.59l2.429,1.763h0Zm7.786-8.695a56.4,56.4,0,0,1,6.432-5.038l-1.669-2.494a59.152,59.152,0,0,0-6.777,5.308l2.014,2.224h0Zm9.4-6.9a55.8,55.8,0,0,1,7.331-3.593l-1.118-2.786a58.721,58.721,0,0,0-7.724,3.786l1.511,2.593h0Zm10.62-4.8a55.456,55.456,0,0,1,7.922-1.984l-0.512-2.959a58.6,58.6,0,0,0-8.35,2.093l0.94,2.85h0Zm11.389-2.474a56.793,56.793,0,0,1,6.151-.334q1.012,0,2.013.034l0.106-3Q634.066,365,633,365a59.491,59.491,0,0,0-6.477.354l0.326,2.984h0Zm11.661-.067a55.836,55.836,0,0,1,8.048,1.39l0.725-2.915a59.036,59.036,0,0,0-8.481-1.464l-0.292,2.989h0Zm11.416,2.343a55.58,55.58,0,0,1,7.588,3.041l1.316-2.7a58.964,58.964,0,0,0-8-3.2l-0.908,2.863h0Zm10.687,4.681a55.639,55.639,0,0,1,6.789,4.552l1.847-2.368a59,59,0,0,0-7.152-4.794l-1.484,2.61h0Zm9.485,6.8a56.349,56.349,0,0,1,5.705,5.857l2.293-1.937a59.424,59.424,0,0,0-6.01-6.167l-1.988,2.247h0Zm7.879,8.606a56.2,56.2,0,0,1,4.375,6.9L685,396.179a59.064,59.064,0,0,0-4.612-7.272l-2.407,1.791h0Zm5.934,10.04a55.479,55.479,0,0,1,2.854,7.663l2.879-.842a58.9,58.9,0,0,0-3.008-8.074l-2.725,1.253h0ZM687.64,411.8a56.46,56.46,0,0,1,1.2,8.091l2.99-.225a59.105,59.105,0,0,0-1.266-8.522l-2.926.656h0Zm1.356,11.6c0,0.258,0,.513,0,0.77,0,0.426-.022.884-0.034,1.387l0,0.072,0,0.067c0.018,0.252.032,0.453,0.032,0.612v5.478h3V426.3c0-.325-0.024-0.6-0.039-0.818l-1.5.1,1.5,0.035c0.01-.446.037-0.929,0.037-1.459q0-.4,0-0.81l-3,.04h0Zm0,11.989v8.409h3v-8.409h-3Zm0,12.012V455.8h3v-8.408h-3Zm0,12.012v8.408h3v-8.408h-3Zm0,12.011v8.408h3v-8.408h-3Zm0,12.012v8.408h3v-8.408h-3Zm0,12.012v4.99a8.731,8.731,0,0,1-2.772,6.4l2.048,2.194A11.756,11.756,0,0,0,692,500.43v-4.99h-3Zm-76.263-69.42a1.746,1.746,0,1,1,3.087,1.634,10.71,10.71,0,0,1-5.456,4.5,10.506,10.506,0,0,1-7.192.555,1.751,1.751,0,0,1,1.16-3.3,7.174,7.174,0,0,0,4.713-.5,7.373,7.373,0,0,0,3.688-2.892m0.272,12.073a9.009,9.009,0,1,1-9,9.01,9,9,0,0,1,9-9.01h0Zm40.254-12.073a1.746,1.746,0,1,0-3.087,1.634,10.706,10.706,0,0,0,5.456,4.5,10.506,10.506,0,0,0,7.192.555,1.751,1.751,0,0,0-1.16-3.3,7.177,7.177,0,0,1-4.714-.5,7.37,7.37,0,0,1-3.687-2.892m-0.272,12.073a9.009,9.009,0,1,1-9,9.01,9,9,0,0,1,9-9.01h0ZM614.382,481.2a2.616,2.616,0,0,1-3.735-.334,2.747,2.747,0,0,1,.324-3.812c4.9-4.2,12.868-6.932,21.868-6.932,9.252,0,17.416,2.888,22.269,7.286a2.748,2.748,0,0,1,.225,3.822,2.617,2.617,0,0,1-3.745.228c-4.028-3.651-11.213-5.922-18.749-5.922-7.424,0-14.322,2.115-18.457,5.664" transform="translate(-574 -365)"/>
</svg>
