<svg width="100" height="100" viewBox="0 0 100 100" fill="none" xmlns="http://www.w3.org/2000/svg">
	<!-- g><g clip-path="url(#clip0)"><path d="M30 30.5047H13.465C12.8744 30.5047 12.3029 30.3076 11.8517 29.9481C11.4006 29.5887 11.0988 29.0901 11 28.5409L6.605 4.16978C6.50583 3.6208 6.20393 3.12263 5.75278 2.76349C5.30162 2.40435 4.73031 2.2074 4.14 2.20752H2.5" stroke="#3F434B" stroke-width="1.65" stroke-linecap="round" stroke-linejoin="round"/>
	<path d="M14.375 34.0424C14.2514 34.0424 14.1305 34.077 14.0278 34.1418C13.925 34.2066 13.8449 34.2987 13.7976 34.4064C13.7503 34.5141 13.7379 34.6327 13.762 34.7471C13.7861 34.8614 13.8456 34.9665 13.9331 35.049C14.0205 35.1314 14.1318 35.1876 14.2531 35.2103C14.3743 35.2331 14.5 35.2214 14.6142 35.1768C14.7284 35.1322 14.826 35.0566 14.8947 34.9596C14.9633 34.8627 15 34.7487 15 34.632C15 34.4757 14.9342 34.3257 14.8169 34.2151C14.6997 34.1045 14.5408 34.0424 14.375 34.0424" stroke="#3F434B" stroke-width="1.65" stroke-linecap="round" stroke-linejoin="round"/>
	<path d="M27.2915 34.0417C27.1679 34.0417 27.0471 34.0763 26.9443 34.1411C26.8415 34.2059 26.7614 34.298 26.7141 34.4057C26.6668 34.5134 26.6544 34.632 26.6785 34.7464C26.7026 34.8607 26.7622 34.9658 26.8496 35.0483C26.937 35.1307 27.0483 35.1869 27.1696 35.2096C27.2908 35.2324 27.4165 35.2207 27.5307 35.1761C27.6449 35.1315 27.7425 35.0559 27.8112 34.9589C27.8798 34.862 27.9165 34.748 27.9165 34.6313C27.9165 34.475 27.8507 34.325 27.7334 34.2144C27.6162 34.1038 27.4573 34.0417 27.2915 34.0417" stroke="#3F434B" stroke-width="1.65" stroke-linecap="round" stroke-linejoin="round"/>
	<path d="M29.9999 30.5C30.9999 30.5 32.6826 30.1486 33.4999 29.2075C34.3173 28.2665 35.0416 26.4549 35.2932 24.9714L37.5409 11.7126C37.5838 11.4597 37.5871 11.1958 37.5504 10.9408C37.5137 10.6858 37.4381 10.4465 37.3293 10.2411C37.2205 10.0357 37.0814 9.86959 36.9225 9.75538C36.7636 9.64117 36.5892 9.58189 36.4124 9.58203L8.12492 9.58203" stroke="#3F434B" stroke-width="1.65" stroke-linecap="round" stroke-linejoin="round"/></g>
	<defs><clipPath id="clip0"><rect width="40" height="37.7359" fill="white" transform="matrix(-1 0 0 1 40 0.43396)"/></clipPath></defs></g>
	<g style="transform: translate(40px, 0);"><path d="M9.53345 12.7493C9.53345 14.4924 10.2674 16.1641 11.5739 17.3967C12.8804 18.6292 14.6524 19.3217 16.5001 19.3217C18.3478 19.3217 20.1198 18.6292 21.4263 17.3967C22.7328 16.1641 23.4668 14.4924 23.4668 12.7493C23.4668 11.0062 22.7328 9.33454 21.4263 8.10199C20.1198 6.86944 18.3478 6.177 16.5001 6.177C14.6524 6.177 12.8804 6.86944 11.5739 8.10199C10.2674 9.33454 9.53345 11.0062 9.53345 12.7493V12.7493Z" stroke="#3F434B" stroke-width="1.65" stroke-linecap="round" stroke-linejoin="round"/><path d="M25.6735 26.6777C24.4716 25.5366 23.0423 24.6311 21.468 24.0131C19.8936 23.3952 18.2053 23.0771 16.5001 23.0771C14.7949 23.0771 13.1066 23.3952 11.5322 24.0131C9.9579 24.6311 8.52862 25.5366 7.32666 26.6777" stroke="#3F434B" stroke-width="1.65" stroke-linecap="round" stroke-linejoin="round"/><path d="M1.57153 15.566C1.57153 19.3012 3.14436 22.8834 5.94401 25.5246C8.74366 28.1658 12.5408 29.6496 16.5001 29.6496C20.4594 29.6496 24.2566 28.1658 27.0562 25.5246C29.8559 22.8834 31.4287 19.3012 31.4287 15.566C31.4287 11.8309 29.8559 8.24864 27.0562 5.60746C24.2566 2.96628 20.4594 1.48248 16.5001 1.48248C12.5408 1.48248 8.74366 2.96628 5.94401 5.60746C3.14436 8.24864 1.57153 11.8309 1.57153 15.566V15.566Z" stroke="#3F434B" stroke-width="1.65" stroke-linecap="round" stroke-linejoin="round"/></g>
	<g style="transform: translate(75px, 0)"><path d="M4.41687 15.4227C5.38938 17.5815 7.2311 19.2874 9.53686 20.1652C11.8426 21.043 14.4235 21.0206 16.7119 20.1032C19.0002 19.1857 20.8085 17.4482 21.7389 15.273C22.6693 13.0978 22.6456 10.6629 21.6731 8.50412C20.7006 6.34532 18.8589 4.63941 16.5531 3.76165C14.2474 2.8839 11.6665 2.90621 9.37813 3.82368C7.08981 4.74115 5.28154 6.47861 4.35112 8.65386C3.42071 10.8291 3.44436 13.2639 4.41687 15.4227V15.4227Z" stroke="#C4C4C4" stroke-width="1.5" stroke-linecap="round" stroke-linejoin="round"/><path d="M20.2764 19.3349L29.0626 27.625" stroke="#C4C4C4" stroke-width="1.5" stroke-linecap="round" stroke-linejoin="round"/></g -->
	<g><g><path d="M1.875 15.0025H18.125" stroke="#3F434B" stroke-linecap="round" stroke-linejoin="round"/><path d="M1.875 10.0025H18.125" stroke="#3F434B" stroke-linecap="round" stroke-linejoin="round"/><path d="M1.875 5.0025H18.125" stroke="#3F434B" stroke-linecap="round" stroke-linejoin="round"/></g>
	<g style="transform: translate(25px, 0);"><path d="M6.1875 8.9375C6.1875 10.2139 6.69453 11.4379 7.59705 12.3405C8.49957 13.243 9.72365 13.75 11 13.75C12.2764 13.75 13.5004 13.243 14.403 12.3405C15.3055 11.4379 15.8125 10.2139 15.8125 8.9375C15.8125 7.66115 15.3055 6.43707 14.403 5.53455C13.5004 4.63203 12.2764 4.125 11 4.125C9.72365 4.125 8.49957 4.63203 7.59705 5.53455C6.69453 6.43707 6.1875 7.66115 6.1875 8.9375V8.9375Z" stroke="#3F434B" stroke-linecap="round" stroke-linejoin="round"/><path d="M17.3369 19.1363C16.5066 18.3008 15.5193 17.6378 14.4317 17.1853C13.3442 16.7328 12.1779 16.4999 11 16.4999C9.82209 16.4999 8.6558 16.7328 7.56826 17.1853C6.48072 17.6378 5.49339 18.3008 4.66309 19.1363" stroke="#3F434B" stroke-linecap="round" stroke-linejoin="round"/><path d="M0.6875 11C0.6875 13.735 1.77399 16.3581 3.70796 18.292C5.64193 20.226 8.26496 21.3125 11 21.3125C13.735 21.3125 16.3581 20.226 18.292 18.292C20.226 16.3581 21.3125 13.735 21.3125 11C21.3125 8.26496 20.226 5.64193 18.292 3.70796C16.3581 1.77399 13.735 0.6875 11 0.6875C8.26496 0.6875 5.64193 1.77399 3.70796 3.70796C1.77399 5.64193 0.6875 8.26496 0.6875 11V11Z" stroke="#3F434B" stroke-linecap="round" stroke-linejoin="round"/></g>
	<g style="transform: translate(50px, 0);"><g clip-path="url(#clip0)"><path d="M1.10406 10.0177C1.80917 11.6769 3.14449 12.9879 4.81626 13.6625C6.48803 14.3371 8.3593 14.32 10.0184 13.6149C11.6776 12.9097 12.9886 11.5744 13.6632 9.90265C14.3378 8.23088 14.3207 6.35961 13.6155 4.70048C12.9104 3.04136 11.5751 1.73029 9.90335 1.0557C8.23158 0.381108 6.3603 0.398255 4.70118 1.10337C3.04205 1.80848 1.73098 3.1438 1.05639 4.81556C0.381803 6.48733 0.39895 8.35861 1.10406 10.0177V10.0177Z" stroke="#cacaca" stroke-linecap="round" stroke-linejoin="round"/><path d="M12.1658 12.165L17.4375 17.4375" stroke="#cacaca" stroke-linecap="round" stroke-linejoin="round"/></g><defs><clipPath id="clip0"><rect width="18" height="18" fill="white"/></clipPath></defs></g>
	<g style="transform: translate(75px, 0);"><path d="M16.5 17.2776H7.40575C7.08095 17.2776 6.76662 17.1643 6.51846 16.9578C6.27031 16.7513 6.10435 16.4648 6.05 16.1492L3.63275 2.14649C3.5782 1.83106 3.41216 1.54484 3.16403 1.33849C2.91589 1.13213 2.60167 1.01897 2.277 1.01904H1.375" stroke="#3F434B" stroke-linecap="round" stroke-linejoin="round"/><path d="M7.90625 19.3102C7.83826 19.3102 7.7718 19.3301 7.71527 19.3673C7.65874 19.4044 7.61468 19.4573 7.58867 19.5191C7.56265 19.5809 7.55584 19.649 7.56911 19.7146C7.58237 19.7803 7.61511 19.8405 7.66318 19.8879C7.71126 19.9352 7.77251 19.9674 7.83919 19.9805C7.90587 19.9935 7.97499 19.9868 8.0378 19.9612C8.10061 19.9356 8.1543 19.8922 8.19207 19.8366C8.22984 19.781 8.25 19.7155 8.25 19.6486C8.25 19.5589 8.21378 19.4728 8.14932 19.4093C8.08485 19.3459 7.99742 19.3102 7.90625 19.3102" stroke="#3F434B" stroke-linecap="round" stroke-linejoin="round"/><path d="M15.0104 19.3098C14.9424 19.3098 14.8759 19.3297 14.8194 19.3669C14.7629 19.404 14.7188 19.4569 14.6928 19.5187C14.6668 19.5806 14.66 19.6486 14.6732 19.7142C14.6865 19.7799 14.7192 19.8402 14.7673 19.8875C14.8154 19.9348 14.8766 19.967 14.9433 19.9801C15.01 19.9931 15.0791 19.9864 15.1419 19.9608C15.2047 19.9352 15.2584 19.8918 15.2962 19.8362C15.334 19.7806 15.3541 19.7151 15.3541 19.6482C15.3541 19.5585 15.3179 19.4724 15.2534 19.409C15.189 19.3455 15.1015 19.3098 15.0104 19.3098" stroke="#3F434B" stroke-linecap="round" stroke-linejoin="round"/><path d="M16.5 17.2749C17.05 17.2749 17.9754 17.073 18.425 16.5323C18.8745 15.9916 19.2729 14.9507 19.4113 14.0984L20.6475 6.48031C20.6711 6.33502 20.6729 6.18337 20.6527 6.03687C20.6325 5.89037 20.591 5.75288 20.5311 5.63486C20.4713 5.51683 20.3947 5.42138 20.3074 5.35576C20.22 5.29014 20.124 5.25608 20.0268 5.25616H5.33329" stroke="#3F434B" stroke-linecap="round" stroke-linejoin="round"/></g></g>
	<g style="transform: translate(0, 25px)"><g><path d="M1.875 15.0025H18.125" stroke="#2581E3" stroke-linecap="round" stroke-linejoin="round"/><path d="M1.875 10.0025H18.125" stroke="#2581E3" stroke-linecap="round" stroke-linejoin="round"/><path d="M1.875 5.0025H18.125" stroke="#2581E3" stroke-linecap="round" stroke-linejoin="round"/></g>
	<g style="transform: translate(25px, 0);"><path d="M6.1875 8.9375C6.1875 10.2139 6.69453 11.4379 7.59705 12.3405C8.49957 13.243 9.72365 13.75 11 13.75C12.2764 13.75 13.5004 13.243 14.403 12.3405C15.3055 11.4379 15.8125 10.2139 15.8125 8.9375C15.8125 7.66115 15.3055 6.43707 14.403 5.53455C13.5004 4.63203 12.2764 4.125 11 4.125C9.72365 4.125 8.49957 4.63203 7.59705 5.53455C6.69453 6.43707 6.1875 7.66115 6.1875 8.9375V8.9375Z" stroke="#2581E3" stroke-linecap="round" stroke-linejoin="round"/><path d="M17.3369 19.1363C16.5066 18.3008 15.5193 17.6378 14.4317 17.1853C13.3442 16.7328 12.1779 16.4999 11 16.4999C9.82209 16.4999 8.6558 16.7328 7.56826 17.1853C6.48072 17.6378 5.49339 18.3008 4.66309 19.1363" stroke="#2581E3" stroke-linecap="round" stroke-linejoin="round"/><path d="M0.6875 11C0.6875 13.735 1.77399 16.3581 3.70796 18.292C5.64193 20.226 8.26496 21.3125 11 21.3125C13.735 21.3125 16.3581 20.226 18.292 18.292C20.226 16.3581 21.3125 13.735 21.3125 11C21.3125 8.26496 20.226 5.64193 18.292 3.70796C16.3581 1.77399 13.735 0.6875 11 0.6875C8.26496 0.6875 5.64193 1.77399 3.70796 3.70796C1.77399 5.64193 0.6875 8.26496 0.6875 11V11Z" stroke="#2581E3" stroke-linecap="round" stroke-linejoin="round"/></g>
	<g style="transform: translate(50px, 0);"><g clip-path="url(#clip0)"><path d="M1.10406 10.0177C1.80917 11.6769 3.14449 12.9879 4.81626 13.6625C6.48803 14.3371 8.3593 14.32 10.0184 13.6149C11.6776 12.9097 12.9886 11.5744 13.6632 9.90265C14.3378 8.23088 14.3207 6.35961 13.6155 4.70048C12.9104 3.04136 11.5751 1.73029 9.90335 1.0557C8.23158 0.381108 6.3603 0.398255 4.70118 1.10337C3.04205 1.80848 1.73098 3.1438 1.05639 4.81556C0.381803 6.48733 0.39895 8.35861 1.10406 10.0177V10.0177Z" stroke="#3F434B" stroke-linecap="round" stroke-linejoin="round"/><path d="M12.1658 12.165L17.4375 17.4375" stroke="#3F434B" stroke-linecap="round" stroke-linejoin="round"/></g><defs><clipPath id="clip0"><rect width="18" height="18" fill="white"/></clipPath></defs></g>
	<g style="transform: translate(75px, 0);"><path d="M16.5 17.2776H7.40575C7.08095 17.2776 6.76662 17.1643 6.51846 16.9578C6.27031 16.7513 6.10435 16.4648 6.05 16.1492L3.63275 2.14649C3.5782 1.83106 3.41216 1.54484 3.16403 1.33849C2.91589 1.13213 2.60167 1.01897 2.277 1.01904H1.375" stroke="#2581E3" stroke-linecap="round" stroke-linejoin="round"/><path d="M7.90625 19.3102C7.83826 19.3102 7.7718 19.3301 7.71527 19.3673C7.65874 19.4044 7.61468 19.4573 7.58867 19.5191C7.56265 19.5809 7.55584 19.649 7.56911 19.7146C7.58237 19.7803 7.61511 19.8405 7.66318 19.8879C7.71126 19.9352 7.77251 19.9674 7.83919 19.9805C7.90587 19.9935 7.97499 19.9868 8.0378 19.9612C8.10061 19.9356 8.1543 19.8922 8.19207 19.8366C8.22984 19.781 8.25 19.7155 8.25 19.6486C8.25 19.5589 8.21378 19.4728 8.14932 19.4093C8.08485 19.3459 7.99742 19.3102 7.90625 19.3102" stroke="#2581E3" stroke-linecap="round" stroke-linejoin="round"/><path d="M15.0104 19.3098C14.9424 19.3098 14.8759 19.3297 14.8194 19.3669C14.7629 19.404 14.7188 19.4569 14.6928 19.5187C14.6668 19.5806 14.66 19.6486 14.6732 19.7142C14.6865 19.7799 14.7192 19.8402 14.7673 19.8875C14.8154 19.9348 14.8766 19.967 14.9433 19.9801C15.01 19.9931 15.0791 19.9864 15.1419 19.9608C15.2047 19.9352 15.2584 19.8918 15.2962 19.8362C15.334 19.7806 15.3541 19.7151 15.3541 19.6482C15.3541 19.5585 15.3179 19.4724 15.2534 19.409C15.189 19.3455 15.1015 19.3098 15.0104 19.3098" stroke="#2581E3" stroke-linecap="round" stroke-linejoin="round"/><path d="M16.5 17.2749C17.05 17.2749 17.9754 17.073 18.425 16.5323C18.8745 15.9916 19.2729 14.9507 19.4113 14.0984L20.6475 6.48031C20.6711 6.33502 20.6729 6.18337 20.6527 6.03687C20.6325 5.89037 20.591 5.75288 20.5311 5.63486C20.4713 5.51683 20.3947 5.42138 20.3074 5.35576C20.22 5.29014 20.124 5.25608 20.0268 5.25616H5.33329" stroke="#2581E3" stroke-linecap="round" stroke-linejoin="round"/></g></g>
	<g style="transform:translate(0, 50px);"><path d="M9.1 8l4.5-4.5c.3-.3.3-.8 0-1.1s-.8-.3-1.1 0L8 6.9 3.5 2.5c-.3-.3-.8-.3-1.1 0s-.3.8 0 1.1L6.9 8l-4.5 4.5c-.3.3-.3.8 0 1.1.1.1.3.2.5.2s.4-.1.5-.2L8 9.1l4.5 4.5c.1.1.3.2.5.2s.4-.1.5-.2c.3-.3.3-.8 0-1.1L9.1 8z" fill="#3F434B"></path></g>
	<g style="transform:translate(20px, 50px);"><path d="M9.1 8l4.5-4.5c.3-.3.3-.8 0-1.1s-.8-.3-1.1 0L8 6.9 3.5 2.5c-.3-.3-.8-.3-1.1 0s-.3.8 0 1.1L6.9 8l-4.5 4.5c-.3.3-.3.8 0 1.1.1.1.3.2.5.2s.4-.1.5-.2L8 9.1l4.5 4.5c.1.1.3.2.5.2s.4-.1.5-.2c.3-.3.3-.8 0-1.1L9.1 8z" fill="#2581E3"></path></g>
	<g style="transform: translate(40px, 50px);"><g clip-path="url(#clip0)"><path d="M1.10406 10.0177C1.80917 11.6769 3.14449 12.9879 4.81626 13.6625C6.48803 14.3371 8.3593 14.32 10.0184 13.6149C11.6776 12.9097 12.9886 11.5744 13.6632 9.90265C14.3378 8.23088 14.3207 6.35961 13.6155 4.70048C12.9104 3.04136 11.5751 1.73029 9.90335 1.0557C8.23158 0.381108 6.3603 0.398255 4.70118 1.10337C3.04205 1.80848 1.73098 3.1438 1.05639 4.81556C0.381803 6.48733 0.39895 8.35861 1.10406 10.0177V10.0177Z" stroke="#2581E3" stroke-linecap="round" stroke-linejoin="round"/><path d="M12.1658 12.165L17.4375 17.4375" stroke="#2581E3" stroke-linecap="round" stroke-linejoin="round"/></g><defs><clipPath id="clip0"><rect width="18" height="18" fill="white"/></clipPath></defs></g>
</svg>
