<svg xmlns="http://www.w3.org/2000/svg" xmlns:xlink="http://www.w3.org/1999/xlink" width="200" height="200" viewBox="0 0 200 200">
  <g id="custom_1" data-name="custom – 1">
    <path id="_" data-name="+" d="M1285,672v-4h-4a1,1,0,0,1,0-2h4v-4a1,1,0,1,1,2,0v4h4a1,1,0,1,1,0,2h-4v4a1,1,0,1,1-2,0Z" transform="translate(-1245 -661)" fill="#80848a"/>
    <path id="_2" data-name="+" d="M1288.668,670.757l-2.683-2.666-2.683,2.666a.8.8,0,0,1-1.118,0,.78.78,0,0,1,0-1.109l2.684-2.667-2.677-2.659a.78.78,0,0,1,0-1.109.794.794,0,0,1,1.117,0l2.677,2.659,2.676-2.659a.8.8,0,0,1,1.118,0,.78.78,0,0,1,0,1.109l-2.677,2.66,2.684,2.667a.78.78,0,0,1,0,1.109.8.8,0,0,1-1.118,0Z" transform="translate(-1261.952 -662.983)" fill="#80848a"/>
    <g id="_3" data-name="#" transform="translate(-1341 -107)">
      <path id="_4" data-name="#" d="M1353,109a2,2,0,1,1,2,2A2,2,0,0,1,1353,109Zm-6,0a2,2,0,1,1,2,2A2,2,0,0,1,1347,109Zm-6,0a2,2,0,1,1,2,2A2,2,0,0,1,1341,109Z" fill="#222b3d" opacity="0.6"/>
    </g>
    <g id="Dismiss" transform="translate(-1290.983 -376.978)">
      <path id="_5" data-name="&gt;" d="M1346.67,381.5l3.119,3.219a.746.746,0,0,1-1.055,1.055l-3.223-3.325-3.254,3.325a.746.746,0,0,1-1.055-1.055l3.15-3.219-3.15-3.253a.746.746,0,0,1,1.055-1.055l3.254,3.361,3.223-3.361a.746.746,0,1,1,1.055,1.055Z" fill="#030303" opacity="0.902"/>
    </g>
    <path id="_6" data-name="#" d="M475.727,211.584l-5.441,6.142a.98.98,0,0,1-1.367,0l-2.721-3.076a.977.977,0,0,1,0-1.363.933.933,0,0,1,1.338,0l2.073,2.32,4.793-5.371a.925.925,0,0,1,1.325,0A.968.968,0,0,1,475.727,211.584Z" transform="translate(-465.921 -199.953)" fill="#fff"/>
    <path id="_7" data-name="#" d="M470,348v-2h-1a1,1,0,0,1-1-1v-3a3,3,0,0,1,6,0v3a1,1,0,0,1-1,1h-1v2a1,1,0,1,1-2,0Z" transform="translate(-453 -329)" fill="#fff"/>
    <path id="_8" data-name="#" d="M474.759,522.027a1.254,1.254,0,1,0-2.5,0,1.253,1.253,0,1,0-2.5,0,1.254,1.254,0,1,0-2.5,0A1.294,1.294,0,0,1,466,520.694l1.251-2.683h7.507l1.251,2.683A1.294,1.294,0,0,1,474.759,522.027ZM467.5,523a.5.5,0,0,1,.5.5v3.455l.879-.989H473.1l.9,1.01V523.5a.5.5,0,0,1,1,0v4a.5.5,0,0,1-.5.5h-7a.5.5,0,0,1-.5-.5v-4A.5.5,0,0,1,467.5,523Z" transform="translate(-401.002 -518.01)" fill="#fff"/>
  </g>
  <g><path id="ic_notifications_badge.svg" fill="#fff" d="M158,49.014a10.006,10.006,0,1,1,10-10.005A10.006,10.006,0,0,1,158,49.014Zm5.194-12.048h-3.618l-1.119-3.441a0.48,0.48,0,0,0-.913,0l-1.118,3.441h-3.618a0.48,0.48,0,0,0-.283.869l2.928,2.127L154.334,43.4a0.48,0.48,0,0,0,.739.537L158,41.812l2.927,2.127a0.48,0.48,0,0,0,.739-0.537l-1.118-3.441,2.928-2.127A0.48,0.48,0,0,0,163.193,36.965ZM158,50.995a11.743,11.743,0,0,0,7.99-3.135l2.9,5.22-5.118-.41-2.477,4.5-3.312-6.052-3.312,6.052-2.477-4.5-5.117.41,2.911-5.235A11.746,11.746,0,0,0,158,50.995Z" transform="translate(-147.094 -9)"/></g>
  <g><path id="ic_notifications_fancy.svg" fill="#fff" d="M61.005,49.014H56V55a2,2,0,0,1-4,0V49.014H47A1.947,1.947,0,0,1,45,47.075V38.906A9,9,0,0,1,54.06,29.99,8.9,8.9,0,0,1,63,38.906v8.113A1.994,1.994,0,0,1,61.005,49.014Z" transform="translate(-20 -10)"/></g>
  <g><path id="ic_notifications_shiping.svg" fill="#fff" d="M118.941,42.433l-1.361,7.333a1.6,1.6,0,0,1-1.5,1.253h-1.137c0-.007,0-0.013,0-0.02a2.892,2.892,0,0,0-2.916-3.578A4.5,4.5,0,0,0,107.793,51c0,0.007,0,.013,0,0.02h-4.8A0.149,0.149,0,0,1,103,51a2.981,2.981,0,0,0-3.005-3.687A4.64,4.64,0,0,0,95.622,51c0,0.007,0,.013,0,0.02H95a1,1,0,0,1-1.007-1.253l0.45-2.444a1.709,1.709,0,0,1,1.543-1.316h12.043a1.53,1.53,0,0,0,1.488-1.191l1.2-6.548a1.6,1.6,0,0,1,1.5-1.253h3.816C117.5,37.015,119.4,40.121,118.941,42.433Zm-3.485-3.486c-0.525,0-2.871.063-2.871,0.063L111.862,43h4.284a0.85,0.85,0,0,0,.8-0.665l0.16-.81C117.318,40.423,116.558,38.948,115.456,38.948ZM106.354,44H94.822a0.808,0.808,0,0,1-.815-1l1.48-8a1.259,1.259,0,0,1,1.185-1H108.2a0.808,0.808,0,0,1,.815,1l-1.479,8A1.26,1.26,0,0,1,106.354,44Zm-6.613,5a1.616,1.616,0,0,1,1.63,2A2.516,2.516,0,0,1,99,53a1.617,1.617,0,0,1-1.63-2A2.517,2.517,0,0,1,99.741,49Zm12,0a1.616,1.616,0,0,1,1.63,2A2.516,2.516,0,0,1,111,53a1.617,1.617,0,0,1-1.63-2A2.518,2.518,0,0,1,111.741,49Z" transform="translate(-48.969 -14)"/></g>
</svg>
