<svg xmlns="http://www.w3.org/2000/svg" width="400" height="400" viewBox="0 0 400 400">
  <g id="Card" transform="translate(-1190 -310)">
    <g id="ic_discover.svg">
      <rect id="_" data-name="#" width="38" height="24" rx="5" transform="translate(1313 310)" fill="#fff"/>
      <path id="_2" data-name="#" d="M1348,334h-32a3.008,3.008,0,0,1-3-3V313a2.946,2.946,0,0,1,3-3h32a3.009,3.009,0,0,1,3,3v18A2.946,2.946,0,0,1,1348,334Zm2-21a2.006,2.006,0,0,0-2-2h-32a2.006,2.006,0,0,0-2,2v18a2.006,2.006,0,0,0,2,2h32a2.006,2.006,0,0,0,2-2Z" fill="#ebeced"/>
      <path id="_3" data-name="#" d="M1350,326.95V331a2.006,2.006,0,0,1-2,2h-11.772C1344.124,331.185,1348.271,328.4,1350,326.95Z" fill="#f39d13"/>
      <rect id="_4" data-name="#" width="20" height="2" rx="1" transform="translate(1322 321)" fill="#363a40"/>
      <circle id="_5" data-name="#" cx="3" cy="3" r="3" transform="translate(1329 319)" fill="#f39d13"/>
    </g>
    <g id="ic_mastercard.svg">
      <rect id="_6" data-name="#" width="38" height="24" rx="5" transform="translate(1231 310)" fill="#fff"/>
      <path id="_7" data-name="#" d="M1266,334h-32a3.008,3.008,0,0,1-3-3V313a2.946,2.946,0,0,1,3-3h32a3.009,3.009,0,0,1,3,3v18A2.946,2.946,0,0,1,1266,334Zm2-21a2.006,2.006,0,0,0-2-2h-32a2.006,2.006,0,0,0-2,2v18a2.006,2.006,0,0,0,2,2h32a2.006,2.006,0,0,0,2-2Z" fill="#ebeced"/>
      <circle id="_8" data-name="#" cx="7" cy="7" r="7" transform="translate(1239 315)" fill="#ea001b"/>
      <circle id="_9" data-name="#" cx="7" cy="7" r="7" transform="translate(1247 315)" fill="#f79f1a"/>
      <path id="_10" data-name="#" d="M1253,322a6.828,6.828,0,0,0-3-5.7,7.1,7.1,0,0,0-3,5.7,6.964,6.964,0,0,0,3,5.7A6.829,6.829,0,0,0,1253,322Z" fill="#ff5f01"/>
    </g>
    <g id="ic_amex.svg">
      <path id="_11" data-name="#" d="M1307,310h-32a2.946,2.946,0,0,0-3,3v18a3.008,3.008,0,0,0,3,3h32a2.946,2.946,0,0,0,3-3V313a3.009,3.009,0,0,0-3-3" fill="#002562"/>
      <path id="_12" data-name="#" d="M1306.939,318h-5l-1.17,1.107-1.09-1.107h-10.75l-.939,2.06-.929-2.06h-4.308v.844l-.479-.844h-3.684l-3.606,7.98h4.317l.535-1.147h1.223l.535,1.147h4.752v-.846l.423.846h2.458l.423-.867v.867h9.882l1.2-1.114,1.125,1.114,5.076.01-3.617-3.978Zm-4.465,6.981-1.736-2.022-1.8,2.022h-5.931V319.02h6.019l1.736,1.984,1.792-1.984h1.736l-2.637,2.987,2.637,2.97Zm-4.306-4.726h-3.885V321.3h3.44v1.446h-3.44v1.141h3.816l1.739-1.9Zm-7.564.117-1.972,4.612h-1.248l-2.046-4.612v4.612h-2.871l-.544-1.409h-2.941l-.543,1.408H1276.9l2.529-5.959h2.1l2.47,5.521V319.02h2.227l1.769,3.989,1.781-3.989H1292v5.961h-1.38Zm-10.152-.27-.969,2.287h1.936Z" fill="#fff"/>
    </g>
    <g id="ic_visa.svg">
      <rect id="_13" data-name="#" width="38" height="24" rx="5" transform="translate(1190 310)" fill="#fff"/>
      <path id="_14" data-name="#" d="M1225,334h-32a3.008,3.008,0,0,1-3-3V313a2.946,2.946,0,0,1,3-3h32a3.009,3.009,0,0,1,3,3v18A2.946,2.946,0,0,1,1225,334Zm2-21a2.006,2.006,0,0,0-2-2h-32a2.006,2.006,0,0,0-2,2v18a2.006,2.006,0,0,0,2,2h32a2.006,2.006,0,0,0,2-2Z" fill="#ebeced"/>
      <path id="_15" data-name="#" d="M1219.146,325.942l-.248-1.185h-2.632l-.428,1.185h-2.154l3.079-7.35a.934.934,0,0,1,.874-.582h1.751l1.656,7.931Zm-1.209-5.788-1.08,2.978h1.7Zm-6.15-.56c-.593.077-.864.377-.87.659-.02.928,2.884,1.043,2.875,3.12-.007,1.637-1.416,2.693-3.572,2.693a6.262,6.262,0,0,1-2.282-.418l.371-1.725a4.321,4.321,0,0,0,2.107.5c.59-.009,1.222-.242,1.228-.77,0-.345-.265-.592-1.064-.978-.778-.377-1.81-1.009-1.8-2.142.011-1.532,1.439-2.6,3.467-2.6a5.555,5.555,0,0,1,1.92.349l-.361,1.669A3.9,3.9,0,0,0,1211.787,319.594Zm-7.31,6.348,1.7-7.931h2.051l-1.7,7.931Zm-4.676,0-1.636-6.33a.869.869,0,0,0-.487-.7,8.585,8.585,0,0,0-2.024-.675l.048-.23h3.491a.956.956,0,0,1,.946.809l.864,4.59,2.135-5.4h2.155l-3.324,7.931Z" fill="#132587"/>
    </g>
  </g>
  <g transform="translate(0 25)"><path id="_" data-name="#" fill="#d4e6fe" d="M819.524,363.014H761.959l-10.091-43.07h80.755ZM767.5,385a5.5,5.5,0,1,1-5.5,5.5A5.5,5.5,0,0,1,767.5,385Zm45,0a5.5,5.5,0,1,1-5.5,5.5A5.5,5.5,0,0,1,812.5,385Z" transform="translate(-726.969 -304.031)"/>
  <path id="_2" data-name="#" fill="#2685f9" d="M834.9,319.535l-13.045,45.049a1.95,1.95,0,0,1-1.868,1.409H761.423a4.539,4.539,0,0,0-4.461,4.531A4.485,4.485,0,0,0,761.5,375h58.5a2.053,2.053,0,0,1,2,2,2.026,2.026,0,0,1-2,1.974H761.4a8.474,8.474,0,0,1-3.342-16.237l0.98-.457-0.232-1.043c-6.118-27.522-12.041-53.309-12.041-53.309H728.9a1.943,1.943,0,0,1,0-3.886h19.427a1.932,1.932,0,0,1,1.9,1.522l2.54,11.43h80.274a1.953,1.953,0,0,1,1.551.773A2.085,2.085,0,0,1,834.9,319.535Zm-81.279,1.409L762.734,361l0.225,1.014h55.565l0.269-.939,11.667-40.131H753.624ZM767.5,382a8.5,8.5,0,1,1-8.5,8.5A8.5,8.5,0,0,1,767.5,382Zm0,13a4.5,4.5,0,1,0-4.5-4.5A4.5,4.5,0,0,0,767.5,395Zm45-13a8.5,8.5,0,1,1-8.5,8.5A8.5,8.5,0,0,1,812.5,382Zm0,13a4.5,4.5,0,1,0-4.5-4.5A4.5,4.5,0,0,0,812.5,395Z" transform="translate(-726.969 -304.031)"/></g>
  <g id="ic_amex_express.svg" transform="translate(-1191 -352.988)">
  <defs>
    <linearGradient id="linear-gradient" x1="0.592" y1="1" x2="0.408" gradientUnits="objectBoundingBox">
      <stop offset="0" stop-color="#276dbc"/>
      <stop offset="1" stop-color="#2981ce"/>
    </linearGradient>
  </defs>
    <path id="_" data-name="#" d="M1350.713,390.91l-7.482,10.359a1.612,1.612,0,0,1-1.312.675l-4.443.01A3.2,3.2,0,0,1,1337,402h-16.719l-7.958.017c-.058,0-.113-.013-.17-.017H1309a3.008,3.008,0,0,1-3-3V381a2.946,2.946,0,0,1,3-3h3.2c.041,0,.08-.012.121-.012l29.6.014a1.612,1.612,0,0,1,1.312.675l7.482,10.359A1.612,1.612,0,0,1,1350.713,390.91Z" fill="url(#linear-gradient)"/>
    <path id="_2" data-name="#" d="M1342.939,386h-5l-1.17,1.107-1.09-1.107h-10.751l-.939,2.06-.929-2.06h-4.308v.844l-.479-.844h-3.684l-3.606,7.98h4.317l.535-1.147h1.223l.535,1.147h4.752v-.846l.423.846h2.458l.423-.866v.866h9.882l1.2-1.114,1.125,1.114,5.076.01-3.617-3.978Zm-4.465,6.981-1.736-2.022-1.8,2.022h-5.931V387.02h6.019l1.736,1.984,1.792-1.984h1.736l-2.637,2.987,2.637,2.97Zm-4.306-4.726h-3.885V389.3h3.44v1.446h-3.44v1.141h3.816l1.739-1.9Zm-7.564.117-1.972,4.612h-1.248l-2.046-4.612v4.612h-2.871l-.544-1.409h-2.941l-.543,1.408H1312.9l2.529-5.959h2.1l2.47,5.521V387.02h2.227l1.769,3.989,1.781-3.989H1328v5.96h-1.38Zm-10.152-.27-.969,2.287h1.937Z" fill="#fff"/>
  </g>
  <g id="Crypto" transform="translate(-1185.97 -394.98)">
    <g id="ic_bitcoin_xl.svg">
      <ellipse id="_" data-name="#" cx="11.03" cy="11.01" rx="11.03" ry="11.01" transform="translate(1300.97 449.98)" fill="#fa9300"/>
      <path id="_2" data-name="#" d="M1316.018,459.519c.164-1.3-.85-1.977-2.226-2.409l.4-1.77-1.087-.24-.389,1.723c-.286-.063-.579-.122-.87-.18l.391-1.735-1.086-.24-.4,1.769c-.236-.047-.468-.094-.694-.144v-.006l-1.5-.332-.259,1.151s.806.162.789.174a.571.571,0,0,1,.519.611l-.454,2.017a.838.838,0,0,1,.113.033l-.115-.025-.637,2.825a.393.393,0,0,1-.489.266c.011.016-.79-.175-.79-.175l-.506,1.239,1.414.313c.263.058.521.12.775.178l-.4,1.79,1.085.24.4-1.771c.3.072.585.138.866.2l-.4,1.763,1.086.24.4-1.787c1.85.3,3.232.127,3.774-1.539a1.873,1.873,0,0,0-1.056-2.572,1.713,1.713,0,0,0,1.34-1.606Zm-2.383,3.492c-.3,1.338-2.577.675-3.314.513l.535-2.372C1311.593,461.315,1313.949,461.616,1313.635,463.011Zm.249-3.458c-.275,1.217-2.169.648-2.783.513l.485-2.151C1312.2,458.051,1314.17,458.283,1313.884,459.553Z" fill="#fff"/>
    </g>
    <g id="ic_xmr_xl.svg">
      <path id="_3" data-name="#" d="M1350.575,464H1349.5v0H1346v-7.9l-6.01,6.135-5.979-6.135V464h-3.528v0h-1.056a11,11,0,1,1,21.15,0Z" fill="#f89225"/>
      <path id="_4" data-name="#" d="M1349.79,466a10.986,10.986,0,0,1-19.579,0h5.784v-4.727l2.5,2.466h0l1.5,1.5,1.5-1.5,2.529-2.466V466Z" fill="#3f464f"/>
    </g>
  </g>
  <g transform="translate(115 80)"><defs>
    <linearGradient id="linear-gradient" x1="0.846" y1="1" x2="0.154" gradientUnits="objectBoundingBox">
      <stop offset="0" stop-color="#21569c"/>
      <stop offset="1" stop-color="#2689c9"/>
    </linearGradient>
  </defs>
  <g id="ic_amex_btn.svg" transform="translate(-1094 -589)">
    <rect id="_" data-name="#" width="45" height="28" rx="3" transform="translate(1094 589)" fill="url(#linear-gradient)"/>
    <path id="_2" data-name="#" d="M1132.939,599h-5l-1.17,1.107-1.09-1.107h-10.75l-.939,2.06-.929-2.06h-4.308v.844l-.479-.844h-3.684l-3.606,7.98h4.317l.535-1.147h1.223l.535,1.147h4.752v-.846l.423.846h2.458l.423-.867v.867h9.882l1.2-1.114,1.125,1.114,5.076.01-3.617-3.978Zm-4.465,6.981-1.736-2.022-1.8,2.022h-5.931V600.02h6.019l1.736,1.984,1.792-1.984h1.736l-2.637,2.987,2.637,2.97Zm-4.306-4.726h-3.885V602.3h3.44v1.446h-3.44v1.141h3.816l1.739-1.9Zm-7.564.117-1.972,4.612h-1.248l-2.046-4.612v4.612h-2.871l-.544-1.409h-2.941l-.543,1.408H1102.9l2.529-5.959h2.1l2.47,5.521V600.02h2.227l1.769,3.989,1.781-3.989H1118v5.96h-1.38Zm-10.152-.27-.969,2.287h1.936Z" fill="#fff"/>
  </g></g>
  <g transform="translate(170 0)"><path id="_" data-name="#" fill="#4285f4" d="M381,269.174a13.836,13.836,0,0,0-.171-2.174H371v4h5.736a4.768,4.768,0,0,1-2.048,3.112v2.5h3.3A9.791,9.791,0,0,0,381,269.174Z" transform="translate(-361 -259)"/>
  <path id="_2" data-name="#" fill="#34a852" d="M371.205,279.005a9.9,9.9,0,0,0,6.784-2.391l-3.3-2.5a6.511,6.511,0,0,1-9.372-3.175H362.09v2.59A10.179,10.179,0,0,0,371.205,279.005Z" transform="translate(-361 -259)"/>
  <path id="_3" data-name="#" fill="#fabb05" d="M365.318,270.934a5.922,5.922,0,0,1,0-3.842v-2.575H362.09a9.779,9.779,0,0,0,0,9.007Z" transform="translate(-361 -259)"/>
  <path id="_4" data-name="#" fill="#ea4335" d="M371.205,262.973a5.562,5.562,0,0,1,3.925,1.488l2.931-2.868a9.994,9.994,0,0,0-6.856-2.587,10.206,10.206,0,0,0-9.115,5.511l3.224,2.586A6.281,6.281,0,0,1,371.205,262.973Z" transform="translate(-361 -259)"/></g>
  <g><path id="ic_applepay.svg" fill="#fff" d="M285.536,424.332a4.126,4.126,0,0,0,2.484,3.776s-1.736,4.919-4.081,4.919c-1.077,0-1.914-.731-3.049-0.731-1.156,0-2.3.758-3.051,0.758-2.141,0-4.845-4.666-4.845-8.416,0-3.69,2.289-5.625,4.437-5.625,1.4,0,2.479.81,3.205,0.81,0.623,0,1.779-.862,3.284-0.862a4.11,4.11,0,0,1,3.61,1.856A4.03,4.03,0,0,0,285.536,424.332Zm-5.054-5.472a3.421,3.421,0,0,1,.8-2.634,3.946,3.946,0,0,1,2.895-1.6,3.939,3.939,0,0,1-.953,2.947A3.113,3.113,0,0,1,280.482,418.86Z" transform="translate(-103 -366.625)"/></g>
  <g transform="translate(170 30)"><path id="Rounded_Rectangle_23" data-name="Rounded Rectangle 23" fill="#65C07D" d="M567.7,910.738l-5.971,6.967a1.081,1.081,0,0,1-1.483,0l-2.953-2.951a1.026,1.026,0,0,1,1.452-1.45l2.2,2.2,5.315-6.2A1.016,1.016,0,0,1,567.7,910.738Z" transform="translate(-557 -909.031)"/></g>
</svg>
