<svg xmlns="http://www.w3.org/2000/svg" width="200" height="200" viewBox="0 0 200 200">
  <g><path id="ic_close.svg" class="cls-1" d="M1524.66,35.316a1.127,1.127,0,0,1,0,1.593l-10.75,10.748a1.126,1.126,0,0,1-1.59-1.593l10.74-10.748A1.135,1.135,0,0,1,1524.66,35.316Zm-12.34,0a1.123,1.123,0,0,1,1.59,0l10.75,10.748a1.129,1.129,0,1,1-1.6,1.593l-10.74-10.748A1.127,1.127,0,0,1,1512.32,35.316Z" transform="translate(-1512 -35)" fill="#2e363e"/></g>
  <g><path id="ic_delete.svg" class="cls-1" d="M898,800.5a0.5,0.5,0,0,1-.5.5h-10a0.5,0.5,0,0,1-.5-0.5,0.483,0.483,0,0,1,.057-0.22A0.975,0.975,0,0,1,887,800a1,1,0,0,1,1-1h2v-0.5a0.5,0.5,0,0,1,.5-0.5h4a0.5,0.5,0,0,1,.5.5V799h2a1,1,0,0,1,1,1,0.975,0.975,0,0,1-.057.28A0.483,0.483,0,0,1,898,800.5Zm-1.4,9.784a0.744,0.744,0,0,1-.743.712H889.1a0.743,0.743,0,0,1-.743-0.712l-0.4-8.283H897ZM891,804.5a0.5,0.5,0,0,0-1,0v4a0.5,0.5,0,0,0,1,0v-4Zm2,0a0.5,0.5,0,0,0-1,0v4a0.5,0.5,0,0,0,1,0v-4Zm2,0a0.5,0.5,0,0,0-1,0v4a0.5,0.5,0,0,0,1,0v-4Z" transform="translate(-867 -798)" fill="#2e363e"/></g>
  <g><path id="ic_edit.svg" class="cls-1" d="M855.453,799.517a1.854,1.854,0,0,1,0,2.607l-0.861.868-2.586-2.606,0.861-.869a1.819,1.819,0,0,1,2.586,0h0ZM844.5,807.952l-0.442,2.987,2.987-.442,6.344-6.313-2.546-2.545Z" transform="translate(-804.062 -799)" fill="#2e363e"/></g>
  <g><path id="ic_featured.svg" class="cls-1" d="M1319.79,924.109l-5.41,5.642a0.8,0.8,0,0,1-1.15,0,0.85,0.85,0,0,1,0-1.184l4.84-5.052-4.84-5.093a0.85,0.85,0,0,1,0-1.184,0.8,0.8,0,0,1,1.15,0l5.41,5.687A0.85,0.85,0,0,1,1319.79,924.109Z" transform="translate(-1253 -917)"/></g>
  <g transform="translate(0 20)"><path id="_2" data-name="#" fill="#2785f9" d="M11.469,4L16,8v6H7V8l4.469-4m0-1a1,1,0,0,0-.667.255l-4.469,4A1,1,0,0,0,6,8v6a1,1,0,0,0,1,1h9a1,1,0,0,0,1-1V8a1,1,0,0,0-.338-0.75l-4.531-4A1,1,0,0,0,11.469,3h0Z"/>
  <path id="_3" data-name="#" fill="#d4e7fe" d="M6,4.338a3.686,3.686,0,0,0-3.732,3.63,3.548,3.548,0,0,0,.557,1.909l2.933,4.643a0.313,0.313,0,0,0,.264.143h0a0.312,0.312,0,0,0,.264-0.147L9.205,9.827a3.55,3.55,0,0,0,.526-1.86A3.686,3.686,0,0,0,6,4.338H6Z"/>
  <path id="_4" data-name="#" fill="#2785f9" d="M9.426,9.85L6.309,14.86a0.335,0.335,0,0,1-.282.157h0a0.335,0.335,0,0,1-.282-0.153L2.607,9.9a3.792,3.792,0,0,1-.6-2.04A3.939,3.939,0,0,1,6,3.983,3.939,3.939,0,0,1,9.988,7.862,3.794,3.794,0,0,1,9.426,9.85ZM6,4.983A2.939,2.939,0,0,0,3.012,7.862a2.794,2.794,0,0,0,.439,1.5L6.02,13.432,8.577,9.321a2.792,2.792,0,0,0,.412-1.459A2.939,2.939,0,0,0,6,4.983ZM6,10A2,2,0,1,1,8,8,2,2,0,0,1,6,10ZM6,7A1,1,0,1,0,7,8,1,1,0,0,0,6,7Z"/>
  <path id="_5" data-name="#" fill="#fff" d="M5,9V7H7V9H5Z"/></g>
  <g><path id="ic_more.svg" fill="#2e363e" d="M1311,551a2,2,0,1,1,2-2A2,2,0,0,1,1311,551Zm-6,0a2,2,0,1,1,2-2A2,2,0,0,1,1305,551Zm-6,0a2,2,0,1,1,2-2A2,2,0,0,1,1299,551Z" transform="translate(-1297 -507)"/></g>
  <g transform="translate(20 20)"><path id="_2" data-name="#" fill="#2785f9" style="opacity: 0.2;" d="M4.938,5H15.063L16,7H4Z"/>
  <path id="_3" data-name="#" fill="#2785f9" d="M16.422,16H3.578A0.578,0.578,0,0,1,3,15.422V8.136a0.578,0.578,0,0,1,.061-0.259L4.84,4.32A0.579,0.579,0,0,1,5.358,4h9.285a0.579,0.579,0,0,1,.518.32l1.779,3.558A0.577,0.577,0,0,1,17,8.136v7.285A0.578,0.578,0,0,1,16.422,16ZM14.382,5H5.618l-1,2H15.382ZM16,8.236L15.882,8H4.118L4,8.236V15H16V8.236Zm-7.719.748L8.988,9.691,7.777,11H14v1H7.791l1.2,1.278-0.707.707L6,11.449Z"/></g>
  <g><path id="ic_share.svg" fill="#2e363e" d="M1269.99,543.542l-5.19,13.184a0.413,0.413,0,0,1-.36.26h-0.02a0.435,0.435,0,0,1-.37-0.213l-2.24-4.149,5.83-7.232-7.32,5.745-4.12-2.117a0.42,0.42,0,0,1-.21-0.391,0.412,0.412,0,0,1,.26-0.356l13.21-5.257a0.4,0.4,0,0,1,.42.1A0.411,0.411,0,0,1,1269.99,543.542Z" transform="translate(-1236 -503)"/></g>
  <g transform="translate(40 20)"><path id="_2" data-name="#" fill="#2785f9" d="M18,15H15.723a1.984,1.984,0,0,1-3.445,0H7.723a1.984,1.984,0,0,1-3.445,0H3a1,1,0,0,1-1-1V11H3v3H4a2,2,0,0,1,4,0h4a1.992,1.992,0,0,1,1-1.723V5H3V6H2V5A1,1,0,0,1,3,4H13a1,1,0,0,1,1,1V6h1a1,1,0,0,1,.7.286c2.366,2.318,3.877,3.772,3.006,2.906A1,1,0,0,1,19,9.9V14A1,1,0,0,1,18,15ZM6,13a1,1,0,1,0,1,1A1,1,0,0,0,6,13Zm7,1a1,1,0,1,0,1-1A1,1,0,0,0,13,14Zm5-4.1h0C17.981,9.9,15,7,15,7H14v5a2,2,0,0,1,2,2h2V9.9ZM8,8H0V7H8V8Zm0,2H1V9H8v1Z"/></g>
  <g transform="translate(40 40)"><path id="_2" data-name="#" fill="#222b3d" d="M16,15H3a1,1,0,0,1-1-1V6A1,1,0,0,1,3,5H16a1,1,0,0,1,1,1v8A1,1,0,0,1,16,15Zm0-8h0V6.5A0.5,0.5,0,0,0,15.5,6H3.5a0.5,0.5,0,0,0-.5.5v7a0.5,0.5,0,0,0,.5.5H6V9H7v5h3V9h1v5h3V9h1v5h0.5a0.5,0.5,0,0,0,.5-0.5V7Z"/>
  <path id="_3" data-name="#" fill="#222b3d" style="opacity: 0.8;" d="M4,11H5v3H4V11Zm4,0H9v3H8V11Zm4,0h1v3H12V11Z"/></g>
  <g transform="translate(110 35)"><path id="_2" data-name="#" fill="#2785f9" d="M16,15H3a1,1,0,0,1-1-1V6A1,1,0,0,1,3,5H16a1,1,0,0,1,1,1v8A1,1,0,0,1,16,15Zm0-8h0V6.5A0.5,0.5,0,0,0,15.5,6H3.5a0.5,0.5,0,0,0-.5.5v7a0.5,0.5,0,0,0,.5.5H6V9H7v5h3V9h1v5h3V9h1v5h0.5a0.5,0.5,0,0,0,.5-0.5V7Z"/>
  <path id="_3" data-name="#" fill="#529dfa" d="M4,11H5v3H4V11Zm4,0H9v3H8V11Zm4,0h1v3H12V11Z"/></g>
  <g><path id="ic_arrow-right.svg" class="cls-1" d="M1529.45,599.356c0.6-.6-14.23,14.127-14.23,14.127a1.923,1.923,0,0,1-2.7,0,1.888,1.888,0,0,1,0-2.674l12.88-12.793-12.88-12.792a1.888,1.888,0,0,1,0-2.674,1.923,1.923,0,0,1,2.7,0s14.83,14.729,14.23,14.127A1.882,1.882,0,0,1,1529.45,599.356Z" transform="translate(-1441.97 -582)"/></g>
  <g><path id="ic_arrow-left.svg" class="cls-1" d="M30.521,599.356c-0.6-.6,14.229,14.127,14.229,14.127a1.919,1.919,0,0,0,2.7,0,1.879,1.879,0,0,0,0-2.674l-12.88-12.793,12.88-12.792a1.879,1.879,0,0,0,0-2.674,1.919,1.919,0,0,0-2.7,0s-14.831,14.729-14.229,14.127A1.886,1.886,0,0,0,30.521,599.356Z" transform="translate(59.969 -582)"/></g>
  <g><path id="ic_photo-arrow-left.svg" fill="#fff" d="M0.481,12.217c-0.557-.551,9.49,9.289,9.49,9.289a1.8,1.8,0,0,0,2.5,0,1.71,1.71,0,0,0,0-2.453L4.235,10.988l8.238-8.066a1.71,1.71,0,0,0,0-2.453,1.794,1.794,0,0,0-2.5,0S-0.078,10.311.481,9.759A1.717,1.717,0,0,0,.481,12.217Z" transform="translate(60 40)"/></g>
  <g><path id="ic_photo-arrow-right.svg" fill="#fff" d="M12.488,12.217C13.045,11.666,3,21.506,3,21.506a1.8,1.8,0,0,1-2.5,0,1.71,1.71,0,0,1,0-2.453l8.238-8.066L0.5,2.922A1.71,1.71,0,0,1,.5.469a1.794,1.794,0,0,1,2.5,0s10.048,9.842,9.49,9.289A1.718,1.718,0,0,1,12.488,12.217Z"  transform="translate(75 40)"/></g>
  <g><path id="ic_ask_attachment.svg" fill="#2e363e" d="M73.347,364.956l1.257-1.235,5.563-5.553a2.371,2.371,0,0,0,.149-3.507,2.516,2.516,0,0,0-3.608.118l-5.533,5.272a0.573,0.573,0,0,0,0,.822,0.6,0.6,0,0,0,.838,0l5.533-5.3a1.283,1.283,0,0,1,1.907-.062,1.2,1.2,0,0,1-.125,1.838L73.766,362.9l-1.257,1.234a2.478,2.478,0,0,1-3.585,0,2.585,2.585,0,0,1,0-3.7l1.048-1.029,5.866-5.758,0.419-.412a3.9,3.9,0,0,1,5.406.041,3.733,3.733,0,0,1,.042,5.307l-6.567,6.451a0.574,0.574,0,0,0-.153.562A0.587,0.587,0,0,0,75.4,366a0.6,0.6,0,0,0,.572-0.15l6.566-6.452a4.88,4.88,0,0,0-.008-6.984,5.1,5.1,0,0,0-7.115-.008l-6.285,6.17-1.048,1.029a3.732,3.732,0,0,0,.055,5.294A3.675,3.675,0,0,0,73.347,364.956Z" transform="translate(47 -351)"/></g>
  <g><path id="ic_ask_close.svg" fill="#2e363e" d="M385.841,130.488l3.884,3.884a0.957,0.957,0,0,1-1.353,1.353l-3.884-3.885-3.884,3.885a0.956,0.956,0,0,1-1.352-1.353l3.884-3.884-3.884-3.884a0.956,0.956,0,0,1,1.352-1.352l3.884,3.884,3.884-3.884a0.956,0.956,0,0,1,1.353,1.352Z" transform="translate(-263.969 -104.969)"/></g>
  <g><path id="ic_ask_delete.svg" class="cls-1" d="M542.269,359.481l3.581,3.525a0.581,0.581,0,1,1-.822.822l-3.509-3.453-3.537,3.453a0.582,0.582,0,0,1-.823-0.822l3.572-3.487-3.581-3.525a0.581,0.581,0,1,1,.822-0.822l3.509,3.453,3.537-3.453a0.582,0.582,0,0,1,.823.822Z" transform="translate(-442 -315)"/></g>
  <g><path id="ic_ask_success.svg" fill="#2785fa" d="M987,214a23,23,0,1,1,23-23A23,23,0,0,1,987,214Zm0-45a22,22,0,1,0,22,22A22,22,0,0,0,987,169Zm-1.22,28.622a1.3,1.3,0,0,1-1.816,0l-4.616-4.461a1.3,1.3,0,0,1,0-1.811,1.24,1.24,0,0,1,1.778,0l3.754,3.457,7.994-9.449a1.23,1.23,0,0,1,1.761,0,1.287,1.287,0,0,1,0,1.795Z" transform="translate(-829 -168)"/></g>
  <g><path id="list-private-card.svg" fill="#2e363e" d="M70.833,623H58.167A3.184,3.184,0,0,1,55,619.8v-7.467a3.626,3.626,0,0,1,2.981-3.26v-3.14a6.535,6.535,0,1,1,13.045,0V609A3.587,3.587,0,0,1,74,612.229V619.8A3.184,3.184,0,0,1,70.833,623ZM64.5,601.667a3.968,3.968,0,0,0-3.88,4.266v3.1h7.767v-3.1A3.974,3.974,0,0,0,64.5,601.667Z" transform="translate(-55 -549)"/></g>
  <g><path id="list-private.svg" fill="#2e363e" d="M863,222H839a6,6,0,0,1-6-6V202a5.988,5.988,0,0,1,5-5.9V190a13,13,0,0,1,26,0v6.1a5.988,5.988,0,0,1,5,5.9v14A6,6,0,0,1,863,222Zm-12-40a8,8,0,0,0-8,8v6h16v-6A8,8,0,0,0,851,182Z" transform="translate(-813 -117)"/></g>
  <g transform="translate(-214.000000, -287.000000)" fill="#7A7D83" fill-rule="nonzero" id="Discount-Countdown"><g transform="translate(274.000000, 355.000000)"><path d="M4.73632812,12.4013672 C2.14355469,12.4013672 0,10.2578125 0,7.66503906 C0,6.52246094 0.4296875,5.46289062 1.12304688,4.63769531 C1.30371094,4.41308594 1.58203125,4.39355469 1.75292969,4.56933594 C1.91894531,4.74511719 1.90429688,4.97460938 1.75292969,5.17480469 C1.18652344,5.84375 0.849609375,6.71289062 0.844726562,7.66503906 C0.83984375,9.82324219 2.57324219,11.5566406 4.73632812,11.5566406 C6.89453125,11.5566406 8.62304688,9.82324219 8.62304688,7.66503906 C8.62304688,5.61914062 7.07519531,3.95410156 5.06835938,3.78808594 L5.06835938,5.1015625 C5.06835938,5.31152344 4.921875,5.48242188 4.70703125,5.48242188 C4.4921875,5.48242188 4.34570312,5.31152344 4.34570312,5.1015625 L4.34570312,3.34375 C4.34570312,3.08984375 4.48242188,2.93359375 4.74121094,2.93359375 C7.32910156,2.93359375 9.46777344,5.07714844 9.46777344,7.66503906 C9.46777344,10.2578125 7.32910156,12.4013672 4.73632812,12.4013672 Z M5.47363281,8.38769531 C5.09277344,8.75878906 4.5703125,8.67578125 4.26269531,8.23144531 L2.58789062,5.82421875 C2.41699219,5.58007812 2.67089844,5.32617188 2.91503906,5.49707031 L5.32714844,7.171875 C5.77148438,7.47949219 5.84472656,8.00195312 5.47363281,8.38769531 Z" id="icon-timer"></path></g></g>
  <g transform="translate(75, 70)"><circle cx="7.5" cy="7.5" r="6.5" stroke="#2785f9" stroke-width="1" fill="transparent" /><line x1="7.5" y1="4" x2="7.5" y2="5" style="stroke:#2785f9;stroke-width:1" /><line x1="7.5" y1="6" x2="7.5" y2="10" style="stroke:#2785f9;stroke-width:1" /></g>
</svg>
