<svg xmlns="http://www.w3.org/2000/svg" xmlns:xlink="http://www.w3.org/1999/xlink" width="100" height="100" viewBox="0 0 100 100">
  <defs>
    <clipPath id="clip-custom_1">
      <rect width="100" height="100"/>
    </clipPath>
  </defs>
  <g id="custom_1" data-name="custom – 1" clip-path="url(#clip-custom_1)">
    <path id="ic-logotype.svg" d="M269.467,22.736,263,31.1v5.4a1.5,1.5,0,1,1-3,0V31.125l-6.638-8.39a2.007,2.007,0,0,1-.386-1.149,1.469,1.469,0,0,1,.49-1.123,1.69,1.69,0,0,1,1.193-.455c.63,0,.949.344,1.4,1.03l5.435,7,5.383-7.1c.464-.641.79-.938,1.422-.938a1.621,1.621,0,0,1,1.2.445,1.5,1.5,0,0,1,.505,1.1A1.959,1.959,0,0,1,269.467,22.736ZM243.22,35.025a7.62,7.62,0,0,0,4.117-1.594A1.858,1.858,0,0,1,248.469,33a1.5,1.5,0,0,1,.954,2.7l0,0a10.7,10.7,0,0,1-6.2,2.3,9,9,0,1,1,0-17.991,10.606,10.606,0,0,1,6.17,2.3l0,0a1.5,1.5,0,0,1-.954,2.7,1.859,1.859,0,0,1-1.132-.434,7.532,7.532,0,0,0-4.086-1.605,6.171,6.171,0,0,0-6.233,6.067A6.109,6.109,0,0,0,243.22,35.025Zm-14.789,3H228.3a2.322,2.322,0,0,1-1.681-1.117l-8.61-11.189L218,36.5a1.5,1.5,0,1,1-3,0l0-14.9a1.49,1.49,0,0,1,.469-1.118A1.536,1.536,0,0,1,216.615,20h.338a2.117,2.117,0,0,1,1.666.991l8.365,11.261L227,21.5a1.5,1.5,0,1,1,3,0l.006,14.979a1.393,1.393,0,0,1-.46,1.073A1.5,1.5,0,0,1,228.43,38.021Zm-19,0a1.653,1.653,0,0,1-1.679-1.057l-1.319-2.981h-7.85l-1.462,3.091a1.528,1.528,0,0,1-1.59.947,1.506,1.506,0,0,1-1.13-.351,1.416,1.416,0,0,1-.429-1.083,1.586,1.586,0,0,1,.191-.749l6.228-14.476a2.136,2.136,0,0,1,2.006-1.4h.165a2.2,2.2,0,0,1,2.041,1.417l6.228,14.477a1.4,1.4,0,0,1,.194.689,1.509,1.509,0,0,1-.455,1.114A1.487,1.487,0,0,1,209.429,38.023ZM202.477,23.98,199.6,30.969h5.795Zm-12-.97h-8.487v4.976h7.487A1.516,1.516,0,0,1,191,29.506a1.418,1.418,0,0,1-.449,1.051A1.486,1.486,0,0,1,189.48,31h-7.472L182,36.5a1.5,1.5,0,1,1-3,0v-15a1.5,1.5,0,0,1,1.5-1.5l9.987,0a1.446,1.446,0,0,1,1.069.407,1.521,1.521,0,0,1-1.077,2.6Z" transform="translate(-179 -19.964)" fill="#3d4956"/>
    <path id="ic-header-search.svg" d="M315.512,34.63l-.867.867-3.379-3.379a6.076,6.076,0,1,1,.865-.87Zm-8.028-12.021a4.9,4.9,0,1,0,4.907,4.891A4.891,4.891,0,0,0,307.485,22.609Z" transform="translate(-301.5 -1.516)" fill="#505b67" opacity="0.8"/>
    <path id="ic-header-store.svg" d="M1170.121,28.014a2.7,2.7,0,0,1-2.652-1.583,3.221,3.221,0,0,1-5.515.051,2.728,2.728,0,0,1-2.7,1.531,2.769,2.769,0,0,1-2.725-1.542,2.739,2.739,0,0,1-2.709,1.542,2.878,2.878,0,0,1-2.832-3l.028-.1L1154,20.132a.238.238,0,0,1,.211-.129h15.571a.238.238,0,0,1,.211.129l3,4.786.028.1A2.925,2.925,0,0,1,1170.121,28.014Zm-1.044-6.511h-14.168l-2.393,3.846a1.338,1.338,0,0,0,1.3,1.165c.585,0,1.088-.1,1.318-.6a1.54,1.54,0,0,1,1.4-.937h.039a1.5,1.5,0,0,1,1.346.942c.221.491.753.6,1.332.6s1.076-.09,1.305-.589a1.551,1.551,0,0,1,1.4-.943h.034a1.457,1.457,0,0,1,1.337.906c.21.5.786.626,1.4.626a1.338,1.338,0,0,0,1.347-.645,1.495,1.495,0,0,1,2.772-.025,1.245,1.245,0,0,0,1.272.67,1.4,1.4,0,0,0,1.361-1.167Zm-10.827,15a.75.75,0,1,1,0-1.5h7.5a.75.75,0,1,1,0,1.5ZM1154,30.013a3.5,3.5,0,0,0,1.506-.528l-.008,9.028h13V29.484a3.431,3.431,0,0,0,1.492.529l0,8.6a1.386,1.386,0,0,1-1.373,1.4h-13.3a1.348,1.348,0,0,1-1.327-1.4h.02Z" transform="translate(-1130.988 -0.003)" fill="#6f7882"/>
    <path id="ic-header-activity.svg" d="M1216.526,27h-4.009l2.37-5.972a1.5,1.5,0,0,0-.577-1.793,1.517,1.517,0,0,0-1.876.2l-10,10.827a1.753,1.753,0,0,0-.318,1.781,1.486,1.486,0,0,0,1.378.92h4.089l-2.481,5.988a1.493,1.493,0,0,0,1.391,2.035,1.481,1.481,0,0,0,1.062-.445l10.026-10.819a1.63,1.63,0,0,0,.441-1.122A1.593,1.593,0,0,0,1216.526,27Zm-10.018,12.477,3.345-7.973h-6.327l9.973-11.012-3.361,7.984h6.336Z" transform="translate(-1151.997 1.002)" fill="#6f7882"/>
    <path id="ic-header-cart.svg" d="M1263.115,34.889a1.366,1.366,0,0,1-1.34,1.105h-11.551a1.366,1.366,0,0,1-1.34-1.105l-2.615-13.227s-2.378-.173-1.585-.173c-.3,0-.682.054-.682-.748s.384-.746.707-.746l2.455.021a.534.534,0,0,1,.523.431l.664,3.542c2.326,0,15.282.028,15.282.028a1.41,1.41,0,0,1,1.34,1.654Zm-14.5-9.388,1.664,8.977h11.438l1.726-8.977Zm3.884,12.53a1.5,1.5,0,1,1-1.5,1.5A1.5,1.5,0,0,1,1252.5,38.031Zm7-.015a1.5,1.5,0,1,1-1.5,1.5A1.5,1.5,0,0,1,1259.5,38.015Z" transform="translate(-1174.002 0.005)" fill="#6f7882"/>
  </g>
</svg>
