<svg xmlns="http://www.w3.org/2000/svg" xmlns:xlink="http://www.w3.org/1999/xlink" width="100" height="100" viewBox="0 0 100 100">
  <defs>
    <clipPath id="clip-custom_1">
      <rect width="100" height="100"/>
    </clipPath>
  </defs>
  <g id="custom_1" data-name="custom – 1" clip-path="url(#clip-custom_1)">
    <path id="ic-fancy.svg" d="M211,879.045a.92.92,0,0,1-.92.92h-2.082s-.094,3.993-.094,2.781a1.408,1.408,0,0,1-2.8,0c0,1.173-.094-2.781-.094-2.781H202.92a.92.92,0,0,1-.92-.92v-4.58h0a4.5,4.5,0,0,1,9,0h0Z" transform="translate(-202 -869.991)" fill="#3d4956"/>
    <path id="ic-fancyd.svg" d="M211,879.045a.92.92,0,0,1-.92.92h-2.082s-.094,3.993-.094,2.781a1.408,1.408,0,0,1-2.8,0c0,1.173-.094-2.781-.094-2.781H202.92a.92.92,0,0,1-.92-.92v-4.58h0a4.5,4.5,0,0,1,9,0h0Z" transform="translate(-192 -869.991)" fill="#fff"/>
    <path id="ic-arrow-right.svg" d="M1362.835,1161.916l-3.856,3.918a.582.582,0,0,1-.823-.823l3.453-3.509-3.453-3.537a.582.582,0,0,1,.823-.823l3.856,3.95A.581.581,0,0,1,1362.835,1161.916Z" transform="translate(-1327.986 -1156.973)" fill="#2e363e"/>
    <path id="ic-arrow-left.svg" d="M1342.875,1157.966l-3.453,3.537,3.453,3.509a.582.582,0,0,1-.823.823l-3.856-3.918a.581.581,0,0,1,0-.822l3.856-3.95a.582.582,0,0,1,.823.823Z" transform="translate(-1318.026 -1156.973)" fill="#2e363e"/>
    <path id="ic-more.svg" d="M586,877.5a1.5,1.5,0,1,1,1.5,1.5A1.5,1.5,0,0,1,586,877.5Zm-5,0a1.5,1.5,0,1,1,1.5,1.5A1.5,1.5,0,0,1,581,877.5Zm-5,0a1.5,1.5,0,1,1,1.5,1.5A1.5,1.5,0,0,1,576,877.5Z" transform="translate(-536 -876)" fill="#3d4956"/>
    <path id="ic-dropdown.svg" d="M1364.825,761.948l-2.95,2.95a.582.582,0,0,1-.823,0l-2.95-2.95a.582.582,0,1,1,.823-.823l2.538,2.539,2.539-2.539a.582.582,0,0,1,.823.823Z" transform="translate(-1317.932 -755.954)" fill="#3d4956"/>
    <path id="ic-dismiss.svg" d="M1360.67,475.5l3.119,3.219a.746.746,0,1,1-1.055,1.055l-3.223-3.326-3.254,3.326a.746.746,0,0,1-1.055-1.055l3.15-3.219-3.15-3.253a.746.746,0,0,1,1.055-1.055l3.254,3.361,3.223-3.361a.746.746,0,0,1,1.055,1.055Z" transform="translate(-1299.983 -470.978)" fill="#3d4956"/>
    <path id="ic-follow.svg" d="M1293,1661h-3v3a1,1,0,1,1-2,0v-3h-3a1,1,0,0,1,0-2h3v-3a1,1,0,0,1,2,0v3h3a1,1,0,0,1,0,2Z" transform="translate(-1284 -1635)" fill="#fff"/>
    <path id="more-copy.svg" d="M685.75,499.084l-1.733,1.723a.573.573,0,0,1-.792,0,.559.559,0,0,1,0-.79l1.736-1.727a3.034,3.034,0,0,0-4.3-4.279l-1.718,1.724a.573.573,0,0,1-.793,0,.56.56,0,0,1,0-.79l1.719-1.725A4.129,4.129,0,0,1,682.8,492h.022a4.15,4.15,0,0,1,2.925,7.084Zm-3.372-3.109a.629.629,0,0,1,.445.183.625.625,0,0,1,0,.887l-4.778,4.757a.628.628,0,1,1-.891-.887l4.778-4.757A.63.63,0,0,1,682.379,495.975Zm-7.39,3.723a3.03,3.03,0,0,0,0,4.3,3.056,3.056,0,0,0,4.314-.005l1.725-1.725a.558.558,0,0,1,.394-.164h0a.557.557,0,0,1,.4.951l-1.724,1.724A4.162,4.162,0,0,1,677.142,506h0a4.149,4.149,0,0,1-2.948-7.084l1.74-1.724a.561.561,0,0,1,.794,0,.555.555,0,0,1,0,.788Z" transform="translate(-631.983 -452.001)" fill="#222b3d" opacity="0.851"/>
    <path id="more-share.svg" d="M687.918,348.919l-5.192,13.193a1.4,1.4,0,0,1-1.216.883l-.058,0h-.032a1.452,1.452,0,0,1-1.245-.737l-2.245-4.149-.317-.586-.174-.195-.57-.293-4.163-2.14a1.433,1.433,0,0,1-.715-1.322,1.405,1.405,0,0,1,.888-1.221l13.207-5.256a1.354,1.354,0,0,1,.5-.1,1.425,1.425,0,0,1,.993.408A1.4,1.4,0,0,1,687.918,348.919Zm-1.138-.686a.272.272,0,0,0-.19-.081.207.207,0,0,0-.078.014L673.3,353.424a.261.261,0,0,0-.166.226.275.275,0,0,0,.142.251l4.029,2.07,6.44-4.931a.162.162,0,0,1,.227.23l-4.987,6.382,2.2,4.061a.282.282,0,0,0,.234.135.261.261,0,0,0,.241-.167l5.188-13.182A.248.248,0,0,0,686.78,348.234Z" transform="translate(-651.98 -327.003)" fill="#222b3d" opacity="0.851"/>
    <path id="more-wishlist.svg" d="M676.058,435.191a2.773,2.773,0,0,1,2.423,1.389L679.5,438.3l1.037-1.713a2.69,2.69,0,0,1,2.37-1.4c1.529,0,2.685,1.273,2.849,3.077l0,.045.005.033a3.367,3.367,0,0,1-.112,1.132,5.474,5.474,0,0,1-1.694,2.843l-4.491,4.055-4.467-4.054a5.542,5.542,0,0,1-1.732-2.845,3.374,3.374,0,0,1-.112-1.126l.007-.042,0-.042a3.069,3.069,0,0,1,2.884-3.077m0-1.2c-2.141,0-3.816,1.755-4.036,4.173a3.867,3.867,0,0,0,.092,1.586,6.8,6.8,0,0,0,2.083,3.478l5.274,4.79,5.3-4.79a6.8,6.8,0,0,0,2.083-3.478,4.316,4.316,0,0,0,.128-1.586,4.266,4.266,0,0,0-4.072-4.173,3.933,3.933,0,0,0-3.4,2,4.014,4.014,0,0,0-3.456-2Z" transform="translate(-651.98 -393.989)" fill="#222b3d" opacity="0.851"/>
    <g id="List" transform="translate(-632.957 -368.035)">
      <path id="_" data-name="#" d="M689,393.815l-.87,8.474a1.866,1.866,0,0,1-2.04,1.686l-6.463-.69a1.884,1.884,0,0,1-1.654-2.08L678,401h1.194l-.007.069a.884.884,0,0,0,.776.976l6.063.647a.875.875,0,0,0,.957-.791l.816-7.949a.884.884,0,0,0-.776-.976L683,392.548v-1.277l4.347.464A1.885,1.885,0,0,1,689,393.815Z" fill="#9398a1"/>
      <path id="_2" data-name="#" d="M683.189,401.238l-7.048.743a2.029,2.029,0,0,1-2.224-1.817l-.949-9.133a2.037,2.037,0,0,1,1.8-2.242l7.048-.744a2.029,2.029,0,0,1,2.224,1.817l.948,9.133A2.037,2.037,0,0,1,683.189,401.238Zm-.388-10.976a.955.955,0,0,0-1.048-.856l-6.639.7a.959.959,0,0,0-.849,1.056l.893,8.6a.956.956,0,0,0,1.048.856l6.639-.7a.959.959,0,0,0,.849-1.056Z" fill="#434b5a"/>
    </g>
    <path id="check" d="M324.7,250.577l-5.416,6.32a.981.981,0,0,1-1.345,0l-2.679-2.677a.931.931,0,1,1,1.316-1.315l2,2,4.821-5.625a.922.922,0,0,1,1.306,1.3Z" transform="translate(-314.972 -209.006)" fill="#fff" fill-rule="evenodd"/>
    <path id="more-wishlist.svg" d="M676.058,433.989c-2.141,0-3.816,1.755-4.036,4.173a3.867,3.867,0,0,0,.092,1.586,6.8,6.8,0,0,0,2.083,3.478l5.274,4.79,5.3-4.79a6.8,6.8,0,0,0,2.083-3.478,4.316,4.316,0,0,0,.128-1.586,4.266,4.266,0,0,0-4.072-4.173,3.933,3.933,0,0,0-3.4,2,4.014,4.014,0,0,0-3.456-2Z" transform="translate(-611.98 -393.989)" fill="#222b3d" opacity="0.851"/>
  </g>
  <g><path id="more-fancyd.svg" class="cls-1" d="M646.512,363.987a2.5,2.5,0,0,1-2.5-2.5v-2.526l-1.37,0A1.643,1.643,0,0,1,641,357.32l0-4.858a5.505,5.505,0,0,1,11.01,0l0,4.861a1.643,1.643,0,0,1-1.641,1.641l-1.362,0v2.526A2.5,2.5,0,0,1,646.512,363.987Zm0-15.708a4.221,4.221,0,0,0-4.209,4.187l0,4.854a0.346,0.346,0,0,0,.345.345l2.79,0v3.821a1.078,1.078,0,1,0,2.156,0v-3.821l2.782,0a0.346,0.346,0,0,0,.345-0.345l0-4.857A4.219,4.219,0,0,0,646.51,348.279Z" transform="translate(-581 -326.969)" fill="#222b3d" opacity="0.85"/></g>
  <g><path id="ic_checkmark.svg" fill="#fff" d="M47.544,32.108a0.919,0.919,0,0,0-1.255.336L41.883,39.62,39.6,37.276a0.919,0.919,0,1,0-1.34,1.257l3.2,3.186a0.917,0.917,0,0,0,1.3.042c0.112-.1,5.127-8.4,5.127-8.4A0.921,0.921,0,0,0,47.544,32.108Z" transform="translate(38 -31.969)"/></g>
  <g><path id="ic-arrow-right_white.svg" d="M1365.835,476.916l-3.856,3.919a.582.582,0,0,1-.823-.823l3.453-3.509-3.453-3.537a.582.582,0,1,1,.823-.823l3.856,3.95A.581.581,0,0,1,1365.835,476.916Z" transform="translate(-1285.986 -451.973)" fill="#fff"/></g>
</svg>
