<svg width="148" height="118" viewBox="0 0 148 118" fill="none" xmlns="http://www.w3.org/2000/svg">
<path d="M146.282 9.4016C146.282 9.4016 128.461 2.45953 115.049 2.65875C101.637 2.85797 62.7733 17.5237 46.5239 17.8149C30.2746 18.106 12.0622 17.4241 8.34302 15.7613C4.62384 14.0986 3.35089 18.696 3.35089 18.696L3.15918 81.8873V108.2C3.15918 108.2 14.4164 115.441 31.7393 115.341C49.0622 115.241 80.817 105.165 88.9762 102.721C97.1353 100.277 118.116 95.3884 130.025 99.2042C141.934 103.02 145.791 108.399 145.592 100.737C145.393 93.0743 146.282 9.4016 146.282 9.4016Z" fill="#2A94F4"/>
<path d="M12.1162 60.8082C12.1162 60.8082 18.6727 65.306 20.191 68.6315C21.7094 71.9569 25.6739 75.4356 29.2934 75.2364C32.9129 75.0372 55.9257 72.1102 65.2198 68.6315C76.3784 64.7001 87.8613 61.7567 99.5359 59.8351C109.175 58.4099 119.067 58.4099 121.851 58.1187C124.635 57.8276 126.061 58.6551 127.088 55.4752C128.116 52.2954 131.989 49.0235 133.844 49.3454L135.708 49.6365L134.58 24.3508C134.58 24.3508 131.889 24.5041 129.098 21.125C126.306 17.7459 125.969 13.2021 120.241 12.7654C114.512 12.3286 96.1081 14.4281 83.4783 19.1174C70.8484 23.8068 53.6712 27.048 50.2435 27.2395C46.8157 27.4311 27.6064 29.362 25.8196 29.362C24.0329 29.362 22.5912 34.2506 18.3276 35.9669C14.064 37.6833 12.653 38.5874 12.7987 43.8285C12.9444 49.0695 12.1162 60.8082 12.1162 60.8082Z" fill="#CCE9FF"/>
<path d="M146.605 7.61643C121.974 -6.01487 97.3888 1.53253 73.5325 8.8424C49.6761 16.1523 27.085 23.102 4.27922 10.4745C3.90505 10.2675 3.48323 10.1618 3.05558 10.1679C2.62793 10.174 2.2093 10.2917 1.84119 10.5093C1.47308 10.7268 1.16829 11.0368 0.957016 11.4084C0.745743 11.7799 0.635334 12.2002 0.636732 12.6276V108.039C0.636671 108.477 0.753989 108.907 0.976498 109.284C1.19901 109.661 1.51858 109.972 1.90201 110.184C11.0194 115.252 21.2997 117.861 31.7321 117.755C46.302 117.755 60.7876 113.318 74.9741 108.959C98.8612 101.633 121.422 94.7066 144.227 107.326C144.601 107.536 145.024 107.643 145.452 107.639C145.881 107.634 146.3 107.516 146.669 107.298C147.038 107.08 147.343 106.769 147.554 106.396C147.765 106.023 147.874 105.602 147.87 105.173V9.76188C147.869 9.32412 147.751 8.89448 147.529 8.51733C147.307 8.14018 146.987 7.82918 146.605 7.61643ZM142.962 81.1059C119.62 70.1105 96.507 77.1368 75.9864 83.4046L77.451 88.1169C97.7109 81.9181 120.624 74.953 142.985 86.5845V91.1129C135.323 87.5016 126.979 85.561 118.508 85.4198L118.385 90.3237C126.962 90.4646 135.387 92.6112 142.985 96.5915V101.143C119.566 90.1092 96.2079 97.3118 73.5555 104.208C50.1132 111.41 27.9439 118.207 5.56751 106.507V101.909C13.2305 105.52 21.5739 107.463 30.045 107.61L30.1677 102.706C21.5884 102.558 13.1632 100.404 5.56751 96.4153V91.9481C13.8109 95.813 22.8184 97.777 31.9238 97.6949C46.0873 97.6949 59.8137 93.4959 72.5663 89.6111L71.1246 84.9218C46.6701 92.4002 26.2415 97.1815 5.59051 86.4542V81.9334C6.9606 82.5771 8.33069 83.1569 9.70077 83.6728C10.1225 83.8337 10.5366 83.964 10.9584 84.1172C11.9093 84.4543 12.8602 84.7762 13.811 85.0597C14.3248 85.2129 14.8309 85.3508 15.3447 85.4888C16.2112 85.7186 17.0778 85.9408 17.9443 86.1324L19.5317 86.4619C20.3956 86.6202 21.2622 86.7658 22.1312 86.8986C22.6374 86.9753 23.1435 87.0519 23.6649 87.1132C24.6081 87.2358 25.5513 87.3201 26.4946 87.389C26.9163 87.389 27.3304 87.4733 27.7522 87.4963C29.0865 87.5729 30.4208 87.6189 31.7551 87.6189H31.7934C33.4728 87.6189 35.1522 87.5499 36.8239 87.435C37.3147 87.435 37.8054 87.3507 38.2962 87.3047C39.5001 87.2051 40.6964 87.0902 41.8927 86.937L43.5644 86.7147C44.7607 86.5462 45.9569 86.3469 47.1455 86.1401L48.5949 85.8949C51.9306 85.2589 55.251 84.485 58.5638 83.5962L60.0361 83.2054L63.6326 82.2246L65.2813 81.7495L68.8931 80.6845L70.2734 80.2707L75.0201 78.8225L79.3988 77.4816C80.3957 77.1751 81.3849 76.884 82.3741 76.5928L83.7698 76.1714L86.4154 75.4051C86.9905 75.2366 87.5656 75.068 88.1331 74.9147L90.6483 74.2405L92.4734 73.7501C93.2863 73.5432 94.0914 73.3593 94.9043 73.1677C95.5408 73.0145 96.1696 72.8536 96.8061 72.708C97.5729 72.5318 98.3934 72.3708 99.1833 72.2176C99.8274 72.0873 100.464 71.9417 101.1 71.8192C101.867 71.6736 102.634 71.551 103.455 71.4207C104.099 71.3134 104.743 71.1908 105.395 71.0912C106.161 70.984 106.928 70.8997 107.695 70.8077C108.347 70.7234 109.006 70.6315 109.658 70.5625C110.31 70.4936 111.192 70.4476 111.959 70.394C112.726 70.3403 113.278 70.2943 113.937 70.2637C114.597 70.233 115.433 70.2637 116.176 70.2254C116.92 70.1871 117.518 70.2254 118.186 70.2254C118.853 70.2254 119.658 70.2943 120.394 70.3403C121.13 70.3863 121.751 70.4093 122.426 70.4706C123.101 70.5319 123.883 70.6392 124.612 70.7311C125.34 70.8231 125.977 70.9073 126.667 71.0223C127.357 71.1372 128.108 71.2981 128.822 71.4514C129.535 71.6046 130.21 71.7349 130.9 71.9034C131.59 72.072 132.326 72.3019 133.032 72.5088C133.737 72.7157 134.443 72.9225 135.14 73.1601C135.838 73.3976 136.544 73.6734 137.241 73.9263C137.939 74.1792 138.668 74.4703 139.381 74.7845C140.094 75.0986 140.761 75.4281 141.451 75.7653C141.973 76.0105 142.487 76.271 142.985 76.5315L142.962 81.1059ZM142.962 71.0299C142.793 70.9456 142.625 70.892 142.471 70.8154C141.781 70.5012 141.099 70.2254 140.409 69.9419C139.596 69.6047 138.775 69.2523 137.955 68.9611C137.272 68.7159 136.582 68.5014 135.9 68.2715C135.079 68.011 134.258 67.7505 133.446 67.5053C132.755 67.3214 132.073 67.1605 131.391 66.9995C130.57 66.808 129.742 66.6164 128.937 66.4555C128.254 66.3253 127.572 66.2103 126.897 66.1107C126.069 65.9805 125.24 65.8655 124.42 65.7659C123.745 65.6893 123.07 65.628 122.395 65.5743C121.567 65.5054 120.739 65.4441 119.911 65.4134C119.236 65.4134 118.569 65.3598 117.902 65.3521H115.402C114.735 65.3521 114.075 65.3521 113.416 65.4134C112.572 65.4134 111.736 65.4977 110.893 65.5667C110.241 65.6127 109.589 65.6663 108.93 65.7353C108.086 65.8195 107.235 65.9192 106.392 66.0264L104.459 66.2716C103.6 66.4019 102.741 66.5475 101.89 66.693C101.261 66.8003 100.633 66.9076 100.004 67.0302C99.1296 67.1911 98.263 67.375 97.3965 67.5589C96.783 67.6892 96.1696 67.8041 95.5561 67.9497C94.6666 68.1489 93.7847 68.3634 92.9028 68.578L91.1161 69.0147C90.2036 69.2446 89.2987 69.4898 88.3938 69.735L86.6914 70.1947C85.7406 70.4553 84.7897 70.7311 83.8465 71.0069C83.325 71.1525 82.7959 71.2981 82.3128 71.459C81.2392 71.7655 80.1656 72.095 79.0997 72.4168L77.9265 72.7616L73.5862 74.0949L69.1385 75.4511L68.8164 75.5507L64.7522 76.7767L63.6326 77.0985C62.5437 77.4127 61.4701 77.7268 60.3889 78.0257C59.8981 78.1636 59.4303 78.2708 58.9549 78.4088C57.981 78.6769 57.0148 78.9375 56.0485 79.175C55.5194 79.3129 54.9903 79.4202 54.4612 79.5658C53.5486 79.788 52.6361 80.0102 51.7236 80.2171C51.1561 80.3473 50.5886 80.4623 50.0212 80.5772C49.1547 80.7611 48.2881 80.9527 47.4293 81.1136C46.8235 81.2285 46.2253 81.3204 45.6272 81.4201C44.799 81.5656 43.9708 81.7112 43.1426 81.8338C42.5215 81.9258 41.9157 81.9871 41.2869 82.0714C40.52 82.171 39.6765 82.2782 38.8713 82.3549C38.2349 82.4162 37.5984 82.4545 36.9619 82.5005C36.1951 82.5541 35.4282 82.6154 34.6154 82.6537C33.9636 82.6537 33.3194 82.6537 32.6676 82.6537C31.9008 82.6537 31.1339 82.6537 30.3671 82.6537C29.6002 82.6537 29.0558 82.5924 28.404 82.5541C27.7522 82.5158 26.8703 82.4851 26.1035 82.4162C25.3366 82.3472 24.7692 82.2553 24.102 82.171C23.4349 82.0867 22.6143 81.9871 21.8705 81.8568C21.1267 81.7266 20.5209 81.5963 19.8461 81.4584C19.1712 81.3204 18.4044 81.2208 17.6376 81.014C16.8707 80.8071 16.2803 80.6308 15.6054 80.4316C14.9306 80.2324 14.1331 80.0025 13.4123 79.7573C12.6914 79.5121 12.0396 79.2516 11.3571 78.9911C10.6747 78.7306 9.91549 78.4318 9.20233 78.1559C8.48917 77.8801 7.82968 77.5123 7.1472 77.1751C6.62575 76.9299 6.11196 76.6618 5.61352 76.4089V16.635C29.0328 27.6688 52.3907 20.4662 75.0432 13.5701C98.4548 6.37513 120.624 -0.413701 143 11.2714L142.962 71.0299Z" fill="#0B4870"/>
<path d="M73.5324 18.8955C56.9073 23.9986 39.7071 29.2703 23.0744 26.8797C22.726 26.8293 22.3709 26.8541 22.033 26.9525C21.6951 27.0509 21.3822 27.2205 21.1154 27.45C20.8487 27.6795 20.6343 27.9634 20.4868 28.2827C20.3392 28.602 20.2619 28.9493 20.2601 29.301C20.3022 30.2341 20.1243 31.1641 19.7406 32.0159C19.357 32.8677 18.7785 33.6175 18.0516 34.2049C17.4205 34.6384 16.6923 34.9099 15.9313 34.9954C15.1703 35.0809 14.3999 34.9778 13.6882 34.6952C13.3183 34.5734 12.9249 34.5404 12.5398 34.599C12.1547 34.6575 11.7889 34.806 11.4721 35.0324C11.1546 35.2601 10.8963 35.5605 10.7188 35.9084C10.5414 36.2564 10.4499 36.6417 10.4522 37.0323V62.1341C10.458 62.6442 10.6229 63.1398 10.9239 63.5518C11.225 63.9638 11.6471 64.2718 12.1316 64.4328C14.345 65.0841 16.3082 66.3919 17.7612 68.1831C19.2141 69.9742 20.0882 72.1641 20.2677 74.4628C20.2687 75.052 20.4814 75.6213 20.867 76.067C21.2526 76.5128 21.7855 76.8055 22.3689 76.8917C25.4578 77.3282 28.574 77.5433 31.6936 77.5354C46.2636 77.5354 60.8335 73.0759 74.9664 68.739C91.5915 63.6359 108.776 58.3719 125.409 60.7548C125.757 60.812 126.113 60.7908 126.451 60.6927C126.789 60.5946 127.102 60.4221 127.365 60.1878C127.632 59.9571 127.847 59.6712 127.994 59.3499C128.141 59.0285 128.216 58.6792 128.216 58.3259C128.176 57.3924 128.356 56.4626 128.741 55.611C129.126 54.7595 129.705 54.0098 130.432 53.422C131.066 52.9915 131.795 52.7219 132.557 52.6364C133.318 52.551 134.089 52.6523 134.803 52.9316C135.169 53.0535 135.56 53.0871 135.942 53.0298C136.324 52.9725 136.687 52.8259 137.002 52.6019C137.316 52.3778 137.573 52.0827 137.752 51.7406C137.931 51.3984 138.027 51.0189 138.031 50.6329V25.5311C138.025 25.021 137.861 24.5254 137.56 24.1134C137.258 23.7013 136.836 23.3934 136.352 23.2324C134.138 22.5811 132.175 21.2732 130.722 19.4821C129.269 17.6909 128.395 15.501 128.216 13.2024C128.215 12.6132 128.002 12.0439 127.616 11.5981C127.231 11.1523 126.698 10.8597 126.115 10.7734C108.393 8.2142 90.6559 13.6621 73.5094 18.9261L73.5324 18.8955ZM24.9915 72.3097C24.4671 69.6997 23.3138 67.2568 21.6315 65.1927C19.9492 63.1285 17.7887 61.5053 15.337 60.4637V39.9286C17.3272 39.9641 19.2752 39.3538 20.8889 38.1893C22.9064 36.6914 24.3122 34.5136 24.8458 32.0594C37.2916 33.339 49.722 30.8641 61.9301 27.462C57.2213 33.5969 54.647 41.1009 54.5991 48.8323C54.5991 56.7091 57.3904 63.2758 62.2675 66.8464C62.4822 67.0073 62.72 67.1222 62.9423 67.2678C50.3048 70.8921 37.4756 73.6889 24.9761 72.325L24.9915 72.3097ZM73.517 64.088C72.1341 64.5799 70.6517 64.7268 69.199 64.5158C67.7462 64.3048 66.3671 63.7423 65.1815 62.8773C61.6387 60.2798 59.5222 55.0234 59.5222 48.8169C59.5222 37.5763 66.4238 26.259 74.9817 23.5772C75.995 23.2486 77.0528 23.078 78.1181 23.0715C79.9892 23.0648 81.8117 23.6673 83.3096 24.7878C86.8524 27.3777 88.9689 32.6417 88.9689 38.8482C88.9689 50.0889 82.0673 61.4062 73.5094 64.088H73.517ZM123.515 15.3555C124.037 17.9631 125.187 20.4044 126.865 22.4684C128.543 24.5323 130.699 26.1568 133.146 27.2015V47.7365C131.153 47.6927 129.2 48.3037 127.587 49.4759C125.572 50.975 124.169 53.1527 123.638 55.6058C111.184 54.3262 98.7614 56.7934 86.5533 60.2032C91.2592 54.0666 93.833 46.5636 93.8843 38.8329C93.8843 30.9484 91.093 24.3894 86.2159 20.8187C86.0012 20.6578 85.7788 20.5352 85.5564 20.3897C98.1786 16.7654 110.992 13.9686 123.507 15.3402L123.515 15.3555Z" fill="#0B4870"/>
<path d="M74.9746 36.1356C75.1862 36.0458 75.4152 36.0047 75.6449 36.0153C75.8745 36.0259 76.0988 36.088 76.3012 36.1969C76.4465 36.3425 76.5581 36.518 76.6283 36.7113C76.6985 36.9045 76.7256 37.1108 76.7076 37.3156H81.6154C81.6427 36.3432 81.4395 35.3782 81.0224 34.4993C80.6053 33.6204 79.986 32.8526 79.2152 32.2584C78.4737 31.7176 77.6143 31.3604 76.7076 31.2164V28.7644H71.7999V32.2278C70.3669 33.0516 69.1656 34.2239 68.3076 35.6358C67.4496 37.0478 66.9627 38.6535 66.8921 40.3039C66.8648 41.2773 67.0679 42.2434 67.485 43.1236C67.9021 44.0037 68.5213 44.773 69.2923 45.3687C70.1129 45.9328 71.0548 46.2961 72.0419 46.4292C73.0291 46.5623 74.0337 46.4615 74.9746 46.1349C75.1862 46.0451 75.4152 46.004 75.6449 46.0147C75.8745 46.0253 76.0988 46.0873 76.3012 46.1962C76.4456 46.3424 76.5567 46.5181 76.6269 46.7112C76.697 46.9042 76.7246 47.1102 76.7076 47.3149C76.6408 48.2446 76.3052 49.1348 75.7416 49.8775C75.178 50.6202 74.4107 51.1834 73.5329 51.4986C73.3213 51.5883 73.0922 51.6294 72.8626 51.6188C72.633 51.6082 72.4087 51.5462 72.2063 51.4373C72.0597 51.2926 71.9472 51.1172 71.8769 50.9237C71.8066 50.7302 71.7803 50.5235 71.7999 50.3186H66.8921C66.8647 51.2909 67.068 52.2559 67.4851 53.1348C67.9022 54.0137 68.5215 54.7816 69.2923 55.3757C70.0355 55.9135 70.8942 56.2704 71.7999 56.4178V58.8697H76.6846V55.391C78.119 54.5689 79.3214 53.397 80.1797 51.9847C81.0379 50.5724 81.5239 48.9658 81.5924 47.3149C81.6197 46.3415 81.4166 45.3754 80.9995 44.4952C80.5824 43.6151 79.9631 42.8459 79.1922 42.2501C78.3748 41.6796 77.4344 41.3095 76.4472 41.1697C75.46 41.03 74.4538 41.1245 73.5099 41.4456C73.2983 41.5353 73.0692 41.5765 72.8396 41.5658C72.61 41.5552 72.3857 41.4932 72.1833 41.3843C72.0382 41.2402 71.9266 41.0659 71.8563 40.8739C71.7861 40.6819 71.759 40.4769 71.7769 40.2732C71.8479 39.3458 72.1853 38.4585 72.7484 37.7178C73.3115 36.9771 74.0765 36.4144 74.9516 36.0973L74.9746 36.1356Z" fill="#0B4870"/>
<path d="M34.8836 102.721L35.0984 107.625C48.5027 107.027 61.9377 102.89 74.974 98.8977C87.6959 94.9976 100.847 90.9595 113.623 90.3849L113.408 85.481C100.004 86.0786 86.5686 90.2086 73.5324 94.2084C60.8028 98.1085 47.6515 102.147 34.876 102.721H34.8836Z" fill="#0B4870"/>
</svg>
