<svg xmlns="http://www.w3.org/2000/svg" xmlns:xlink="http://www.w3.org/1999/xlink" width="200" height="200" viewBox="0 0 200 200">
  <defs>
    <clipPath id="clip-path">
      <path id="_" data-name="#" d="M1097.018,352.932a9.993,9.993,0,0,1,16.607-7.507l-2.911,2.912a5.788,5.788,0,0,0-3.685-1.319,6.01,6.01,0,0,0-6.04,5.914,6.228,6.228,0,0,0,6.165,6.04c2.776,0,5.18-1.535,5.681-3.992H1107v-3.992h9.8a9.5,9.5,0,0,1,.227,1.945,9.685,9.685,0,0,1-9.867,10.01A10.088,10.088,0,0,1,1097.018,352.932Z" fill="#34a852"/>
    </clipPath>
    <clipPath id="clip-custom_1">
      <rect width="200" height="200"/>
    </clipPath>
  </defs>
  <g id="custom_1" data-name="custom – 1" clip-path="url(#clip-custom_1)">
    <path id="Facebook" d="M1165.75,512h-19.5a2.251,2.251,0,0,0-2.25,2.251v19.5a2.251,2.251,0,0,0,2.25,2.251h10.761v-8.969h-3v-3.074h3V522c0-2.89,1.482-4.042,4.06-4.042,1.43,0,1.95.021,1.94.011v3.053h-1.358c-1.4,0-1.661.62-1.661,1.6v1.341h3l-.435,3.074h-2.569V536h5.757a2.251,2.251,0,0,0,2.25-2.251v-19.5A2.251,2.251,0,0,0,1165.75,512Z" transform="translate(-1144 -512)" fill="#2487e0"/>
    <path id="Twitter" d="M1211.75,566h-19.5a2.253,2.253,0,0,1-2.25-2.251v-19.5a2.253,2.253,0,0,1,2.25-2.251h19.5a2.253,2.253,0,0,1,2.25,2.251v19.5A2.253,2.253,0,0,1,1211.75,566Zm-17.163-7.313h0a8.722,8.722,0,0,0,4.75,1.377,8.495,8.495,0,0,0,8.681-8.667c0-.127,0-.312-.009-.451a6.116,6.116,0,0,0,1.6-1.537,5.608,5.608,0,0,1-1.7.41,3.126,3.126,0,0,0,1.363-1.731,6.156,6.156,0,0,1-1.968.76,3.129,3.129,0,0,0-5.334,2.117c0,.12,0,.184,0,.24s0,.125,0,.254a8.411,8.411,0,0,1-6.341-3.027,3.149,3.149,0,0,0,.958,4.176,3.067,3.067,0,0,1-1.4-.392c0,.013,0,.026,0,.04a3.036,3.036,0,0,0,2.486,2.975,3.1,3.1,0,0,1-.816.11,3.048,3.048,0,0,1-.583-.057,3.016,3.016,0,0,0,2.894,2.079,6.156,6.156,0,0,1-3.849,1.367A6.281,6.281,0,0,1,1194.587,558.688Z" transform="translate(-1160 -542)" fill="#2487e0"/>
    <path id="Google" d="M1257.75,536h-19.5A2.253,2.253,0,0,1,1236,533.75v-19.5a2.253,2.253,0,0,1,2.251-2.251h19.5a2.253,2.253,0,0,1,2.25,2.251v19.5A2.253,2.253,0,0,1,1257.75,536Zm-11.636-17.042a5,5,0,0,0-5.146,4.964,5.152,5.152,0,0,0,5.146,5.145,4.621,4.621,0,0,0,4.91-4.853c0-.043,0-.094,0-.147v-.007l0-.061H1251v-.422c-.015-.249-.036-.462-.057-.585H1246v1.991h2.963a2.774,2.774,0,0,1-2.942,2.011,3,3,0,0,1-2.143-.893,3.069,3.069,0,0,1-.887-2.176,2.913,2.913,0,0,1,3.03-2.924,3.283,3.283,0,0,1,2.137.569l1.294-1.336A4.658,4.658,0,0,0,1246.114,518.959ZM1254,524v1h1v-1h1v-1h-1v-1h-1v1h-1v1Z" transform="translate(-1176 -512)" fill="#2487e0"/>
    <path id="Gmail" d="M1282.053,562.982v-.024h-.047V545.014h23.989v.044h0v17.763h0v.136h-20.983v.024Zm20.957-.915V551.053l1.408-1.947-1.97,1.425v-.007l-1.678,1.219-2.176,1.574v.008l-4.557,3.314-4.579-3.314,0-.008-2.177-1.574-1.678-1.219v.007l-1.969-1.425,1.376,1.947v11.013Zm-8.975-10.088,8.379-6.073h-16.775Zm1.227,4.663.951-.962,4.7,4.64Zm-3.476-1.087,1.12,1.125-5.729,3.64Z" transform="translate(-1282.006 -515.014)" fill="#2487e0"/>
    <path id="ic-facebook.scg" d="M1117,310.666a2.226,2.226,0,0,1-2.334,2.334l-4.663-.022v-8.051h2.517v0h.016l.376-2.919h-2.924V300.4c0-.685.156-1.285.861-1.451a16.223,16.223,0,0,0,2.146.038V296.1c-.377-.039-1.862-.114-2.241-.113h0c-2.224,0-3.74,1.638-3.74,4.128v1.9H1104v2.919h3.01v8.051l-8.677.022a2.226,2.226,0,0,1-2.334-2.334V294.334a2.226,2.226,0,0,1,2.334-2.334h16.333a2.226,2.226,0,0,1,2.334,2.334Z" transform="translate(-1096 -222)" fill="#fff"/>
    <g id="ic-google.svg" transform="translate(-1007.018 -342.923)">
      <g id="_2" data-name="#">
        <path id="_3" data-name="#" d="M1097.018,352.932a9.993,9.993,0,0,1,16.607-7.507l-2.911,2.912a5.788,5.788,0,0,0-3.685-1.319,6.01,6.01,0,0,0-6.04,5.914,6.228,6.228,0,0,0,6.165,6.04c2.776,0,5.18-1.535,5.681-3.992H1107v-3.992h9.8a9.5,9.5,0,0,1,.227,1.945,9.685,9.685,0,0,1-9.867,10.01A10.088,10.088,0,0,1,1097.018,352.932Z" fill="#34a852"/>
        <g id="Clip" clip-path="url(#clip-path)">
          <path id="_4" data-name="#" d="M1118.179,363.908l-14.213-11-1.834-1.376,16.047-4.585Z" fill="#4285f4"/>
          <path id="_5" data-name="#" d="M1096.172,358.865v-11.92l7.794,5.96Z" fill="#fabb05"/>
          <path id="_6" data-name="#" d="M1118.179,348.32l-11,1.788-3.209,3.329-7.794-5.96V341.9h22.007Z" fill="#ea4335"/>
        </g>
      </g>
    </g>
    <path id="ic-twitter.svg" d="M1262.981,346.834a8.1,8.1,0,0,1-2.326.638,4.439,4.439,0,0,0,1.81-2.386,8.1,8.1,0,0,1-2.572.983,3.976,3.976,0,0,0-2.985-1.1,3.913,3.913,0,0,0-3.916,4.021,3.866,3.866,0,0,0,.024.9,11.721,11.721,0,0,1-8.464-4.2,4.029,4.029,0,0,0-.548,2.036,4.106,4.106,0,0,0,1.864,3.371,4.3,4.3,0,0,1-1.9-.507c0,.017,0,.034,0,.051a4.108,4.108,0,0,0,3.311,3.971,4.051,4.051,0,0,1-1.829.069,4.054,4.054,0,0,0,3.784,2.813,8.126,8.126,0,0,1-5.03,1.734,8.236,8.236,0,0,1-.966-.057,11.518,11.518,0,0,0,17.732-9.7q0-.263-.012-.524A8.228,8.228,0,0,0,1262.981,346.834Z" transform="translate(-1243.24 -294.964)" fill="#1d95e0"/>
    <g id="Logo" transform="translate(-1165.02 -118.02)">
      <path id="ic-welcome.svg" d="M1225.01,208a29.9,29.9,0,1,1,11.674-2.357A29.8,29.8,0,0,1,1225.01,208Zm0-47.02a11.017,11.017,0,0,0-11,11v11.59a2.4,2.4,0,0,0,2.462,2.392H1222V193a3,3,0,1,0,6,0v-7.033h5.542a2.464,2.464,0,0,0,2.461-2.462V171.985A10.882,10.882,0,0,0,1225.01,160.98Z" fill="#2581e3"/>
    </g>
  </g>
</svg>
