<svg xmlns="http://www.w3.org/2000/svg" width="18" height="18" viewBox="0 0 18 18">
  <g id="Approve" transform="translate(-1177 -200)">
    <g id="Path_2" data-name="Path 2" transform="translate(1177 200)" fill="#fff">
      <path d="M 9 17.5 C 4.313079833984375 17.5 0.5 13.68692016601562 0.5 9 C 0.5 4.313079833984375 4.313079833984375 0.5 9 0.5 C 13.68692016601562 0.5 17.5 4.313079833984375 17.5 9 C 17.5 11.22836017608643 16.65868949890137 13.25436019897461 14.99942970275879 15.02173042297363 C 13.55496025085449 16.57415008544922 11.3127498626709 17.5 9 17.5 Z" stroke="none"/>
      <path d="M 9 1 C 4.588789939880371 1 1 4.588789939880371 1 9 C 1 13.41121006011963 4.588789939880371 17 9 17 C 11.17642021179199 17 13.28178024291992 16.13373947143555 14.63491058349609 14.67950057983398 C 16.20426940917969 13.00789070129395 17 11.09703063964844 17 9 C 17 4.588789939880371 13.41121006011963 1 9 1 M 9 0 C 13.97056007385254 0 18 4.029439926147461 18 9 C 18 11.37591934204102 17.07934951782227 13.53680038452148 15.36396026611328 15.36396026611328 C 13.9328498840332 16.90203094482422 11.59465026855469 18 9 18 C 4.029439926147461 18 0 13.97056007385254 0 9 C 0 4.029439926147461 4.029439926147461 0 9 0 Z" stroke="none" fill="#3597ec"/>
    </g>
    <g id="Group_2" data-name="Group 2" transform="translate(1.556 -0.45)">
      <path id="Path_3" data-name="Path 3" d="M0,0,2.113,2.243l.141.15" transform="translate(1181.444 209.502)" fill="none" stroke="#3597ec" stroke-linecap="round" stroke-width="1.5" opacity="0.996"/>
      <path id="Path_4" data-name="Path 4" d="M.238,4.413,4.508,0" transform="translate(1183.5 207.45)" fill="none" stroke="#3597ec" stroke-linecap="round" stroke-width="1.5" opacity="0.996"/>
    </g>
  </g>
</svg>
