<svg xmlns="http://www.w3.org/2000/svg" width="46" height="30" viewBox="0 0 46 30">
  <defs>
    <style>
      .cls-1 {
        fill: #2e363e;
        fill-rule: evenodd;
      }
    </style>
  </defs>
  <path id="ic_amex.svg" class="cls-1" d="M806,867H766a3,3,0,0,1-3-3V840a3,3,0,0,1,3-3h40a3,3,0,0,1,3,3v24A3,3,0,0,1,806,867Zm-4.061-19h-5l-1.17,1.107L794.683,848H783.932l-0.939,2.059L782.064,848h-4.308v0.844L777.277,848h-3.684l-3.606,7.98H774.3l0.536-1.148h1.223l0.535,1.148h4.752V855.13l0.423,0.846h2.458l0.423-.867v0.867h9.883l1.2-1.115,1.125,1.115,5.076,0.01-3.617-3.978Zm-4.465,6.981-1.736-2.022-1.8,2.022h-5.93V849.02h6.018L795.761,851l1.792-1.984h1.735l-2.637,2.987,2.637,2.97h-1.814Zm-4.306-4.726h-3.885V851.3h3.44v1.447h-3.44v1.141H793.1l1.739-1.9Zm-7.564.117-1.972,4.612h-1.248l-2.047-4.612v4.612h-2.871l-0.544-1.409h-2.941l-0.543,1.408H771.9l2.529-5.959h2.1l2.47,5.52v-5.52h2.227L783,853.009l1.781-3.989H787v5.96h-1.38Zm-10.152-.27-0.968,2.287h1.936Z" transform="translate(-763 -837)"/>
</svg>
