<svg xmlns="http://www.w3.org/2000/svg" width="117.031" height="96" viewBox="0 0 117.031 96">
  <defs>
    <style>
      .cls-1 {
        fill: #2e363e;
        fill-rule: evenodd;
      }
    </style>
  </defs>
  <path id="ic_confirmation.svg" class="cls-1" d="M667.607,230.777a1.327,1.327,0,0,1-1.565,1.081,1.29,1.29,0,0,1-1.052-1.567c0.681-3.511.513-8.575-1.739-12.259a1.279,1.279,0,0,1-.143-1.022,1.393,1.393,0,0,1,2.518-.325C668.266,221,668.38,226.8,667.607,230.777ZM666,248a2,2,0,1,1-2-2A2,2,0,0,1,666,248Zm-6.5,21H657v2.5a1.5,1.5,0,0,1-3,0V269h-2.5a1.5,1.5,0,0,1,0-3H654v-2.5a1.5,1.5,0,0,1,3,0V266h2.5A1.5,1.5,0,0,1,659.5,269Zm-1.3-76.624,1.656,4.07A1.19,1.19,0,0,1,658.416,198l-4.4-1.106-4.09,2.874a1.2,1.2,0,0,1-1.933-.876l0.4-4.545-3.85-2.463a1.182,1.182,0,0,1,.242-2.095l4.312-1.535,1.171-4.4a1.2,1.2,0,0,1,2.082-.419l2.8,3.6,4.574-.085a1.187,1.187,0,0,1,1.045,1.837Zm-3.53-2.959a1.186,1.186,0,0,1-1-.455l-1.716-2.2-0.717,2.69a1.176,1.176,0,0,1-.742.805h0l-2.639.94,2.357,1.508a1.171,1.171,0,0,1,.541.952l-0.455,2.782L653,194.681a1.228,1.228,0,0,1,.347-0.2,1.194,1.194,0,0,1,.734-0.022l2.691,0.611-1.013-2.426a1.169,1.169,0,0,1,.125-1.087l1.579-2.131ZM609,274a41.712,41.712,0,0,1-18.884-4.513,16.469,16.469,0,0,0-5.9,7.945,2.337,2.337,0,0,1-4.422,0,16.509,16.509,0,0,0-10.22-10.222,2.335,2.335,0,0,1,0-4.42,16.413,16.413,0,0,0,6.743-4.44A41.988,41.988,0,1,1,609,274Zm-36.861-9A19.584,19.584,0,0,1,582,274.863,19.576,19.576,0,0,1,591.861,265,19.574,19.574,0,0,1,582,255.138,19.566,19.566,0,0,1,572.139,265Zm36.866-72a38.945,38.945,0,0,0-30.787,62.874,16.233,16.233,0,0,0,1.571-3.3,2.337,2.337,0,0,1,4.422,0,16.5,16.5,0,0,0,10.22,10.222,2.335,2.335,0,0,1,0,4.42c-0.387.132-.757,0.3-1.131,0.462A38.99,38.99,0,1,0,609.005,193Zm-0.955,55.243a1.558,1.558,0,0,1-.12.172,4.278,4.278,0,0,1-3.209,1.575l-0.109,0a4.273,4.273,0,0,1-3.176-1.412l-11.07-12.113a1.5,1.5,0,1,1,2.254-1.979l11.056,12.1a1.245,1.245,0,0,0,.969.406,1.259,1.259,0,0,0,.9-0.406l18.662-30.869a1.5,1.5,0,1,1,2.567,1.552ZM572,193a5,5,0,1,1,5-5A5,5,0,0,1,572,193Zm0-7.015A2.016,2.016,0,1,0,574.016,188,2.016,2.016,0,0,0,572,185.985ZM557,211a2,2,0,1,1,2-2A2,2,0,0,1,557,211Zm-1.2,33.957a1.308,1.308,0,0,1,.141,1.031,1.36,1.36,0,0,1-.658.825,1.445,1.445,0,0,1-1.931-.5c-2.617-4.354-2.731-10.2-1.965-14.214a1.231,1.231,0,0,1,1.458-1.091,1.364,1.364,0,0,1,1.136,1.581C553.3,236.133,553.563,241.241,555.8,244.957Z" transform="translate(-550.969 -183)"/>
</svg>
