<svg id="ic_discover.svg" xmlns="http://www.w3.org/2000/svg" width="46" height="30" viewBox="0 0 46 30">
  <defs>
    <style>
      .cls-1 {
        fill: #2e363e;
        fill-rule: evenodd;
      }

      .cls-2 {
        fill: #d5d7d8;
      }
    </style>
  </defs>
  <path id="_" data-name="#" class="cls-1" d="M817,837h40a3,3,0,0,1,3,3v24a3,3,0,0,1-3,3H817a3,3,0,0,1-3-3V840A3,3,0,0,1,817,837Zm38.085,17.982h-1.393l-1.525-2.44h-0.132v2.44h-1.1v-5.988h1.628c1.326,0,2.055.6,2.055,1.741a1.621,1.621,0,0,1-1.326,1.74Zm-1.752-4.181a0.873,0.873,0,0,0-1.061-.87h-0.331v1.807h0.331A0.887,0.887,0,0,0,853.333,850.8Zm-6.372-1.807h3.123v1h-2.055v1.276h1.989v1h-1.989v1.669h2.055v1h-3.123v-5.957Zm-3.639,6-2.453-6h1.193l1.525,3.922,1.591-3.922h1.194l-2.454,6h-0.6Zm-10.211.062a3.016,3.016,0,0,1-2.983-3.047,2.884,2.884,0,0,1,3.05-3.012,2.3,2.3,0,0,1,1.33.3v1.338a1.706,1.706,0,0,0-1.33-.638,2,2,0,0,0-1.857,2.075v0.134a1.851,1.851,0,0,0,1.923,1.843,1.607,1.607,0,0,0,1.264-.67v1.339A3.3,3.3,0,0,1,833.111,855.053Zm-5.3-.035a2.257,2.257,0,0,1-1.989-1.118l0.73-.723a1.309,1.309,0,0,0,1.193.789h0.066a0.864,0.864,0,0,0,.8-0.854,0.689,0.689,0,0,0-.332-0.592,4.118,4.118,0,0,0-.795-0.329,1.532,1.532,0,0,1-1.393-1.577v-0.066a1.7,1.7,0,0,1,1.791-1.578,2.626,2.626,0,0,1,1.657.658l-0.6.788a1.4,1.4,0,0,0-.928-0.46,0.732,0.732,0,0,0-.795.658c0,0.328.2,0.46,0.861,0.723,1.326,0.526,1.658.92,1.724,1.709v0.2A1.863,1.863,0,0,1,827.807,855.018Zm-3.705-6.024h1.127v5.957H824.1v-5.957Zm-3.455,5.957h-1.642v-5.957h1.973a2.9,2.9,0,0,1,2.785,3.012,3.079,3.079,0,0,1-1.061,2.276A2.935,2.935,0,0,1,820.647,854.951Zm1.326-4.484a2.085,2.085,0,0,0-1.525-.469h-0.332v3.949h0.332a2.085,2.085,0,0,0,1.525-.469,2.127,2.127,0,0,0,.6-1.539A2.084,2.084,0,0,0,821.973,850.467Z" transform="translate(-814 -837)"/>
  <circle id="_2" data-name="#" class="cls-2" cx="24" cy="15" r="3"/>
</svg>
