<svg id="ic_mc.svg" xmlns="http://www.w3.org/2000/svg" width="46" height="30" viewBox="0 0 46 30">
  <defs>
    <style>
      .cls-1 {
        fill: #2e363e;
      }

      .cls-2 {
        fill: #7b838b;
      }

      .cls-3 {
        fill: #fff;
      }

      .cls-3, .cls-4 {
        fill-rule: evenodd;
      }

      .cls-4 {
        fill: #d5d7d8;
      }
    </style>
  </defs>
  <rect id="_" data-name="#" class="cls-1" width="46" height="30" rx="3" ry="3"/>
  <circle id="_2" data-name="#" class="cls-2" cx="18" cy="15" r="8"/>
  <path id="_3" data-name="#" class="cls-3" d="M740.024,844a7.933,7.933,0,0,0-5.361,2.093c0,0.006.008,0.011,0.011,0.017l0.007-.006a7.175,7.175,0,0,1,2.843,5.9,7.338,7.338,0,0,1-2.747,6.018A7.993,7.993,0,1,0,740.024,844Z" transform="translate(-712 -837)"/>
  <path id="_4" data-name="#" class="cls-4" d="M732,852a7.984,7.984,0,0,1,3-6.24,7.99,7.99,0,0,1,0,12.48A7.984,7.984,0,0,1,732,852Z" transform="translate(-712 -837)"/>
</svg>
