<svg xmlns="http://www.w3.org/2000/svg" width="46" height="30" viewBox="0 0 46 30">
  <defs>
    <style>
      .cls-1 {
        fill: #2e363e;
        fill-rule: evenodd;
      }
    </style>
  </defs>
  <path id="ic_visa.svg" class="cls-1" d="M704,837H664a3,3,0,0,0-3,3v24a3,3,0,0,0,3,3h40a3,3,0,0,0,3-3V840A3,3,0,0,0,704,837Zm-29.277,18.962-1.639-6.343a0.871,0.871,0,0,0-.489-0.7,8.557,8.557,0,0,0-2.028-.676l0.049-.231h3.5a0.959,0.959,0,0,1,.949.81l0.865,4.6,2.14-5.409h2.159l-3.331,7.948h-2.173Zm4.686,0,1.7-7.948h2.055l-1.7,7.948h-2.056Zm5.755,0.061a6.2,6.2,0,0,1-2.286-.422l0.372-1.741a4.3,4.3,0,0,0,2.111.5,1.068,1.068,0,0,0,1.231-.778c0-.348-0.266-0.536-1.067-0.925-0.779-.38-1.813-0.956-1.8-2.1h0c0.012-1.546,1.441-2.611,3.473-2.611a5.515,5.515,0,0,1,1.924.353l-0.361,1.685a3.874,3.874,0,0,0-2.027-.356,0.826,0.826,0,0,0-.873.65c-0.019.937,2.89,0.991,2.882,3.088C688.736,855.02,687.323,856.023,685.164,856.023Zm8.946-.061-0.249-1.231h-2.637l-0.43,1.231h-2.157l3.084-7.365a0.937,0.937,0,0,1,.875-0.583h1.756l1.659,7.948h-1.9Zm-2.295-2.975h1.7l-0.622-2.826Z" transform="translate(-661 -837)"/>
</svg>
