<svg id="ic_error.svg" xmlns="http://www.w3.org/2000/svg" width="174" height="274" viewBox="0 0 174 274">
  <defs>
    <style>
      .cls-1 {
        fill: #e9ebed;
      }

      .cls-1, .cls-2, .cls-3, .cls-4, .cls-5 {
        fill-rule: evenodd;
      }

      .cls-2, .cls-4 {
        fill: #334152;
      }

      .cls-3 {
        fill: #f5f6f7;
      }

      .cls-4 {
        opacity: 0.05;
      }

      .cls-5 {
        fill: #d4e7fe;
      }
    </style>
  </defs>
  <path id="_" data-name="#" class="cls-1" d="M812.094,708c-0.055-6.56-2.114-18.488-4.341-27.814-2.134-8.937-4.011-19.336-4.978-26.186h1.534c0.97,6.809,2.82,17.031,4.922,25.833A200.275,200.275,0,0,1,813,700.215V708h-0.906Zm-5.9-54h1.537c1,6.747,2.263,13.7,3.852,20.961,0.519,2.373.986,4.583,1.412,6.674v8.034c-0.731-4.088-1.68-8.823-2.9-14.383C808.49,667.909,807.21,660.85,806.2,654Zm5.9,0q0.418,3.267.9,6.593v9.664q-1.438-8.32-2.436-16.257H812.1Zm-9.251,6.318a51.853,51.853,0,0,1-.337,8.542,0.76,0.76,0,0,1-1.5-.212,51.3,51.3,0,0,0,.324-8.266A0.76,0.76,0,0,1,802.847,660.318Zm-0.22,10.253c1.882,0,2.757,3.985,5.238,19.825,0.174,1.114.35,2.238,0.528,3.359,1.344,8.481,1.861,15.134,1.606,20.245h-1.52c0.26-5-.25-11.57-1.587-20.007-0.178-1.122-.354-2.247-0.528-3.362-0.737-4.7-1.433-9.146-2.125-12.6-0.835-4.168-1.4-5.449-1.665-5.841a6.877,6.877,0,0,0-.51,3.434,31.516,31.516,0,0,0,1.293,7.937,0.76,0.76,0,1,1-1.46.421c-1.6-5.53-1.814-11.009-.508-12.745A1.513,1.513,0,0,1,802.627,670.571Zm-3.574-4.83c-0.684,5.373-1.276,10.014-.539,14.41,0.277,1.654.788,3.532,1.38,5.707a85.553,85.553,0,0,1,3.609,26.7c-0.073,3.089-.285,5.877-0.57,8.447H801.4c0.291-2.578.507-5.377,0.58-8.482a84.188,84.188,0,0,0-3.556-26.261c-0.6-2.214-1.123-4.126-1.413-5.855-0.773-4.617-.169-9.361.531-14.853,0.283-2.218.575-4.512,0.806-7a40.826,40.826,0,0,0,.123-4.551H800a42.4,42.4,0,0,1-.13,4.692C799.632,661.2,799.338,663.51,799.053,665.741Zm0.79,44.019A64.618,64.618,0,0,1,798.784,723h-1.545a63.481,63.481,0,0,0,1.085-13.194c-0.2-6.8-2.036-13.308-3.653-19.048-1.447-5.14-2.813-10-2.75-14.171,0.064-4.248.53-8.473,0.981-12.558,0.391-3.548.746-6.917,0.822-10.029h1.52c-0.076,3.185-.435,6.6-0.832,10.2-0.447,4.051-.909,8.239-0.972,12.415-0.06,3.955,1.278,8.706,2.694,13.736C797.774,696.17,799.633,702.771,799.843,709.76Zm-4.053-1.386A57.547,57.547,0,0,1,794.777,724h-1.55a56.307,56.307,0,0,0,1.048-15.508,74.353,74.353,0,0,0-3.915-18.318c-1.337-4.193-2.491-7.814-2.491-11.922,0-3.819.383-7.774,0.754-11.6a81.685,81.685,0,0,0,.6-12.654h1.522a83.57,83.57,0,0,1-.613,12.8c-0.367,3.789-.746,7.706-0.746,11.452,0,3.872,1.121,7.389,2.419,11.46A75.64,75.64,0,0,1,795.79,708.374Zm-4.049,2.047A56.925,56.925,0,0,1,790.8,724h-1.555a61.642,61.642,0,0,0-3.366-34c-1.148-2.905-2.14-5.414-2.195-8.425-0.049-2.758.166-5.42,0.395-8.237a109.962,109.962,0,0,0,.26-18.347c-0.023-.338-0.056-0.662-0.083-0.994h1.525c0.024,0.3.053,0.586,0.074,0.888a111.286,111.286,0,0,1-.262,18.575,80,80,0,0,0-.389,8.088c0.049,2.735.949,5.011,2.088,7.893A55.921,55.921,0,0,1,791.741,710.421Zm-3.872,2.968A76.389,76.389,0,0,1,786.616,724h-1.557a74.709,74.709,0,0,0,1.292-10.676,64.04,64.04,0,0,0-.9-13.492c-0.8-4.442-2.034-7.69-3.384-8.913a1.708,1.708,0,0,0-1.143-.519,1.308,1.308,0,0,0-.187.014c-2.7.386-6.129,8.364-5.378,19.986a76.19,76.19,0,0,0,1.3,9.6h-1.548a78.611,78.611,0,0,1-1.273-9.5,41.682,41.682,0,0,1,1.485-14.786c1.276-4.033,3.169-6.512,5.193-6.8a3.069,3.069,0,0,1,2.566.883C786.532,692.911,788.252,704.468,787.869,713.389Zm-10.04-27.654c-1.669,2.543-3.561,5.426-4.7,12.272A59.017,59.017,0,0,0,773.082,716h-1.537a60.425,60.425,0,0,1,.085-18.243c1.192-7.161,3.177-10.186,4.928-12.856a16.756,16.756,0,0,0,3.314-9.285c0.635-8.057,1.079-13.917.531-21.616h1.525c0.544,7.745.1,13.641-.541,21.735A18.242,18.242,0,0,1,777.829,685.735Zm-7.043,4.687a0.76,0.76,0,0,1-.614-1.207c4.225-5.814,6.458-15.63,6.458-28.385,0-2.288-.077-4.564-0.178-6.83h1.521c0.1,2.263.177,4.538,0.177,6.83,0,13.078-2.334,23.2-6.749,29.278A0.757,0.757,0,0,1,770.786,690.422Zm-0.17-8.1a0.759,0.759,0,0,1-.69-1.077c2.737-5.948,3.173-11.662,3.045-20.774-0.027-1.945-.138-4.14-0.282-6.473h1.522c0.143,2.318.252,4.5,0.279,6.451,0.131,9.34-.325,15.219-3.184,21.431A0.76,0.76,0,0,1,770.616,682.324Zm-0.169-8.741a0.761,0.761,0,0,1-.755-0.854A120.84,120.84,0,0,0,770.129,654h1.522a122.241,122.241,0,0,1-.451,18.917A0.761,0.761,0,0,1,770.447,673.583ZM768.838,710H768v-3h-0.816a66.325,66.325,0,0,1,.822-12.688,0.76,0.76,0,0,1,1.5.269A68.117,68.117,0,0,0,768.838,710Zm-1.233-17.239a0.761,0.761,0,0,1-.759.728h-0.033a0.759,0.759,0,0,1-.726-0.791c0.071-1.683.194-3.843,0.337-6.344,0.448-7.89,1.127-19.814.927-30.662-0.01-.584-0.025-1.127-0.037-1.691h1.52c0.012,0.555.026,1.088,0.037,1.663,0.2,10.9-.48,22.863-0.93,30.776C767.8,688.934,767.676,691.089,767.605,692.761Zm13.253,3.5a1.964,1.964,0,0,1,1.48.8c2.558,3.175,1.438,16.9.733,20.823a0.76,0.76,0,0,1-1.5-.269c0.96-5.34,1.442-17.289-.42-19.6a0.479,0.479,0,0,0-.353-0.24,1.147,1.147,0,0,0-.432.588c-1.572,3.255-1.684,15.43.224,23.63H779.05a63.611,63.611,0,0,1-1.355-11.293c-0.188-5.1.133-11.327,1.595-13.507A1.79,1.79,0,0,1,780.858,696.264Zm21.906-8.271a0.76,0.76,0,0,1,1.472-.378c1.235,4.82,3.192,17.6,2.7,25.9-0.078,1.295-.228,2.82-0.423,4.481h-1.529c0.2-1.7.357-3.261,0.435-4.572C805.9,705.393,803.945,692.6,802.764,687.993Z" transform="translate(-703 -452)"/>
  <path id="_2" data-name="#" class="cls-2" d="M853,656.016H815V701a25,25,0,0,1-50,0V656.016h0V656h0v0.016H727a24.028,24.028,0,0,1-24-24v-93a87,87,0,1,1,174,0v93A24.028,24.028,0,0,1,853,656.016ZM768,701a22,22,0,0,0,44,0V656.016h0V656h0v0.016H768V701ZM873,539.016a83,83,0,1,0-166,0v93a20.023,20.023,0,0,0,20,20H853a20.023,20.023,0,0,0,20-20v-93ZM824,549a5,5,0,1,1,5-5A5,5,0,0,1,824,549Zm-22.72,6.649c-1,.872-2.608-0.065-3.591-0.956A12.628,12.628,0,0,0,790,551.952a12.782,12.782,0,0,0-7.685,2.741c-0.983.891-2.591,1.828-3.591,0.956a2.084,2.084,0,0,1-.035-3.191,16.489,16.489,0,0,1,22.622,0A2.084,2.084,0,0,1,801.28,555.649ZM756,549a5,5,0,1,1,5-5A5,5,0,0,1,756,549Z" transform="translate(-703 -452)"/>
  <path id="_3" data-name="#" class="cls-3" d="M790,582a25,25,0,0,0-25,25v45h3V607a22,22,0,0,1,44,0v45h3V607A25,25,0,0,0,790,582Z" transform="translate(-703 -452)"/>
  <path id="_4" data-name="#" class="cls-4" d="M812,669.4l-44-8.8V656h44v13.4ZM765,656h0v4h0v-4Z" transform="translate(-703 -452)"/>
  <path id="_5" data-name="#" class="cls-5" d="M832.5,565a2.5,2.5,0,1,1,2.5-2.5A2.5,2.5,0,0,1,832.5,565Zm-7,9a2.5,2.5,0,1,1,2.5-2.5A2.5,2.5,0,0,1,825.5,574Zm-4-9a2.5,2.5,0,1,1,2.5-2.5A2.5,2.5,0,0,1,821.5,565Zm-63,0a2.5,2.5,0,1,1,2.5-2.5A2.5,2.5,0,0,1,758.5,565Zm-4,9a2.5,2.5,0,1,1,2.5-2.5A2.5,2.5,0,0,1,754.5,574Zm-7-9a2.5,2.5,0,1,1,2.5-2.5A2.5,2.5,0,0,1,747.5,565Z" transform="translate(-703 -452)"/>
</svg>
