<svg id="ic_add.svg" xmlns="http://www.w3.org/2000/svg" width="100" height="100" viewBox="0 0 100 100">
  <path id="_" data-name="#" fill="#ffffff" stroke="#86b9f5" d="M106.012,106A23.012,23.012,0,1,1,83,129.012,23.012,23.012,0,0,1,106.012,106Zm0,0.971a22.042,22.042,0,1,1-22.042,22.042A22.041,22.041,0,0,1,106.013,106.971Z" transform="translate(-83 -106)"/><path id="_2" data-name="#" fill="#2b89f6" d="M113,130h-6v6a1,1,0,0,1-2,0v-6H99a1,1,0,0,1,0-2h6v-6a1,1,0,0,1,2,0v6h6A1,1,0,0,1,113,130Z" transform="translate(-83 -106)"/>
  <g><path id="ic_delete.svg" fill="#383239" d="M1040,205.5a0.5,0.5,0,0,1-.5.5h-10a0.5,0.5,0,0,1-.5-0.5,0.42,0.42,0,0,1,.06-0.22A0.887,0.887,0,0,1,1029,205a1,1,0,0,1,1-1h2v-0.5a0.5,0.5,0,0,1,.5-0.5h4a0.5,0.5,0,0,1,.5.5V204h2a1,1,0,0,1,1,1,0.887,0.887,0,0,1-.06.28A0.42,0.42,0,0,1,1040,205.5Zm-1.4,9.784a0.751,0.751,0,0,1-.75.712h-6.75a0.742,0.742,0,0,1-.74-0.712l-0.4-8.283H1039ZM1033,209.5a0.5,0.5,0,0,0-1,0v4a0.5,0.5,0,0,0,1,0v-4Zm2,0a0.5,0.5,0,0,0-1,0v4a0.5,0.5,0,0,0,1,0v-4Zm2,0a0.5,0.5,0,0,0-1,0v4a0.5,0.5,0,0,0,1,0v-4Z" transform="translate(-979 -203)"/></g>
  <g><path id="ic_duration.svg" fill="#9d9fa9" d="M825.492,136a8.5,8.5,0,1,1,8.492-8.508A8.532,8.532,0,0,1,825.492,136Zm0-15.754a7.246,7.246,0,1,0,7.246,7.246A7.246,7.246,0,0,0,825.492,120.246Zm2.7,9.754h-3.4c-0.009,0-.017,0-0.027,0s-0.016,0-.026,0a0.733,0.733,0,0,1-.748-0.717V124.7a0.749,0.749,0,0,1,1.5,0v3.8h2.706A0.755,0.755,0,1,1,828.187,130Z" transform="translate(-766.969 -99)"/></g>
  <g><path id="ic_restore.svg" fill="#383239" d="M1034.99,135a5.931,5.931,0,0,1-.99-0.1v-1.881a4.157,4.157,0,1,0-2.17-6.694L1034.5,129H1028v-6.5l2.52,2.518A6,6,0,1,1,1034.99,135Z" transform="translate(-958 -122.5)"/></g>
</svg>
