<svg xmlns="http://www.w3.org/2000/svg" width="27.969" height="27.969" viewBox="0 0 27.969 27.969">
  <defs>
    <style>
      .cls-1 {
        fill: #fff;
        fill-rule: evenodd;
      }
    </style>
  </defs>
  <path id="ic_move.svg" class="cls-1" d="M27.719,13.281l-4-4a1,1,0,0,0-1.7.7v2h-6v-6h2a0.995,0.995,0,0,0,.7-1.7l-4-4a0.981,0.981,0,0,0-1.406,0l-4,4a1,1,0,0,0,.7,1.7h1.969v6H6.016v-2a0.995,0.995,0,0,0-1.7-.7l-4,4a0.981,0.981,0,0,0,0,1.406l4,4a1,1,0,0,0,1.7-.7v-2h5.969v6H10.016a0.995,0.995,0,0,0-.7,1.7l4,4a0.981,0.981,0,0,0,1.406,0l4-4a1,1,0,0,0-.7-1.7h-2v-6h5.969v2a0.962,0.962,0,0,0,.3.7,1.034,1.034,0,0,0,.735.3,0.962,0.962,0,0,0,.7-0.3l4-4A0.981,0.981,0,0,0,27.719,13.281Z" transform="translate(-0.031)"/>
</svg>
