<svg xmlns="http://www.w3.org/2000/svg" width="100" height="100" viewBox="0 0 100 100">
  <g><path id="ic_contact.svg" fill="#1e7efc" d="M125.16,407h-0.135a0.19,0.19,0,0,1-.025,0H115a0.19,0.19,0,0,1-.025,0h-0.132A1.842,1.842,0,0,1,113,405.155v-8.33a1.843,1.843,0,0,1,1.843-1.842H125.16A1.843,1.843,0,0,1,127,396.825v8.33A1.842,1.842,0,0,1,125.16,407ZM126,397a1,1,0,0,0-1-1H115a1,1,0,0,0-1,1v8a1,1,0,0,0,1,1h10a1,1,0,0,0,1-1v-8Zm-5.579,5.8a0.6,0.6,0,0,1-.848,0l-4.4-3.806a0.6,0.6,0,0,1,.847-0.847L120,401.586l3.976-3.439a0.6,0.6,0,0,1,.847.847Z" transform="translate(-113 -394.969)"/></g>
  <g transform="translate(15 0)"><path id="_" data-name="#" fill="#d2e5fe" style="opacity: 0.2" d="M118,323h4v1h-4v-1Zm-0.5,5a0.5,0.5,0,1,1-.5.5A0.5,0.5,0,0,1,117.5,328Zm0,4a0.5,0.5,0,1,1-.5.5A0.5,0.5,0,0,1,117.5,332Z" transform="translate(-113 -322)"/>
  <path id="_2" data-name="#" fill="#1e7efc" d="M125.16,337h-0.135a0.19,0.19,0,0,1-.025,0H115a0.19,0.19,0,0,1-.025,0h-0.132A1.842,1.842,0,0,1,113,335.155v-10.33a1.843,1.843,0,0,1,1.843-1.842H117V322.8a0.779,0.779,0,0,1,.067-0.317,0.744,0.744,0,0,1,.683-0.5h4.509a0.737,0.737,0,0,1,.737.737v0.057c0,0.007,0,.012,0,0.019v0.183h2.16A1.843,1.843,0,0,1,127,324.825v10.33A1.842,1.842,0,0,1,125.16,337Zm-3.66-14h-3a0.5,0.5,0,0,0,0,1h3A0.5,0.5,0,0,0,121.5,323Zm4.5,2a1,1,0,0,0-1-1h-2v0.2a0.8,0.8,0,0,1-.8.8h-4.4a0.8,0.8,0,0,1-.8-0.8V324h-2a1,1,0,0,0-1,1v10a1,1,0,0,0,1,1h10a1,1,0,0,0,1-1V325Zm-2.5,9h-3a0.5,0.5,0,0,1,0-1h3A0.5,0.5,0,0,1,123.5,334Zm0-2h-3a0.5,0.5,0,0,1,0-1h3A0.5,0.5,0,0,1,123.5,332Zm0-2h-3a0.5,0.5,0,0,1,0-1h3A0.5,0.5,0,0,1,123.5,330Zm0-2h-3a0.5,0.5,0,0,1,0-1h3A0.5,0.5,0,0,1,123.5,328Zm-6,6a1.5,1.5,0,1,1,1.5-1.5A1.5,1.5,0,0,1,117.5,334Zm0-2a0.5,0.5,0,1,0,.5.5A0.5,0.5,0,0,0,117.5,332Zm0-2a1.5,1.5,0,1,1,1.5-1.5A1.5,1.5,0,0,1,117.5,330Zm0-2a0.5,0.5,0,1,0,.5.5A0.5,0.5,0,0,0,117.5,328Z" transform="translate(-113 -322)"/></g>
  <g transform="translate(30 0)"><rect id="_" data-name="#" fill="#d2e5fe" x="4" y="8" width="6" height="4"/>
  <path id="_2" data-name="#" fill="#1e7efc" d="M126.556,356.977L124,357l0,3.556a0.437,0.437,0,0,1-.437.437h-7.124a0.438,0.438,0,0,1-.438-0.437L116,357l-2.556-.023a0.437,0.437,0,0,1-.437-0.437v-4.371a2.185,2.185,0,0,1,2.185-2.185h9.616a2.185,2.185,0,0,1,2.185,2.185v4.371A0.437,0.437,0,0,1,126.556,356.977ZM117,359h0v1h6v-1h0v-2h0v-1h-6v1h0v2Zm9-7a1,1,0,0,0-1-1H115a1,1,0,0,0-1,1v3h0v1h2c0-1.105.9-1,2-1h4c1.105,0,2-.105,2,1h2v-1h0v-3Zm-2,2a1,1,0,1,1,1-1A1,1,0,0,1,124,354Zm-0.5-5h-7a0.5,0.5,0,0,1,0-1h7A0.5,0.5,0,0,1,123.5,349Z" transform="translate(-113 -348)"/></g>
  <g transform="translate(45 0)"><path id="_" data-name="#" fill="#d2e5fe" d="M120,378.969v-5h1v5h-1Z" transform="translate(-114 -373)"/>
  <path id="_2" data-name="#" fill="#1e7efc" d="M125,381h-4a1,1,0,0,1-1-1h-3a1,1,0,0,1-1-1v-5a1,1,0,0,1,1-1h4a1,1,0,0,1,1,1h3a1,1,0,0,1,1,1v5A1,1,0,0,1,125,381Zm0-5.5a0.5,0.5,0,0,0-.5-0.5H121v-0.5a0.5,0.5,0,0,0-.5-0.5h-3a0.5,0.5,0,0,0-.5.5v4a0.5,0.5,0,0,0,.5.5H121v0.5a0.5,0.5,0,0,0,.5.5h3a0.5,0.5,0,0,0,.5-0.5v-4ZM114.5,385a0.5,0.5,0,0,1-.5-0.5v-11a0.5,0.5,0,0,1,1,0v11A0.5,0.5,0,0,1,114.5,385Z" transform="translate(-114 -373)"/></g>
  <g transform="translate(60 0)"><path id="ic_return.svg" fill="#1e7efc" d="M119,432a7,7,0,1,1,7-7A7,7,0,0,1,119,432Zm0-13a6,6,0,1,0,6,6A6,6,0,0,0,119,419Zm0.5,9h-2a0.5,0.5,0,0,1,0-1h2a1.5,1.5,0,0,0,0-3H119v2l-3-2.531v-0.031L119,421v2h0.5A2.5,2.5,0,0,1,119.5,428Z" transform="translate(-112 -418)"/></g>
  <g transform="translate(75 0)"><path id="ic_sort_desc.svg" fill="#2e363e" d="M966.871,127.836l-3.922,3.892a0.44,0.44,0,0,1-.046.112,0.465,0.465,0,0,1-.2.116,0.481,0.481,0,0,1-.2.044,0.5,0.5,0,0,1-.356-0.15s-0.011,0-.015-0.01a0.069,0.069,0,0,1-.014-0.033,0.488,0.488,0,0,1-.078-0.124l-3.877-3.847a0.5,0.5,0,0,1,.707-0.707L962,130.238V121.5a0.5,0.5,0,0,1,1,0v8.769l3.164-3.14A0.5,0.5,0,0,1,966.871,127.836ZM958.5,125h-7a0.5,0.5,0,0,1,0-1h7A0.5,0.5,0,0,1,958.5,125Zm0-3h-7a0.5,0.5,0,0,1,0-1h7A0.5,0.5,0,0,1,958.5,122Zm-7,5h3a0.5,0.5,0,0,1,0,1h-3A0.5,0.5,0,0,1,951.5,127Zm0,3h4a0.5,0.5,0,0,1,0,1h-4A0.5,0.5,0,0,1,951.5,130Z" transform="translate(-951 -121)"/></g>
  <g transform="translate(0 20)"><path id="ic-header-search.svg" fill="#505b67" style="opacity: 0.8;" d="M544.981,131.1l-0.867.868-3.379-3.379a6.087,6.087,0,1,1,.864-0.871Zm-8.028-12.02a4.9,4.9,0,1,0,4.907,4.891A4.891,4.891,0,0,0,536.953,119.078Z" transform="translate(-530.969 -118)"/></g>
  <g style="transform: translate(20px, 20px) matrix(0.8333333333333334,0,0,0.8333333333333334,0,0)"><path d="M12.667,14.136l-3.712.531.53-3.713,9.546-9.546A2.25,2.25,0,0,1,22.213,4.59Z" fill="none" stroke="#2785fa" stroke-linecap="round" stroke-linejoin="round" stroke-width="1.5"></path><path d="M19.122,14.25v7.5a1.5,1.5,0,0,1-1.5,1.5h-15a1.5,1.5,0,0,1-1.5-1.5v-15a1.5,1.5,0,0,1,1.5-1.5h7.5" fill="none" stroke="#2785fa" stroke-linecap="round" stroke-linejoin="round" stroke-width="1.5"></path></g>
</svg>
