<svg id="Filter" xmlns="http://www.w3.org/2000/svg" width="100" height="100" viewBox="0 0 100 100">
  <g>
    <rect id="_" data-name="#" fill="#363e4e" x="1" y="4" width="16" height="2" rx="1" ry="1"/>
    <rect id="_2" data-name="#" fill="#4a5260" x="3" y="8" width="12" height="2" rx="1" ry="1"/>
    <rect id="_3" data-name="#" fill="#5e6571" x="5" y="12" width="8" height="2" rx="1" ry="1"/>
  </g>
  <g transform="translate(20 0)"><path id="_" data-name="#" fill="#222b3d" d="M15,15H3a2,2,0,0,1-2-2V5A2,2,0,0,1,3,3H15a2,2,0,0,1,2,2v8A2,2,0,0,1,15,15ZM13.858,6.275a0.679,0.679,0,0,0-.987-0.131L9,9.32,5.133,6.145a0.679,0.679,0,0,0-.987.131,0.772,0.772,0,0,0,.123,1.044l4.3,3.53a0.7,0.7,0,0,0,.091.052,0.624,0.624,0,0,0,.07.04,0.666,0.666,0,0,0,.27.065H9a0.665,0.665,0,0,0,.27-0.065,0.641,0.641,0,0,0,.07-0.04,0.7,0.7,0,0,0,.091-0.052l4.3-3.53A0.773,0.773,0,0,0,13.858,6.275Z"/></g>
  <g transform="translate(40 0)"><path id="_" data-name="#" fill="#222b3d" d="M15,11a2,2,0,1,1,2-2A2,2,0,0,1,15,11ZM9,11a2,2,0,1,1,2-2A2,2,0,0,1,9,11ZM3,11A2,2,0,1,1,5,9,2,2,0,0,1,3,11Z"/></g>
  <g transform="translate(60 0)"><path id="_" data-name="#" fill="#222b3d" d="M15.986,2.542L10.8,15.726a0.408,0.408,0,0,1-.354.261H10.419a0.433,0.433,0,0,1-.367-0.213L7.807,11.624l5.837-7.232-7.32,5.745L2.2,8.02a0.424,0.424,0,0,1-.217-0.391,0.412,0.412,0,0,1,.26-0.356L15.455,2.016a0.406,0.406,0,0,1,.428.1A0.4,0.4,0,0,1,15.986,2.542Z"/></g>
  <g transform="translate(80 0)"><path id="_" data-name="#" fill="#2e363e" d="M13.065,9.664c-1.225,1.908-4.236,5.6-4.236,5.6a1.728,1.728,0,0,1-1.33.753h0a1.728,1.728,0,0,1-1.329-.753s-3.011-3.692-4.236-5.6a5.724,5.724,0,0,1-.94-3.081,6.515,6.515,0,0,1,6.5-6.6h0a6.515,6.515,0,0,1,6.5,6.6A5.724,5.724,0,0,1,13.065,9.664ZM11.4,2.613A5.472,5.472,0,0,0,7.5.983h0a5.515,5.515,0,0,0-5.5,5.583,4.762,4.762,0,0,0,.782,2.558c1.117,1.74,3.827,5.087,4.14,5.472a0.809,0.809,0,0,0,.584.421A0.808,0.808,0,0,0,8.084,14.6c0.313-.386,3.023-3.733,4.14-5.472a4.76,4.76,0,0,0,.782-2.558A5.435,5.435,0,0,0,11.4,2.613ZM7.5,9.009A2.509,2.509,0,1,1,10.014,6.5,2.516,2.516,0,0,1,7.5,9.009Zm0-4.02A1.511,1.511,0,1,0,9.012,6.5,1.515,1.515,0,0,0,7.5,4.989Z"/></g>
  <g transform="translate(0 20)"><path id="_" data-name="#" fill="#2e363e" d="M7.494,13.984a6.5,6.5,0,1,1,6.5-6.5A6.5,6.5,0,0,1,7.494,13.984Zm4.932-4.111a5.308,5.308,0,0,0,0-4.772,10.34,10.34,0,0,1-2.494.707,16.008,16.008,0,0,1,.09,1.675,15.961,15.961,0,0,1-.094,1.7A10.587,10.587,0,0,1,12.426,9.874Zm-0.522.865a9.412,9.412,0,0,0-2.117-.591,8.92,8.92,0,0,1-.824,2.612A5.544,5.544,0,0,0,11.9,10.739Zm-4.41,2.246c0.171,0,.949-0.856,1.325-2.971C8.4,9.975,7.971,9.947,7.5,9.947a12.312,12.312,0,0,0-1.331.076C6.547,12.131,7.323,12.984,7.494,12.984ZM7.5,8.978c0.489,0,.974.025,1.444,0.069a15.531,15.531,0,0,0,.08-1.563c0-.563-0.031-1.065-0.076-1.532C8.48,6,7.994,6.022,7.5,6.022S6.515,6,6.039,5.949c-0.046.468-.077,0.971-0.077,1.536a15.543,15.543,0,0,0,.08,1.559C6.521,9,7.011,8.978,7.5,8.978ZM6.024,12.76a8.882,8.882,0,0,1-.82-2.586,11.872,11.872,0,0,0-2.106.588A5.547,5.547,0,0,0,6.024,12.76ZM2.537,9.818a10.945,10.945,0,0,1,2.518-.646,15.519,15.519,0,0,1,0-3.362,10.93,10.93,0,0,1-2.5-.687A5.291,5.291,0,0,0,2.537,9.818ZM3.071,4.249h0A10.884,10.884,0,0,0,5.2,4.818a8.914,8.914,0,0,1,.823-2.609A5.543,5.543,0,0,0,3.071,4.249ZM7.494,1.984c-0.171,0-.949.856-1.325,2.971C6.587,5,7.03,5.022,7.5,5.022s0.906-.028,1.319-0.067C8.442,2.841,7.664,1.984,7.494,1.984ZM8.963,2.209a8.917,8.917,0,0,1,.823,2.61,9.294,9.294,0,0,0,2.111-.6A5.546,5.546,0,0,0,8.963,2.209Z"/></g>
  <g transform="translate(20 20)">
    <circle id="_" data-name="#" fill="#2785fa" cx="10.016" cy="10.016" r="10.016"/>
    <path id="_2" data-name="#" fill="#fff" d="M14.727,7.584L9.286,13.725a0.921,0.921,0,0,1-.68.276,0.931,0.931,0,0,1-.686-0.279L5.2,10.647a0.977,0.977,0,0,1,0-1.363,0.933,0.933,0,0,1,1.338,0L8.608,11.6,13.4,6.233a0.925,0.925,0,0,1,1.325,0A0.968,0.968,0,0,1,14.727,7.584Z"/>
  </g>
  <g transform="translate(0 84)"><path d="M585.857,346.137a5.352,5.352,0,0,1,5.65,5.41,5.5,5.5,0,0,1-5.65,5.6,8.24,8.24,0,0,1-1.91-.233,1.622,1.622,0,0,0-.428-.057,1.686,1.686,0,0,0-.641.127c-.3.125-.952.368-1.5.57a8.7,8.7,0,0,0,.229-1.582,1.633,1.633,0,0,0-.431-1.083l-.016-.019a4.683,4.683,0,0,1-1.05-3.289,5.476,5.476,0,0,1,5.741-5.446m0-1.1a6.579,6.579,0,0,0-6.843,6.547,5.737,5.737,0,0,0,1.314,4.005.564.564,0,0,1,.182.386c0,.625-.349,1.843-.4,2.466a.513.513,0,0,0,.538.526.55.55,0,0,0,.222-.046s1.826-.669,2.426-.915a.592.592,0,0,1,.224-.046.516.516,0,0,1,.137.018,9.265,9.265,0,0,0,2.2.272,6.628,6.628,0,0,0,6.751-6.7,6.473,6.473,0,0,0-6.751-6.512Z" transform="translate(-578.864 -344.885)" fill="#1c1e21" stroke="#1c1e21" stroke-width="0.3"/></g>
  <g>
    <path id="_" data-name="+" d="M1286,412v-3h-3a1,1,0,1,1,0-2h3v-3a1,1,0,1,1,2,0v3h3a1,1,0,1,1,0,2h-3v3a1,1,0,1,1-2,0Z" transform="translate(-1237 -383)" fill="#fff"/>
  </g>
  <g transform="translate(60 20)"><path id="_" data-name="#" fill="#2e363e" d="M13.929,5.991A1.95,1.95,0,0,1,12,4.8a2.036,2.036,0,0,1-1.987,1.186A2.053,2.053,0,0,1,8,4.843,1.971,1.971,0,0,1,6.041,5.991,2,2,0,0,1,4.063,4.836,1.979,1.979,0,0,1,2.1,5.991,2.127,2.127,0,0,1,.041,3.745l0.021-.073L2.224,0.085a0.172,0.172,0,0,1,.153-0.1h11.3a0.172,0.172,0,0,1,.153.1l2.174,3.587,0.021,0.072A2.161,2.161,0,0,1,13.929,5.991Zm-0.758-5H2.887L1.15,3.994a0.982,0.982,0,0,0,.947.873,0.9,0.9,0,0,0,.957-0.453,1.118,1.118,0,0,1,1.015-.7H4.1a1.092,1.092,0,0,1,.977.706,0.936,0.936,0,0,0,.967.449,0.9,0.9,0,0,0,.947-0.441A1.126,1.126,0,0,1,8,3.719H8.029A1.058,1.058,0,0,1,9,4.4a0.988,0.988,0,0,0,1.016.469,0.963,0.963,0,0,0,.978-0.483,1.131,1.131,0,0,1,.472-0.563,1.083,1.083,0,0,1,1.539.544,0.9,0.9,0,0,0,.924.5,1.024,1.024,0,0,0,.988-0.874ZM5.54,13.04a0.536,0.536,0,1,1,0-1.071h4.987a0.536,0.536,0,1,1,0,1.071H5.54ZM1.99,7.66a1.866,1.866,0,0,0,.925-0.39L2.909,14.125H13.136V7.27a1.624,1.624,0,0,0,.852.391l0,6.348a1,1,0,0,1-1.014,1H2.867a0.924,0.924,0,0,1-.886-1.033H2Z"/></g>
  <g><path id="ic_facebook.svg" fill="#2e363e" d="M18.75,2H4.25A2.251,2.251,0,0,0,2,4.251v14.5A2.251,2.251,0,0,0,4.25,21h6.761V15.032h-3V11.958h3V10c0-2.89,1.482-4.042,4.06-4.042,1.43,0,1.95.021,1.941,0.011V9.019H15.655c-1.4,0-1.661.62-1.661,1.6v1.341h3l-0.435,3.074H13.993V21H18.75A2.251,2.251,0,0,0,21,18.75V4.251A2.251,2.251,0,0,0,18.75,2Z" transform="translate(-2 43)"/></g>
  <g><path id="ic_instagram.svg" fill="#2e363e" d="M20.924,14.811a7.692,7.692,0,0,1-.488,2.546,5.364,5.364,0,0,1-3.067,3.068,7.716,7.716,0,0,1-2.546.487c-1.119.051-.476,0.063-3.325,0.063s-2.206-.012-3.324-0.063a7.715,7.715,0,0,1-2.546-.487,5.151,5.151,0,0,1-1.857-1.21,5.139,5.139,0,0,1-1.21-1.857,7.7,7.7,0,0,1-.488-2.546c-0.051-1.119-.063-0.476-0.063-3.324s0.013-2.206.063-3.325A7.694,7.694,0,0,1,2.56,5.617,5.125,5.125,0,0,1,3.77,3.76,5.141,5.141,0,0,1,5.627,2.549a7.7,7.7,0,0,1,2.546-.487C9.292,2.01,8.65,2,11.5,2s2.206,0.012,3.325.063a7.7,7.7,0,0,1,2.546.487,5.365,5.365,0,0,1,3.067,3.068,7.685,7.685,0,0,1,.488,2.545c0.051,1.119.063,0.476,0.063,3.325S20.974,13.693,20.924,14.811Zm-1.935-6.54a5.8,5.8,0,0,0-.359-1.937,3.238,3.238,0,0,0-.781-1.2,3.222,3.222,0,0,0-1.2-.78A5.76,5.76,0,0,0,14.713,4c-1.1-.05-0.429-0.061-3.215-0.061S9.383,3.947,8.282,4a5.761,5.761,0,0,0-1.937.359,3.227,3.227,0,0,0-1.2.78,3.245,3.245,0,0,0-.781,1.2,5.8,5.8,0,0,0-.359,1.937c-0.05,1.1-.061.43-0.061,3.215S3.958,13.6,4.007,14.7a5.785,5.785,0,0,0,.359,1.937,3.458,3.458,0,0,0,1.98,1.98,5.8,5.8,0,0,0,1.937.359c1.1,0.05.43,0.061,3.215,0.061s2.115-.011,3.215-0.061a5.8,5.8,0,0,0,1.937-.359,3.457,3.457,0,0,0,1.98-1.98,5.784,5.784,0,0,0,.359-1.937c0.05-1.1.061-.429,0.061-3.214S19.039,9.372,18.988,8.272Zm-2.954,0a1.259,1.259,0,1,1,1.259-1.258A1.258,1.258,0,0,1,16.034,8.272ZM16.024,11.5c0,3.043-1.467,4.511-4.511,4.511S7,14.546,7,11.5,8.47,6.992,11.513,6.992,16.024,8.46,16.024,11.5ZM11.513,8.926c-1.975,0-2.577.6-2.577,2.577s0.6,2.577,2.577,2.577,2.578-.6,2.578-2.577S13.489,8.926,11.513,8.926Z" transform="translate(18 43)"/></g>
  <g><path id="ic_twitter.svg" fill="#2e363e" d="M22.078,4.971a8.856,8.856,0,0,1-2.521.683,4.363,4.363,0,0,0,1.929-2.4A8.857,8.857,0,0,1,18.7,4.306a4.4,4.4,0,0,0-7.593,2.968,4.252,4.252,0,0,0,.115.989A12.513,12.513,0,0,1,2.172,3.731a4.272,4.272,0,0,0-.594,2.181A4.323,4.323,0,0,0,3.53,9.522a4.4,4.4,0,0,1-1.988-.542V9.034a4.355,4.355,0,0,0,3.52,4.254,4.463,4.463,0,0,1-1.982.074,4.341,4.341,0,0,0,4.1,2.958,8.931,8.931,0,0,1-5.452,1.912,9.245,9.245,0,0,1-1.047-.06,12.5,12.5,0,0,0,6.729,1.893A12.282,12.282,0,0,0,19.9,7.777c0-.187,0-0.375-0.014-0.561a8.9,8.9,0,0,0,2.191-2.245h0Z" transform="translate(39.312 42.062)"/></g>
  <g><path id="ic_pinterest.svg" fill="#2e363e" d="M2,10.541a9.5,9.5,0,0,0,5.669,8.7,8.374,8.374,0,0,1,.165-2.181c0.182-.771,1.218-5.176,1.218-5.176a3.658,3.658,0,0,1-.3-1.5c0-1.408.813-2.459,1.826-2.459a1.271,1.271,0,0,1,1.278,1.426,20.5,20.5,0,0,1-.836,3.371,1.469,1.469,0,0,0,1.495,1.829c1.794,0,3-2.311,3-5.05,0-2.082-1.4-3.64-3.94-3.64a4.491,4.491,0,0,0-4.662,4.549,2.747,2.747,0,0,0,.624,1.863,0.461,0.461,0,0,1,.136.529c-0.045.175-.15,0.6-0.193,0.762a0.326,0.326,0,0,1-.474.238c-1.323-.542-1.939-2-1.939-3.629,0-2.7,2.269-5.933,6.768-5.933a5.667,5.667,0,0,1,6,5.441c0,3.726-2.065,6.51-5.11,6.51A2.713,2.713,0,0,1,10.406,15s-0.55,2.188-.666,2.611a7.964,7.964,0,0,1-.953,2.035A9.5,9.5,0,1,0,2,10.541Z" transform="translate(63 43.969)"/></g>
  <g><path id="ic_website.svg" fill="#2e363e" d="M9,14.877L7.7,16.048a1.952,1.952,0,0,1-2.805,0,2.071,2.071,0,0,1,0-2.874L8,10a1.951,1.951,0,0,1,2.627-.162,2.011,2.011,0,0,1,.178.162,0.836,0.836,0,0,0,1.215.013l0.972-1a4.4,4.4,0,0,0-.552-0.693,4.29,4.29,0,0,0-.964-0.743,4.23,4.23,0,0,0-4.351.115,4.317,4.317,0,0,0-.773.629L3.264,11.486a4.493,4.493,0,0,0,0,6.237,4.236,4.236,0,0,0,6.087,0l2.532-2.436A5.329,5.329,0,0,1,9,14.877ZM17.733,3.282a4.256,4.256,0,0,0-6.1,0L9.152,5.844a5.356,5.356,0,0,1,2.89.411l1.239-1.3a1.961,1.961,0,0,1,2.813,0,2.066,2.066,0,0,1,0,2.874l-3.11,3.178a1.949,1.949,0,0,1-2.617.153A1.975,1.975,0,0,1,10.183,11a0.859,0.859,0,0,0-1.231,0l-0.974,1a4.429,4.429,0,0,0,.554.692,4.315,4.315,0,0,0,.974.747,4.252,4.252,0,0,0,4.38-.134,4.326,4.326,0,0,0,.751-0.613l3.1-3.165A4.484,4.484,0,0,0,17.733,3.282Z" transform="translate(-2.031 63)"/></g>
  <g transform="translate(0 18)"><path id="_" data-name="#" fill="#2E363E" d="M14.409,13.411A1.925,1.925,0,0,1,13,14H2.008a1.925,1.925,0,0,1-1.413-.585A1.924,1.924,0,0,1,.01,12V5.006A1.925,1.925,0,0,1,.595,3.593a1.925,1.925,0,0,1,1.413-.585H3.756l0.4-1.061A1.45,1.45,0,0,1,4.7,1.287,1.39,1.39,0,0,1,5.5,1.01h4a1.39,1.39,0,0,1,.808.277,1.449,1.449,0,0,1,.542.66l0.4,1.061H13a2,2,0,0,1,2,2V12A1.924,1.924,0,0,1,14.409,13.411ZM9.972,6.032A3.367,3.367,0,0,0,7.5,5.006a3.367,3.367,0,0,0-2.47,1.026A3.367,3.367,0,0,0,4.005,8.5a3.367,3.367,0,0,0,1.026,2.47A3.367,3.367,0,0,0,7.5,12a3.367,3.367,0,0,0,2.47-1.026A3.367,3.367,0,0,0,11,8.5,3.367,3.367,0,0,0,9.972,6.032ZM7.5,10.75A2.252,2.252,0,0,1,5.254,8.5,2.252,2.252,0,0,1,7.5,6.254,2.252,2.252,0,0,1,9.75,8.5,2.252,2.252,0,0,1,7.5,10.75Z" transform="translate(20 65)"/></g>
  <g><path id="_" data-name="#" fill="#fff" d="M14.409,13.411A1.925,1.925,0,0,1,13,14H2.008a1.925,1.925,0,0,1-1.413-.585A1.924,1.924,0,0,1,.01,12V5.006A1.925,1.925,0,0,1,.595,3.593a1.925,1.925,0,0,1,1.413-.585H3.756l0.4-1.061A1.45,1.45,0,0,1,4.7,1.287,1.39,1.39,0,0,1,5.5,1.01h4a1.39,1.39,0,0,1,.808.277,1.449,1.449,0,0,1,.542.66l0.4,1.061H13a2,2,0,0,1,2,2V12A1.924,1.924,0,0,1,14.409,13.411ZM9.972,6.032A3.367,3.367,0,0,0,7.5,5.006a3.367,3.367,0,0,0-2.47,1.026A3.367,3.367,0,0,0,4.005,8.5a3.367,3.367,0,0,0,1.026,2.47A3.367,3.367,0,0,0,7.5,12a3.367,3.367,0,0,0,2.47-1.026A3.367,3.367,0,0,0,11,8.5,3.367,3.367,0,0,0,9.972,6.032ZM7.5,10.75A2.252,2.252,0,0,1,5.254,8.5,2.252,2.252,0,0,1,7.5,6.254,2.252,2.252,0,0,1,9.75,8.5,2.252,2.252,0,0,1,7.5,10.75Z" transform="translate(20 65)"/></g>
  <g><path id="_" data-name="#" fill="#fff" d="M21.134,19.139A2.824,2.824,0,0,1,19.062,20H2.943a2.824,2.824,0,0,1-2.072-.859,2.823,2.823,0,0,1-.859-2.072V6.9A2.824,2.824,0,0,1,.871,4.831a2.824,2.824,0,0,1,2.072-.859H5.508L6.091,2.354a2.127,2.127,0,0,1,.8-0.967A2.039,2.039,0,0,1,8.072.98h5.861a2.039,2.039,0,0,1,1.185.407,2.127,2.127,0,0,1,.8.967L16.5,3.973h2.564A2.931,2.931,0,0,1,21.992,6.9V17.067A2.824,2.824,0,0,1,21.134,19.139ZM14.515,8.457A4.789,4.789,0,0,0,11,7,4.788,4.788,0,0,0,7.49,8.457,4.789,4.789,0,0,0,6.03,11.97a4.788,4.788,0,0,0,1.46,3.513A4.788,4.788,0,0,0,11,16.942a4.788,4.788,0,0,0,3.513-1.46,4.788,4.788,0,0,0,1.46-3.513A4.788,4.788,0,0,0,14.515,8.457ZM11,15.166a3.2,3.2,0,0,1-3.2-3.2,3.2,3.2,0,0,1,3.2-3.2,3.2,3.2,0,0,1,3.2,3.2A3.2,3.2,0,0,1,11,15.166Z" transform="translate(40 65)"/></g>
  <g transform="translate(80 20)"><path id="_" data-name="#" d="M1265.453,500.517a1.854,1.854,0,0,1,0,2.606l-.862.868-2.586-2.606.862-.868a1.819,1.819,0,0,1,2.586,0Zm-10.952,8.435-.441,2.986,2.986-.442,6.344-6.313-2.546-2.545Z" transform="translate(-1254.06 -499.978)" fill="#2e363e"/></g>
  <g transform="translate(70 70)"><path id="ic_add.svg" d="M1224,507h-5v5a1,1,0,0,1-2,0v-5h-5a1,1,0,0,1,0-2h5v-5a1,1,0,0,1,2,0v5h5a1,1,0,0,1,0,2Z" transform="translate(-1211 -499)" fill="#2e363e"/></g>
</svg>
