<svg xmlns="http://www.w3.org/2000/svg" width="100" height="100" viewBox="0 0 100 100">
  <g><path id="merchant-activity.svg" class="cls-1" d="M17.526,8H13.518l2.37-5.973A1.5,1.5,0,0,0,15.31.233a1.517,1.517,0,0,0-1.876.2l-10,10.827a1.753,1.753,0,0,0-.318,1.781,1.486,1.486,0,0,0,1.378.92H8.579L6.1,19.952a1.493,1.493,0,0,0,1.391,2.035,1.481,1.481,0,0,0,1.062-.445L18.577,10.722A1.63,1.63,0,0,0,19.019,9.6,1.593,1.593,0,0,0,17.526,8ZM7.508,20.476L10.854,12.5H4.527L14.5,1.491,11.139,9.475h6.336Z" transform="translate(20 0)" fill="#ffffff"/></g>
  <g><path id="merchant-inbox.svg" class="cls-1" d="M2.5,12.345a2.9,2.9,0,0,0,.911.146H5.8A5.7,5.7,0,0,0,11,16.479a5.7,5.7,0,0,0,5.2-3.988h2.39a2.894,2.894,0,0,0,.907-0.145v6.746a0.378,0.378,0,0,1-.377.377H2.877A0.378,0.378,0,0,1,2.5,19.092V12.345M18.623,1.969H3.377A2.377,2.377,0,0,0,1,4.346V18.592a2.377,2.377,0,0,0,2.377,2.377H18.623A2.377,2.377,0,0,0,21,18.592V4.346a2.377,2.377,0,0,0-2.377-2.377h0ZM3.411,10.991A0.911,0.911,0,0,1,2.5,10.079V4.271a0.8,0.8,0,0,1,.8-0.8H18.7a0.8,0.8,0,0,1,.8.8v5.815a0.907,0.907,0,0,1-.907.907H15.839a1.634,1.634,0,0,0-1.478,1.187A3.735,3.735,0,0,1,11,14.979a3.735,3.735,0,0,1-3.361-2.8,1.634,1.634,0,0,0-1.478-1.187H3.411Z" transform="translate(40 -1.969)" fill="#ffffff"/></g>
  <g><path id="Logotype" class="cls-1" d="M90.467,2.737L84,11.1v5.4a1.5,1.5,0,0,1-3,0V11.125l-6.638-8.39a2.007,2.007,0,0,1-.386-1.149,1.469,1.469,0,0,1,.49-1.123A1.691,1.691,0,0,1,75.66.008a1.634,1.634,0,0,1,1.4,1.03l5.435,7,5.383-7.1A1.647,1.647,0,0,1,89.3.005,1.621,1.621,0,0,1,90.5.45,1.5,1.5,0,0,1,91,1.554,1.96,1.96,0,0,1,90.467,2.737ZM64.22,15.025a7.621,7.621,0,0,0,4.117-1.594A1.858,1.858,0,0,1,69.469,13a1.5,1.5,0,0,1,.954,2.7l0,0a10.7,10.7,0,0,1-6.2,2.3,9.061,9.061,0,0,1-9.26-8.964A9.113,9.113,0,0,1,64.22,0a10.606,10.606,0,0,1,6.17,2.3l0,0A1.5,1.5,0,0,1,69.438,5a1.86,1.86,0,0,1-1.133-.434A7.553,7.553,0,0,0,64.22,2.944a6.2,6.2,0,0,0-6.249,6.087A6.123,6.123,0,0,0,64.22,15.025Zm-14.789,3H49.3A2.322,2.322,0,0,1,47.618,16.9l-8.61-11.19L39,16.5a1.5,1.5,0,1,1-3,0L35.986,1.6A1.489,1.489,0,0,1,36.455.479,1.535,1.535,0,0,1,37.6,0h0.338A2.116,2.116,0,0,1,39.6.988l8.381,11.261L48,1.5a1.5,1.5,0,1,1,3,0l0.006,14.979a1.393,1.393,0,0,1-.46,1.073A1.5,1.5,0,0,1,49.43,18.021Zm-19,0a1.653,1.653,0,0,1-1.679-1.058l-1.319-2.981h-7.85L18.12,17.075a1.528,1.528,0,0,1-1.59.948,1.507,1.507,0,0,1-1.13-.351,1.417,1.417,0,0,1-.429-1.083,1.586,1.586,0,0,1,.191-0.749L21.39,1.364A2.137,2.137,0,0,1,23.4-.036h0.165A2.2,2.2,0,0,1,25.6,1.382L31.83,15.858a1.4,1.4,0,0,1,.194.689,1.509,1.509,0,0,1-.455,1.114A1.487,1.487,0,0,1,30.43,18.023ZM23.477,3.98L20.6,10.969h5.8Zm-12-.97H3.008V7.986H10.48A1.516,1.516,0,0,1,12,9.506a1.418,1.418,0,0,1-.449,1.051A1.486,1.486,0,0,1,10.48,11H3.008L3,16.5a1.5,1.5,0,1,1-3,0V1.5A1.5,1.5,0,0,1,1.5,0h9.987a1.446,1.446,0,0,1,1.069.408A1.489,1.489,0,0,1,13,1.49a1.488,1.488,0,0,1-.449,1.082A1.486,1.486,0,0,1,11.48,3.011Z" fill="#ffffff" transform="translate(0 25)"/></g>
  <g><circle id="_" data-name="#" class="cls-1" cx="10.016" cy="10.016" r="10.016" fill="#2785fa"/>
  <path id="_2" data-name="#" class="cls-2" d="M14.727,7.584L9.286,13.725a0.98,0.98,0,0,1-1.367,0L5.2,10.647a0.977,0.977,0,0,1,0-1.363,0.933,0.933,0,0,1,1.338,0L8.608,11.6,13.4,6.233a0.925,0.925,0,0,1,1.325,0A0.968,0.968,0,0,1,14.727,7.584Z" fill="#ffffff"/></g>
  <g><path id="merchant-store.svg" class="cls-1" d="M19.121,9.014a2.7,2.7,0,0,1-2.652-1.583A2.816,2.816,0,0,1,13.73,9.014a2.844,2.844,0,0,1-2.777-1.531,2.729,2.729,0,0,1-2.7,1.531A2.769,2.769,0,0,1,5.529,7.472,2.739,2.739,0,0,1,2.82,9.014a2.878,2.878,0,0,1-2.832-3l0.028-.1L3,1.132A0.238,0.238,0,0,1,3.206,1H18.778a0.239,0.239,0,0,1,.211.129l3,4.786,0.028,0.1A2.926,2.926,0,0,1,19.121,9.014ZM18.077,2.5H3.909L1.516,6.349a1.338,1.338,0,0,0,1.3,1.165,1.259,1.259,0,0,0,1.318-.6,1.54,1.54,0,0,1,1.4-.937H5.576a1.5,1.5,0,0,1,1.346.942,1.3,1.3,0,0,0,1.332.6,1.25,1.25,0,0,0,1.305-.589,1.55,1.55,0,0,1,1.4-.943h0.034a1.457,1.457,0,0,1,1.337.906,1.376,1.376,0,0,0,1.4.626,1.339,1.339,0,0,0,1.347-.645,1.495,1.495,0,0,1,2.772-.025,1.245,1.245,0,0,0,1.272.67,1.4,1.4,0,0,0,1.361-1.167ZM7.25,17.5a0.75,0.75,0,1,1,0-1.5h7.5a0.75,0.75,0,0,1,0,1.5H7.25ZM3,11.012a3.494,3.494,0,0,0,1.506-.528L4.5,19.513l13,0V10.484A3.431,3.431,0,0,0,19,11.013l0,8.6a1.387,1.387,0,0,1-1.373,1.4H4.316a1.348,1.348,0,0,1-1.327-1.4H3.01Z" transform="translate(70 -1)" fill="#ffffff"/></g>
  <g id="Seller_1" data-name="Seller 1" transform="translate(-1160.997 -29.015)">
    <path id="_" data-name="#" d="M1164,80h10l2.344,4h-13.875Z" fill="#9a9fa6" opacity="0.102"/>
    <path id="_2" data-name="#" d="M1164.781,94A1.647,1.647,0,0,1,1163,92.219l.009-5.726a2.119,2.119,0,0,0,1-.4L1164,92.219c0,.553.229.781.781.781h8.438c.553,0,.781-.229.781-.781l-.013-6.121a2.085,2.085,0,0,0,.992.4l.022,5.725A1.647,1.647,0,0,1,1173.218,94Zm1.663-3.129a.444.444,0,0,1-.444-.445.425.425,0,0,1,.426-.426h5.148a.426.426,0,0,1,.426.426.444.444,0,0,1-.444.445Zm6.538-7.053a2.311,2.311,0,0,1-4.011.039A1.976,1.976,0,0,1,1167.008,85a2.005,2.005,0,0,1-1.982-1.152,1.985,1.985,0,0,1-1.97,1.152,2.125,2.125,0,0,1-2.059-2.24c.006-.024.014-.049.02-.073l2.167-3.576a.172.172,0,0,1,.153-.1h11.324a.173.173,0,0,1,.153.1l2.178,3.576.021.072a2.16,2.16,0,0,1-2.1,2.241A1.954,1.954,0,0,1,1172.982,83.817Zm-5.025-.159a1.128,1.128,0,0,1,1.018-.7H1169a1.06,1.06,0,0,1,.972.677c.153.372.571.374,1.018.374.413,0,.813-.007.98-.389a1.129,1.129,0,0,1,.473-.561,1.087,1.087,0,0,1,1.543.542c.133.321.446.408.925.408a1.024,1.024,0,0,0,.99-.872l-1.75-3.122h-10.3l-1.741,3.123a.982.982,0,0,0,.949.871c.426,0,.791.022.958-.358a1.119,1.119,0,0,1,1.017-.7h.029a1.1,1.1,0,0,1,.978.7c.161.366.548.355.969.355S1167.791,84.03,1167.957,83.658Z" fill="#8c939b"/>
  </g>
  <g id="Seller_2" data-name="Seller 2" transform="translate(-1141 -84)">
    <rect id="_3" data-name="#" width="15" height="4" transform="translate(1162 135)" fill="#8c939b" opacity="0.102"/>
    <path id="_4" data-name="#" d="M1166.5,149H1163a2,2,0,0,1-2-2V136a2,2,0,0,1,2-2h12a2,2,0,0,1,2,2v11a2,2,0,0,1-2,2Zm8.5-1a1,1,0,0,0,1-1v-7h-9v8Zm-13-1a1,1,0,0,0,1,1h3v-8h-4Zm14-8v-3a1,1,0,0,0-1-1h-12a1,1,0,0,0-1,1v3Z" fill="#8c939b"/>
  </g>
  <g><path id="_" data-name="#" class="cls-1" d="M11.454,0.517a1.854,1.854,0,0,1,0,2.606l-0.862.868L8.006,1.386l0.862-.868a1.819,1.819,0,0,1,2.586,0h0ZM0.5,8.952L0.06,11.939,3.047,11.5,9.391,5.184,6.845,2.639Z" file="#2e363e" transform="translate(40 50)"/></g>
  <g transform="translate(-10 30)"><path id="_" data-name="#" d="M1264.115,34.889a1.366,1.366,0,0,1-1.34,1.105h-11.551a1.366,1.366,0,0,1-1.34-1.105l-2.615-13.227s-2.378-.173-1.585-.173c-.3,0-.682.054-.682-.748s.384-.746.707-.746l2.455.021a.534.534,0,0,1,.523.432l.664,3.542c2.326,0,15.282.028,15.282.028a1.41,1.41,0,0,1,1.34,1.654Zm-14.5-9.388,1.664,8.977h11.438l1.726-8.977Zm3.884,12.53a1.5,1.5,0,1,1-1.5,1.5A1.5,1.5,0,0,1,1253.5,38.031Zm7-.016a1.5,1.5,0,1,1-1.5,1.5A1.5,1.5,0,0,1,1260.5,38.015Z" transform="translate(-1175.002 0.005)" fill="#fff"/></g>
</svg>