<svg width="256" height="40" viewBox="0 0 256 40" fill="none" xmlns="http://www.w3.org/2000/svg">
<g clip-path="url(#clip0)">
<path d="M1.2334 5.25C1.2334 3.04086 3.02426 1.25 5.2334 1.25H34.7334C36.9425 1.25 38.7334 3.04086 38.7334 5.25V34.75C38.7334 36.9591 36.9425 38.75 34.7334 38.75H5.2334C3.02426 38.75 1.2334 36.9591 1.2334 34.75V5.25Z" stroke="#3F434B" stroke-width="2.5" stroke-linecap="round" stroke-linejoin="round"/>
<path d="M11.6504 19.9998C11.6504 21.0942 11.8659 22.1778 12.2847 23.1889C12.7035 24.1999 13.3173 25.1186 14.0912 25.8924C14.865 26.6662 15.7836 27.28 16.7947 27.6988C17.8057 28.1176 18.8894 28.3332 19.9837 28.3332C21.0781 28.3332 22.1617 28.1176 23.1728 27.6988C24.1838 27.28 25.1025 26.6662 25.8763 25.8924C26.6501 25.1186 27.2639 24.1999 27.6827 23.1889C28.1015 22.1778 28.3171 21.0942 28.3171 19.9998C28.3171 18.9055 28.1015 17.8219 27.6827 16.8108C27.2639 15.7998 26.6501 14.8811 25.8763 14.1073C25.1025 13.3335 24.1838 12.7196 23.1728 12.3008C22.1617 11.8821 21.0781 11.6665 19.9837 11.6665C18.8894 11.6665 17.8057 11.8821 16.7947 12.3008C15.7836 12.7196 14.865 13.3335 14.0912 14.1073C13.3173 14.8811 12.7035 15.7998 12.2847 16.8108C11.8659 17.8219 11.6504 18.9055 11.6504 19.9998V19.9998Z" stroke="#3F434B" stroke-width="2.5" stroke-linecap="round" stroke-linejoin="round"/>
<path d="M32.2331 8.5835C32.2331 8.80451 32.1453 9.01647 31.989 9.17275C31.8327 9.32903 31.6208 9.41683 31.3997 9.41683C31.1787 9.41683 30.9668 9.32903 30.8105 9.17275C30.6542 9.01647 30.5664 8.80451 30.5664 8.5835" stroke="#3F434B" stroke-width="2.5" stroke-linecap="round" stroke-linejoin="round"/>
<path d="M30.5664 8.58333C30.5664 8.36232 30.6542 8.15036 30.8105 7.99408C30.9668 7.8378 31.1787 7.75 31.3997 7.75C31.6208 7.75 31.8327 7.8378 31.989 7.99408C32.1453 8.15036 32.2331 8.36232 32.2331 8.58333" stroke="#3F434B" stroke-width="2.5" stroke-linecap="round" stroke-linejoin="round"/>
</g>
<path d="M110.634 11.1834L107.134 9.68343L108.967 5.68343L104.7 7.1001C103.341 5.83331 101.558 5.12001 99.7005 5.1001C97.7127 5.1045 95.8076 5.89609 94.402 7.30166C92.9964 8.70723 92.2049 10.6123 92.2005 12.6001V14.2668C86.3005 15.4834 81.1505 12.2668 76.3671 6.76676C75.5338 11.2112 76.3671 14.5445 78.8671 16.7668L73.3838 15.9334C73.5956 17.6988 74.421 19.3335 75.7158 20.5521C77.0105 21.7706 78.6922 22.4955 80.4671 22.6001L75.8838 24.2668C77.5505 27.6001 80.5838 28.1168 84.6338 28.4334C81.3235 30.6912 77.3897 31.8568 73.3838 31.7668C94.6505 41.2168 107.134 27.3334 107.134 15.1001V13.7168L110.634 11.1834Z" stroke="#3F434B" stroke-width="2.5" stroke-linecap="round" stroke-linejoin="round"/>
<path d="M164.25 38.75H146.917C146.475 38.75 146.051 38.5744 145.738 38.2618C145.426 37.9493 145.25 37.5254 145.25 37.0833V2.91667C145.25 2.47464 145.426 2.05072 145.738 1.73816C146.051 1.42559 146.475 1.25 146.917 1.25H181.083C181.525 1.25 181.949 1.42559 182.262 1.73816C182.574 2.05072 182.75 2.47464 182.75 2.91667V37.0833C182.75 37.5254 182.574 37.9493 182.262 38.2618C181.949 38.5744 181.525 38.75 181.083 38.75H170.917V24.5833H175.183C175.388 24.5848 175.586 24.5109 175.74 24.3756C175.894 24.2404 175.992 24.0533 176.017 23.85L176.65 18.85C176.664 18.7325 176.653 18.6133 176.618 18.5003C176.582 18.3874 176.523 18.2833 176.444 18.195C176.365 18.1067 176.269 18.0362 176.16 17.9882C176.052 17.9402 175.935 17.9158 175.817 17.9167H170.917V16.15C170.917 15.7801 170.99 15.4138 171.131 15.0721C171.273 14.7304 171.48 14.4199 171.742 14.1583C172.003 13.8968 172.314 13.6893 172.655 13.5477C172.997 13.4062 173.363 13.3333 173.733 13.3333H176.75C176.971 13.3333 177.183 13.2455 177.339 13.0893C177.496 12.933 177.583 12.721 177.583 12.5V7.5C177.583 7.27899 177.496 7.06702 177.339 6.91074C177.183 6.75446 176.971 6.66667 176.75 6.66667H173.733C171.218 6.66667 168.806 7.6658 167.028 9.44427C165.249 11.2227 164.25 13.6349 164.25 16.15V17.9167H160.083C159.862 17.9167 159.65 18.0045 159.494 18.1607C159.338 18.317 159.25 18.529 159.25 18.75V23.75C159.25 23.971 159.338 24.183 159.494 24.3393C159.65 24.4955 159.862 24.5833 160.083 24.5833H164.25V38.75Z" stroke="#3F434B" stroke-width="2.5" stroke-linecap="round" stroke-linejoin="round"/>
<path d="M227 17.1168C226.819 16.4943 226.729 15.8486 226.734 15.2002C226.719 13.9653 226.956 12.7403 227.43 11.5999C227.904 10.4595 228.605 9.42753 229.491 8.56682C230.377 7.70611 231.428 7.03468 232.582 6.59342C233.735 6.15217 234.966 5.95031 236.2 6.00016C241.367 6.00016 244.2 9.15016 244.2 13.3668C244.2 18.9002 241.75 23.5835 238.1 23.5835C236.084 23.5835 235.384 22.0502 235.85 20.0168C236.55 17.1002 240.367 12.2502 235.85 11.2502C231.334 10.2502 230.634 15.9835 230.55 18.5835L227.784 30.2502C227.319 32.9581 227.319 35.7255 227.784 38.4335C227.789 38.4917 227.812 38.5468 227.85 38.5913C227.888 38.6358 227.939 38.6676 227.995 38.6822C228.052 38.6968 228.111 38.6935 228.166 38.6729C228.221 38.6522 228.268 38.6152 228.3 38.5668C229.959 36.5028 231.25 34.1687 232.117 31.6668C232.384 30.7002 233.367 27.0002 233.367 27.0002C233.95 27.8527 234.738 28.5451 235.658 29.014C236.578 29.4828 237.601 29.713 238.634 29.6835C245.55 29.6835 250.517 22.1168 250.517 13.6668C250.517 7.2835 245.1 1.3335 236.884 1.3335C226.65 1.3335 221.484 8.66683 221.484 14.7835C221.38 16.2282 221.63 17.6764 222.21 19.0032C222.791 20.3301 223.686 21.4959 224.817 22.4002L227 17.1168Z" stroke="#3F434B" stroke-width="2.5" stroke-linecap="round" stroke-linejoin="round"/>
<defs>
<clipPath id="clip0">
<rect width="40" height="40" fill="white"/>
</clipPath>
</defs>
</svg>
