<svg xmlns="http://www.w3.org/2000/svg" xmlns:xlink="http://www.w3.org/1999/xlink" width="200" height="100" viewBox="0 0 200 100">
  <defs>
    <clipPath id="clip-custom_1">
      <rect width="200" height="100"/>
    </clipPath>
  </defs>
  <g id="custom_1" data-name="custom – 1" clip-path="url(#clip-custom_1)">
    <path id="Logotype" d="M270.467,22.736,264,31.1v5.4a1.5,1.5,0,0,1-3,0V31.125l-6.638-8.39a2.007,2.007,0,0,1-.386-1.149,1.469,1.469,0,0,1,.49-1.123,1.691,1.691,0,0,1,1.193-.455c.63,0,.949.344,1.4,1.03l5.435,7,5.383-7.1c.464-.642.79-.938,1.422-.938a1.621,1.621,0,0,1,1.2.445,1.5,1.5,0,0,1,.505,1.1A1.96,1.96,0,0,1,270.467,22.736ZM244.22,35.025a7.621,7.621,0,0,0,4.117-1.594A1.858,1.858,0,0,1,249.469,33a1.5,1.5,0,0,1,.954,2.7l0,0a10.7,10.7,0,0,1-6.2,2.3,9,9,0,1,1,0-17.99,10.607,10.607,0,0,1,6.17,2.3l0,0a1.5,1.5,0,0,1-.953,2.7,1.86,1.86,0,0,1-1.133-.434,7.553,7.553,0,0,0-4.086-1.625,6.2,6.2,0,0,0-6.249,6.087A6.123,6.123,0,0,0,244.22,35.025Zm-14.789,3H229.3a2.322,2.322,0,0,1-1.681-1.117l-8.61-11.19L219,36.5a1.5,1.5,0,1,1-3,0l-.014-14.9a1.489,1.489,0,0,1,.469-1.118A1.535,1.535,0,0,1,217.6,20h.338a2.116,2.116,0,0,1,1.666.991l8.381,11.261L228,21.5a1.5,1.5,0,1,1,3,0l.006,14.979a1.393,1.393,0,0,1-.46,1.073A1.5,1.5,0,0,1,229.43,38.021Zm-19,0a1.653,1.653,0,0,1-1.679-1.057l-1.319-2.981h-7.85l-1.462,3.091a1.528,1.528,0,0,1-1.59.947,1.507,1.507,0,0,1-1.13-.351,1.417,1.417,0,0,1-.429-1.083,1.586,1.586,0,0,1,.191-.749l6.228-14.476a2.137,2.137,0,0,1,2.006-1.4h.165a2.2,2.2,0,0,1,2.041,1.417l6.228,14.477a1.4,1.4,0,0,1,.194.689,1.509,1.509,0,0,1-.455,1.114A1.487,1.487,0,0,1,210.43,38.023ZM203.477,23.98,200.6,30.969h5.8Zm-12-.97h-8.472v4.975h7.472A1.516,1.516,0,0,1,192,29.506a1.418,1.418,0,0,1-.449,1.051,1.486,1.486,0,0,1-1.075.438h-7.472L183,36.5a1.5,1.5,0,1,1-3,0v-15a1.5,1.5,0,0,1,1.5-1.5h9.987a1.445,1.445,0,0,1,1.07.408,1.521,1.521,0,0,1-1.077,2.6Z" transform="translate(-180 -19.964)" fill="#3d4956"/>
    <path id="Icon" d="M312.282,32.134a6,6,0,1,1,.865-.87l3.366,3.365-.868.868ZM303.59,27.5a4.9,4.9,0,1,0,4.9-4.9A4.906,4.906,0,0,0,303.59,27.5Z" transform="translate(-302.5 -1.51)" fill="#505b67" opacity="0.8"/>
    

    <path id="Activity" d="M1217.526,27h-4.009l2.37-5.973a1.5,1.5,0,0,0-.577-1.793,1.518,1.518,0,0,0-1.876.2l-10,10.827a1.753,1.753,0,0,0-.318,1.781,1.486,1.486,0,0,0,1.378.92h4.089l-2.481,5.988a1.493,1.493,0,0,0,1.391,2.035,1.481,1.481,0,0,0,1.062-.445l10.026-10.819a1.63,1.63,0,0,0,.441-1.122A1.593,1.593,0,0,0,1217.526,27Zm-10.018,12.477,3.345-7.973h-6.327l9.973-11.012-3.361,7.985h6.336Z" transform="translate(-1152.997 1.002)" fill="#727980"/>
    <path id="_" data-name="#" d="M1264.115,34.889a1.366,1.366,0,0,1-1.34,1.105h-11.551a1.366,1.366,0,0,1-1.34-1.105l-2.615-13.227s-2.378-.173-1.585-.173c-.3,0-.682.054-.682-.748s.384-.746.707-.746l2.455.021a.534.534,0,0,1,.523.432l.664,3.542c2.326,0,15.282.028,15.282.028a1.41,1.41,0,0,1,1.34,1.654Zm-14.5-9.388,1.664,8.977h11.438l1.726-8.977Zm3.884,12.53a1.5,1.5,0,1,1-1.5,1.5A1.5,1.5,0,0,1,1253.5,38.031Zm7-.016a1.5,1.5,0,1,1-1.5,1.5A1.5,1.5,0,0,1,1260.5,38.015Z" transform="translate(-1175.002 0.005)" fill="#727980"/>
    <g id="group_1" data-name="group 1" transform="translate(80 -69.011)">
      <path id="Affiliate" d="M1204.5,271a2.5,2.5,0,0,1-2.5-2.5v-10a2.5,2.5,0,0,1,2.5-2.5h10a2.5,2.5,0,0,1,2.5,2.5v10a2.5,2.5,0,0,1-2.5,2.5Zm-1.5-12.5v10a1.5,1.5,0,0,0,1.5,1.5h10a1.5,1.5,0,0,0,1.5-1.5v-10a1.5,1.5,0,0,0-1.5-1.5h-10A1.5,1.5,0,0,0,1203,258.5Zm9,8v-4a.5.5,0,1,1,1,0v4a.5.5,0,1,1-1,0Zm-2,0v-3a.5.5,0,0,1,1,0v3a.5.5,0,0,1-1,0Zm-2,0v-6a.5.5,0,0,1,1,0v6a.5.5,0,1,1-1,0Zm-2,0v-2a.5.5,0,1,1,1,0v2a.5.5,0,1,1-1,0Z" transform="translate(-1122 -186.989)" fill="#6e7a88" opacity="0.902"/>
      <path id="Add_to_Fancy" data-name="Add to Fancy" d="M1204.5,239a2.5,2.5,0,0,1-2.5-2.5v-10a2.5,2.5,0,0,1,2.5-2.5h10a2.5,2.5,0,0,1,2.5,2.5v10a2.5,2.5,0,0,1-2.5,2.5Zm-1.5-12.5v10a1.5,1.5,0,0,0,1.5,1.5h10a1.5,1.5,0,0,0,1.5-1.5v-10a1.5,1.5,0,0,0-1.5-1.5h-10A1.5,1.5,0,0,0,1203,226.5Zm6,8V232h-2.5a.5.5,0,1,1,0-1h2.5v-2.5a.5.5,0,1,1,1,0V231h2.5a.5.5,0,1,1,0,1H1210v2.5a.5.5,0,0,1-1,0Z" transform="translate(-1142 -154.989)" fill="#6e7a88" opacity="0.902"/>
      <path id="Admin" d="M1213.5,181h-8a2.5,2.5,0,0,1-2.5-2.5v-6a2.5,2.5,0,0,1,2.5-2.5h.5v-2a2,2,0,0,1,2-2h3a2,2,0,0,1,2,2v2h-1v-2a1,1,0,0,0-1-1h-3a1,1,0,0,0-1,1v2h6.5a2.5,2.5,0,0,1,2.5,2.5v6A2.5,2.5,0,0,1,1213.5,181Zm-8-10a1.5,1.5,0,0,0-1.5,1.5v6a1.5,1.5,0,0,0,1.5,1.5h8a1.5,1.5,0,0,0,1.5-1.5v-6a1.5,1.5,0,0,0-1.5-1.5Zm4,6a1.5,1.5,0,1,1,1.5-1.5A1.5,1.5,0,0,1,1209.5,177Zm0-2a.5.5,0,1,0,.5.5A.5.5,0,0,0,1209.5,175Z" transform="translate(-1182 -61.989)" fill="#6e7a88" opacity="0.902"/>
      <path id="Orders" d="M1204.5,150a2.5,2.5,0,0,1-2.5-2.5v-10a2.5,2.5,0,0,1,2.5-2.5h2.586a1.5,1.5,0,0,1,1.415-1h2a1.5,1.5,0,0,1,1.415,1h2.585a2.5,2.5,0,0,1,2.5,2.5v10a2.5,2.5,0,0,1-2.5,2.5Zm-1.5-12.5v10a1.5,1.5,0,0,0,1.5,1.5h10a1.5,1.5,0,0,0,1.5-1.5v-10a1.5,1.5,0,0,0-1.5-1.5h-2.585a1.5,1.5,0,0,1-1.415,1h-2a1.5,1.5,0,0,1-1.415-1H1204.5A1.5,1.5,0,0,0,1203,137.5Zm5-2a.5.5,0,0,0,.5.5h2a.5.5,0,1,0,0-1h-2A.5.5,0,0,0,1208,135.5Zm-1.5,9.5a.5.5,0,1,1,0-1h5a.5.5,0,1,1,0,1Zm0-2a.5.5,0,1,1,0-1h6a.5.5,0,1,1,0,1Zm0-2a.5.5,0,1,1,0-1h6a.5.5,0,1,1,0,1Z" transform="translate(-1162 -64.989)" fill="#6e7a88" opacity="0.902"/>
      <path id="Wishlist" d="M1206.505,105.015a2.4,2.4,0,0,1,2.1,1.191l.884,1.478.9-1.47a2.33,2.33,0,0,1,2.05-1.2,2.617,2.617,0,0,1,2.464,2.639l0,.038,0,.029a2.862,2.862,0,0,1-.1.971,4.687,4.687,0,0,1-1.465,2.439l-3.884,3.478-3.863-3.477a4.747,4.747,0,0,1-1.5-2.44,2.871,2.871,0,0,1-.1-.966l.006-.036,0-.036a2.642,2.642,0,0,1,2.495-2.639m0-1.031a3.647,3.647,0,0,0-3.49,3.58,3.3,3.3,0,0,0,.079,1.36,5.828,5.828,0,0,0,1.8,2.983l4.561,4.109,4.584-4.109a5.824,5.824,0,0,0,1.8-2.984,3.965,3.965,0,0,0-3.411-4.939,3.407,3.407,0,0,0-2.938,1.715,3.477,3.477,0,0,0-2.989-1.715Z" transform="translate(-1182 -14.973)" fill="#6e7a88"/>
      <path id="Profile" d="M1209.681,71.05c1.29,0,2.262.759,2.262,1.766l-.012,1.118a2.6,2.6,0,0,1-2.25,2h-.333a2.593,2.593,0,0,1-2.269-1.977l-.012-1.168c0-1,.98-1.742,2.281-1.742h.333m.424,7.981c1.756,0,4.855,1.284,4.855,3.918v.387a.7.7,0,0,1-.728.653h-9.316a.851.851,0,0,1-.877-.8v-.244c0-2.635,3.076-3.918,4.82-3.918h1.245m-.424-9.02h-.333a3.056,3.056,0,0,0-3.321,2.781l.013,1.178c0,1.424,1.8,3.005,3.308,3.005h.333a3.628,3.628,0,0,0,3.289-3.042l.012-1.106a3.063,3.063,0,0,0-3.3-2.816Zm.424,7.981h-1.245c-2.238,0-5.859,1.682-5.859,4.957v.244a1.843,1.843,0,0,0,1.877,1.8h9.394A1.7,1.7,0,0,0,1216,83.336v-.387c0-3.276-3.657-4.957-5.894-4.957Z" transform="translate(-1182 -1)" fill="#727980"/>
    </g>
    <g id="group_2" data-name="group 2">
      <g id="group_3" data-name="group 3" transform="translate(27 -85)">
        <rect id="Website" width="13" height="3" transform="translate(94 106)" fill="#e2e4e7"/>
        <path id="Website-2" data-name="Website" d="M993,142a2,2,0,0,1-2-2V130a2,2,0,0,1,2-2h11a2,2,0,0,1,2,2v10a2,2,0,0,1-2,2Zm-1.01-2.011a1,1,0,0,0,1,1h11.021a1,1,0,0,0,1-1V133H991.99ZM1005.01,132v-2a1,1,0,0,0-1-1H992.99a1,1,0,0,0-1,1v2ZM995,130.5a.5.5,0,1,1,.5.5A.5.5,0,0,1,995,130.5Zm-2,0a.5.5,0,1,1,.5.5A.5.5,0,0,1,993,130.5Z" transform="translate(-898 -23)" fill="#6e7a88"/>
      </g>
      <path id="Upload" d="M1004,174H993a2,2,0,0,1-2-2V161a2,2,0,0,1,2-2h11a2,2,0,0,1,2,2v11A2,2,0,0,1,1004,174Zm1.009-13a1,1,0,0,0-1-1H992.992a1,1,0,0,0-1,1V172a1,1,0,0,0,1,1h11.016a1,1,0,0,0,1-1ZM1002,167h-.812L999,164.75V170h-1v-5.25L995.812,167H995v-.812L998.175,163l.007-.007.007.007h.684l.007-.007.007.007,3.112,3.206Z" transform="translate(-851 -139)" fill="#6e7a88"/>
      <path id="_2" data-name="&gt;" d="M995.053,81.834,991.2,77.917a.581.581,0,0,1,0-.823l3.856-3.95a.582.582,0,1,1,.823.823L992.423,77.5l3.453,3.508a.582.582,0,1,1-.823.823Z" transform="translate(-831.026 -52.974)" fill="#6e7a88"/>
    </g>
    <g id="group_4" data-name="group 3" transform="translate(120 40)">
      <path id="X" d="M4.42,3.5L6.875,6.012a0.582,0.582,0,1,1-.823.823L3.547,4.274,1.041,6.835A0.582,0.582,0,1,1,.218,6.012L2.674,3.5,0.218,0.966A0.582,0.582,0,0,1,1.041.144L3.547,2.732,6.053,0.144a0.582,0.582,0,1,1,.823.823Z" fill="#6e7a88" />
    </g>
  </g>
    <g id="Seller_1" data-name="Seller 1" transform="translate(-1160.997 -29.015)">
      <path id="_" data-name="#" d="M1164,80h10l2.344,4h-13.875Z" fill="#9a9fa6" opacity="0.102"/>
      <path id="_2" data-name="#" d="M1164.781,94A1.647,1.647,0,0,1,1163,92.219l.009-5.726a2.119,2.119,0,0,0,1-.4L1164,92.219c0,.553.229.781.781.781h8.438c.553,0,.781-.229.781-.781l-.013-6.121a2.085,2.085,0,0,0,.992.4l.022,5.725A1.647,1.647,0,0,1,1173.218,94Zm1.663-3.129a.444.444,0,0,1-.444-.445.425.425,0,0,1,.426-.426h5.148a.426.426,0,0,1,.426.426.444.444,0,0,1-.444.445Zm6.538-7.053a2.311,2.311,0,0,1-4.011.039A1.976,1.976,0,0,1,1167.008,85a2.005,2.005,0,0,1-1.982-1.152,1.985,1.985,0,0,1-1.97,1.152,2.125,2.125,0,0,1-2.059-2.24c.006-.024.014-.049.02-.073l2.167-3.576a.172.172,0,0,1,.153-.1h11.324a.173.173,0,0,1,.153.1l2.178,3.576.021.072a2.16,2.16,0,0,1-2.1,2.241A1.954,1.954,0,0,1,1172.982,83.817Zm-5.025-.159a1.128,1.128,0,0,1,1.018-.7H1169a1.06,1.06,0,0,1,.972.677c.153.372.571.374,1.018.374.413,0,.813-.007.98-.389a1.129,1.129,0,0,1,.473-.561,1.087,1.087,0,0,1,1.543.542c.133.321.446.408.925.408a1.024,1.024,0,0,0,.99-.872l-1.75-3.122h-10.3l-1.741,3.123a.982.982,0,0,0,.949.871c.426,0,.791.022.958-.358a1.119,1.119,0,0,1,1.017-.7h.029a1.1,1.1,0,0,1,.978.7c.161.366.548.355.969.355S1167.791,84.03,1167.957,83.658Z" fill="#8c939b"/>
    </g>
    <g id="Seller_2" data-name="Seller 2" transform="translate(-1141 -84)">
      <rect id="_3" data-name="#" width="15" height="4" transform="translate(1162 135)" fill="#8c939b" opacity="0.102"/>
      <path id="_4" data-name="#" d="M1166.5,149H1163a2,2,0,0,1-2-2V136a2,2,0,0,1,2-2h12a2,2,0,0,1,2,2v11a2,2,0,0,1-2,2Zm8.5-1a1,1,0,0,0,1-1v-7h-9v8Zm-13-1a1,1,0,0,0,1,1h3v-8h-4Zm14-8v-3a1,1,0,0,0-1-1h-12a1,1,0,0,0-1,1v3Z" fill="#8c939b"/>
    </g>
  <g id="merchant" data-name="merchant" transform="translate(20 20)">
  <path id="Store" class="cls-1" d="M19.121,8.014a2.7,2.7,0,0,1-2.652-1.583A2.816,2.816,0,0,1,13.73,8.014a2.844,2.844,0,0,1-2.777-1.531,2.728,2.728,0,0,1-2.7,1.531A2.769,2.769,0,0,1,5.529,6.472,2.74,2.74,0,0,1,2.82,8.014a2.878,2.878,0,0,1-2.832-3l0.028-.1L3,0.132A0.238,0.238,0,0,1,3.206,0H18.778a0.239,0.239,0,0,1,.211.129l3,4.786,0.028,0.1A2.925,2.925,0,0,1,19.121,8.014ZM18.077,1.5H3.909L1.516,5.349a1.337,1.337,0,0,0,1.3,1.165,1.259,1.259,0,0,0,1.318-.6,1.54,1.54,0,0,1,1.4-.937H5.576a1.5,1.5,0,0,1,1.346.942,1.3,1.3,0,0,0,1.332.6,1.25,1.25,0,0,0,1.305-.589,1.551,1.551,0,0,1,1.4-.943h0.034a1.457,1.457,0,0,1,1.337.906,1.376,1.376,0,0,0,1.4.626,1.339,1.339,0,0,0,1.347-.645,1.495,1.495,0,0,1,2.772-.025,1.245,1.245,0,0,0,1.272.67,1.4,1.4,0,0,0,1.361-1.167ZM7.25,16.5a0.75,0.75,0,1,1,0-1.5h7.5a0.75,0.75,0,0,1,0,1.5H7.25ZM3,10.012a3.5,3.5,0,0,0,1.506-.528L4.5,18.513l13,0V9.484A3.435,3.435,0,0,0,19,10.013l0,8.6a1.386,1.386,0,0,1-1.373,1.4H4.317a1.348,1.348,0,0,1-1.327-1.4H3.01Z" fill="#727980"/>
  </g>
  <g><path id="Inbox" class="cls-1" d="M1.5,10.345a2.9,2.9,0,0,0,.911.146H4.8A5.7,5.7,0,0,0,10,14.479a5.7,5.7,0,0,0,5.2-3.988h2.39a2.894,2.894,0,0,0,.907-0.145v6.746a0.377,0.377,0,0,1-.377.377H1.877A0.378,0.378,0,0,1,1.5,17.092V10.345M17.623-.031H2.377A2.377,2.377,0,0,0,0,2.346V16.592a2.377,2.377,0,0,0,2.377,2.377H17.623A2.377,2.377,0,0,0,20,16.592V2.346A2.377,2.377,0,0,0,17.623-.031h0ZM2.411,8.991A0.911,0.911,0,0,1,1.5,8.079V2.271a0.8,0.8,0,0,1,.8-0.8H17.7a0.8,0.8,0,0,1,.8.8V8.084a0.907,0.907,0,0,1-.907.907H14.839a1.634,1.634,0,0,0-1.478,1.187A3.735,3.735,0,0,1,10,12.979a3.735,3.735,0,0,1-3.361-2.8A1.634,1.634,0,0,0,5.161,8.991H2.411Z" transform="translate(40 50)" fill="#727980" /></g>
  <g transform="translate(65 50)"><path id="_" data-name="#" fill="#2e363d" d="M9.728,2.584L4.321,8.725A0.913,0.913,0,0,1,3.645,9a0.922,0.922,0,0,1-.682-0.279l-2.7-3.075a0.981,0.981,0,0,1,0-1.363,0.923,0.923,0,0,1,1.329,0L3.648,6.6,8.411,1.233a0.915,0.915,0,0,1,1.317,0A0.973,0.973,0,0,1,9.728,2.584Z" /></g>
  <g transform="translate(80 50)"><path id="ic-arrow-light.svg" fill="#fff" d="M4.835,4.916L0.979,8.835A0.582,0.582,0,1,1,.156,8.012L3.609,4.5,0.156,0.967A0.582,0.582,0,1,1,.979.144l3.856,3.95A0.581,0.581,0,0,1,4.835,4.916Z"/></g>
  <g transform="translate(80 60)"><path id="ic-cart-dropdown.svg" fill="#2785fa" d="M281.013,119.172l3.537,3.453,3.509-3.453a0.582,0.582,0,0,1,.823.822l-3.919,3.856a0.581,0.581,0,0,1-.822,0l-3.95-3.856A0.581,0.581,0,0,1,281.013,119.172Z" transform="translate(-280.031 -119)"/></g>
  <g>
      <path id="Profile" d="M1209.681,71.05c1.29,0,2.262.759,2.262,1.766l-.012,1.118a2.6,2.6,0,0,1-2.25,2h-.333a2.593,2.593,0,0,1-2.269-1.977l-.012-1.168c0-1,.98-1.742,2.281-1.742h.333m.424,7.981c1.756,0,4.855,1.284,4.855,3.918v.387a.7.7,0,0,1-.728.653h-9.316a.851.851,0,0,1-.877-.8v-.244c0-2.635,3.076-3.918,4.82-3.918h1.245m-.424-9.02h-.333a3.056,3.056,0,0,0-3.321,2.781l.013,1.178c0,1.424,1.8,3.005,3.308,3.005h.333a3.628,3.628,0,0,0,3.289-3.042l.012-1.106a3.063,3.063,0,0,0-3.3-2.816Zm.424,7.981h-1.245c-2.238,0-5.859,1.682-5.859,4.957v.244a1.843,1.843,0,0,0,1.877,1.8h9.394A1.7,1.7,0,0,0,1216,83.336v-.387c0-3.276-3.657-4.957-5.894-4.957Z" transform="translate(-1202 -1)" fill="#6e7a88"/>
  </g>
</svg>