<svg xmlns="http://www.w3.org/2000/svg" width="200" height="200" viewBox="0 0 200 200">
        <g id="Artwork_2-2" data-name="Artwork 2">
            <path id="Path_94" d="M496.58 56.671l-6.437 8.78v5.4a1.526 1.526 0 0 1-3.052 0v-5.4l-6.437-8.78a1.526 1.526 0 1 1 2.46-1.8l5.5 7.5 5.5-7.5a1.526 1.526 0 1 1 2.46 1.8zm-26.726 12.658a5.988 5.988 0 0 0 3.681-1.257 1.722 1.722 0 0 1 1.086-.449 1.526 1.526 0 0 1 .934 2.729 9.067 9.067 0 1 1 0-14.085 1.526 1.526 0 0 1-.934 2.733 1.764 1.764 0 0 1-1.086-.449 6.024 6.024 0 1 0-3.681 10.782zm-15.306 3.043a1.751 1.751 0 0 1-1.436-.754l-8.753-11.706v10.934a1.526 1.526 0 0 1-3.052 0V55.989a1.751 1.751 0 0 1 3.187-1l8.753 11.715v-10.94a1.526 1.526 0 1 1 3.052 0v14.857a1.751 1.751 0 0 1-1.751 1.751zm-20.748-.916l-1.266-2.945h-8.681l-1.266 2.945a1.526 1.526 0 1 1-2.8-1.2l6.275-14.57a2.307 2.307 0 0 1 4.255-.054l6.283 14.621a1.526 1.526 0 1 1-2.8 1.2zm-5.6-13.017l-3.061 7.119h6.123zM415.722 57.3h-8.169v5.207H415a1.526 1.526 0 0 1 0 3.052h-7.451v5.3a1.526 1.526 0 0 1-3.052 0V55.764a1.526 1.526 0 0 1 1.526-1.526h9.7a1.526 1.526 0 0 1 0 3.052z" fill="#fff" data-name="Path 94" transform="translate(-368.187 -49.336)"/>
            <path id="Path_95" d="M24.867 0H3.133A3.133 3.133 0 0 0 0 3.133v21.734A3.133 3.133 0 0 0 3.133 28h21.734A3.133 3.133 0 0 0 28 24.867V3.133A3.133 3.133 0 0 0 24.867 0zm-5.3 17.03a1 1 0 0 1-1.005 1.005h-3.121v3.7a1.445 1.445 0 0 1-2.882 0v-3.7H9.426a1 1 0 0 1-1.005-1.005v-6.572a5.575 5.575 0 1 1 11.15 0v.063z" fill="#fff" data-name="Path 95"/>
        </g>
	    <g id="Artwork_3" data-name="Artwork 3" transform="translate(130 0)">
		<path id="Artwork_3-2" d="M51.518 0H6.482A6.49 6.49 0 0 0 0 6.49v45.02A6.49 6.49 0 0 0 6.482 58h45.036A6.49 6.49 0 0 0 58 51.51V6.49A6.49 6.49 0 0 0 51.518 0zm-11.07 35.346a2.055 2.055 0 0 1-2.054 2.054h-6.437V45a2.957 2.957 0 1 1-5.914 0v-7.592h-6.437a2.055 2.055 0 0 1-2.055-2.055V21.972c0-.045.008-.083.008-.129a11.448 11.448 0 0 1 22.882 0c0 .045.008.083.008.129z" fill="#fff" data-name="Artwork 3"/>
	    </g>
</svg>