<svg xmlns="http://www.w3.org/2000/svg" width="200" height="200" viewBox="0 0 200 200">
    <g id="Artwork_4" data-name="Artwork 4" transform="translate(66.195 13)">
        <path id="Artwork_4-2" d="M132.006 3.491l-9.228 12.587v7.735a2.188 2.188 0 1 1-4.376 0v-7.736l-9.227-12.586a2.191 2.191 0 0 1 3.525-2.6l7.889 10.772L128.48.891a2.188 2.188 0 0 1 3.526 2.587zM93.693 21.637a8.584 8.584 0 0 0 5.277-1.8 2.47 2.47 0 0 1 1.557-.643 2.188 2.188 0 0 1 1.338 3.912 13 13 0 1 1 0-20.206 2.188 2.188 0 0 1-1.338 3.925 2.53 2.53 0 0 1-1.557-.643 8.636 8.636 0 1 0-5.277 15.457zM71.75 26a2.51 2.51 0 0 1-2.059-1.081L57.142 8.137v15.675a2.188 2.188 0 0 1-4.376 0v-21.3a2.51 2.51 0 0 1 4.569-1.429l12.548 16.8V2.191a2.188 2.188 0 0 1 4.376 0v21.3A2.51 2.51 0 0 1 71.75 26zm-29.743-1.313l-1.815-4.221H27.76l-1.815 4.221a2.188 2.188 0 0 1-4.015-1.725l8.983-20.887A3.308 3.308 0 0 1 37.014 2l9.022 20.965a2.188 2.188 0 0 1-4.015 1.725zm-8.03-18.674l-4.389 10.206h8.777zm-17.89-1.634H4.376v7.465h10.682a2.188 2.188 0 1 1 0 4.376H4.376v7.593a2.188 2.188 0 1 1-4.376 0V2.191A2.188 2.188 0 0 1 2.188 0h13.9a2.188 2.188 0 1 1 0 4.376z" fill="#2c2731" data-name="Artwork 4" transform="translate(-66.195 -13)"/>
    </g>
    <g transform="translate(140 0)"><path id="ic_cart" d="M1066.234 35.636a1.3 1.3 0 0 1-1.3-1.3v-.926a1.3 1.3 0 0 1 1.3-1.3h.927a1.3 1.3 0 0 1 1.3 1.3v.927a1.3 1.3 0 0 1-1.3 1.3zm-7.055 0a1.3 1.3 0 0 1-1.3-1.3v-.926a1.3 1.3 0 0 1 1.3-1.3h.928a1.3 1.3 0 0 1 1.3 1.3v.927a1.3 1.3 0 0 1-1.3 1.3zm-1.832-4.7a.928.928 0 0 1-.917-.738l-2.35-10.898-1.7-.2c-.317 0-.382-.262-.382-.571s.066-.526.382-.526l3.183-.009a.237.237 0 0 1 .233.187l1.088 3.34h13.926c.586 0 1.286.616 1.175 1.176l-1.7 7.493a.928.928 0 0 1-.917.738z" fill="#000000" transform="translate(-1052 -18)"/></g>
    <g transform="translate(140 20)"><path id="Icon" d="M154.091 27.927a5 5 0 1 1 .863-.871l3.074 3.073-.868.868zM147.19 24a3.81 3.81 0 1 0 3.81-3.81 3.814 3.814 0 0 0-3.81 3.81z" fill="#000000" transform="translate(-146 -19)"/></g>
    <g transform="translate(0 30)"><path id="Facebook" fill="#ffffff" d="M1143.75,679h-17.5a2.252,2.252,0,0,0-2.25,2.251v17.5a2.252,2.252,0,0,0,2.25,2.251h9.76v-7.969h-3v-3.074h3V688c0-2.89,1.48-4.043,4.06-4.043,1.43,0,1.95.022,1.94,0.012v3.053h-1.36c-1.4,0-1.66.62-1.66,1.6v1.341H1142l-0.44,3.074h-2.57V701h4.76a2.252,2.252,0,0,0,2.25-2.251v-17.5A2.252,2.252,0,0,0,1143.75,679Z" transform="translate(-1124 -679)"/></g>
    <g transform="translate(25 30)">
      <defs><style>.cls-1 {fill: #ffffff;fill-rule: evenodd;}</style></defs>
      <path id="Twitter" class="cls-1" d="M1171.75,679h-17.5a2.252,2.252,0,0,0-2.25,2.251v17.5a2.252,2.252,0,0,0,2.25,2.251h17.5a2.252,2.252,0,0,0,2.25-2.251v-17.5A2.252,2.252,0,0,0,1171.75,679Zm-1.28,7.278a5.114,5.114,0,0,1-1.57.376,2.866,2.866,0,0,0,1.26-1.584,5.661,5.661,0,0,1-1.82.695,2.923,2.923,0,0,0-2.15-.833,2.793,2.793,0,0,0-2.87,2.771c0,0.224.01,0.136,0.01,0.358a8.031,8.031,0,0,1-5.96-2.816,2.928,2.928,0,0,0,.9,3.887,2.88,2.88,0,0,1-1.31-.364,0.051,0.051,0,0,0-.01.037,2.828,2.828,0,0,0,2.34,2.769,2.911,2.911,0,0,1-.77.1,2.825,2.825,0,0,1-.54-0.052,3.029,3.029,0,0,0,2.85,1.935,5.747,5.747,0,0,1-3.55,1.252,5.619,5.619,0,0,1-.68-0.041,8.049,8.049,0,0,0,4.38,1.262A7.808,7.808,0,0,0,1169,688.1c0-.124,0-0.29-0.01-0.413A5.652,5.652,0,0,0,1170.47,686.278Z" transform="translate(-1152 -679)"/>
    </g>
    <g transform="translate(48 28)"><path id="Instagram" fill="#ffffff" d="M23.923,18.811a7.689,7.689,0,0,1-.488,2.546,5.363,5.363,0,0,1-3.067,3.068,7.707,7.707,0,0,1-2.546.487c-1.119.051-1.476,0.063-4.324,0.063s-3.206-.012-4.325-0.063a7.707,7.707,0,0,1-2.546-.487A5.368,5.368,0,0,1,3.56,21.357a7.7,7.7,0,0,1-.488-2.546c-0.051-1.119-.063-1.476-0.063-4.324s0.013-3.206.063-4.325A7.7,7.7,0,0,1,3.56,7.617,5.368,5.368,0,0,1,6.627,4.549a7.693,7.693,0,0,1,2.546-.487C10.292,4.01,10.65,4,13.5,4s3.206,0.012,4.324.063a7.694,7.694,0,0,1,2.546.487,5.363,5.363,0,0,1,3.067,3.068,7.68,7.68,0,0,1,.488,2.545c0.051,1.119.063,1.476,0.063,4.325S23.974,17.693,23.923,18.811Zm-1.935-8.54a5.8,5.8,0,0,0-.359-1.937,3.458,3.458,0,0,0-1.98-1.979A5.761,5.761,0,0,0,17.713,6c-1.1-.05-1.429-0.061-4.215-0.061S10.383,5.946,9.282,6a5.762,5.762,0,0,0-1.937.359,3.459,3.459,0,0,0-1.98,1.979,5.8,5.8,0,0,0-.359,1.937c-0.05,1.1-.061,1.43-0.061,4.215S4.958,17.6,5.007,18.7a5.787,5.787,0,0,0,.359,1.937,3.458,3.458,0,0,0,1.98,1.98,5.793,5.793,0,0,0,1.937.359c1.1,0.05,1.43.061,4.216,0.061s3.115-.011,4.215-0.061a5.792,5.792,0,0,0,1.937-.359,3.457,3.457,0,0,0,1.98-1.98,5.785,5.785,0,0,0,.359-1.937c0.05-1.1.061-1.429,0.061-4.214S22.039,11.372,21.988,10.272Zm-2.954,0a1.259,1.259,0,1,1,1.259-1.258A1.258,1.258,0,0,1,19.034,10.272Zm-5.521,9.742A5.511,5.511,0,1,1,19.024,14.5,5.511,5.511,0,0,1,13.513,20.013Zm0-9.087A3.577,3.577,0,1,0,17.091,14.5,3.578,3.578,0,0,0,13.513,10.926Z"/></g>
</svg>