<svg xmlns="http://www.w3.org/2000/svg" width="132" height="30" viewBox="0 0 132 30">
  <metadata><?xpacket begin="﻿" id="W5M0MpCehiHzreSzNTczkc9d"?>
<x:xmpmeta xmlns:x="adobe:ns:meta/" x:xmptk="Adobe XMP Core 5.6-c140 79.160451, 2017/05/06-01:08:21        ">
   <rdf:RDF xmlns:rdf="http://www.w3.org/1999/02/22-rdf-syntax-ns#">
      <rdf:Description rdf:about=""/>
   </rdf:RDF>
</x:xmpmeta>
                                                                                                    
                                                                                                    
                                                                                                    
                                                                                                    
                                                                                                    
                                                                                                    
                                                                                                    
                                                                                                    
                                                                                                    
                                                                                                    
                                                                                                    
                                                                                                    
                                                                                                    
                                                                                                    
                                                                                                    
                                                                                                    
                                                                                                    
                                                                                                    
                                                                                                    
                                                                                                    
                           
<?xpacket end="w"?></metadata>
<defs>
    <style>
      .cls-1 {
        fill: #2785fa;
      }

      .cls-1, .cls-2, .cls-3 {
        fill-rule: evenodd;
      }

      .cls-2 {
        fill: #fff;
      }

      .cls-3 {
        fill: #2f333b;
      }
    </style>
  </defs>
  <path id="_" data-name="#" class="cls-1" d="M24.787,29.007H4.22A4.22,4.22,0,0,1,0,24.787V4.22A4.22,4.22,0,0,1,4.22,0H24.787a4.22,4.22,0,0,1,4.22,4.22V24.787A4.22,4.22,0,0,1,24.787,29.007Z"/>
  <path id="_2" data-name="#" class="cls-2" d="M20,16.559V16.6A1.4,1.4,0,0,1,18.6,18H16v3.5a1.5,1.5,0,0,1-3,0V18H10.4A1.4,1.4,0,0,1,9,16.6V14.4c0-.018.009-0.032,0.01-0.049V11.412a5.485,5.485,0,0,1,10.959-.369,1.843,1.843,0,0,1,.037.369v5.115C20.007,16.538,20,16.548,20,16.559Z"/>
  <path id="Logotype" class="cls-3" d="M130.467,7.705l-6.475,8.406v1.313c0,0.026.008,0.05,0.008,0.076v4.015c0,0.009,0,.016,0,0.025a1.528,1.528,0,0,1-.046.327c-0.012.047-.027,0.092-0.043,0.136a1.428,1.428,0,0,1-.095.21c-0.019.035-.035,0.072-0.057,0.105a1.5,1.5,0,0,1-.228.27c-0.008.008-.017,0.014-0.026,0.021a1.487,1.487,0,0,1-.621.336l-0.026.008A1.484,1.484,0,0,1,122.5,23h-0.016A1.462,1.462,0,0,1,121,21.515V18.5h0v-1s0-.009,0-0.013V16.129L114.362,7.7a2.009,2.009,0,0,1-.386-1.149,1.47,1.47,0,0,1,.491-1.123,1.688,1.688,0,0,1,1.193-.455,1.633,1.633,0,0,1,1.4,1.029l5.435,7.033,5.383-7.127a1.647,1.647,0,0,1,1.422-.938,1.621,1.621,0,0,1,1.2.444,1.5,1.5,0,0,1,.5,1.1A1.96,1.96,0,0,1,130.467,7.705ZM104.22,19.993a7.587,7.587,0,0,0,4.117-1.562A1.855,1.855,0,0,1,109.469,18a1.5,1.5,0,0,1,.954,2.7l0,0a10.7,10.7,0,0,1-6.2,2.3,9.061,9.061,0,0,1-9.26-8.964A9.113,9.113,0,0,1,104.22,5a10.7,10.7,0,0,1,6.2,2.3l0,0a1.5,1.5,0,0,1-.954,2.7,1.855,1.855,0,0,1-1.132-.434,7.619,7.619,0,0,0-4.117-1.593,6.175,6.175,0,0,0-6.249,6.056A6.1,6.1,0,0,0,104.22,19.993ZM89.43,23.021H89.3A2.322,2.322,0,0,1,87.618,21.9L79.008,10.59,79,21.5a1.5,1.5,0,1,1-3,0L75.986,6.6a1.489,1.489,0,0,1,.469-1.118A1.535,1.535,0,0,1,77.6,5h0.338a2.117,2.117,0,0,1,1.666.991l8.381,11.2L88,6.5a1.5,1.5,0,1,1,3,0l0.006,14.979a1.393,1.393,0,0,1-.46,1.073A1.5,1.5,0,0,1,89.43,23.021Zm-19,0a1.653,1.653,0,0,1-1.679-1.057l-1.319-2.981H59.582L58.12,22.075a1.528,1.528,0,0,1-1.591.947,1.507,1.507,0,0,1-1.13-.351,1.417,1.417,0,0,1-.429-1.083,1.586,1.586,0,0,1,.191-0.749L61.39,6.332a2.136,2.136,0,0,1,2.006-1.4h0.165A2.2,2.2,0,0,1,65.6,6.35L71.83,20.858a1.4,1.4,0,0,1,.194.689,1.508,1.508,0,0,1-.454,1.114A1.488,1.488,0,0,1,70.43,23.022ZM63.477,8.98L60.6,15.969h5.8Zm-12-.97H43.008v4.944H50.48a1.482,1.482,0,0,1,1.075.439A1.554,1.554,0,0,1,52,14.506a1.516,1.516,0,0,1-1.524,1.52H43.008L43,21.5a1.5,1.5,0,1,1-3,0V6.5A1.5,1.5,0,0,1,41.5,5h9.987a1.446,1.446,0,0,1,1.069.408A1.521,1.521,0,0,1,51.48,8.01Z"/>
</svg>
