<svg xmlns="http://www.w3.org/2000/svg" width="92" height="18" viewBox="0 0 92 18">
  <defs>
    <style>
      .cls-1 {
        fill: #1c1e1f;
        fill-rule: evenodd;
      }
    </style>
  </defs>
  <path id="_" data-name="#" class="cls-1" d="M90.467,2.737L84,11.1v5.4a1.5,1.5,0,0,1-3,0V11.125l-6.638-8.39a2.008,2.008,0,0,1-.386-1.149,1.469,1.469,0,0,1,.49-1.123A1.69,1.69,0,0,1,75.66.008a1.634,1.634,0,0,1,1.4,1.029l5.435,7,5.383-7.1A1.647,1.647,0,0,1,89.3.005,1.621,1.621,0,0,1,90.5.45a1.5,1.5,0,0,1,.5,1.1A1.96,1.96,0,0,1,90.467,2.737ZM64.22,15.025a7.62,7.62,0,0,0,4.117-1.594A1.858,1.858,0,0,1,69.469,13a1.5,1.5,0,0,1,.953,2.7v0a10.7,10.7,0,0,1-6.2,2.3,9.061,9.061,0,0,1-9.26-8.964A9.113,9.113,0,0,1,64.22,0a10.606,10.606,0,0,1,6.17,2.3l0,0A1.5,1.5,0,0,1,69.438,5a1.859,1.859,0,0,1-1.133-.434A7.555,7.555,0,0,0,64.22,2.944a6.2,6.2,0,0,0-6.249,6.087A6.123,6.123,0,0,0,64.22,15.025Zm-14.789,3H49.3A2.322,2.322,0,0,1,47.618,16.9L39.008,5.715,39,16.5a1.5,1.5,0,1,1-3,0L35.986,1.6A1.489,1.489,0,0,1,36.455.479,1.535,1.535,0,0,1,37.6,0h0.338A2.117,2.117,0,0,1,39.6.988l8.381,11.261L48,1.5a1.5,1.5,0,1,1,3,0l0.007,14.979a1.393,1.393,0,0,1-.46,1.073A1.5,1.5,0,0,1,49.43,18.021Zm-19,0a1.653,1.653,0,0,1-1.679-1.058l-1.319-2.981h-7.85L18.12,17.075a1.528,1.528,0,0,1-1.591.948,1.508,1.508,0,0,1-1.13-.351,1.417,1.417,0,0,1-.429-1.083,1.587,1.587,0,0,1,.191-0.749L21.39,1.364A2.136,2.136,0,0,1,23.4-.036h0.165A2.2,2.2,0,0,1,25.6,1.381L31.83,15.858a1.4,1.4,0,0,1,.194.69,1.508,1.508,0,0,1-.455,1.114A1.487,1.487,0,0,1,30.43,18.023ZM23.477,3.98L20.6,10.969h5.8Zm-12-.97H3.008V7.986H10.48A1.516,1.516,0,0,1,12,9.506a1.418,1.418,0,0,1-.449,1.051A1.485,1.485,0,0,1,10.48,11H3.008L3,16.5a1.5,1.5,0,1,1-3,0V1.5A1.5,1.5,0,0,1,1.5,0h9.987a1.445,1.445,0,0,1,1.069.408A1.489,1.489,0,0,1,13,1.49a1.488,1.488,0,0,1-.449,1.082A1.485,1.485,0,0,1,11.48,3.01Z"/>
</svg>
