<svg xmlns="http://www.w3.org/2000/svg" width="92" height="18" viewBox="0 0 92 18">
	<path d="M90.467,2.719l-6.46,8.39L84,16.5a1.5,1.5,0,1,1-3,0l0-5.373L74.393,2.718a2.006,2.006,0,0,1-.386-1.15A1.469,1.469,0,0,1,74.5.446,1.692,1.692,0,0,1,75.691-.01a1.635,1.635,0,0,1,1.4,1.029l5.4,7.049,5.383-7.142A1.649,1.649,0,0,1,89.3-.012a1.621,1.621,0,0,1,1.2.444A1.5,1.5,0,0,1,91,1.536,1.962,1.962,0,0,1,90.467,2.719ZM69.483,4.986a1.5,1.5,0,0,1-.92-0.3,7.936,7.936,0,0,0-4.716-1.722,5.843,5.843,0,0,0-5.86,5.971v0.05a6.175,6.175,0,0,0,6.172,6.042,6.489,6.489,0,0,0,4.478-1.681A1.39,1.39,0,0,1,69.556,13,1.569,1.569,0,0,1,71,14.541a1.472,1.472,0,0,1-.5,1.095,8.946,8.946,0,0,1-6.333,2.353,9.034,9.034,0,0,1-9.183-8.954V8.985a8.824,8.824,0,0,1,8.995-9A9.821,9.821,0,0,1,70.4,2.274,1.529,1.529,0,0,1,71,3.494,1.486,1.486,0,0,1,69.483,4.986Zm-19.414,12.9a1.535,1.535,0,0,1-.639.135H49.3A2.324,2.324,0,0,1,47.617,16.9L43,11.023,39,5.831V16.517a1.5,1.5,0,0,1-1.5,1.5h0a1.5,1.5,0,0,1-1.5-1.5L35.994,1.539A1.364,1.364,0,0,1,36.147.88,1.5,1.5,0,0,1,36.931.131,1.535,1.535,0,0,1,37.57,0H37.7a2.324,2.324,0,0,1,1.681,1.117l4.541,5.8,4.06,5.273L48,1.5A1.5,1.5,0,0,1,49.5,0h0A1.5,1.5,0,0,1,51,1.5l0.006,14.978a1.364,1.364,0,0,1-.153.659A1.5,1.5,0,0,1,50.069,17.885ZM30.414,18a1.653,1.653,0,0,1-1.679-1.057l-1.3-2.965H19.582l-1.447,3.075A1.529,1.529,0,0,1,16.545,18a1.507,1.507,0,0,1-1.13-.35,1.418,1.418,0,0,1-.429-1.084,1.583,1.583,0,0,1,.191-0.748l6.212-14.43A2.136,2.136,0,0,1,23.4-.006h0.213A2.14,2.14,0,0,1,25.6,1.411L31.815,15.84a1.4,1.4,0,0,1,.194.69,1.51,1.51,0,0,1-.454,1.114A1.49,1.49,0,0,1,30.414,18ZM23.492,4.04l-2.9,6.942h5.8ZM11.48,3.008H2.992V7.983h7.487a1.456,1.456,0,0,1,1.075.408A1.552,1.552,0,0,1,12,9.5a1.49,1.49,0,0,1-1.524,1.505H2.992L3,16.5a1.5,1.5,0,1,1-3,0V1.5A1.5,1.5,0,0,1,1.5,0l9.987-.014a1.456,1.456,0,0,1,1.07.423A1.49,1.49,0,0,1,13,1.488a1.488,1.488,0,0,1-.449,1.082A1.487,1.487,0,0,1,11.48,3.008Z"/>
</svg>