<svg id="logo-alipay" xmlns="http://www.w3.org/2000/svg" width="67" height="24" viewBox="0 0 67 24">
  <metadata><?xpacket begin="﻿" id="W5M0MpCehiHzreSzNTczkc9d"?>
<x:xmpmeta xmlns:x="adobe:ns:meta/" x:xmptk="Adobe XMP Core 5.6-c140 79.160451, 2017/05/06-01:08:21        ">
   <rdf:RDF xmlns:rdf="http://www.w3.org/1999/02/22-rdf-syntax-ns#">
      <rdf:Description rdf:about=""/>
   </rdf:RDF>
</x:xmpmeta>
                                                                                                    
                                                                                                    
                                                                                                    
                                                                                                    
                                                                                                    
                                                                                                    
                                                                                                    
                                                                                                    
                                                                                                    
                                                                                                    
                                                                                                    
                                                                                                    
                                                                                                    
                                                                                                    
                                                                                                    
                                                                                                    
                                                                                                    
                                                                                                    
                                                                                                    
                                                                                                    
                           
<?xpacket end="w"?></metadata>
<defs>
    <style>
      .cls-1 {
        fill: #3f3a39;
      }

      .cls-1, .cls-2 {
        fill-rule: evenodd;
      }

      .cls-2 {
        fill: #0ae;
      }
    </style>
  </defs>
  <path class="cls-1" d="M669.009,310.121a1.121,1.121,0,0,0-.158.925l-0.017.808-2.384.017-2.384.017v0.875l2.384,0.017,2.384,0.017,0.02,0.723,0.02,0.724-2.015.017-2.016.017v0.875l3.977,0.016,3.977,0.017-0.045.148a8.327,8.327,0,0,1-.99,1.737,12.546,12.546,0,0,1-.967,1.077c-0.669.659-.555,0.671-1.515-0.155a11.384,11.384,0,0,1-1.675-1.837,2.092,2.092,0,0,0-1.118-.1h-1.082l0.153,0.256a13.524,13.524,0,0,0,2.856,3.075,2.069,2.069,0,0,1,.386.311,9.057,9.057,0,0,1-1.589.917,23.11,23.11,0,0,1-2.726,1.1l-0.487.155V322.4c0,0.465.014,0.525,0.122,0.525a21.242,21.242,0,0,0,2.5-.7,24.031,24.031,0,0,0,2.963-1.293l0.615-.333,0.67,0.355a22.743,22.743,0,0,0,2.84,1.248,20.434,20.434,0,0,0,2.482.726c0.106,0,.122-0.064.122-0.494v-0.5l-0.9-.356a30.168,30.168,0,0,1-3.341-1.611l-0.487-.288,0.487-.386a11.135,11.135,0,0,0,2.6-3,11.524,11.524,0,0,0,.793-1.865l0.047-.188h-4.146l0.02-.724,0.021-.723,2.384-.017,2.383-.017v-0.875h-4.8V310h-1.109a2.273,2.273,0,0,0-1.252.118h0Zm26.707,0.488v0.606h-4.463v2.221h2.367V312.09h6.689l0.02,0.656,0.02,0.656,1.207,0.017,1.208,0.017-0.024-.949c-0.024-.942-0.025-0.95-0.213-1.111l-0.19-.161h-4.118V310h-2.5v0.606h0Zm-16.657-.455c-0.018.047-.556,1.31-1.2,2.811l-1.2,2.807a1.458,1.458,0,0,0,.9.1l0.937,0.02,0.017,3.45,0.017,3.45h2.028v-9.148l-0.365-.02-0.365-.021,0.771-1.75c0.424-.962.771-1.758,0.771-1.767s-0.514-.017-1.143-0.017a2.839,2.839,0,0,0-1.177.084h0Zm7.663,1.162v1.11h-5.275V313.3h5.275v4.093a34.1,34.1,0,0,1-.081,4.174,1.68,1.68,0,0,1-.711.081H685.3V322.6l1.556-.021,1.555-.02,0.22-.219,0.22-.218,0.017-4.409,0.017-4.41h0.879v-0.875h-0.879v-2.221h-2.164v1.111h0Zm4.531,3.365v0.438h4.6v1.817h-4.6v0.876h4.6v3.769h-4.6v0.875h5.89a50.761,50.761,0,0,0,5.857-.087c-0.018-.048-0.2-0.633-0.392-1.293a7.527,7.527,0,0,0-.48-1.326,1.868,1.868,0,0,0-1.17-.121,7.578,7.578,0,0,0-1.048.037c0,0.02.121,0.438,0.27,0.929s0.271,0.913.271,0.939a7.061,7.061,0,0,1-1.15.047h-1.15v-3.769h4.6v-0.876h-4.6v-1.817h4.6v-0.875h-11.5v0.437h0Zm-9.062-.053c0,0.026.261,0.865,0.581,1.868s0.626,1.964.68,2.14l0.1,0.32H684.6a5.1,5.1,0,0,0,1.045-.054c0-.188-1.288-4.079-1.386-4.187s-0.214-.135-1.093-0.135a5,5,0,0,0-.97.048h0ZM673.263,327.3V330l1.607-.016,1.606-.017,0.02-.354,0.02-.353H674.21V324.61h-0.947V327.3h0Zm6.763,0V330l0.457-.02,0.456-.02v-5.318l-0.456-.02-0.457-.02v2.7h0Zm20.739-2.07c-0.158.343-.389,0.842-0.514,1.111a2.132,2.132,0,0,1-.267.484,10.631,10.631,0,0,1-.541-1.077l-0.5-1.073h-0.5a1.519,1.519,0,0,0-.5.043c0,0.025.349,0.717,0.778,1.545l0.778,1.5v2.161h0.947v-2.14l0.818-1.589,0.818-1.589h-1.035l-0.287.623h0Zm-33.412-.5c-0.042.068-1.935,5.2-1.935,5.244a2.2,2.2,0,0,0,.487.007l0.487-.02,0.2-.525,0.2-.525,0.981,0.02,0.98,0.02,0.176,0.5,0.176,0.5,0.5,0.02c0.406,0.016.493,0,.474-0.077-0.013-.054-0.449-1.249-0.971-2.663l-0.947-2.564h-0.385a1.013,1.013,0,0,0-.419.053h0Zm0.8,2.4c0.171,0.518.311,0.98,0.311,1.026a1.034,1.034,0,0,1-.71.084,2.726,2.726,0,0,1-.711-0.047,16.47,16.47,0,0,1,.756-2.053c0.023,0.026.182,0.471,0.354,0.99h0Zm16.694,0.185,0.017,2.642h0.947l0.02-1.027,0.02-1.026h0.7c1.123,0,1.63-.23,1.961-0.889a1.589,1.589,0,0,0-.73-2.182,3.3,3.3,0,0,0-1.647-.16h-1.3l0.017,2.642h0Zm2.4-1.858a1.019,1.019,0,0,1,.494.8,1.083,1.083,0,0,1-.372.761,1.173,1.173,0,0,1-.855.147h-0.666v-1.817h0.581a2.053,2.053,0,0,1,.818.111h0Zm5.64-.6c-0.267.667-1.832,4.973-1.832,5.042s0.139,0.087.47,0.087h0.47l0.189-.538,0.19-.539h1.981l0.183,0.539L694.716,330h0.466a0.6,0.6,0,0,0,.467-0.077c0-.043-0.4-1.154-0.886-2.474s-0.916-2.479-.954-2.581c-0.063-.173-0.094-0.185-0.46-0.185s-0.4.013-.467,0.188h0Zm0.843,2.228c0.174,0.532.329,1,.348,1.057,0.027,0.076-.108.094-0.717,0.094a7.1,7.1,0,0,1-.75-0.02c0-.019.488-1.434,0.71-2.06,0.019-.054.046-0.081,0.064-0.064s0.171,0.461.345,0.993h0Z" transform="translate(-636 -308)"/>
  <path class="cls-2" d="M657.9,327.1c-2.03-.864-5.925-2.58-6.823-3.006l-0.435-.206-0.944.95a10.738,10.738,0,0,1-3.014,2.26,8.142,8.142,0,0,1-3.757.937,5.284,5.284,0,0,1-3.944-1.449,3.6,3.6,0,0,1-1.174-2.782,4.067,4.067,0,0,1,.9-2.58,5.257,5.257,0,0,1,3.679-1.757,21.18,21.18,0,0,1,6.769,1.26,0.828,0.828,0,0,0,.635.1,17.318,17.318,0,0,0,1.278-3.13c0-.037-1.934-0.063-4.662-0.063h-4.662v-0.971h4.835V315l-2.918-.018-2.918-.017-0.021-.468-0.021-.469h5.878V312.72c0-1.179.012-1.319,0.127-1.422a2.727,2.727,0,0,1,1.382-.114h1.253v2.843h5.809l-0.021.469-0.021.468-2.883.017-2.884.018v1.664h2.349a10.511,10.511,0,0,1,2.348.083,21.983,21.983,0,0,1-.734,2.366c-0.137.352-.463,1.082-0.73,1.63a10.224,10.224,0,0,0-.46,1.012c0.014,0.012.211,0.085,0.439,0.163s1.036,0.367,1.8.643a52.671,52.671,0,0,0,5.442,1.7L660,324.321V311.884A3.887,3.887,0,0,0,656.133,308H639.867A3.887,3.887,0,0,0,636,311.884v16.232A3.887,3.887,0,0,0,639.867,332h16.266A3.887,3.887,0,0,0,660,328.116V328Zm-16.637-5.971a3.732,3.732,0,0,0-2.091,1.1,1.977,1.977,0,0,0-.5,1.47,1.649,1.649,0,0,0,.2,1,3.432,3.432,0,0,0,2.193,1.581,7.037,7.037,0,0,0,2.86-.036,8.1,8.1,0,0,0,2.389-1.2,13.422,13.422,0,0,0,1.986-1.914l0.224-.292-0.338-.172a18.711,18.711,0,0,0-4.22-1.536A10.118,10.118,0,0,0,641.263,321.132Z" transform="translate(-636 -308)"/>
</svg>
