<svg xmlns="http://www.w3.org/2000/svg" xmlns:xlink="http://www.w3.org/1999/xlink" width="200px" height="200px">
	<path fill-rule="evenodd" fill="rgb(255, 255, 255)" d="M12.000,1.000 C18.075,1.000 23.000,5.925 23.000,12.000 C23.000,18.075 18.075,23.000 12.000,23.000 C5.925,23.000 1.000,18.075 1.000,12.000 C1.000,5.925 5.925,1.000 12.000,1.000 Z"></path>
	<path fill-rule="evenodd" fill="rgb(33, 132, 220)" d="M16.000,10.000 L16.000,11.000 L15.000,11.000 L15.000,12.000 L14.000,12.000 L14.000,13.000 L13.000,13.000 L13.000,14.000 L12.000,14.000 L12.000,15.000 L11.000,15.000 L11.000,16.000 L10.000,16.000 L10.000,15.000 L9.000,15.000 L9.000,14.000 L8.000,14.000 L8.000,13.000 L7.000,13.000 L7.000,12.000 L8.000,11.000 L9.000,11.000 L9.000,12.000 L10.000,12.000 L10.000,13.000 L11.000,13.000 L11.000,12.000 L12.000,12.000 L12.000,11.000 L13.000,11.000 L13.000,10.000 L14.000,10.000 L14.000,9.000 L15.000,9.000 L15.000,8.000 L16.000,8.000 L17.000,9.000 L17.000,10.000 L16.000,10.000 Z"></path>
</svg>