<svg xmlns="http://www.w3.org/2000/svg" width="182" height="36.125" viewBox="0 0 182 36.125">
  <defs>
    <style>
      .cls-1 {
        fill-rule: evenodd;
      }
    </style>
  </defs>
  <path id="print-fancy.svg" class="cls-1" d="M909.926,77.411L896.985,94.222,897,105a3,3,0,0,1-6,0l0-10.742L877.76,77.409a4.017,4.017,0,0,1-.771-2.3,2.937,2.937,0,0,1,.98-2.246,3.381,3.381,0,0,1,2.386-.91c1.261,0,1.9.688,2.8,2.059L894,88.1l10.748-14.279c0.929-1.283,1.58-1.877,2.844-1.877a3.24,3.24,0,0,1,2.4.889,3,3,0,0,1,1.01,2.21A3.919,3.919,0,0,1,909.926,77.411ZM844.955,90.006a12.006,12.006,0,0,0,12.067,11.981,14,14,0,0,0,9.208-3.237,2.849,2.849,0,0,1,1.848-.676,3.171,3.171,0,0,1,2.942,3.073A2.91,2.91,0,0,1,870,103.334a18.437,18.437,0,0,1-12.923,4.675,17.709,17.709,0,0,1-18.112-17.9v-0.21a17.708,17.708,0,0,1,18.112-17.9A18.435,18.435,0,0,1,870,76.666a2.911,2.911,0,0,1,1.018,2.188,3.171,3.171,0,0,1-2.942,3.072,2.848,2.848,0,0,1-1.848-.676,14,14,0,0,0-9.208-3.237,12.006,12.006,0,0,0-12.067,11.981v0.011Zm-15.819,17.769a3.072,3.072,0,0,1-1.275.269H827.6c-1.226,0-2.346-.912-3.361-2.234L807.015,83.181,807,105h0a3,3,0,0,1-6,0h0l0.008-29.8a3.308,3.308,0,0,1,.081-0.726A2.959,2.959,0,0,1,804,72c0.023,0,.045.006,0.067,0.007,0.046,0,.087-0.012.133-0.012h0.677a4.233,4.233,0,0,1,3.331,1.982l16.762,22.4L825,75a3,3,0,0,1,6,0l0.013,29.958a2.738,2.738,0,0,1-.308,1.319A3,3,0,0,1,829.136,107.774Zm-39.339.271a3.306,3.306,0,0,1-3.358-2.115l-2.575-5.961H768.1l-2.83,6.181a3.057,3.057,0,0,1-3.181,1.895,3.013,3.013,0,0,1-2.26-.7,2.835,2.835,0,0,1-.859-2.166,3.173,3.173,0,0,1,.383-1.5L771.78,74.7a4.272,4.272,0,0,1,4.011-2.8h0.331a4.4,4.4,0,0,1,4.082,2.834L792.6,103.716a2.8,2.8,0,0,1,.389,1.379,3.017,3.017,0,0,1-.909,2.228A2.974,2.974,0,0,1,789.8,108.045ZM775.986,79.961l-5.858,14.008h11.715ZM751.96,78.02H734.986v9.951H749.96a3.044,3.044,0,0,1,2.149,5.2,2.914,2.914,0,0,1-2.149.814H734.986L735,105h0a3,3,0,0,1-6,0h0V75a3,3,0,0,1,3-3l19.975-.06a2.943,2.943,0,0,1,2.138.878A3.041,3.041,0,0,1,751.96,78.02Z" transform="translate(-729 -71.906)"/>
</svg>
