<svg width="200" height="200" viewBox="0 0 200 200" fill="none" xmlns="http://www.w3.org/2000/svg">
	<g>
		<path d="M1.11719 16.2821L5.40031 18.4506" stroke="#3F434B" stroke-width="1.65" stroke-linecap="round" stroke-linejoin="round"/>
		<path d="M1.25439 10.4662L5.35523 12.6625" stroke="#3F434B" stroke-width="1.65" stroke-linecap="round" stroke-linejoin="round"/>
		<path d="M2.98242 5.63043L5.44555 7.14856" stroke="#3F434B" stroke-width="1.65" stroke-linecap="round" stroke-linejoin="round"/>
		<path d="M15.8362 4.5119L27.8674 10.6588" stroke="#3F434B" stroke-width="1.65" stroke-linecap="round" stroke-linejoin="round"/>
		<path d="M20.5073 2.1246L11.4831 6.73585C10.98 6.99684 10.5586 7.39154 10.2653 7.87653C9.97194 8.36152 9.81808 8.91802 9.82059 9.4848V19.5167C9.81822 20.0836 9.9723 20.6402 10.2659 21.1252C10.5595 21.6102 10.9811 22.0048 11.4845 22.2656L20.5073 26.8754C20.9236 27.0889 21.3847 27.2002 21.8526 27.2002C22.3204 27.2002 22.7816 27.0889 23.1979 26.8754L32.2206 22.2656C32.7238 22.0048 33.1453 21.6101 33.4386 21.1251C33.732 20.6401 33.8858 20.0835 33.8831 19.5167V9.4848C33.8859 8.91795 33.7322 8.36132 33.4388 7.87627C33.1455 7.39122 32.7239 6.99658 32.2206 6.73585L23.1979 2.1246C22.7813 1.91184 22.3203 1.8009 21.8526 1.8009C21.3848 1.8009 20.9238 1.91184 20.5073 2.1246V2.1246Z" stroke="#3F434B" stroke-width="1.65" stroke-linecap="round" stroke-linejoin="round"/>
		<path d="M33.4076 7.82812L21.8517 13.7315L10.2974 7.82812" stroke="#3F434B" stroke-width="1.65" stroke-linecap="round" stroke-linejoin="round"/>
		<path d="M21.8518 13.7314V27.2006" stroke="#3F434B" stroke-width="1.65" stroke-linecap="round" stroke-linejoin="round"/>
		<path d="M27.8674 10.6588V14.9054" stroke="#3F434B" stroke-width="1.65" stroke-linecap="round" stroke-linejoin="round"/>
	</g>
	<g style="transform: translate(40px, 0);">
		<path d="M12.0001 19.844L2.41214 9.844C1.56948 9.00199 1.0133 7.91605 0.822502 6.7402C0.631701 5.56434 0.815959 4.35825 1.34914 3.293C1.7512 2.48912 2.33851 1.79227 3.06269 1.25988C3.78687 0.727494 4.62718 0.374795 5.5144 0.230848C6.40161 0.0869015 7.31034 0.155827 8.16569 0.431945C9.02104 0.708063 9.79855 1.18347 10.4341 1.819L12.0001 3.384L13.5661 1.819C14.2017 1.18347 14.9792 0.708063 15.8346 0.431945C16.6899 0.155827 17.5987 0.0869015 18.4859 0.230848C19.3731 0.374795 20.2134 0.727494 20.9376 1.25988C21.6618 1.79227 22.2491 2.48912 22.6511 3.293C23.1836 4.35784 23.3676 5.56321 23.177 6.7384C22.9864 7.91359 22.4309 8.99903 21.5891 9.841L12.0001 19.844Z" fill="#F43A3A"/>
	</g>
	<g style="transform: translate(0, 30px);">
		<path d="M29.5312 1.29208L32.4683 4.76438C33.3995 5.92835 33.9066 7.37463 33.9063 8.86521V16.4063C33.9063 16.9864 33.6758 17.5428 33.2655 17.953C32.8553 18.3633 32.2989 18.5937 31.7188 18.5937C31.1386 18.5937 30.5822 18.3633 30.172 17.953C29.7617 17.5428 29.5312 16.9864 29.5312 16.4063V10.9375" stroke="#E8361E" stroke-width="1.65" stroke-linecap="round" stroke-linejoin="round"/>
		<path d="M22.9688 1.29208V5.66708C22.9676 6.96487 23.3518 8.23379 24.0727 9.31292L25.7381 11.8125C25.8802 12.0495 26.0689 12.2551 26.2928 12.417C26.5168 12.5789 26.7712 12.6936 27.0407 12.7543C27.3103 12.815 27.5894 12.8203 27.861 12.77C28.1327 12.7196 28.3913 12.6147 28.6213 12.4615V12.4615C29.0363 12.1849 29.3358 11.7659 29.4632 11.2837C29.5905 10.8014 29.5369 10.2892 29.3125 9.84375L27.3438 6.5625" stroke="#E8361E" stroke-width="1.65" stroke-linecap="round" stroke-linejoin="round"/>
		<path d="M5.46875 1.29208L2.53167 4.76438C1.60055 5.92835 1.09342 7.37463 1.09375 8.86521V16.4063C1.09375 16.9864 1.32422 17.5428 1.73445 17.953C2.14469 18.3633 2.70109 18.5937 3.28125 18.5937C3.86141 18.5937 4.41781 18.3633 4.82805 17.953C5.23828 17.5428 5.46875 16.9864 5.46875 16.4063V10.9375" stroke="#E8361E" stroke-width="1.65" stroke-linecap="round" stroke-linejoin="round"/>
		<path d="M12.0313 1.29208V5.66708C12.0324 6.96487 11.6482 8.23379 10.9273 9.31292L9.26188 11.8125C9.11978 12.0495 8.93106 12.2551 8.70716 12.417C8.48325 12.5789 8.22882 12.6936 7.95927 12.7543C7.68971 12.815 7.41065 12.8203 7.13898 12.77C6.86731 12.7196 6.60868 12.6147 6.37875 12.4615V12.4615C5.96366 12.1849 5.66417 11.7659 5.53682 11.2837C5.40947 10.8014 5.46307 10.2892 5.6875 9.84375L7.65625 6.5625" stroke="#E8361E" stroke-width="1.65" stroke-linecap="round" stroke-linejoin="round"/>
		<path d="M17.5 33.9063L10.0421 26.126C9.38724 25.4714 8.955 24.6273 8.80659 23.7133C8.65818 22.7993 8.80114 21.8618 9.21521 21.0335V21.0335C9.52799 20.4082 9.98487 19.8662 10.5482 19.4521C11.1116 19.038 11.7652 18.7637 12.4554 18.6517C13.1455 18.5398 13.8524 18.5934 14.5178 18.8083C15.1831 19.0231 15.7879 19.3929 16.2823 19.8873L17.5 21.105L18.7177 19.8873C19.2121 19.3929 19.8169 19.0231 20.4822 18.8083C21.1476 18.5934 21.8545 18.5398 22.5446 18.6517C23.2348 18.7637 23.8884 19.038 24.4518 19.4521C25.0151 19.8662 25.472 20.4082 25.7848 21.0335V21.0335C26.1989 21.8618 26.3418 22.7993 26.1934 23.7133C26.045 24.6273 25.6128 25.4714 24.9579 26.126L17.5 33.9063Z" stroke="#E8361E" stroke-width="1.65" stroke-linecap="round" stroke-linejoin="round"/>
	</g>
	<g style="transform: translate(40px, 30px);">
		<path d="M3.29437 5.75C3.29437 6.91032 3.75531 8.02312 4.57578 8.84359C5.39625 9.66406 6.50905 10.125 7.66937 10.125C8.82969 10.125 9.94249 9.66406 10.763 8.84359C11.5834 8.02312 12.0444 6.91032 12.0444 5.75C12.0444 4.58968 11.5834 3.47688 10.763 2.65641C9.94249 1.83594 8.82969 1.375 7.66937 1.375C6.50905 1.375 5.39625 1.83594 4.57578 2.65641C3.75531 3.47688 3.29437 4.58968 3.29437 5.75V5.75Z" stroke="#AE49DE" stroke-width="1.65" stroke-linecap="round" stroke-linejoin="round"/>
		<path d="M11.2977 13.4062C10.3089 12.7502 9.16077 12.3745 7.97541 12.3191C6.79006 12.2638 5.61189 12.5309 4.56629 13.092C3.52069 13.6531 2.64679 14.4872 2.03762 15.5056C1.42844 16.5239 1.10678 17.6884 1.10687 18.875" stroke="#AE49DE" stroke-width="1.65" stroke-linecap="round" stroke-linejoin="round"/>
		<path d="M32.8256 18.875C32.8257 17.6884 32.5041 16.5239 31.8949 15.5056C31.2857 14.4872 30.4118 13.6531 29.3662 13.092C28.3206 12.5309 27.1424 12.2638 25.9571 12.3191C24.7717 12.3745 23.6236 12.7502 22.6348 13.4062" stroke="#AE49DE" stroke-width="1.65" stroke-linecap="round" stroke-linejoin="round"/>
		<path d="M21.8881 5.75C21.8881 6.91032 22.3491 8.02312 23.1695 8.84359C23.99 9.66406 25.1028 10.125 26.2631 10.125C27.4234 10.125 28.5362 9.66406 29.3567 8.84359C30.1772 8.02312 30.6381 6.91032 30.6381 5.75C30.6381 4.58968 30.1772 3.47688 29.3567 2.65641C28.5362 1.83594 27.4234 1.375 26.2631 1.375C25.1028 1.375 23.99 1.83594 23.1695 2.65641C22.3491 3.47688 21.8881 4.58968 21.8881 5.75V5.75Z" stroke="#AE49DE" stroke-width="1.65" stroke-linecap="round" stroke-linejoin="round"/>
		<path d="M21.8881 5.75C21.8881 5.75 21.8881 11.2188 18.6069 11.2188" stroke="#AE49DE" stroke-width="1.65" stroke-linecap="round" stroke-linejoin="round"/>
		<path d="M30.6381 5.75C30.6381 5.75 30.6381 11.2188 33.9194 11.2188" stroke="#AE49DE" stroke-width="1.65" stroke-linecap="round" stroke-linejoin="round"/>
		<path d="M13.1381 18.875C13.1381 19.7452 13.4838 20.5798 14.0992 21.1952C14.7145 21.8105 15.5491 22.1563 16.4194 22.1563C17.2896 22.1563 18.1242 21.8105 18.7396 21.1952C19.3549 20.5798 19.7006 19.7452 19.7006 18.875C19.7006 18.0048 19.3549 17.1702 18.7396 16.5548C18.1242 15.9395 17.2896 15.5938 16.4194 15.5938C15.5491 15.5938 14.7145 15.9395 14.0992 16.5548C13.4838 17.1702 13.1381 18.0048 13.1381 18.875V18.875Z" stroke="#AE49DE" stroke-width="1.65" stroke-linecap="round" stroke-linejoin="round"/>
		<path d="M22.1025 26.5313C21.5264 25.534 20.698 24.706 19.7006 24.1303C18.7031 23.5546 17.5718 23.2516 16.4201 23.2516C15.2684 23.2516 14.1371 23.5546 13.1396 24.1303C12.1422 24.706 11.3138 25.534 10.7377 26.5313" stroke="#AE49DE" stroke-width="1.65" stroke-linecap="round" stroke-linejoin="round"/>
	</g>
	<g style="transform: translate(80px, 30px);">
		<path d="M14.945 27.7708C12.0321 27.7704 9.23858 26.613 7.17896 24.5531C5.11935 22.4932 3.96229 19.6996 3.96229 16.7867C3.96229 0.857291 23.1306 9.03417 32.359 1.375C32.458 1.30085 32.5754 1.25515 32.6985 1.24281C32.8216 1.23048 32.9457 1.25198 33.0575 1.305C33.171 1.3525 33.2707 1.42796 33.3472 1.52435C33.4237 1.62074 33.4745 1.73491 33.495 1.85625C36.3125 18.3544 24.1675 27.7708 14.945 27.7708Z" stroke="#5CD759" stroke-width="1.65" stroke-linecap="round" stroke-linejoin="round"/>
		<path d="M19.339 13.8496C14.7887 15.1004 10.5248 17.2232 6.78417 20.1L1.09375 24.9562" stroke="#5CD759" stroke-width="1.65" stroke-linecap="round" stroke-linejoin="round"/>
	</g>
	<g style="transform: translate(120px, 30px);">
		<path d="M38.75 1.185L20.8833 19.05C20.7674 19.1661 20.6297 19.2582 20.4781 19.3211C20.3266 19.3839 20.1641 19.4163 20 19.4163C19.8359 19.4163 19.6734 19.3839 19.5219 19.3211C19.3703 19.2582 19.2326 19.1661 19.1167 19.05L1.25 1.185" stroke="#7C7C7C" stroke-linecap="round" stroke-linejoin="round"/>
	</g>
	<g style="transform: translate(70px, 0);">
		<g clip-path="url(#clip0)"><path d="M12.0001 21.844L2.41214 11.844C1.56948 11.002 1.0133 9.91605 0.822502 8.7402C0.631701 7.56434 0.815959 6.35825 1.34914 5.293V5.293C1.7512 4.48912 2.33851 3.79227 3.06269 3.25988C3.78687 2.72749 4.62718 2.37479 5.5144 2.23085C6.40161 2.0869 7.31034 2.15583 8.16569 2.43194C9.02104 2.70806 9.79855 3.18347 10.4341 3.819L12.0001 5.384L13.5661 3.819C14.2017 3.18347 14.9792 2.70806 15.8346 2.43194C16.69 2.15583 17.5987 2.0869 18.4859 2.23085C19.3731 2.37479 20.2134 2.72749 20.9376 3.25988C21.6618 3.79227 22.2491 4.48912 22.6511 5.293C23.1836 6.35784 23.3676 7.56321 23.177 8.7384C22.9864 9.91359 22.4309 10.999 21.5891 11.841L12.0001 21.844Z" stroke="#3F434B" stroke-width="1.65" stroke-linecap="round" stroke-linejoin="round"/></g>
		<defs><clipPath id="clip0"><rect width="24" height="24" fill="white"/></clipPath></defs>
	</g>
	<g style="transform: translate(100px, 0);">
		<g clip-path="url(#clip0)">
			<path d="M17.25 8.25H18.75C19.1478 8.25 19.5294 8.40804 19.8107 8.68934C20.092 8.97064 20.25 9.35218 20.25 9.75V21.75C20.25 22.1478 20.092 22.5294 19.8107 22.8107C19.5294 23.092 19.1478 23.25 18.75 23.25H5.25C4.85218 23.25 4.47064 23.092 4.18934 22.8107C3.90804 22.5294 3.75 22.1478 3.75 21.75V9.75C3.75 9.35218 3.90804 8.97064 4.18934 8.68934C4.47064 8.40804 4.85218 8.25 5.25 8.25H6.75" stroke="#3F434B" stroke-width="1.65" stroke-linecap="round" stroke-linejoin="round"/>
			<path d="M12 0.75V11.25" stroke="#3F434B" stroke-width="1.65" stroke-linecap="round" stroke-linejoin="round"/>
			<path d="M8.25 4.5L12 0.75L15.75 4.5" stroke="#3F434B" stroke-width="1.65" stroke-linecap="round" stroke-linejoin="round"/>
		</g>
		<defs><clipPath id="clip0"><rect width="24" height="24" fill="white"/></clipPath></defs>
	</g>
	<g style="transform: translate(130px, 0);">
		<path d="M13.2594 1.24996L16.7448 8.15517L23.4531 8.81975C23.6128 8.83302 23.7654 8.89178 23.8927 8.98906C24.02 9.08634 24.1168 9.21807 24.1716 9.36866C24.2264 9.51925 24.2369 9.68239 24.2019 9.83877C24.1669 9.99514 24.0878 10.1382 23.9739 10.251L18.4531 15.7229L20.5 23.1583C20.5419 23.316 20.5373 23.4825 20.4868 23.6376C20.4363 23.7928 20.3421 23.9301 20.2154 24.033C20.0888 24.1359 19.9351 24.2 19.7729 24.2176C19.6107 24.2352 19.4468 24.2056 19.301 24.1323L12.5 20.7645L5.70831 24.1281C5.56252 24.2014 5.39867 24.231 5.23645 24.2134C5.07422 24.1958 4.92054 24.1317 4.79389 24.0288C4.66724 23.9259 4.573 23.7886 4.52252 23.6335C4.47205 23.4783 4.46747 23.3118 4.50935 23.1541L6.55623 15.7187L1.03122 10.2468C0.917404 10.134 0.83829 9.99097 0.80325 9.8346C0.76821 9.67823 0.778712 9.51509 0.833512 9.3645C0.888312 9.21391 0.985115 9.08217 1.11246 8.98489C1.2398 8.88761 1.39236 8.82886 1.55206 8.81559L8.26039 8.151L11.7406 1.24996C11.8122 1.11017 11.9209 0.992848 12.0549 0.910922C12.1889 0.828996 12.3429 0.785645 12.5 0.785645C12.657 0.785645 12.811 0.828996 12.945 0.910922C13.079 0.992848 13.1878 1.11017 13.2594 1.24996Z" fill="#F7C927" stroke="#F7C927" stroke-width="1.25" stroke-linecap="round" stroke-linejoin="round"/>
	</g>
	<g style="transform: translate(160px, 0);">
		<path d="M13.2594 1.24996L16.7448 8.15517L23.4531 8.81975C23.6128 8.83302 23.7654 8.89178 23.8927 8.98906C24.02 9.08634 24.1168 9.21807 24.1716 9.36866C24.2264 9.51925 24.2369 9.68239 24.2019 9.83877C24.1669 9.99514 24.0878 10.1382 23.9739 10.251L18.4531 15.7229L20.5 23.1583C20.5419 23.316 20.5373 23.4825 20.4868 23.6376C20.4363 23.7928 20.3421 23.9301 20.2154 24.033C20.0888 24.1359 19.9351 24.2 19.7729 24.2176C19.6107 24.2352 19.4468 24.2056 19.301 24.1323L12.5 20.7645L5.70831 24.1281C5.56252 24.2014 5.39867 24.231 5.23645 24.2134C5.07422 24.1958 4.92054 24.1317 4.79389 24.0288C4.66724 23.9259 4.573 23.7886 4.52252 23.6335C4.47205 23.4783 4.46747 23.3118 4.50935 23.1541L6.55623 15.7187L1.03122 10.2468C0.917404 10.134 0.83829 9.99097 0.80325 9.8346C0.76821 9.67823 0.778712 9.51509 0.833512 9.3645C0.888312 9.21391 0.985115 9.08217 1.11246 8.98489C1.2398 8.88761 1.39236 8.82886 1.55206 8.81559L8.26039 8.151L11.7406 1.24996C11.8122 1.11017 11.9209 0.992848 12.0549 0.910922C12.1889 0.828996 12.3429 0.785645 12.5 0.785645C12.657 0.785645 12.811 0.828996 12.945 0.910922C13.079 0.992848 13.1878 1.11017 13.2594 1.24996V1.24996Z" stroke="#F7C927" stroke-width="1.25" stroke-linecap="round" stroke-linejoin="round"/>
	</g>
	<g style="transform: translate(170px, 30px);">
		<path d="M1.58325 0.625L10.5166 9.55833C10.5746 9.6163 10.6207 9.68515 10.6521 9.76094C10.6835 9.83672 10.6997 9.91796 10.6997 10C10.6997 10.082 10.6835 10.1633 10.6521 10.2391C10.6207 10.3148 10.5746 10.3837 10.5166 10.4417L1.58325 19.375" stroke="#3F434B" stroke-width="1.65" stroke-linecap="round" stroke-linejoin="round"/>
	</g>
	<g style="transform: translate(0, 70px);">
		<path d="M1.09375 9.9375C1.09375 12.2581 2.01562 14.4837 3.65657 16.1247C5.29751 17.7656 7.52311 18.6875 9.84375 18.6875C12.1644 18.6875 14.39 17.7656 16.0309 16.1247C17.6719 14.4837 18.5938 12.2581 18.5938 9.9375C18.5938 7.61686 17.6719 5.39126 16.0309 3.75032C14.39 2.10937 12.1644 1.1875 9.84375 1.1875C7.52311 1.1875 5.29751 2.10937 3.65657 3.75032C2.01562 5.39126 1.09375 7.61686 1.09375 9.9375V9.9375Z" stroke="#3F434B" stroke-width="1.65" stroke-linecap="round" stroke-linejoin="round"/>
		<path d="M5.97632 9.93751H9.84382V6.07001" stroke="#3F434B" stroke-width="1.65" stroke-linecap="round" stroke-linejoin="round"/>
		<path d="M20.7812 16.5H22.9688C23.5489 16.5 24.1053 16.7305 24.5155 17.1407C24.9258 17.5509 25.1563 18.1073 25.1563 18.6875V26.3992" stroke="#3F434B" stroke-width="1.65" stroke-linecap="round" stroke-linejoin="round"/>
		<path d="M10.9375 29.625H9.84375C9.26359 29.625 8.70719 29.3945 8.29695 28.9843C7.88672 28.5741 7.65625 28.0177 7.65625 27.4375V23.0625" stroke="#3F434B" stroke-width="1.65" stroke-linecap="round" stroke-linejoin="round"/>
		<path d="M25.1562 18.6875H29.5313C30.6916 18.6875 31.8044 19.1484 32.6248 19.9689C33.4453 20.7894 33.9063 21.9022 33.9063 23.0625V27.4375C33.9063 28.0177 33.6758 28.5741 33.2655 28.9843C32.8553 29.3945 32.2989 29.625 31.7188 29.625H28.3821" stroke="#3F434B" stroke-width="1.65" stroke-linecap="round" stroke-linejoin="round"/>
		<path d="M22.9688 29.0781C22.9688 29.8033 23.2568 30.4988 23.7696 31.0116C24.2824 31.5244 24.9779 31.8125 25.7031 31.8125C26.4283 31.8125 27.1238 31.5244 27.6366 31.0116C28.1494 30.4988 28.4375 29.8033 28.4375 29.0781C28.4375 28.3529 28.1494 27.6574 27.6366 27.1446C27.1238 26.6318 26.4283 26.3438 25.7031 26.3438C24.9779 26.3438 24.2824 26.6318 23.7696 27.1446C23.2568 27.6574 22.9687 28.3529 22.9688 29.0781V29.0781Z" stroke="#3F434B" stroke-width="1.65" stroke-linecap="round" stroke-linejoin="round"/>
		<path d="M10.9375 29.0781C10.9375 29.8033 11.2256 30.4988 11.7384 31.0116C12.2512 31.5244 12.9467 31.8125 13.6719 31.8125C14.3971 31.8125 15.0926 31.5244 15.6054 31.0116C16.1182 30.4988 16.4063 29.8033 16.4063 29.0781C16.4063 28.3529 16.1182 27.6574 15.6054 27.1446C15.0926 26.6318 14.3971 26.3438 13.6719 26.3438C12.9467 26.3438 12.2512 26.6318 11.7384 27.1446C11.2256 27.6574 10.9375 28.3529 10.9375 29.0781V29.0781Z" stroke="#3F434B" stroke-width="1.65" stroke-linecap="round" stroke-linejoin="round"/>
		<path d="M23.0242 29.625H16.4062" stroke="#3F434B" stroke-width="1.65" stroke-linecap="round" stroke-linejoin="round"/>
		<path d="M33.9063 23.0625H29.5312" stroke="#3F434B" stroke-width="1.65" stroke-linecap="round" stroke-linejoin="round"/>
	</g>
	<g style="transform: translate(40px, 70px);">
		<path d="M7.03125 12.0313C7.03125 13.4817 7.60742 14.8727 8.63301 15.8982C9.6586 16.9238 11.0496 17.5 12.5 17.5C13.9504 17.5 15.3414 16.9238 16.367 15.8982C17.3926 14.8727 17.9688 13.4817 17.9688 12.0313C17.9688 10.5808 17.3926 9.18985 16.367 8.16426C15.3414 7.13867 13.9504 6.5625 12.5 6.5625C11.0496 6.5625 9.6586 7.13867 8.63301 8.16426C7.60742 9.18985 7.03125 10.5808 7.03125 12.0313Z" stroke="#3F434B" stroke-width="1.65" stroke-linecap="round" stroke-linejoin="round"/>
		<path d="M12.5 1.09375C15.4008 1.09375 18.1828 2.24609 20.234 4.29727C22.2852 6.34845 23.4375 9.13044 23.4375 12.0312C23.4375 16.9998 16.0379 29.4583 13.4115 33.4177C13.3117 33.5681 13.1762 33.6915 13.0172 33.7768C12.8582 33.8622 12.6805 33.9069 12.5 33.9069C12.3195 33.9069 12.1418 33.8622 11.9828 33.7768C11.8238 33.6915 11.6883 33.5681 11.5885 33.4177C8.96208 29.4583 1.5625 16.9998 1.5625 12.0312C1.5625 9.13044 2.71484 6.34845 4.76602 4.29727C6.8172 2.24609 9.59919 1.09375 12.5 1.09375V1.09375Z" stroke="#3F434B" stroke-width="1.65" stroke-linecap="round" stroke-linejoin="round"/>
	</g>
	<g style="transform: translate(70px, 70px);">
		<path d="M1.23958 19.6875C1.14302 18.9623 1.0943 18.2316 1.09375 17.5C1.09375 13.1488 2.82226 8.9758 5.89903 5.89903C8.9758 2.82226 13.1488 1.09375 17.5 1.09375" stroke="#30B53D" stroke-width="1.65" stroke-linecap="round" stroke-linejoin="round"/>
		<path d="M33.7633 19.6875C33.86 18.9623 33.9087 18.2316 33.9092 17.5C33.9092 15.3453 33.4847 13.2116 32.66 11.2209C31.8354 9.23024 30.6266 7.4215 29.1029 5.898C27.5791 4.3745 25.7701 3.16608 23.7793 2.34176C21.7885 1.51744 19.6547 1.09337 17.5 1.09375" stroke="#30B53D" stroke-width="1.65" stroke-linecap="round" stroke-linejoin="round"/>
		<path d="M29.5327 17.5671C27.9508 17.5686 26.3846 17.8818 24.9237 18.4887C23.4629 19.0955 22.1358 19.9843 21.0184 21.1041C19.9011 22.2239 19.0152 23.5529 18.4115 25.0151C17.8078 26.4773 17.4981 28.0441 17.5 29.626C19.0819 29.6243 20.6479 29.311 22.1088 28.7041C23.5696 28.0971 24.8965 27.2084 26.0139 26.0886C27.1312 24.9688 28.017 23.64 28.6208 22.1778C29.2246 20.7157 29.5344 19.149 29.5327 17.5671Z" stroke="#30B53D" stroke-width="1.65" stroke-linecap="round" stroke-linejoin="round"/>
		<path d="M20.666 21.474C21.4914 19.1074 21.6337 16.5562 21.0766 14.1125C20.5195 11.6688 19.2856 9.43131 17.516 7.65625C15.7396 9.43781 14.5029 11.6853 13.9486 14.1394C13.3944 16.5935 13.5451 19.1543 14.3835 21.5265" stroke="#30B53D" stroke-width="1.65" stroke-linecap="round" stroke-linejoin="round"/>
		<path d="M17.5 29.626C17.5035 26.4315 16.2379 23.3665 13.9817 21.105C11.7254 18.8436 8.66325 17.571 5.46874 17.5671C5.46683 19.1489 5.77652 20.7156 6.38012 22.1777C6.98373 23.6398 7.86944 24.9687 8.98666 26.0885C10.1039 27.2083 11.4307 28.0971 12.8915 28.7041C14.3522 29.311 15.9182 29.6243 17.5 29.626V29.626Z" stroke="#30B53D" stroke-width="1.65" stroke-linecap="round" stroke-linejoin="round"/>
		<path d="M17.5015 33.9063V29.626" stroke="#30B53D" stroke-width="1.65" stroke-linecap="round" stroke-linejoin="round"/>
		<path d="M32.5456 24.0508C32.013 25.2922 31.3218 26.4593 30.4894 27.5231" stroke="#30B53D" stroke-width="1.65" stroke-linecap="round" stroke-linejoin="round"/>
		<path d="M27.3263 30.6338C26.2522 31.451 25.0754 32.1236 23.8262 32.6346" stroke="#30B53D" stroke-width="1.65" stroke-linecap="round" stroke-linejoin="round"/>
		<path d="M11.2102 32.6346C9.96045 32.1248 8.78359 31.452 7.71021 30.6338" stroke="#30B53D" stroke-width="1.65" stroke-linecap="round" stroke-linejoin="round"/>
		<path d="M4.54272 27.5231C3.70997 26.4595 3.01879 25.2923 2.48647 24.0508" stroke="#30B53D" stroke-width="1.65" stroke-linecap="round" stroke-linejoin="round"/>
	</g>
	<g style="transform: translate(110px, 70px);">
		<path d="M31.3192 33.9063C30.0808 31.2888 28.1246 29.0768 25.6781 27.5278C23.2317 25.9788 20.3956 25.1565 17.5 25.1565C14.6044 25.1565 11.7683 25.9788 9.32186 27.5278C6.8754 29.0768 4.91917 31.2888 3.68083 33.9063" stroke="#FD94B8" stroke-width="1.65" stroke-linecap="round" stroke-linejoin="round"/>
		<path d="M17.5 7.65625C17.4996 9.6867 16.6929 11.6339 15.2571 13.0696C13.8214 14.5054 11.8742 15.3121 9.84375 15.3125C9.84375 17.3431 10.6504 19.2905 12.0862 20.7263C13.522 22.1621 15.4694 22.9688 17.5 22.9688C19.5306 22.9688 21.478 22.1621 22.9138 20.7263C24.3496 19.2905 25.1563 17.3431 25.1563 15.3125C23.1257 15.3125 21.1783 14.5059 19.7425 13.07C18.3066 11.6342 17.5 9.68681 17.5 7.65625V7.65625Z" stroke="#FD94B8" stroke-width="1.65" stroke-linecap="round" stroke-linejoin="round"/>
		<path d="M26.0108 27.7477C27.7127 27.4608 29.3734 26.9676 30.956 26.2792C31.4797 26.0438 31.8898 25.6121 32.098 25.0771C32.3061 24.5421 32.2956 23.9467 32.0687 23.4194L30.0621 18.7381C29.7118 17.9211 29.5312 17.0414 29.5312 16.1525V13.125C29.5312 9.93411 28.2637 6.87392 26.0074 4.61762C23.7511 2.36132 20.6909 1.09375 17.5 1.09375C14.3091 1.09375 11.2489 2.36132 8.99262 4.61762C6.73632 6.87392 5.46874 9.93411 5.46874 13.125V16.1525C5.46875 17.0414 5.28815 17.9211 4.93791 18.7381L2.93124 23.4194C2.70436 23.9467 2.69387 24.5421 2.90204 25.0771C3.1102 25.6121 3.52033 26.0438 4.04395 26.2792C5.62662 26.9676 7.28725 27.4608 8.98916 27.7477" stroke="#FD94B8" stroke-width="1.65" stroke-linecap="round" stroke-linejoin="round"/>
	</g>
	<g style="transform: translate(150px, 70px);">
		<path d="M17.5 29.8558L3.5175 15.2725C2.28861 14.0446 1.47753 12.4609 1.19928 10.7461C0.921025 9.03133 1.18973 7.27245 1.96729 5.71896V5.71896C2.55362 4.54663 3.41012 3.5304 4.46621 2.754C5.52231 1.9776 6.74777 1.46325 8.04162 1.25332C9.33548 1.0434 10.6607 1.14392 11.9081 1.54659C13.1555 1.94926 14.2893 2.64257 15.2163 3.56937L17.5 5.85167L19.7838 3.56937C20.7107 2.64257 21.8445 1.94926 23.0919 1.54659C24.3393 1.14392 25.6645 1.0434 26.9584 1.25332C28.2522 1.46325 29.4777 1.9776 30.5338 2.754C31.5899 3.5304 32.4464 4.54663 33.0327 5.71896C33.8092 7.27185 34.0775 9.02968 33.7995 10.7435C33.5216 12.4573 32.7115 14.0403 31.484 15.2681L17.5 29.8558Z" stroke="black" stroke-width="1.65" stroke-linecap="round" stroke-linejoin="round"/>
	</g>
	<g style="transform: translate(0, 110px);">
		<path d="M31.7188 18.5938V31.7188C31.7188 32.2989 31.4883 32.8553 31.078 33.2655C30.6678 33.6758 30.1114 33.9063 29.5313 33.9063H5.46875C4.88859 33.9063 4.33219 33.6758 3.92195 33.2655C3.51172 32.8553 3.28125 32.2989 3.28125 31.7188V18.5938" stroke="#F4CD00" stroke-width="1.65" stroke-linecap="round" stroke-linejoin="round"/>
		<path d="M30.8408 1.09375H4.15917C3.91023 1.09371 3.6687 1.17848 3.47439 1.33409C3.28007 1.4897 3.14457 1.70686 3.09021 1.94979L1.09375 10.9375C1.09375 11.8077 1.43945 12.6423 2.05481 13.2577C2.67016 13.873 3.50476 14.2188 4.375 14.2188C5.24524 14.2188 6.07984 13.873 6.69519 13.2577C7.31055 12.6423 7.65625 11.8077 7.65625 10.9375C7.65625 11.8077 8.00195 12.6423 8.61731 13.2577C9.23266 13.873 10.0673 14.2188 10.9375 14.2188C11.8077 14.2188 12.6423 13.873 13.2577 13.2577C13.873 12.6423 14.2188 11.8077 14.2188 10.9375C14.2188 11.8077 14.5645 12.6423 15.1798 13.2577C15.7952 13.873 16.6298 14.2188 17.5 14.2188C18.3702 14.2188 19.2048 13.873 19.8202 13.2577C20.4355 12.6423 20.7813 11.8077 20.7813 10.9375C20.7813 11.8077 21.127 12.6423 21.7423 13.2577C22.3577 13.873 23.1923 14.2188 24.0625 14.2188C24.9327 14.2188 25.7673 13.873 26.3827 13.2577C26.998 12.6423 27.3438 11.8077 27.3438 10.9375C27.3438 11.8077 27.6895 12.6423 28.3048 13.2577C28.9202 13.873 29.7548 14.2188 30.625 14.2188C31.4952 14.2188 32.3298 13.873 32.9452 13.2577C33.5605 12.6423 33.9063 11.8077 33.9063 10.9375L31.9083 1.94979C31.8545 1.70685 31.7194 1.48957 31.5252 1.3339C31.3311 1.17823 31.0897 1.09351 30.8408 1.09375Z" stroke="#F4CD00" stroke-width="1.65" stroke-linecap="round" stroke-linejoin="round"/>
		<path d="M27.3438 24.0625C27.3438 22.9022 26.8828 21.7894 26.0623 20.9689C25.2419 20.1484 24.1291 19.6875 22.9688 19.6875C21.8084 19.6875 20.6956 20.1484 19.8752 20.9689C19.0547 21.7894 18.5938 22.9022 18.5938 24.0625V33.9063H27.3438V24.0625Z" stroke="#F4CD00" stroke-width="1.65" stroke-linecap="round" stroke-linejoin="round"/>
		<path d="M7.65625 22.9688H14.2188V29.5313H7.65625V22.9688Z" stroke="#F4CD00" stroke-width="1.65" stroke-linecap="round" stroke-linejoin="round"/>
		<path d="M23.5156 26.25C23.6238 26.25 23.7295 26.2821 23.8195 26.3422C23.9094 26.4023 23.9795 26.4877 24.0209 26.5876C24.0623 26.6875 24.0731 26.7975 24.052 26.9036C24.0309 27.0096 23.9788 27.1071 23.9023 27.1836C23.8258 27.2601 23.7284 27.3121 23.6223 27.3332C23.5162 27.3543 23.4063 27.3435 23.3063 27.3021C23.2064 27.2607 23.121 27.1906 23.0609 27.1007C23.0008 27.0108 22.9688 26.905 22.9688 26.7969C22.9688 26.6518 23.0264 26.5127 23.1289 26.4102C23.2315 26.3076 23.3706 26.25 23.5156 26.25Z" stroke="#F4CD00" stroke-width="1.65" stroke-linecap="round" stroke-linejoin="round"/>
	</g>
	<g style="transform:translate(40px, 110px)">
		<path d="M1.20825 0.4375L7.46158 6.69083C7.50222 6.73141 7.53446 6.77961 7.55646 6.83266C7.57845 6.8857 7.58977 6.94257 7.58977 7C7.58977 7.05743 7.57845 7.11429 7.55646 7.16734C7.53446 7.22039 7.50222 7.26859 7.46158 7.30917L1.20825 13.5625" stroke="#3F434B" stroke-width="0.88" stroke-linecap="round" stroke-linejoin="round"/>
	</g>
	<g style="transform:translate(50px, 110px)">
		<path d="M1 1.16667H15V11.1667H1V1.16667Z" stroke="#3F434B" stroke-linecap="round" stroke-linejoin="round"/>
		<path d="M14.7736 1.53333L9.34425 5.70933C8.95873 6.0059 8.48598 6.16671 7.99959 6.16671C7.51319 6.16671 7.04044 6.0059 6.65492 5.70933L1.22559 1.53333" stroke="#3F434B" stroke-linecap="round" stroke-linejoin="round"/>
	</g>
	<g style="transform:translate(70px, 110px)">
		<path d="M4.5 11.4993L11.5 4.49933" stroke="#3F434B" stroke-linecap="round" stroke-linejoin="round"/>
		<path d="M5.15668 8.014C4.73735 7.98984 4.31765 8.05456 3.92508 8.20391C3.5325 8.35327 3.17592 8.58389 2.87868 8.88067L1.37869 10.3807C0.816072 10.9433 0.5 11.7063 0.5 12.502C0.5 12.896 0.577598 13.2861 0.728363 13.6501C0.879128 14.014 1.10011 14.3448 1.37869 14.6233C1.65726 14.9019 1.98798 15.1229 2.35196 15.2737C2.71594 15.4244 3.10605 15.502 3.50002 15.502C4.29567 15.502 5.05874 15.1859 5.62135 14.6233L7.12135 13.1233C7.41813 12.8261 7.64875 12.4695 7.79811 12.0769C7.94746 11.6844 8.01218 11.2647 7.98802 10.8453" stroke="#3F434B" stroke-linecap="round" stroke-linejoin="round"/>
		<path d="M10.8438 7.984C11.2631 8.00812 11.6828 7.94338 12.0754 7.79403C12.468 7.64467 12.8246 7.41407 13.1218 7.11733L14.6218 5.61733C15.1844 5.05472 15.5005 4.29165 15.5005 3.496C15.5005 2.70034 15.1844 1.93728 14.6218 1.37466C14.0592 0.812052 13.2961 0.495979 12.5005 0.495979C11.7048 0.495979 10.9418 0.812052 10.3791 1.37466L8.87915 2.87466C8.58307 3.17226 8.35314 3.52899 8.20437 3.92153C8.0556 4.31407 7.99135 4.73359 8.01581 5.15266" stroke="#3F434B" stroke-linecap="round" stroke-linejoin="round"/>
	</g>
	<g style="transform:translate(90px, 110px)">
		<path d="M4.40037 6.84667C4.32771 6.59766 4.29178 6.33938 4.2937 6.08C4.28787 5.58604 4.38264 5.09606 4.57226 4.6399C4.76187 4.18374 5.04234 3.77095 5.39661 3.42666C5.75087 3.08238 6.1715 2.81381 6.63289 2.6373C7.09428 2.4608 7.58677 2.38006 8.08037 2.4C10.147 2.4 11.2804 3.66 11.2804 5.34667C11.2804 7.56 10.3004 9.43333 8.84037 9.43333C8.0337 9.43333 7.7537 8.82 7.94037 8.00667C8.22037 6.84 9.74703 4.9 7.94037 4.5C6.1337 4.1 5.8537 6.39333 5.82037 7.43333L4.7137 12.1C4.52775 13.1832 4.52775 14.2901 4.7137 15.3733C4.71582 15.3966 4.72508 15.4187 4.74022 15.4365C4.75535 15.4543 4.77562 15.467 4.79825 15.4728C4.82088 15.4786 4.84475 15.4773 4.86662 15.4691C4.88848 15.4608 4.90725 15.446 4.92037 15.4267C5.58379 14.601 6.10021 13.6674 6.44703 12.6667C6.5537 12.28 6.94703 10.8 6.94703 10.8C7.18021 11.141 7.4953 11.418 7.86339 11.6055C8.23147 11.7931 8.64076 11.8851 9.0537 11.8733C11.8204 11.8733 13.807 8.84667 13.807 5.46667C13.807 2.91333 11.6404 0.533333 8.3537 0.533333C4.26037 0.533333 2.1937 3.46667 2.1937 5.91333C2.15231 6.49121 2.25206 7.07048 2.48433 7.60123C2.71661 8.13199 3.07446 8.5983 3.52703 8.96L4.40037 6.84667Z" stroke="#3F434B" stroke-linecap="round" stroke-linejoin="round"/>
	</g>
	<g style="transform:translate(110px, 110px)">
		<path d="M8.3125 9.625H7.875C7.64294 9.625 7.42038 9.53281 7.25628 9.36872C7.09219 9.20462 7 8.98206 7 8.75V6.5625C7 6.44647 6.95391 6.33519 6.87186 6.25314C6.78981 6.17109 6.67853 6.125 6.5625 6.125H6.125" stroke="#3F434B" stroke-width="0.875" stroke-linecap="round" stroke-linejoin="round"/>
		<path d="M6.78125 3.9375C6.73799 3.9375 6.69569 3.95033 6.65972 3.97437C6.62375 3.9984 6.59571 4.03257 6.57915 4.07254C6.56259 4.11251 6.55826 4.15649 6.5667 4.19893C6.57514 4.24136 6.59598 4.28034 6.62657 4.31093C6.65716 4.34152 6.69614 4.36236 6.73857 4.3708C6.78101 4.37924 6.82499 4.37491 6.86496 4.35835C6.90493 4.34179 6.9391 4.31375 6.96313 4.27778C6.98717 4.24181 7 4.19951 7 4.15625C7 4.09823 6.97695 4.04259 6.93593 4.00157C6.89491 3.96055 6.83927 3.9375 6.78125 3.9375Z" fill="#3F434B" stroke="#3F434B" stroke-width="0.875" stroke-linecap="round" stroke-linejoin="round"/>
		<path d="M0.4375 7C0.4375 8.74048 1.1289 10.4097 2.35961 11.6404C3.59032 12.8711 5.25952 13.5625 7 13.5625C8.74048 13.5625 10.4097 12.8711 11.6404 11.6404C12.8711 10.4097 13.5625 8.74048 13.5625 7C13.5625 5.25952 12.8711 3.59032 11.6404 2.35961C10.4097 1.1289 8.74048 0.4375 7 0.4375C5.25952 0.4375 3.59032 1.1289 2.35961 2.35961C1.1289 3.59032 0.4375 5.25952 0.4375 7V7Z" stroke="#3F434B" stroke-width="0.875" stroke-linecap="round" stroke-linejoin="round"/>
	</g>
	<g style="transform:translate(130px, 110px)">
		<path d="M7.01021 19.0196L1.09375 26.25L6.5625 27.3437L8.75 33.9063L14.5017 24.78" stroke="#4E1AE4" stroke-width="1.65" stroke-linecap="round" stroke-linejoin="round"/>
		<path d="M27.9898 19.0196L33.9062 26.25L28.4375 27.3437L26.25 33.9063L20.4983 24.78" stroke="#4E1AE4" stroke-width="1.65" stroke-linecap="round" stroke-linejoin="round"/>
		<path d="M5.46875 13.125C5.46875 16.3159 6.73632 19.3761 8.99262 21.6324C11.2489 23.8887 14.3091 25.1563 17.5 25.1563C20.6909 25.1563 23.7511 23.8887 26.0074 21.6324C28.2637 19.3761 29.5313 16.3159 29.5313 13.125C29.5313 9.93411 28.2637 6.87392 26.0074 4.61762C23.7511 2.36132 20.6909 1.09375 17.5 1.09375C14.3091 1.09375 11.2489 2.36132 8.99262 4.61762C6.73632 6.87392 5.46875 9.93411 5.46875 13.125V13.125Z" stroke="#4E1AE4" stroke-width="1.65" stroke-linecap="round" stroke-linejoin="round"/>
		<path d="M18.2744 6.25917L20.0944 9.84375H23.1962C23.367 9.83958 23.535 9.88703 23.6784 9.97989C23.8218 10.0728 23.9338 10.2067 23.9998 10.3642C24.0658 10.5218 24.0827 10.6956 24.0484 10.8629C24.014 11.0302 23.93 11.1833 23.8073 11.3021L20.9592 14.0992L22.5371 17.7231C22.6066 17.8891 22.6223 18.0727 22.5819 18.2481C22.5414 18.4234 22.4469 18.5817 22.3117 18.7004C22.1765 18.8192 22.0074 18.8925 21.8283 18.91C21.6492 18.9275 21.4692 18.8883 21.3135 18.7979L17.5 16.6527L13.6864 18.7979C13.5308 18.8883 13.3507 18.9275 13.1716 18.91C12.9925 18.8925 12.8234 18.8192 12.6882 18.7004C12.553 18.5817 12.4585 18.4234 12.4181 18.2481C12.3777 18.0727 12.3934 17.8891 12.4629 17.7231L14.0408 14.0992L11.1927 11.2963C11.07 11.1775 10.9859 11.0244 10.9516 10.8571C10.9173 10.6897 10.9342 10.516 11.0002 10.3584C11.0662 10.2009 11.1782 10.0669 11.3216 9.97406C11.4649 9.88119 11.633 9.83375 11.8037 9.83792H14.9056L16.7271 6.25917C16.8014 6.11844 16.9128 6.00066 17.0491 5.91851C17.1854 5.83636 17.3416 5.79294 17.5007 5.79294C17.6599 5.79294 17.816 5.83636 17.9524 5.91851C18.0887 6.00066 18.2 6.11844 18.2744 6.25917V6.25917Z" stroke="#4E1AE4" stroke-width="1.65" stroke-linecap="round" stroke-linejoin="round"/>
	</g>
	<g style="transform:translate(165px, 110px)">
		<path d="M33.9063 26.25V16.4062H24.0625" stroke="#12C3EA" stroke-width="1.65" stroke-linecap="round" stroke-linejoin="round"/>
		<path d="M33.9063 16.4062L22.3285 27.984C22.1254 28.1872 21.8842 28.3485 21.6187 28.4585C21.3532 28.5685 21.0686 28.6252 20.7813 28.6252C20.4939 28.6252 20.2093 28.5685 19.9438 28.4585C19.6783 28.3485 19.4371 28.1872 19.234 27.984L14.6723 23.4223C14.4691 23.219 14.2279 23.0578 13.9624 22.9477C13.697 22.8377 13.4124 22.7811 13.125 22.7811C12.8376 22.7811 12.553 22.8377 12.2876 22.9477C12.0221 23.0578 11.7809 23.219 11.5777 23.4223L1.09375 33.9063" stroke="#12C3EA" stroke-width="1.65" stroke-linecap="round" stroke-linejoin="round"/>
		<path d="M9.84376 16.4062L2.38584 8.62604C1.73085 7.97145 1.29862 7.12722 1.15046 6.21313C1.0023 5.29905 1.14574 4.36151 1.56043 3.53354V3.53354C1.87303 2.90826 2.32977 2.36622 2.89298 1.9521C3.45619 1.53798 4.10976 1.26365 4.79981 1.1517C5.48986 1.03975 6.19664 1.0934 6.86189 1.30823C7.52713 1.52305 8.1318 1.8929 8.62605 2.38729L9.84376 3.605L11.0615 2.38729C11.5559 1.89291 12.1606 1.52307 12.826 1.30825C13.4913 1.09344 14.1982 1.03979 14.8884 1.15173C15.5785 1.26367 16.2322 1.53799 16.7955 1.9521C17.3589 2.3662 17.8158 2.90824 18.1286 3.53354V3.53354C18.5426 4.36176 18.6856 5.29928 18.5372 6.21327C18.3888 7.12726 17.9565 7.97138 17.3017 8.62604L9.84376 16.4062Z" stroke="#12C3EA" stroke-width="1.65" stroke-linecap="round" stroke-linejoin="round"/>
	</g>
	<g style="transform:translate(0, 150px)">
		<path d="M5.63646 33.9063L2.53167 30.2342C1.60086 29.0706 1.09375 27.6249 1.09375 26.1348V18.5938C1.09375 18.0136 1.32422 17.4572 1.73445 17.047C2.14469 16.6367 2.70109 16.4063 3.28125 16.4062V16.4062C3.86141 16.4063 4.41781 16.6367 4.82805 17.047C5.23828 17.4572 5.46875 18.0136 5.46875 18.5938V24.0625" stroke="#F99500" stroke-width="1.65" stroke-linecap="round" stroke-linejoin="round"/>
		<path d="M12.0312 33.9062V29.3315C12.0325 28.0337 11.6483 26.7647 10.9273 25.6856L9.26187 23.1875C9.11965 22.9507 8.93084 22.7452 8.70688 22.5834C8.48292 22.4217 8.22847 22.3071 7.95892 22.2465C7.68938 22.186 7.41036 22.1808 7.13874 22.2312C6.86713 22.2817 6.60858 22.3867 6.37875 22.54V22.54C5.96401 22.8165 5.66477 23.2352 5.53744 23.7172C5.4101 24.1991 5.46348 24.711 5.6875 25.1562L7.65625 28.4375" stroke="#F99500" stroke-width="1.65" stroke-linecap="round" stroke-linejoin="round"/>
		<path d="M29.3636 33.9063L32.4683 30.2342C33.3992 29.0706 33.9063 27.6249 33.9063 26.1348V18.5938C33.9063 18.0136 33.6758 17.4572 33.2656 17.047C32.8553 16.6367 32.2989 16.4063 31.7188 16.4062C31.1386 16.4063 30.5822 16.6367 30.172 17.047C29.7617 17.4572 29.5313 18.0136 29.5313 18.5938V24.0625" stroke="#F99500" stroke-width="1.65" stroke-linecap="round" stroke-linejoin="round"/>
		<path d="M22.9688 33.9062V29.3315C22.9675 28.0337 23.3517 26.7647 24.0727 25.6856L25.7381 23.1875C25.8803 22.9507 26.0692 22.7452 26.2931 22.5834C26.5171 22.4217 26.7715 22.3071 27.0411 22.2465C27.3106 22.186 27.5896 22.1808 27.8613 22.2312C28.1329 22.2817 28.3914 22.3867 28.6213 22.54V22.54C29.036 22.8165 29.3352 23.2352 29.4626 23.7172C29.5899 24.1991 29.5365 24.711 29.3125 25.1562L27.3438 28.4375" stroke="#F99500" stroke-width="1.65" stroke-linecap="round" stroke-linejoin="round"/>
		<path d="M18.5675 10.1996C18.4505 10.0236 18.2918 9.87929 18.1056 9.77946C17.9193 9.67963 17.7113 9.62739 17.5 9.62739C17.2887 9.62739 17.0806 9.67963 16.8944 9.77946C16.7082 9.87929 16.5495 10.0236 16.4325 10.1996L12.8406 15.5867C12.7002 15.7974 12.6252 16.0451 12.6252 16.2983C12.6252 16.5516 12.7002 16.7992 12.8406 17.01L16.4325 22.3971C16.5495 22.5731 16.7082 22.7174 16.8944 22.8172C17.0806 22.917 17.2887 22.9693 17.5 22.9693C17.7113 22.9693 17.9193 22.917 18.1056 22.8172C18.2918 22.7174 18.4505 22.5731 18.5675 22.3971L22.1667 17.01C22.3071 16.7992 22.3821 16.5516 22.3821 16.2983C22.3821 16.0451 22.3071 15.7974 22.1667 15.5867L18.5675 10.1996Z" stroke="#F99500" stroke-width="1.65" stroke-linecap="round" stroke-linejoin="round"/>
		<path d="M16.084 10.8748C13.19 10.6149 10.4229 9.56547 8.08429 7.84099C5.74572 6.11651 3.92543 3.78313 2.82187 1.09521" stroke="#F99500" stroke-width="1.65" stroke-linecap="round" stroke-linejoin="round"/>
		<path d="M32.1781 1.09375C31.0746 3.78185 29.2544 6.11544 26.9159 7.84018C24.5773 9.56491 21.8102 10.6146 18.916 10.8748" stroke="#F99500" stroke-width="1.65" stroke-linecap="round" stroke-linejoin="round"/>
	</g>
	<g style="transform:translate(40px, 150px)">
		<path d="M1 13.5V3C1 1.89543 1.89543 1 3 1H19.5M1 13.5V17.6667M1 13.5H19.5M38 13.5V17.6667M38 13.5H19.5M38 13.5V10.8611V9.88889V9.44444M1 17.6667H38M1 17.6667V19.8889V22.1111M38 17.6667V22.1111M1 22.1111V24C1 25.1046 1.89543 26 3 26H36C37.1046 26 38 25.1046 38 24V22.1111M1 22.1111H38M19.5 1H36C37.1046 1 38 1.89543 38 3V3.77778V5.44444M19.5 1V3.77778V5.44444M19.5 13.5V10.8611V9.88889V9.44444M19.5 5.44444H38M19.5 5.44444V9.44444M38 5.44444V9.44444M19.5 9.44444H38" stroke="#327AE4" stroke-width="1.4"/>
	</g>
	<g style="transform:translate(85px, 150px)">
		<path d="M3.11003 21.2333C3.65151 21.2333 4.17082 21.0313 4.5537 20.6719C4.93659 20.3125 5.15169 19.8249 5.15169 19.3166C5.15169 18.8083 4.93659 18.3208 4.5537 17.9613C4.17082 17.6019 3.65151 17.3999 3.11003 17.3999C2.56854 17.3999 2.04924 17.6019 1.66635 17.9613C1.28346 18.3208 1.06836 18.8083 1.06836 19.3166C1.06836 19.8249 1.28346 20.3125 1.66635 20.6719C2.04924 21.0313 2.56854 21.2333 3.11003 21.2333Z" fill="#DADADA" stroke="#DADADA" stroke-width="0.625" stroke-linecap="round" stroke-linejoin="round"/>
		<path d="M3.11003 4.18347C3.37814 4.18347 3.64363 4.1339 3.89134 4.03757C4.13904 3.94125 4.36412 3.80007 4.5537 3.62209C4.74329 3.44411 4.89368 3.23282 4.99628 3.00028C5.09888 2.76774 5.15169 2.5185 5.15169 2.2668C5.15169 2.0151 5.09888 1.76587 4.99628 1.53333C4.89368 1.30078 4.74329 1.08949 4.5537 0.911513C4.36412 0.733534 4.13904 0.592353 3.89134 0.496031C3.64363 0.39971 3.37814 0.350134 3.11003 0.350134C2.84191 0.350134 2.57642 0.39971 2.32871 0.496031C2.08101 0.592353 1.85594 0.733534 1.66635 0.911513C1.47676 1.08949 1.32638 1.30078 1.22377 1.53333C1.12117 1.76587 1.06836 2.0151 1.06836 2.2668C1.06836 2.5185 1.12117 2.76774 1.22377 3.00028C1.32638 3.23282 1.47676 3.44411 1.66635 3.62209C1.85594 3.80007 2.08101 3.94125 2.32871 4.03757C2.57642 4.1339 2.84191 4.18347 3.11003 4.18347Z" fill="#DADADA" stroke="#DADADA" stroke-width="0.625" stroke-linecap="round" stroke-linejoin="round"/>
		<path d="M3.11003 12.7084C3.65151 12.7084 4.17082 12.5064 4.5537 12.147C4.93659 11.7876 5.15169 11.3 5.15169 10.7917C5.15169 10.2834 4.93659 9.79586 4.5537 9.43642C4.17082 9.07697 3.65151 8.87504 3.11003 8.87504C2.56854 8.87504 2.04924 9.07697 1.66635 9.43642C1.28346 9.79586 1.06836 10.2834 1.06836 10.7917C1.06836 11.3 1.28346 11.7876 1.66635 12.147C2.04924 12.5064 2.56854 12.7084 3.11003 12.7084Z" fill="#DADADA" stroke="#DADADA" stroke-width="0.625" stroke-linecap="round" stroke-linejoin="round"/>
	</g>
	<g style="transform:translate(100px, 150px)">
		<path d="M15.8467 23.6643L9 18.8716L2.15333 23.6643C2.0316 23.7494 1.88885 23.7996 1.74059 23.8093C1.59234 23.819 1.44426 23.7879 1.31246 23.7193C1.18066 23.6507 1.07019 23.5473 0.99306 23.4203C0.915931 23.2934 0.875097 23.1477 0.875 22.9991V1.80908C0.875 1.37811 1.0462 0.96478 1.35095 0.660033C1.6557 0.355287 2.06902 0.184082 2.5 0.184082H15.5C15.931 0.184082 16.3443 0.355287 16.649 0.660033C16.9538 0.96478 17.125 1.37811 17.125 1.80908V22.9991C17.1249 23.1477 17.0841 23.2934 17.0069 23.4203C16.9298 23.5473 16.8193 23.6507 16.6875 23.7193C16.5557 23.7879 16.4077 23.819 16.2594 23.8093C16.1112 23.7996 15.9684 23.7494 15.8467 23.6643Z" fill="#2581E3"/>
	</g>
	<g style="transform:translate(120px, 150px)">
		<path d="M0.8125 7.3125H13.1875V17.4375H0.8125V7.3125Z" fill="#3F434B" stroke="#3F434B" stroke-width="1.125" stroke-linecap="round" stroke-linejoin="round"/>
		<path d="M3.0625 7.3125V4.5C3.0625 3.45571 3.47734 2.45419 4.21577 1.71577C4.95419 0.977343 5.95571 0.5625 7 0.5625C8.04429 0.5625 9.04581 0.977343 9.78423 1.71577C10.5227 2.45419 10.9375 3.45571 10.9375 4.5V7.3125" stroke="#3F434B" stroke-width="1.125" stroke-linecap="round" stroke-linejoin="round"/>
		<path d="M7 11.8125C6.94437 11.8125 6.89 11.829 6.84375 11.8599C6.79749 11.8908 6.76145 11.9347 6.74016 11.9861C6.71887 12.0375 6.7133 12.0941 6.72415 12.1486C6.73501 12.2032 6.76179 12.2533 6.80113 12.2926C6.84046 12.332 6.89057 12.3587 6.94513 12.3696C6.99969 12.3804 7.05624 12.3749 7.10763 12.3536C7.15902 12.3323 7.20295 12.2963 7.23385 12.25C7.26475 12.2038 7.28125 12.1494 7.28125 12.0938C7.28135 12.0568 7.27414 12.0202 7.26004 11.986C7.24594 11.9518 7.22523 11.9208 7.19909 11.8947C7.17296 11.8685 7.14191 11.8478 7.10775 11.8337C7.07358 11.8196 7.03696 11.8124 7 11.8125V11.8125Z" stroke="#3F434B" stroke-width="1.125" stroke-linecap="round" stroke-linejoin="round"/>
	</g>
</svg>