<svg xmlns="http://www.w3.org/2000/svg" viewBox="0 0 15 110">
  <defs>
    <style>
      .cls-1 {
        opacity: 0.8;
      }

      .cls-2, .cls-3 {
        fill: #4978b3;
      }

      .cls-2 {
        opacity: 0.2;
      }
    </style>
  </defs>
  <g id="_1x" data-name="1x" transform="translate(-51 -104.987)">
    <g id="Details" class="cls-1">
      <rect id="_" data-name="#" class="cls-2" width="4" height="1" transform="translate(56 106)"/>
      <path id="_2" data-name="#" class="cls-3" d="M53,120l-.016,0h-.141A1.844,1.844,0,0,1,51,118.155V107.825a1.844,1.844,0,0,1,1.842-1.842H55V105.8a.794.794,0,0,1,.067-.317.748.748,0,0,1,.683-.5h4.51a.737.737,0,0,1,.737.737v.058a.051.051,0,0,0,0,.009.032.032,0,0,1,0,.01v.183h2.16A1.844,1.844,0,0,1,65,107.825v10.329A1.844,1.844,0,0,1,63.16,120h-.144L63,120Zm-1-12v10a1,1,0,0,0,1,1H63a1,1,0,0,0,1-1V108a1,1,0,0,0-1-1H61v.2a.8.8,0,0,1-.8.8H55.8a.8.8,0,0,1-.8-.8V107H53A1,1,0,0,0,52,108Zm4-1.5a.5.5,0,0,0,.5.5h3a.5.5,0,1,0,0-1h-3A.5.5,0,0,0,56,106.5ZM58.5,117a.5.5,0,1,1,0-1h3a.5.5,0,1,1,0,1ZM54,115.5a1.5,1.5,0,1,1,1.5,1.5A1.5,1.5,0,0,1,54,115.5Zm1,0a.5.5,0,1,0,.5-.5A.5.5,0,0,0,55,115.5Zm3.5-.5a.5.5,0,1,1,0-1h3a.5.5,0,1,1,0,1Zm0-2a.5.5,0,0,1,0-1h3a.5.5,0,1,1,0,1ZM54,111.5a1.5,1.5,0,1,1,1.5,1.5A1.5,1.5,0,0,1,54,111.5Zm1,0a.5.5,0,1,0,.5-.5A.5.5,0,0,0,55,111.5Zm3.5-.5a.5.5,0,1,1,0-1h3a.5.5,0,1,1,0,1Z"/>
    </g>
    <g id="Print" class="cls-1">
      <rect id="_3" data-name="#" class="cls-2" width="6" height="4" transform="translate(55 139)"/>
      <path id="_4" data-name="#" class="cls-3" d="M56,144c-.023,0-.045-.006-.068-.007h-1.5a.437.437,0,0,1-.437-.436v-3.143a.436.436,0,0,0-.437-.436H51.444a.438.438,0,0,1-.437-.437v-4.37a2.185,2.185,0,0,1,2.186-2.185h9.615a2.186,2.186,0,0,1,2.186,2.185v4.37a.438.438,0,0,1-.437.437H62.433A.435.435,0,0,0,62,140.4V142c0,.014,0,.028,0,.043v1.513a.437.437,0,0,1-.437.436H60.069c-.023,0-.045.007-.068.007Zm-1-4v2a1,1,0,0,0,1,1h4a1,1,0,0,0,1-1v-2a1,1,0,0,0-1-1H56A1,1,0,0,0,55,140Zm7-1h1a1,1,0,0,0,1-1v-3a1,1,0,0,0-1-1H53a1,1,0,0,0-1,1v3a1,1,0,0,0,1,1h1c0-1.1.9-1,2-1h4l.508,0C61.367,138,62,138.071,62,139Zm-1-3a1,1,0,1,1,1,1A1,1,0,0,1,61,136Zm-6.5-4a.5.5,0,1,1,0-1h7a.5.5,0,1,1,0,1Z"/>
    </g>
    <g id="Report" class="cls-1">
      <rect id="_5" data-name="#" class="cls-2" width="1" height="5" transform="translate(59 155.97)"/>
      <path id="_6" data-name="#" class="cls-3" d="M53.5,167a.5.5,0,0,1-.5-.5v-11a.5.5,0,1,1,1,0v11A.5.5,0,0,1,53.5,167ZM64,163H60a1,1,0,0,1-1-1H56a1,1,0,0,1-1-1v-5a1,1,0,0,1,1-1h4a1,1,0,0,1,1,1h3a1,1,0,0,1,1,1v5A1,1,0,0,1,64,163Zm-4-2.455h0v.955a.5.5,0,0,0,.5.5h3a.5.5,0,0,0,.5-.5v-4a.5.5,0,0,0-.5-.5h-3a.5.5,0,0,0-.5.5v-1a.5.5,0,0,0-.5-.5h-3a.5.5,0,0,0-.5.5v4a.5.5,0,0,0,.5.5h3A.5.5,0,0,0,60,160.545Z"/>
    </g>
    <g id="Return_Exchange" data-name="Return Exchange" class="cls-1">
      <path id="_7" data-name="#" class="cls-3" d="M58.5,209h-2a.5.5,0,0,1,0-1h2a1.5,1.5,0,0,0,0-3H58v2H57v-1H56v-1H55v-1h1v-1h1v-1h1v2.05a2.51,2.51,0,0,1,.5-.05h0a2.5,2.5,0,0,1,0,5Z"/>
      <path id="_8" data-name="#" class="cls-3" d="M58,213a7,7,0,1,1,7-7A7.008,7.008,0,0,1,58,213Zm0-13a6,6,0,1,0,6,6A6.007,6.007,0,0,0,58,200Z"/>
    </g>
    <g id="Contact" class="cls-1">
      <path id="_9" data-name="#" class="cls-3" d="M63.16,188h-.135L63,188H53l-.025,0h-.132A1.842,1.842,0,0,1,51,186.155v-8.33a1.842,1.842,0,0,1,1.842-1.842H63.16A1.842,1.842,0,0,1,65,177.825v8.33A1.842,1.842,0,0,1,63.16,188ZM64,178a1,1,0,0,0-1-1H53a1,1,0,0,0-1,1v8a1,1,0,0,0,1,1H63a1,1,0,0,0,1-1Z"/>
      <path id="_10" data-name="#" class="cls-3" d="M57.573,183.8l-4.4-3.806a.6.6,0,0,1,.847-.847L58,182.585l3.976-3.439a.6.6,0,1,1,.847.847l-4.4,3.806a.6.6,0,0,1-.848,0Z"/>
    </g>
  </g>
</svg>
