<svg id="fancy_collection_product" xmlns="http://www.w3.org/2000/svg" width="30" height="30" viewBox="0 0 30 30">
  <metadata><?xpacket begin="﻿" id="W5M0MpCehiHzreSzNTczkc9d"?>
<x:xmpmeta xmlns:x="adobe:ns:meta/" x:xmptk="Adobe XMP Core 5.6-c140 79.160451, 2017/05/06-01:08:21        ">
   <rdf:RDF xmlns:rdf="http://www.w3.org/1999/02/22-rdf-syntax-ns#">
      <rdf:Description rdf:about=""/>
   </rdf:RDF>
</x:xmpmeta>
                                                                                                    
                                                                                                    
                                                                                                    
                                                                                                    
                                                                                                    
                                                                                                    
                                                                                                    
                                                                                                    
                                                                                                    
                                                                                                    
                                                                                                    
                                                                                                    
                                                                                                    
                                                                                                    
                                                                                                    
                                                                                                    
                                                                                                    
                                                                                                    
                                                                                                    
                                                                                                    
                           
<?xpacket end="w"?></metadata>
<defs>
    <style>
      .cls-2, .cls-3 {
        fill: #fff;
        fill-rule: evenodd;
      }

      .cls-2 {
        opacity: 0.5;
      }
    </style>
  </defs>
  <path id="_" data-name="#" class="cls-2" d="M132.29,608.105l5.191,1.513a2.217,2.217,0,0,1,1.425,2.684l-1.739,7.058a2,2,0,0,1-2.467,1.55l-5.192-1.513a2.218,2.218,0,0,1-1.425-2.684l1.739-7.058A2,2,0,0,1,132.29,608.105Z" transform="translate(-117 -599)"/>
  <path id="_2" data-name="#" class="cls-3" d="M133.573,619h-7.144a1.463,1.463,0,0,1-1.429-1.5v-0.714c0-.027-0.008-0.052-0.008-0.079V609.24c0-.027.007-0.052,0.008-0.079v-0.62a1.463,1.463,0,0,1,1.429-1.494h0.265a2.016,2.016,0,0,1,.442-0.049h5.717a2.016,2.016,0,0,1,.442.049h0.278A1.463,1.463,0,0,1,135,608.541v8.965A1.463,1.463,0,0,1,133.573,619Z" transform="translate(-117 -599)"/>
</svg>
