<svg id="timeline_product" xmlns="http://www.w3.org/2000/svg" width="30" height="30" viewBox="0 0 30 30">
  <metadata><?xpacket begin="﻿" id="W5M0MpCehiHzreSzNTczkc9d"?>
<x:xmpmeta xmlns:x="adobe:ns:meta/" x:xmptk="Adobe XMP Core 5.6-c140 79.160451, 2017/05/06-01:08:21        ">
   <rdf:RDF xmlns:rdf="http://www.w3.org/1999/02/22-rdf-syntax-ns#">
      <rdf:Description rdf:about=""/>
   </rdf:RDF>
</x:xmpmeta>
                                                                                                    
                                                                                                    
                                                                                                    
                                                                                                    
                                                                                                    
                                                                                                    
                                                                                                    
                                                                                                    
                                                                                                    
                                                                                                    
                                                                                                    
                                                                                                    
                                                                                                    
                                                                                                    
                                                                                                    
                                                                                                    
                                                                                                    
                                                                                                    
                                                                                                    
                                                                                                    
                           
<?xpacket end="w"?></metadata>
<defs>
    <style>
      .cls-2 {
        fill: #fff;
        fill-rule: evenodd;
      }
    </style>
  </defs>
  <path id="_" data-name="#" class="cls-2" d="M138,261.812a1.2,1.2,0,0,1-1.2,1.2h-1.585a1.2,1.2,0,0,1-1.2-1.2v-3.8h-3.993s0,0,0,.006v3.794a1.2,1.2,0,0,1-1.2,1.2h-1.617a1.2,1.2,0,0,1-1.2-1.2l-0.005-6.2a0.615,0.615,0,0,1,.332-0.55l5.4-3.994A0.588,0.588,0,0,1,132,251a0.6,0.6,0,0,1,.269.064l5.4,3.994a0.616,0.616,0,0,1,.331.55Z" transform="translate(-117 -242)"/>
</svg>
