<svg id="twitter" xmlns="http://www.w3.org/2000/svg" width="30" height="30" viewBox="0 0 30 30">
  <metadata><?xpacket begin="﻿" id="W5M0MpCehiHzreSzNTczkc9d"?>
<x:xmpmeta xmlns:x="adobe:ns:meta/" x:xmptk="Adobe XMP Core 5.6-c140 79.160451, 2017/05/06-01:08:21        ">
   <rdf:RDF xmlns:rdf="http://www.w3.org/1999/02/22-rdf-syntax-ns#">
      <rdf:Description rdf:about=""/>
   </rdf:RDF>
</x:xmpmeta>
                                                                                                    
                                                                                                    
                                                                                                    
                                                                                                    
                                                                                                    
                                                                                                    
                                                                                                    
                                                                                                    
                                                                                                    
                                                                                                    
                                                                                                    
                                                                                                    
                                                                                                    
                                                                                                    
                                                                                                    
                                                                                                    
                                                                                                    
                                                                                                    
                                                                                                    
                                                                                                    
                           
<?xpacket end="w"?></metadata>
<defs>
    <style>
      .cls-2 {
        fill: #fff;
        fill-rule: evenodd;
      }
    </style>
  </defs>
  <path class="cls-2" d="M139,712.3a5.918,5.918,0,0,1-1.649.438,2.807,2.807,0,0,0,1.263-1.537,5.867,5.867,0,0,1-1.824.674,2.913,2.913,0,0,0-2.1-.877,2.826,2.826,0,0,0-2.872,2.777,2.475,2.475,0,0,0,.014.6,8.091,8.091,0,0,1-5.859-2.873,2.7,2.7,0,0,0-.389,1.4,2.753,2.753,0,0,0,1.278,2.312,2.943,2.943,0,0,1-1.3-.348V714.9a2.8,2.8,0,0,0,2.3,2.723,2.94,2.94,0,0,1-.756.1,3.016,3.016,0,0,1-.541-0.05,2.864,2.864,0,0,0,2.683,1.928,5.887,5.887,0,0,1-3.566,1.189,5.976,5.976,0,0,1-.686-0.039A8.333,8.333,0,0,0,129.4,722a7.975,7.975,0,0,0,8.171-7.9c0-.12,0-0.24-0.009-0.359A5.726,5.726,0,0,0,139,712.3" transform="translate(-117 -701)"/>
</svg>
