<svg id="newsletter_product" xmlns="http://www.w3.org/2000/svg" width="30" height="30" viewBox="0 0 30 30">
  <metadata><?xpacket begin="﻿" id="W5M0MpCehiHzreSzNTczkc9d"?>
<x:xmpmeta xmlns:x="adobe:ns:meta/" x:xmptk="Adobe XMP Core 5.6-c140 79.160451, 2017/05/06-01:08:21        ">
   <rdf:RDF xmlns:rdf="http://www.w3.org/1999/02/22-rdf-syntax-ns#">
      <rdf:Description rdf:about=""/>
   </rdf:RDF>
</x:xmpmeta>
                                                                                                    
                                                                                                    
                                                                                                    
                                                                                                    
                                                                                                    
                                                                                                    
                                                                                                    
                                                                                                    
                                                                                                    
                                                                                                    
                                                                                                    
                                                                                                    
                                                                                                    
                                                                                                    
                                                                                                    
                                                                                                    
                                                                                                    
                                                                                                    
                                                                                                    
                                                                                                    
                           
<?xpacket end="w"?></metadata>
<defs>
    <style>
      .cls-2 {
        fill: #fff;
        fill-rule: evenodd;
      }
    </style>
  </defs>
  <path id="_2" data-name="#" class="cls-2" d="M126.014,354h11.98l-6,4.94ZM132,360.773L138,355.854s-0.009,8.334-.009,6.276a2.09,2.09,0,0,1-.022.225,1.43,1.43,0,0,1,.029.145,1.5,1.5,0,0,1-1.5,1.5h-0.231c-0.025,0-.049.008-0.074,0.008h-8.39c-0.025,0-.049-0.007-0.074-0.008H127.5a1.5,1.5,0,0,1-1.492-1.463h0c0-.013-0.008-0.024-0.008-0.037s0.007-.024.008-0.037c0-.069,0-0.177,0-0.333h0v0.332c0-.038.017-0.071,0.021-0.108a2.048,2.048,0,0,1-.021-0.224v-6.289Z" transform="translate(-117 -344)"/>
</svg>
