<svg xmlns="http://www.w3.org/2000/svg" xmlns:xlink="http://www.w3.org/1999/xlink" width="338.716" height="492" viewBox="0 0 338.716 492">
  <defs>
    <filter id="Rectangle_11" x="29.923" y="0" width="292" height="492" filterUnits="userSpaceOnUse">
      <feOffset dy="3" input="SourceAlpha"/>
      <feGaussianBlur stdDeviation="15" result="blur"/>
      <feFlood flood-opacity="0.161"/>
      <feComposite operator="in" in2="blur"/>
      <feComposite in="SourceGraphic"/>
    </filter>
  </defs>
  <g id="Device" transform="translate(-866.077 -311)">
    <g id="Base">
      <g transform="matrix(1, 0, 0, 1, 866.08, 311)" filter="url(#Rectangle_11)">
        <rect id="Rectangle_11-2" data-name="Rectangle 11" width="202" height="402" rx="30" transform="translate(74.92 42)" fill="#fff"/>
      </g>
      <path id="Rectangle_8" data-name="Rectangle 8" d="M0,0H182a0,0,0,0,1,0,0V128a2,2,0,0,1-2,2H2a2,2,0,0,1-2-2V0A0,0,0,0,1,0,0Z" transform="translate(951 576)" fill="#f6f7f9"/>
    </g>
    <g id="Icons">
      <path id="Profile" d="M13.866,2.2c2.677,0,4.695,1.575,4.695,3.665l-.025,2.32a5.4,5.4,0,0,1-4.67,4.151h-.691a5.382,5.382,0,0,1-4.709-4.1L8.441,5.806c0-2.075,2.034-3.615,4.734-3.615h.691m.88,16.564c3.644,0,10.076,2.665,10.076,8.132v.8a1.453,1.453,0,0,1-1.511,1.355H3.977a1.766,1.766,0,0,1-1.82-1.66v-.506c0-5.469,6.384-8.132,10-8.132h2.584M13.864.026h-.691A6.343,6.343,0,0,0,6.28,5.8l.027,2.445c0,2.955,3.736,6.237,6.866,6.237h.691A7.529,7.529,0,0,0,20.69,8.166l.025-2.3A6.357,6.357,0,0,0,13.866.026Zm.88,16.564H12.16C7.515,16.59,0,20.081,0,26.878v.506a3.826,3.826,0,0,0,3.9,3.736h19.5A3.528,3.528,0,0,0,26.981,27.7v-.8c0-6.8-7.59-10.288-12.233-10.288Z" transform="translate(885.811 538.765) rotate(-8)" fill="#6e7a88" opacity="0.201"/>
      <path id="Store" d="M29.314,12.283a4.138,4.138,0,0,1-4.065-2.426,4.316,4.316,0,0,1-4.2,2.426A4.359,4.359,0,0,1,16.8,9.936a4.181,4.181,0,0,1-4.138,2.347A4.244,4.244,0,0,1,8.482,9.919,4.2,4.2,0,0,1,4.33,12.283a4.411,4.411,0,0,1-4.341-4.6l.043-.153L4.606.2A.365.365,0,0,1,4.922,0H28.788a.366.366,0,0,1,.323.2l4.6,7.335.043.153a4.483,4.483,0,0,1-4.439,4.6ZM27.714,2.3H6L2.331,8.2A2.049,2.049,0,0,0,4.324,9.984a1.93,1.93,0,0,0,2.02-.92A2.36,2.36,0,0,1,8.49,7.628h.064a2.3,2.3,0,0,1,2.063,1.444,1.992,1.992,0,0,0,2.042.92,1.916,1.916,0,0,0,2-.9A2.377,2.377,0,0,1,16.8,7.643h.052a2.233,2.233,0,0,1,2.049,1.389,2.109,2.109,0,0,0,2.146.959A2.052,2.052,0,0,0,23.116,9a2.291,2.291,0,0,1,4.249-.038,1.908,1.908,0,0,0,1.95,1.027A2.146,2.146,0,0,0,31.4,8.2ZM11.12,25.289a1.15,1.15,0,0,1,0-2.3h11.5a1.15,1.15,0,0,1,0,2.3ZM4.606,15.345a5.364,5.364,0,0,0,2.308-.809L6.9,28.374H26.83V14.536a5.265,5.265,0,0,0,2.3.811V28.528a2.124,2.124,0,0,1-2.1,2.146H6.624A2.066,2.066,0,0,1,4.59,28.528h.031Z" transform="matrix(0.995, 0.105, -0.105, 0.995, 1171.224, 518.303)" fill="#6e7a88" opacity="0.201"/>
      <path id="_" data-name="#" d="M1278.741,46.287a2.412,2.412,0,0,1-2.365,1.951h-20.39a2.411,2.411,0,0,1-2.365-1.951L1249,22.938s-4.2-.305-2.8-.305c-.53,0-1.2.1-1.2-1.32S1245.68,20,1246.25,20l4.333.037a.942.942,0,0,1,.923.763l1.172,6.252c4.106,0,26.976.049,26.976.049a2.489,2.489,0,0,1,2.365,2.92Zm-25.6-16.572,2.937,15.846h20.191l3.047-15.846ZM1260,51.833a2.648,2.648,0,1,1-2.648,2.648A2.648,2.648,0,0,1,1260,51.833Zm12.356-.028a2.648,2.648,0,1,1-2.648,2.648,2.648,2.648,0,0,1,2.648-2.648Z" transform="translate(-59.239 394.661) rotate(9)" fill="#6e7a88" opacity="0.201"/>
      <g id="Path_285" data-name="Path 285" transform="matrix(0.956, -0.292, 0.292, 0.956, 869.87, 622.943)" fill="none" stroke-linecap="round" opacity="0.201">
        <path d="M29.933,6.9a6.9,6.9,0,0,0-.184-1.286V5.59h0A7.42,7.42,0,0,0,22.454,0a7.8,7.8,0,0,0-4.96,1.785h0A7.035,7.035,0,0,0,14.948,4.8,7.035,7.035,0,0,0,12.4,1.785h0A7.669,7.669,0,0,0,7.469,0,7.473,7.473,0,0,0,.147,5.59h0v.026A10.112,10.112,0,0,0-.037,6.9c-.525,9.054,14.985,19.315,14.985,19.315S30.458,15.956,29.933,6.9Z" stroke="none"/>
        <path d="M 7.468994140625 -3.814697265625e-06 C 3.899894714355469 -3.814697265625e-06 0.9343948364257812 2.388145446777344 0.1470947265625 5.589836120605469 C 0.1470947265625 5.589836120605469 0.1470947265625 5.589836120605469 0.1470947265625 5.616086959838867 C 0.06836509704589844 6.035976409912109 -0.0103759765625 6.455865859985352 -0.03661537170410156 6.902006149291992 C -0.5614757537841797 15.95597648620605 14.94835472106934 26.21713638305664 14.94835472106934 26.21713638305664 C 14.94835472106934 26.21713638305664 30.45818519592285 15.95597648620605 29.93332481384277 6.902006149291992 C 29.90707397460938 6.455865859985352 29.85459518432617 6.035976409912109 29.74961471557617 5.616086959838867 C 29.74961471557617 5.616086959838867 29.74961471557617 5.616086959838867 29.74961471557617 5.589836120605469 C 28.98856544494629 2.388145446777344 26.0230541229248 -3.814697265625e-06 22.45396423339844 -3.814697265625e-06 C 20.56443405151367 -3.814697265625e-06 18.83237457275391 0.6823253631591797 17.49396514892578 1.7845458984375 C 17.49396514892578 1.7845458984375 15.6306848526001 2.965505599975586 14.94835472106934 4.802536010742188 C 14.26602458953857 2.965505599975586 12.40274429321289 1.7845458984375 12.40274429321289 1.7845458984375 C 11.09058380126953 0.6823253631591797 9.358514785766602 -3.814697265625e-06 7.468994140625 -3.814697265625e-06 M 7.468994140625 -3.000003814697266 C 9.923410415649414 -3.000003814697266 12.30267143249512 -2.159639358520508 14.19033718109131 -0.6297206878662109 C 14.37262916564941 -0.5055751800537109 14.63863945007324 -0.3132915496826172 14.94835472106934 -0.0553741455078125 C 15.26514720916748 -0.3191852569580078 15.5361852645874 -0.5143089294433594 15.71870803833008 -0.6381034851074219 C 17.63029861450195 -2.162496566772461 20.01513290405273 -3.000003814697266 22.45396423339844 -3.000003814697266 C 24.82661437988281 -3.000003814697266 27.1500244140625 -2.209493637084961 28.9962043762207 -0.7741031646728516 C 30.83483505249023 0.655426025390625 32.13894653320312 2.669126510620117 32.66829299926758 4.89605712890625 L 32.74961471557617 5.238185882568359 L 32.74961471557617 5.285799026489258 C 32.83962631225586 5.733428955078125 32.8972282409668 6.200359344482422 32.92814636230469 6.725795745849609 C 33.19870376586914 11.39297676086426 30.43915557861328 16.56753540039062 24.72630500793457 22.10831642150879 C 20.75960540771484 25.95552635192871 16.771484375 28.60809707641602 16.6036548614502 28.71913528442383 L 14.94835472106934 29.81426620483398 L 13.29305458068848 28.71913528442383 C 13.12522506713867 28.60809707641602 9.137104034423828 25.95552635192871 5.170404434204102 22.10831642150879 C -0.5424461364746094 16.56753540039062 -3.301994323730469 11.39297676086426 -3.031585693359375 6.728385925292969 C -3.001052856445312 6.209287643432617 -2.927742004394531 5.751686096191406 -2.8529052734375 5.340110778808594 L -2.8529052734375 5.226396560668945 L -2.766124725341797 4.873476028442383 C -2.220184326171875 2.653347015380859 -0.9088249206542969 0.6468563079833984 0.9263954162597656 -0.7763729095458984 C 2.77540397644043 -2.210304260253906 5.098945617675781 -3.000003814697266 7.468994140625 -3.000003814697266 Z" stroke="none" fill="#6e7a88"/>
      </g>
    </g>
    <g id="Activity">
      <g id="Group_4" data-name="Group 4">
        <g id="Group_1" data-name="Group 1" transform="translate(-3 -4)">
          <rect id="Rectangle_9" data-name="Rectangle 9" width="99" height="3" rx="1.5" transform="translate(999 608)" fill="#9196a1" opacity="0.25"/>
          <rect id="Rectangle_10" data-name="Rectangle 10" width="41" height="3" rx="1.5" transform="translate(999 598)" fill="#c2c5cb"/>
          <circle id="Ellipse_2" data-name="Ellipse 2" cx="13" cy="13" r="13" transform="translate(966 591)" fill="#c2c5cb" opacity="0.8"/>
        </g>
        <g id="Group_2" data-name="Group 2" transform="translate(-3 37)">
          <rect id="Rectangle_9-2" data-name="Rectangle 9" width="68" height="3" rx="1.5" transform="translate(999 608)" fill="#9196a1" opacity="0.247"/>
          <rect id="Rectangle_10-2" data-name="Rectangle 10" width="41" height="3" rx="1.5" transform="translate(999 598)" fill="#c2c5cb"/>
          <circle id="Ellipse_2-2" data-name="Ellipse 2" cx="13" cy="13" r="13" transform="translate(966 591)" fill="#c2c5cb" opacity="0.5"/>
        </g>
        <g id="Group_3" data-name="Group 3" transform="translate(-3 78)">
          <rect id="Rectangle_9-3" data-name="Rectangle 9" width="99" height="3" rx="1.5" transform="translate(999 608)" fill="#9196a1" opacity="0.25"/>
          <rect id="Rectangle_10-3" data-name="Rectangle 10" width="41" height="3" rx="1.5" transform="translate(999 598)" fill="#c2c5cb"/>
          <circle id="Ellipse_2-3" data-name="Ellipse 2" cx="13" cy="13" r="13" transform="translate(966 591)" fill="#c2c5cb" opacity="0.4"/>
        </g>
      </g>
      <rect id="Rectangle_12" data-name="Rectangle 12" width="9" height="9" rx="3" transform="translate(1042 591)" fill="#ff8a00"/>
      <rect id="Rectangle_13" data-name="Rectangle 13" width="9" height="9" rx="3" transform="translate(1042 632)" fill="#2083db"/>
    </g>
    <g id="Dash">
      <path id="Rectangle_2" data-name="Rectangle 2" d="M2,0H180a2,2,0,0,1,2,2V178a0,0,0,0,1,0,0H0a0,0,0,0,1,0,0V2A2,2,0,0,1,2,0Z" transform="translate(951 398)" fill="#2c83e0"/>
      <rect id="Rectangle_3" data-name="Rectangle 3" width="78" height="17" rx="8.5" transform="translate(1003 428)" fill="#256fbf" opacity="0.609"/>
      <rect id="Rectangle_4" data-name="Rectangle 4" width="32" height="2" rx="1" transform="translate(975 557)" fill="#90c2ed" opacity="0.508"/>
      <rect id="Rectangle_5" data-name="Rectangle 5" width="32" height="2" rx="1" transform="translate(1026 557)" fill="#90c2ed" opacity="0.508"/>
      <rect id="Rectangle_7" data-name="Rectangle 7" width="32" height="2" rx="1" transform="translate(1026 508)" fill="#90c2ed" opacity="0.508"/>
      <rect id="Rectangle_6" data-name="Rectangle 6" width="32" height="2" rx="1" transform="translate(1077 557)" fill="#90c2ed" opacity="0.508"/>
      <path id="Path_289" data-name="Path 289" d="M17.227-6.5a6.718,6.718,0,0,1-.842,3.384A6.188,6.188,0,0,1,14-.769,8.093,8.093,0,0,1,10.43.22V4.263H9.214V.22A9.263,9.263,0,0,1,5.662-.659a7.224,7.224,0,0,1-2.688-2.2A7.567,7.567,0,0,1,1.582-6.24l2.842-.7A5.134,5.134,0,0,0,5.962-3.677,5.282,5.282,0,0,0,9.214-2.344v-8.7a32.333,32.333,0,0,1-3.34-1.45,6.3,6.3,0,0,1-2.109-1.8,4.756,4.756,0,0,1-.879-2.959,5.689,5.689,0,0,1,.842-3.105,5.817,5.817,0,0,1,2.278-2.08,7.533,7.533,0,0,1,3.208-.82V-27H10.43v3.75a7.565,7.565,0,0,1,3.384,1.106,7.421,7.421,0,0,1,2.476,2.673L13.916-18a4.774,4.774,0,0,0-3.486-2.651v7.266a31.871,31.871,0,0,1,3.552,1.509,6.582,6.582,0,0,1,2.285,2A5.575,5.575,0,0,1,17.227-6.5ZM5.757-17.373a2.638,2.638,0,0,0,.886,2.065,8.769,8.769,0,0,0,2.571,1.465v-6.87a4.1,4.1,0,0,0-1.772.5A3.251,3.251,0,0,0,6.2-19.028,3.164,3.164,0,0,0,5.757-17.373ZM10.43-2.358a4.955,4.955,0,0,0,2.117-.652A3.7,3.7,0,0,0,13.9-4.387,3.8,3.8,0,0,0,14.37-6.27a3.434,3.434,0,0,0-.513-1.9A4.438,4.438,0,0,0,12.5-9.507a13.335,13.335,0,0,0-2.073-1.055ZM31.465-23V0H28.594V-17.124h-5.64v-2.2h3.633a2.431,2.431,0,0,0,1.633-.439,1.864,1.864,0,0,0,.491-1.45V-23ZM42.334-3.457a2.311,2.311,0,0,1,2.058.886,3.767,3.767,0,0,1,.667,2.278,6.505,6.505,0,0,1-.4,2.153,6.124,6.124,0,0,1-1.252,2.08A4.99,4.99,0,0,1,41.25,5.332l-.645-1.465a4.363,4.363,0,0,0,1.9-1.5A3.555,3.555,0,0,0,43.154.322V.088a2.038,2.038,0,0,1-1,.249,1.887,1.887,0,0,1-1.326-.491,1.729,1.729,0,0,1-.535-1.34,1.862,1.862,0,0,1,.579-1.414A2.033,2.033,0,0,1,42.334-3.457ZM57.568-15.352a7.551,7.551,0,0,1,3.794.981A7.219,7.219,0,0,1,64.1-11.624,7.946,7.946,0,0,1,65.112-7.6a7.968,7.968,0,0,1-1.04,4.058A7.374,7.374,0,0,1,61.208-.732,8.3,8.3,0,0,1,57.114.278,8.464,8.464,0,0,1,53.4-.527a7.469,7.469,0,0,1-2.769-2.249,7.8,7.8,0,0,1-1.443-3.318l2.71-.718a5.389,5.389,0,0,0,.916,2.322,4.817,4.817,0,0,0,1.816,1.553,5.472,5.472,0,0,0,2.468.549,5.367,5.367,0,0,0,2.7-.681,4.91,4.91,0,0,0,1.882-1.882,5.367,5.367,0,0,0,.681-2.7A5.314,5.314,0,0,0,61.7-10.3a4.729,4.729,0,0,0-1.824-1.831,5.243,5.243,0,0,0-2.629-.659,5.423,5.423,0,0,0-2.739.7,5.229,5.229,0,0,0-1.963,1.978l-2.681-.82L51.855-23H64v2.637H54.1l-1.011,6.533a6.724,6.724,0,0,1,2.1-1.143A7.522,7.522,0,0,1,57.568-15.352Zm20.757,9.9H67.1V-7.207L78.633-23h2.549V-8.071h3.691v2.622H81.182V0H78.325Zm0-2.622V-18.442h-.176L70.825-8.174l.1.1ZM95.01.278A5.827,5.827,0,0,1,90.4-1.5a8.881,8.881,0,0,1-2.058-4.314,30.467,30.467,0,0,1-.483-5.684,32.035,32.035,0,0,1,.461-5.72,8.853,8.853,0,0,1,2.007-4.307,5.679,5.679,0,0,1,4.534-1.78,5.615,5.615,0,0,1,5.6,3.354A20.433,20.433,0,0,1,102-11.484,20.682,20.682,0,0,1,100.5-3.062,5.489,5.489,0,0,1,95.01.278Zm-.059-2.49a3.016,3.016,0,0,0,2.673-1.333,7.55,7.55,0,0,0,1.157-3.3,36.835,36.835,0,0,0,.256-4.687,35.615,35.615,0,0,0-.264-4.687A7.269,7.269,0,0,0,97.6-19.468a3.119,3.119,0,0,0-2.732-1.3,3.113,3.113,0,0,0-2.732,1.311,7.313,7.313,0,0,0-1.179,3.252,35.713,35.713,0,0,0-.264,4.709A34.831,34.831,0,0,0,90.959-6.8a7.338,7.338,0,0,0,1.2,3.274A3.19,3.19,0,0,0,94.951-2.212ZM108.589.337a1.884,1.884,0,0,1-.967-.256,1.886,1.886,0,0,1-.7-.7,1.9,1.9,0,0,1-.256-.959,1.818,1.818,0,0,1,.256-.945,1.92,1.92,0,0,1,.7-.688,1.884,1.884,0,0,1,.967-.256,1.818,1.818,0,0,1,.945.256,1.938,1.938,0,0,1,.688.688,1.818,1.818,0,0,1,.256.945,1.9,1.9,0,0,1-.256.959,1.9,1.9,0,0,1-.688.7A1.818,1.818,0,0,1,108.589.337Zm14.048-23.613a8.273,8.273,0,0,1,4.08,1.011,7.519,7.519,0,0,1,2.864,2.747,7.313,7.313,0,0,1,1.04,3.831,8.627,8.627,0,0,1-.359,2.439,9.806,9.806,0,0,1-.989,2.278L122.549,0h-3.267L124.1-7.91a6.536,6.536,0,0,1-1.436.161,8.2,8.2,0,0,1-4.058-1.011,7.381,7.381,0,0,1-2.849-2.791,7.779,7.779,0,0,1-1.033-3.977,7.728,7.728,0,0,1,1.033-3.977,7.374,7.374,0,0,1,2.842-2.769A8.178,8.178,0,0,1,122.637-23.276Zm.029,12.861a5.319,5.319,0,0,0,2.651-.667,4.91,4.91,0,0,0,1.868-1.831,5.082,5.082,0,0,0,.681-2.615,5.015,5.015,0,0,0-.681-2.593,4.926,4.926,0,0,0-1.868-1.824,5.319,5.319,0,0,0-2.651-.667,5.29,5.29,0,0,0-2.637.667,4.857,4.857,0,0,0-1.86,1.831,5.1,5.1,0,0,0-.674,2.6,5.1,5.1,0,0,0,.674,2.6,4.857,4.857,0,0,0,1.86,1.831A5.29,5.29,0,0,0,122.666-10.415Zm19.277-4.937a7.551,7.551,0,0,1,3.794.981,7.219,7.219,0,0,1,2.739,2.747A7.946,7.946,0,0,1,149.487-7.6a7.968,7.968,0,0,1-1.04,4.058,7.374,7.374,0,0,1-2.864,2.813A8.3,8.3,0,0,1,141.489.278a8.464,8.464,0,0,1-3.713-.806,7.469,7.469,0,0,1-2.769-2.249,7.8,7.8,0,0,1-1.443-3.318l2.71-.718a5.389,5.389,0,0,0,.916,2.322,4.817,4.817,0,0,0,1.816,1.553,5.472,5.472,0,0,0,2.468.549,5.367,5.367,0,0,0,2.7-.681,4.91,4.91,0,0,0,1.882-1.882,5.367,5.367,0,0,0,.681-2.7,5.314,5.314,0,0,0-.659-2.651,4.729,4.729,0,0,0-1.824-1.831,5.243,5.243,0,0,0-2.629-.659,5.423,5.423,0,0,0-2.739.7,5.229,5.229,0,0,0-1.963,1.978l-2.681-.82L136.23-23h12.144v2.637h-9.9l-1.011,6.533a6.724,6.724,0,0,1,2.1-1.143A7.522,7.522,0,0,1,141.943-15.352Z" transform="translate(967 492)" fill="#fff"/>
      <path id="Path_287" data-name="Path 287" d="M-3.508-12.266V0H-4.7V-9.359H-7.781v-.922H-5.7a1.174,1.174,0,0,0,.8-.219.925.925,0,0,0,.238-.711v-1.055ZM.781-1.086,4.656-4.273A12.723,12.723,0,0,0,6.273-5.789a4.938,4.938,0,0,0,.879-1.395,4.042,4.042,0,0,0,.277-1.5,3.033,3.033,0,0,0-.293-1.359,2.173,2.173,0,0,0-.863-.93A2.663,2.663,0,0,0,4.9-11.312a2.659,2.659,0,0,0-1.508.406,2.48,2.48,0,0,0-.914,1.121,4.353,4.353,0,0,0-.32,1.645L.992-8.211a4.806,4.806,0,0,1,.465-2.148A3.517,3.517,0,0,1,2.82-11.848a4.061,4.061,0,0,1,2.141-.543,3.89,3.89,0,0,1,1.961.473,3.16,3.16,0,0,1,1.262,1.3,4,4,0,0,1,.434,1.883A4.936,4.936,0,0,1,8.3-6.965a6.077,6.077,0,0,1-1,1.672,14.149,14.149,0,0,1-1.828,1.8L2.7-1.242v.156H9.25V0H.781Z" transform="translate(990 544)" fill="#fff"/>
      <path id="Path_286" data-name="Path 286" d="M-9.719-8.125a3.929,3.929,0,0,1,2,.52,3.8,3.8,0,0,1,1.43,1.449,4.2,4.2,0,0,1,.527,2.109,4.223,4.223,0,0,1-.547,2.141,3.952,3.952,0,0,1-1.5,1.5A4.269,4.269,0,0,1-9.961.133a4.334,4.334,0,0,1-1.922-.422,3.952,3.952,0,0,1-1.445-1.187A4.232,4.232,0,0,1-14.1-3.242l1.125-.3a3.3,3.3,0,0,0,.559,1.348,2.841,2.841,0,0,0,1.051.9,3.083,3.083,0,0,0,1.4.316,3.069,3.069,0,0,0,1.559-.4,2.9,2.9,0,0,0,1.1-1.109,3.15,3.15,0,0,0,.4-1.574,3.129,3.129,0,0,0-.379-1.543A2.73,2.73,0,0,0-8.34-6.672a2.97,2.97,0,0,0-1.5-.383,3.138,3.138,0,0,0-1.562.395,3.176,3.176,0,0,0-1.156,1.129l-1.164-.359,1.055-6.375h6.3v1.1h-5.375l-.641,4.086a3.761,3.761,0,0,1,1.234-.781A3.933,3.933,0,0,1-9.719-8.125ZM-4.2-1.086-.32-4.273A12.723,12.723,0,0,0,1.3-5.789a4.938,4.938,0,0,0,.879-1.395,4.042,4.042,0,0,0,.277-1.5,3.033,3.033,0,0,0-.293-1.359,2.173,2.173,0,0,0-.863-.93,2.663,2.663,0,0,0-1.375-.336,2.659,2.659,0,0,0-1.508.406A2.48,2.48,0,0,0-2.5-9.785a4.353,4.353,0,0,0-.32,1.645l-1.164-.07a4.806,4.806,0,0,1,.465-2.148,3.517,3.517,0,0,1,1.363-1.488,4.061,4.061,0,0,1,2.141-.543,3.89,3.89,0,0,1,1.961.473,3.16,3.16,0,0,1,1.262,1.3,4,4,0,0,1,.434,1.883,4.936,4.936,0,0,1-.316,1.77,6.077,6.077,0,0,1-1,1.672,14.149,14.149,0,0,1-1.828,1.8l-2.773,2.25v.156H4.273V0H-4.2ZM10,.133A2.94,2.94,0,0,1,7.641-.812a4.813,4.813,0,0,1-1.066-2.3A16.445,16.445,0,0,1,6.32-6.133,17.1,17.1,0,0,1,6.566-9.18a4.807,4.807,0,0,1,1.043-2.293,2.88,2.88,0,0,1,2.328-.941,2.878,2.878,0,0,1,2.891,1.789,11.283,11.283,0,0,1,.781,4.5,11.382,11.382,0,0,1-.766,4.477A2.826,2.826,0,0,1,10,.133ZM9.969-.906a1.786,1.786,0,0,0,1.563-.758,4.269,4.269,0,0,0,.691-1.871,18.538,18.538,0,0,0,.16-2.605,18.565,18.565,0,0,0-.16-2.621,4.118,4.118,0,0,0-.7-1.852,1.832,1.832,0,0,0-1.586-.746,1.832,1.832,0,0,0-1.586.746,4.122,4.122,0,0,0-.7,1.855,18.65,18.65,0,0,0-.16,2.625,18.084,18.084,0,0,0,.164,2.609A4.184,4.184,0,0,0,8.363-1.66,1.852,1.852,0,0,0,9.969-.906Z" transform="translate(1042 544)" fill="#fff"/>
      <circle id="Ellipse_1" data-name="Ellipse 1" cx="7.5" cy="7.5" r="7.5" transform="translate(1104 412)" fill="#fff"/>
      <path id="Path_288" data-name="Path 288" d="M-10.047.133a5.245,5.245,0,0,1-2.207-.445,3.523,3.523,0,0,1-1.527-1.3,3.673,3.673,0,0,1-.555-2.043l1.141-.062A2.673,2.673,0,0,0-12.8-2.254a2.548,2.548,0,0,0,1.113.953,3.91,3.91,0,0,0,1.656.332,3.913,3.913,0,0,0,1.6-.312,2.6,2.6,0,0,0,1.113-.9,2.366,2.366,0,0,0,.406-1.383A1.906,1.906,0,0,0-7.992-5.48a6.189,6.189,0,0,0-2.656-.48v-.992a4.282,4.282,0,0,0,2.262-.492A1.8,1.8,0,0,0-7.57-9.109a2.04,2.04,0,0,0-.324-1.148,2.143,2.143,0,0,0-.891-.762,2.955,2.955,0,0,0-1.285-.27A2.95,2.95,0,0,0-11.406-11a2.15,2.15,0,0,0-.9.816,2.323,2.323,0,0,0-.32,1.23l-1.133-.07a3.28,3.28,0,0,1,.48-1.781,3.193,3.193,0,0,1,1.316-1.18,4.167,4.167,0,0,1,1.875-.414A4.273,4.273,0,0,1-8.246-12a3.252,3.252,0,0,1,1.332,1.113,2.847,2.847,0,0,1,.492,1.648,2.389,2.389,0,0,1-.633,1.719,3.575,3.575,0,0,1-1.68.953v.063a4.219,4.219,0,0,1,2.148,1,2.632,2.632,0,0,1,.813,2.027,3.31,3.31,0,0,1-.562,1.926A3.594,3.594,0,0,1-7.871-.3,5.287,5.287,0,0,1-10.047.133ZM-4.2-1.086-.32-4.273A12.723,12.723,0,0,0,1.3-5.789a4.938,4.938,0,0,0,.879-1.395,4.042,4.042,0,0,0,.277-1.5,3.033,3.033,0,0,0-.293-1.359,2.173,2.173,0,0,0-.863-.93,2.663,2.663,0,0,0-1.375-.336,2.659,2.659,0,0,0-1.508.406A2.48,2.48,0,0,0-2.5-9.785a4.353,4.353,0,0,0-.32,1.645l-1.164-.07a4.806,4.806,0,0,1,.465-2.148,3.517,3.517,0,0,1,1.363-1.488,4.061,4.061,0,0,1,2.141-.543,3.89,3.89,0,0,1,1.961.473,3.16,3.16,0,0,1,1.262,1.3,4,4,0,0,1,.434,1.883,4.936,4.936,0,0,1-.316,1.77,6.077,6.077,0,0,1-1,1.672,14.149,14.149,0,0,1-1.828,1.8l-2.773,2.25v.156H4.273V0H-4.2ZM9.922-12.4a4.252,4.252,0,0,1,2.113.531,3.959,3.959,0,0,1,1.5,1.449,3.858,3.858,0,0,1,.547,2.012,4.376,4.376,0,0,1-.184,1.246A4.882,4.882,0,0,1,13.383-6L9.766,0H8.414l2.68-4.461a3.5,3.5,0,0,1-1.156.2,4.191,4.191,0,0,1-2.1-.535A3.94,3.94,0,0,1,6.348-6.266,4.029,4.029,0,0,1,5.8-8.336a4.052,4.052,0,0,1,.539-2.07,3.891,3.891,0,0,1,1.48-1.461A4.193,4.193,0,0,1,9.922-12.4Zm.016,7.023a2.993,2.993,0,0,0,1.512-.391,2.912,2.912,0,0,0,1.082-1.066,2.906,2.906,0,0,0,.4-1.5,2.913,2.913,0,0,0-.395-1.5A2.883,2.883,0,0,0,11.457-10.9a3.008,3.008,0,0,0-1.52-.391,2.993,2.993,0,0,0-1.512.391,2.9,2.9,0,0,0-1.082,1.07,2.912,2.912,0,0,0-.4,1.5,2.891,2.891,0,0,0,.4,1.5A2.912,2.912,0,0,0,8.426-5.766,2.993,2.993,0,0,0,9.938-5.375Z" transform="translate(1093 544)" fill="#fff"/>
    </g>
  </g>
</svg>
