<svg xmlns="http://www.w3.org/2000/svg" xmlns:xlink="http://www.w3.org/1999/xlink" width="500" height="300" viewBox="0 0 500 300">
  <defs>
    <clipPath id="clip-custom_1">
      <rect width="500" height="300"/>
    </clipPath>
  </defs>
  <g id="custom_1" data-name="custom – 1" clip-path="url(#clip-custom_1)">
    <g id="그룹_1" data-name="그룹 1" transform="translate(-164.024 -177)">
      <path id="_" data-name="#" d="M274,248H224v-1h-4V208h5v7.684L243,228h12l19-13v-7h4v40Z" fill="#d3e7f9"/>
      <path id="_2" data-name="#" d="M274.9,249h-50.83a5.089,5.089,0,0,1-5.083-5.083V211.071a5.01,5.01,0,0,1,4.989-5.083H225v-15.92A4.067,4.067,0,0,1,229.063,186h35.675a1.126,1.126,0,0,1,.72.3l8.258,8.133a1.1,1.1,0,0,1,.3.686v10.868h.892a5.089,5.089,0,0,1,5.083,5.083v32.844A5.089,5.089,0,0,1,274.9,249Zm-2.369-2.033L255.151,229.01H243.827l-17.384,17.955ZM225,208.021H223.98a2.985,2.985,0,0,0-2.946,2.546l3.962,2.8Zm-4,4.995v30.9a3.078,3.078,0,0,0,2.674,3.022l18.17-18.786ZM266,189.473v3.52a1.017,1.017,0,0,0,1.017,1.017h3.4Zm6.006,6.508-4.958.031a3.023,3.023,0,0,1-3.05-3.019V188H229.032A2.033,2.033,0,0,0,227,190.037v24.742l16.71,12.2H255.27l16.741-12.229Zm2.894,12.01h-.892v5.375l3.931-2.8A3.11,3.11,0,0,0,274.9,207.99Zm3.081,5.026-20.844,15.135,18.17,18.786a3.078,3.078,0,0,0,2.674-3.022ZM240,220a1,1,0,0,1,1-1h17a1,1,0,0,1,0,2H241A1,1,0,0,1,240,220Zm-6-6a1,1,0,0,1,1-1h29a1,1,0,0,1,0,2H235A1,1,0,0,1,234,214Zm12-7a1,1,0,0,1,1-1h20a1,1,0,0,1,0,2H247A1,1,0,0,1,246,207Zm13-5H247a1,1,0,0,1,0-2h12a1,1,0,0,1,0,2Zm0-6H247a1,1,0,0,1,0-2h12a1,1,0,0,1,0,2Zm-18.235,7.973H238V207.5a1.5,1.5,0,1,1-3,0v-3.527h-2.776A1.2,1.2,0,0,1,231,202.781v-5.37a5.5,5.5,0,0,1,10.994,0v5.336A1.227,1.227,0,0,1,240.765,203.973Z" fill="#5a9ad4"/>
      <path id="_3" data-name="#" d="M328.068,197.718a.673.673,0,0,1-.951-.032l-5.236-5.593-1.348,7.412a.673.673,0,0,1-1.133.36l-6.592-6.447a.673.673,0,1,1,.942-.961l5.686,5.561,1.361-7.481a.673.673,0,0,1,1.154-.339l6.151,6.57A.671.671,0,0,1,328.068,197.718Zm-11.79-10.277-5.236-5.593-1.348,7.412a.673.673,0,0,1-1.133.36l-6.592-6.447a.672.672,0,1,1,.941-.961l5.686,5.561,1.361-7.481a.673.673,0,0,1,1.154-.339l6.151,6.57a.673.673,0,1,1-.983.918Zm-12.751,2.572a.674.674,0,0,1,.682.186l6.151,6.57a.673.673,0,0,1-.983.918l-5.236-5.593-1.348,7.412a.673.673,0,0,1-1.133.36l-6.592-6.447a.673.673,0,1,1,.942-.961l5.686,5.561,1.361-7.481A.673.673,0,0,1,303.527,190.013ZM296,212.5a1.5,1.5,0,1,1-1.5-1.5A1.5,1.5,0,0,1,296,212.5ZM285.5,195a1.5,1.5,0,1,1,1.5-1.5A1.5,1.5,0,0,1,285.5,195Zm-66-15a1.5,1.5,0,1,1,1.5-1.5A1.5,1.5,0,0,1,219.5,180Zm-12,26a1.5,1.5,0,1,1,1.5-1.5A1.5,1.5,0,0,1,207.5,206Zm-9.379-14.552a3.749,3.749,0,0,1,0-5.3,3.168,3.168,0,0,1,4.481,0,2.711,2.711,0,0,1,0,3.83.865.865,0,1,1-1.224-1.224.978.978,0,0,0,0-1.382,1.438,1.438,0,0,0-2.034,0,2.016,2.016,0,0,0,0,2.848,2.737,2.737,0,0,0,3.866,0,3.637,3.637,0,0,0,0-5.139,4.763,4.763,0,0,0-6.729,0,6.171,6.171,0,0,0,0,8.717.865.865,0,0,1-1.224,1.224,7.9,7.9,0,0,1,0-11.165,6.5,6.5,0,0,1,9.176,0,5.37,5.37,0,0,1,0,7.586A4.469,4.469,0,0,1,198.121,191.448Zm1.4,31.63a1.01,1.01,0,0,1-1.424.1l-13.992-12.1a1.009,1.009,0,1,1,1.322-1.525l13.992,12.1A1.007,1.007,0,0,1,199.525,223.078Zm-1,11.058a1.01,1.01,0,0,1-1.426.064l-21.738-19.836a1.009,1.009,0,1,1,1.362-1.489l21.738,19.836A1.007,1.007,0,0,1,198.521,234.136Zm-2.142,8.545a1.011,1.011,0,0,1-1.427.048l-28.9-26.99a1.009,1.009,0,1,1,1.379-1.473l28.9,26.99A1.007,1.007,0,0,1,196.38,242.68Zm-29.934-19.544,21.739,19.836a1.009,1.009,0,0,1-1.362,1.489l-21.739-19.836a1.009,1.009,0,1,1,1.362-1.489Zm-.751,9.9,13.992,12.1a1.009,1.009,0,0,1-1.322,1.525l-13.992-12.1a1.009,1.009,0,1,1,1.321-1.525ZM296.62,222.378l5.563-.932,2.381-5.084a.831.831,0,0,1,1.472-.033l2.611,4.971,5.6.68a.822.822,0,0,1,.487,1.382l-3.949,4,1.08,5.5a.813.813,0,0,1-.309.805.824.824,0,0,1-.863.082l-5.051-2.5-4.932,2.722a.828.828,0,0,1-1.211-.834l.827-5.547L296.2,223.78A.822.822,0,0,1,296.62,222.378Zm5.14,4.322a.814.814,0,0,1,.253.717l-.647,4.336,3.855-2.127a.825.825,0,0,1,.764-.017l3.948,1.951-.844-4.3a.814.814,0,0,1,.22-.728l3.086-3.13-4.376-.531a.821.821,0,0,1-.628-.432l-2.041-3.886-1.861,3.973a.82.82,0,0,1-.608.46l-4.348.729Z" fill="#71a4d9"/>
    </g>
    <g id="Phone" transform="translate(-51.073 -1529)">
      <path id="_4" data-name="#" d="M399.4,1638.21a1.084,1.084,0,0,1-.873-1.26l1.705-9.375a1.085,1.085,0,0,1,1.859-.546l6.608,7.059a1.084,1.084,0,0,1-1.585,1.479l-5.134-5.484-1.319,7.255a1.084,1.084,0,0,1-1.066.89A1.194,1.194,0,0,1,399.4,1638.21Zm-155.509-4.727-7.187-5.212a1.121,1.121,0,0,1,.324-1.976l8.594-2.687a1.12,1.12,0,1,1,.671,2.138l-6.465,2.021,5.381,3.9a1.121,1.121,0,0,1-1.318,1.813Zm30.47-8.824-13.991-12.1a1.009,1.009,0,1,1,1.321-1.525l13.992,12.1a1.009,1.009,0,0,1-1.322,1.525Zm8.457-2.2-21.739-19.836a1.009,1.009,0,1,1,1.362-1.489l21.739,19.836a1.009,1.009,0,0,1-1.362,1.489Zm158.638-3a2.91,2.91,0,1,1,2.91,2.92A2.915,2.915,0,0,1,441.46,1619.46Zm-150.507,1.268-28.9-26.989a1.009,1.009,0,1,1,1.38-1.473l28.9,26.989a1.009,1.009,0,0,1-1.379,1.473Zm2.142-8.528-21.738-19.835a1.009,1.009,0,1,1,1.362-1.489l21.738,19.835a1.009,1.009,0,0,1-1.362,1.489Zm1.005-11.02-13.991-12.1a1.009,1.009,0,1,1,1.321-1.525l13.992,12.1a1.009,1.009,0,0,1-1.322,1.525Zm113.116-14.954,9.355-9.345,9.356,9.345-9.356,9.345Zm-135.567-21.8a2.71,2.71,0,1,1,2.71,2.721A2.715,2.715,0,0,1,271.65,1564.43Zm152.75-3.564-6.592-6.448a.672.672,0,1,1,.941-.96l5.686,5.561,1.361-7.482a.673.673,0,0,1,1.154-.338l6.151,6.57a.673.673,0,0,1-.984.918l-5.236-5.594-1.347,7.411a.676.676,0,0,1-.458.521.7.7,0,0,1-.2.031A.675.675,0,0,1,424.4,1560.865Zm-17.741,0-6.592-6.448a.673.673,0,1,1,.942-.96l5.685,5.561,1.361-7.482a.673.673,0,0,1,1.154-.338l6.152,6.57a.673.673,0,0,1-.984.918l-5.236-5.594-1.348,7.411a.672.672,0,0,1-.458.521.693.693,0,0,1-.2.031A.677.677,0,0,1,406.659,1560.865ZM288.131,1553.4a1.008,1.008,0,0,1-.573-1.306l2.543-6.511-6.629,1.813a1.008,1.008,0,1,1-.534-1.945l8.565-2.344a1.009,1.009,0,0,1,1.208,1.338l-3.272,8.38a1.009,1.009,0,0,1-1.308.573Zm125.429-2.777-6.592-6.447a.673.673,0,1,1,.941-.961l5.686,5.561,1.361-7.482a.673.673,0,0,1,1.154-.338l6.151,6.57a.672.672,0,1,1-.983.918l-5.236-5.594-1.348,7.412a.673.673,0,0,1-.458.52.693.693,0,0,1-.2.031A.673.673,0,0,1,413.561,1550.62Z" fill="#71a4d9"/>
      <path id="_5" data-name="#" d="M446.639,1581.194l-5.936-3.029,5.594-3.62,5.594-3.62.342,6.648.342,6.648Zm-195.794-15.349-9.18-2.055,6.372-6.913,6.371-6.913,2.808,8.967,2.809,8.968Z" fill="#b3dcfb"/>
      <path id="_6" data-name="#" d="M419.655,1618.042l-12.162-4.995a2.906,2.906,0,1,1,2.212-5.374l12.162,4.995a2.906,2.906,0,0,1-2.212,5.374Zm-186.9-11.3a3.359,3.359,0,0,1-1.229-4.592l7.614-13.154a3.364,3.364,0,0,1,5.827,3.364l-7.614,13.153a3.367,3.367,0,0,1-4.6,1.229Zm212.365.255a1.21,1.21,0,0,1-.957-1.42l1.544-7.889a1.212,1.212,0,0,1,2.037-.632l4.3,4.208,1.021-5.612a1.212,1.212,0,0,1,2.077-.61l5.537,5.914a1.211,1.211,0,0,1-1.77,1.653l-3.891-4.156-1,5.488a1.211,1.211,0,0,1-2.039.648l-4.329-4.234-1.112,5.686a1.213,1.213,0,0,1-1.422.956Z" fill="#d9ebff"/>
      <rect id="_7" data-name="#" width="60" height="108" rx="8" transform="translate(317 1531)" fill="#d3e7f9"/>
      <path id="_8" data-name="#" d="M325,1641a10.011,10.011,0,0,1-10-10v-92a10.011,10.011,0,0,1,10-10h44a10.011,10.011,0,0,1,10,10v92a10.011,10.011,0,0,1-10,10Zm-7-102v92a7.008,7.008,0,0,0,7,7h44a7.008,7.008,0,0,0,7-7v-92a7.008,7.008,0,0,0-7-7H355.667l-.667,2a1,1,0,0,1-1,1H340a1,1,0,0,1-1-1l-.667-2H325A7.008,7.008,0,0,0,318,1539Z" fill="#5a9ad4"/>
      <rect id="_9" data-name="#" width="29" height="29" rx="5" transform="translate(333 1571)" fill="#2581e3" opacity="0.8"/>
      <path id="_10" data-name="#" d="M355.5,1634h-16a1.5,1.5,0,0,1,0-3h16a1.5,1.5,0,0,1,0,3Zm-3.735-45.027H349v3.527a1.5,1.5,0,1,1-3,0v-3.527h-2.776a1.2,1.2,0,0,1-1.227-1.192v-5.37a5.5,5.5,0,0,1,10.994,0v5.336A1.227,1.227,0,0,1,351.765,1588.973Z" fill="#fff"/>
    </g>
    <g id="Graphic" transform="translate(-285 -1190)">
      <circle id="_11" data-name="#" cx="35" cy="35" r="35" transform="translate(285 1270)" fill="#fff"/>
      <path id="_12" data-name="#" d="M320,1272a33,33,0,1,1-33,33A33,33,0,0,1,320,1272Zm9.321,42.006H323v7.866a3,3,0,0,1-6,0v-7.866h-6.328a2.616,2.616,0,0,1-2.679-2.6v-12.477a12,12,0,0,1,24.007,0v12.4A2.679,2.679,0,0,1,329.325,1314.006Z" fill="#2581e3"/>
      <path id="_13" data-name="#" d="M404.581,1292.62l-24.76.1a13.327,13.327,0,0,1,5.8,19.034,11.344,11.344,0,0,1-3.513,4.067l-12.214,21.87a29.383,29.383,0,0,0,4.123.275,33.007,33.007,0,0,0,32.98-32.98A32.522,32.522,0,0,0,404.581,1292.62Z" fill="#ffc106"/>
      <path id="_14" data-name="#" d="M373.972,1318.371a13.341,13.341,0,0,1-6.824-1.472,13.792,13.792,0,0,1-5.038-5.04,13.319,13.319,0,0,1-1.7-5.769l-12.472-21.275a33.061,33.061,0,0,0,22.137,53.032h.027l12.009-21.46C379.822,1317.987,376.858,1318.374,373.972,1318.371Z" fill="#4bae50"/>
      <path id="_15" data-name="#" d="M367.14,1293.087a13.743,13.743,0,0,1,6.879-1.841,14.39,14.39,0,0,1,6.1,1.718h24.555a34.218,34.218,0,0,0-10.5-14.079c-14.4-11.13-35.011-8.569-46.547,6.4l12.369,21.224A14.735,14.735,0,0,1,367.14,1293.087Z" fill="#f44336"/>
      <path id="_16" data-name="#" d="M380,1294.645a11.942,11.942,0,0,0-5.947-1.6h0a11.942,11.942,0,1,0,5.95,1.6Z" fill="#2095f3"/>
      <path id="_17" data-name="#" d="M374,1319a14,14,0,1,1,14-14A14,14,0,0,1,374,1319Zm0-25a11,11,0,1,0,11,11A11,11,0,0,0,374,1294Z" fill="#f9f9f9"/>
      <circle id="_18" data-name="#" cx="35" cy="35" r="35" transform="translate(285 1270)" fill="#fff"/>
      <path id="_19" data-name="#" d="M348.2,780.161h0c-.376.617-.779,1.216-1.194,1.806h0a33,33,0,1,1,0-37.937h0c.415.59.817,1.189,1.194,1.806h0a33.027,33.027,0,0,1,0,34.322ZM332,756.921a12,12,0,0,0-24.007,0V769.4a2.616,2.616,0,0,0,2.679,2.6H317v7.866a3,3,0,0,0,6,0V772h6.321A2.679,2.679,0,0,0,332,769.323Z" transform="translate(0 542)" fill="#2581e3"/>
    </g>
    <g id="Graphic-2" data-name="Graphic" transform="translate(-286.996 -574.997)">
      <path id="_20" data-name="#" d="M374.412,748.413c2.944,0,5.161,1.731,5.161,4.029l-.028,2.55c0,1.959-2.936,4.569-5.132,4.569h-.76c-2.215,0-5.177-2.562-5.177-4.51l-.028-2.664c0-2.278,2.237-3.974,5.205-3.974h.76m.924,16.128c3.883,0,10.732,2.837,10.732,8.661v.856a1.553,1.553,0,0,1-1.608,1.442H363.87a1.88,1.88,0,0,1-1.939-1.758v-.54c0-5.824,6.8-8.661,10.654-8.661h2.752" fill="#d3e7f9"/>
      <path id="_21" data-name="#" d="M374.361,760.951h-.667c-3.011,0-6.616-3.162-6.616-6.011l-.025-2.356c0-3.152,2.96-5.562,6.641-5.562h.667c3.681,0,6.6,2.48,6.6,5.632l-.025,2.213C380.939,757.716,377.356,760.951,374.361,760.951Zm4.524-8.319c0-2.014-1.944-3.532-4.524-3.532h-.667c-2.6,0-4.563,1.487-4.563,3.484l.025,2.335c0,1.708,2.6,3.954,4.538,3.954h.667c1.925,0,4.5-2.288,4.5-4.005ZM387,772.9v.775a3.393,3.393,0,0,1-3.455,3.305H364.756A3.686,3.686,0,0,1,361,773.387V772.9c0-6.551,7.242-9.915,11.718-9.915h2.49C379.685,762.984,387,766.347,387,772.9Zm-11.789-7.837h-2.49c-3.488,0-9.64,2.567-9.64,7.837v.489a1.7,1.7,0,0,0,1.754,1.591h18.632a1.4,1.4,0,0,0,1.455-1.305V772.9C384.921,767.628,378.723,765.062,375.21,765.062ZM374,796a32.933,32.933,0,0,1-25.749-12.369c.415-.567.811-1.149,1.192-1.741a31,31,0,1,0,0-37.787c-.382-.592-.777-1.174-1.192-1.741A33,33,0,1,1,374,796Zm-25.8-15.843h0c-.376.617-.779,1.216-1.194,1.806h0a33,33,0,1,1,0-37.937h0c.415.59.817,1.189,1.194,1.806h0a33.027,33.027,0,0,1,0,34.322ZM332,756.921a12,12,0,0,0-24.007,0V769.4a2.616,2.616,0,0,0,2.679,2.6H317v7.866a3,3,0,0,0,6,0V772h6.321A2.679,2.679,0,0,0,332,769.323Z" fill="#2581e3"/>
    </g>
    <g id="_22" data-name="#" transform="translate(-261.996 -247.996)">
      <path id="_23" data-name="#" d="M403,544a32.933,32.933,0,0,1-25.749-12.369,34.9,34.9,0,0,0,0-41.269A33,33,0,1,1,403,544Zm-54,0a32.933,32.933,0,0,1-25.749-12.369,34.9,34.9,0,0,0,0-41.269A33,33,0,1,1,349,544Zm-54,0a33,33,0,1,1,33-33A33,33,0,0,1,295,544Z" fill="#eaf1f8"/>
      <path id="_24" data-name="#" d="M393,521V502h23v19ZM293,505h9v18h-9Z" fill="#fff"/>
      <path id="_25" data-name="#" d="M415.815,501.983h-.681L404.5,510.077l-10.634-8.095h-.682A1.178,1.178,0,0,0,392,503.161V519.81a1.178,1.178,0,0,0,1.178,1.178h1.83V506.783l9.487,7.139,9.487-7.139v14.205h1.829a1.179,1.179,0,0,0,1.179-1.178V503.161A1.179,1.179,0,0,0,415.815,501.983Z" fill="#2581e3"/>
      <path id="_26" data-name="#" d="M304.75,499h-19.5a2.251,2.251,0,0,0-2.25,2.251v19.5A2.251,2.251,0,0,0,285.25,523h10.761v-8.969h-3v-3.074h3V509c0-2.89,1.482-4.042,4.06-4.042,1.43,0,1.95.021,1.94.011v3.053h-1.358c-1.4,0-1.661.62-1.661,1.6v1.341h3l-.435,3.074h-2.569V523h5.757A2.251,2.251,0,0,0,307,520.75v-19.5A2.251,2.251,0,0,0,304.75,499Z" fill="#2581e3"/>
      <path id="_27" data-name="#" d="M363.631,504.41a9.151,9.151,0,0,1-2.806.678,5.176,5.176,0,0,0,2.25-2.858,10.194,10.194,0,0,1-3.25,1.253,5.169,5.169,0,0,0-8.811,3.5c0,.4.016.415.012.816a13.55,13.55,0,0,1-10.285-5,5.2,5.2,0,0,0,1.584,6.9,5.068,5.068,0,0,1-2.318-.646c0,.021,0,.043,0,.065a4.832,4.832,0,0,0,3.918,4.913,5.082,5.082,0,0,1-2.312.088,4.991,4.991,0,0,0,4.781,3.434,10.113,10.113,0,0,1-7.578,2.185,14.356,14.356,0,0,0,7.846,2.276c9.414,0,14.339-7.488,14.339-14.316,0-.224,0-.524-.015-.746A10.277,10.277,0,0,0,363.631,504.41Z" fill="#2581e3"/>
    </g>
    <g id="Graphic-3" data-name="Graphic" transform="translate(-49.314 -52.314)">
      <path id="_28" data-name="#" d="M264.588,213.684l3.562.119a.288.288,0,0,0,.2-.073h0a2.2,2.2,0,0,1,2.4-.347l.841.4a.288.288,0,0,0,.123.027h5.127a.288.288,0,0,0,.236-.124l.928-1.34a.288.288,0,0,0-.066-.4l-1.578-1.158a.288.288,0,0,1-.111-.292l.3-1.415a.288.288,0,0,1,.281-.227h1.624a.288.288,0,0,1,.28.222l.458,1.947a.288.288,0,0,0,.036.086l1.047,1.676a.288.288,0,0,0,.479.012l.3-.422a.288.288,0,0,1,.516.1l.367,1.54a.288.288,0,0,0,.5.113l1.089-1.361a.288.288,0,0,0,.041-.29l-.343-.823a.288.288,0,0,1,.357-.383l2.383.794a.288.288,0,0,1,.076.507l-.245.175a.288.288,0,0,0-.085.372l.553,1.013a.288.288,0,0,1-.057.348l-1.513,1.405a.287.287,0,0,0-.07.321l.491,1.179a.288.288,0,0,1-.086.335l-.97.776a.288.288,0,0,1-.339.015l-.847-.565a.287.287,0,0,1-.125-.28l.086-.6a.288.288,0,0,0-.509-.22l-.353.441a.285.285,0,0,1-.074.065l-1.4.864a.288.288,0,0,0-.093.4l.194.31a.288.288,0,0,1-.268.439l-.87-.072a.288.288,0,0,0-.213.07L277.377,221a.287.287,0,0,0-.094.266l.286,1.622a.288.288,0,0,0,.443.189h0a.288.288,0,0,1,.447.221l.078,1.251a.288.288,0,0,0,.35.263l.77-.171a.286.286,0,0,1,.148.006l5.232,1.619a.287.287,0,0,1,.2.225l.34,1.924a.29.29,0,0,0,.119.187l1.6,1.13a.291.291,0,0,0,.457-.265l-.2-2.106,1.768-1.532a.288.288,0,0,0,.055-.371l-1.309-2.072a.288.288,0,0,1,.04-.357l.713-.713a.288.288,0,0,0,.036-.363l-1.221-1.832a.287.287,0,0,1,.152-.433l2.78-.89a.287.287,0,0,1,.22.018l3.47,1.8a.288.288,0,0,1,.147.325l-.3,1.219a.287.287,0,0,0,.04.229l.578.868a.288.288,0,0,0,.353.1l1.493-.64a.287.287,0,0,0,.155-.161l.362-.942a.288.288,0,0,1,.53-.016l1.755,3.838a.289.289,0,0,0,.146.144l1.984.868,2.988,2.17a.291.291,0,0,1,.008.465l-1.718,1.336a.29.29,0,0,1-.094.049l-2.549.776a.292.292,0,0,0-.074.035l-2.408,1.57a.291.291,0,0,0-.113.348l.4,1.05a.291.291,0,0,0,.321.182l2.064-.359a.291.291,0,0,1,.341.286v.69a.291.291,0,0,1-.22.282l-2,.5a.29.29,0,0,0-.128.07l-1.45,1.359a.291.291,0,0,1-.475-.12l-.161-.483a.291.291,0,0,1,.02-.23l.4-.736a.291.291,0,0,0-.348-.414l-2.268.756a.29.29,0,0,0-.182.179l-.6,1.691a.291.291,0,0,1-.169.174l-1.8.7a.29.29,0,0,0-.178.206l-.855,3.739a.291.291,0,0,1-.144.19l-3.258,1.787a.291.291,0,0,0-.146.309l.744,3.932a.29.29,0,0,1-.035.2l-.462.793a.291.291,0,0,1-.517-.028l-1.081-2.432a.29.29,0,0,0-.226-.17l-4.268-.582a.291.291,0,0,0-.285.444h0a.291.291,0,0,1-.347.428l-1.781-.668a.291.291,0,0,0-.289.049l-3.274,2.746a.291.291,0,0,0-.087.319l1.486,4.246a.291.291,0,0,0,.215.189l2.417.5a.291.291,0,0,0,.288-.1l1.085-1.381a.291.291,0,0,1,.172-.105l1.807-.361a.291.291,0,0,1,.346.312l-.28,2.99a.291.291,0,0,0,.267.317l2.367.182a.291.291,0,0,1,.264.343l-.515,2.778.918,1.495,3.29.194a1.286,1.286,0,0,0,1.025-.417l.778-.853a1.286,1.286,0,0,1,.95-.419h1.78a1.286,1.286,0,0,1,.713.216l.444.3a1.286,1.286,0,0,0,1.066.166l1.894-.541a1.286,1.286,0,0,1,.928.086l7.134,3.567a1.286,1.286,0,0,1,.6.635l1.041,2.379a1.286,1.286,0,0,0,.838.724l9.2,2.525a1.286,1.286,0,0,1,.945,1.24v2.157a1.286,1.286,0,0,1-.525,1.037l-2.207,1.618a1.285,1.285,0,0,0-.509.832l-.843,5.225a1.286,1.286,0,0,1-.878,1.02l-3.969,1.27a1.286,1.286,0,0,0-.777.69l-2.816,6.161a1.286,1.286,0,0,1-1.071.747l-.793.061a1.286,1.286,0,0,0-1.187,1.282h0a1.286,1.286,0,0,1-.593,1.083l-4.3,2.753a1.286,1.286,0,0,0-.516.646l-2.44,6.756a1.286,1.286,0,0,0-.016.827l.589,1.852a1.286,1.286,0,0,1-1.612,1.616l-.9-.284a1.286,1.286,0,0,1-.877-.991l-1.5-8.079a1.284,1.284,0,0,1-.007-.427l1.651-10.941,1.132-7.17a1.286,1.286,0,0,0-.575-1.282l-1.994-1.282a1.286,1.286,0,0,1-.4-.41l-3.678-6a1.286,1.286,0,0,1-.187-.592l-.147-2.347a1.286,1.286,0,0,1,.523-1.117l2.065-1.514a1.286,1.286,0,0,0,.525-1.037v-1.22a1.286,1.286,0,0,0-1.286-1.286h-1.147a1.285,1.285,0,0,1-.575-.136l-2.675-1.338L282.26,259.1h-2.526l-2.064-1.652a.291.291,0,0,0-.09-.049l-6.8-2.265a.29.29,0,0,1-.156-.124l-3.8-6.238a.291.291,0,0,0-.523.246l.436,1.262a.291.291,0,0,1-.5.273l-3.968-5.134-4.841-6.525,1.052-6.735-6.1-3.578-3.578-5.051-6.118-2.039a.632.632,0,0,0-.394,0l-6.233,2.011a.632.632,0,0,1-.194.031h-2.028a.632.632,0,0,1-.345-.1L229.6,220.9a.632.632,0,0,1-.005-1.055l2.7-1.8a.632.632,0,0,0-.079-1.1l-.89-.424a.632.632,0,0,1,.272-1.2h0a.632.632,0,0,0,.283-1.2l-1.681-.84a.632.632,0,0,1,.093-1.168l3.794-1.193a9.069,9.069,0,0,1,4.232-.29l8.969,1.518a8.435,8.435,0,0,0,4.923-.649h0a8.437,8.437,0,0,1,5.561-.515l6.21,1.553a.287.287,0,0,1,.213.228l.123.68A.287.287,0,0,0,264.588,213.684Zm17.178-6.55-.143.409a1.321,1.321,0,0,0,.874,1.7l5.071,1.492a1.321,1.321,0,0,1,.438.225l1.676,1.3a1.321,1.321,0,0,1,.508.963l.181,2.993a1.321,1.321,0,0,0,.661,1.066l4.2,2.411a1.321,1.321,0,0,0,1.881-.646l.507-1.238a1.32,1.32,0,0,1,.266-.411l1.026-1.078a1.321,1.321,0,0,0-.517-2.157l-1.624-.573a1.321,1.321,0,0,1-.882-1.246h0a1.321,1.321,0,0,0-.656-1.141l-3.84-2.24a1.321,1.321,0,0,1-.341-.286l-1.673-1.968a1.321,1.321,0,0,0-1.007-.466h-5.357A1.321,1.321,0,0,0,281.766,207.134Zm-3.042-.885h-.857a.742.742,0,0,0-.742.742v.339a.742.742,0,0,0,.742.742h.554a.742.742,0,0,0,.554-.248l.3-.339A.742.742,0,0,0,278.724,206.25Zm-3.423,3.039.761-.888a.742.742,0,0,0,.135-.733l-.28-.785a.742.742,0,0,0-.879-.471l-1.724.431a.742.742,0,0,0-.345,1.245l1.242,1.242A.742.742,0,0,0,275.3,209.289ZM265.17,207.1l-6.2-1.407a1.31,1.31,0,0,0-1.462.691l-.379.759a1.31,1.31,0,0,0,.333,1.592l.256.213a1.31,1.31,0,0,0,1.156.264l.95-.238a1.31,1.31,0,0,1,.934.115l1.352.721a1.314,1.314,0,0,1,.287.207l2.07,1.971a1.309,1.309,0,0,0,1.252.314l2.688-.742a1.31,1.31,0,0,1,.747.015l2.318.742a1.31,1.31,0,0,0,1.078-.127h0a1.31,1.31,0,0,0,.118-2.16l-1.176-.9a1.309,1.309,0,0,1-.474-.722l-.243-.973a1.31,1.31,0,0,0-1.5-.971l-3.58.647A1.306,1.306,0,0,1,265.17,207.1Zm-5.3-3.779,4.818,2.065a.633.633,0,0,0,.382.037l3.429-.735a.633.633,0,0,0,.012-1.235l-3.014-.707a.633.633,0,0,1-.136-.049l-2.837-1.4a.633.633,0,0,0-.523-.018l-2.124.879A.633.633,0,0,0,259.874,203.324Zm5.1-2.182.153.182a.743.743,0,0,0,.767.237l1.57-.437a.742.742,0,0,0,.543-.715v-.22a.742.742,0,0,0-.94-.716l-1.723.475A.742.742,0,0,0,264.97,201.142Zm7.463,1.8,1.589,1.695a.742.742,0,0,0,.418.224l2.26.383a.743.743,0,0,0,.807-1.022l-.19-.449a.742.742,0,0,0-.683-.452H276a.742.742,0,0,1-.648-.38l-.487-.869a.742.742,0,0,0-.648-.38h-1.239A.742.742,0,0,0,272.433,202.939Zm7.233,2.529h7.875a.268.268,0,0,0,.268-.268V203.82a.268.268,0,0,0-.24-.266l-2.182-.23a.265.265,0,0,0-.106.01l-3.267,1a.268.268,0,0,1-.307-.117l-.393-.649a.268.268,0,0,1,.109-.378l1.1-.551a.268.268,0,0,1,.152-.026l5.614.671a.268.268,0,0,0,.3-.266v-1.208a.267.267,0,0,1,.088-.2l2.133-1.93a.268.268,0,0,0-.18-.466h0a.268.268,0,0,1-.1-.516l1.953-.781.028-.013,3.362-1.81.025-.012,3.637-1.5a.268.268,0,0,0-.043-.509l-7.722-1.755a.267.267,0,0,0-.11,0l-11.643,2.229a.268.268,0,0,0-.123.467l1.2,1.017a.268.268,0,0,0,.149.062l4.3.379a.269.269,0,0,0,.1-.009l.886-.248a.268.268,0,0,1,.2.493l-1.211.652a.269.269,0,0,1-.111.032l-2.1.124a.267.267,0,0,1-.1-.014l-3.691-1.273a.263.263,0,0,1-.07-.037l-1.279-.93a.268.268,0,0,0-.262-.03l-2.892,1.224a.268.268,0,0,0-.09.431l2.167,2.281a.267.267,0,0,0,.1.066l3.093,1.175a.269.269,0,0,0,.211-.009l2.177-1.045a.268.268,0,0,1,.331.4l-1.011,1.361a.269.269,0,0,1-.09.077l-2.31,1.216a.268.268,0,0,1-.228.01l-2.64-1.1a.268.268,0,0,0-.371.247v.821a.268.268,0,0,0,.205.26l2.057.492a.268.268,0,0,1,.193.18l.613,1.957A.268.268,0,0,0,279.667,205.468Zm-9.073-5.22h0a.742.742,0,0,0,.433.251l2.044.377a.742.742,0,0,0,.778-1.1l-.129-.224a.742.742,0,0,0-.585-.37l-1.915-.153A.742.742,0,0,0,270.594,200.248Zm4.652-.357.029.079a.743.743,0,0,0,.7.482h.059a.742.742,0,0,0,.6-1.186l-.059-.079a.742.742,0,0,0-.6-.3h-.03A.742.742,0,0,0,275.246,199.891Zm20,3.451,4.672.218a1.049,1.049,0,0,1,.68.294l5.056,4.888a1.05,1.05,0,0,1,.307.591l1.583,10.056a1.048,1.048,0,0,0,.25.531l1.4,1.589a1.049,1.049,0,0,0,1.736-.247l1.874-3.983a1.049,1.049,0,0,1,.949-.6h1.884a1.05,1.05,0,0,0,.778-.345l2.082-2.3a1.049,1.049,0,0,1,.427-.284l4.874-1.73a1.049,1.049,0,0,0,.568-.481l3.136-5.674a1.05,1.05,0,0,0,.081-.828l-1.469-4.574a1.049,1.049,0,0,1,.459-1.221l4.3-2.579a1.049,1.049,0,0,0-.316-1.925l-3.855-.845c-.027-.006-.053-.011-.08-.014l-11.147-1.548a1.049,1.049,0,0,0-.328.006l-12.985,2.3a1.049,1.049,0,0,0-.441.19l-4.1,3.032a1.047,1.047,0,0,1-.3.156l-3.8,1.217a1.049,1.049,0,0,0-.537,1.6l1.453,2.061A1.049,1.049,0,0,0,295.25,203.342ZM324.09,215.46l3.165,2.374h3.956l1.926-2.939-5.543-.791Zm10.184,29.889-1.085,1.264q-.053.061-.1.126l-3.495,4.607a2.683,2.683,0,0,0-.292,2.759l.2.427a2.683,2.683,0,0,1-.026,2.33h0a2.683,2.683,0,0,0,.518,3.1l4.043,4a2.684,2.684,0,0,0,1.886.775h3.406a2.683,2.683,0,0,0,1.149-.258l2.427-1.15a.463.463,0,0,1,.491.06l1.52,1.243a.463.463,0,0,0,.293.1h1.246a.463.463,0,0,1,.463.463v3.3a1.381,1.381,0,0,0,.146.618l2.328,4.656a1.381,1.381,0,0,1,.079,1.04l-1.194,3.714a1.381,1.381,0,0,0,.067,1.014L349.509,282a1.382,1.382,0,0,1,.133.591V285.1a1.381,1.381,0,0,0,.232.766l3.447,5.17a1.381,1.381,0,0,0,1.149.615h4.005a1.381,1.381,0,0,0,1.121-.574l2.393-3.323a1.381,1.381,0,0,0,.26-.807v-1.068a1.381,1.381,0,0,1,1-1.328l.382-.109a1.381,1.381,0,0,0,1-1.328v-1.453a1.381,1.381,0,0,1,.4-.976l2.6-2.6a1.381,1.381,0,0,0,.4-.977v-3.491a1.381,1.381,0,0,0-.182-.685l-.65-1.138a1.381,1.381,0,0,1,.236-1.675l5.429-5.286a1.381,1.381,0,0,0,.375-.647l.544-2.126a1.755,1.755,0,0,0-2.111-2.141h0a2.528,2.528,0,0,1-2.6-.916l-.7-.914-1.874-1.022-2.951-8.077a.145.145,0,0,1,.247-.142l3.726,4.471,1.89,3.861a2.528,2.528,0,0,0,3.152,1.259l5.246-1.951a.786.786,0,0,0,.415-.358l1.486-2.7a.786.786,0,0,0-.064-.856l-1.462-1.912a.786.786,0,0,0-1.052-.182l-1.559,1.009a.786.786,0,0,1-1.125-.3l-1.564-3.024a.786.786,0,0,1,.7-1.147h0a.786.786,0,0,1,.646.339l1.048,1.514a.786.786,0,0,0,.69.337l2.276-.126a.785.785,0,0,1,.6.229l.884.884a.786.786,0,0,0,.556.23h4.1a.78.78,0,0,1,.578.257l2.922,3.23a.776.776,0,0,1,.133.2l3.234,7.17a.78.78,0,0,0,1.391.062l2.233-3.97a.779.779,0,0,1,.2-.234l5.831-4.519a.78.78,0,0,1,1.215.361l.965,2.788a.78.78,0,0,0,.856.516l.844-.13a.78.78,0,0,1,.881.608l.51,2.391a.777.777,0,0,1,.017.163v2.012a.778.778,0,0,0,.067.317l1.237,2.783a.778.778,0,0,0,.161.235l.452.452a.78.78,0,0,0,1.3-.773l-.446-1.5a.781.781,0,0,0-.144-.272l-1.258-1.537a.779.779,0,0,1-.176-.494h0a.78.78,0,0,1,1.433-.427l.962,1.471a.78.78,0,0,0,1.179.149l2.38-2.173a1.076,1.076,0,0,0,.35-.795v-1.406a1.076,1.076,0,0,0-.549-.938l-1.142-.642a1.076,1.076,0,0,1-.354-1.555l.06-.086a1.076,1.076,0,0,1,1.2-.41l1.467.458a1.077,1.077,0,0,0,.942-.148l5.02-3.544a1.076,1.076,0,0,0,.429-.642L421.8,245.3a1.076,1.076,0,0,0-.055-.647l-.869-2.11a1.076,1.076,0,0,1,.048-.92l.537-1a1.076,1.076,0,0,1,1.251-.522l1.519.447a1.077,1.077,0,0,1,.717.692l.346,1.037a1.076,1.076,0,0,0,1.71.486h0a1.076,1.076,0,0,0,.132-1.522l-.626-.74a1.076,1.076,0,0,1-.046-1.332l1.05-1.432a1.076,1.076,0,0,1,.868-.44h2.221a1.076,1.076,0,0,0,.946-.563l2.815-5.186a.96.96,0,0,0,.116-.458v-2.546a.959.959,0,0,0-.959-.959h0a.959.959,0,0,1-.651-1.663l3.209-2.969a.959.959,0,0,1,.651-.255h5.117a.958.958,0,0,0,.546-.171l3.766-2.608a.959.959,0,0,1,.546-.171h1.324a.959.959,0,0,1,.648,1.666l-3.943,3.614a.959.959,0,0,0-.3.843l.487,3.41a.959.959,0,0,0,1.667.5l3.666-4.139a.96.96,0,0,0,.241-.636v-1.6a.959.959,0,0,1,.68-.917l3.409-1.039,4.089-1.7h1.7l4.749-4.5a1.043,1.043,0,0,0-.354-1.734l-8.87-3.3a1.043,1.043,0,0,0-.893.079l-2.2,1.291a1.042,1.042,0,0,1-.59.142l-5.081-.3a1.042,1.042,0,0,1-.675-.3l-3.333-3.319a1.043,1.043,0,0,0-.736-.3h-8.018a1.043,1.043,0,0,0-.711.28l-2.026,1.887a1.043,1.043,0,0,1-.934.256l-4.1-.895a1.043,1.043,0,0,1-.821-1.019v-.725a1.043,1.043,0,0,0-.8-1.014l-2.749-.66a1.043,1.043,0,0,0-1.113.439l-.518.783a1.043,1.043,0,0,1-1.2.413l-3.205-1.077a1.043,1.043,0,0,1-.2-1.888l.355-.209a1.043,1.043,0,0,0,.51-.993l-.031-.347a1.043,1.043,0,0,0-.948-.945l-10.588-.921a1.043,1.043,0,0,0-.564.11l-7.853,4a1.043,1.043,0,0,0-.569.929v.058a1.043,1.043,0,0,1-.6.946l-3.584,1.665a1.043,1.043,0,0,1-1.087-.128l-.718-.568a1.043,1.043,0,0,0-1.048-.145l-3.969,1.652a1.043,1.043,0,0,0-.632,1.11h0a1.043,1.043,0,0,1-1.315,1.152l-2.923-.822a1.043,1.043,0,0,0-1.281.7l-.014.046a1.043,1.043,0,0,1-.9.739l-4.664.424a1.043,1.043,0,0,0-.471.163l-7.2,4.651a.676.676,0,0,1-.8-.051l-.884-.745a.676.676,0,0,1,.237-1.163l2.462-.757a.677.677,0,0,0,.188-.092h0a.676.676,0,0,0-.086-1.16l-9.209-4.575a.676.676,0,0,0-.65.027l-8.28,5a.672.672,0,0,0-.16.135l-5.559,6.382a.676.676,0,0,0-.058.811l1.313,2.029a.676.676,0,0,0,.782.274l2.2-.736a.676.676,0,0,1,.874.492l.379,1.676a.676.676,0,0,0,.755.52l1.4-.2a.676.676,0,0,0,.52-.389l1.444-3.178a.676.676,0,0,0,.031-.479l-.481-1.562a.676.676,0,0,1,.188-.7l3.24-2.981a.676.676,0,0,1,.458-.178h.5a.676.676,0,0,1,.481,1.151l-2.268,2.293a.676.676,0,0,0-.124.778l.438.876a.676.676,0,0,0,.638.373l2.562-.128a.676.676,0,0,1,.613.327l.027.045a.676.676,0,0,1-.579,1.024h-1.076a.676.676,0,0,0-.674.623l-.089,1.13a.676.676,0,0,1-.41.569l-5.106,2.166a.674.674,0,0,1-.288.053l-4.432-.158a.675.675,0,0,0-.352.085l-2.871,1.6a.481.481,0,0,0-.059.039l-3.172,2.456a2.521,2.521,0,0,0-.381,3.621h0a.463.463,0,0,1,.082.457l-.479,1.317a.463.463,0,0,1-.435.3h-1.536a2.214,2.214,0,0,0-2.207,2.391l.125,1.563a.463.463,0,0,0,.315.4l2.613.871a.463.463,0,0,0,.323-.011l2.45-1.009a.463.463,0,0,0,.287-.428v-.775a3.057,3.057,0,0,1,1.809-2.79l2.5-1.119a1.652,1.652,0,0,1,2.322,1.4h0a.463.463,0,0,0,.154.315l2.658,2.363a.463.463,0,0,0,.564.039l.369-.246a.463.463,0,0,0,.147-.611l-2.051-3.664a.463.463,0,0,1,0-.446l.551-1.023a.463.463,0,0,1,.849.081l.5,1.6a.465.465,0,0,0,.075.144l1.636,2.127a.441.441,0,0,1,.032.047l1.959,3.315a.463.463,0,0,0,.644.157l.7-.435a.463.463,0,0,0,.211-.473h0a.463.463,0,0,1,.857-.312l.907,1.573a.994.994,0,0,0,1,.488l2.892-.4a1.732,1.732,0,0,1,1.913,2.158l-.332,1.259a.993.993,0,0,1-.961.74h-2.891a1,1,0,0,1-.181-.017l-4.906-.911a1.456,1.456,0,0,0-1.495.65h0a1.456,1.456,0,0,1-1.8.557l-4.45-1.907a.463.463,0,0,1-.263-.553l.389-1.36a.463.463,0,0,0-.476-.589l-7.01.467-.4.038A7.917,7.917,0,0,0,334.274,245.349Zm31.741-10.509.037.186a1.173,1.173,0,0,0,.644.828l2.056.984a1.173,1.173,0,0,1,.41,1.791h0a1.173,1.173,0,0,1-1.132.42l-4.652-.872a1.18,1.18,0,0,0-.216-.02h-2.218a1.173,1.173,0,0,1-1.041-1.714l.995-1.913a1.173,1.173,0,0,1,1.041-.632h2.926A1.173,1.173,0,0,1,366.015,234.84Zm10.2,3.372v2.859a1.173,1.173,0,0,1-1.173,1.173h-.55a1.173,1.173,0,0,1-1.173-1.173v-1.617a1.173,1.173,0,0,0-.124-.525l-1.184-2.369a1.173,1.173,0,0,1,.605-1.61l1.317-.539a1.173,1.173,0,0,1,1.584.807l.665,2.714A1.17,1.17,0,0,1,376.219,238.212Zm-4.232,39.1-1.592,1.737a1.515,1.515,0,0,0-.38.79l-.508,3.249a1.516,1.516,0,0,0,1.5,1.75h.525a1.516,1.516,0,0,0,1.445-1.059l1.574-4.986a1.516,1.516,0,0,0,.015-.862h0A1.516,1.516,0,0,0,371.987,277.31Zm34.073-10.241,1.27,2.316a.648.648,0,0,0,.171.2l2.37,1.843a.649.649,0,0,0,.962-.19l.694-1.214a.649.649,0,0,0-.2-.859l-4.252-2.885-.041-.03h0A.649.649,0,0,0,406.06,267.069Zm6.293,4.337h0a1.212,1.212,0,0,0,.661,1.63l2.09.818a1.211,1.211,0,0,0,1.18-.168l.424-.326a1.212,1.212,0,0,0,0-1.921l-.64-.492a1.212,1.212,0,0,0-.739-.251h-1.874A1.212,1.212,0,0,0,412.353,271.405Zm1.1-3.72,1.275,1.766a.848.848,0,0,0,.42.308l2.131.71a.849.849,0,0,0,1.015-.4L419.962,267a.849.849,0,0,0,.013-.784l-.721-1.443a.849.849,0,0,1,.159-.98h0a.849.849,0,0,0-.155-1.323l-.477-.293a.849.849,0,0,0-1.219.375l-1.044,2.319a.849.849,0,0,1-.277.34l-1.2.865a.848.848,0,0,1-.337.145l-.723.139A.849.849,0,0,0,413.456,267.686Zm7.423-16.905-.451.369a.428.428,0,0,0-.118.51l.451.983a.428.428,0,0,0,.389.25h0a.428.428,0,0,0,.428-.428v-1.352A.428.428,0,0,0,420.879,250.781Zm-.128,4.668-.5,1.559a.556.556,0,0,0,.042.439l.248.451a.555.555,0,0,0,.86.143h0a.555.555,0,0,0,.182-.411v-.672a.555.555,0,0,1,.093-.308l.481-.722a.555.555,0,0,0-.462-.864h-.411A.555.555,0,0,0,420.751,255.449Zm.785,6.6h0a.555.555,0,0,0,.676.6l.1-.023a.555.555,0,0,1,.615.281l.379.715a.555.555,0,0,0,.842.169l.905-.743a.555.555,0,0,0,.186-.564l-.276-1.1a.555.555,0,0,0-.675-.4l-2.339.594A.555.555,0,0,0,421.536,262.048Zm.607-3.315.515.513a.4.4,0,0,1,.1.165l.354,1.147a.4.4,0,0,0,.382.282h.156a.4.4,0,0,0,.4-.4v-.715a.4.4,0,0,0-.111-.277l-1.225-1.276a.4.4,0,0,0-.633.074h0A.4.4,0,0,0,422.142,258.733Zm-1.119,8.236-1.126,2.453a.256.256,0,0,0-.021.139l.268,2.1a.256.256,0,0,0,.254.223h.222a.256.256,0,0,0,.256-.256v-1.186a.256.256,0,0,1,.469-.14l.457.7a.256.256,0,0,0,.322.092l.6-.277a.256.256,0,0,0,.106-.371l-.8-1.23a.256.256,0,0,1,.014-.3l.359-.449a.256.256,0,0,0-.2-.415h-.567a.257.257,0,0,0-.1.021h0a.256.256,0,0,1-.327-.353l.14-.27a.256.256,0,0,1,.264-.135l1.635.236a.256.256,0,0,0,.238-.1l.776-1a.256.256,0,0,0-.118-.4l-.526-.183a.256.256,0,0,0-.318.139l-.244.56a.255.255,0,0,1-.22.153l-1.587.088A.255.255,0,0,0,421.023,266.969Zm11.166,1.912-1.574.671a.283.283,0,0,1-.321-.071l-.146-.162a.283.283,0,0,1-.073-.19v-.863a.283.283,0,0,0-.2-.271l-1.6-.479a.285.285,0,0,0-.081-.012h-.526a.283.283,0,0,0-.283.283v.1a.283.283,0,0,0,.153.252l.77.4a.283.283,0,0,1,.11.1l.239.382a.283.283,0,0,0,.214.132l.382.035a.283.283,0,0,1,.258.282v.1a.284.284,0,0,1-.033.133l-.206.386a.283.283,0,0,0,.337.4l.15-.048a.284.284,0,0,1,.144-.008l1.262.26a.284.284,0,0,1,.089.035l1.625.976a.283.283,0,0,1,.049.448l-.421.4a.283.283,0,0,0,.195.488h1.229a.283.283,0,0,1,.2.083l.81.814a.283.283,0,0,0,.367.03l1.428-1.033a.284.284,0,0,1,.306-.017l.691.4a.283.283,0,0,1,.143.246v.336a.283.283,0,0,0,.207.273l2.067.58a.283.283,0,0,0,.282-.467l-1.654-1.746a.283.283,0,0,1-.06-.294l.221-.59a.283.283,0,0,0-.265-.382h-.653a.283.283,0,0,1-.273-.207l-.251-.9a.283.283,0,0,0-.212-.2l-4.92-1.084A.284.284,0,0,0,432.189,268.881ZM420.713,281l-3.607,1.45a.91.91,0,0,0-.558,1l1.279,7.443a.91.91,0,0,0,.9.756h4.041a.909.909,0,0,0,.416-.1l3.708-1.9a.91.91,0,0,1,.942.067l2.239,1.586a.911.911,0,0,0,1.008.029l.391-.244a.91.91,0,0,1,1.312.4l1.233,2.741a.91.91,0,0,0,.83.537h2.523a.911.911,0,0,0,.365-.076l2.159-.945a.91.91,0,0,0,.418-.37l2.326-3.925a.91.91,0,0,0,.127-.464v-4.389a.91.91,0,0,0-.3-.675l-4.158-3.765a.913.913,0,0,1-.165-.2l-1.987-3.245a.91.91,0,0,0-1.643.2l-.6,1.87a.91.91,0,0,1-1.453.417l-1.027-.866a.91.91,0,0,1-.317-.8l.145-1.207a.91.91,0,0,0-.9-1.019h-1.546a.91.91,0,0,0-.617.241l-2.37,2.181a.91.91,0,0,1-1.074.117h0a.91.91,0,0,0-1.182.237l-.79,1.041a.9.9,0,0,1-.1.109L421,280.816A.911.911,0,0,1,420.713,281Zm35.2,11.327.817,2.206a.5.5,0,0,1-.041.435l-.27.449a.5.5,0,0,0,.039.576l.679.843a.5.5,0,0,0,.878-.184l.307-1.125a.5.5,0,0,1,.276-.325l.959-.44a.5.5,0,0,0,.294-.458v-.169a.5.5,0,0,0-.6-.494l-1.1.22a.5.5,0,0,1-.557-.284l-.747-1.633a.5.5,0,0,0-.458-.294h0A.5.5,0,0,0,455.91,292.329Zm-.205,5.053-.535-.134a.5.5,0,0,0-.44.1l-2.941,2.385a.5.5,0,0,0,.172.874l1.476.445a.5.5,0,0,0,.587-.239l.865-1.564a.5.5,0,0,1,.1-.124l.944-.885A.5.5,0,0,0,455.7,297.382Z" fill="#edf0f2"/>
      <path id="_29" data-name="#" d="M439.5,292.016a2.516,2.516,0,1,1,2.516-2.516A2.516,2.516,0,0,1,439.5,292.016Zm-2.438-8.9.461-.2c.513,1.206.991,2.469,1.422,3.753l-.475.159C438.045,285.56,437.571,284.31,437.062,283.117Zm-3.729-7,.418-.273c.723,1.1,1.41,2.267,2.044,3.457l-.441.235C434.727,278.355,434.047,277.2,433.333,276.113Zm-2.833-40.1a2.509,2.509,0,0,1-2.042-3.976c-.169-.066-.335-.138-.5-.2l.178-.468c.229.087.454.184.682.273a2.512,2.512,0,1,1,1.686,4.372Zm-8.168,28.763.287-.409c1.1.77,2.17,1.6,3.183,2.456l-.324.381C424.477,266.357,423.419,265.54,422.332,264.779Zm-1.991-35.26.111-.487c1.283.293,2.589.643,3.881,1.038l-.147.478C422.905,230.156,421.611,229.809,420.341,229.518Zm-2.841,22.5a2.508,2.508,0,0,1-1.256-4.684c-.6-.95-1.215-1.889-1.853-2.791l.408-.289c.656.928,1.292,1.895,1.9,2.873a2.489,2.489,0,0,1,.8-.141,2.516,2.516,0,1,1,0,5.032Zm-5.025-23.66.033-.5c1.316.086,2.661.229,4,.428l-.074.494C415.109,228.583,413.778,228.441,412.475,228.356Zm-3.117,10.029.363-.344c.913.965,1.806,1.979,2.65,3.015l-.387.316C411.147,240.347,410.263,239.342,409.357,238.385Zm-4.879-10.34c1.321-.15,2.67-.243,4.009-.274l.012.5c-1.324.031-2.657.122-3.964.271Zm2.039,7.556c-.986-.894-2.012-1.754-3.048-2.558l.307-.4c1.046.812,2.081,1.68,3.077,2.583Zm-6.01-5.289-.275.418c-.555-.364-1.122-.72-1.7-1.066-.6.155-1.188.32-1.773.5l-.147-.479c.434-.133.875-.25,1.315-.37-.368-.215-.735-.433-1.107-.638l.24-.439c.518.285,1.032.584,1.542.888q.949-.243,1.9-.443l.1.489c-.466.1-.932.212-1.4.326C399.65,229.768,400.085,230.035,400.508,230.313ZM394.9,255.785a2.487,2.487,0,0,1,.116.715,2.547,2.547,0,1,1-.332-1.226c.478.021,1.012.05,1.6.095l-.037.5C395.757,255.83,395.314,255.8,394.9,255.785Zm-5.314-30.4.172-.469c1.257.462,2.507.976,3.717,1.525l-.207.455C392.069,226.351,390.83,225.842,389.586,225.384Zm3.434,6.118c-1.216.5-2.431,1.055-3.613,1.662l-.229-.444c1.2-.614,2.424-1.179,3.652-1.681Zm-10.664,5.46c1.081-.8,2.2-1.557,3.326-2.259l.264.425c-1.114.694-2.223,1.447-3.293,2.237Zm-.414-13.8.107-.488c1.315.287,2.625.619,3.893.987l-.139.48C384.545,223.777,383.246,223.448,381.941,223.163Zm-5.677,19.043c.943-.942,1.935-1.863,2.947-2.737l.326.379c-1,.865-1.985,1.778-2.92,2.711Zm-2.2-20.247.045-.5c1.338.122,2.68.285,3.987.484l-.076.494C376.727,222.242,375.4,222.08,374.067,221.959ZM373.016,249.5a2.543,2.543,0,1,1-1.243-2.158c.414-.553,1-1.3,1.757-2.184l.379.325c-.75.875-1.325,1.61-1.732,2.153A2.5,2.5,0,0,1,373.016,249.5ZM366.1,221.683l-.01-.5c1.307-.027,2.685-.018,4.015.027l-.018.5C368.771,221.665,367.4,221.658,366.1,221.683Zm-.1,24.265a35.392,35.392,0,0,0-3.576-1.722l.191-.462a35.969,35.969,0,0,1,3.627,1.746Zm-.149,16.662a2.516,2.516,0,1,1-.365.39c-1.107-.465-2.229-.908-3.344-1.313l.17-.47C363.5,261.646,364.687,262.116,365.856,262.61Zm-7.769-40.843c1.314-.166,2.659-.3,3.994-.4l.037.5c-1.327.1-2.662.229-3.969.395Zm.6,21.112c-1.226-.379-2.52-.723-3.845-1.022l.109-.487c1.339.3,2.645.649,3.884,1.032Zm-.325,17.552c-1.267-.381-2.56-.731-3.847-1.041l.117-.486c1.295.311,2.6.664,3.874,1.048ZM353.016,224.5a2.522,2.522,0,1,1-.718-1.756c.525-.113,1.129-.236,1.823-.364l.09.492c-.586.108-1.111.213-1.576.311A2.494,2.494,0,0,1,353.016,224.5Zm-3,9a2.516,2.516,0,1,1-2.516-2.515A2.516,2.516,0,0,1,350.016,233.5Zm-11,6.716,0-.5c1.354.006,2.7.042,4.01.106l-.023.5C341.7,240.257,340.358,240.221,339.012,240.215Zm.488-7.2a2.5,2.5,0,0,1-1.941-4.1c-1.112-.543-2.233-1.053-3.336-1.509l.191-.462c1.165.482,2.349,1.02,3.522,1.6a2.511,2.511,0,1,1,1.563,4.473Zm-4.482,7.261c-1.3.046-2.647.118-3.991.214l-.035-.5c1.35-.1,2.7-.169,4.009-.215Zm-.276,17.221c-1.314.055-2.653.146-3.978.272l-.047-.5c1.334-.126,2.682-.218,4-.273Zm-8.073-32.573.117-.486c1.275.31,2.574.682,3.864,1.107l-.156.475C329.217,225.6,327.93,225.231,326.669,224.925Zm.379,15.92c-1.308.139-2.642.3-3.964.485l-.068-.5c1.327-.184,2.666-.348,3.979-.487Zm-8.234-17.1.026-.5c1.317.07,2.663.209,4,.411l-.074.494C321.445,223.955,320.115,223.818,318.814,223.748Zm.324,18.192c-1.3.221-2.622.467-3.928.73l-.1-.49c1.31-.264,2.636-.511,3.942-.733Zm-.159,17.844c-1.274.314-2.569.666-3.85,1.046l-.142-.479c1.288-.383,2.592-.736,3.873-1.052Zm-8.164-36.106a35.344,35.344,0,0,1,4-.435l.026.5a34.959,34.959,0,0,0-3.945.429Zm.493,19.843c-1.3.3-2.607.631-3.876.969l-.129-.483c1.273-.34,2.582-.667,3.89-.973Zm-7.99-17.077-.2-.456a30.475,30.475,0,0,1,3.777-1.4l.143.48A30.061,30.061,0,0,0,303.318,226.444Zm-7,3.836a27.8,27.8,0,0,1,3.246-2.389l.267.423a27.317,27.317,0,0,0-3.187,2.346Zm-4.165,18.966c1.181-.525,2.429-1.043,3.708-1.539l.181.466c-1.272.494-2.512,1.008-3.685,1.53Zm-.649-9.231a2.511,2.511,0,0,1-2.108-3.882,26.737,26.737,0,0,0-3.831-.849l.071-.495a27.215,27.215,0,0,1,3.937.874l-.113.378a2.47,2.47,0,0,1,2.5-1.012c.474-.658.968-1.3,1.5-1.909l.378.328c-.479.552-.932,1.133-1.367,1.727a2.515,2.515,0,0,1-.963,4.839Zm-2.742,11.413c-1.25.65-2.412,1.315-3.455,1.977l-.268-.422c1.054-.669,2.229-1.341,3.492-2Zm-6.742,5.071a2.545,2.545,0,1,1-.272-1.116c.011-.01.019-.019.03-.029l.324.381c-.062.053-.1.1-.164.157A2.494,2.494,0,0,1,282.016,256.5Zm-4.425-21.481a22.5,22.5,0,0,1,4.01-.468l.014.5a22.011,22.011,0,0,0-3.921.457Zm-7.461,3.012a24.075,24.075,0,0,1,3.6-1.832l.189.463a23.613,23.613,0,0,0-3.524,1.794Zm-3.113,5.469a2.531,2.531,0,1,1-1.176-2.122c.309-.3.648-.617,1.036-.953l.327.378c-.358.311-.674.605-.964.886A2.5,2.5,0,0,1,267.016,243.5ZM293.5,268.984a2.488,2.488,0,0,1,1.166.3c.512-.316,1.135-.69,1.88-1.116l.248.435c-.65.371-1.2.7-1.673.989a2.5,2.5,0,1,1-1.621-.607Zm10.091-23.4c-1.284.389-2.563.8-3.8,1.224l-.162-.473c1.244-.426,2.529-.84,3.819-1.23Zm.322,19.413c-1.219.548-2.431,1.126-3.6,1.719l-.226-.446c1.178-.6,2.4-1.178,3.623-1.729Zm7.417-2.944c-1.248.432-2.507.9-3.741,1.39l-.185-.465c1.241-.493,2.506-.963,3.762-1.4Zm15.477-3.805c-1.3.19-2.627.417-3.933.674l-.1-.49c1.313-.259,2.643-.487,3.956-.679Zm15.936-1.152-.033.5c-1.319-.088-2.659-.141-3.982-.156l.006-.5C340.066,256.952,341.415,257.006,342.743,257.094Zm7.964.984-.09.492c-1.3-.236-2.631-.438-3.94-.6l.061-.5C348.057,257.637,349.393,257.84,350.707,258.078Zm-3.683-17.964c1.355.134,2.7.3,3.982.506l-.078.494c-1.277-.2-2.608-.369-3.953-.5Zm57.216,16.425-.107.488c-1.288-.281-2.608-.522-3.922-.715l.072-.5C401.609,256.013,402.94,256.255,404.24,256.539Zm7.712,2.262-.176.468c-1.228-.46-2.5-.883-3.78-1.258l.141-.48C409.43,257.909,410.713,258.336,411.952,258.8Zm7.274,3.412-.25.434c-1.134-.652-2.321-1.269-3.53-1.835l.213-.453C416.88,260.93,418.08,261.554,419.227,262.213Zm12.168,10.373L431,272.9c-.825-1.032-1.708-2.034-2.626-2.978l.359-.349C429.665,270.528,430.56,271.542,431.395,272.586Z" fill="#94a7b4" opacity="0.6"/>
    </g>
  </g>
</svg>
