<svg xmlns="http://www.w3.org/2000/svg" width="165" height="72" viewBox="0 0 165 72">
  <defs>
    <style>
      .cls-1 {
        fill: #d3e7f9;
      }

      .cls-1, .cls-2, .cls-3 {
        fill-rule: evenodd;
      }

      .cls-2 {
        fill: #5a9ad4;
      }

      .cls-3 {
        fill: #71a4d9;
      }
    </style>
  </defs>
  <path id="_" data-name="#" class="cls-1" d="M110,71H60V70H56V31h5v7.684L79,51H91l19-13V31h4V71h-4Z"/>
  <path id="_2" data-name="#" class="cls-2" d="M110.9,72H60.074a5.089,5.089,0,0,1-5.083-5.083V34.071a5.01,5.01,0,0,1,4.989-5.083H61V13.068A4.067,4.067,0,0,1,65.063,9h35.675a1.127,1.127,0,0,1,.72.3l8.258,8.133a1.1,1.1,0,0,1,.3.686V28.988H110.9a5.089,5.089,0,0,1,5.083,5.083V66.915A5.089,5.089,0,0,1,110.9,72Zm-2.369-2.033L91.151,52.01H79.827L62.443,69.965h46.092ZM61,31.022H59.98a2.985,2.985,0,0,0-2.946,2.546L61,36.366V31.022Zm-4,4.995v30.9a3.078,3.078,0,0,0,2.674,3.022l18.17-18.786Zm45.012-23.543v3.521a1.016,1.016,0,0,0,1.016,1.017h3.4Zm6.006,6.508-4.958.031A3.023,3.023,0,0,1,100,15.993V11H65.032A2.033,2.033,0,0,0,63,13.037V37.779l16.71,12.2H91.27l16.742-12.229V18.981ZM110.9,30.99h-0.891v5.375l3.931-2.8A3.111,3.111,0,0,0,110.9,30.99Zm3.081,5.026L93.141,51.152l18.17,18.786a3.078,3.078,0,0,0,2.674-3.022v-30.9ZM76,43a1,1,0,0,1,1-1H94a1,1,0,0,1,0,2H77A1,1,0,0,1,76,43Zm-6-6a1,1,0,0,1,1-1h29a1,1,0,0,1,0,2H71A1,1,0,0,1,70,37Zm12-7a1,1,0,0,1,1-1h20a1,1,0,0,1,0,2H83A1,1,0,0,1,82,30Zm13-5H83a1,1,0,0,1,0-2H95A1,1,0,0,1,95,25Zm0-6H83a1,1,0,0,1,0-2H95A1,1,0,0,1,95,19ZM76.765,26.973H74V30.5a1.5,1.5,0,1,1-3,0V26.973H68.224A1.2,1.2,0,0,1,67,25.781v-5.37a5.5,5.5,0,0,1,10.994,0v5.336A1.227,1.227,0,0,1,76.765,26.973Z"/>
  <path id="_3" data-name="#" class="cls-3" d="M164.068,20.718a0.674,0.674,0,0,1-.952-0.032l-5.236-5.593-1.348,7.412a0.673,0.673,0,0,1-1.133.36l-6.592-6.447a0.672,0.672,0,0,1,.941-0.96l5.687,5.561,1.36-7.481a0.673,0.673,0,0,1,1.154-.339l6.151,6.57A0.672,0.672,0,0,1,164.068,20.718Zm-11.79-10.277-5.236-5.593-1.348,7.412a0.673,0.673,0,0,1-1.133.36l-6.593-6.447a0.673,0.673,0,1,1,.942-0.961l5.686,5.561,1.361-7.481a0.673,0.673,0,0,1,1.153-.339l6.151,6.57A0.673,0.673,0,0,1,152.278,10.441Zm-12.751,2.572a0.675,0.675,0,0,1,.682.186l6.15,6.57a0.673,0.673,0,1,1-.983.918l-5.236-5.593-1.348,7.412a0.673,0.673,0,0,1-1.133.36l-6.593-6.447a0.673,0.673,0,0,1,.942-0.96l5.686,5.561,1.361-7.481A0.672,0.672,0,0,1,139.527,13.013ZM132,35.5a1.5,1.5,0,1,1-1.5-1.5A1.5,1.5,0,0,1,132,35.5ZM121.5,18a1.5,1.5,0,1,1,1.5-1.5A1.5,1.5,0,0,1,121.5,18ZM55.5,3A1.5,1.5,0,1,1,57,1.5,1.5,1.5,0,0,1,55.5,3Zm-12,26A1.5,1.5,0,1,1,45,27.5,1.5,1.5,0,0,1,43.5,29ZM34.121,14.448a3.749,3.749,0,0,1,0-5.3,3.168,3.168,0,0,1,4.481,0,2.711,2.711,0,0,1,0,3.83,0.865,0.865,0,0,1-1.224-1.224,0.979,0.979,0,0,0,0-1.382,1.438,1.438,0,0,0-2.034,0,2.016,2.016,0,0,0,0,2.848,2.737,2.737,0,0,0,3.866,0,3.637,3.637,0,0,0,0-5.138,4.763,4.763,0,0,0-6.729,0,6.171,6.171,0,0,0,0,8.717,0.865,0.865,0,0,1-1.224,1.224,7.9,7.9,0,0,1,0-11.165,6.5,6.5,0,0,1,9.176,0,5.37,5.37,0,0,1,0,7.586A4.47,4.47,0,0,1,34.121,14.448Zm1.4,31.63a1.01,1.01,0,0,1-1.424.1l-13.992-12.1a1.009,1.009,0,1,1,1.322-1.525l13.992,12.1A1.007,1.007,0,0,1,35.525,46.078Zm-1,11.057A1.01,1.01,0,0,1,33.1,57.2L11.357,37.364a1.009,1.009,0,1,1,1.362-1.489L34.457,55.711A1.007,1.007,0,0,1,34.521,57.136ZM32.38,65.68a1.011,1.011,0,0,1-1.427.048l-28.9-26.99A1.009,1.009,0,1,1,3.43,37.266l28.9,26.99A1.007,1.007,0,0,1,32.38,65.68ZM2.445,46.136L24.184,65.972a1.009,1.009,0,0,1-1.362,1.489L1.084,47.625A1.009,1.009,0,1,1,2.445,46.136Zm-0.751,9.9,13.992,12.1a1.009,1.009,0,0,1-1.322,1.525L0.373,57.561A1.009,1.009,0,1,1,1.695,56.036ZM132.62,45.378l5.562-.932,2.381-5.084a0.831,0.831,0,0,1,1.473-.033l2.61,4.971,5.6,0.68a0.823,0.823,0,0,1,.487,1.382l-3.95,4,1.08,5.5a0.812,0.812,0,0,1-.308.805,0.824,0.824,0,0,1-.863.082l-5.052-2.5-4.932,2.722a0.828,0.828,0,0,1-1.211-.834l0.827-5.547L132.2,46.78A0.822,0.822,0,0,1,132.62,45.378Zm5.14,4.322a0.814,0.814,0,0,1,.252.717l-0.647,4.336,3.855-2.127a0.827,0.827,0,0,1,.765-0.017l3.948,1.951-0.844-4.3a0.81,0.81,0,0,1,.22-0.728L148.4,46.4l-4.377-.531a0.822,0.822,0,0,1-.628-0.432l-2.04-3.886-1.861,3.973a0.821,0.821,0,0,1-.608.46l-4.348.729Z"/>
</svg>
