<svg xmlns="http://www.w3.org/2000/svg" width="24" height="24" viewBox="0 0 24 24">
  <defs>
    <style>
      .cls-1 {
        fill: #fff;
        fill-rule: evenodd;
      }
    </style>
  </defs>
  <path id="Twitter" class="cls-1" d="M24.255,4.239A9.661,9.661,0,0,1,21.477,5,4.856,4.856,0,0,0,23.6,2.324,9.694,9.694,0,0,1,20.531,3.5a4.838,4.838,0,0,0-8.24,4.411A13.732,13.732,0,0,1,2.323,2.856a4.842,4.842,0,0,0,1.5,6.455,4.806,4.806,0,0,1-2.191-.6V8.769A4.84,4.84,0,0,0,5.507,13.51a4.867,4.867,0,0,1-2.183.083,4.844,4.844,0,0,0,4.518,3.36,9.715,9.715,0,0,1-6.006,2.069,10.1,10.1,0,0,1-1.153-.068A13.645,13.645,0,0,0,8.1,21.065a13.615,13.615,0,0,0,13.759-13.7c0-.209,0-0.418-0.015-0.626a9.856,9.856,0,0,0,2.414-2.5h0Z"/>
</svg>
