<svg xmlns="http://www.w3.org/2000/svg" width="15" height="30" viewBox="0 0 15 30">
  <g transform="translate(1 0)"><path id="_" data-name="#" d="M3.142,11.886c-.55.28-.91.027-.806-.567L2.978,7.7.26,5.14c-.445-.42-.307-.83.308-.917L4.322,3.7,6,.405c.275-.54.72-.54,1,0l1.679,3.29,3.754.528c.615.087.754.5.307.917L10.022,7.7l.642,3.617c.1.594-.256.847-.806.567L6.5,10.178,3.142,11.886Z" transform="translate(0.001)" fill="#d0d2d7"/></g>
  <g transform="translate(1 15)"><path id="_" data-name="#" d="M3.142,11.886c-.55.28-.91.027-.806-.567L2.978,7.7.26,5.14c-.445-.42-.307-.83.308-.917L4.322,3.7,6,.405c.275-.54.72-.54,1,0l1.679,3.29,3.754.528c.615.087.754.5.307.917L10.022,7.7l.642,3.617c.1.594-.256.847-.806.567L6.5,10.178,3.142,11.886Z" transform="translate(0.001)" fill="#2785fa"/></g>
</svg>
