<svg xmlns="http://www.w3.org/2000/svg" xmlns:xlink="http://www.w3.org/1999/xlink">
  <defs>
    <style>
      .cls-2 {
        fill: #65c07d;
      }

      .cls-3 {
        fill: #d3d6da;
      }
    </style>
  </defs>
  <g>
    <path id="Shop" class="cls-2" d="M696.8,470a1.776,1.776,0,0,1-1.818-1.73l0-16.427a13.667,13.667,0,0,0,4-.843L699,466.028l3.553-3.036h14.833l3.621,3.059V451a13.55,13.55,0,0,0,3.978.844l0,16.426a1.775,1.775,0,0,1-1.818,1.73Zm22.981-25.146a5.379,5.379,0,0,1-9.779.017,5.372,5.372,0,0,1-9.77-.018A5.368,5.368,0,0,1,695.317,448a5.272,5.272,0,0,1-5.327-5.2.422.422,0,0,1,.052-.2l4.892-8.358a.435.435,0,0,1,.382-.226h29.361a.435.435,0,0,1,.383.225l4.893,8.358a.428.428,0,0,1,.052.2,5.272,5.272,0,0,1-5.328,5.2A5.341,5.341,0,0,1,719.784,444.854Z" transform="translate(-689.99 -434.01)"/>
    <path id="Shop-2" data-name="Shop" class="cls-3" d="M696.8,470a1.776,1.776,0,0,1-1.818-1.73l0-16.427a13.667,13.667,0,0,0,4-.843L699,466.028l3.553-3.036h14.833l3.621,3.059V451a13.55,13.55,0,0,0,3.978.844l0,16.426a1.775,1.775,0,0,1-1.818,1.73Zm22.981-25.146a5.379,5.379,0,0,1-9.779.017,5.372,5.372,0,0,1-9.77-.018A5.368,5.368,0,0,1,695.317,448a5.272,5.272,0,0,1-5.327-5.2.422.422,0,0,1,.052-.2l4.892-8.358a.435.435,0,0,1,.382-.226h29.361a.435.435,0,0,1,.383.225l4.893,8.358a.428.428,0,0,1,.052.2,5.272,5.272,0,0,1-5.328,5.2A5.341,5.341,0,0,1,719.784,444.854Z" transform="translate(-639.99 -434.01)"/>
  </g>
</svg>
