<svg width="300" height="300" viewBox="0 0 300 300" fill="none" xmlns="http://www.w3.org/2000/svg">
	<g><path d="M23.8708 44.3104C24.6013 44.5736 25.4008 44.5736 26.1313 44.3104C31.9091 42.0295 38.2746 41.7017 44.2562 43.377C44.7511 43.5039 45.2684 43.5158 45.7686 43.4118C46.2688 43.3079 46.7386 43.0909 47.1419 42.7774C47.5453 42.4639 47.8716 42.0623 48.0958 41.6033C48.32 41.1442 48.4362 40.64 48.4354 40.1291V10.2666C48.4339 9.55724 48.2071 8.86668 47.7877 8.29454C47.3684 7.7224 46.7781 7.29826 46.1021 7.08328C39.607 4.84514 32.5273 4.99285 26.1313 7.49995C25.4005 7.76148 24.6016 7.76148 23.8708 7.49995C17.4741 4.99289 10.3937 4.84518 3.89792 7.08328C3.22151 7.29789 2.63079 7.72188 2.21103 8.29405C1.79126 8.86623 1.56416 9.55698 1.5625 10.2666V40.1291C1.56177 40.64 1.67795 41.1442 1.90215 41.6033C2.12635 42.0623 2.45263 42.4639 2.856 42.7774C3.25937 43.0909 3.72913 43.3079 4.2293 43.4118C4.72948 43.5158 5.24681 43.5039 5.74167 43.377C11.7246 41.7012 18.0916 42.029 23.8708 44.3104V44.3104Z" stroke="#3F434B" stroke-width="1.65" stroke-linecap="round" stroke-linejoin="round"/><path d="M25 7.6709V44.5084" stroke="#3F434B" stroke-width="1.65" stroke-linecap="round" stroke-linejoin="round"/></g>
	<g style="transform: translate(50px, 0);"><path d="M32.8125 20.8286L24.5187 32.1691C24.3844 32.3525 24.2131 32.5043 24.0166 32.6141C23.8201 32.7238 23.6029 32.789 23.3797 32.8052C23.1565 32.8214 22.9325 32.7882 22.7228 32.708C22.5132 32.6277 22.3228 32.5022 22.1646 32.34L17.1875 27.2381" stroke="#3F434B" stroke-width="1.65" stroke-linecap="round" stroke-linejoin="round"/><path d="M22.3541 2.89909C22.6724 2.49344 23.0752 2.16613 23.5331 1.94124C23.991 1.71635 24.4923 1.59961 24.9999 1.59961C25.5076 1.59961 26.0089 1.71635 26.4668 1.94124C26.9246 2.16613 27.3275 2.49344 27.6458 2.89909L30.7958 6.91781C31.1525 7.37374 31.6155 7.73017 32.142 7.9542C32.6685 8.17824 33.2416 8.26267 33.8083 8.1997L38.8083 7.64208C39.3144 7.58442 39.8267 7.64424 40.3073 7.81711C40.7878 7.98999 41.2243 8.27149 41.5844 8.64078C41.9445 9.01007 42.219 9.45768 42.3876 9.95049C42.5562 10.4433 42.6145 10.9687 42.5583 11.4877L42.0145 16.6153C41.9531 17.1965 42.0355 17.7841 42.2539 18.3241C42.4724 18.864 42.8199 19.3388 43.2645 19.7046L47.1833 22.935C47.5788 23.2614 47.898 23.6745 48.1173 24.1441C48.3366 24.6137 48.4504 25.1277 48.4504 25.6483C48.4504 26.169 48.3366 26.683 48.1173 27.1526C47.898 27.6221 47.5788 28.0353 47.1833 28.3617L43.252 31.5771C42.8076 31.9435 42.4601 32.4187 42.2417 32.9589C42.0233 33.4992 41.9408 34.0871 42.002 34.6685L42.5458 39.7961C42.6024 40.3152 42.5444 40.8408 42.3759 41.3338C42.2075 41.8268 41.933 42.2746 41.5728 42.644C41.2126 43.0133 40.776 43.2948 40.2952 43.4676C39.8145 43.6403 39.302 43.6998 38.7958 43.6418L33.7958 43.0841C33.2291 43.021 32.6559 43.1053 32.1294 43.3294C31.6029 43.5534 31.1399 43.9099 30.7833 44.366L27.6458 48.3698C27.3278 48.7758 26.9249 49.1034 26.467 49.3286C26.0091 49.5537 25.5078 49.6705 24.9999 49.6705C24.4921 49.6705 23.9908 49.5537 23.5329 49.3286C23.075 49.1034 22.6721 48.7758 22.3541 48.3698L19.2062 44.3532C18.849 43.8973 18.3856 43.5408 17.8588 43.3168C17.332 43.0928 16.7586 43.0084 16.1916 43.0713L11.1916 43.6289C10.6853 43.6874 10.1726 43.6282 9.69172 43.4556C9.2108 43.283 8.77398 43.0015 8.41369 42.6321C8.05341 42.2626 7.77893 41.8146 7.61064 41.3214C7.44235 40.8282 7.38458 40.3025 7.44161 39.7833L7.98536 34.6557C8.04674 34.0742 7.96441 33.4863 7.74596 32.946C7.52751 32.4057 7.17997 31.9306 6.73536 31.5642L2.81869 28.336C2.42279 28.0099 2.1033 27.5968 1.88378 27.1272C1.66425 26.6576 1.55029 26.1435 1.55029 25.6227C1.55029 25.1019 1.66425 24.5878 1.88378 24.1182C2.1033 23.6486 2.42279 23.2355 2.81869 22.9094L6.73536 19.679C7.1801 19.3133 7.52776 18.8385 7.74624 18.2985C7.96472 17.7586 8.04696 17.1708 7.98536 16.5897L7.44161 11.4621C7.38498 10.943 7.44304 10.4174 7.61147 9.9244C7.7799 9.4314 8.05439 8.98361 8.41458 8.61423C8.77477 8.24485 9.21143 7.96336 9.69216 7.79063C10.1729 7.6179 10.6854 7.55837 11.1916 7.61644L16.1916 8.17406C16.7586 8.23681 17.3319 8.15229 17.8587 7.92828C18.3855 7.70427 18.8489 7.34797 19.2062 6.89217L22.3541 2.89909Z" stroke="#3F434B" stroke-width="1.65" stroke-linecap="round" stroke-linejoin="round"/></g>
	<g style="transform: translate(100px, 0);"><path d="M9.375 37.5H7.8125C6.1549 37.5 4.56518 36.8415 3.39308 35.6694C2.22098 34.4973 1.5625 32.9076 1.5625 31.25V25C1.5625 23.3424 2.22098 21.7527 3.39308 20.5806C4.56518 19.4085 6.1549 18.75 7.8125 18.75H9.375C9.7894 18.75 10.1868 18.9146 10.4799 19.2076C10.7729 19.5007 10.9375 19.8981 10.9375 20.3125V35.9375C10.9375 36.3519 10.7729 36.7493 10.4799 37.0424C10.1868 37.3354 9.7894 37.5 9.375 37.5Z" stroke="#3F434B" stroke-width="1.65" stroke-linecap="round" stroke-linejoin="round"/><path d="M42.1875 37.5H40.625C40.2106 37.5 39.8132 37.3354 39.5201 37.0424C39.2271 36.7493 39.0625 36.3519 39.0625 35.9375V20.3125C39.0625 19.8981 39.2271 19.5007 39.5201 19.2076C39.8132 18.9146 40.2106 18.75 40.625 18.75H42.1875C43.8451 18.75 45.4348 19.4085 46.6069 20.5806C47.779 21.7527 48.4375 23.3424 48.4375 25V31.25C48.4375 32.9076 47.779 34.4973 46.6069 35.6694C45.4348 36.8415 43.8451 37.5 42.1875 37.5Z" stroke="#3F434B" stroke-width="1.65" stroke-linecap="round" stroke-linejoin="round"/><path d="M7.8125 18.75C7.8125 14.1916 9.62332 9.81988 12.8466 6.5966C16.0699 3.37332 20.4416 1.5625 25 1.5625V1.5625C29.5584 1.5625 33.9301 3.37332 37.1534 6.5966C40.3767 9.81988 42.1875 14.1916 42.1875 18.75" stroke="#3F434B" stroke-width="1.65" stroke-linecap="round" stroke-linejoin="round"/><path d="M31.25 45.3125H35.9375C37.5951 45.3125 39.1848 44.654 40.3569 43.4819C41.529 42.3098 42.1875 40.7201 42.1875 39.0625V37.5" stroke="#3F434B" stroke-width="1.65" stroke-linecap="round" stroke-linejoin="round"/><path d="M28.125 48.4375H25C24.1712 48.4375 23.3763 48.1083 22.7903 47.5222C22.2042 46.9362 21.875 46.1413 21.875 45.3125C21.875 44.4837 22.2042 43.6888 22.7903 43.1028C23.3763 42.5167 24.1712 42.1875 25 42.1875H28.125C28.9538 42.1875 29.7487 42.5167 30.3347 43.1028C30.9208 43.6888 31.25 44.4837 31.25 45.3125C31.25 46.1413 30.9208 46.9362 30.3347 47.5222C29.7487 48.1083 28.9538 48.4375 28.125 48.4375Z" stroke="#3F434B" stroke-width="1.65" stroke-linecap="round" stroke-linejoin="round"/></g>
</svg>
