<svg xmlns="http://www.w3.org/2000/svg" width="16" height="14" viewBox="0 0 16 14">
  <defs>
    <style>
      .cls-1 {
        fill: #fff;
        fill-rule: evenodd;
      }
    </style>
  </defs>
  <path id="_" data-name="#" class="cls-1" d="M4.09-.016A4.256,4.256,0,0,0,.037,4.159,4.32,4.32,0,0,0,.165,5.745,6.81,6.81,0,0,0,2.238,9.224l5.248,4.792,5.275-4.792a6.811,6.811,0,0,0,2.073-3.479,4.337,4.337,0,0,0,.128-1.586A4.257,4.257,0,0,0,10.91-.015a3.974,3.974,0,0,0-3.42,2,3.929,3.929,0,0,0-3.4-2h0Z"/>
</svg>
