<svg xmlns="http://www.w3.org/2000/svg" width="384" height="384" viewBox="0 0 384 384">
  <metadata><?xpacket begin="﻿" id="W5M0MpCehiHzreSzNTczkc9d"?>
<x:xmpmeta xmlns:x="adobe:ns:meta/" x:xmptk="Adobe XMP Core 5.6-c140 79.160451, 2017/05/06-01:08:21        ">
   <rdf:RDF xmlns:rdf="http://www.w3.org/1999/02/22-rdf-syntax-ns#">
      <rdf:Description rdf:about=""/>
   </rdf:RDF>
</x:xmpmeta>
                                                                                                    
                                                                                                    
                                                                                                    
                                                                                                    
                                                                                                    
                                                                                                    
                                                                                                    
                                                                                                    
                                                                                                    
                                                                                                    
                                                                                                    
                                                                                                    
                                                                                                    
                                                                                                    
                                                                                                    
                                                                                                    
                                                                                                    
                                                                                                    
                                                                                                    
                                                                                                    
                           
<?xpacket end="w"?></metadata>
<defs>
    <style>
      .cls-1 {
        fill: #d4d9e2;
      }

      .cls-1, .cls-3 {
        fill-rule: evenodd;
      }

      .cls-2 {
        fill: #2581e3;
      }

      .cls-3 {
        fill: #fff;
      }
    </style>
  </defs>
  <path id="_" data-name="#" class="cls-1" d="M367,207a14.989,14.989,0,0,1-14.95-14H284.006c0-.334.025-0.663,0.025-1s-0.022-.668-0.025-1H352.05A14.992,14.992,0,1,1,367,207Zm0-28a13,13,0,1,0,13,13A13,13,0,0,0,367,179ZM306.062,79.355l-48.307,48.308q-0.7-.716-1.418-1.416l48.309-48.308A15.021,15.021,0,1,1,306.062,79.355Zm19.087-20.5a13.021,13.021,0,1,0,0,18.414A13.022,13.022,0,0,0,325.149,58.851ZM193,31.95v68.082c-0.334,0-.663-0.025-1-0.025s-0.668.021-1,.025V31.95A15,15,0,1,1,193,31.95ZM192,4a13,13,0,1,0,13,13A13,13,0,0,0,192,4ZM127.665,126.249q-0.716.7-1.417,1.416L77.938,79.355a15.024,15.024,0,1,1,1.416-1.416Zm-50.4-67.4a13.021,13.021,0,1,0,0,18.414A13.021,13.021,0,0,0,77.266,58.851ZM99.974,192c0,0.334.022,0.663,0.025,1H31.95a15,15,0,1,1,0-2H100C100,191.335,99.974,191.667,99.974,192ZM17,179a13,13,0,1,0,13,13A13,13,0,0,0,17,179ZM77.938,304.646l48.307-48.308q0.7,0.715,1.418,1.416L79.355,306.062A15.027,15.027,0,1,1,77.938,304.646Zm-19.087,20.5a13.021,13.021,0,1,0,0-18.415A13.021,13.021,0,0,0,58.851,325.149ZM191,352.05V283.975c0.335,0,.666.025,1,0.025s0.663-.022,1-0.025V352.05A15,15,0,1,1,191,352.05ZM192,380a13,13,0,1,0-13-13A13,13,0,0,0,192,380Zm64.34-122.243q0.717-.7,1.417-1.416l48.305,48.305a15.024,15.024,0,1,1-1.416,1.416Zm50.394,67.392a13.021,13.021,0,1,0,0-18.415A13.022,13.022,0,0,0,306.734,325.149Z"/>
  <circle id="_2" data-name="#" class="cls-2" cx="192.016" cy="192.016" r="88.016"/>
  <path id="_3" data-name="#" class="cls-3" d="M217.648,216.018H200.01v20.973a8,8,0,0,1-16,0V216.018H166.353a7.2,7.2,0,0,1-7.368-7.162V174.882a33.016,33.016,0,0,1,66.031,0V208.65A7.368,7.368,0,0,1,217.648,216.018Z"/>
</svg>
