<svg xmlns="http://www.w3.org/2000/svg" width="10" height="8" viewBox="0 0 10 8">
  <defs>
    <style>
      .cls-1 {
        fill: #2090ec;
        fill-rule: evenodd;
      }
    </style>
  </defs>
  <path id="_" data-name="#" class="cls-1" d="M9,4.984L3.406,5,4.7,6.285A1,1,0,0,1,3.285,7.7l-3-2.969A0.972,0.972,0,0,1,.034,4.239,1,1,0,0,1,0,4.08a0.969,0.969,0,0,1,0-.133,0.978,0.978,0,0,1,.051-0.26c0.007-.02.011-0.039,0.02-0.058A0.968,0.968,0,0,1,.285,3.3l3-3A1,1,0,1,1,4.7,1.715l-1.3,1.3H9a0.974,0.974,0,0,1,1,.969A1,1,0,0,1,9,4.984Z"/>
</svg>
