<svg xmlns="http://www.w3.org/2000/svg" width="492" height="238" viewBox="0 0 492 238">
  <defs>
    <style>
      .cls-1 {
        fill: #f2f5f7;
        fill-rule: evenodd;
      }
    </style>
  </defs>
  <path id="_" data-name="#" class="cls-1" d="M490,208v5h0v25H0V226H0V195H87v12.285c15.358-5.653,30.433-15.681,37-26.129v10.326c-0.867,6.434-2.223,14.882-3.991,24.518H124V181h3v-9h1v1h6v4h-6v4h4v1.652C142.857,197.988,171.363,212,191.137,212c0.248,0,.79-0.009.863-0.012s0.615,0.012.863,0.012C213.278,212,243,197.064,253,181.156V181h3v-9h1v1h6v4h-6v4h4v1.609c8.116,11.5,26.135,22.257,43,26.934v1.163a91.23,91.23,0,0,1-35.133-18.487c8.9,9.655,21.459,18.816,35.133,23.164V216h0V116h64V226h8v-8h6V95h5V72h3V56h3V52h3V47h3V15h2V1h1V15h2V47h2v5h3v4h3V72h3V95h5V218h6v8h9V208h-1v-2h57v2h-1ZM44,226H55v-5H44v5Zm0-7H55v-4H44v4Zm-6,7h5v-5H38v5Zm-27,0H22v-5H11v5Zm0-7H22v-4H11v4Zm-6,7h5v-5H5v5Zm0-11v4h5v-4H5Zm11.5-12A11.494,11.494,0,0,0,5.109,213H6v-2H8v2h2v-2h2v2h2v-2h2v2h2v-2h2v2h2v-2h2v2h2v-2h1.454A11.5,11.5,0,0,0,16.5,203ZM28,215H23v4h5v-4Zm0,6H23v5h5v-5Zm10-6v4h5v-4H38Zm11.5-12a11.5,11.5,0,0,0-10.954,8H40v2h2v-2h2v2h2v-2h2v2h2v-2h2v2h2v-2h2v2h2v-2h2v2h0.891A11.494,11.494,0,0,0,49.5,203ZM61,215H56v4h5v-4Zm0,6H56v5h5v-5Zm20-11H80.966c0.007-.117.034-0.228,0.034-0.346a5.5,5.5,0,1,0-11,0c0,0.118.027,0.229,0.034,0.346H70v15H81V210Zm36.024,16q0.807-4.11,1.528-8H112.9c-1.122,2.651-2.308,5.328-3.557,8h7.678Zm-8.825,0c1.264-2.669,2.464-5.346,3.6-8H105.03c-0.374.486-.748,0.973-1.13,1.454-1.707,2.149-3.6,4.365-5.67,6.546H108.2ZM87,226h9.669a103.48,103.48,0,0,0,6.962-8H94.75A66.71,66.71,0,0,1,87,222.857V226Zm0-4.419A66.962,66.962,0,0,0,92.744,218H87v3.581Zm11.441-18.109A90.438,90.438,0,0,1,87,208.52v4.189a88.337,88.337,0,0,0,28.133-20.49A88.046,88.046,0,0,1,98.441,203.472ZM100.4,206.4a77.576,77.576,0,0,1-13.4,7.5V216h8.494a101.506,101.506,0,0,0,24.7-28.166A95.353,95.353,0,0,1,100.4,206.4Zm1.96,5.307c-1.645,1.538-3.309,2.962-4.985,4.292h7.806a134.065,134.065,0,0,0,16.453-28.621A108.564,108.564,0,0,1,102.357,211.708ZM106.538,216h6.107a232.068,232.068,0,0,0,9.577-27.429A137.238,137.238,0,0,1,106.538,216Zm16.813-27.943A234.316,234.316,0,0,1,113.737,216h5.183C121.021,204.516,122.532,194.748,123.351,188.057ZM124,218h-4.362q-0.725,3.891-1.533,8H124v-8Zm122.024,8q0.807-4.11,1.528-8H241.9c-1.122,2.651-2.308,5.328-3.557,8h7.678Zm-8.825,0c1.264-2.669,2.464-5.346,3.6-8H234.03c-0.374.486-.748,0.973-1.13,1.454-1.707,2.149-3.6,4.365-5.67,6.546H237.2Zm-11.53,0a103.5,103.5,0,0,0,6.962-8h-8.9a61.5,61.5,0,0,1-14.709,8h16.646Zm-19.959,0a58.813,58.813,0,0,0,16.042-8h-18.76a52.253,52.253,0,0,1-10.087,1.017c-0.155,0-.351,0-0.506-0.007L192,219l-0.4.006c-0.155,0-.351.007-0.506,0.007A52.253,52.253,0,0,1,181.008,218h-18.76a58.813,58.813,0,0,0,16.042,8h27.42Zm-11.869-8h-3.682c0.327,0.007.655,0.019,0.983,0.019,0.248,0,.785.017,0.858,0.018s0.61-.018.858-0.018C193.186,218.019,193.514,218.007,193.841,218Zm-18.864,8a61.5,61.5,0,0,1-14.709-8h-8.9a103.5,103.5,0,0,0,6.962,8h16.646Zm-18.207,0c-2.066-2.181-3.963-4.4-5.67-6.546-0.382-.481-0.756-0.968-1.13-1.454H143.2c1.136,2.654,2.336,5.331,3.6,8h9.969Zm-11.116,0c-1.249-2.672-2.435-5.349-3.557-8h-5.649q0.723,3.888,1.528,8h7.678ZM132,226h4.9q-0.809-4.106-1.533-8H132v8Zm0-10h2.991c-1.193-6.5-2.2-12.456-2.991-17.621V216Zm0-25.213c0.866,6.5,2.247,15.2,4.08,25.213h5.183A238.171,238.171,0,0,1,132,189.344v1.443ZM142.354,216h6.108a137.238,137.238,0,0,1-15.684-27.429A232.223,232.223,0,0,0,142.354,216Zm7.468,0h7.807c-1.676-1.332-3.341-2.754-4.986-4.292a108.564,108.564,0,0,1-19.274-24.329A134.065,134.065,0,0,0,149.822,216Zm9.669,0h13.985a75.261,75.261,0,0,1-18.873-9.6,95.353,95.353,0,0,1-19.8-18.567A101.515,101.515,0,0,0,159.491,216Zm67.95-12.528C215.489,209.764,202.888,213,192.905,213c-0.155,0-.351,0-0.506-0.007-0.1,0-.36-0.005-0.4-0.006s-0.3,0-.4.006c-0.155,0-.351.007-0.506,0.007-9.983,0-22.584-3.234-34.536-9.526a88.036,88.036,0,0,1-16.692-11.253c9.35,10.142,22.734,19.735,37.209,23.781h29.848c14.475-4.046,27.859-13.639,37.209-23.781A88.036,88.036,0,0,1,227.441,203.472ZM229.4,206.4a75.261,75.261,0,0,1-18.873,9.6h13.985a101.515,101.515,0,0,0,24.684-28.166A95.353,95.353,0,0,1,229.4,206.4Zm1.96,5.307c-1.645,1.538-3.31,2.96-4.986,4.292h7.807a134.065,134.065,0,0,0,16.453-28.621A108.564,108.564,0,0,1,231.357,211.708ZM235.538,216h6.107a232.068,232.068,0,0,0,9.577-27.429A137.238,137.238,0,0,1,235.538,216Zm7.2,0h5.183c2.1-11.484,3.612-21.252,4.431-27.943A234.316,234.316,0,0,1,242.737,216ZM253,191.482c-0.867,6.434-2.223,14.882-3.991,24.518H253V191.482ZM253,218h-4.362q-0.725,3.891-1.532,8H253v-8Zm98,8h10V207H351v19Zm-20,0h10V207H331v19Zm-27.023,0a61.5,61.5,0,0,1-14.709-8h-8.9a103.5,103.5,0,0,0,6.962,8h16.646Zm-18.207,0c-2.066-2.181-3.963-4.4-5.67-6.546-0.382-.481-0.756-0.968-1.13-1.454H272.2c1.136,2.654,2.336,5.331,3.6,8h9.969Zm-11.116,0c-1.249-2.672-2.435-5.349-3.557-8h-5.649q0.723,3.888,1.528,8h7.678ZM261,226h4.894q-0.808-4.106-1.532-8H261v8Zm0-10h2.991c-1.193-6.5-2.2-12.455-2.991-17.62V216Zm0-25.213c0.866,6.5,2.247,15.2,4.08,25.213h5.183A238.171,238.171,0,0,1,261,189.344v1.443ZM271.354,216h6.108a137.238,137.238,0,0,1-15.684-27.429A232.223,232.223,0,0,0,271.354,216Zm7.468,0h7.807c-1.676-1.332-3.341-2.754-4.986-4.292a108.564,108.564,0,0,1-19.274-24.329A134.065,134.065,0,0,0,278.822,216Zm4.781-9.6a95.353,95.353,0,0,1-19.8-18.567A101.491,101.491,0,0,0,288.489,216h14.033A75.333,75.333,0,0,1,283.6,206.4ZM304,218H291.246A61.251,61.251,0,0,0,304,224.855V226h0v-8Zm16-96h-8v13h8V122Zm0,28h-8v13h8V150Zm0,28h-8v13h8V178Zm1,29H311v19h10V207Zm0,31h0Zm41-36V191h-2V178h-8v13h-3l-11.48-17H362V162h-2V150h-8v12h-3.679l-10.13-15H362V135h-2V122h-8v13H340V122h-8v13h-7v12h5.356l2,3H332v12h-7v12h4.6l2.763,4H332v13h-7v12h37v-1Zm28-101h-2V219h2V101Zm3-21h-2V98h2V80Zm0,21h-2V219h2V101Zm3-41h-2l0.033,3.99L396,64V60Zm0,8h-2V78h2V68Zm0,12h-2V98h2V80Zm0,21h-2V219h2V101Zm1-41v4l1.951-.01L399,60h-2Zm2,8h-2V198h2V68Zm0,132h-2v26h2V200Zm3-178h-1V52h1V22Zm0,38h-2v4h2V60Zm0,8h-2V198h2V68Zm0,132h-2v26h2V200Zm3-140h-2v4h2V60Zm0,8h-2V198h2V68Zm0,132h-2v26h2V200Zm3-140h-2v4h2V60Zm0,8h-2V78h2V68Zm0,12h-2V98h2V80Zm0,21h-2V219h2V101Zm3-21h-2V98h2V80Zm0,21h-2V219h2V101Zm3,0h-2V219h2V101Zm39,109H440v6h13v-6Zm0,7H440v7h13v-7Zm16-7H456v6h13v-6Zm0,7H456v7h13v-7Zm16-7H472v6h13v-6Zm0,7H472v7h13v-7ZM328,202h-2V192h2v10Zm3,0h-2V192h2v10Zm3,0h-2V192h2v10Zm3,0h-2V192h2v10Zm3-10h0v10h-2V192h2Zm3,1.947V202h-2V192h0.7Zm3,3.091-2-3V192h2v5.038ZM346,202h-2v-6.555l2,3V202Zm3-.467-2-3V192h2v9.533ZM347,202v-2.06l1.375,2.06H347Zm5,0h-2V192h2v10Zm3,0h-2V192h2v10Zm3,0h-2V192h2v10Zm3,0h-2V192h2v10Zm-18.362-10H343v0.542ZM340,189.451L341.034,191H340v-1.549Zm0-1.4v-8.975L348.055,191h-6.084ZM336.453,174l1.063,0h-1.062v0ZM335,163h2v10h-2V163Zm-3.707-16h5.957l2.026,3H333.3ZM340,173h-2V163h2v10Zm0-11.549L340.366,162H340v-0.549Zm3,4.5V173h-2V163h0.034Zm3,3.091-2-3V163h2v6.038ZM346,173h-2v-5.555l2,3V173Zm3-9.994V173h-0.356L347,170.536V163h1.055Zm0-.006v0.006l0-.006h0Zm-2,10v-1.06l0.707,1.06H347Zm5,0h-2V163h2v10Zm3,0h-2V163h2v10Zm3,0h-2V163h2v10Zm3,0h-2V163h2v10Zm-19.029-10H343v1.542ZM340,160.047v-8.975L347.38,162H341.3ZM338,136h2v10h-2V136Zm5,10h-2V136h2v10Zm3,0h-2V136h2v10Zm3,0h-2V136h2v10Zm3,0h-2V136h2v10Zm3,0h-2V136h2v10Zm3,0h-2V136h2v10Zm3,0h-2V136h2v10Zm-26,0V136h2v10h-2Zm-3,0V136h2v10h-2Zm-3-10h2v10h-2V136Zm-3,0h2v10h-2V136Zm8,37h-2V163h2v10Zm-5-10h2v10h-2V163Zm-3,0h2v10h-2V163Zm4.625,11H329.6v0Zm8.651,4H333.3l-2.67-4h5.829ZM75.5,208a2.5,2.5,0,0,1,2.45,2H78v8H73v-8h0.05A2.5,2.5,0,0,1,75.5,208ZM485,204H435V122h55v82h-5Zm-13-31h1v-9h-1v9Zm0-26h6v-2h-6v2Zm0-3h6v-2h-6v2Zm0-3h6v-6h-6v6Zm-16,32h1v-9h-1v9Zm0-26h6v-2h-6v2Zm0-3h6v-2h-6v2Zm0-3h6v-6h-6v6Zm-16,32h1v-9h-1v9Zm0-26h6v-2h-6v2Zm0-3h6v-2h-6v2Zm0-3h6v-6h-6v6Zm13-13H440v6h13v-6Zm0,7h-6v6h6v-6Zm0,7h-6v2h6v-2Zm0,3h-6v2h6v-2Zm0,12.445h-0.107a6.476,6.476,0,0,0-12.786,0H440V159h13v-1.555ZM453,160H440v3h13v-3Zm-11,4v9h1v-9h-1Zm2,0v9h1v-9h-1Zm2,0v9h1v-9h-1Zm2,0v9h1v-9h-1Zm2,0v9h1v-9h-1Zm3,0h-1v9h1v-9Zm0,15H440v21h13V179Zm16-51H456v6h13v-6Zm0,7h-6v6h6v-6Zm0,7h-6v2h6v-2Zm0,3h-6v2h6v-2Zm0,12.445h-0.107a6.476,6.476,0,0,0-12.786,0H456V159h13v-1.555ZM469,160H456v3h13v-3Zm-11,4v9h1v-9h-1Zm2,0v9h1v-9h-1Zm2,0v9h1v-9h-1Zm2,0v9h1v-9h-1Zm2,0v9h1v-9h-1Zm3,0h-1v9h1v-9Zm0,15H456v21h13V179Zm16-51H472v6h13v-6Zm0,7h-6v6h6v-6Zm0,7h-6v2h6v-2Zm0,3h-6v2h6v-2Zm0,12.445h-0.107a6.476,6.476,0,0,0-12.786,0H472V159h13v-1.555ZM485,160H472v3h13v-3Zm-11,4v9h1v-9h-1Zm2,0v9h1v-9h-1Zm2,0v9h1v-9h-1Zm2,0v9h1v-9h-1Zm2,0v9h1v-9h-1Zm3,0h-1v9h1v-9Zm0,36V179H472v21h13Zm-50-81h55v2H435v-2Zm-131-7h64v3H304v-3Zm61-1h-8v-2h-4v2H343v-2h-4v2h-8v-2h-4v2h-8v-2h-4v2h-8v-2h-3v-3h64v3h-3v2Zm-4-11h4v5h-4v-5Zm-14,6h-4v-3h4v3Zm-18,0h-4v-3h4v3Zm19-4H324a4,4,0,0,1-4-4V74a4,4,0,0,1,4-4h24a4,4,0,0,1,4,4V98A4,4,0,0,1,348,102ZM336,75.933a6.01,6.01,0,0,0-6.034,5.98c0,0.178.012,0.353,0.027,0.527v6.132a1.357,1.357,0,0,0,1.357,1.357H334v4.109a2,2,0,0,0,4,0V89.928h2.649a1.357,1.357,0,0,0,1.357-1.357V82.443c0.016-.175.027-0.351,0.027-0.531A6.01,6.01,0,0,0,336,75.933ZM307,100h4v5h-4v-5ZM1,176v-5H3v2H22v-2h2v2H43v-2h2v2H63v-2h2v2H84v-2h2v23H1V176Zm65,14H81v-3H66v3Zm0-5H81v-6H66v6Zm-1-10H84v-1H65v1ZM46,190H61v-3H46v3Zm0-5H61v-6H46v6Zm-1-10H63v-1H45v1ZM26,190H41v-3H26v3Zm0-5H41v-6H26v6Zm-2-10H43v-1H24v1ZM6,190H21v-3H6v3Zm0-5H21v-6H6v6ZM3,175H22v-1H3v1Z"/>
</svg>
