<svg xmlns="http://www.w3.org/2000/svg" xmlns:xlink="http://www.w3.org/1999/xlink" viewBox="0 0 300 200">
  <defs>
    <style>
      .cls-1 {
        fill: #bcdcff;
      }

      .cls-2 {
        clip-path: url(#clip-shape);
      }

      .cls-3 {
        fill: #448cda;
      }

      .cls-4 {
        clip-path: url(#clip-path);
      }

      .cls-5 {
        fill: #86c0ff;
      }

      .cls-6 {
        fill: #76bf64;
      }

      .cls-7 {
        fill: #b0e6a2;
      }

      .cls-8 {
        fill: #91d481;
      }

      .cls-9 {
        fill: #d5f6cd;
      }

      .cls-10 {
        fill: #fff;
      }

      .cls-11 {
        fill: #94979d;
        opacity: 0.949;
      }

      .cls-12 {
        fill: #bfc1c5;
      }

      .cls-12, .cls-16 {
        opacity: 0.8;
      }

      .cls-13, .cls-14, .cls-15, .cls-16 {
        fill: #2a97f9;
      }

      .cls-13 {
        opacity: 0.6;
      }

      .cls-15 {
        opacity: 0.502;
      }

      .cls-17 {
        fill: #bbe5ff;
      }

      .cls-18 {
        fill: #b1dfa5;
      }

      .cls-19 {
        fill: #60a84e;
      }

      .cls-20 {
        fill: #999ca2;
      }
    </style>
    <clipPath id="clip-path">
      <rect id="_" data-name="#" class="cls-1" width="30" height="30" rx="3" transform="translate(777 848)"/>
    </clipPath>
    <clipPath id="clip-shape">
      <rect width="300" height="200"/>
    </clipPath>
  </defs>
  <g id="shape" data-name="shape" class="cls-2">
    <g id="_2" data-name="#" transform="translate(-760 -831)">
      <circle id="_3" data-name="#" class="cls-3" cx="32" cy="32" r="32" transform="translate(760 831)"/>
      <g id="_4" data-name="#">
        <rect id="_5" data-name="#" class="cls-1" width="30" height="30" rx="3" transform="translate(777 848)"/>
        <g id="Clip" class="cls-4">
          <path id="_6" data-name="#" class="cls-5" d="M797,878.5H776v-7.785l11-9.216v.018l10,5.982v-.061l11-11.862V878.5Z"/>
          <path id="_7" data-name="#" class="cls-3" d="M809.518,856.342v24.381H775.482v-8.279l11.7-9.8,10.636,6.382,11.7-12.682m2.127-5.443-3.691,4-10.526,11.409-9.152-5.491-1.3-.779-1.161.973-11.7,9.8-.761.638v11.4h38.29V850.9Z"/>
        </g>
      </g>
    </g>
    <g id="_8" data-name="#" transform="translate(-686 -1954)">
      <circle id="_9" data-name="#" class="cls-6" cx="32" cy="32" r="32" transform="translate(760 1954)"/>
      <path id="_10" data-name="#" class="cls-7" d="M804.987,1980H777v-4a3.965,3.965,0,0,1,1-2.62V1973h.38a3.969,3.969,0,0,1,2.62-1h22a4,4,0,0,1,4,4v4h-2.013Z"/>
      <path id="_11" data-name="#" class="cls-8" d="M807,1984v12a4,4,0,0,1-4,4H789v-18h18v2Z"/>
      <path id="_12" data-name="#" class="cls-9" d="M787,1982v18h-6a4,4,0,0,1-4-4v-14h10Z"/>
    </g>
    <circle id="_13" data-name="#" class="cls-10" cx="32" cy="32" r="32" transform="translate(148)"/>
    <path id="_14" data-name="#" class="cls-11" d="M805.969,3011.134l-3.3-5.966a.291.291,0,0,0-.258-.16H782.589a.29.29,0,0,0-.258.161l-3.3,5.966a.318.318,0,0,0-.035.145,3.66,3.66,0,0,0,3.6,3.714,3.552,3.552,0,0,1,6.607,0,3.559,3.559,0,0,1,6.606,0,3.552,3.552,0,0,1,6.606,0,3.661,3.661,0,0,0,3.6-3.714A.321.321,0,0,0,805.969,3011.134Z" transform="translate(-612 -2985)"/>
    <path id="Shape_992" data-name="Shape 992" class="cls-12" d="M782.007,3017.564a11.151,11.151,0,0,0,2.991-.579l.01,9.938,2.969-2.957H797l2.991,3.007v-9.989a11.577,11.577,0,0,0,3.014.949v10.88a1.231,1.231,0,0,1-1.273,1.185H783.277a1.231,1.231,0,0,1-1.273-1.185Z" transform="translate(-612 -2985)"/>
    <g id="_15" data-name="–" transform="translate(-151 -1095)">
      <path id="_16" data-name="#" class="cls-13" d="M296,1215a24.921,24.921,0,1,1,9.731-1.965A24.845,24.845,0,0,1,296,1215Zm0-48a23,23,0,1,0,23,23A23.026,23.026,0,0,0,296,1167Z"/>
      <g id="Group_5" data-name="Group 5">
        <path id="Shape_993" data-name="Shape 993" class="cls-14" d="M289,1197v-14a1,1,0,0,1,2,0v14a1,1,0,0,1-2,0Zm-4,0v-8a1,1,0,0,1,2,0v8a1,1,0,0,1-2,0Z"/>
        <path id="Shape_995" data-name="Shape 995" class="cls-15" d="M305,1197v-6a1,1,0,0,1,2,0v6a1,1,0,0,1-2,0Zm-4,0v-10a1,1,0,0,1,2,0v10a1,1,0,0,1-2,0Z"/>
        <path id="Shape_994" data-name="Shape 994" class="cls-16" d="M297,1197v-14a1,1,0,0,1,2,0v14a1,1,0,0,1-2,0Zm-4,0v-10a1,1,0,0,1,2,0v10a1,1,0,0,1-2,0Z"/>
      </g>
    </g>
    <g id="_17" data-name="–" transform="translate(-271 -1357)">
      <path id="_18" data-name="#" class="cls-13" d="M296,1477a24.921,24.921,0,1,1,9.731-1.964A24.845,24.845,0,0,1,296,1477Zm0-48a23,23,0,1,0,23,23A23.026,23.026,0,0,0,296,1429Z"/>
      <rect id="_19" data-name="#" class="cls-14" width="16.01" height="24.02" rx="2.5" transform="translate(288 1439.98)"/>
      <rect id="_20" data-name="#" class="cls-17" width="12" height="18" transform="translate(290 1443)"/>
    </g>
    <g id="_21" data-name="–" transform="translate(-211 -1227)">
      <path id="_22" data-name="#" class="cls-13" d="M296,1347a24.921,24.921,0,1,1,9.731-1.965A24.845,24.845,0,0,1,296,1347Zm0-48a23,23,0,1,0,23,23A23.026,23.026,0,0,0,296,1299Z"/>
      <circle id="Shape_998" data-name="Shape 998" class="cls-17" cx="11" cy="11" r="11" transform="translate(285 1311)"/>
      <path id="_23" data-name="#" class="cls-14" d="M296,1309.969a12,12,0,1,0,12,12A12,12,0,0,0,296,1309.969Zm-4.645,2.811a10.538,10.538,0,0,0-.616.96,12.939,12.939,0,0,0-.8,1.682q-.744-.205-1.481-.461A10.376,10.376,0,0,1,291.355,1312.78Zm-4.137,3.816q1.056.4,2.129.7a18.837,18.837,0,0,0-.538,3.7h-3.06A10.231,10.231,0,0,1,287.219,1316.6Zm0,10.746a10.23,10.23,0,0,1-1.469-4.392h3.06a18.835,18.835,0,0,0,.538,3.7Q288.275,1326.945,287.219,1327.342Zm1.244,1.635q.736-.255,1.481-.46a12.935,12.935,0,0,0,.8,1.681,10.478,10.478,0,0,0,.616.96A10.358,10.358,0,0,1,288.462,1328.977Zm6.558,2.781a6.315,6.315,0,0,1-3.141-3.686,22.845,22.845,0,0,1,3.141-.357Zm0-6.007a24.72,24.72,0,0,0-3.761.443,16.914,16.914,0,0,1-.487-3.244h4.248Zm0-4.762h-4.248a16.919,16.919,0,0,1,.487-3.244,24.626,24.626,0,0,0,3.761.442Zm0-4.766a22.674,22.674,0,0,1-3.141-.356,6.321,6.321,0,0,1,3.141-3.686Zm9.762.374a10.224,10.224,0,0,1,1.469,4.392h-3.06a18.851,18.851,0,0,0-.538-3.7Q303.725,1316.993,304.782,1316.6Zm-1.244-1.635q-.736.256-1.481.46a12.924,12.924,0,0,0-.8-1.682,10.512,10.512,0,0,0-.616-.96A10.368,10.368,0,0,1,303.538,1314.961Zm-6.558-2.782a6.321,6.321,0,0,1,3.142,3.687,22.728,22.728,0,0,1-3.142.356Zm0,6.008a24.686,24.686,0,0,0,3.761-.443,16.927,16.927,0,0,1,.487,3.244H296.98v-2.8Zm0,4.762h4.248a16.921,16.921,0,0,1-.487,3.244,24.717,24.717,0,0,0-3.761-.443v-2.8Zm0,8.808v-4.043a22.841,22.841,0,0,1,3.142.357A6.316,6.316,0,0,1,296.98,1331.757Zm3.665-.6a10.555,10.555,0,0,0,.616-.96,12.914,12.914,0,0,0,.8-1.682q.744.2,1.481.46A10.349,10.349,0,0,1,300.645,1331.158Zm4.137-3.817q-1.056-.4-2.129-.695a18.844,18.844,0,0,0,.538-3.7h3.06A10.224,10.224,0,0,1,304.782,1327.341Z"/>
    </g>
    <g id="_24" data-name="–" transform="translate(-923 -2178)">
      <circle id="_25" data-name="#" class="cls-18" cx="13.5" cy="13.5" r="13.5" transform="translate(923 2308)"/>
      <path id="_26" data-name="#" class="cls-19" d="M942.581,2318.963l-7.456,7.738a1,1,0,0,1-1.484-.087l-3.383-3.708a1.19,1.19,0,0,1,.081-1.6,1,1,0,0,1,1.484.087l2.62,2.872,6.735-6.99a1,1,0,0,1,1.484.087A1.191,1.191,0,0,1,942.581,2318.963Z"/>
    </g>
    <g id="_27" data-name="–" transform="translate(-886 -3155)">
      <circle id="_28" data-name="#" class="cls-10" cx="13.5" cy="13.5" r="13.5" transform="translate(923 3285)"/>
      <path id="_29" data-name="#" class="cls-20" d="M935,3304h-1v-1h-1v-1h-1v-1h-1v-1h-1v-1l1-1h1v1h1v1h1v1h1v-1h1v-1h1v-1h1v-1h1v-1h1v-1h1v-.081l0-.919h1l1,1v1h-1v1h-1v1h-1v1h-1v1h-1v1h-1v1h-1v1h-1v1Z"/>
    </g>
  </g>
</svg>
