<svg xmlns="http://www.w3.org/2000/svg" width="199" height="95" viewBox="0 0 199 95">
  <defs>
    <style>
      .cls-1 {
        fill: #fff;
        fill-rule: evenodd;
      }
    </style>
  </defs>
  <path id="Logotype" class="cls-1" d="M138.509,16.174C141.438,10.4,143.2,3.272,149.462.139c-0.037,2.639.627,5.476-.6,7.956-6.436,12.976-13.783,25.471-21.154,37.941,4.873-1.073,11.7-4.786,14.964,1.012-4.172,1.443-8.479,2.529-12.5,4.379,3.729,2.689,7.753-.592,11.531-1.382,3.015-1.221,6.2-.259,9.229.37,5.378-7.3,9.7-15.356,15.542-22.313a26.225,26.225,0,0,1,3.4,3.429c-0.874,5.279-4.012,9.769-6.7,14.271-3.1,4.786-5.8,9.806-8.5,14.826,4.11-.21,8.553-0.518,12.072,2.047,6.239,4.194,13.672,7.228,21.326,5.982,3.076,0.012,6.891-2.59,9.279.395,1.464,1.455.9,3.836,1.365,5.686-6.755-1-13.634-.617-20.353-1.85-6.4-1.1-11.777-4.909-17.3-8.067a49.215,49.215,0,0,1-11.6,3.5c-0.443-2.6-.812-5.217-1.193-7.82-3.126,3.256-5.538,7.845-10.042,9.3-6.079.962-12.023,3.022-18.249,2.6,0.689,6.723,2.522,14.284-.825,20.55-5.439,2.886-12,1.443-17.277-1.1a162.361,162.361,0,0,1-28.02-18.638c-2.99,2.776-5.784,5.945-9.475,7.808-1.969,1.209-3.79-.851-5.6-1.443,3.347-3.54,7.174-6.562,10.817-9.781q-2.4-1.721-4.824-3.4c-2.978,4.441-5.8,8.98-8.4,13.642-1.76-.136-3.52-0.3-5.267-0.468,1.4-6.18,6.054-10.583,9.426-15.7C52.48,58.667,43.792,54.449,36.31,48.43c-9.426,4.946-19.948,10.213-25.03,20.093,3.962,0.74,8.171,1.3,12.023-.259,7.937-2.973,15.764-6.525,24.156-8.005,3.483-.9,7.888,1.344,7.9,5.279-9.672,4.033-20.1,5.847-30.3,8.116-6.571,1.431-12.318,5.094-18.557,7.462-2.19.95-4.282-.876-6.313-1.48A42.628,42.628,0,0,1,10.48,74.123c-2.043-3.22-5.734-7.475-2.83-11.25C13.766,55.14,22.884,50.7,30.846,45.2,35.805,41.448,41.687,39.339,47,36.206c-1.784-1.2-3.556-2.38-5.316-3.589-7.728,4.367-17.536,9.609-26.138,4.342q1.385-2.59,2.88-5.131c5.144,3.589,11.026.383,16.17-1.431,6.473-2.8,12.921-5.711,19.1-9.152,4.688-2.59,8.7-6.364,13.746-8.3,1.9,0.715,2.51,2.787,2.843,4.6-4.775,5-11.764,6.858-17.007,11.262,4.405-.925,8.5-2.9,12.872-3.935C67.7,26.461,70.5,29.545,67.64,31.3c-8.626,4.354-17.253,8.758-25.768,13.346,5.452,6.907,13.524,10.669,20.8,15.271,8.429-12.7,17.548-25.027,28.168-35.993,2.9-2.714,6.264-6.192,10.607-5.613,4.5,1.221,6.03,6.094,7.089,10.115,2.3,8.992,4.983,17.885,7.568,26.816C123.841,42.373,131.84,29.644,138.509,16.174Zm-52.9,20.969C79.146,45.469,72.23,53.524,67.16,62.824c1.883,1.27,3.766,2.566,5.624,3.9,3.249-2.59,6.891-4.946,8.983-8.646,2.3-3.59,4.024-8.005,8.023-10.028,2.3-.272,5.291,2.529,3.839,4.774-2.424,4.823-6.867,8.239-9.414,13.013,5.4-4.218,10.042-9.3,15.469-13.494,2.756,2.048,5.476,4.145,8.2,6.254-2.006,5.983-3.777,12.088-4.134,18.428l-4.406-.37c-0.209-2.258-.381-4.515-0.517-6.784-1.723,1.838-3.446,3.651-5.242,5.415-1.28-.678-2.572-1.369-3.864-2.048,1.157-2.825,2.326-5.636,3.47-8.474a63.073,63.073,0,0,1-11.051,9.6c7.039,5.008,13.967,10.25,21.6,14.308,3.606,2.01,7.8,2.122,11.814,2.1,1.23-7.537-.012-15.073-1.071-22.536-1.8-.654-3.581-1.3-5.365-1.949,1.292-3.084,3.7-6.241,2.387-9.744-2.83-11.545-5.648-23.189-10.226-34.192C94.922,25.931,90.135,31.556,85.607,37.143Zm31.847,27.9c3.557-3,6.965-6.179,10.657-9.029q-1.993-2.2-4-4.391C121.491,55.88,118.623,60.11,117.454,65.044Zm17.893-8.794c-0.677,2,0,2.677,2.006,2.01C138.017,56.25,137.353,55.584,135.347,56.25Zm-11.789,12.2c3.938-1.172,8.528-3.565,7.4-8.5A18.569,18.569,0,0,0,123.558,68.449Z"/>
</svg>
