<svg id="Social" xmlns="http://www.w3.org/2000/svg" width="28" height="28" viewBox="0 0 28 28">
  <defs>
    <style>
      .cls-1 {
        fill: #fff;
        fill-rule: evenodd;
      }
    </style>
  </defs>
  <path id="Instagram" class="cls-1" d="M24.923,18.811a7.688,7.688,0,0,1-.488,2.546,5.363,5.363,0,0,1-3.067,3.068,7.707,7.707,0,0,1-2.546.487c-1.119.051-1.476,0.063-4.324,0.063s-3.206-.012-4.324-0.063a7.707,7.707,0,0,1-2.546-.487A5.367,5.367,0,0,1,4.56,21.357a7.7,7.7,0,0,1-.488-2.546c-0.051-1.119-.063-1.476-0.063-4.324s0.013-3.206.063-4.325A7.7,7.7,0,0,1,4.56,7.617,5.367,5.367,0,0,1,7.627,4.549a7.69,7.69,0,0,1,2.546-.487C11.292,4.01,11.65,4,14.5,4s3.206,0.011,4.324.063a7.69,7.69,0,0,1,2.546.487,5.363,5.363,0,0,1,3.067,3.068,7.681,7.681,0,0,1,.488,2.545c0.051,1.119.063,1.476,0.063,4.325S24.974,17.692,24.923,18.811Zm-1.935-8.54a5.792,5.792,0,0,0-.359-1.937,3.458,3.458,0,0,0-1.98-1.98A5.76,5.76,0,0,0,18.713,6c-1.1-.05-1.429-0.061-4.215-0.061S11.383,5.946,10.282,6a5.76,5.76,0,0,0-1.937.359,3.459,3.459,0,0,0-1.98,1.98,5.8,5.8,0,0,0-.358,1.937c-0.05,1.1-.061,1.43-0.061,4.216S5.958,17.6,6.008,18.7a5.79,5.79,0,0,0,.358,1.937,3.458,3.458,0,0,0,1.98,1.98,5.8,5.8,0,0,0,1.937.359c1.1,0.05,1.43.061,4.216,0.061s3.115-.011,4.215-0.061a5.8,5.8,0,0,0,1.937-.359,3.457,3.457,0,0,0,1.98-1.98,5.785,5.785,0,0,0,.359-1.937c0.05-1.1.061-1.429,0.061-4.214S23.039,11.372,22.988,10.272Zm-2.954,0a1.259,1.259,0,1,1,1.259-1.258A1.258,1.258,0,0,1,20.034,10.271Zm-5.521,9.742A5.511,5.511,0,1,1,20.024,14.5,5.511,5.511,0,0,1,14.513,20.013Zm0-9.087A3.577,3.577,0,1,0,18.091,14.5,3.578,3.578,0,0,0,14.513,10.926Z"/>
</svg>
