<svg id="Social" xmlns="http://www.w3.org/2000/svg" width="28" height="28" viewBox="0 0 28 28">
  <defs>
    <style>
      .cls-1 {
        fill: #fff;
        fill-rule: evenodd;
      }
    </style>
  </defs>
  <path id="LinkedIn" class="cls-1" d="M22.75,25H6.25A2.251,2.251,0,0,1,4,22.75V6.251A2.251,2.251,0,0,1,6.25,4h16.5A2.251,2.251,0,0,1,25,6.251v16.5A2.251,2.251,0,0,1,22.75,25ZM7.011,21.988H9.987V11.975H7.011V21.988ZM8.453,6.748a1.816,1.816,0,1,0,1.815,1.815A1.816,1.816,0,0,0,8.453,6.748ZM22,16.774c0-2.713-.6-4.8-3.84-4.8A3.512,3.512,0,0,0,15,13.383H14.959V12.006H12.013v9.982h2.98V17.5c0-1.314.475-2.587,2.14-2.587,1.642,0,1.851,1.5,1.851,2.671v4.4H22V16.774Z"/>
</svg>
