<svg xmlns="http://www.w3.org/2000/svg" width="26" height="22" viewBox="0 0 26 22">
  <defs>
    <style>
      .cls-1 {
        fill: #fff;
        fill-rule: evenodd;
      }
    </style>
  </defs>
  <path id="footer-twitter" class="cls-1" d="M25.255,3.239A9.662,9.662,0,0,1,22.477,4,4.856,4.856,0,0,0,24.6,1.324,9.7,9.7,0,0,1,21.531,2.5a4.838,4.838,0,0,0-8.24,4.411A13.731,13.731,0,0,1,3.323,1.856a4.841,4.841,0,0,0,1.5,6.455,4.8,4.8,0,0,1-2.191-.6V7.769a4.841,4.841,0,0,0,3.878,4.742,4.867,4.867,0,0,1-2.184.083,4.845,4.845,0,0,0,4.518,3.36,9.715,9.715,0,0,1-6.006,2.069,10.08,10.08,0,0,1-1.153-.067A13.646,13.646,0,0,0,9.1,20.065a13.615,13.615,0,0,0,13.759-13.7c0-.209,0-0.418-0.015-0.626a9.859,9.859,0,0,0,2.414-2.5h0Z"/>
</svg>
