<svg xmlns="http://www.w3.org/2000/svg" width="122" height="62" viewBox="0 0 122 62">
  <defs>
    <style>
      .cls-1 {
        fill: #fff;
        fill-rule: evenodd;
      }
    </style>
  </defs>
  <path id="footer-logo" class="cls-1" d="M120.88,4.469a14.423,14.423,0,0,1-3.6,2.05,15.824,15.824,0,0,0-2.2,1.467c-2.122,1.61-3.661,5.267-5.373,9.272,0,0-.729,1.968-3.947,4.084-0.541.349-.052,0.648,0.539,1.4,0.757,1,2.275,5.063,2.079,11.247a4.177,4.177,0,0,0,.916,2.474c0.871,1.55,2.9,1.235,2.859,3.27-0.058,2.731,1.968,3.313,1.319,4.575a5.483,5.483,0,0,0-.465,2.707c0,0.452.246,1.113-.7,1.065-3.857-.233-3.442-5.381-3.371-7.152a1.152,1.152,0,0,0-.145-0.673c-0.192-.139-2.906-2.028-3.066-2.186a25.431,25.431,0,0,1-5.914-8.334,12.631,12.631,0,0,0-2.695-4.764,7.248,7.248,0,0,0-4.63-2C81.77,22.917,79.563,18.233,76.645,15.9a1.431,1.431,0,0,0-.51-0.227,0.865,0.865,0,0,0-.4.294,4.745,4.745,0,0,1-3.787,1.559c-3.624,0-7.523-3.162-8.211-2.458-0.524.55-.069,1.682-1.032,1.871a2.394,2.394,0,0,1-2.722-2.253c0.21-2.079,2.345-2.687,4.22-2.9a9.514,9.514,0,0,1,3.106.292c0.864,0.121,1.016-.921.874-1.593-0.161-.729-0.844-0.88-1.556-1.091-0.868-.259-1.833.459-2.48,0.24A3.971,3.971,0,0,1,62.7,8.417c-0.8-.7-1.729-0.882-1.727-1.861,0-.907,1.108-0.981,1.422-1.812,0.16-.416.115-0.85,0.257-1.1C63.029,2.964,63.731,3,64.3,2.448c0.769-.762,1.153-2.223,1.552-2.283s1.068,1.4,1.464,1.272c0.421-.144,1.01-1.378,1.584-1.3a9.387,9.387,0,0,1,1.221,1.977c7.859,0.385,17.561,9.867,18.81,10.826a28.332,28.332,0,0,0,7.8,5.114,11.9,11.9,0,0,0,5.614,1.063c2.377-.17,5.035-2.248,6.671-5.077,2.049-3.54,2.92-9.706,8.837-13.2,0.828-.489,2.7-1.582,3.79-0.2C122.509,1.746,121.788,3.587,120.88,4.469ZM73.988,34.647V62.005H66V37.5a1.5,1.5,0,1,0-3,0V62.005H55V37.5a1.5,1.5,0,1,0-3,0V62.005H44V34.647a2.647,2.647,0,0,1,2.642-2.655h24.7A2.649,2.649,0,0,1,73.988,34.647Zm-35.4,27.358H24.412a2.416,2.416,0,0,1-2.4-2.42V31.993h8l0,23.633a1.525,1.525,0,0,0,1.5,1.384,1.5,1.5,0,0,0,1.474-1.384l0.007-23.633h8V59.585A2.407,2.407,0,0,1,38.589,62.005ZM16.335,54H8v7.971H0V32.024H16.387A2.624,2.624,0,0,1,19,34.69V51.334A2.662,2.662,0,0,1,16.335,54ZM11.006,37.4a1.391,1.391,0,0,0-1.375-1.41H8V49.963H9.63a1.373,1.373,0,0,0,1.375-1.391V37.4Zm68.632-5.408H93.357A2.646,2.646,0,0,1,96,34.643V62.005H88V54H85v8.005H77V34.643A2.647,2.647,0,0,1,79.637,31.989ZM85,50h3V37.5a1.5,1.5,0,1,0-3,0V50Zm17.454,4.941A3.519,3.519,0,1,1,99,58.456,3.5,3.5,0,0,1,102.454,54.941Zm0.058,6.534a3.012,3.012,0,0,0,0-6.021h-0.049A3.012,3.012,0,0,0,102.512,61.474Zm1.218-3.83a1.182,1.182,0,0,1-.821,1.134l-0.056.02,1.305,1.695h-0.936l-1.2-1.6v1.6h-0.764V56.441h0.8C103.149,56.441,103.73,56.853,103.73,57.644Zm-1.713.589h0.132c0.545,0,.833-0.192.833-0.579,0-.345-0.277-0.522-0.809-0.522h-0.156v1.1Z"/>
</svg>
