<svg xmlns="http://www.w3.org/2000/svg" width="16" height="16" viewBox="0 0 16 16">
  <defs>
    <style>
      .cls-1 {
        fill: #1b2128;
        fill-rule: evenodd;
      }
    </style>
  </defs>
  <path id="header-cart" class="cls-1" d="M13.718,10.245a0.844,0.844,0,0,1-.748.708H4.026a0.843,0.843,0,0,1-.748-0.707L1.393,0.882,0.31,0.775C0,0.742,0,.617,0,0.355A0.305,0.305,0,0,1,.363,0L2.107,0.013a0.238,0.238,0,0,1,.19.2l0.6,2.762H14.24a0.733,0.733,0,0,1,.749.872ZM3.176,3.976H3.036l1.2,5.977h8.518l1.187-5.977H3.176ZM5.484,12a1.5,1.5,0,1,1-1.5,1.5A1.5,1.5,0,0,1,5.484,12Zm0,2a0.5,0.5,0,1,0-.5-0.5A0.5,0.5,0,0,0,5.484,14Zm6-2a1.5,1.5,0,1,1-1.5,1.5A1.5,1.5,0,0,1,11.485,12Zm0,2a0.5,0.5,0,1,0-.5-0.5A0.5,0.5,0,0,0,11.485,14Z"/>
</svg>
