<svg xmlns="http://www.w3.org/2000/svg" width="56" height="44" viewBox="0 0 56 44">
  <defs>
    <style>
      .cls-1 {
        fill: #e3302d;
        fill-rule: evenodd;
      }
    </style>
  </defs>
  <path id="header-logo" class="cls-1" d="M5.275,0.187c-0.361.054-.709,1.386-1.407,2.08-0.512.5-1.149,0.471-1.488,1.088-0.129.23-.087,0.625-0.233,1-0.285.757-1.2,0.824-1.2,1.65,0,0.892.748,1.062,1.477,1.7A3.6,3.6,0,0,0,3.736,8.813c0.587,0.2,1.462-.454,2.249-0.219A1.6,1.6,0,0,1,7.4,9.588c0.128,0.613-.01,1.739-0.793,1.63a8.585,8.585,0,0,0-2.817-.266C2.087,11.145.15,11.7-.04,13.593a2.174,2.174,0,0,0,2.469,2.052c0.874-.172.461-1.2,0.936-1.7C3.989,13.3,7.524,16,10.811,16a4.293,4.293,0,0,0,3.434-1.42,0.78,0.78,0,0,1,.36-0.268,1.288,1.288,0,0,1,.462.206c2.646,2.127,4.647,6.395,14.375,6.444a6.56,6.56,0,0,1,4.2,1.821,11.526,11.526,0,0,1,2.444,4.34A22.959,22.959,0,0,0,41.4,34.72c0.145,0.144,2.323,1.837,2.5,1.963a1.051,1.051,0,0,1,.132.613c-0.064,1.614-.477,6.3,3.021,6.517,0.854,0.044.631-.558,0.631-0.971a4.889,4.889,0,0,1,.28-2.466c0.589-1.15-1.249-1.679-1.2-4.168,0.039-1.854-1.342-1.538-2.132-2.951A3.816,3.816,0,0,1,43.8,31c0.178-5.634-1.154-9.337-1.841-10.247-0.536-.686-0.979-0.958-0.489-1.276,2.918-1.928,3.58-3.721,3.58-3.721,1.552-3.648,2.947-6.98,4.872-8.447a11.949,11.949,0,0,1,1.813-1.336,13.063,13.063,0,0,0,3.265-1.868c0.823-.8,1.477-2.481.686-3.5C54.707-.645,53.005.351,52.255,0.8c-5.365,3.184-5.978,8.8-7.837,12.026-1.484,2.578-3.894,4.471-6.05,4.626a10.75,10.75,0,0,1-5.092-.968,25.7,25.7,0,0,1-7.071-4.659c-1.133-.874-9.931-9.512-17.058-9.864A8.569,8.569,0,0,0,8.04.157C7.519,0.09,6.986,1.214,6.6,1.346c-0.36.119-.964-1.217-1.328-1.158h0Z"/>
</svg>
