<svg id="netfit" xmlns="http://www.w3.org/2000/svg" width="67" height="23" viewBox="0 0 67 23">
  <defs>
    <style>
      .cls-1 {
        fill: #212226;
      }

      .cls-1, .cls-2 {
        fill-rule: evenodd;
      }

      .cls-2 {
        fill: #fff;
      }
    </style>
  </defs>
  <path id="_" data-name="#" class="cls-1" d="M162,140h64l-3,23H159Z" transform="translate(-159 -140)"/>
  <path id="_2" data-name="#" class="cls-2" d="M219.609,146.049c-1.053.041-2.107-.011-3.159,0.019a0.3,0.3,0,0,0-.265.2c-0.324,2.976-.731,5.829-1.082,8.806-0.248.887-.013,2.04-0.461,2.857a2.35,2.35,0,0,1-1.137-.09,38.634,38.634,0,0,1,.448-4.531c0.267-2.431.616-4.726,0.857-7.159-1.142-.257-2.353.085-3.483-0.185a2.077,2.077,0,0,1,.165-1c2.582-.025,5.166,0,7.749-0.013C220.079,144.628,219.967,145.7,219.609,146.049Zm-11.764,11.757c-0.35.227-1.579,0.412-1.318-.4,0.345-2.623.665-5.376,0.953-8a41.169,41.169,0,0,1,.673-4.436c0.381,0.1,1.468-.341,1.215.462C208.87,149.572,208.393,153.681,207.845,157.806Zm-2.136-11.76c-1.98.045-3.963-.008-5.943,0.022a21.3,21.3,0,0,0-.421,2.878c-0.309.4-.954,0.068-1.378,0.172,0.024-1.221.3-2.237,0.4-3.452a0.874,0.874,0,0,1,.242-0.692c2.424-.027,4.85-0.017,7.275-0.007C205.811,145.327,206.074,145.8,205.709,146.046Zm-5.557,5.25a0.637,0.637,0,0,1-.709.773c-2.379,0-4.758.008-7.137,0a11.425,11.425,0,0,1,.248-2c2.5-.011,5-0.025,7.491.006C200.422,150.344,200.122,150.915,200.152,151.3Zm-4.821-5.4a1.206,1.206,0,0,1-.414,1.039c-0.945.049-1.892-.016-2.836,0.025a1.722,1.722,0,0,0-.183,1c-0.333,2.623-.664,5.246-0.958,7.872-0.2.634-.008,1.561-0.445,2.1-0.712.008-1.427,0.049-2.136,0a1.393,1.393,0,0,1-.173-1.041c0.476-3.226.753-6.479,1.232-9.706a0.169,0.169,0,0,0-.09-0.217c-0.944-.049-1.891.025-2.833-0.029-0.406-.336-0.083-0.8-0.076-1.25a0.748,0.748,0,0,1,.315-0.705c2.784-.033,5.571-0.016,8.356-0.009C195.488,145.061,195.269,145.61,195.331,145.892Zm-10.2,1.038c-1.514.054-3.281-.019-4.793,0.027a11.915,11.915,0,0,0-.341,2.156,15.256,15.256,0,0,1-2.318-.045c0.09-1.144.276-2.166,0.4-3.335a1.126,1.126,0,0,1,.339-0.762c2.316-.017,4.632-0.024,6.947,0a1.088,1.088,0,0,1,.14,1.026A1.176,1.176,0,0,1,185.134,146.93Zm2.9,3.126a9.372,9.372,0,0,1-.253,2c-3.643.019-7.285,0.008-10.928,0a6.168,6.168,0,0,1,.252-2C180.744,150.042,184.388,150.052,188.03,150.056Zm-10.774,2.955c0.822-.017,1.4-0.019,2.216,0,0.04,0.887-.315,2.027-0.3,2.911,1.577,0.018,3.467-.011,5.044.009,0.324,0.078.254,0.483,0.212,0.748a2.382,2.382,0,0,1-.383,1.253c-2.373.023-4.746,0.013-7.118,0.006-0.429-.136-0.189-0.867-0.231-1.205C176.961,155.508,176.9,154.186,177.256,153.011Zm-2.136,4.675c-0.494.6-1.48,0.1-2.147,0.251-0.638-1-1.011-2.26-1.543-3.315-0.608-1.38-1.284-2.73-1.829-4.138-0.046-.129-0.136-0.5-0.3-0.382-0.268,2.3-.55,4.628-0.822,6.939-0.048.339-.109,1.088-0.631,0.9-0.564-.17-2.078.489-1.849-0.614,0.5-3.943.962-7.829,1.43-11.775a1.084,1.084,0,0,1,.283-0.581c0.648,0.111,1.553-.266,2.09.127,1.087,2.473,2.305,4.707,3.306,7.216a0.119,0.119,0,0,0,.233.044c0.309-2.444.569-4.7,0.9-7.144,0.382-.549,1.212-0.124,1.764-0.258a0.444,0.444,0,0,1,.619.547C176.13,149.586,175.647,153.607,175.12,157.686Zm22.26-4.116a1.1,1.1,0,0,1,.215-0.561c0.3,0.124,1.271-.311,1.2.255-0.116,1.465-.367,3.041-0.536,4.5a1.482,1.482,0,0,1-1.208.165,1.07,1.07,0,0,1-.069-0.944C197.088,155.844,197.266,154.711,197.38,153.57Zm3.41-3.1c1.329-.052,2.663-0.029,3.992-0.015a1.264,1.264,0,0,1-.076,1.147c-1.365.01-2.732,0.016-4.1,0C200.725,151.278,200.372,150.6,200.79,150.466Z" transform="translate(-159 -140)"/>
</svg>
