<svg xmlns="http://www.w3.org/2000/svg" width="15" height="14" viewBox="0 0 15 14">
  <defs>
    <style>
      .cls-1 {
        fill: #c4c4c4;
        fill-rule: evenodd;
      }
    </style>
  </defs>
  <path id="star-none" class="cls-1" d="M135.783,141.2l1.568,4.585a0.294,0.294,0,0,0,.281.191H142.7a0.275,0.275,0,0,1,.175.5l-4.1,3.09a0.286,0.286,0,0,0-.107.324l1.567,4.724a0.3,0.3,0,0,1-.456.324l-4.1-2.919a0.3,0.3,0,0,0-.349,0l-4.1,2.919a0.3,0.3,0,0,1-.456-0.324l1.567-4.724a0.286,0.286,0,0,0-.107-0.324l-4.1-3.09a0.275,0.275,0,0,1,.175-0.5h5.072a0.294,0.294,0,0,0,.281-0.191l1.568-4.585A0.3,0.3,0,0,1,135.783,141.2Z" transform="translate(-128 -141)"/>
</svg>
