<svg xmlns="http://www.w3.org/2000/svg" width="18" height="18" viewBox="0 0 18 18">
  <defs>
    <style>
      .cls-1 {
        fill: #fff;
        fill-rule: evenodd;
      }
    </style>
  </defs>
  <path id="_" data-name="#" class="cls-1" d="M8.661,1.015a2.3,2.3,0,0,1,2.344,2.231L10.993,4.562A2.973,2.973,0,0,1,8.661,7.046H8.33A2.886,2.886,0,0,1,6.01,4.6L6,3.215a2.245,2.245,0,0,1,2.332-2.2H8.661M9.07,11.043c1.762,0,5.935,1.473,5.935,3.8v0.5a0.66,0.66,0,0,1-.652.651H2.784A0.79,0.79,0,0,1,1.995,15.2V14.838c0-2.322,4.151-3.795,5.9-3.795H9.07M8.661,0.015H8.33A3.245,3.245,0,0,0,5,3.215L5.01,4.6A3.855,3.855,0,0,0,8.33,8.046H8.661a3.919,3.919,0,0,0,3.332-3.484L12,3.255A3.289,3.289,0,0,0,8.661.015h0ZM9.07,10.043H7.9c-2.056,0-6.9,1.648-6.9,4.8V15.2a1.794,1.794,0,0,0,1.789,1.789h11.57a1.656,1.656,0,0,0,1.651-1.651v-0.5c0-3.147-4.879-4.795-6.935-4.795h0Z"/>
</svg>
