<svg xmlns="http://www.w3.org/2000/svg" width="24" height="24" viewBox="0 0 24 24">
  <defs>
    <style>
      .cls-1 {
        fill: #c0c0bb;
        fill-rule: evenodd;
      }
    </style>
  </defs>
  <path id="Instagram" class="cls-1" d="M22.924,16.811a7.691,7.691,0,0,1-.488,2.546,5.361,5.361,0,0,1-3.067,3.067,7.707,7.707,0,0,1-2.546.487c-1.119.051-1.476,0.062-4.324,0.062s-3.206-.011-4.324-0.062a7.707,7.707,0,0,1-2.546-.487A5.366,5.366,0,0,1,2.56,19.358a7.709,7.709,0,0,1-.488-2.546c-0.051-1.119-.063-1.476-0.063-4.324s0.013-3.206.063-4.325A7.7,7.7,0,0,1,2.56,5.617,5.128,5.128,0,0,1,3.77,3.759a5.136,5.136,0,0,1,1.857-1.21,7.686,7.686,0,0,1,2.546-.487C9.292,2.01,9.65,2,12.5,2s3.206,0.011,4.324.063a7.686,7.686,0,0,1,2.546.487,5.361,5.361,0,0,1,3.067,3.068,7.679,7.679,0,0,1,.488,2.545c0.051,1.119.063,1.476,0.063,4.325S22.974,15.692,22.924,16.811ZM20.988,8.272a5.793,5.793,0,0,0-.359-1.937,3.236,3.236,0,0,0-.781-1.2,3.221,3.221,0,0,0-1.2-.78A5.769,5.769,0,0,0,16.713,4c-1.1-.05-1.429-0.061-4.215-0.061S9.383,3.946,8.282,4a5.77,5.77,0,0,0-1.937.359,3.227,3.227,0,0,0-1.2.78,3.247,3.247,0,0,0-.781,1.2,5.8,5.8,0,0,0-.358,1.937c-0.05,1.1-.061,1.43-0.061,4.215S3.958,15.6,4.008,16.7a5.79,5.79,0,0,0,.358,1.938,3.455,3.455,0,0,0,1.98,1.98,5.793,5.793,0,0,0,1.937.36c1.1,0.049,1.43.06,4.216,0.06s3.115-.011,4.215-0.06a5.792,5.792,0,0,0,1.937-.36,3.455,3.455,0,0,0,1.98-1.98,5.786,5.786,0,0,0,.359-1.937c0.05-1.1.061-1.428,0.061-4.214S21.039,9.372,20.988,8.272Zm-2.954,0a1.259,1.259,0,1,1,1.259-1.258A1.258,1.258,0,0,1,18.034,8.272Zm-5.521,9.742A5.511,5.511,0,1,1,18.024,12.5,5.511,5.511,0,0,1,12.513,18.013Zm0-9.087A3.577,3.577,0,1,0,16.09,12.5,3.578,3.578,0,0,0,12.513,8.926Z"/>
</svg>
