<svg xmlns="http://www.w3.org/2000/svg" width="24" height="24" viewBox="0 0 24 24">
  <defs>
    <style>
      .cls-1 {
        fill: #fff;
        fill-rule: evenodd;
      }
    </style>
  </defs>
  <path id="Facebook" class="cls-1" d="M19.75,2H3.25A2.251,2.251,0,0,0,1,4.251v16.5A2.251,2.251,0,0,0,3.25,23h8.761V16.032h-3V12.958h3V11c0-2.89,1.482-4.042,4.06-4.042,1.43,0,1.95.021,1.941,0.011v3.053H16.655c-1.4,0-1.661.62-1.661,1.6v1.341h3l-0.435,3.074H14.993V23H19.75A2.251,2.251,0,0,0,22,20.75V4.251A2.251,2.251,0,0,0,19.75,2Z"/>
</svg>
