<svg xmlns="http://www.w3.org/2000/svg" width="24" height="24" viewBox="0 0 24 24">
  <defs>
    <style>
      .cls-1 {
        fill: #fff;
        fill-rule: evenodd;
      }
    </style>
  </defs>
  <path id="Mail" class="cls-1" d="M20.75,23H3.25A2.251,2.251,0,0,1,1,20.75V4.251A2.251,2.251,0,0,1,3.25,2h17.5A2.251,2.251,0,0,1,23,4.251v16.5A2.251,2.251,0,0,1,20.75,23ZM19,17.146a0.854,0.854,0,0,1-.876.831H5.861a0.854,0.854,0,0,1-.876-0.831V9.293l7,5.5,7-5.491ZM5.014,6.993H18.985L11.99,12.509Z"/>
</svg>
