<svg xmlns="http://www.w3.org/2000/svg" width="24" height="24" viewBox="0 0 24 24">
  <defs>
    <style>
      .cls-1 {
        fill: #fff;
        fill-rule: evenodd;
      }
    </style>
  </defs>
  <path id="Google_" data-name="Google+" class="cls-1" d="M19.75,23H3.25A2.251,2.251,0,0,1,1,20.75V4.251A2.251,2.251,0,0,1,3.25,2h16.5A2.251,2.251,0,0,1,22,4.251v16.5A2.251,2.251,0,0,1,19.75,23ZM15.019,13H15V12.578c-0.015-.233-0.035-0.457-0.057-0.585H10v1.991h2.963a2.77,2.77,0,0,1-2.942,2.011,3.039,3.039,0,0,1-3.03-3.069A2.918,2.918,0,0,1,10.016,10a3.274,3.274,0,0,1,2.136.569l1.294-1.337a4.629,4.629,0,0,0-3.333-1.274,5.011,5.011,0,0,0-5.146,4.964,5.164,5.164,0,0,0,5.146,5.146,4.6,4.6,0,0,0,4.91-4.853C15.024,13.155,15.021,13.077,15.019,13ZM19,12H18V11H17v1H16v1h1v1h1V13h1V12Z"/>
</svg>
