<svg xmlns="http://www.w3.org/2000/svg" width="24" height="24" viewBox="0 0 24 24">
  <defs>
    <style>
      .cls-1 {
        fill: #fff;
        fill-rule: evenodd;
      }
    </style>
  </defs>
  <path id="Twitter" class="cls-1" d="M23.255,4.239A9.671,9.671,0,0,1,20.477,5,4.854,4.854,0,0,0,22.6,2.324,9.688,9.688,0,0,1,19.531,3.5a4.839,4.839,0,0,0-8.24,4.411A13.732,13.732,0,0,1,1.323,2.856a4.842,4.842,0,0,0,1.5,6.456A4.8,4.8,0,0,1,.629,8.707V8.769a4.841,4.841,0,0,0,3.878,4.742,4.864,4.864,0,0,1-2.184.082,4.845,4.845,0,0,0,4.518,3.36A9.715,9.715,0,0,1,.835,19.022a10.056,10.056,0,0,1-1.153-.067A13.635,13.635,0,0,0,7.1,21.049,13.6,13.6,0,0,0,20.855,7.367c0-.209,0-0.418-0.015-0.626a9.867,9.867,0,0,0,2.414-2.5h0Z"/>
</svg>
