<svg id="_" data-name="#" xmlns="http://www.w3.org/2000/svg" width="26" height="22" viewBox="0 0 26 22">
  <defs>
    <style>
      .cls-1 {
        fill: #fff;
        fill-rule: evenodd;
      }
    </style>
  </defs>
  <path id="Youtube" class="cls-1" d="M24.953,2.616C23.978,1.457,22.178.984,18.741,0.984H7.263c-3.516,0-5.346.5-6.318,1.737C0,3.924,0,5.7,0,8.149v4.676c0,4.752,1.124,7.165,7.265,7.165H18.741c2.981,0,4.633-.417,5.7-1.44,1.1-1.049,1.564-2.761,1.564-5.725V8.149C26.006,5.562,25.932,3.779,24.953,2.616Zm-8.367,8.569-5.364,2.728a0.844,0.844,0,0,1-.809-0.025,0.8,0.8,0,0,1-.4-0.687V7.762a0.8,0.8,0,0,1,.4-0.686A0.844,0.844,0,0,1,11.22,7.05L16.584,9.76A0.793,0.793,0,0,1,16.586,11.184Z"/>
</svg>
