<svg xmlns="http://www.w3.org/2000/svg" viewBox="0 0 23 23">
  <defs>
    <style>
      .cls-1 {
        fill: #ff4c5f;
        opacity: 0;
      }

      .cls-2, .cls-3 {
        fill: #f7f7f7;
      }

      .cls-2 {
        opacity: 0.404;
      }
    </style>
  </defs>
  <g id="그룹_50" data-name="그룹 50" transform="translate(-861 -553)">
    <rect id="사각형_402" data-name="사각형 402" class="cls-1" width="23" height="23" rx="3" transform="translate(861 553)"/>
    <path id="패스_56" data-name="패스 56" class="cls-2" d="M.39,2.33,4.53,6.6a1.3,1.3,0,0,0,1.87,0l4.14-4.27A1.367,1.367,0,0,0,9.61,0H1.33A1.372,1.372,0,0,0,.39,2.33Z" transform="translate(866.998 563)"/>
    <path id="패스_57" data-name="패스 57" class="cls-3" d="M.39,2.33,4.53,6.6a1.3,1.3,0,0,0,1.87,0l4.14-4.27A1.367,1.367,0,0,0,9.61,0H1.33A1.372,1.372,0,0,0,.39,2.33Z" transform="translate(866.998 559)"/>
  </g>
</svg>
