<svg xmlns="http://www.w3.org/2000/svg" viewBox="0 0 24.5 96.253">
  <defs>
    <style>
      .cls-1 {
        fill: #9ba0a5;
      }

      .cls-2 {
        fill: #448cda;
      }

      .cls-3 {
        fill: #3ccb83;
      }

      .cls-4 {
        fill: #f9ba00;
      }

      .cls-5 {
        fill: #ff4c5f;
      }
    </style>
  </defs>
  <g id="그룹_50" data-name="그룹 50" transform="translate(-208 -276)">
    <g id="그룹_1" data-name="그룹 1" transform="translate(232.5 372.25) rotate(180)">
      <g id="그룹_43" data-name="그룹 43">
        <path id="패스_51" data-name="패스 51" class="cls-1" d="M14.82,7.35,10.1,12.07a.218.218,0,0,1-.04-.05,3.242,3.242,0,0,1-.86-1.89,2.34,2.34,0,0,1-.03-.38A3.329,3.329,0,0,1,12.5,6.42a2.34,2.34,0,0,1,.38.03,3.242,3.242,0,0,1,1.89.86A.218.218,0,0,1,14.82,7.35Z"/>
        <path id="패스_52" data-name="패스 52" class="cls-1" d="M15.83,9.75a3.329,3.329,0,0,1-3.33,3.33,2.907,2.907,0,0,1-.6-.06l3.87-3.87A2.907,2.907,0,0,1,15.83,9.75Z"/>
        <path id="패스_53" data-name="패스 53" class="cls-1" d="M18.22,3.86a13.255,13.255,0,0,0-1.86-.89,11.079,11.079,0,0,0-3.86-.72C5.32,2.25,0,9.75,0,9.75a22.648,22.648,0,0,0,4.84,4.74,17.786,17.786,0,0,0,1.68,1.07.086.086,0,0,0,.06.03l2.34-2.34a.218.218,0,0,1-.04-.05,5.035,5.035,0,0,1-1.06-1.69A4.908,4.908,0,0,1,7.5,9.75a5,5,0,0,1,5-5,4.908,4.908,0,0,1,1.76.32,5.035,5.035,0,0,1,1.69,1.06.218.218,0,0,1,.05.04l2.28-2.28A.086.086,0,0,0,18.22,3.86Zm1.72,1.12L17.11,7.81a5,5,0,0,1-6.55,6.55L8.45,16.47a11.354,11.354,0,0,0,4.05.78c7.18,0,12-7.5,12-7.5A20.6,20.6,0,0,0,19.94,4.98Z"/>
      </g>
      <g id="그룹_44" data-name="그룹 44" transform="translate(1 -1)">
        <path id="패스_54" data-name="패스 54" class="cls-1" d="M19.66,2.42a.89.89,0,0,1-.2.29L18.28,3.89,16,6.17,8.92,13.25,6.58,15.59,3.21,18.96a1.014,1.014,0,0,1-1.42,0,1.008,1.008,0,0,1,0-1.42l3.05-3.05,9.42-9.42,2.1-2.1,1.68-1.68a1,1,0,0,1,1.62,1.13Z"/>
      </g>
      <g id="그룹_45" data-name="그룹 45">
        <path id="패스_55" data-name="패스 55" class="cls-1" d="M20.66,1.42a.89.89,0,0,1-.2.29L18.28,3.89,16,6.17,8.92,13.25,6.58,15.59,4.34,17.83a.722.722,0,0,1,.2-.29l1.98-1.98,9.43-9.43,2.27-2.27Z"/>
      </g>
    </g>
    <g id="그룹_46" data-name="그룹 46" transform="translate(208 336)">
      <path id="패스_1" data-name="패스 1" class="cls-2" d="M12.5,4.17A3.33,3.33,0,1,0,15.83,7.5,3.329,3.329,0,0,0,12.5,4.17Z"/>
      <path id="패스_2" data-name="패스 2" class="cls-2" d="M12.5,0C5.32,0,0,7.5,0,7.5S5.32,15,12.5,15s12-7.5,12-7.5S19.68,0,12.5,0Zm0,12.5a5,5,0,1,1,5-5A5,5,0,0,1,12.5,12.5Z"/>
    </g>
    <g id="그룹_47" data-name="그룹 47" transform="translate(208 316)">
      <path id="패스_1-2" data-name="패스 1" class="cls-3" d="M12.5,4.17A3.33,3.33,0,1,0,15.83,7.5,3.329,3.329,0,0,0,12.5,4.17Z"/>
      <path id="패스_2-2" data-name="패스 2" class="cls-3" d="M12.5,0C5.32,0,0,7.5,0,7.5S5.32,15,12.5,15s12-7.5,12-7.5S19.68,0,12.5,0Zm0,12.5a5,5,0,1,1,5-5A5,5,0,0,1,12.5,12.5Z"/>
    </g>
    <g id="그룹_48" data-name="그룹 48" transform="translate(208 296)">
      <path id="패스_1-3" data-name="패스 1" class="cls-4" d="M12.5,4.17A3.33,3.33,0,1,0,15.83,7.5,3.329,3.329,0,0,0,12.5,4.17Z"/>
      <path id="패스_2-3" data-name="패스 2" class="cls-4" d="M12.5,0C5.32,0,0,7.5,0,7.5S5.32,15,12.5,15s12-7.5,12-7.5S19.68,0,12.5,0Zm0,12.5a5,5,0,1,1,5-5A5,5,0,0,1,12.5,12.5Z"/>
    </g>
    <g id="그룹_49" data-name="그룹 49" transform="translate(208 276)">
      <path id="패스_1-4" data-name="패스 1" class="cls-5" d="M12.5,4.17A3.33,3.33,0,1,0,15.83,7.5,3.329,3.329,0,0,0,12.5,4.17Z"/>
      <path id="패스_2-4" data-name="패스 2" class="cls-5" d="M12.5,0C5.32,0,0,7.5,0,7.5S5.32,15,12.5,15s12-7.5,12-7.5S19.68,0,12.5,0Zm0,12.5a5,5,0,1,1,5-5A5,5,0,0,1,12.5,12.5Z"/>
    </g>
  </g>
</svg>
