<svg id="_" data-name="#" xmlns="http://www.w3.org/2000/svg" width="26" height="22" viewBox="0 0 26 22">
  <defs>
    <style>
      .cls-1 {
        fill: #fff;
        fill-rule: evenodd;
      }
    </style>
  </defs>
  <path id="Facebook" class="cls-1" d="M21.75,0H5.25A2.251,2.251,0,0,0,3,2.251v16.5A2.251,2.251,0,0,0,5.25,21h8.761V14.032h-3V10.958h3V9c0-2.89,1.482-4.042,4.06-4.042,1.43,0,1.95.021,1.941,0.011V8.019H18.655c-1.4,0-1.661.62-1.661,1.6v1.341h3l-0.435,3.074H16.993V21H21.75A2.251,2.251,0,0,0,24,18.75V2.251A2.251,2.251,0,0,0,21.75,0Z"/>
</svg>
