<svg id="_" data-name="#" xmlns="http://www.w3.org/2000/svg" width="26" height="22" viewBox="0 0 26 22">
  <defs>
    <style>
      .cls-1 {
        fill: #fff;
        fill-rule: evenodd;
      }
    </style>
  </defs>
  <path id="Instagram" class="cls-1" d="M23.924,14.811a7.693,7.693,0,0,1-.488,2.546,5.363,5.363,0,0,1-3.067,3.068,7.707,7.707,0,0,1-2.546.487c-1.119.051-1.476,0.063-4.324,0.063s-3.206-.012-4.324-0.063a7.707,7.707,0,0,1-2.546-.487A5.367,5.367,0,0,1,3.56,17.357a7.706,7.706,0,0,1-.488-2.546c-0.051-1.119-.063-1.476-0.063-4.324s0.013-3.206.063-4.325A7.7,7.7,0,0,1,3.56,3.617,5.128,5.128,0,0,1,4.77,1.759,5.139,5.139,0,0,1,6.627.549,7.69,7.69,0,0,1,9.173.062C10.292,0.01,10.65,0,13.5,0S16.7,0.01,17.822.062a7.691,7.691,0,0,1,2.546.487,5.142,5.142,0,0,1,1.858,1.21,5.128,5.128,0,0,1,1.209,1.858,7.683,7.683,0,0,1,.488,2.545c0.051,1.119.063,1.476,0.063,4.325S23.974,13.693,23.924,14.811Zm-1.935-8.54a5.793,5.793,0,0,0-.359-1.937,3.24,3.24,0,0,0-.781-1.2,3.224,3.224,0,0,0-1.2-.78A5.758,5.758,0,0,0,17.713,2c-1.1-.05-1.429-0.061-4.215-0.061S10.383,1.946,9.282,2a5.759,5.759,0,0,0-1.937.359,3.229,3.229,0,0,0-1.2.78,3.249,3.249,0,0,0-.781,1.2,5.8,5.8,0,0,0-.359,1.937c-0.05,1.1-.061,1.43-0.061,4.215S4.958,13.6,5.007,14.7a5.786,5.786,0,0,0,.359,1.937,3.456,3.456,0,0,0,1.98,1.98,5.789,5.789,0,0,0,1.937.359c1.1,0.05,1.43.061,4.216,0.061s3.115-.011,4.215-0.061a5.787,5.787,0,0,0,1.937-.359,3.456,3.456,0,0,0,1.98-1.98,5.783,5.783,0,0,0,.359-1.937c0.05-1.1.061-1.428,0.061-4.214S22.039,7.372,21.988,6.272Zm-2.954,0a1.259,1.259,0,1,1,1.259-1.258A1.258,1.258,0,0,1,19.034,6.271Zm-5.521,9.742A5.511,5.511,0,1,1,19.024,10.5,5.511,5.511,0,0,1,13.513,16.013Zm0-9.087A3.577,3.577,0,1,0,17.091,10.5,3.578,3.578,0,0,0,13.513,6.926Z"/>
</svg>
