<svg id="_" data-name="#" xmlns="http://www.w3.org/2000/svg" width="26" height="22" viewBox="0 0 26 22">
  <defs>
    <style>
      .cls-1 {
        fill: #fff;
        fill-rule: evenodd;
      }
    </style>
  </defs>
  <path id="Twitter" class="cls-1" d="M25.255,3.239A9.67,9.67,0,0,1,22.477,4,4.854,4.854,0,0,0,24.6,1.324,9.69,9.69,0,0,1,21.531,2.5a4.839,4.839,0,0,0-8.24,4.411A13.73,13.73,0,0,1,3.323,1.856a4.842,4.842,0,0,0,1.5,6.456,4.8,4.8,0,0,1-2.191-.6V7.769a4.841,4.841,0,0,0,3.878,4.742,4.869,4.869,0,0,1-2.184.082,4.845,4.845,0,0,0,4.518,3.36,9.715,9.715,0,0,1-6.006,2.069,10.1,10.1,0,0,1-1.153-.068A13.647,13.647,0,0,0,9.1,20.065a13.615,13.615,0,0,0,13.759-13.7c0-.209,0-0.418-0.015-0.626a9.866,9.866,0,0,0,2.414-2.5h0Z"/>
</svg>
