<svg xmlns="http://www.w3.org/2000/svg" width="32" height="32" viewBox="0 0 32 32">
  <defs>
    <style>
      .cls-1 {
        fill: #fff;
        fill-rule: evenodd;
      }
    </style>
  </defs>
  <path id="_" data-name="#" class="cls-1" d="M31.633,9.756L29.067,22.55a1.7,1.7,0,0,1-1.512,1.416H9.732A1.7,1.7,0,0,1,8.22,22.553L4.412,3.636,1.97,3.423C1.339,3.356,1.339,3.231,1.339,2.707a0.614,0.614,0,0,1,.739-0.713L5.349,2.023a0.479,0.479,0,0,1,.383.4L6.94,8.012h23.18A1.471,1.471,0,0,1,31.633,9.756Zm-1.513-.344H7l2.59,12.864a0.506,0.506,0,0,0,.179.289H27.513a0.5,0.5,0,0,0,.178-0.279L30.261,9.481A0.121,0.121,0,0,0,30.121,9.412ZM13.5,26A2.5,2.5,0,1,1,11,28.5,2.5,2.5,0,0,1,13.5,26Zm0,3.8a1.3,1.3,0,1,0-1.3-1.3A1.3,1.3,0,0,0,13.5,29.8Zm10-3.8A2.5,2.5,0,1,1,21,28.5,2.5,2.5,0,0,1,23.5,26Zm0,3.8a1.3,1.3,0,1,0-1.3-1.3A1.3,1.3,0,0,0,23.5,29.8Z"/>
</svg>
