<svg xmlns="http://www.w3.org/2000/svg" width="32" height="32" viewBox="0 0 32 32">
  <defs>
    <style>
      .cls-1 {
        fill: #fff;
        fill-rule: evenodd;
      }
    </style>
  </defs>
  <path id="_" data-name="#" class="cls-1" d="M9.623,4.377A5.962,5.962,0,0,1,14.767,7.5l1.241,2.274,1.219-2.247A5.979,5.979,0,0,1,22.4,4.378c3.226,0,5.818,2.854,6.164,6.807a7.281,7.281,0,0,1-.21,2.606A11.782,11.782,0,0,1,24.912,19.8l-8.923,8.306L7.114,19.8A11.835,11.835,0,0,1,3.63,13.754a7.22,7.22,0,0,1-.195-2.589C3.78,7.234,6.382,4.381,9.623,4.377m0.006-1.4c-3.989,0-7.179,3.392-7.588,8.066a8.617,8.617,0,0,0,.235,3.066,13.247,13.247,0,0,0,3.885,6.717l9.828,9.2,9.878-9.2a13.2,13.2,0,0,0,3.854-6.717,8.639,8.639,0,0,0,.239-3.064c-0.41-4.675-3.57-8.066-7.557-8.066A7.4,7.4,0,0,0,16,6.842,7.328,7.328,0,0,0,9.629,2.977h0Z"/>
</svg>
