<svg xmlns="http://www.w3.org/2000/svg" width="22" height="20" viewBox="0 0 22 20">
  <defs>
    <style>
      .cls-1 {
        fill: #d51d31;
        fill-rule: evenodd;
      }
    </style>
  </defs>
  <path id="_" data-name="#" class="cls-1" d="M20.965,5.991c-0.307-3.46-2.7-5.97-5.689-5.97a5.631,5.631,0,0,0-4.845,2.86A5.43,5.43,0,0,0,5.7.021c-2.991,0-5.382,2.51-5.689,5.97A6.3,6.3,0,0,0,.192,8.259,9.778,9.778,0,0,0,3.1,13.235l7.324,6.808,7.449-6.808a9.779,9.779,0,0,0,2.911-4.976A6.316,6.316,0,0,0,20.965,5.991Z"/>
</svg>
