<svg id="_" data-name="&gt;" xmlns="http://www.w3.org/2000/svg" width="24" height="24" viewBox="0 0 24 24">
  <defs>
    <style>
      .cls-1 {
        fill: #232629;
        fill-rule: evenodd;
      }
    </style>
  </defs>
  <path id="_2" data-name="#" class="cls-1" d="M18.5,20H6.5A2.5,2.5,0,0,1,4,17.5V7.5A2.5,2.5,0,0,1,6.5,5h12A2.5,2.5,0,0,1,21,7.5v10A2.5,2.5,0,0,1,18.5,20ZM20,7.5A1.5,1.5,0,0,0,18.5,6H6.5A1.5,1.5,0,0,0,5,7.5v10A1.5,1.5,0,0,0,6.5,19h12A1.5,1.5,0,0,0,20,17.5V7.5ZM17.5,18A1.5,1.5,0,1,1,19,16.5,1.5,1.5,0,0,1,17.5,18Zm0-2a0.5,0.5,0,1,0,.5.5A0.5,0.5,0,0,0,17.5,16Z"/>
</svg>
