<svg id="_" data-name="&gt;" xmlns="http://www.w3.org/2000/svg" width="24" height="24" viewBox="0 0 24 24">
  <defs>
    <style>
      .cls-1 {
        fill: #232629;
        fill-rule: evenodd;
      }
    </style>
  </defs>
  <path id="Watch" class="cls-1" d="M17,12a1,1,0,0,1,1,1v1a1,1,0,0,1-1,1h0v0.7a1.724,1.724,0,0,1-.871,1.753,1.34,1.34,0,0,0-.607.725,4.115,4.115,0,0,0-.4,1.779,0.865,0.865,0,0,1-.139.655c-0.3.329-.6,0.373-2.731,0.391-0.218,0-.34,0-0.5,0-2.127-.017-2.427-0.061-2.731-0.391a0.866,0.866,0,0,1-.139-0.655,4.113,4.113,0,0,0-.4-1.779,1.339,1.339,0,0,0-.607-0.725A1.724,1.724,0,0,1,7,15.7V8.363A1.9,1.9,0,0,1,8.012,6.636c0.651-.373.945-1.177,1.04-2.605A0.688,0.688,0,0,1,9.239,3.39C9.546,3.075,9.932,3,12,3s2.454,0.076,2.761.391a0.688,0.688,0,0,1,.187.641c0.1,1.428.389,2.232,1.04,2.605A1.9,1.9,0,0,1,17,8.363V9h0a1,1,0,0,1,0,2h0v1h0ZM15.985,8.6a0.635,0.635,0,0,0-.632-0.639H8.647a0.635,0.635,0,0,0-.632.639v6.752A0.635,0.635,0,0,0,8.647,16h6.706a0.635,0.635,0,0,0,.632-0.639V8.6Z"/>
</svg>
