<svg id="_" data-name="&gt;" xmlns="http://www.w3.org/2000/svg" width="24" height="24" viewBox="0 0 24 24">
  <defs>
    <style>
      .cls-1 {
        fill: #232629;
        fill-rule: evenodd;
      }
    </style>
  </defs>
  <path id="_2" data-name="#" class="cls-1" d="M19,13.563H18.973c-0.095,1.358-3.172,2.45-6.973,2.45s-6.879-1.092-6.973-2.45H5V10.531H5.017c0-.011-0.009-0.021-0.009-0.031,0-1.388,3.131-2.513,6.992-2.513s6.992,1.125,6.992,2.513c0,0.011-.008.021-0.009,0.031H19v3.031ZM12,8.987c-3.951,0-5.875,1.161-5.915,1.514C6.126,10.852,8.05,12.013,12,12.013s5.874-1.161,5.915-1.514C17.875,10.148,15.952,8.987,12,8.987Zm0,4.026a12.755,12.755,0,0,1-5.923-1.191v1.709H6.1C6.23,13.91,8.142,15.013,12,15.013s5.767-1.1,5.9-1.482h0.028V11.822A12.757,12.757,0,0,1,12,13.013Z"/>
</svg>
