<svg id="_" data-name="&gt;" xmlns="http://www.w3.org/2000/svg" width="24" height="24" viewBox="0 0 24 24">
  <defs>
    <style>
      .cls-1 {
        fill: #232629;
        fill-rule: evenodd;
      }
    </style>
  </defs>
  <path id="_2" data-name="#" class="cls-1" d="M17.5,14H7.5a1.5,1.5,0,1,1,0-3h10A1.5,1.5,0,0,1,17.5,14Zm0-2H7.5a0.5,0.5,0,1,0,0,1h10A0.5,0.5,0,1,0,17.5,12Zm0-2H7.5a1.5,1.5,0,1,1,0-3h10A1.5,1.5,0,1,1,17.5,10Zm0-2H7.5a0.5,0.5,0,0,0,0,1h10A0.5,0.5,0,0,0,17.5,8Zm-10,7h10a1.5,1.5,0,0,1,0,3H7.5A1.5,1.5,0,1,1,7.5,15Zm0,2h10a0.5,0.5,0,1,0,0-1H7.5A0.5,0.5,0,1,0,7.5,17Z"/>
</svg>
