<svg id="_" data-name="&gt;" xmlns="http://www.w3.org/2000/svg" width="24" height="24" viewBox="0 0 24 24">
  <defs>
    <style>
      .cls-1 {
        fill: #232629;
        fill-rule: evenodd;
      }
    </style>
  </defs>
  <path id="_2" data-name="#" class="cls-1" d="M12.5,7.107L13.835,9.94a1.41,1.41,0,0,0,1.064.8l3.111,0.468-2.29,2.306a1.447,1.447,0,0,0-.39,1.242l0.692,3.2-2.848-1.763a1.4,1.4,0,0,0-1.346,0L8.989,17.966l0.682-3.211a1.447,1.447,0,0,0-.391-1.243L7,11.206l3.1-.467a1.411,1.411,0,0,0,1.063-.8L12.5,7.107m0-1.118a0.922,0.922,0,0,0-.835.543L10.26,9.514a0.413,0.413,0,0,1-.31.236l-3.174.478a0.938,0.938,0,0,0-.751.663,1,1,0,0,0,.235,1l2.305,2.321a0.444,0.444,0,0,1,.118.381L7.991,17.87a0.99,0.99,0,0,0,.37.953,0.888,0.888,0,0,0,.98.074l2.967-1.829a0.4,0.4,0,0,1,.383,0L15.659,18.9a0.891,0.891,0,0,0,.98-0.074,0.99,0.99,0,0,0,.37-0.953l-0.693-3.277a0.443,0.443,0,0,1,.118-0.381l2.305-2.321a1,1,0,0,0,.236-1,0.938,0.938,0,0,0-.752-0.664L15.049,9.75a0.413,0.413,0,0,1-.309-0.236L13.335,6.532A0.922,0.922,0,0,0,12.5,5.989h0Z"/>
</svg>
