<svg id="_" data-name="&gt;" xmlns="http://www.w3.org/2000/svg" width="24" height="24" viewBox="0 0 24 24">
  <defs>
    <style>
      .cls-1 {
        fill: #232629;
        fill-rule: evenodd;
      }
    </style>
  </defs>
  <path id="Mobile" class="cls-1" d="M15.1,20H8.9A1.9,1.9,0,0,1,7,18.1V5.9A1.9,1.9,0,0,1,8.9,4h6.2A1.9,1.9,0,0,1,17,5.9V18.1A1.9,1.9,0,0,1,15.1,20ZM11,19h2V18H11v1ZM16,6.3A0.3,0.3,0,0,0,15.7,6H8.3a0.3,0.3,0,0,0-.3.3V16.7a0.3,0.3,0,0,0,.3.3h7.4a0.3,0.3,0,0,0,.3-0.3V6.3Z"/>
</svg>
