<svg id="_" data-name="&gt;" xmlns="http://www.w3.org/2000/svg" width="24" height="24" viewBox="0 0 24 24">
  <defs>
    <style>
      .cls-1 {
        fill: #232629;
        fill-rule: evenodd;
      }
    </style>
  </defs>
  <path id="Tablet" class="cls-1" d="M19.1,19H4.9A1.9,1.9,0,0,1,3,17.1V6.9A1.9,1.9,0,0,1,4.9,5H19.1A1.9,1.9,0,0,1,21,6.9V17.1A1.9,1.9,0,0,1,19.1,19ZM18,6.3A0.3,0.3,0,0,0,17.7,6H5.3a0.3,0.3,0,0,0-.3.3V17.7a0.3,0.3,0,0,0,.3.3H17.7a0.3,0.3,0,0,0,.3-0.3V6.3ZM20,11H19v2h1V11Z"/>
</svg>
