<svg id="_" data-name="&gt;" xmlns="http://www.w3.org/2000/svg" width="24" height="24" viewBox="0 0 24 24">
  <defs>
    <style>
      .cls-1 {
        fill: #232629;
        fill-rule: evenodd;
      }
    </style>
  </defs>
  <path id="_2" data-name="#" class="cls-1" d="M18.542,19.01H16.458A0.456,0.456,0,0,1,16,18.547V13.442a0.456,0.456,0,0,1,.46-0.462h1.531V12.923c0-3.1-2.406-6.019-5.489-6.019S6.98,9.835,6.98,12.923V12.98H8.542a0.456,0.456,0,0,1,.46.462v5.105a0.456,0.456,0,0,1-.46.462H6.458A0.456,0.456,0,0,1,6,18.547v-6.03a6.5,6.5,0,1,1,13,0v6.03A0.456,0.456,0,0,1,18.542,19.01ZM7,18H8V14H7v4Zm11-4H17v4h1V14Z"/>
</svg>
