<svg id="_" data-name="&gt;" xmlns="http://www.w3.org/2000/svg" width="24" height="24" viewBox="0 0 24 24">
  <defs>
    <style>
      .cls-1 {
        fill: #232629;
        fill-rule: evenodd;
      }
    </style>
  </defs>
  <path id="_2" data-name="#" class="cls-1" d="M17,12a2,2,0,1,1,2-2A2,2,0,0,1,17,12Zm0-3a1,1,0,1,0,1,1A1,1,0,0,0,17,9Zm-5,8a2,2,0,1,1,2-2A2,2,0,0,1,12,17Zm0-3a1,1,0,1,0,1,1A1,1,0,0,0,12,14Zm0-2a2,2,0,1,1,2-2A2,2,0,0,1,12,12Zm0-3a1,1,0,1,0,1,1A1,1,0,0,0,12,9ZM7,17a2,2,0,1,1,2-2A2,2,0,0,1,7,17Zm0-3a1,1,0,1,0,1,1A1,1,0,0,0,7,14Zm0-2a2,2,0,1,1,2-2A2,2,0,0,1,7,12ZM7,9a1,1,0,1,0,1,1A1,1,0,0,0,7,9Zm10,4a2,2,0,1,1-2,2A2,2,0,0,1,17,13Zm0,3a1,1,0,1,0-1-1A1,1,0,0,0,17,16Z"/>
</svg>
