<svg id="_" data-name="&gt;" xmlns="http://www.w3.org/2000/svg" width="24" height="24" viewBox="0 0 24 24">
  <defs>
    <style>
      .cls-1 {
        fill: #232629;
        fill-rule: evenodd;
      }
    </style>
  </defs>
  <path id="_2" data-name="#" class="cls-1" d="M17.663,14.163a5.955,5.955,0,0,1-.784,1.4,8.285,8.285,0,0,1-1.058,1.133,11.953,11.953,0,0,1-1.1.883c-0.33.231-.679,0.452-1.037,0.657s-0.61.343-.77,0.42-0.281.134-.337,0.157a1.3,1.3,0,0,1-.581.134,1.248,1.248,0,0,1-.543-0.117q-0.141-.061-0.375-0.174c-0.16-.078-0.4-0.211-0.77-0.421s-0.706-.425-1.037-0.657a11.943,11.943,0,0,1-1.1-.882A13.944,13.944,0,0,1,7.12,15.561a5.943,5.943,0,0,1-.784-1.4A4.52,4.52,0,0,1,6,12.477v-6.1A1.376,1.376,0,0,1,6.416,5.39a1.336,1.336,0,0,1,.957-0.4h9.254a1.338,1.338,0,0,1,.958.4A1.376,1.376,0,0,1,18,6.374v6.1A4.515,4.515,0,0,1,17.663,14.163Zm-0.679-7.7a0.487,0.487,0,0,0-.152-0.358,0.5,0.5,0,0,0-.362-0.151L12,6.013v12a0.47,0.47,0,0,0,.209-0.048q0.129-.056.341-0.159c0.142-.069.319-0.2,0.656-0.393s0.661-.4.972-0.616a11,11,0,0,0,1.016-.819,7.369,7.369,0,0,0,.948-1.013,4.412,4.412,0,0,0,.573-1.13,3.613,3.613,0,0,0,.269-1.355V6.468Z"/>
</svg>
