<svg id="_" data-name="&gt;" xmlns="http://www.w3.org/2000/svg" width="24" height="24" viewBox="0 0 24 24">
  <defs>
    <style>
      .cls-1 {
        fill: #232629;
        fill-rule: evenodd;
      }
    </style>
  </defs>
  <path id="_2" data-name="#" class="cls-1" d="M17,19H8a2,2,0,0,1-2-2V8A2,2,0,0,1,8,6h9a2,2,0,0,1,2,2v9A2,2,0,0,1,17,19ZM18,8a1,1,0,0,0-1-1H8A1,1,0,0,0,7,8v9a1,1,0,0,0,1,1h9a1,1,0,0,0,1-1V8Zm-2.5,5H13v2.5a0.5,0.5,0,0,1-1,0V13H9.5a0.5,0.5,0,0,1,0-1H12V9.5a0.5,0.5,0,1,1,1,0V12h2.5A0.5,0.5,0,0,1,15.5,13Z"/>
</svg>
