<svg id="_" data-name="&gt;" xmlns="http://www.w3.org/2000/svg" width="24" height="24" viewBox="0 0 24 24">
  <defs>
    <style>
      .cls-1 {
        fill: #232629;
        fill-rule: evenodd;
      }
    </style>
  </defs>
  <path id="_2" data-name="#" class="cls-1" d="M17.1,20H16V19h1.7a0.3,0.3,0,0,0,.3-0.3V5.3A0.3,0.3,0,0,0,17.7,5H16V4h1.1A1.9,1.9,0,0,1,19,5.9V18.1A1.9,1.9,0,0,1,17.1,20Zm-4,0H6.9A1.9,1.9,0,0,1,5,18.1V5.9A1.9,1.9,0,0,1,6.9,4h6.2A1.9,1.9,0,0,1,15,5.9V18.1A1.9,1.9,0,0,1,13.1,20ZM14,5.3A0.3,0.3,0,0,0,13.7,5H6.3a0.3,0.3,0,0,0-.3.3V18.7a0.3,0.3,0,0,0,.3.3h7.4a0.3,0.3,0,0,0,.3-0.3V5.3Z"/>
</svg>
