<svg id="_" data-name="&gt;" xmlns="http://www.w3.org/2000/svg" width="24" height="24" viewBox="0 0 24 24">
  <defs>
    <style>
      .cls-1 {
        fill: #232629;
        fill-rule: evenodd;
      }
    </style>
  </defs>
  <path id="_2" data-name="#" class="cls-1" d="M18,9.031a1.517,1.517,0,0,0-1-1.164V3.5a1.5,1.5,0,0,0-3,0V7.085A14.155,14.155,0,0,0,12.516,7H12.484A14.155,14.155,0,0,0,11,7.085V3.5a1.5,1.5,0,0,0-3,0V7.867A1.517,1.517,0,0,0,7,9.031v6.2c0,1.267,1.688,2.324,4,2.651V21.5a1.5,1.5,0,0,0,3,0V17.885c2.311-.327,4-1.384,4-2.651,0-.005,0-0.01,0-0.016S18,9.042,18,9.031ZM15,7.085V3.5a0.5,0.5,0,0,1,1,0V7.512l-1-.306V7.085ZM9,3.5a0.5,0.5,0,0,1,1,0V7.212l-1,.3V3.5Zm4,18a0.5,0.5,0,0,1-1,0V18h1v3.5Zm4-6.218c-0.064.514-1.15,1.332-3.137,1.614L13,17.017V17H12v0.017L11.14,16.9C9.154,16.614,8.067,15.8,8,15.282V15.22l0-6.14a1.568,1.568,0,0,1,.459-0.328S8.859,8.527,9,8.471a6.586,6.586,0,0,1,1-.283c0.273-.047,1.088-0.129,1.088-0.129A12.916,12.916,0,0,1,12.484,8h0.031a13.021,13.021,0,0,1,1.38.08l1.01,0.106a1.013,1.013,0,0,1,.162.03S15.775,8.382,16,8.47c0.14,0.055.534,0.281,0.534,0.281a1.568,1.568,0,0,1,.459.328l0,6.14v0.062Z"/>
</svg>
