<svg id="_" data-name="&gt;" xmlns="http://www.w3.org/2000/svg" width="24" height="24" viewBox="0 0 24 24">
  <defs>
    <style>
      .cls-1 {
        fill: #232629;
        fill-rule: evenodd;
      }
    </style>
  </defs>
  <path id="_2" data-name="#" class="cls-1" d="M17.5,17H17V16h0.5A1.5,1.5,0,0,0,19,14.5v-8A1.5,1.5,0,0,0,17.5,5H7.5A1.5,1.5,0,0,0,6,6.5v8A1.5,1.5,0,0,0,7.5,16H12v1H7.5A2.5,2.5,0,0,1,5,14.5v-8A2.5,2.5,0,0,1,7.5,4h10A2.5,2.5,0,0,1,20,6.5v8A2.5,2.5,0,0,1,17.5,17ZM16,10.543v9.414H13V10.543l1.531-2.531ZM14,17h1V11H14v6Z"/>
</svg>
