<svg xmlns="http://www.w3.org/2000/svg" width="20" height="22" viewBox="0 0 20 22">
  <metadata><?xpacket begin="﻿" id="W5M0MpCehiHzreSzNTczkc9d"?>
<x:xmpmeta xmlns:x="adobe:ns:meta/" x:xmptk="Adobe XMP Core 5.6-c140 79.160451, 2017/05/06-01:08:21        ">
   <rdf:RDF xmlns:rdf="http://www.w3.org/1999/02/22-rdf-syntax-ns#">
      <rdf:Description rdf:about=""/>
   </rdf:RDF>
</x:xmpmeta>
                                                                                                    
                                                                                                    
                                                                                                    
                                                                                                    
                                                                                                    
                                                                                                    
                                                                                                    
                                                                                                    
                                                                                                    
                                                                                                    
                                                                                                    
                                                                                                    
                                                                                                    
                                                                                                    
                                                                                                    
                                                                                                    
                                                                                                    
                                                                                                    
                                                                                                    
                                                                                                    
                           
<?xpacket end="w"?></metadata>
<defs>
    <style>
      .cls-1 {
        fill: #62d797;
        fill-rule: evenodd;
      }
    </style>
  </defs>
  <path id="Account" class="cls-1" d="M10.179,1.011H9.8A3.673,3.673,0,0,0,5.988,4.53q0,0.023,0,.046L6,6.119A4.35,4.35,0,0,0,9.8,9.957h0.379a4.421,4.421,0,0,0,3.815-3.881L14,4.62a3.719,3.719,0,0,0-3.821-3.609h0Zm0.5,11.962h-1.4C6.81,12.973,1,14.949,1,18.727v0.4a1.654,1.654,0,0,0,1.8,1.863H17.2A1.608,1.608,0,0,0,19,19.289V18.721c0-3.772-5.849-5.748-8.313-5.748H10.677Z"/>
</svg>
