<svg xmlns="http://www.w3.org/2000/svg" width="20" height="20" viewBox="0 0 20 20">
  <defs>
    <style>
      .cls-1 {
        fill: #6cd599;
        fill-rule: evenodd;
      }
    </style>
  </defs>
  <path id="Featured" class="cls-1" d="M19.564,8.5l-4.016,3.284a0.81,0.81,0,0,0-.274.819l1.215,4.966a1.189,1.189,0,0,1-1.121,1.474,1.138,1.138,0,0,1-.622-0.192l-4.392-2.7a0.806,0.806,0,0,0-.851,0l-4.339,2.7a1.11,1.11,0,0,1-.626.192A1.16,1.16,0,0,1,3.422,17.57L4.637,12.6a0.809,0.809,0,0,0-.27-0.815L0.4,8.505a1.193,1.193,0,0,1,.7-2.092l5.132-.373a0.8,0.8,0,0,0,.687-0.5L8.882,0.767a1.193,1.193,0,0,1,2.208,0l1.959,4.77a0.813,0.813,0,0,0,.687.5l5.132,0.373A1.19,1.19,0,0,1,19.564,8.5Z"/>
</svg>
