<svg xmlns="http://www.w3.org/2000/svg" width="20" height="22" viewBox="0 0 20 22">
  <defs>
    <style>
      .cls-1 {
        fill: #62d797;
        fill-rule: evenodd;
      }
    </style>
  </defs>
  <path id="Home" class="cls-1" d="M20,19.5A1.5,1.5,0,0,1,18.5,21h-5A1.5,1.5,0,0,1,12,19.5v-6A1.5,1.5,0,0,0,10.5,12h-1A1.5,1.5,0,0,0,8,13.5v6A1.5,1.5,0,0,1,6.5,21h-5A1.5,1.5,0,0,1,0,19.5l0-9.48A1.539,1.539,0,0,1,.453,8.934L8.947,0.481a1.529,1.529,0,0,1,2.167,0L19.56,8.934a1.538,1.538,0,0,1,.449,1.087Z"/>
</svg>
