<svg xmlns="http://www.w3.org/2000/svg" width="22" height="20" viewBox="0 0 22 20">
  <defs>
    <style>
      .cls-1 {
        fill: #62d797;
        fill-rule: evenodd;
      }
    </style>
  </defs>
  <path id="Shop" class="cls-1" d="M19.063,8.009A2.937,2.937,0,0,1,16.37,6.255a2.944,2.944,0,0,1-5.382.009,2.939,2.939,0,0,1-5.376-.01A2.953,2.953,0,0,1,2.907,8.009a2.92,2.92,0,0,1-2.931-2.9A0.24,0.24,0,0,1,0,4.994L2.7,0.141A0.239,0.239,0,0,1,2.907.016H19.063a0.24,0.24,0,0,1,.21.125l2.693,4.852a0.241,0.241,0,0,1,.028.113A2.921,2.921,0,0,1,19.063,8.009ZM5.015,10.038L5.007,18.06l1.838-2.081h7.968L17,18.087l0-8.05a6.225,6.225,0,0,0,2,.472v8.525a0.965,0.965,0,0,1-.964.966H3.969A0.973,0.973,0,0,1,3,19.034l0-8.526A6.321,6.321,0,0,0,5.015,10.038Z"/>
</svg>
