<svg id="Social" xmlns="http://www.w3.org/2000/svg" width="28" height="28" viewBox="0 0 28 28">
  <defs>
    <style>
      .cls-1 {
        fill: #fff;
        fill-rule: evenodd;
      }
    </style>
  </defs>
  <path id="Google_" data-name="Google+" class="cls-1" d="M22.75,24H6.25A2.251,2.251,0,0,1,4,21.75V5.251A2.251,2.251,0,0,1,6.25,3h16.5A2.251,2.251,0,0,1,25,5.251v16.5A2.251,2.251,0,0,1,22.75,24ZM18.019,14H18V13.578c-0.015-.233-0.035-0.456-0.057-0.585H13v1.991h2.963a2.77,2.77,0,0,1-2.942,2.011,3.039,3.039,0,0,1-3.03-3.069A2.918,2.918,0,0,1,13.016,11a3.275,3.275,0,0,1,2.136.568l1.295-1.337a4.63,4.63,0,0,0-3.333-1.274,5.011,5.011,0,0,0-5.146,4.964,5.164,5.164,0,0,0,5.146,5.146,4.6,4.6,0,0,0,4.91-4.853C18.024,14.155,18.021,14.077,18.019,14ZM22,13H21V12H20v1H19v1h1v1h1V14h1V13Z"/>
</svg>
