<svg id="Social" xmlns="http://www.w3.org/2000/svg" width="28" height="28" viewBox="0 0 28 28">
  <defs>
    <style>
      .cls-1 {
        fill: #fff;
        fill-rule: evenodd;
      }
    </style>
  </defs>
  <path id="Facebook" class="cls-1" d="M22.75,3H6.25A2.251,2.251,0,0,0,4,5.251v16.5A2.251,2.251,0,0,0,6.25,24h8.761V17.032h-3V13.958h3V12c0-2.89,1.482-4.042,4.06-4.042,1.43,0,1.95.021,1.941,0.011v3.053H19.655c-1.4,0-1.661.62-1.661,1.6v1.341h3l-0.435,3.074H17.993V24H22.75A2.251,2.251,0,0,0,25,21.75V5.251A2.251,2.251,0,0,0,22.75,3Z"/>
</svg>
