<svg id="Social" xmlns="http://www.w3.org/2000/svg" width="28" height="28" viewBox="0 0 28 28">
  <defs>
    <style>
      .cls-1 {
        fill: #fff;
        fill-rule: evenodd;
      }
    </style>
  </defs>
  <path id="Twitter" class="cls-1" d="M26.255,6.239A9.674,9.674,0,0,1,23.477,7,4.855,4.855,0,0,0,25.6,4.325,9.7,9.7,0,0,1,22.531,5.5a4.839,4.839,0,0,0-8.24,4.411A13.731,13.731,0,0,1,4.323,4.857a4.842,4.842,0,0,0,1.5,6.456,4.813,4.813,0,0,1-2.191-.6v0.061A4.84,4.84,0,0,0,7.507,15.51a4.863,4.863,0,0,1-2.184.083,4.845,4.845,0,0,0,4.518,3.36,9.715,9.715,0,0,1-6.006,2.069,10.125,10.125,0,0,1-1.153-.068A13.647,13.647,0,0,0,10.1,23.065a13.616,13.616,0,0,0,13.759-13.7c0-.209,0-0.418-0.015-0.626a9.864,9.864,0,0,0,2.414-2.5h0Z"/>
</svg>
