<svg id="Social" xmlns="http://www.w3.org/2000/svg" width="28" height="28" viewBox="0 0 28 28">
  <defs>
    <style>
      .cls-1 {
        fill: #fff;
        fill-rule: evenodd;
      }
    </style>
  </defs>
  <path id="Youtube" class="cls-1" d="M25.953,5.616c-0.975-1.159-2.775-1.631-6.212-1.631H8.263c-3.516,0-5.346.5-6.318,1.737C1,6.924,1,8.7,1,11.149v4.676c0,4.752,1.124,7.165,7.265,7.165H19.741c2.981,0,4.633-.417,5.7-1.44,1.1-1.049,1.564-2.761,1.564-5.726V11.149C27.006,8.562,26.932,6.779,25.953,5.616Zm-8.367,8.569-5.364,2.728a0.843,0.843,0,0,1-.809-0.025,0.8,0.8,0,0,1-.4-0.686v-5.44a0.8,0.8,0,0,1,.4-0.686,0.844,0.844,0,0,1,.808-0.027l5.364,2.711A0.793,0.793,0,0,1,17.586,14.184Z"/>
</svg>
