<svg xmlns="http://www.w3.org/2000/svg" width="16" height="16" viewBox="0 0 16 16">
  <defs>
    <style>
      .cls-1 {
        fill: #0093db;
        fill-rule: evenodd;
      }
    </style>
  </defs>
  <path id="_" data-name="#" class="cls-1" d="M7.783,1.2L9.351,5.784a0.3,0.3,0,0,0,.282.191H14.7a0.275,0.275,0,0,1,.174.5l-4.1,3.09a0.287,0.287,0,0,0-.108.324l1.567,4.724a0.3,0.3,0,0,1-.456.324l-4.1-2.919a0.3,0.3,0,0,0-.348,0l-4.1,2.919a0.3,0.3,0,0,1-.456-0.324L4.335,9.891a0.287,0.287,0,0,0-.108-0.324l-4.1-3.09A0.275,0.275,0,0,1,.3,5.975H5.371a0.3,0.3,0,0,0,.282-0.191L7.22,1.2A0.3,0.3,0,0,1,7.783,1.2Z"/>
</svg>
