<svg xmlns="http://www.w3.org/2000/svg" width="264.03" height="134" viewBox="0 0 264.03 134">
  <path class="cls-1" d="M1302.48,663.97a6.038,6.038,0,0,1-8.5.493l-85.97-76.413-61.83,54.956-9.05,8.037-15.09,13.42a6.009,6.009,0,0,1-8-8.969l14.05-12.489,9.04-8.038,66.88-59.437a6.023,6.023,0,0,1,8,0l89.97,79.964A6.005,6.005,0,0,1,1302.48,663.97Zm-166.46-83.991A23.982,23.982,0,1,1,1160.01,556,23.994,23.994,0,0,1,1136.02,579.979Zm0-35.973a11.991,11.991,0,1,0,12,11.991A12.007,12.007,0,0,0,1136.02,544.006ZM1119.01,634.2l-17.73-15.991-51.31,46.275a5.977,5.977,0,0,1-8.48-.5,6.134,6.134,0,0,1,.5-8.582l55.29-49.871a5.953,5.953,0,0,1,7.99,0l22.76,20.529Z" transform="translate(-1039.97 -532)"/>
</svg>
