<?xml version="1.0" standalone="no"?>
<!DOCTYPE svg PUBLIC "-//W3C//DTD SVG 20010904//EN"
 "http://www.w3.org/TR/2001/REC-SVG-20010904/DTD/svg10.dtd">
<svg xmlns="http://www.w3.org/2000/svg"
 width="260.000000pt" height="260.000000pt" viewBox="0 0 260.000000 260.000000"
 preserveAspectRatio="xMidYMid meet">
  <path fill-rule="evenodd" d="M48.748,0.011H211.241a48.748,48.748,0,0,1,48.748,48.748V211.252A48.748,48.748,0,0,1,211.241,260H48.748A48.748,48.748,0,0,1,0,211.252V48.759A48.748,48.748,0,0,1,48.748.011Zm120.09,164H142V197a12,12,0,0,1-24,0V164.012H91.16A10.9,10.9,0,0,1,80,153.163v-51.3a50,50,0,0,1,99.993,0V152.85A11.159,11.159,0,0,1,168.838,164.012Z"/>
</svg>
