
<svg xmlns="http://www.w3.org/2000/svg" width="25" height="23" viewBox="0 0 25 23">
  <g id="Vector_Smart_Object" data-name="Vector Smart Object" transform="translate(-2658 -414)">
    <g id="Vector_Smart_Object-2" data-name="Vector Smart Object" transform="translate(2636.293 348.622)">
      <g id="그룹_49" data-name="그룹 49">
        <g id="그룹_48" data-name="그룹 48">
          <path id="패스_54" data-name="패스 54" d="M43.78,78.315l-9.158-8.089a.628.628,0,0,0-.831,0l-9.158,8.089a.313.313,0,0,0-.106.235v9.514a.314.314,0,0,0,.314.314h6.437a.314.314,0,0,0,.314-.314V81.987a1.256,1.256,0,0,1,1.255-1.255h2.719a1.256,1.256,0,0,1,1.255,1.255v6.077a.314.314,0,0,0,.314.314h6.437a.314.314,0,0,0,.314-.314V78.55A.313.313,0,0,0,43.78,78.315Z" fill="#173042"/>
          <path id="패스_55" data-name="패스 55" d="M46.3,75.176,35.864,66a2.512,2.512,0,0,0-3.315,0L22.11,75.176a1.186,1.186,0,0,0-.056,1.73h0a1.186,1.186,0,0,0,1.622.051l9.7-8.543a1.256,1.256,0,0,1,1.66,0l9.7,8.543A1.186,1.186,0,1,0,46.3,75.176Z" fill="#173042"/>
        </g>
      </g>
    </g>
    <path id="Color_Overlay" data-name="Color Overlay" d="M2673.429,437a.314.314,0,0,1-.314-.314v-6.077a1.256,1.256,0,0,0-1.255-1.255h-2.719a1.256,1.256,0,0,0-1.256,1.255v6.077a.314.314,0,0,1-.313.314h-6.438a.314.314,0,0,1-.314-.314v-9.514a.317.317,0,0,1,.106-.236l9.158-8.088a.627.627,0,0,1,.831,0l9.158,8.088a.319.319,0,0,1,.106.236v9.514a.314.314,0,0,1-.314.314Zm7.6-11.421-9.7-8.543a1.255,1.255,0,0,0-1.659,0l-9.7,8.543a1.186,1.186,0,1,1-1.567-1.781l10.439-9.174a2.512,2.512,0,0,1,3.315,0L2682.6,423.8a1.186,1.186,0,1,1-1.566,1.781Z" fill="#283089"/>
  </g>
</svg>
