
<svg xmlns="http://www.w3.org/2000/svg" width="341.003" height="96.998" viewBox="0 0 341.003 96.998">
  <g id="그룹_15" data-name="그룹 15" transform="translate(-186.142 -186.518)">
    <g id="그룹_13" data-name="그룹 13">
      <g id="그룹_12" data-name="그룹 12">
        <g id="그룹_11" data-name="그룹 11">
          <path id="패스_15" data-name="패스 15" d="M234.088,186.518a48.1,48.1,0,0,0-46.214,35.672,48.905,48.905,0,0,0-1.716,12.829h-.016v20.857h6.574v0h20.752v27.636h20.619c26.427,0,47.93-21.755,47.93-48.5S260.515,186.518,234.088,186.518Zm0,85.62h-9.372V255.88h9.372a20.865,20.865,0,0,0,0-41.727,20.433,20.433,0,0,0-15,6.589,21.023,21.023,0,0,0-5.624,14.277v9.48h-15.93v-9.48a9.364,9.364,0,0,1,.055-1v-.095a38.254,38.254,0,0,1,.528-6.2,37.149,37.149,0,0,1,5.632-13.549A36.556,36.556,0,0,1,234.088,197.9c20.225,0,36.682,16.649,36.682,37.119S254.312,272.138,234.088,272.138Zm-9.372-27.64v-9.48a9.372,9.372,0,1,1,9.372,9.48h-9.372Z" fill="#042478"/>
        </g>
      </g>
    </g>
    <g id="그룹_14" data-name="그룹 14">
      <path id="패스_16" data-name="패스 16" d="M307.585,241.944v15.981H296.7V212.366h17.638q8.025,0,12.225,4.03t4.205,10.856a15.131,15.131,0,0,1-1.88,7.573,13.073,13.073,0,0,1-5.573,5.216,19.405,19.405,0,0,1-8.977,1.9Zm12.1-14.692q0-5.991-6.562-5.991h-5.538v11.856h5.538Q319.682,233.117,319.684,227.252Z" fill="#042478"/>
      <path id="패스_17" data-name="패스 17" d="M364,249.612H347.127l-2.8,8.313H332.863l16.492-45.234H361.9l16.492,45.234H366.805Zm-2.8-8.376-5.6-16.752-5.667,16.752Z" fill="#042478"/>
      <path id="패스_18" data-name="패스 18" d="M422.586,257.925H411.7l-18.212-27.964v27.964H382.6V212.366h10.888L411.7,240.591V212.366h10.888Z" fill="#042478"/>
      <path id="패스_19" data-name="패스 19" d="M438.5,212.366l11.017,34.284,11.017-34.284h11.654l-15.668,45.559H442.452l-15.6-45.559Z" fill="#042478"/>
      <path id="패스_20" data-name="패스 20" d="M487.282,212.366v45.559H476.394V212.366Z" fill="#042478"/>
      <path id="패스_21" data-name="패스 21" d="M525.328,251.739a12.836,12.836,0,0,1-5.346,4.833,18.678,18.678,0,0,1-8.567,1.8q-7.58,0-12.483-3.737a13.593,13.593,0,0,1-5.346-10.437h11.588a6.219,6.219,0,0,0,1.817,4.058,5.537,5.537,0,0,0,3.979,1.483,4.586,4.586,0,0,0,3.31-1.159,4.1,4.1,0,0,0,1.211-3.1,4.024,4.024,0,0,0-1.114-2.9,8.8,8.8,0,0,0-2.771-1.9q-1.659-.736-4.584-1.772a54.924,54.924,0,0,1-6.972-2.867,12.845,12.845,0,0,1-4.651-4.125,13.55,13.55,0,0,1,.1-14.142,13.008,13.008,0,0,1,5.636-4.544,20.342,20.342,0,0,1,8.246-1.578q7.509,0,11.939,3.611a13.817,13.817,0,0,1,5,9.922H514.534a6.142,6.142,0,0,0-1.622-3.579,4.752,4.752,0,0,0-3.533-1.317,4.541,4.541,0,0,0-3.091,1.028,3.815,3.815,0,0,0-1.176,3.029,3.877,3.877,0,0,0,1.051,2.741,8.007,8.007,0,0,0,2.642,1.835c1.059.475,2.591,1.076,4.584,1.8a50.291,50.291,0,0,1,7.07,2.93,13.625,13.625,0,0,1,4.713,4.224,12.18,12.18,0,0,1,1.974,7.217A12.664,12.664,0,0,1,525.328,251.739Z" fill="#042478"/>
    </g>
  </g>
</svg>
