
<svg xmlns="http://www.w3.org/2000/svg" width="408.004" height="115.997" viewBox="0 0 408.004 115.997">
  <path id="Color_Overlay" data-name="Color Overlay" d="M332.15,862H318.693V828.95h-24.83v0H286V804h.019a58.481,58.481,0,0,1,2.052-15.342C294.737,764.1,316.99,746,343.363,746c31.621,0,57.347,26.016,57.347,58s-25.727,58-57.347,58Zm0-15.082v1.476h11.212c24.2,0,43.889-19.916,43.889-44.391s-19.69-44.391-43.889-44.391a43.74,43.74,0,0,0-36.294,19.462,44.385,44.385,0,0,0-6.738,16.2,45.591,45.591,0,0,0-.631,7.416v.113a11.137,11.137,0,0,0-.067,1.2v11.336h19.06V804a25.115,25.115,0,0,1,6.729-17.073,24.453,24.453,0,0,1,17.941-7.879,24.951,24.951,0,0,1,0,49.9H332.15Zm0-42.915v11.336h11.212A11.34,11.34,0,1,0,332.15,804Zm328.1,23.463a16.252,16.252,0,0,1-6.4-12.481h13.865a7.432,7.432,0,0,0,2.174,4.853,6.625,6.625,0,0,0,4.76,1.773,5.487,5.487,0,0,0,3.959-1.385,4.9,4.9,0,0,0,1.45-3.7,4.808,4.808,0,0,0-1.332-3.467,10.551,10.551,0,0,0-3.315-2.274q-1.987-.88-5.485-2.119a65.846,65.846,0,0,1-8.342-3.429,15.37,15.37,0,0,1-5.565-4.934,16.2,16.2,0,0,1,.117-16.911,15.557,15.557,0,0,1,6.743-5.434,24.345,24.345,0,0,1,9.867-1.888q8.984,0,14.286,4.319a16.522,16.522,0,0,1,5.98,11.866h-14.1a7.339,7.339,0,0,0-1.94-4.28,5.688,5.688,0,0,0-4.227-1.574,5.435,5.435,0,0,0-3.7,1.229,4.561,4.561,0,0,0-1.406,3.622,4.638,4.638,0,0,0,1.256,3.277,9.57,9.57,0,0,0,3.162,2.194c1.267.569,3.1,1.287,5.485,2.157a59.994,59.994,0,0,1,8.459,3.5,16.29,16.29,0,0,1,5.639,5.05A14.568,14.568,0,0,1,694,816.062,15.137,15.137,0,0,1,691.827,824a15.361,15.361,0,0,1-6.4,5.78,22.375,22.375,0,0,1-10.25,2.156Q666.112,831.934,660.245,827.465Zm-26.968,3.93V776.912h13.028v54.482Zm-40.611,0L574,776.912h13.945l13.181,41,13.182-41h13.944l-18.746,54.482Zm-36.8,0-21.789-33.441v33.441H521.053V776.912h13.028l21.789,33.754V776.912H568.9v54.482Zm-53.713,0-3.353-9.941H478.614l-3.353,9.941H461.545l19.733-54.1h15.01l19.733,54.1Zm-20.192-19.958h13.487L488.746,791.4Zm-63.691,19.958V776.912h21.1q9.6,0,14.628,4.819t5.031,12.982a18.085,18.085,0,0,1-2.249,9.057,15.638,15.638,0,0,1-6.669,6.238,23.222,23.222,0,0,1-10.741,2.275H431.3v19.112ZM431.3,801.727h6.626q7.849,0,7.853-7.014,0-7.166-7.853-7.165H431.3Z" transform="translate(-285.997 -746.001)" fill="#fff"/>
</svg>
