<svg xmlns="http://www.w3.org/2000/svg" width="120" height="43" viewBox="0 0 120 43">
  <defs>
    <style>
      .cls-1 {
        fill: #151618;
        fill-rule: evenodd;
      }
    </style>
  </defs>
  <path id="Gallery" class="cls-1" d="M119,43H0V0H120V43h-1ZM118,2H2V41H118V2ZM16.581,15.616A6.107,6.107,0,0,1,20.909,14a5.809,5.809,0,0,1,6.04,4.976H23.794a2.587,2.587,0,0,0-2.885-2.031,3.023,3.023,0,0,0-2.131.788c-0.609.622-.766,0.931-0.766,3.771s0.158,3.17.766,3.792a2.987,2.987,0,0,0,2.131.7,3.346,3.346,0,0,0,2.357-.673,2.53,2.53,0,0,0,.721-1.358H21V21.025h6v2.8c-0.219,2.135-.5,2.483-1.626,3.561a6.05,6.05,0,0,1-4.468,1.616,6.185,6.185,0,0,1-4.327-1.617C14.959,25.9,15,24.053,15,21.5S14.959,17.108,16.581,15.616ZM36.174,14L42,28.942h-3.25l-1.1-2.98H32.327l-1.151,2.98h-3.25L33.731,14h2.443Zm0.807,9L35,18.408,33.014,23h3.967ZM47,25.992h6.984v2.981H44.006V14.005h3V25.992Zm12,0h6.984v2.981H56.006V14.005h3V25.992ZM71,14h7v2.934H71v3.058h6v2.934H71v3.121h7v2.934H68V14h3Zm20.013,4.589a3.913,3.913,0,0,1-2.691,3.948l3.746,6.4h-3.6L85.447,23H82.99v5.945H80V13.991h5.838C89.088,13.991,91.013,16.095,91.013,18.589ZM82.992,20H86.04a1.578,1.578,0,0,0,1.788-1.527,1.562,1.562,0,0,0-1.788-1.5H82.992V20Zm12.476-5.994,3.044,6.031,3-6.031h3.455l-4.959,8.826v6.136H97V22.835l-4.991-8.826h3.456Z"/>
</svg>
