<svg xmlns="http://www.w3.org/2000/svg" width="18" height="18" viewBox="0 0 18 18">
  <defs>
    <style>
      .cls-1 {
        fill: #151618;
        fill-rule: evenodd;
      }
    </style>
  </defs>
  <path id="_" data-name="#" class="cls-1" d="M14.718,11.245a0.844,0.844,0,0,1-.748.708H5.026a0.843,0.843,0,0,1-.748-0.707L2.393,1.882,1.31,1.775C1,1.742,1,1.617,1,1.355A0.305,0.305,0,0,1,1.363,1L3.607,1.013a0.239,0.239,0,0,1,.19.2l0.6,2.762H15.24a0.733,0.733,0,0,1,.749.872ZM6.484,13a1.5,1.5,0,1,1-1.5,1.5A1.5,1.5,0,0,1,6.484,13Zm0,2a0.5,0.5,0,1,0-.5-0.5A0.5,0.5,0,0,0,6.484,15Zm6-2a1.5,1.5,0,1,1-1.5,1.5A1.5,1.5,0,0,1,12.484,13Zm0,2a0.5,0.5,0,0,0,.5-0.5l-0.5-.5A0.5,0.5,0,1,0,12.484,15Z"/>
</svg>
