<svg xmlns="http://www.w3.org/2000/svg" width="34" height="34" viewBox="0 0 34 34">
  <defs>
    <style>
      .cls-1 {
        fill: #5ca8e0;
        fill-rule: evenodd;
      }
    </style>
  </defs>
  <path id="tw" class="cls-1" d="M3,0H30a3,3,0,0,1,3,3V29a3,3,0,0,1-3,3H3a3,3,0,0,1-3-3V3A3,3,0,0,1,3,0ZM24.673,11.534a5.957,5.957,0,0,1-1.829.442,3.374,3.374,0,0,0,1.467-1.862,6.64,6.64,0,0,1-2.118.817,3.415,3.415,0,0,0-2.509-.979A3.175,3.175,0,0,0,16.343,13.1c0,0.264.01,0.2,0.008,0.458a8.247,8.247,0,0,1-6.5-3.073,3.391,3.391,0,0,0,1.032,4.5,3.31,3.31,0,0,1-1.511-.421c0,0.013,0,.028,0,0.043a3.253,3.253,0,0,0,2.676,3.2,3.307,3.307,0,0,1-1.506.058,3.139,3.139,0,0,0,2.969,2.312,8.176,8.176,0,0,1-5.731,1.35A12.093,12.093,0,0,0,13.652,23a9.113,9.113,0,0,0,9.309-9.33c0-.146,0-0.342-0.01-0.486A6.694,6.694,0,0,0,24.673,11.534Z"/>
</svg>
