<svg xmlns="http://www.w3.org/2000/svg" width="20" height="36" viewBox="0 0 20 36">
  <defs>
    <style>
      .cls-1 {
        fill: #161719;
        fill-rule: evenodd;
      }
    </style>
  </defs>
  <path id="_" data-name="#" class="cls-1" d="M18.828,17.942l-0.455.445c-0.011.011-.026,0.014-0.038,0.024L1.538,34.826a0.654,0.654,0,0,1-.91,0l-0.455-.445a0.618,0.618,0,0,1,0-.889l16.374-16-16.373-16a0.619,0.619,0,0,1,0-.89l0.455-.444a0.654,0.654,0,0,1,.91,0l16.8,16.418c0.01,0.009.023,0.011,0.032,0.021l0.455,0.445A0.635,0.635,0,0,1,18.828,17.942Z"/>
</svg>
