<svg xmlns="http://www.w3.org/2000/svg" width="18" height="18" viewBox="0 0 18 18">
  <defs>
    <style>
      .cls-1 {
        fill: #fff;
        fill-rule: evenodd;
      }
    </style>
  </defs>
  <path id="_" data-name="#" class="cls-1" d="M18.023,8.478A8.488,8.488,0,0,1,5.381,15.9l-5.406,2.1L2.2,12.854A8.4,8.4,0,0,1,.977,8.478a8.523,8.523,0,0,1,17.046,0h0ZM9.5,1.494A7.014,7.014,0,0,0,2.471,8.481a6.925,6.925,0,0,0,1.338,4.1L2.117,15.894l3.515-1.582A7,7,0,1,0,9.5,1.494h0ZM13.8,10.43"/>
</svg>
