<svg id="Icons" xmlns="http://www.w3.org/2000/svg" width="20" height="20" viewBox="0 0 20 20">
  <defs>
    <style>
      .cls-1 {
        fill: #26303c;
        fill-rule: evenodd;
      }
    </style>
  </defs>
  <path id="_" data-name="#" class="cls-1" d="M10,18a8,8,0,1,1,8-8A8,8,0,0,1,10,18ZM10,3a7,7,0,1,0,7,7A7,7,0,0,0,10,3ZM9.192,12.91a0.724,0.724,0,0,1-.373.105,0.734,0.734,0,0,1-.438-0.149,1.058,1.058,0,0,1-.4-0.851V7.985a1.058,1.058,0,0,1,.4-0.851,0.733,0.733,0,0,1,.438-0.149,0.725,0.725,0,0,1,.373.106l3.36,2.016a1.1,1.1,0,0,1,0,1.789ZM9,8.2v3.6L12,10Z"/>
</svg>
