<svg id="Icons" xmlns="http://www.w3.org/2000/svg" width="20" height="20" viewBox="0 0 20 20">
  <defs>
    <style>
      .cls-1 {
        fill: #26303c;
        fill-rule: evenodd;
        opacity: 0.9;
      }
    </style>
  </defs>
  <path id="_" data-name="#" class="cls-1" d="M17,18H3a1,1,0,0,1-1-1V3A1,1,0,0,1,3,2H17a1,1,0,0,1,1,1V17A1,1,0,0,1,17,18ZM17,3H3V17H17V3ZM5.5,4A1.5,1.5,0,1,1,4,5.5,1.5,1.5,0,0,1,5.5,4Zm0,2.146A0.644,0.644,0,1,0,4.856,5.5,0.643,0.643,0,0,0,5.5,6.145ZM5.5,8h9A1.5,1.5,0,0,1,16,9.5v5A1.5,1.5,0,0,1,14.5,16h-9A1.5,1.5,0,0,1,4,14.5v-5A1.5,1.5,0,0,1,5.5,8ZM5,15H15V9H5v6Zm6.426-1.024a0.385,0.385,0,0,1-.149.034,0.347,0.347,0,0,1-.309-0.188,0.332,0.332,0,0,1,.16-0.451,0.942,0.942,0,0,0,.538-0.458,0.9,0.9,0,0,0-.17-0.727c-0.708-1.124-.371-1.874-0.031-2.114a0.355,0.355,0,0,1,.486.071,0.331,0.331,0,0,1-.073.471c-0.049.04-.312,0.387,0.212,1.215a1.519,1.519,0,0,1,.243,1.279A1.6,1.6,0,0,1,11.426,13.976ZM8.5,13.989a0.354,0.354,0,0,1-.461-0.165,0.334,0.334,0,0,1,.17-0.447,0.961,0.961,0,0,0,.552-0.464,0.9,0.9,0,0,0-.177-0.724c-0.725-1.127-.382-1.881-0.031-2.124a0.352,0.352,0,0,1,.472.074,0.327,0.327,0,0,1-.066.471c-0.052.037-.323,0.384,0.215,1.222a1.511,1.511,0,0,1,.25,1.279A1.616,1.616,0,0,1,8.5,13.989ZM14.5,7A1.5,1.5,0,1,1,16,5.5,1.5,1.5,0,0,1,14.5,7Zm0-2.146a0.644,0.644,0,1,0,.644.644A0.643,0.643,0,0,0,14.5,4.857ZM11.5,6h-3a0.5,0.5,0,0,1,0-1h3A0.5,0.5,0,0,1,11.5,6Z"/>
</svg>
