<svg id="Icons" xmlns="http://www.w3.org/2000/svg" width="20" height="20" viewBox="0 0 20 20">
  <defs>
    <style>
      .cls-1 {
        fill: #26303c;
        fill-rule: evenodd;
      }
    </style>
  </defs>
  <path id="_" data-name="#" class="cls-1" d="M17.992,9.382a8.025,8.025,0,0,1-.033,1.425v0.016c-0.025.232-.061,0.461-0.105,0.689-0.011.059-.022,0.117-0.035,0.176-0.04.184-.087,0.365-0.14,0.545-0.029.1-.059,0.2-0.092,0.293-0.049.145-.1,0.289-0.158,0.432-0.05.127-.106,0.251-0.162,0.374s-0.105.228-.164,0.34c-0.078.151-.163,0.3-0.251,0.442-0.05.082-.1,0.165-0.149,0.246-0.125.192-.26,0.377-0.4,0.557-0.024.03-.045,0.063-0.069,0.093a8.049,8.049,0,0,1-.646.711,1.916,1.916,0,0,1-.191.184c-0.023.021-.051,0.036-0.074,0.056a8.043,8.043,0,0,1-1,.766c-0.083.054-.167,0.1-0.252,0.153a7.946,7.946,0,0,1-1.033.52c-0.13.054-.261,0.1-0.394,0.144a7.916,7.916,0,0,1-.831.242,7.816,7.816,0,0,1-.795.142c-0.143.018-.288,0.032-0.433,0.042-0.192.015-.382,0.055-0.574,0.055-0.09,0-.179.01-0.269,0.018s-0.2.019-.294,0.019A0.122,0.122,0,0,1,9.333,18c-0.245-.02-0.483-0.083-0.724-0.127-0.094-.017-0.19-0.03-0.283-0.05-0.21-.046-0.417-0.1-0.623-0.16a7.921,7.921,0,0,1-.932-0.345C6.69,17.279,6.611,17.24,6.53,17.2a8.022,8.022,0,0,1-3.306-2.961c-0.026-.04-0.05-0.082-0.075-0.123a7.959,7.959,0,0,1-.523-1.009c-0.032-.075-0.055-0.154-0.084-0.23a7.924,7.924,0,0,1-.259-0.8c-0.036-.132-0.073-0.262-0.1-0.4a7.981,7.981,0,0,1-.143-0.932c-0.006-.066-0.025-0.13-0.03-0.2A8.022,8.022,0,0,1,4.23,4.4C4.259,4.36,4.3,4.321,4.335,4.282A7.983,7.983,0,0,1,10.591,1.96a7.9,7.9,0,0,1,4.645,1.927h0l0.041,0.04c0.148,0.124.279,0.25,0.391,0.36h0a7.975,7.975,0,0,1,2.149,4.045c0.051,0.242.089,0.488,0.118,0.737C17.953,9.174,17.984,9.276,17.992,9.382ZM3.128,11.273c0.019,0.1.042,0.2,0.066,0.305a6.936,6.936,0,0,0,.3.961c0.065,0.164.14,0.322,0.218,0.48q0.149,0.309.326,0.6c0.116,0.187.235,0.372,0.369,0.548,0.009,0.012.02,0.023,0.029,0.035A57.031,57.031,0,0,0,9.486,9.761L9.364,9.64c-0.245-.245-0.51-0.5-0.812-0.8A7.966,7.966,0,0,1,3.1,11.016C3.115,11.1,3.113,11.189,3.128,11.273Zm10.293,4.8a6.951,6.951,0,0,0,.933-0.631l0.036-.03c-0.825-1.092-1.713-2.175-2.64-3.224A6.949,6.949,0,0,0,9.927,16.96H10.01a6.977,6.977,0,0,0,3.387-.875ZM11.068,3.108a7.978,7.978,0,0,1-1.827,5c0.31,0.3.581,0.565,0.831,0.813l0.117,0.12a55.488,55.488,0,0,0,4.024-4.6A6.924,6.924,0,0,0,11.068,3.108Zm-1-.1C10.043,3.006,10.022,3,10,3A6.942,6.942,0,0,0,5.418,4.747C6.461,5.585,7.5,6.483,8.508,7.421A6.978,6.978,0,0,0,10.066,3.007ZM5.092,14.963a7.011,7.011,0,0,0,3.83,1.915,7.952,7.952,0,0,1,2.154-5.446c-0.29-.317-0.59-0.634-0.892-0.95A57.985,57.985,0,0,1,5.092,14.963Zm5.8-5.2q0.468,0.488.918,0.98a7.978,7.978,0,0,1,5.081-1.854,6.966,6.966,0,0,0-1.906-3.8A56.542,56.542,0,0,1,10.889,9.767Zm-7.812.246A6.938,6.938,0,0,0,7.82,8.153C6.8,7.208,5.758,6.306,4.709,5.464A6.939,6.939,0,0,0,3,10s0,0.008,0,.012H3.077Zm9.4,1.482c0.936,1.057,1.827,2.144,2.653,3.233A6.954,6.954,0,0,0,17,10c0-.033-0.009-0.064-0.01-0.1A6.956,6.956,0,0,0,12.481,11.494Z"/>
</svg>
