<svg id="Icons" xmlns="http://www.w3.org/2000/svg" width="20" height="20" viewBox="0 0 20 20">
  <defs>
    <style>
      .cls-1 {
        fill: #26303c;
        fill-rule: evenodd;
      }
    </style>
  </defs>
  <path id="_" data-name="#" class="cls-1" d="M18.988,12.5A4.564,4.564,0,0,1,14.4,17.03a4.384,4.384,0,0,1-3.451-2.036H9.016A4.384,4.384,0,0,1,5.565,17.03a4.531,4.531,0,1,1,0-9.061H8.994a2.041,2.041,0,0,1,1.929-1.982h3.018a0.983,0.983,0,0,0,1.032-.969,1.032,1.032,0,0,0-1.032-1.032l-4.46-.023A0.536,0.536,0,0,1,9.03,3.423a0.451,0.451,0,0,1,.451-0.451h4.535A2,2,0,0,1,16,4.966a2.02,2.02,0,0,1-1.991,2.022H10.978a0.975,0.975,0,0,0-.985.981H14.4A4.565,4.565,0,0,1,18.988,12.5Zm-17.01,0a3.563,3.563,0,0,0,3.587,3.531,3.383,3.383,0,0,0,2.623-1.6l0.3-.441h3l0.3,0.441a3.383,3.383,0,0,0,2.623,1.6,3.531,3.531,0,1,0,0-7.061H5.565A3.563,3.563,0,0,0,1.979,12.5ZM15,11.5a0.5,0.5,0,1,1-.5-0.5A0.5,0.5,0,0,1,15,11.5ZM13.5,13a0.5,0.5,0,1,1,.5-0.5A0.5,0.5,0,0,1,13.5,13Zm1,0a0.5,0.5,0,1,1-.5.5A0.5,0.5,0,0,1,14.5,13Zm1-1a0.5,0.5,0,1,1-.5.5A0.5,0.5,0,0,1,15.5,12Zm-9,1H6v0.5a0.5,0.5,0,1,1-1,0V13H4.5a0.5,0.5,0,1,1,0-1H5V11.5a0.5,0.5,0,0,1,1,0V12H6.5A0.5,0.5,0,1,1,6.5,13Z"/>
</svg>
