<svg id="Icons" xmlns="http://www.w3.org/2000/svg" width="20" height="20" viewBox="0 0 20 20">
  <defs>
    <style>
      .cls-1 {
        fill: #26303c;
        fill-rule: evenodd;
        opacity: 0.9;
      }
    </style>
  </defs>
  <path id="_" data-name="#" class="cls-1" d="M17.5,18h-2a1.488,1.488,0,0,1-1.4-1H5.9a1.488,1.488,0,0,1-1.4,1h-2A1.5,1.5,0,0,1,1,16.5v-7A1.5,1.5,0,0,1,2.5,8H3V3.5A1.5,1.5,0,0,1,4.5,2h11A1.5,1.5,0,0,1,17,3.5V8h0.5A1.5,1.5,0,0,1,19,9.5v7A1.5,1.5,0,0,1,17.5,18ZM6,16h8V13H6v3ZM2.5,9a0.5,0.5,0,0,0-.5.5v7a0.5,0.5,0,0,0,.5.5h2A0.5,0.5,0,0,0,5,16.5v-7A0.5,0.5,0,0,0,4.5,9h-2ZM16,3H4V8H4.5A1.5,1.5,0,0,1,6,9.5v2h8v-2A1.5,1.5,0,0,1,15.5,8H16V3Zm2,6.5A0.5,0.5,0,0,0,17.5,9h-2a0.5,0.5,0,0,0-.5.5v7a0.5,0.5,0,0,0,.5.5h2a0.5,0.5,0,0,0,.5-0.5v-7Z"/>
</svg>
