<svg id="Icons" xmlns="http://www.w3.org/2000/svg" width="20" height="20" viewBox="0 0 20 20">
  <defs>
    <style>
      .cls-1 {
        fill: #26303c;
        fill-rule: evenodd;
      }
    </style>
  </defs>
  <path id="_" data-name="#" class="cls-1" d="M13.145,9L18,18H2L6.855,9h0L5.938,2H8a2,2,0,0,0,4,0h2.062L13.144,9h0ZM12.891,3A3.09,3.09,0,0,1,7.109,3H7.082L7.748,8.1,10.5,8.188c0.276,0,.5.036,0.5,0.313a0.5,0.5,0,0,1-.5.5H7.842a0.991,0.991,0,0,1-.139.532L3.691,17H16.309L12.29,9.519a1,1,0,0,1-.137-0.654L12.918,3H12.891Z"/>
</svg>
