<svg id="Icons" xmlns="http://www.w3.org/2000/svg" width="20" height="20" viewBox="0 0 20 20">
  <defs>
    <style>
      .cls-1 {
        fill: #26303c;
        fill-rule: evenodd;
        opacity: 0.9;
      }
    </style>
  </defs>
  <path id="_" data-name="#" class="cls-1" d="M14.5,8h1a0.5,0.5,0,0,1,0,1h-1A0.5,0.5,0,0,1,14.5,8Zm0,7h1a0.5,0.5,0,1,1,0,1h-1A0.5,0.5,0,1,1,14.5,15Zm0-5h1a0.5,0.5,0,0,1,0,1h-1A0.5,0.5,0,0,1,14.5,10Zm2,8H3.5A1.5,1.5,0,0,1,2,16.5V5.5A1.5,1.5,0,0,1,3.5,4H5V5H3.5a0.5,0.5,0,0,0-.5.5V17H6V3.5A1.5,1.5,0,0,1,7.5,2h4A1.5,1.5,0,0,1,13,3.5V17h4V5.5A0.5,0.5,0,0,0,16.5,5H14V4h2.5A1.5,1.5,0,0,1,18,5.5v11A1.5,1.5,0,0,1,16.5,18ZM12,16.5V3.5A0.5,0.5,0,0,0,11.5,3h-4a0.5,0.5,0,0,0-.5.5V17h5V16.5ZM10.5,16h-2a0.5,0.5,0,1,1,0-1h2A0.5,0.5,0,1,1,10.5,16Zm0-2h-2a0.5,0.5,0,0,1,0-1h2A0.5,0.5,0,0,1,10.5,14Zm0-3h-2A0.5,0.5,0,0,1,8,10.5v-4A0.5,0.5,0,0,1,8.5,6h2a0.5,0.5,0,0,1,.5.5v4A0.5,0.5,0,0,1,10.5,11ZM10,7.5a0.5,0.5,0,1,0-1,0v2a0.5,0.5,0,0,0,1,0v-2ZM4.5,16A0.5,0.5,0,1,1,5,15.5,0.5,0.5,0,0,1,4.5,16Zm0-2A0.5,0.5,0,1,1,5,13.5,0.5,0.5,0,0,1,4.5,14Zm0-2A0.5,0.5,0,0,1,4,11.5v-4a0.5,0.5,0,1,1,1,0v4A0.5,0.5,0,0,1,4.5,12Z"/>
</svg>
