<svg id="Icons" xmlns="http://www.w3.org/2000/svg" width="20" height="20" viewBox="0 0 20 20">
  <defs>
    <style>
      .cls-1 {
        fill: #26303c;
        fill-rule: evenodd;
      }
    </style>
  </defs>
  <path id="_" data-name="#" class="cls-1" d="M17.283,8.531h0.186L17.219,14l0.733,1.762A0.964,0.964,0,0,1,18,16v1a1,1,0,0,1-1,1H13a1,1,0,0,1-1-1V16a0.982,0.982,0,0,1,.413-0.788L13.469,14l-0.337-3.412-0.7-1.6A11.861,11.861,0,0,1,10.9,8.811L10.61,8.747C10.2,8.684,9.786,8.588,9.374,8.525l-0.6-.1H8.771L7.186,8.176a1.465,1.465,0,0,1-1.169-1.14h-1.3A1.234,1.234,0,0,1,3.487,6h-2a0.506,0.506,0,0,1-.53-0.5v0a0.532,0.532,0,0,1,.53-0.53h2a1.208,1.208,0,0,1,1.227-1h1.3a1.465,1.465,0,0,1,1.169-1.14L8.771,2.57H8.777l0.6-.095c0.412-.064.824-0.159,1.236-0.222L10.9,2.19a13.461,13.461,0,0,1,2.524-.214,16.642,16.642,0,0,1,3.594.373,2.6,2.6,0,0,1,1.965,2.5v1.3A2.567,2.567,0,0,1,17.283,8.531ZM6,4.964H4.714a0.215,0.215,0,0,0-.241.173L4.411,5.5,4.473,5.832a0.236,0.236,0,0,0,.241.2H6V4.964Zm2-1.24-0.656.118a0.7,0.7,0,0,0-.5.324V6.834a0.689,0.689,0,0,0,.478.32L8,7.277V3.724Zm6.053,5.839,0.311,3.082h0l0.029,0.669H16.3l0.079-3.782H16V8.836c-0.508.075-1.045,0.131-1.594,0.16V9.562H14.053ZM16.215,14H14.472l0.037,0.464-0.246.331L14.053,15H16.4l-0.065-.525L16.2,14.212Zm-3.188,2-0.007.006L13,17h4V16.1L16.944,16H13.027ZM17.979,4.852a1.6,1.6,0,0,0-1.226-1.539,15.7,15.7,0,0,0-3.333-.338,12.488,12.488,0,0,0-2.332.2l-0.261.058-0.032.007-0.033.005c-0.194.03-.388,0.067-0.582,0.1-0.218.042-.436,0.084-0.654,0.117l-0.591.094L8.856,3.57H8.851l-0.038.007V7.423L8.854,7.43,8.934,7.443l0.6,0.1c0.213,0.033.431,0.075,0.65,0.116,0.194,0.038.387,0.075,0.581,0.1l0.033,0.005,0.032,0.007,0.285,0.064A11.589,11.589,0,0,0,12.8,8h1.533a14.58,14.58,0,0,0,2.456-.322,1.592,1.592,0,0,0,1.192-1.53v-1.3ZM16.5,5h-2a0.5,0.5,0,1,1,0-1h2A0.5,0.5,0,1,1,16.5,5Z"/>
</svg>
