<svg id="Icons" xmlns="http://www.w3.org/2000/svg" width="20" height="20" viewBox="0 0 20 20">
  <defs>
    <style>
      .cls-1 {
        fill: #26303c;
        fill-rule: evenodd;
        opacity: 0.9;
      }
    </style>
  </defs>
  <path id="_" data-name="#" class="cls-1" d="M15,7.963V8.5c0,0.651.049,1.191-.59,1.4v0.6h0L14,17.5h0A1.5,1.5,0,0,1,12.5,19h-5A1.5,1.5,0,0,1,6,17.5L5.59,9.9C4.951,9.692,5,9.151,5,8.5V7.962C5,7.95,4.994,7.939,4.994,7.927V7.052A1.055,1.055,0,0,1,6.036,6H6.344A3.956,3.956,0,0,1,8.211,3.932a0.37,0.37,0,0,0,.156-0.483,1.753,1.753,0,0,1-.141-0.691,1.775,1.775,0,0,1,.6-1.326A1.7,1.7,0,0,1,9.973.985,2.4,2.4,0,0,1,10.215,1a1.772,1.772,0,0,1,1.424,2.436,0.382,0.382,0,0,0,.144.5A3.951,3.951,0,0,1,13.653,6h0.311a1.054,1.054,0,0,1,1.042,1.052V7.927C15.006,7.939,15,7.95,15,7.963ZM7.146,17.854a0.507,0.507,0,0,0,.159.107A0.5,0.5,0,0,0,7.5,18h5a0.5,0.5,0,0,0,.5-0.5h0l0.308-7.6V9.5A0.528,0.528,0,0,0,12.756,9H7.244a0.527,0.527,0,0,0-.551.5V9.9h0L6.737,11H10.5a0.5,0.5,0,0,1,0,1H6.777l0.041,1H8.5a0.5,0.5,0,1,1,0,1H6.858L6.9,15H9.5a0.5,0.5,0,1,1,0,1H6.939L7,17.5A0.5,0.5,0,0,0,7.146,17.854ZM11.329,4.82a1.371,1.371,0,0,1-.614-1.77,0.782,0.782,0,0,0,.047-0.426,0.808,0.808,0,0,0-.79-0.64,0.7,0.7,0,0,0-.486.195,0.773,0.773,0,0,0-.26.578,0.75,0.75,0,0,0,.061.3,1.361,1.361,0,0,1-.62,1.765A2.965,2.965,0,0,0,7.457,6H12.54A2.955,2.955,0,0,0,11.329,4.82ZM14,7.5A0.5,0.5,0,0,0,13.5,7h-7a0.5,0.5,0,0,0-.5.5H6a0.5,0.5,0,0,0,.5.5h7A0.5,0.5,0,0,0,14,7.5h0Z"/>
</svg>
