<svg id="Icons" xmlns="http://www.w3.org/2000/svg" width="20" height="20" viewBox="0 0 20 20">
  <defs>
    <style>
      .cls-1 {
        fill: #26303c;
        fill-rule: evenodd;
        opacity: 0.9;
      }
    </style>
  </defs>
  <path id="_" data-name="#" class="cls-1" d="M16.5,10H18V6.5A1.5,1.5,0,0,0,16.5,5H14V4.5a2.5,2.5,0,1,0-5,0V5H6.5A1.5,1.5,0,0,0,5,6.5V9H4.5a2.5,2.5,0,1,0,0,5H5v2.5A1.5,1.5,0,0,0,6.5,18H10V16.5a1.5,1.5,0,1,1,3,0V18h3.5A1.5,1.5,0,0,0,18,16.5V13H16.5A1.5,1.5,0,0,1,16.5,10ZM14,11.5A2.5,2.5,0,0,0,16.5,14H17v2.5a0.5,0.5,0,0,1-.5.5H14V16.5a2.5,2.5,0,1,0-5,0V17H6.5A0.5,0.5,0,0,1,6,16.5V13H4.5a1.5,1.5,0,0,1,0-3H6V6.5A0.5,0.5,0,0,1,6.5,6H10V4.5a1.5,1.5,0,1,1,3,0V6h3.5a0.5,0.5,0,0,1,.5.5V9H16.5A2.5,2.5,0,0,0,14,11.5ZM7.5,7h2a0.5,0.5,0,0,1,0,1h-2A0.5,0.5,0,0,1,7.5,7Zm0,2h2a0.5,0.5,0,1,1,0,1h-2A0.5,0.5,0,1,1,7.5,9Zm4-2a0.5,0.5,0,1,1-.5.5A0.5,0.5,0,0,1,11.5,7Z"/>
</svg>
