<svg id="Icons" xmlns="http://www.w3.org/2000/svg" width="20" height="20" viewBox="0 0 20 20">
  <defs>
    <style>
      .cls-1 {
        fill: #26303c;
        fill-rule: evenodd;
      }
    </style>
  </defs>
  <path id="_" data-name="#" class="cls-1" d="M11.644,13.775L12,16.943a2.035,2.035,0,0,1-2.033,2.025,1.979,1.979,0,0,1-1.972-2l0.36-3.189A6.944,6.944,0,0,1,4.008,7.041C4.008,3.176,6.7.032,10,.032s5.992,3.143,5.992,7.009A6.946,6.946,0,0,1,11.644,13.775ZM10,1.032c-2.752,0-4.992,2.7-4.992,6.009a5.967,5.967,0,0,0,3.666,5.786l0.747,0.25-0.067.784L9,17a0.951,0.951,0,0,0,.94.968,1.138,1.138,0,0,0,.766-0.292,1.023,1.023,0,0,0,.3-0.7l-0.354-3.119-0.067-.784,0.746-.25a5.968,5.968,0,0,0,3.665-5.786C14.992,3.728,12.752,1.032,10,1.032ZM10,12.05c-2.2,0-3.992-2.247-3.992-5.009S7.8,2.032,10,2.032s3.992,2.247,3.992,5.009S12.2,12.05,10,12.05Zm0-9.278c-1.727,0-3.185,1.955-3.185,4.268S8.273,11.309,10,11.309s3.186-1.954,3.186-4.268S11.727,2.772,10,2.772ZM8.79,7.787L8.175,7.76a5.1,5.1,0,0,1,2.086-3.725l0.555,0.448A4.47,4.47,0,0,0,8.79,7.787Z"/>
</svg>
