<svg xmlns="http://www.w3.org/2000/svg" width="24" height="20" viewBox="0 0 24 20">
  <defs>
    <style>
      .cls-1 {
        fill: #fff;
        fill-rule: evenodd;
      }
    </style>
  </defs>
  <path id="Instagram" class="cls-1" d="M11.5,0C8.65,0,9.292.01,8.173,0.062A7.676,7.676,0,0,0,5.627.549,5.137,5.137,0,0,0,3.77,1.76,5.122,5.122,0,0,0,2.56,3.617a7.7,7.7,0,0,0-.488,2.546c-0.051,1.119-.063.475-0.063,3.325s0.013,2.2.063,3.324a7.7,7.7,0,0,0,.488,2.546,5.136,5.136,0,0,0,1.21,1.858,5.162,5.162,0,0,0,1.857,1.21,7.721,7.721,0,0,0,2.546.488c1.119,0.05.476,0.061,3.324,0.061s2.206-.011,3.325-0.061a7.721,7.721,0,0,0,2.546-.488,5.36,5.36,0,0,0,3.067-3.068,7.685,7.685,0,0,0,.488-2.546c0.051-1.119.063-.476,0.063-3.324s-0.012-2.207-.063-3.325a7.684,7.684,0,0,0-.488-2.546A5.122,5.122,0,0,0,19.227,1.76,5.139,5.139,0,0,0,17.369.549,7.677,7.677,0,0,0,14.822.062C13.7,0.01,14.346,0,11.5,0m0,1.936c2.786,0,2.115.012,3.215,0.061a5.766,5.766,0,0,1,1.937.359,3.217,3.217,0,0,1,1.2.78,3.24,3.24,0,0,1,.781,1.2,5.8,5.8,0,0,1,.359,1.937c0.05,1.1.061,0.43,0.061,3.216s-0.01,2.114-.061,3.214a5.782,5.782,0,0,1-.359,1.937,3.459,3.459,0,0,1-1.98,1.98,5.774,5.774,0,0,1-1.937.359c-1.1.05-.429,0.061-3.215,0.061s-2.115-.011-3.215-0.061a5.773,5.773,0,0,1-1.937-.359,3.459,3.459,0,0,1-1.98-1.98A5.785,5.785,0,0,1,4.007,12.7c-0.05-1.1-.061-0.429-0.061-3.214s0.011-2.116.061-3.216a5.8,5.8,0,0,1,.359-1.937,3.25,3.25,0,0,1,.781-1.2,3.221,3.221,0,0,1,1.2-.78A5.766,5.766,0,0,1,8.282,2c1.1-.05.43-0.061,3.215-0.061M11.513,12.08c-1.975,0-2.577-.6-2.577-2.577s0.6-2.577,2.577-2.577,2.578,0.6,2.578,2.577-0.6,2.577-2.578,2.577m0-7.088C8.47,4.992,7,6.459,7,9.5s1.468,4.511,4.511,4.511,4.511-1.468,4.511-4.511-1.467-4.511-4.511-4.511m5.78,0.021a1.258,1.258,0,1,1-1.259-1.26,1.259,1.259,0,0,1,1.259,1.26"/>
</svg>
