<svg xmlns="http://www.w3.org/2000/svg" width="24" height="20" viewBox="0 0 24 20">
  <defs>
    <style>
      .cls-1 {
        fill: #fff;
        fill-rule: evenodd;
      }
    </style>
  </defs>
  <path id="Facebook" class="cls-1" d="M18.75,0H4.25A2.251,2.251,0,0,0,2,2.251v14.5A2.251,2.251,0,0,0,4.25,19h6.761V13.033h-3V9.958h3V8c0-2.89,1.482-4.041,4.06-4.041,1.43,0,1.95.02,1.941,0.011V7.019H15.655c-1.4,0-1.661.62-1.661,1.6V9.958h3l-0.435,3.074H13.994V19H18.75A2.251,2.251,0,0,0,21,16.75V2.251A2.251,2.251,0,0,0,18.75,0Z"/>
</svg>
