<svg xmlns="http://www.w3.org/2000/svg" width="24" height="20" viewBox="0 0 24 20">
  <defs>
    <style>
      .cls-1 {
        fill: #fff;
        fill-rule: evenodd;
      }
    </style>
  </defs>
  <path id="Youtube" class="cls-1" d="M23.065,2.444C22.2,1.411,20.6.99,17.543,0.99H6.451C3.325,0.99,1.7,1.439.834,2.538-0.007,3.61-.007,5.19-0.007,7.377v4.167c0,4.236,1,6.387,6.458,6.387H17.543c2.65,0,4.118-.372,5.068-1.283,0.974-.935,1.39-2.461,1.39-5.1V7.377C24,5.071,23.936,3.482,23.065,2.444Zm-7.489,7.734L10.2,12.91a0.85,0.85,0,0,1-.812-0.025,0.8,0.8,0,0,1-.4-0.688V6.753a0.8,0.8,0,0,1,.4-0.687,0.848,0.848,0,0,1,.811-0.026l5.381,2.714A0.793,0.793,0,0,1,15.576,10.179Z"/>
</svg>
