<svg xmlns="http://www.w3.org/2000/svg" width="24" height="20" viewBox="0 0 24 20">
  <defs>
    <style>
      .cls-1 {
        fill: #fff;
        fill-rule: evenodd;
      }
    </style>
  </defs>
  <path id="Twitter" class="cls-1" d="M22.078,2.971a8.858,8.858,0,0,1-2.521.683,4.364,4.364,0,0,0,1.929-2.4A8.854,8.854,0,0,1,18.7,2.306a4.4,4.4,0,0,0-7.593,2.967,4.252,4.252,0,0,0,.115.99A12.514,12.514,0,0,1,2.172,1.731a4.272,4.272,0,0,0-.594,2.181A4.322,4.322,0,0,0,3.53,7.521,4.4,4.4,0,0,1,1.542,6.98V7.034a4.355,4.355,0,0,0,3.52,4.254,4.462,4.462,0,0,1-1.982.074,4.34,4.34,0,0,0,4.1,2.958,8.927,8.927,0,0,1-5.452,1.912,9.244,9.244,0,0,1-1.047-.06,12.5,12.5,0,0,0,6.729,1.894A12.283,12.283,0,0,0,19.9,5.777c0-.188,0-0.375-0.014-0.561a8.887,8.887,0,0,0,2.191-2.245h0Z"/>
</svg>
