<svg xmlns="http://www.w3.org/2000/svg" width="24" height="11.97" viewBox="0 0 24 11.97">
  <metadata><?xpacket begin="﻿" id="W5M0MpCehiHzreSzNTczkc9d"?>
<x:xmpmeta xmlns:x="adobe:ns:meta/" x:xmptk="Adobe XMP Core 5.6-c138 79.159824, 2016/09/14-01:09:01        ">
   <rdf:RDF xmlns:rdf="http://www.w3.org/1999/02/22-rdf-syntax-ns#">
      <rdf:Description rdf:about=""/>
   </rdf:RDF>
</x:xmpmeta>
                                                                                                    
                                                                                                    
                                                                                                    
                                                                                                    
                                                                                                    
                                                                                                    
                                                                                                    
                                                                                                    
                                                                                                    
                                                                                                    
                                                                                                    
                                                                                                    
                                                                                                    
                                                                                                    
                                                                                                    
                                                                                                    
                                                                                                    
                                                                                                    
                                                                                                    
                                                                                                    
                           
<?xpacket end="w"?></metadata>
<defs>
    <style>
      .cls-1 {
        fill: #dd2325;
        fill-rule: evenodd;
      }
    </style>
  </defs>
  <path id="_" data-name="#" class="cls-1" d="M1296.61,1089H1286.4a0.351,0.351,0,0,1-.38-0.31v-0.77c0-1.87,3.53-2.94,5.04-2.94h0.86c1.51,0,5.08,1.07,5.08,2.94v0.77A0.355,0.355,0,0,1,1296.61,1089Zm-5-5.01h-0.24a2.714,2.714,0,0,1-2.35-2.45l-0.01-2.16a2.358,2.358,0,0,1,2.36-2.36h0.24a2.39,2.39,0,0,1,2.39,2.36l-0.01,2.16A2.753,2.753,0,0,1,1291.61,1083.99ZM1278,1087h-2v-3h-3v-2h3v-3h2v3h3v2h-3v3Z" transform="translate(-1273 -1077.03)"/>
</svg>
