<svg xmlns="http://www.w3.org/2000/svg" viewBox="0 0 30 24"><path fill="#454545" d="M14.998 0C6.918 0 .374 4.864.374 10.86c0 3.166 1.836 6.008 4.75 7.99L3.294 24s5.363-3.083 6.163-3.083c.02 0 .04.003.054.007 1.696.514 3.546.793 5.488.793 8.077 0 14.628-4.86 14.628-10.857C29.626 4.864 23.076 0 14.998 0zm0 19.717c-1.705 0-3.356-.238-4.903-.706-.204-.06-.418-.093-.638-.093-.316 0-.767 0-2.537.853l.09-.25.516-1.454-1.276-.868c-2.5-1.7-3.875-3.95-3.875-6.338C2.375 5.975 8.037 2 14.998 2c6.963 0 12.628 3.975 12.628 8.86 0 4.883-5.665 8.857-12.628 8.857z"/><path fill="#454545" d="M13.604 14.38h2.577v2.528h-2.576zM14.95 4.907c-2.413 0-3.94 1.707-3.99 4.054h2.415c0-1.163.51-2.132 1.69-2.132.87 0 1.396.476 1.396 1.478.05 1.772-2.395 1.51-2.625 4.35v.738h2.216v-.623c.28-1.985 2.99-1.56 2.99-4.694 0-1.248-1.003-3.17-4.09-3.17z"/></svg>