<svg xmlns="http://www.w3.org/2000/svg" viewBox="0 0 30 24"><g fill="#454545"><path d="M29.772 5.018c-.206-.273-.528-.434-.872-.434H6.874L5.96 1.84c-.113-.342-.39-.607-.735-.705L1.4.042C.82-.124.214.212.05.792c-.167.58.17 1.185.748 1.35l3.27.935 4.17 12.504-.877 2.83c-1.207.33-2.095 1.432-2.095 2.743C5.265 22.726 6.54 24 8.11 24c1.185 0 2.2-.724 2.63-1.754h8.855c.428 1.03 1.443 1.754 2.63 1.754 1.57 0 2.844-1.274 2.844-2.846s-1.274-2.845-2.846-2.845c-1.186 0-2.198.722-2.628 1.75H10.74c-.24-.568-.656-1.042-1.182-1.353l.633-2.045h15.22c1.062 0 1.904-.768 1.996-1.776l2.545-8.91c.096-.33.03-.684-.178-.958zm-4.5 9.386c-.01.024-.015.05-.02.073H10.19L7.776 6.77H27.45l-2.18 7.634z"/><path d="M10.33 10.05h14.683c.602 0 1.092-.49 1.092-1.094 0-.604-.49-1.093-1.092-1.093H10.33c-.604 0-1.094.49-1.094 1.093 0 .604.49 1.093 1.094 1.093zM24.044 11.05h-12.69c-.604 0-1.093.49-1.093 1.094s.49 1.093 1.094 1.093h12.69c.602 0 1.092-.49 1.092-1.093s-.49-1.093-1.092-1.093z"/></g></svg>