<svg xmlns="http://www.w3.org/2000/svg" width="20" height="20" viewBox="0 0 20 20">
  <defs>
    <style>
      .cls-1 {
        fill: #3562a4;
        fill-rule: evenodd;
      }
    </style>
  </defs>
  <path id="Facebook" class="cls-1" d="M16.75,0H2.25A2.251,2.251,0,0,0,0,2.251v14.5A2.251,2.251,0,0,0,2.25,19H9.012V13h-3V9.958h3V8c0-2.89,1.482-4.011,4.06-4.011,1.43,0,1.95.021,1.941,0.011V7.019H13.655c-1.4,0-1.661.62-1.661,1.6V9.958h3L14.563,13H11.993v6H16.75A2.251,2.251,0,0,0,19,16.75V2.251A2.251,2.251,0,0,0,16.75,0Z"/>
</svg>
