<svg xmlns="http://www.w3.org/2000/svg" width="20" height="20" viewBox="0 0 20 20">
  <defs>
    <style>
      .cls-1 {
        fill: #da252c;
        fill-rule: evenodd;
      }
    </style>
  </defs>
  <path id="Email" class="cls-1" d="M16.75,19H2.25A2.251,2.251,0,0,1,0,16.75V2.251A2.251,2.251,0,0,1,2.25,0h14.5A2.251,2.251,0,0,1,19,2.251v14.5A2.251,2.251,0,0,1,16.75,19ZM13.9,5.085a0.373,0.373,0,0,0-.411-0.077L4.215,9.087a0.372,0.372,0,0,0-.035.664l2.644,1.506L10.8,7.609a0.417,0.417,0,0,1,.59.59L7.742,12.178,9.3,14.839a0.381,0.381,0,0,0,.341.185A0.374,0.374,0,0,0,9.96,14.8l4.018-9.3A0.37,0.37,0,0,0,13.9,5.085Z"/>
</svg>
