<svg xmlns="http://www.w3.org/2000/svg" width="20" height="20" viewBox="0 0 20 20">
  <defs>
    <style>
      .cls-1 {
        fill: #63acd4;
        fill-rule: evenodd;
      }
    </style>
  </defs>
  <path id="Twitter" class="cls-1" d="M16.75,19H2.25A2.251,2.251,0,0,1,0,16.75V2.251A2.251,2.251,0,0,1,2.25,0h14.5A2.251,2.251,0,0,1,19,2.251v14.5A2.251,2.251,0,0,1,16.75,19ZM16.381,5.294h0a5.57,5.57,0,0,1-1.6.438,2.794,2.794,0,0,0,1.224-1.54,5.579,5.579,0,0,1-1.768.676A2.786,2.786,0,0,0,9.493,7.406,7.907,7.907,0,0,1,3.754,4.5a2.787,2.787,0,0,0,.862,3.716,2.768,2.768,0,0,1-1.261-.348V7.9a2.786,2.786,0,0,0,2.233,2.729,2.8,2.8,0,0,1-1.257.048,2.757,2.757,0,0,0,2.6,1.9A5.626,5.626,0,0,1,3.473,13.8a5.847,5.847,0,0,1-.664-0.039,7.86,7.86,0,0,0,4.269,1.215A7.839,7.839,0,0,0,15,7.094c0-.12,0-0.241-0.009-0.36a5.68,5.68,0,0,0,1.39-1.44h0Z"/>
</svg>
