<svg id="Telmex" xmlns="http://www.w3.org/2000/svg" width="84" height="26" viewBox="0 0 84 26">
  <defs>
    <style>
      .cls-1 {
        fill: #282424;
      }

      .cls-1, .cls-2 {
        fill-rule: evenodd;
      }

      .cls-2 {
        fill: #0096e7;
      }
    </style>
  </defs>
  <path id="_" data-name="#" class="cls-1" d="M58.98,23.985H57.209l-1.295-1.641L54.5,23.985H52.933l2.23-2.591-1.876-2.376h1.569l1.155,1.392,1.2-1.392h1.569l-2,2.319ZM47.848,19.017h4.807v1H49.113V20.8h3.011v1l-3.011-.026v1.209h3.542v1H47.848V19.017Zm-2.049,1L44.18,23.985H43.269L41.7,20.016v3.969H40.436V19.017h2.226l1.063,2.865,1.113-2.865H47.09v4.968H45.8V20.016Zm-10.625-1h1.29v3.969h3.491v0.972H35.174V19.017Zm-5.565,0H34.39v1H30.873V20.8h2.985v1l-2.985-.026v1.209H34.39v1H29.608V19.017Zm-2.454,4.968H25.889V20.016h-1.9v-1h5.06v1h-1.9v3.969Z"/>
  <path id="_2" data-name="#" class="cls-2" d="M49.411,5.015H44V10H39V5.015H33.527l-0.489.935H28.989V1.986H53.994V5.95H49.945ZM38,5.981v5.032h6.99V6.026h3.973l5.028,8.988H49.945L47.364,10.92l-5.873,4.093-5.829-4.138-2.625,4.138H28.989l4.983-8.988Z"/>
</svg>
