<svg id="_" data-name="#" xmlns="http://www.w3.org/2000/svg" width="16" height="16" viewBox="0 0 16 16">
  <defs>
    <style>
      .cls-1 {
        fill: #fff;
      }

      .cls-1, .cls-2 {
        fill-rule: evenodd;
      }

      .cls-2 {
        fill: #a0a2a7;
      }
    </style>
  </defs>
  <path id="_2" data-name="#" class="cls-1" d="M13.452,5.373L9.9,4.854l-0.55-.081-0.27-.486L7.5,1.441,5.915,4.319l-0.272.493L5.087,4.89,1.57,5.383,4.325,7.989,4.767,8.408l-0.109.6-0.672,3.7,2.961-1.666,0.548-.308,0.55,0.3,3.024,1.678-0.7-3.7-0.113-.6L10.7,7.992Z"/>
  <path id="_3" data-name="#" class="cls-2" d="M9.783,4.111L7.5,0,5.217,4.143,0.031,4.87l3.96,3.745L3.013,14,7.5,11.474,12.049,14,11.038,8.615l3.93-3.745ZM10.055,8.8l0.618,3.292L7.985,10.6,7.5,10.328,7.01,10.6,4.377,12.084l0.6-3.29,0.1-.533L4.678,7.888,2.229,5.572l3.127-.439,0.5-.069,0.242-.438L7.5,2.067,8.909,4.6l0.24,0.432L9.638,5.1l3.154,0.461L10.348,7.891l-0.393.375Z"/>
</svg>
