<svg xmlns="http://www.w3.org/2000/svg" width="16" height="16" viewBox="0 0 16 16">
  <defs>
    <style>
      .cls-1 {
        fill: #26303c;
        fill-rule: evenodd;
      }
    </style>
  </defs>
  <path id="_" data-name="#" class="cls-1" d="M4.817,2.952A2.683,2.683,0,0,1,7.124,4.3L7.979,5.869,8.869,4.322a2.7,2.7,0,0,1,2.326-1.369,3,3,0,0,1,2.776,3.01,3.106,3.106,0,0,1-.1,1.147,5.342,5.342,0,0,1-1.621,2.743L8,13.7,3.761,9.851a5.379,5.379,0,0,1-1.642-2.77,3.067,3.067,0,0,1-.087-1.134,3.007,3.007,0,0,1,2.785-3m0.005-1A3.98,3.98,0,0,0,1.036,5.857a4.048,4.048,0,0,0,.117,1.484,6.374,6.374,0,0,0,1.938,3.252l4.9,4.454,4.929-4.454a6.347,6.347,0,0,0,1.923-3.252,4.064,4.064,0,0,0,.119-1.484,3.968,3.968,0,0,0-3.77-3.905A3.708,3.708,0,0,0,8,3.824a3.673,3.673,0,0,0-3.18-1.872h0Z"/>
</svg>
