<svg xmlns="http://www.w3.org/2000/svg" width="16" height="16" viewBox="0 0 16 16">
  <defs>
    <style>
      .cls-1 {
        fill: #26303c;
        fill-rule: evenodd;
      }
    </style>
  </defs>
  <path id="_" data-name="#" class="cls-1" d="M14.5,9h-8a0.5,0.5,0,0,1,0-1h8A0.5,0.5,0,0,1,14.5,9Zm0-4h-8a0.5,0.5,0,0,1,0-1h8A0.5,0.5,0,0,1,14.5,5Zm-12,9A1.5,1.5,0,1,1,4,12.5,1.5,1.5,0,0,1,2.5,14Zm0-2a0.5,0.5,0,1,0,.5.5A0.5,0.5,0,0,0,2.5,12Zm0-2A1.5,1.5,0,1,1,4,8.5,1.5,1.5,0,0,1,2.5,10Zm0-2a0.5,0.5,0,1,0,.5.5A0.5,0.5,0,0,0,2.5,8Zm0-2A1.5,1.5,0,1,1,4,4.5,1.5,1.5,0,0,1,2.5,6Zm0-2a0.5,0.5,0,1,0,.5.5A0.5,0.5,0,0,0,2.5,4Zm4,8h8a0.5,0.5,0,1,1,0,1h-8A0.5,0.5,0,1,1,6.5,12Z"/>
</svg>
