<svg id="Sanborns" xmlns="http://www.w3.org/2000/svg" width="84" height="26" viewBox="0 0 84 26">
  <defs>
    <style>
      .cls-1 {
        fill: #ff2f26;
        fill-rule: evenodd;
      }
    </style>
  </defs>
  <path id="Sanborns-2" data-name="Sanborns" class="cls-1" d="M8.53,9.962s-3.047,1.25-3.172,1.961c0,0-.582.876,1.712,0.667,0,0,6.884-.667,7.135,2.42A2.9,2.9,0,0,1,12.953,17.3a10.009,10.009,0,0,1-8.344,1.92s-2.419-.167-2.337-1.586c0,0,.376-0.668,1.293,0,0,0,4.883,1.251,7.219-.709,0,0,1.043-1,.291-1.46a8.1,8.1,0,0,0-3.213-.751s-5.465.625-5.715-1.586c0,0-.459-1.921,2.879-3.756,0,0,4.924-2.379,9.179-2.212,0,0,2.338-.626,2.5,1.336,0,0-.836,1.877-3.922,2.044,0,0-3.047.124-3.338-.625,0,0-.125-0.209-0.919.042h0Zm3.756-.335s0.876-.125.667-0.75a1.973,1.973,0,0,0-2.044.334s-0.376.667,1.377,0.416h0Zm10.348,4.382s0.293-1.21-3.047-.793c0,0-4.964.876-4.881,4.3,0,0,.5,2.711,3.38,1.419,0,0,1.876-1,2.336-1.293A2.1,2.1,0,0,0,22.8,19.6a3.443,3.443,0,0,0,2.8-1.67s1.335-1.71,1.628-1.627c0,0,.709-0.084.249,0.667,0,0-1.042,1.668.418,2A2.2,2.2,0,0,0,30.4,18.1s1.416-2.17,2.25-2.17c0,0,.335.124-0.208,0.876a1.55,1.55,0,0,0,1.42,2.243s2.169,0.208,2.545-.75c0,0,.418-0.92-0.709-0.335,0,0-1.543.918-.959-0.459,0,0,2.337-2.953.083-3.787a2.34,2.34,0,0,0-2.086.083,6.334,6.334,0,0,1-1.877,1.462s-0.458.083-.544-0.918c0,0-.458-1.5-2.335-0.585a34.226,34.226,0,0,0-3.422,3.714s-2.044,2.085-1.5.041c0,0,1.46-2.3-.086-2.838,0,0-.875-0.416-2.21.961,0,0-2.712,2.379-3.379,2.379,0,0-.834-0.125.376-1.67a5.222,5.222,0,0,1,3.546-1.92s1.335,0,1.335-.417h0Zm18.443-.751c-0.5,1.418.542,0.333,0.542,0.333,2.587-1.336,2.587,1.377,2.587,1.377,0.5,0.668,1.5-.165,1.5-0.165a9.611,9.611,0,0,0,1.127-.961c1.669-1.5,2.754-.376,2.754-0.376,0.25,0.668.876,0.167,0.876,0.167,2.128-.625,1.709,1,1.709,1-0.626.169-.291,0.876-0.291,0.876,0.25,0.877,1.544-.5,1.544-0.5,0.75-.207.376-1.251,0.376-1.251,0.041-.835,1.084-0.5,1.084-0.5a1.9,1.9,0,0,0,1.71.124c1.667-.083,1.5.793,1.5,0.793a0.978,0.978,0,0,1,0,1.336,3.6,3.6,0,0,0-1.209,2.3c0.084,1.377,2.88-1.877,2.88-1.877,2.128-3,4.006-2.546,4.006-2.546,1.711-.04,1.252,2.546,1.252,2.546l2.127-1.962a1.709,1.709,0,0,1,1.836-.709c2.338,0.584.585,3.463,0.585,3.463-0.459,1.17.668,0.709,0.668,0.709a26.028,26.028,0,0,1,2.67-2.879c3-2.753,4.506-2.085,4.506-2.085,1.169,0.249.166,1.168,0.166,1.168a3.346,3.346,0,0,0-.166,2.337l4.214,0.042-1.252,1.461-3.546-.044a2.628,2.628,0,0,1-2.254,1.252A2.258,2.258,0,0,1,72.37,16.8a5.162,5.162,0,0,0-1.5,1.251c-0.793,1.043-3.13.25-3.13,0.25-1.251-.375-0.457-2.377-0.457-2.377-0.377-.334-2.253,1.835-2.253,1.835a1.912,1.912,0,0,1-2.38.918c-1.585-.46-0.624-2.377-0.624-2.377,0.583-.96.418-1.209,0.418-1.209a14.01,14.01,0,0,0-2.421,2.419c-3.172,3.088-5.257.71-5.257,0.71-1-1.5,1.293-3.463,1.293-3.463a0.759,0.759,0,0,0-.959.043,4.318,4.318,0,0,1-4.005,2.335,4.358,4.358,0,0,1-2.421,1.7c-4.421,1.168-3.379-2.326-3.379-2.326C44.163,16.846,44,16.471,44,16.471a1.4,1.4,0,0,1-.876.416s-1.668,2.16-3.588,2.2S37.071,18,37.363,16.126s2.8-5.457,2.8-5.457a0.819,0.819,0,0,1-.792-0.082c-0.335-.709,1.919-1.628,1.919-1.628,1.8-.793,1.21.376,1.21,0.376l-1.418,3.922h0Zm-1.294,2.577c-0.751,2.293.125,2.5,0.125,2.5,0.834-.042,1.5-1.586,1.5-1.586a2.371,2.371,0,0,0-.71-1.784c-0.542-.126-0.917.866-0.917,0.866h0Zm8.177-.24c-1.251,3.3.376,2.452,0.376,2.452a2.137,2.137,0,0,0,1.253-1.617,3.689,3.689,0,0,0-.626-1.586c-0.459-.292-1,0.752-1,0.752h0ZM75.083,14.26a2.052,2.052,0,0,0-1.5,1.668,1.212,1.212,0,0,0,1.294-.125,8.435,8.435,0,0,0,.208-1.543h0Z"/>
</svg>
