<svg xmlns="http://www.w3.org/2000/svg" width="20" height="20" viewBox="0 0 20 20">
  <defs>
    <style>
      .cls-1 {
        fill: #7f8a9b;
        fill-rule: evenodd;
      }
    </style>
  </defs>
  <path id="Email" class="cls-1" d="M16.75,19H2.25A2.251,2.251,0,0,1,0,16.75V2.251A2.251,2.251,0,0,1,2.25,0h14.5A2.251,2.251,0,0,1,19,2.251v14.5A2.251,2.251,0,0,1,16.75,19Zm-1.758-5.68A0.681,0.681,0,0,1,14.3,14H4.674a0.681,0.681,0,0,1-.688-0.675V6.412l5.5,4.47,5.5-4.459ZM4.008,4.95H14.98L9.487,9.429Z"/>
</svg>
