<svg id="Sears" xmlns="http://www.w3.org/2000/svg" width="84" height="26" viewBox="0 0 84 26">
  <defs>
    <style>
      .cls-1 {
        fill: #ff1500;
        fill-rule: evenodd;
      }
    </style>
  </defs>
  <path id="_" data-name="#" class="cls-1" d="M65.971,13.133h-1a2.089,2.089,0,0,0-.979-1.728,3.713,3.713,0,0,0-2.153-.576h-0.02a4.242,4.242,0,0,0-.47.038,1.356,1.356,0,0,0-.274.038l-0.529.115a2.533,2.533,0,0,0-1.937,1.671h-0.02c-0.294,1.536,1.155,1.92,2.662,2.3l0.1,0.019c1.35,0.345,2.681.729,2.427,2.073a1.285,1.285,0,0,1-.137.346,1.626,1.626,0,0,1-.235.307,3.256,3.256,0,0,1-2.055.825c-0.2.019-.391,0.019-0.607,0.019H60.686a3.372,3.372,0,0,1-2.016-.538,1.839,1.839,0,0,1-.763-1.44H59.2c-0.176.806,0.509,1.305,1.429,1.305a2.821,2.821,0,0,0,.724-0.058,1.007,1.007,0,0,0,.959-0.787c0.1-.48-0.313-0.71-0.959-0.9-1.624-.46-4.619-0.576-4.051-3.417,0.352-1.766,2.075-2.534,4.051-2.707,0.294-.019.607-0.038,0.9-0.038,2.035,0.057,3.6,1.171,3.738,2.707v0.4Zm-12.206-1.2a4.116,4.116,0,0,0-1.613,1.27,0.422,0.422,0,0,0-.079.12l0.079-.437,0.531-2.719h1.574l-0.1.436a4.27,4.27,0,0,1,3.344-.4l-0.256,1.39A6.633,6.633,0,0,0,53.764,11.929Zm-2.459,3.037a1.555,1.555,0,0,0-.079.4l-0.984,4.6H48.787l1.988-9.8H52.23l-0.079.436ZM47.921,19.31a0.718,0.718,0,0,0,.236.651H46.819a1.12,1.12,0,0,1-.256-0.276,0.5,0.5,0,0,1-.079-0.335L47.8,13.124a1.532,1.532,0,0,0-.787-1.854,4.821,4.821,0,0,0-2.221-.395,4.635,4.635,0,0,0-1.082.138h-0.04c-0.157.039-.315,0.1-0.492,0.158a2.793,2.793,0,0,0-1.889,1.913H40.034c0.433-2.17,2.125-2.821,3.679-3.018a11.086,11.086,0,0,1,1.357-.059c2.005,0,4.11.374,4.189,2.466V12.71a4.419,4.419,0,0,1-.079.671ZM35.234,15.8H31.949a1.736,1.736,0,0,0,2.007,1.874,1.388,1.388,0,0,0,1-.71h1.515c-0.059.1-.1,0.2-0.158,0.276a2.7,2.7,0,0,1-.3.414,3.164,3.164,0,0,1-2.065.986,5.019,5.019,0,0,1-.551.02,2.654,2.654,0,0,1-.571-0.059,2.573,2.573,0,0,1-1.672-1.026,3.251,3.251,0,0,1-.63-1.992,4.331,4.331,0,0,1,.059-0.71v-0.02a6.306,6.306,0,0,1,.216-0.75,4.6,4.6,0,0,1,.315-0.71,3.628,3.628,0,0,1,2.833-2.091h0.177a2.984,2.984,0,0,1,.748.079,2.715,2.715,0,0,1,2.262,2.722,3.531,3.531,0,0,1-.039.454H32.146a1.129,1.129,0,0,0-.079.434h5.41l0.02-.177a2.914,2.914,0,0,0,.079-0.71,3.3,3.3,0,0,0-.669-2.012,3.155,3.155,0,0,0-1.948-1.144,3.666,3.666,0,0,0-.826-0.079H33.956a4.026,4.026,0,0,0-3.207,2.308,5.706,5.706,0,0,0-.354.789,3.8,3.8,0,0,0-.216.809,3.868,3.868,0,0,0-.079.809,3.778,3.778,0,0,0,.708,2.249,3.135,3.135,0,0,0,1.948,1.183,3.317,3.317,0,0,0,.649.059,5.139,5.139,0,0,0,.551,0,3.6,3.6,0,0,0,2.38-1.144,2.551,2.551,0,0,0,.354-0.453,4.16,4.16,0,0,0,.256-0.513H38.5a4.686,4.686,0,0,1-4.544,3.038c-0.217.019-.413,0.019-0.63,0.019A4.292,4.292,0,0,1,28.8,14.62a5.326,5.326,0,0,1,5.154-4.636h0.472c2.931,0.079,5.115,1.874,4.427,5.82h-3.62Zm-1.279-1.874h1.652a1.348,1.348,0,0,0-1.318-1.657,1.788,1.788,0,0,0-.334.02,2.044,2.044,0,0,0-1.672,1.637h1.672ZM27.72,10.4a2.921,2.921,0,0,0-1.082-2.422,4.513,4.513,0,0,0-2.7-.715,3.553,3.553,0,0,0-.452.02,5.211,5.211,0,0,0-1.239.278,4.3,4.3,0,0,0-.433.2A3.037,3.037,0,0,0,20.2,9.9c-0.413,2.144,1.456,2.779,3.285,3.335L23.628,13.3l0.1,0.02a5.835,5.835,0,0,1,2.026.953,1.79,1.79,0,0,1,.531,1.846,2.785,2.785,0,0,1-.177.575,2.388,2.388,0,0,1-.3.477,3.326,3.326,0,0,1-2.321,1.171,6.317,6.317,0,0,1-.9.059,3.412,3.412,0,0,1-2.735-.973,3.345,3.345,0,0,1-.708-2.223h1.515c-0.256,1.271.846,1.886,2.046,1.906a2.631,2.631,0,0,0,.787-0.06,1.594,1.594,0,0,0,1.456-1.032c0.157-.734-0.551-1.191-1.456-1.528-0.885-.358-1.967-0.576-2.557-0.814A3.484,3.484,0,0,1,18.65,9.508c0.413-2.184,2.321-3.236,4.84-3.395,0.236-.019.492-0.039,0.748-0.039,3.285,0,4.859,1.965,4.918,3.672V9.984a2.961,2.961,0,0,1-.039.417h-1.4Zm-8.2,7.325a3.9,3.9,0,0,0,3.069,1.111,6.455,6.455,0,0,0,.9-0.06,3.727,3.727,0,0,0,2.675-1.35,2.6,2.6,0,0,0,.335-0.556,4.257,4.257,0,0,0,.216-0.655V16.2a2.208,2.208,0,0,0-.689-2.263A5.882,5.882,0,0,0,23.844,12.9l-0.1-.04-0.256-.079c-1.593-.5-3.187-1.072-2.853-2.8a2.586,2.586,0,0,1,1.377-1.826c0.138-.06.256-0.119,0.393-0.179a4.723,4.723,0,0,1,1.082-.258,3.553,3.553,0,0,1,.452-0.02,4.092,4.092,0,0,1,2.44.635,2.5,2.5,0,0,1,.9,2.064H25.615c0.157-.774-0.767-1.429-1.731-1.429a2.646,2.646,0,0,0-.393.04A1.5,1.5,0,0,0,22.034,10c-0.138.615,0.531,0.953,1.456,1.271,0.669,0.218,1.475.417,2.243,0.7,1.652,0.615,3.089,1.766,2.577,4.347-0.413,2.184-2.6,3.355-4.82,3.653a9.931,9.931,0,0,1-1.082.06c-2.735,0-5.233-1.31-5.371-3.772V15.82a3.29,3.29,0,0,1,.079-0.615H18.69A3.92,3.92,0,0,0,19.516,17.726Zm23.9-3.714,0.3-.02c1.514-.178,2.124-0.276,2.223-0.828a1.018,1.018,0,0,0-1.18-1.125,1.8,1.8,0,0,0-1.042.3,1.218,1.218,0,0,0-.453.749H41.726a2.449,2.449,0,0,1,1.613-1.5,1.37,1.37,0,0,1,.374-0.119,0.119,0.119,0,0,1,.079-0.02,4.036,4.036,0,0,1,1-.138,4.351,4.351,0,0,1,2.005.355,1.1,1.1,0,0,1,.59,1.262,0.932,0.932,0,0,1-.118.3,1.4,1.4,0,0,1-.216.3A4.864,4.864,0,0,1,44.3,14.584c-0.2.02-.393,0.059-0.59,0.1-0.1.019-.2,0.039-0.315,0.059-0.275.059-.57,0.118-0.826,0.2-1.377.414-2.341,1.1-2.518,2.17a2.42,2.42,0,0,0-.039.375,1.622,1.622,0,0,0,.393,1.065,2.253,2.253,0,0,0,1.18.611,3.6,3.6,0,0,0,.688.059,5.258,5.258,0,0,0,1.436-.2c0.039,0,.079-0.02.118-0.02a4.924,4.924,0,0,0,1.121-.552l0.118-.671a3.648,3.648,0,0,1-1.357.809h-0.02a4.582,4.582,0,0,1-1.417.217,2.8,2.8,0,0,1-.61-0.059,1.553,1.553,0,0,1-.925-0.494,1.142,1.142,0,0,1-.3-0.769,1.512,1.512,0,0,1,.04-0.3c0.138-.887,1-1.46,2.2-1.834,0.256-.059.531-0.138,0.807-0.2a0.851,0.851,0,0,0,.217-0.039c0.216-.039.433-0.079,0.649-0.1a5.768,5.768,0,0,0,2.831-1.026l-1.12,5.279a0.842,0.842,0,0,0,.117.651,0.074,0.074,0,0,0,.039.039H44.882a2.014,2.014,0,0,1-.087-0.722,5.683,5.683,0,0,1-1.082.493,6.578,6.578,0,0,1-2.026.237c-2.164,0-3.246-1.479-2.931-3.156C39.228,14.525,41.372,14.268,43.418,14.012Zm2.105,1.5c-0.453.158-1.161,0.2-1.81,0.335a1.825,1.825,0,0,0-1.4.848,0.919,0.919,0,0,0,1.023,1.184,2.191,2.191,0,0,0,.374-0.039A2.167,2.167,0,0,0,45.405,16.1C45.484,15.748,45.464,15.807,45.523,15.511Zm6.235-.564a5.784,5.784,0,0,1,.393-0.933,3.755,3.755,0,0,1,1.79-1.687,6.483,6.483,0,0,1,3.226-.318l-0.275,1.409c-1.4-.3-2.675-0.338-3.364.774a2.436,2.436,0,0,0-.138.337l-1.141,5.429H50.675l1.043-4.813A0.9,0.9,0,0,1,51.758,14.947Zm5.7,1.661a2.3,2.3,0,0,0,.959,1.785,3.858,3.858,0,0,0,2.27.595h0.059v0.019a6.038,6.038,0,0,0,.607-0.038,3.817,3.817,0,0,0,2.388-.941,1.526,1.526,0,0,0,.293-0.4,1.421,1.421,0,0,0,.157-0.461h0.02c0.333-1.766-1.272-2.189-2.838-2.592h-0.02c-1.292-.326-2.544-0.653-2.329-1.785V12.768a2.2,2.2,0,0,1,1.663-1.344,4.118,4.118,0,0,1,.469-0.1c0.059-.019.137-0.019,0.2-0.038a4.6,4.6,0,0,1,.47-0.038h0.02a3.436,3.436,0,0,1,1.918.5,1.792,1.792,0,0,1,.783,1.383H63.113a1.106,1.106,0,0,0-1.33-1.152,3.243,3.243,0,0,0-.431.038,1.076,1.076,0,0,0-.939.672c-0.118.5,0.313,0.749,0.939,0.94,1.585,0.48,4.541.6,4.051,3.456-0.313,1.536-1.35,2.63-4.051,2.8-0.235.019-.489,0.019-0.763,0.019-2.388.076-4.11-1.133-4.247-2.669V16.857a1.091,1.091,0,0,1,.039-0.249h1.076Z"/>
</svg>
