<svg xmlns="http://www.w3.org/2000/svg" width="16" height="16" viewBox="0 0 16 16">
  <defs>
    <style>
      .cls-1 {
        fill: #fff;
        fill-rule: evenodd;
      }
    </style>
  </defs>
  <path id="_" data-name="#" class="cls-1" d="M4.822,1.952A3.98,3.98,0,0,0,1.036,5.857a4.048,4.048,0,0,0,.117,1.484,6.374,6.374,0,0,0,1.938,3.252l4.9,4.454,4.929-4.454a6.347,6.347,0,0,0,1.923-3.252,4.064,4.064,0,0,0,.119-1.484,3.968,3.968,0,0,0-3.77-3.905A3.708,3.708,0,0,0,8,3.824a3.673,3.673,0,0,0-3.18-1.872h0Z"/>
</svg>
