<svg xmlns="http://www.w3.org/2000/svg" width="24" height="14" viewBox="0 0 24 14">
  <defs>
    <style>
      .cls-1 {
        fill: #0297af;
        fill-rule: evenodd;
      }
    </style>
  </defs>
  <path id="_" data-name="#" class="cls-1" d="M22.6,12H22v0H20.723a1.984,1.984,0,0,1-3.445,0H10.723a1.984,1.984,0,0,1-3.445,0H5.371a0.391,0.391,0,0,1-.381-0.389v-1.4a0.2,0.2,0,0,0-.2-0.2L3.5,10a0.5,0.5,0,1,1,0-1L4.785,9.006a0.2,0.2,0,0,0,.2-0.2V4.173a0.2,0.2,0,0,0-.2-0.2H1.369A0.555,0.555,0,0,1,.978,3.423,0.42,0.42,0,0,1,1.369,3H4.785a0.2,0.2,0,0,0,.2-0.2V1.382A0.392,0.392,0,0,1,5.381.991H15.606A0.392,0.392,0,0,1,16,1.382V2.793a0.2,0.2,0,0,0,.2.2H19.13a0.392,0.392,0,0,1,.294.134l3.469,3.96a0.392,0.392,0,0,1,.1.258v4.262A0.392,0.392,0,0,1,22.6,12ZM9,12a1,1,0,1,0-1-1A1,1,0,0,0,9,12Zm6-9.806a0.2,0.2,0,0,0-.2-0.2h-8.6a0.2,0.2,0,0,0-.2.2v8.6a0.2,0.2,0,0,0,.2.2H7a2,2,0,1,1,4,0h3.8a0.2,0.2,0,0,0,.2-0.2v-8.6ZM19,12a1,1,0,1,0-1-1A1,1,0,0,0,19,12Zm2.99-4.428a0.2,0.2,0,0,0-.051-0.135L19.013,4.067A0.2,0.2,0,0,0,18.86,4H16.2a0.2,0.2,0,0,0-.2.2V10.8a0.2,0.2,0,0,0,.2.2H17a2,2,0,1,1,4,0h0.788a0.2,0.2,0,0,0,.2-0.2V7.572ZM4,6.5a0.5,0.5,0,0,1-.5.5h-3a0.5,0.5,0,0,1,0-1h3A0.5,0.5,0,0,1,4,6.5ZM1.5,9a0.5,0.5,0,1,1-.5.5A0.5,0.5,0,0,1,1.5,9Z"/>
</svg>
