<svg xmlns="http://www.w3.org/2000/svg" width="12" height="15" viewBox="0 0 12 15">
  <metadata><?xpacket begin="﻿" id="W5M0MpCehiHzreSzNTczkc9d"?>
<x:xmpmeta xmlns:x="adobe:ns:meta/" x:xmptk="Adobe XMP Core 5.6-c138 79.159824, 2016/09/14-01:09:01        ">
   <rdf:RDF xmlns:rdf="http://www.w3.org/1999/02/22-rdf-syntax-ns#">
      <rdf:Description rdf:about=""/>
   </rdf:RDF>
</x:xmpmeta>
                                                                                                    
                                                                                                    
                                                                                                    
                                                                                                    
                                                                                                    
                                                                                                    
                                                                                                    
                                                                                                    
                                                                                                    
                                                                                                    
                                                                                                    
                                                                                                    
                                                                                                    
                                                                                                    
                                                                                                    
                                                                                                    
                                                                                                    
                                                                                                    
                                                                                                    
                                                                                                    
                           
<?xpacket end="w"?></metadata>
<defs>
    <style>
      .cls-1 {
        fill: #9099a6;
        fill-rule: evenodd;
      }
    </style>
  </defs>
  <path class="cls-1" d="M1004,102.969h-1v-2a4.03,4.03,0,0,0-1.18-2.9,4.164,4.164,0,0,0-5.644,0,4.051,4.051,0,0,0-1.176,2.9v2h-1a0.979,0.979,0,0,0-1,1v7.062a0.9,0.9,0,0,0,1,.938h10a0.849,0.849,0,0,0,1-.938v-7.062A0.978,0.978,0,0,0,1004,102.969Zm-3,0h-4v-2a2.331,2.331,0,0,1,.583-1.578,2.6,2.6,0,0,1,2.837,0,2.323,2.323,0,0,1,.58,1.578v2Z" transform="translate(-993 -96.969)"/>
</svg>
