<svg xmlns="http://www.w3.org/2000/svg" viewBox="0 0 344 83"><g fill="#00539B"><path d="M114.6 64.1l.2-.9 18-29.9h9.3l5.4-9.1h-9.2l7.5-12.4H133l-7.5 12.4h-6.9l-5.4 9.1h6.8l-20 33.2c-.5.9-.8 1.9-.8 3 .1 3 2.6 5.5 5.6 5.5H119l5.5-9.1h-8.1c-1-.1-1.8-.9-1.8-1.8zM318.1 64.2l-8.7 9 2.6-9h-2.1l-6.7 10.7h1.4l4-6.3c.2-.3.4-.6.7-1.2.3-.5.6-.9.7-1.2l.2-.3-2.6 9h1.4l8.7-9c-.4.6-.7 1.1-1 1.6-.3.5-.6.9-.7 1.1l-3.9 6.3h1.4l6.7-10.7h-2.1zM314.8 74.9h1.5l1-1.6h-1.5M331 64.6c-.4-.2-1-.4-1.8-.4h-4.9l-6.7 10.7h1.4l2.9-4.6h3.2c.6 0 1 .1 1.1.2.3.2.3.7-.1 1.4l-1 1.8c-.2.4-.4.7-.5.8-.1.1-.1.3-.1.4h1.8l.1-.2c-.2-.1-.2-.3-.1-.7.1-.2.2-.5.5-.9l.8-1.4c.4-.6.5-1.1.5-1.3 0-.3-.2-.5-.5-.7.6-.2 1.2-.6 1.7-1s1-.9 1.4-1.6c.9-1.2 1-2.1.3-2.5zm-1.7 2.6c-.4.7-.9 1.2-1.5 1.5-.6.3-1.2.4-1.8.4h-3.3l2.3-3.7h3.4c.5 0 .8.1 1 .2.4.4.4.9-.1 1.6zM327.7 74.9h1.6l1-1.6h-1.6M170.2 26.8c-4.8 0-16.7.5-22.9 7.2-2.3 2.5-4.9 5.3-8.5 10.1-2.8 3.9-7.4 11.2-10 18.1-4.8 12.3 12.7 12.7 12.7 12.7h22.6l6.8-10.7h-26.2s-4.6-.4-1.7-5.8c.7-1.2 1.4-2.6 2.2-4H177c.6-1 4.3-6.6 8.8-14.8 6.3-11.5-10.2-12.8-15.6-12.8zm4.6 13.2c-1.5 3.3-2.6 5-2.8 5.3h-21.2c1.9-2.9 3.8-5.5 5-6.8 2.9-3.2 8.3-4.8 11.8-4.8 3.5.1 9.2 1.6 7.2 6.3zM281.2 26.8c-4.8 0-16.7.5-22.9 7.2-2.3 2.5-5 5.3-8.5 10.1-2.8 3.9-7.4 11.2-10 18.1-4.8 12.3 12.7 12.7 12.7 12.7h22.6l6.8-10.7h-26.2s-4.6-.4-1.7-5.8c.7-1.2 1.4-2.6 2.2-4h31.7c.6-1 4.3-6.6 8.8-14.8 6.4-11.5-10.1-12.8-15.5-12.8zm4.6 13.2c-1.5 3.3-2.6 5-2.8 5.3h-21.2c1.9-2.9 3.8-5.5 5-6.8 2.9-3.2 8.3-4.8 11.8-4.8 3.5.1 9.2 1.6 7.2 6.3zM210.3 60.3c.5-1.4 3-7 7.2-12.3 4.5-5.6 10.9-11 17.8-11h12.4l6.5-10.2h-15.7c-4.8 0-13.6 1.1-22.2 7.5-2.7 2.1-5.8 5-9.3 9.8-2.9 3.9-7.4 11.2-10.1 18.1-4.7 12.3 12.7 12.7 12.7 12.7h19.3l6.7-10.7h-22.3c-.1 0-4.3 0-3-3.9zM208.7 11.8l-39.2 63.1h12.8l39.2-63.1M319.5 11.8l-39.2 63.1h12.8l39.2-63.1M65.8 16.3h13.6l1.1-1.5h31.1l2-3.2H77.9l2.9-4.5h.5l2-3.1h-1.7l-2 3.1h.5l-2.9 4.5h-29l-2 3.2h20.5c-.2 1-.5.9-.9 1.5zM54.5 32.8h12.3l1.1-1.4h33.6l1.8-3.2h-33l1.1-1.5H58.6c-.3.5-.7 1-1 1.5H38.1L36 31.4h19.4c-.2.4-.6.9-.9 1.4zM58.7 43.2H47.4c-.3.5-.6 1-1 1.4H27.8l-2 3.2h18.5c-.4.5-.7 1-1 1.4H54l1.1-1.4H91l2-3.2H57.6l1.1-1.4zM60.1 24.5H73l1.1-1.5h32.3l2-3.1H76.6l1.1-1.4H64.3c-.3.5-.6.9-1 1.4H43.1L41.2 23h19.9c-.3.5-.6 1-1 1.5zM61.3 68h-4.7l1.5 1.4H12.4l-2 3.2h51l2.2 2 1.3-2h10.9l2-3.2H62.6c-.4-.4-.9-.9-1.3-1.4zM54.2 59.8H48l1.5 1.4H17.6l-2 3.1h37.2l1.5 1.4h5c-.4-.4-.8-.9-1.2-1.4h22.7l2-3.1H55.4c-.4-.5-.8-.9-1.2-1.4zM52.4 51.5H41.8c-.6.9-1 1.4-1 1.4H22.7l-2 3.2h23.6l1.5 1.4h6.9c-.2-.5-.4-1-.6-1.4H86l2-3.2H51.9c.1-.6.3-1.1.5-1.4zM65.1 35H53c-.3.5-.6.9-1 1.4H32.9l-2 3.2h19l-.9 1.5h11.4l1.1-1.5h34.8l1.8-3.2H64l1.1-1.4z"/></g></svg>