<svg xmlns="http://www.w3.org/2000/svg" viewBox="0 0 366 72"><g fill="#CF392B"><path d="M151.03 40.253c-6.25-3.188-13.475-3-20.947-3-1.66.015-3.06-.1-3.493-.982-.366-.917.125-1.68.858-2.268 3.224-2.575 6.996-4.037 10.595-5.508 6.617 3.247 16.782 3.366 22.48-1.777 1.23-1.162 2.21-2.998 1.16-4.656-.61-.858-1.537-1.565-2.63-1.652-6.136-.472-11.99.405-17.52 1.41-8.06 1.424-15.41 4.676-21.616 9.558-2.452 2.26-4.054 5.754-2.574 8.937.736 1.593 2.167 2.49 3.552 2.698 6.376.91 13.11.975 19.293 2.326 1.944.468 4.942.812 5.39 3.124.124 1.774-1.715 3.183-3.185 3.614-6.8 2.632-15.987 3.002-23.21 1.106-.812-.176-2.114-.814-2.574-.128-.307.495-.553 1.005-.246 1.717.915 1.736 2.332 2.53 4.224 2.88 9.496 1.468 20.336 1.346 27.93-4.104 3.187-2.516 6.186-5.88 5.147-10.232-.31-1.29-1.333-2.32-2.636-3.06zm-7.535-13.292c2.784-1.668 5.297-1.837 7.96-1.285-.12.614-.863.955-1.406 1.103-2.075.562-3.803 1.038-6.188.857-.404-.054-.67-.466-.367-.674zM15.54 18.293c2.853 2.367 7.222 2.853 10.62 1.396 1.94-.852 3.884-2.43 4.61-4.37-.332.247-.668.483-1.03.728-2.064 1.273-5.4 1.334-7.465 0-1.638-1.03-2.973-2.732-3.337-4.613-.73-3.03.606-5.825 2.975-7.586 2.18-1.575 5.63-1.464 8.116-.162l-.352-.383C27.25.82 23.913-.457 20.395.15c-3.783.507-7.284 3.457-8.315 7.097-1.092 4.065 0 8.378 3.46 11.046zm-1.332-11.17c1.273-3.454 4.913-5.637 8.614-5.4-3.34 1.097-5.708 4.433-5.887 7.893-.18 2.972.97 5.338 3.277 7.28 1.212.912 2.486 1.702 4.005 1.823-2.976.666-5.646-.243-7.828-2.007-2.688-2.388-3.458-6.246-2.182-9.59zM47.338 29.035c-2.306-.973-4.005-3.4-4.19-5.823-.24-1.944.912-3.34 1.58-4.86-.79.184-1.452.55-2.004 1.034-1.03.97-1.613 2.403-1.7 3.76-.072 2.308.91 4.37 2.67 5.827 1.402 1.215 3.828 1.4 5.525.668-.054-.47-1.17-.33-1.882-.605zM62.08 30.065c2.31-1.576 3.522-3.944 3.465-6.675.057-1.942-.915-3.823-2.67-4.733l-.063.304c.792 2.186.972 5.28-.182 7.343-1.215 2.428-3.64 3.702-6.127 4.07 1.517.66 4.003.66 5.578-.308zM88.177 35.588c-.12-1.58-1.458-2.973-2.913-3.398.244.852 1.114 1.645 1.3 2.617.24 1.03-.052 2.1-.755 2.843-.713.7-1.5.898-1.46 1.397 1.157-.123 2.18-.404 3.036-1.215.614-.535.85-1.334.79-2.244zM19.302 38.5c-.73-1.513-.244-3.458.668-4.733-1.095.072-1.962 1.12-2.43 2.124-.283.59-.118 1.642.184 2.308.286.688 1.187 1.584 2.124 1.817.477.114 1.184.325 1.457-.06-.728-.36-1.678-.767-2.003-1.455zM75.616 39.168c-.97-.482-1.333-1.518-1.456-2.49-.125-.773.517-1.838.182-2.307-1.05.564-1.522 1.58-1.637 2.616-.084 1.047.603 2.365 1.756 2.91.938.408 2.31.436 2.912.06-.196-.31-1.148-.48-1.756-.788zM33.316 40.197c.61-.97.672-2.424.125-3.456-.424-.75-.97-1.52-1.884-1.52.305 1.096 1.034 2.367.548 3.642-.486 1.335-1.942 1.942-2.973 2.552 1.58.425 3.345.153 4.186-1.217zM48.124 39.53c.73.548 1.58.548 2.43.305.424-.12 1.09-.425 1.032-1.032-.242-.244-.487-.303-.79-.303-.79.97-1.94 0-2.913 0-.423.303-.06.852.24 1.03zM57.892 40.26c.428-.303 1.156-.425 1.156-1.092-.3-1.03-1.213.122-1.88.122-.666.305-1.822-.91-1.88.486.544.728 1.637.665 2.604.484zM58.14 43.78c-.427 0-.73.182-.61.668.668.544 1.7.725 2.552.42.424-.238 1.15-.663 1.094-1.27l-.125-.24c-.967.24-1.882.726-2.91.422zM50.675 43.843c-.243.605.423.666.728 1.026 1.032.73 2.487.182 3.456-.422.124-.304.366-.727-.12-.914-.668-.24-.97.428-1.58.428-.907.183-1.757-.97-2.485-.12zM46.306 45.538c.848.062 1.88.246 2.548-.365.243-.304.183-.788-.242-.91h-.426c-1.09.73-1.942-.728-2.91.064-.244.846.605.846 1.03 1.21zM85.022 45.355c.3-.056.666-.363.666-.726 0-.003.015-.114-.013-.14-.042-.033-.104.018-.104.018-.508.25-2.112-.495-2.003.543.075.535.892.35 1.455.305zM78.83 45.72c.44.325 1.438.086 1.58-.12l.183-.3c-.55-.127-1.394-.73-2.01-.064-.102.142.07.358.247.483zM21.365 46.267c.49.18 1.092-.06 1.333-.548-.668-.12-1.577-.85-2-.06-.097.25.35.47.667.607zM26.948 46.693c.394-.003.842-.034.85-.362-.128-.42-1.155-.61-1.76-.73-.372.027-.425.548-.183.73.17.154.44.373 1.093.363zM81.382 47.846c.666.303 1.422.196 2-.365 0 0 .065-.038.08-.12.014-.082-.08-.12-.08-.12-.544-.366-1.883-.286-2.124-.06-.165.18-.12.544.124.666zM51.403 48.148c-.79-.18-1.397.67-2.064.122-.303-.122-1.274-.486-1.153.303.125.365.484.67.79.73.85.24 2 .303 2.61-.548.057-.182.12-.607-.184-.607zM54.86 48.88c.605.848 1.943.848 3.032.727.428-.302.977-.546 1.097-1.094.06-.364-.365-.242-.487-.364-1.03.67-2.185.244-3.276.06-.242.12-.486.363-.368.67zM23.488 49.484c.54.26 1.638.152 1.64-.12-.035-.56-1.376-.96-1.88-.912-.537.05-.184.853.24 1.032zM78.103 50.21c.4.224.955.576 1.397.362.364-.238 1.157-.276 1.03-.728-.424-.602-1.966-.418-2.12-.36-.244.122-.636.52-.307.727zM84.594 50.94c.336-.01.977-.304.977-.91-.607-.06-2.03-.56-2.068.362.065.485.63.553 1.092.547zM20.577 51.43c.32.12.927.118 1.277-.304.164-.212 0-.187 0-.187-.732 0-1.64-1.456-2.006-.184-.047.31.423.547.73.673zM26.402 50.7c-.13.167-.005.56.182.603.544.126 1.637.43 1.942-.363l-.244-.303c-.726.24-1.334-.485-1.88.063zM365.374 50.414c0-.354-.595-.486-.91-.486h-11.227s-.25.003-.59-.178c-.22-.118-.26-.43-.26-.43-.12-3.095.45-6.085 2.546-8.618.247-.288.504-.866-.24-1.212-2.004-.547-4.466-.703-6.375 0-7.402 2.61-12.984 10.193-19.05 15.17 0 0-.58.465-1.093.426-.604-.048-.715-.628-.546-1.094.725-2.547 2.287-4.836 2.548-7.464.058-1.576-.732-2.79-1.884-3.88-1.393-1.337-4.054-2.19-5.646-.974l-7.28 6.19c-.382.268-.988.77-1.027.304-.124-1.457.12-3.095-.79-4.248-1.52-1.88-4.454-3.256-6.25-2.485-5.963 2.588-10.257 8.738-15.173 13.043-1.246.99-2.43 1.942-3.033 1.884-.257-.012-.506-.384-.487-.914.304-3.397 3.015-5.767 4.552-8.736.564-1.25.06-2.67-.606-3.703-.607-.852-1.275-1.698-2.43-1.698-3.15.06-6.93.34-9.826-.365-2.333-.25-.24 3.255-1.882 4.49-1.593 1.197-3.474 3.425-5.04 2.55-1.563-1.4 1.59-4.4-.362-5.946-1.7-1.395-4.13-.24-5.828.364-.718.157-1.15-1.376-2.12-1.882-2.01-.85-5-.596-6.314.79-2.79 2.548-6.267 5.988-10.012 4.61-1.357-.387-.244-4.188-2.305-5.342-1.336-.724-3.032-.178-4.312.366-1.195.56-2.47 2.175-3.397 1.764.47-2.233 1.52-4.134 2.307-6.132 1.246-3.206 3.035-6.127 3.098-9.647 0 0 .006-.29-.17-.44-.2-.174-.437-.23-.437-.23-2.792-.602-4.917 1.157-7.04 2.493-.85.608-2.246 1.394-2.125 2.543.183.73 1.032.187 1.397.67.362.365.23 1.055.06 1.455-1.585 3.32-2.99 5.518-5.188 9.618-2.03 4.013-5.614 9.56-1.73 14.052 1.536 1.4 3.277 1.275 5.157 1.457 5.214.22 8.92-3.64 11.713-7.464 2.1.213 3.947-1.036 6.008-.61.274.122.314.375.282.73-.168.625-1.154 4.92 2.5 6.662.242.135.51.24.8.316 4.274 1.1 7.954.18 11.044-2.29 2.092-1.68 2.26-3.44 4.003-3.595 3.075-.017 4.625-.064 7.283-1.457 2.43-1.334 3.944-3.76 5.642-5.764.276-.273.85-.23 1.4.304.438.428.242.97 0 1.334-2.248 2.608-4.794 5.703-3.22 9.283 1.595 3.015 5.71 3.218 9.04 2.913 5.892-.91 8.806-6.98 13.352-10.74.363-.242 1.09-.55 1.338 0 .413 2.418-2.248 3.883-1.762 6.49.12 1.156.787 2.19 1.82 2.855 1.68.997 4.596 1.113 6.01.123 2.55-1.763 4.676-4.548 6.796-6.798.666-.728 2.086-2.312 2.367-1.697 1.185 2.48-2.426 5.154.485 7.223 2.668 1.637 6.98 2.365 9.95.79 1.835-1.03 3.09-2.82 4.967-3.63.234-.102.37-.16.623-.176.187.024.39.086.514.177 1.337.99 1.897 2.578 3.362 3.75 1.598.986 3.17 1.278 5.645.97 2.188-.33 3.157-2.52 4.73-3.672h11.413s2.95-3.075 3.093-3.43c.222-.393.12-.728.12-.728zm-124.826-.182c-1.336 1.94-2.126 4.79-4.673 5.64-.425.123-.806-.158-.85-.728.014-3.425.633-6.61 2.063-8.98 1.455-1.76.914.626 2.06 1.578.812.69 2.126 1.204 1.4 2.49zm24.335.728c-.518 1.792-2.234 4.43-4.186 5.035-.924.212-1.333-.287-1.34-.91-.18-3.7 1.526-7.45 3.278-9.467.304-.24.514-.53 1.03-.303.562.432-.05 1.974.487 2.672.61.848 1.035 1.822.73 2.973zm80.346-4.915c-.308 1.396-.487 3.156-2.067 3.82-.58.203-2.488.26-2.247-.664.73-1.457 2.188-3.034 3.644-3.822.388-.167.764.186.67.667z"/><path d="M53.226 72l1.7-2.732c2.483-3.22 4.67-6.977 8.007-9.467 3.247-1.426 9.62-1.11 14.213-.473.117.016.184.022.298.063.058.026.125.05.19.1 2.15 1.822 3.177 4.66 4.896 6.685 1.46-2.49 3.22-4.798 5.1-7.103 0 0 .305-.294.607-.47.292-.173.306-.222.73-.32 1.614-.38 8-.305 12.014-.71.062-.005.106-.01.168-.025.038-.012.095-.026.125-.045 1-.52 1.23-1.74 1.467-2.74.132-.573-.38-1.048-.665-1.03-3.458.12-6.857.562-10.435.38.003 0-.187-.014-.34-.174-.154-.17-.093-.265-.093-.265.734-1.34 1.337-2.733 1.644-4.31.667-3.645-.306-7.22-3.276-9.406 1.7-1.398 1.577-3.762 1.21-5.764-.604-2.003-2.062-4.127-4.307-4.552-.062-.967 1.212-1.636 1.153-2.548h-.12c-4.552 4.367-11.312 6.506-17.424 4.058l-.43-.184c.003 0-.106.067.083.2 0 0 .243.276.464.51.47.606.945 1.297.798 1.668-.97 1.698-1.518 4.125-.608 6.065.55 1.517 2.188 2.55 3.46 3.215-2.366 2.426-2.97 6.192-2 9.526.32 1.09 1.764 2.373 1.333 2.61-1.94.43-4.13.184-6.25.244-.468-.026-1.357.006-.85-.665 1.575-1.764 2.67-3.77 3.093-6.07 1.032-5.464.185-11.47-4.914-14.564 2.245-.912 4.368-3.275 5.4-5.46 1.278-3.274.914-7.404-1.394-10.073-.912-1.152-2.55-1.396-3.037-2.795 1.214-1.453 2.85-2.73 3.58-4.427-2.73 1.878-5.58 3.52-8.735 4.428-7.647 2.308-15.05-.847-20.27-6.127.303 1.945 1.76 3.764 3.277 5.098.118.183.06.488-.062.606-2.973.972-5.583 3.825-6.19 6.86-.788 3.944.667 7.4 3.4 10.01.767.69 1.758 1.217 2.486 1.64-1.94 1.578-4.004 3.522-4.732 5.764-2.425 5.523-.36 11.648 3.275 15.9-2.362.062-4.244-.305-6.806-.2l-.183-.12.802-1.502c1.093-3.214.728-7.465-2.004-9.708.327-.085.793-.29 1.216-.547 2.123-1.334 3.154-3.64 2.668-6.064-.3-1.276-1.286-2.44-2.485-3.22-.716-.723.994-1.16.826-2.032l-.22.09c-4.308 1.702-9.897.918-13.844-1.207-1.258-.686-1.93-1.092-3.13-2.228-.734 1.407 1.838 2.27.834 2.588-2.002.54-4.065 2.425-4.43 4.546-.3 2.125.24 4.31 1.882 5.83-1.153.91-2.352 2.16-3.036 3.515-1.033 2.062-.97 5.04.182 7.04.4.912 1.336 1.7 1.336 2.67-4.19 0-8.495-.06-12.623.244-.488.06-.792.268-.848.972.044.71.332 1.815 1.088 2.062 1.276.485 2.73.55 4.186.485.64.037 1.458 0 1.58.67.04.197-.68.538-1.218.91-1.752 1.15-3.667 1.797-5.58 2.487-1.59.55-.396 1.63-.787 2.608.124.927 1.354 1.126 2.062.91 4.067-2.123 8.982-2.488 11.955-6.676 1.274-.182 2.976-.73 4.065.183 2.002 2.548 4.068 5.038 5.766 7.644l.175.236.19-.237c1.7-2.606 3.216-5.46 5.886-7.583 4.732-.73 9.953-.55 14.504.483 3.038 3.766 5.158 8.193 7.952 12.02zm0-4.188l-.11.155-.075-.155c-1.575-2.515-3.275-4.673-4.67-7.102l-.397-.683.456.077c3.582.485 7.282 0 10.86-.123l.298-.025c-2.37 2.37-4.603 5.065-6.362 7.857zm29.795-5.216c-.06.16-.18.282-.18.282-.108-.065-.352-.38-.43-.467-.673-.968-1.574-1.88-1.88-3.035 1.517-.428 3.335-.362 4.853-.607-.543 1.398-1.88 2.424-2.362 3.828zm.57-27.823c.3.12.65.227.775.59.058.546-.638.78-.798.77l-.403.02.426-1.38zm-6.093-.763c1.64-.18 3.095-.728 4.55-1.332l-1.518 4.31c-1.09-.67-2.005-1.885-3.034-2.674l-.313-.277.314-.027zm-.548 2.185c.306.425 1.046.717.912 1.093-.17.262-.913.174-1.092-.063-.245-.304-.125-.788.18-1.03zm-3.156 10.8c-.058 2.127.608 4.65 2.848 5.56.11.052.427.085.37-.037-1.396-2.307-2.064-5.645-.788-8.254.483-1.096 1.396-2.062 2.302-2.91l.25-.264-.366.02c-2.367.06-5.255-.062-6.073-2.367-.605-1.867-.24-4 1.276-5.095.524.486 2.36 1.004 1.825 1.82-.49.605-.733 1.52-.37 2.242.484 1.033 1.52 1.34 2.612 1.34 0 0 .45-.058.707-.15.16-.062.563-.213.563-.213 1.156 1.03 1.702 2.303 2.432 3.457l.163.25.076-.313 1.036-4.245c.912.12 2.004-.09 2.793-.97.437-.69.605-1.457.36-2.065-.334-.76-1.096-1.187-1.644-1.55.424-.73.313-2.873 2.13-1.908 1.094.67 2.096 1.835 2.487 3.217.44 1.543.062 3.15-.91 4.304-.846 1.153-2.063 1.642-3.15 2.37 1.756.91 3.395 2.912 3.455 5.034.06 1.76-.304 3.397-.79 5.036-.026.284.372.173.486.062 2.066-1.82 2.55-4.67 2.066-7.402 1.7 2.125 1.153 5.702.12 7.95-.364 1.093-1.52.36-2.126.97-1.275-1.397-2.448.46-4.066-.364-.5-.263-1.188 1.112-2.12.363-1.074-.586-1.85 1.083-3.402.06-.812-.37-2.495 1.36-3.75.513-.12-.078-.157-.105-.192-.167-.075-.152-.127-.29-.16-.36-.8-1.8-1.326-4.005-.45-5.935zm-7.16 1.76c-.366 1.154-.728 2.43-1.516 3.278-1.15-.604-2.67-1.094-3.762-.185-.18 0-.304-.24-.483-.363 3.396-2.73 4.914-6.855 4.183-11.348l-.787-2.913c2.972 2.792 3.46 7.528 2.364 11.532zm-6.68-31.25c-2.24 2.73-5.273 5.214-6.85 8.253-1.215-3.16-3.643-5.888-5.28-8.92 3.52 1.455 8.37 2 12.13.666zm-.724 7.83c-.67.364-1.577.423-2.185 0-.664-.55-.045-1.094.363-1.58.646-.712 1.355-2.1 1.822-1.642 0 0 .44.372.606.93.22.76-.07 1.855-.606 2.292zm-11.77-3.158c.375-.372.664-.425.664-.425.672.73 1.215 1.823 1.58 2.854.168.447-.493.435-.97.487-.975.015-1.52-.61-1.636-1.337-.044-.808.08-1.293.362-1.58zm-7.648 19.54c.61-1.52 1.152-2.975 2.49-4.247-1.52 4.066-.97 9.832 2.546 12.983h.123c-.485-2.243-1.458-4.548-1.276-7.096-.06-4.672 2.306-8.497 5.95-11.473l-.183-.24c-2.67.545-5.462.18-7.464-1.457-2.305-1.88-2.79-4.794-2.426-7.707.304-2.61 2.426-5.22 4.974-5.944.79.785 2.246 1.757 2.003 2.97-1.335.85-2.003 2.123-2.003 3.64 0 1.094.336 2.073 1.03 2.793 1.4 1.515 3.523 1.395 5.465 1.272.482 1.398.725 2.852 1.453 4.126 1.155-1.152 1.462-2.973 2.61-4.126 1.522.483 3.278.972 4.795.122 1.7-1.033 2.668-2.852 2.548-4.855.06-1.213-1.7-1.882-1.213-3.096.912-.606 1.577-1.94 2.855-1.76 2.607 1.697 4 4.55 3.64 7.585-.184 2.484-1.52 4.792-3.703 6.127-2.065 1.338-4.98 1.456-7.468 1.033 1.582 1.212 3.154 2.37 4.313 4.125 2.06 3.337 2.61 8.19.966 11.955-.483.912-1.028 1.882-1.82 2.606-.728-.06-1.578.067-2.126.673-.725-.063-1.878-.304-2.546.18-1.333.728-.3 2.912-2.063 2.85-.362-.845-.544-1.88-1.516-2.366-.91-.664-2.122.362-2.912-.362-1.457-.487-2.49.848-4.006.182-.58-.265-1.396.484-1.7 1.092-.112.294-.35.37-.542.182-2.853-3.095-4.007-7.583-2.792-11.77zM29.438 37.65c.187.494-.577 1.08-.792 1.035-.85-.19.33-1.21.244-1.582.303 0 .423.308.548.547zm-.853-3.278c-.848 1.275-2 2.615-2.912 3.827-.91-1.4-1.76-3.157-2.427-4.795 1.7.547 3.46.91 5.34.967zm-6.493 1.76c.427.244.91.855.972 1.52-.486.058-1.337 0-1.337-.73-.06-.362.06-.605.365-.79zm-7.403 10.2c.363-.852.91-1.702 1.7-2.248-1.033 1.758-.864 4.405.06 6.19.573 1.102 1.7 2.243 2.79 2-1.273-1.702-1.88-4.004-1.152-6.188.95-2.45 2.913-3.762 4.978-4.31.01-.56-.688-.3-1.152-.363-1.66-.075-3.35-.61-4.615-2.49-.604-.907-.78-2.198-.485-3.277.18-.816 2.023-2.904 3.25-2.928.678-.038 1.377.597 1.06 1.413-.607 1.032-1.457 1.942-1.275 3.28.182 1.33 1.703 2.212 2.61 2.243l1.455-.06c.427.97.73 2 1.335 2.91.666-.606.97-1.577 1.518-2.367 1.092-.242 2.366.607 3.396-.18.88-.618 1.172-1.24 1.338-2.004.304-1.212-1.76-1.942-.668-2.912.542-.485 1.214-1.275 2.062-.73 1.15 1.033 1.94 2.366 1.82 4.007-.06 1.695-1.255 3.48-2.853 3.943-1.27.362-3.092.483-4.305-.12l-.298-.113.172.295c1.338.843 2.67 2.002 3.28 3.643.665 2.303.06 4.67-1.212 6.61 1.334-.122 2.373-1.472 2.79-2.733.444-1.334.365-2.543.242-3.82 1.514 1.215 1.338 3.52 1.03 5.34-.276 1.157-.543 1.883-1.27 2.61-1.276-1.152-3.097.182-4.432-.792-.97.793-2.124-.302-3.155.367-1.214-.545-2.49.426-3.58-.426-1.03.55-2 .184-3.216.365-.485.062-1.045.7-1.58 0-1.396-2.056-2.492-4.547-1.64-7.154zM24.71 64.28c-1.032-1.337-3.04-3.27-3.828-4.787 2.063-.366 4.79.186 6.794.005l.61-.08c-1.092 1.457-2.178 3.71-3.575 4.862zm3.816-6.363c-4.795.427-9.77-.18-14.688-.06-2.12 3.642-6.19 4.372-9.466 5.95-.77.39-2.194.576-2.428.484 0 0-.39-.264 0-.362.126-.03 4.675-2.065 6.86-3.46.71-.466 1.4-1.125 1.396-1.82-.42-2.21-4.007-1.096-6.01-1.702-.242-.122-.782-.26-.788-.602 0-.305.184-.67.546-.67 4.55-.062 9.043.365 13.532.184.357-.027.546-.974 1.154-.79.486.235 1.065 1.216 1.578.79.302-.305.182-1.097.85-1.034.792 0 .955 1.64 1.76.912.362-.305.424-1.032 1.032-.73.356.185.29.787.848.73.97-.11 1.395-1.58 1.882-.183.107.25.494.25.91-.062.38-.314.424-.666.91-.484.188.08.31.483.728.73.402.258 1.094-1.032 1.882-.73.243.606.605 1.153 1.275 1.457 4.245-.547 7.947.424 12.075 0 .923-.174-.487-3.035 1.21-2.546.88.41.365 2.06 1.58 2.184.695-.09 0-2.368 1.275-2.247.52.223 0 1.7 1.032 1.884.625-.015.304-2.125 1.58-1.82.702.32.24 2.243 1.637 2.484.97.245 1.883-.12 2.667-.54 1.213-.67.12-3.102 1.946-2.855.576.183.18 1.276.907 1.576 1.286.084.36-2.61 1.82-1.64.672.43.355 1.912 1.337 1.64.668-.424.36-1.456 1.21-1.64.906-.103 1.416.466 1.46 1.035.118.786.153 2.153 1.03 2.125l8.92-.06c1.035.118.972-1.643 2.066-1.096.364.245.852.79 1.396.486.422-.303.422-1.033 1.087-.972.673.182 1.035.972 1.7.546.425-.364.488-.973 1.215-.725.483.3.97 1.09 1.64.542.36-.305.666-1.15 1.27-.73.427.365.854 1.034 1.4.667.365-.182.484-.97 1.028-.544.364.423.912.91 1.398.543.104-.092.378-.404.56-.624.036-.035.07-.084.12-.105.072-.016.135.022.197.048.563.21.8.898 1.267 1.26.012.01.024.016.042.022.028.005.053.01.08.01 3.36.112 6.96-.296 10.258.055.015 0 .023.005.032.008.013.01.02.022.027.037.176.437-.413.624-.666.9-.008.014-.015.017-.047.027l-.055.01-9.995.3c-7.037 1.27-14.893.93-22.266.602-6.856.91-14.142 1.338-21.363 1.032-5.706-.667-11.955-.844-17.84-.425zM180.323 43.163s.252-1.288-3.553-1.16c0 0-5.546.088-9.663 2.483 0 0-3.795 1.98-3.795 5.757 0 0 .213 4.03 4.715 4.03 0 0 2.277-.182 4.957-1.815 0 0 1.877-1.348 2.68-1.125 0 0 .294.09.597 1.064 0 0 .85 2.74 4.478 2.74 0 0 3.686-.08 5.51-3.365 0 0 1.517-2.37 1.188-6.045 0 0-.193-6.155-7.53-7.656 0 0-10.018-2.177-16.806 3.145 0 0-4.85 3.958-4.645 9.216 0 0 .358 9.97 14.146 9.97 0 0 8.29.196 15.165-4.128 0 0 5.103-3.444 7.29-5.95 0 0 .967-.99 1.444-.585 0 0 .805.494.18 1.894 0 0-1.508 3.505-1.103 4.398 0 0 .707 2.64 5.317 2.64 0 0 2.17.273 4.93-3.947 0 0 .676-1.595 5.982-6.002 0 0 .752-.557 1.03-.322 0 0 .342.198-.024 1.36l-1.042 3.23s-.92 3.222 2.675 4.986c0 0 3.757 1.57 7.186.892 0 0 3.068-.54 2.944-3.29 0 0 .056-.59-.87-.685 0 0-.842-.064-1.644.69 0 0-1.28 1.21-2.185 1.21-.904 0-.844-.81-.673-1.89 0 0 .338-1.933 1.695-4.04 0 0 4.933-6.302-1.73-9.323 0 0-3.744-2.025-7.376 1.875 0 0-2.97 2.823-3.912 3.34 0 0-.754.557-1.165.306 0 0-.202-.084-.21-.77 0 0-.376-4.715-5.094-5.252 0 0-2.84-.464-5.536 3.466 0 0-4.102 5.788-6.143 7.517 0 0-5.933 5.414-15.245 6.03 0 0-9.316.725-12.39-4.1 0 0-3.202-3.998 1.99-10.12 0 0 3.413-4.48 12.53-4.38 0 0 7.31-.1 8.52 5.713.002 0 1.004 2.894-1.07 6.404.003 0-1.287 1.822-2.715 1.26 0 0-.76-.35-.07-1.9l1.403-3.39s.774-1.735-1.484-2.316c0 0-1.896-.652-3.78 1.086 0 0-3.856 3.478-7.69 5.31 0 0-1.38.786-1.4.15 0 0-.29-2.15 3.02-4.982 0 0 2.235-1.866 6.23-2.524 0 0 2.768-.193 2.743-1.097z"/></g></svg>