<svg xmlns="http://www.w3.org/2000/svg" viewBox="0 0 194 59"><path fill="#0D1E3A" d="M31.3 19.9c-2.8 0-5.3 1-7.3 3s-3 4.4-3 7.3c0 2.9 1 5.3 3 7.3 2 2.1 4.4 3.1 7.3 3.1s5.3-1 7.2-3.1c2-2 3-4.4 3-7.3 0-2.8-1-5.3-3-7.3s-4.4-3-7.2-3z"/><path fill="#0D1E3A" d="M31.3 18.1V6.4c-4.2 0-8.1 1.1-11.7 3.1v17.8c.6-2.6 2.1-4.8 4.2-6.4 2.2-1.9 4.7-2.8 7.5-2.8zM28.7 42.1c-2.7-.6-4.9-2.1-6.5-4.3-1.8-2.2-2.6-4.6-2.6-7.4H7.5c0 4.2 1.1 8.1 3.2 11.7h18zM43 33.2c-.6 2.6-2 4.8-4.2 6.5-2.2 1.7-4.7 2.6-7.5 2.6v11.5c4.2 0 8.1-1 11.7-3.1V33.2zM55 30c0-4.2-1.1-8.1-3.2-11.7H34.3c2.7.6 4.9 2.1 6.5 4.2 1.8 2.3 2.6 4.7 2.6 7.5H55zM60.5 19v13.7h4.1V19M86.5 19h-4.3v9.9L74.1 19h-6.5v13.7h4.3v-10l7.9 10h6.7M93.4 24.4v-2.2h7.5c.8 0 1.3.4 1.3 1.1s-.5 1.1-1.3 1.1h-7.5zm0 2.8h7.6c1 0 1.5.5 1.5 1.2s-.5 1-1.5 1h-7.6v-2.2zm11-1.4c.7-.3 1.2-.5 1.5-.9.5-.5.6-1.3.6-2.4 0-1.3-.5-2.2-1.3-2.8-.8-.5-2.1-.7-3.8-.7H89.2v13.8h13.6c1.4 0 2.4-.2 3-.6.7-.6 1.2-1.6 1.2-3 0-1.1-.2-1.9-.5-2.4-.5-.6-1.2-.9-2.1-1zM126.8 19h-4.2v8c0 .8-.3 1.5-.5 1.8-.4.5-1.1.6-1.9.6H116c-.9 0-1.5-.2-1.9-.6-.4-.4-.5-1-.5-1.8v-8h-4.3v8.9c0 1.7.5 3 1.4 3.8.9.9 2.4 1.3 4.3 1.3h6.2c1.9 0 3.4-.4 4.3-1.3.9-.8 1.4-2.1 1.4-3.8l-.1-8.9zM133.8 25.7v-3.4h6.7c1.1 0 1.9.2 1.9 1.5v.5c0 1-.5 1.5-1.5 1.5l-7.1-.1zm0 3.5h6.7c.6 0 1.1.1 1.4.4.3.3.4.8.4 1.5v1.6h4.3v-2.4c0-1-.2-1.8-.6-2.3-.4-.4-.9-.6-1.6-.8.9-.2 1.5-.6 1.9-1.2.3-.5.5-1.3.5-2.3V23c0-1.4-.3-2.4-.8-3-.7-.8-1.8-1.1-3.4-1.1h-12.9v13.8h4.3l-.2-3.5zM158.3 24.1l-4.3-.2c-.3 0-.5-.2-.6-.4-.1-.1-.2-.4-.2-.6 0-.7.5-1.1 1.6-1.1h4.7c.9 0 1.5.1 1.8.3.2.2.3.5.3 1.2h4.3v-.5c0-1.5-.3-2.4-.9-3-.7-.8-2.3-1.2-4.4-1.2h-6c-2.4 0-4.1.5-4.8 1.3-.5.6-.8 1.7-.8 3.2 0 1 .1 1.6.3 2.2.1.5.5.9.9 1.3.9.5 2.8.8 6 .8l5.1.2c.4 0 .6.2.7.4l.2.7c0 .5-.2.8-.5 1l-1.3.2h-5.3l-1.4-.3c-.3-.2-.5-.6-.5-1.4H149v1c0 1.5.5 2.4 1.3 3 .7.5 2.2.7 4.2.7h5.2c2.8 0 4.7-.3 5.5-.8.5-.3.9-.7 1.1-1.3.2-.5.3-1.4.3-2.3 0-1.1-.1-1.8-.4-2.4-.2-.6-.6-1.1-1.2-1.4-1-.4-3.2-.6-6.7-.6zM180.6 19h-5.5l-7.5 13.7h4.8l1.2-2.4 1.6-3 2.7-5.2 2.7 5.2h-5.4l-1.6 3h8.7l1.2 2.4h4.8M95.2 43.6v-1.1h3.9v3.4c-.6.5-1.2.8-1.9 1.1-.6.2-1.3.4-2 .4-.9 0-1.7-.2-2.5-.6-.7-.4-1.3-.9-1.7-1.7-.4-.7-.6-1.6-.6-2.5 0-.9.2-1.7.6-2.5.4-.8.9-1.4 1.6-1.7s1.5-.6 2.4-.6c.7 0 1.3.1 1.8.3.5.2 1 .5 1.3.9.3.4.5.9.7 1.5l-1.1.3c-.1-.5-.3-.8-.5-1.1-.2-.3-.5-.5-.9-.6-.4-.2-.8-.2-1.3-.2-.6 0-1 .1-1.4.3-.4.2-.7.4-1 .7l-.6.9c-.2.6-.4 1.2-.4 1.9 0 .8.1 1.5.4 2.1.3.6.7 1 1.2 1.2.5.3 1.1.4 1.7.4.5 0 1-.1 1.5-.3.5-.2.9-.4 1.1-.6v-1.7h-2.3v-.2zM100.8 47.2v-6.7h1v1c.3-.5.5-.8.7-.9.2-.1.5-.2.7-.2.4 0 .8.1 1.2.4l-.4 1.1c-.3-.2-.6-.2-.8-.2-.2 0-.5.1-.7.2-.2.1-.3.4-.4.6-.1.4-.2.8-.2 1.3v3.5l-1.1-.1zM109.4 47.2v-1c-.5.8-1.2 1.1-2.1 1.1-.4 0-.8-.1-1.1-.2-.3-.1-.6-.3-.8-.6-.2-.2-.3-.5-.4-.8 0-.2-.1-.6-.1-1.1v-4.1h1.1v3.7c0 .6 0 1 .1 1.2.1.3.2.5.5.7.2.2.5.3.9.3s.7-.1 1-.3c.3-.2.5-.4.6-.7.1-.3.2-.7.2-1.3v-3.6h1.1v6.7h-1zM112.2 49.8v-9.2h1v.9c.2-.3.5-.6.8-.8.3-.2.7-.3 1.1-.3.6 0 1.1.1 1.5.4.4.3.8.7 1 1.2.2.5.3 1.1.3 1.8s-.1 1.3-.4 1.8c-.2.5-.6 1-1.1 1.3s-1 .4-1.5.4c-.4 0-.7-.1-1-.2-.3-.2-.5-.4-.7-.6v3.2l-1 .1zm1-5.9c0 .9.2 1.5.5 1.9.3.4.8.6 1.3.6s.9-.2 1.3-.6c.4-.4.5-1.1.5-2 0-.9-.2-1.5-.5-1.9-.4-.4-.8-.6-1.3-.6s-.9.2-1.3.7c-.3.4-.5 1.1-.5 1.9zM119 43.9c0-1.2.3-2.2 1-2.7.6-.5 1.3-.7 2.1-.7.9 0 1.7.3 2.3.9.6.6.9 1.4.9 2.5 0 .9-.1 1.5-.4 2-.3.5-.6.9-1.1 1.1-.5.3-1 .4-1.6.4-.9 0-1.7-.3-2.3-.9-.7-.6-.9-1.5-.9-2.6zm1.1 0c0 .9.2 1.5.6 1.9.4.4.8.6 1.4.6.6 0 1-.2 1.4-.6.4-.4.6-1.1.6-2 0-.8-.2-1.5-.6-1.9s-.8-.6-1.4-.6c-.6 0-1 .2-1.4.6-.4.5-.6 1.1-.6 2zM130.3 47.2V38h6.3v1.1h-5V42h4.3v1h-4.3v4.2M138 39.3V38h1.1v1.3H138zm0 7.9v-6.7h1.1v6.7H138zM140.9 47.2v-6.7h1v.9c.5-.7 1.2-1.1 2.1-1.1.4 0 .8.1 1.1.2.3.1.6.3.8.6.2.2.3.5.4.8 0 .2.1.6.1 1.1v4.1h-1.1V43c0-.5 0-.8-.1-1-.1-.2-.2-.4-.5-.5-.2-.1-.5-.2-.8-.2-.5 0-.9.2-1.2.5-.4.3-.5.9-.5 1.7v3.6l-1.3.1zM152.4 46.4c-.4.4-.8.6-1.2.8-.4.1-.8.2-1.2.2-.7 0-1.3-.2-1.7-.5-.4-.4-.6-.8-.6-1.4 0-.3.1-.6.2-.9.1-.3.3-.5.6-.6.2-.2.5-.3.8-.4.2-.1.6-.1 1-.2.9-.1 1.6-.2 2-.4v-.3c0-.5-.1-.8-.3-1-.3-.3-.7-.4-1.3-.4-.5 0-.9.1-1.2.3-.3.2-.4.5-.6 1l-1.1-.2c.1-.5.3-.9.5-1.1.2-.3.6-.5 1-.7.4-.2.9-.2 1.5-.2s1 .1 1.4.2c.4.1.6.3.8.5.2.2.3.5.4.8 0 .2.1.5.1 1v1.5c0 1.1 0 1.7.1 2 0 .3.1.5.3.8h-1.2c-.2-.2-.3-.5-.3-.8zm-.1-2.5c-.4.2-1 .3-1.8.4-.5.1-.8.1-1 .2-.2.1-.3.2-.4.4-.1.2-.2.3-.2.5 0 .3.1.6.3.8.2.2.6.3 1 .3s.8-.1 1.2-.3c.3-.2.6-.5.7-.8.1-.3.2-.6.2-1.1v-.4zM155.2 47.2v-6.7h1v.9c.5-.7 1.2-1.1 2.1-1.1.4 0 .8.1 1.1.2.3.1.6.3.8.6.2.2.3.5.4.8 0 .2.1.6.1 1.1v4.1h-1.1V43c0-.5 0-.8-.1-1-.1-.2-.2-.4-.5-.5-.2-.1-.5-.2-.8-.2-.5 0-.9.2-1.2.5-.4.3-.5.9-.5 1.7v3.6l-1.3.1zM166.7 44.8l1.1.1c-.1.8-.4 1.4-.9 1.8-.5.4-1.1.6-1.8.6-.9 0-1.6-.3-2.2-.9-.6-.6-.8-1.5-.8-2.6 0-.7.1-1.4.4-1.9.2-.5.6-.9 1.1-1.2.5-.3 1-.4 1.6-.4.7 0 1.3.2 1.8.6.5.4.8.9.9 1.6l-1.1.2c-.1-.4-.3-.8-.6-1-.3-.2-.6-.3-1-.3-.6 0-1 .2-1.4.6s-.5 1.1-.5 1.9c0 .9.2 1.5.5 2 .3.4.8.6 1.3.6.4 0 .8-.1 1.1-.4.2-.3.4-.7.5-1.3zM168.8 39.3V38h1.1v1.3h-1.1zm0 7.9v-6.7h1.1v6.7h-1.1zM176.2 45.1l1.2.1c-.2.7-.5 1.2-1 1.6-.5.4-1.1.6-1.9.6-1 0-1.8-.3-2.3-.9-.6-.6-.9-1.4-.9-2.5s.3-2 .9-2.6c.6-.6 1.3-.9 2.3-.9.9 0 1.6.3 2.2.9.6.6.9 1.5.9 2.6v.3h-5c0 .7.2 1.3.6 1.7.4.4.8.6 1.4.6.4 0 .8-.1 1.1-.3.1-.4.3-.7.5-1.2zm-3.7-1.9h3.7c0-.6-.2-1-.4-1.3-.4-.4-.8-.7-1.4-.7-.5 0-1 .2-1.3.5-.4.5-.6 1-.6 1.5zM178.8 47.2v-6.7h1v1c.3-.5.5-.8.7-.9.2-.1.5-.2.7-.2.4 0 .8.1 1.2.4l-.4 1.1c-.3-.2-.6-.2-.8-.2-.2 0-.5.1-.7.2-.2.1-.3.4-.4.6-.1.4-.2.8-.2 1.3v3.5l-1.1-.1zM182.7 43.9c0-1.2.3-2.2 1-2.7.6-.5 1.3-.7 2.1-.7.9 0 1.7.3 2.3.9.6.6.9 1.4.9 2.5 0 .9-.1 1.5-.4 2-.3.5-.6.9-1.1 1.1-.5.3-1 .4-1.6.4-.9 0-1.7-.3-2.3-.9-.6-.6-.9-1.5-.9-2.6zm1.1 0c0 .9.2 1.5.6 1.9.4.4.8.6 1.4.6.6 0 1-.2 1.4-.6.4-.4.6-1.1.6-2 0-.8-.2-1.5-.6-1.9-.4-.4-.8-.6-1.4-.6-.6 0-1 .2-1.4.6-.4.5-.6 1.1-.6 2z"/></svg>