<svg xmlns="http://www.w3.org/2000/svg" width="154" height="38" viewBox="0 0 154 38">
  <defs>
    <style>
      .cls-1 {
        fill: #212121;
      }

      .cls-1, .cls-2 {
        fill-rule: evenodd;
      }

      .cls-2 {
        fill: #da252c;
      }
    </style>
  </defs>
  <path id="_" data-name="#" class="cls-1" d="M117.006,30.947v-10.4a2.845,2.845,0,0,0-3.064-2.879A2.94,2.94,0,0,0,111,20.744v10.2h-4V7.96h4v7.761a6.894,6.894,0,0,1,4.538-1.7c3.568,0,5.463,2.51,5.463,5.955v10.97h-4Zm18.148-1.981a7.526,7.526,0,0,1-10.28,0C123.4,27.389,123,25.51,123,22.48c0-3.005.374-4.884,1.871-6.436a6.746,6.746,0,0,1,5.09-2.029,6.826,6.826,0,0,1,5.14,2.029c1.5,1.578,1.872,3.431,1.872,6.436,0.049,3.03-.35,4.909-1.822,6.486M131.92,18.448a2.639,2.639,0,0,0-1.953-.726,2.5,2.5,0,0,0-1.927.751c-0.863.877-.964,2.279-0.964,4.007s0.1,3.206.964,4.057a2.59,2.59,0,0,0,1.927.751,2.74,2.74,0,0,0,1.978-.726c0.888-.852.963-2.3,0.963-4.032s-0.075-3.156-.963-4.007m-33.876,12.5c-2.581,0-4.914-.276-7-2.385l2.68-2.712A5.934,5.934,0,0,0,98.143,27.5c1.415,0,2.9-.477,2.9-1.757,0-.828-0.422-1.406-1.737-1.531l-2.581-.251c-2.978-.276-4.737-1.606-4.737-4.669,0-3.439,2.925-5.3,6.275-5.3,2.556,0,4.715.427,6.279,1.958l-2.531,2.586a5.732,5.732,0,0,0-3.822-1.13c-1.638,0-2.333.778-2.333,1.606,0,0.6.248,1.305,1.712,1.431l2.581,0.251c3.251,0.326,4.889,2.058,4.889,4.9,0,3.64-3.1,5.4-6.973,5.422m53.013-1.435a5.211,5.211,0,0,1-3.8,1.487A5.483,5.483,0,0,1,143,29.435v7.531h-3.985V14.134h3.966V15.7a5.452,5.452,0,0,1,4.326-1.735,5.211,5.211,0,0,1,3.8,1.487C152.743,17.084,153,20.26,153,22.713s-0.281,5.235-1.917,6.871M146.09,17.629c-2.454,0-2.987,2.407-2.987,5.084s0.533,4.735,2.987,4.735,2.777-2.057,2.777-4.735-0.3-5.059-2.777-5.084"/>
  <path id="_2" data-name="#" class="cls-2" d="M66.444,13.9A8.011,8.011,0,0,0,60.5,16.431,8.272,8.272,0,0,0,58.017,22.5a8.18,8.18,0,0,0,2.484,6.04,8.011,8.011,0,0,0,5.943,2.533A8.565,8.565,0,0,0,74.968,22.5a8.426,8.426,0,0,0-2.484-6.064A8.132,8.132,0,0,0,66.444,13.9Zm3.19,11.739a4.355,4.355,0,0,1-6.283,0,4.478,4.478,0,0,1-1.34-3.191,4.315,4.315,0,0,1,1.34-3.191,4.018,4.018,0,0,1,3.142-1.291,4.071,4.071,0,0,1,3.191,1.291,4.51,4.51,0,0,1,1.291,3.191A4.689,4.689,0,0,1,69.634,25.638ZM10.68,13.155a6.486,6.486,0,0,1,3.575,1.109,7.064,7.064,0,0,1,2.358,2.768h4.344a10.452,10.452,0,0,0-3.748-5.744,9.978,9.978,0,0,0-6.5-2.295,9.938,9.938,0,0,0-7.5,3.2,10.562,10.562,0,0,0-3.2,7.767,10.909,10.909,0,0,0,3.153,7.818,10.152,10.152,0,0,0,7.547,3.177,10.161,10.161,0,0,0,6.5-2.244,11.063,11.063,0,0,0,3.748-5.744H16.638a7.246,7.246,0,0,1-2.358,2.768A6.73,6.73,0,0,1,10.705,26.8a6.3,6.3,0,0,1-4.667-1.967,6.256,6.256,0,0,1-1.887-4.766A6.273,6.273,0,0,1,6.038,15.3,5.932,5.932,0,0,1,10.68,13.155ZM42.886,15.03a9.364,9.364,0,0,0-4.761-1.069c-2.759-.048-4.663.7-5.787,2.161a6.026,6.026,0,0,0-1.147,3.545h4.1a2.9,2.9,0,0,1,.586-1.505,2.5,2.5,0,0,1,2.173-.8,3.682,3.682,0,0,1,2,.389,1.426,1.426,0,0,1,.708,1.36,1.347,1.347,0,0,1-.928,1.238l-3.15.486A8.824,8.824,0,0,0,33.168,21.9a4.536,4.536,0,0,0-2.159,4.419,4.385,4.385,0,0,0,1.3,3.5,5.231,5.231,0,0,0,3.345,1.141,8.208,8.208,0,0,0,5.312-1.676v1.676H45.01V19.036C44.937,17.094,44.229,15.734,42.886,15.03Zm-2.271,9.325a3.337,3.337,0,0,1-1.148,2.914,4.485,4.485,0,0,1-2.539.85,2.262,2.262,0,0,1-1.465-.486,2.016,2.016,0,0,1-.586-1.6,2.017,2.017,0,0,1,.977-1.845,5.462,5.462,0,0,1,1.9-.534l2.051-.534,0.806-.437v1.675h0ZM24,9h4.009V30.921H24V9Zm31.862,5.056-1.2.438A6.176,6.176,0,0,0,51.811,16.8V14.177L48,14.129V30.946H52V23.167a5.74,5.74,0,0,1,.531-2.868,3.9,3.9,0,0,1,1.4-1.556,2.858,2.858,0,0,1,1.852-.7l1.23,0.1-0.048-4.157Zm26.68-12.09-9.5,9.547,2.5,2.475,9.477-9.524ZM65,0h4V10H65V0ZM78,18H88v4H78V18Z"/>
</svg>
