<svg xmlns="http://www.w3.org/2000/svg" viewBox="0 0 304 72"><g fill-rule="evenodd" clip-rule="evenodd" fill="#E2231A"><path d="M139.78 42.77h12.45l-2.72-17.604-9.73 17.605zm35.19 26.658h-8.69l-9.467-55.466-1.252.24 6.034 35.384h-25.852v1.332h26.076l3.142 18.51h-8.227l-1.73-10.934H131.58l-6.078 10.934h-8.74l37.63-67.78h9.1l11.48 67.78zm-59.32 0h-9.193l37.556-67.78h8.89L115.708 68.69l-.334.58.276.158zM218.345 32.53c2.993-.42 6.565-3.343 7.022-7.114.51-4.403-1.696-6.315-4.574-7.03h-14.757l-2.984 14.143h15.293zm-18.83 15.69l-4.54 21.56h-8.517l12.41-59.417h25.792c7.246 1.163 11.104 6.22 10.467 12.28-.672 6.508-7.316 16.963-15.898 16.835-6.8-.1-10.272.07-17.79-.013l-.242.013-.65.014.05 1.336.636-.014.207-.013c7.344.075 10.82-.078 17.342 0v.063c6.564-.413 8.234 2.232 8.93 8.617.4 3.714-.594 6.184-1.297 9.59-.9 4.495-.5 6.227.68 10.47l.036.09h-9.578c-.717-3.253-1.31-4.962-.73-8.534.523-3.494 1.79-5.704 1.64-9.018-.057-1.688-.33-3.516-2.092-3.753-1.348-.176-12.03-.06-16.855-.105m24.2-8.218c7.18-2.672 12.098-11.505 12.678-17.225.84-7.888-4.882-12.687-11.654-13.752H197.83l-12.64 60.54-.047.214h-8.578l14.22-67.643h37.97c9.593.74 17.067 9.613 16.896 19.162-.172 9.26-4.755 14.918-12.802 18.8 3.917 1.67 5.657 7.04 5.59 10.09-.056 2.214.212 3.857-1.036 8.867-1.397 5.61-.637 6.706.488 10.572h-9.436c-.347-1.204-.742-2.422-.997-3.647-1.2-5.6 2.152-10.78 1.51-16.655-.544-5.05-1.827-8.153-5.255-9.326"/><path d="M292.69 22.95h-9.32c-.725-4.19-2.786-6.92-8.512-6.988-3.503-.038-7.87 1.024-7.778 4.654.065 3.595 3.094 4.175 6.337 5.337 5.822 1.433 10.533 1.81 15.21 3.685 7.387 2.946 11.913 12.06 11.245 18.81-1.582 15.94-15.73 24.223-32.727 23.51-15.416-.653-27.514-6.265-25.053-27.038h8.068c-2.47 12.094 6.653 20.733 17.5 20.536 8.643-.158 18.667-3.002 21.515-11.83 2.8-8.64-2.105-15.653-11.77-18.604-6.05-1.835-19.683-2.767-19.955-11.936-.26-8.512 7.94-13.836 17.513-14.722 10.046-.942 18.602 3.676 17.728 14.517v.07zm-31.71 21.983c-.58 8.907 3.3 11.4 9.136 11.558 4.245.124 7.462-2.363 8.012-5.66.888-5.554-8.39-7.95-16.91-9.79-7.154-1.552-13.77-8.167-13.62-16.678.138-8.332 5.406-17.024 16.75-21.357 10.432-3.973 21.9-3.292 28.56.54 7.246 4.19 10.533 10.446 10.203 19.407h-9.157c.66-12.506-8.986-16.877-19.094-15.92-9.704.895-18.968 6.44-18.695 16.098.308 10.244 14.146 11.13 20.87 13.18 9.27 2.818 13.416 9.23 10.946 16.895-2.57 7.92-11.72 10.753-20.354 10.898-10.14.193-18.65-7.813-16.168-19.183l9.522.013zM10.538 44.497h10.015c-.81 6.78 1.08 9.603 5.313 11.07 4.118 1.433 9.54-.123 10.942-3.582 1.63-3.994-1.578-6.67-5.708-8.297-7.545-2.992-10.274-2.22-14.612-4.24C12.12 37.408 4.85 31.45 7.18 20.343 10.3 5.357 25.866.52 35.696.043 49.7-.636 62.933 6.382 62.238 22.846h-9.035C54.48-2.46 15.9 5.63 15.32 20.793 14.905 31.8 24.85 33.146 32.452 34.76c24.798 5.32 16.484 29.025-4.13 29.025-11.422 0-19.763-5.915-17.785-19.288m31.54-21.652c-.445-4.438-1.98-7.124-8.33-7.124-3.106 0-6.472.403-7.44 3.554-1.115 3.582 1.605 4.823 4.105 5.744 4.28 1.584 13.474 1.602 18.514 4.764 6.245 3.614 10.626 9.824 9.923 18.13-.945 11.224-9.444 22.982-29.325 23.545-14.278.404-31.29-3.87-28.318-26.96H9.24C7.254 58.607 16.214 65.14 28.32 65.14c22.224 0 30.635-26.048 4.382-31.69-6.93-1.48-16.488-2.57-16.124-12.595.525-13.803 37.017-21.017 35.378 1.775l-.013.215h-9.866zM116.66 10.686l-1.59 7.532H87.226l-2.312 9.945h26.09l-1.41 7.13H83.266l-.294 1.334h26.385l-1.455 7.404H81.24l-1.89 10.42h28.117l-1.354 6.373H69.5l10.89-50.137h36.27zm-12.436 58.89h-46.89L71.798 1.748h46.753l-1.595 7.59H79.387L67.88 62.17h37.948l-1.604 7.408z"/></g></svg>