<?xml version="1.0" encoding="utf-8"?>
<!-- Generator: Adobe Illustrator 18.0.0, SVG Export Plug-In . SVG Version: 6.00 Build 0)  -->
<!DOCTYPE svg PUBLIC "-//W3C//DTD SVG 1.1//EN" "http://www.w3.org/Graphics/SVG/1.1/DTD/svg11.dtd">
<svg version="1.1" id="Layer_1" xmlns="http://www.w3.org/2000/svg" xmlns:xlink="http://www.w3.org/1999/xlink" x="0px" y="0px"
	 viewBox="0 0 1433.5 311.9" enable-background="new 0 0 1433.5 311.9" xml:space="preserve">
<g>
	<path fill-rule="evenodd" clip-rule="evenodd" fill="#3F434B" d="M1430.2,81.7l-71.7,97.8v60.1c0,9.4-7.6,17-17,17
		c-9.4,0-17-7.6-17-17v-60.1l-71.7-97.8c-5.6-7.6-3.9-18.2,3.7-23.8c7.6-5.6,18.2-3.9,23.8,3.7l61.3,83.6l61.3-83.6
		c5.6-7.6,16.2-9.2,23.8-3.7C1434.1,63.5,1435.7,74.1,1430.2,81.7z M1132.5,222.7c15.5,0,29.7-5.3,41-14c3.3-2.7,7.3-5,12.1-5
		c9.4,0,17,7.6,17,17c0,5.5-2.6,10.3-6.6,13.4l0,0c-17.4,14.1-39.4,22.5-63.5,22.5c-55.8,0-101-45.2-101-101
		c0-55.8,45.2-101,101-101c24.1,0,46.1,8.5,63.5,22.5l0,0c4,3.1,6.6,8,6.6,13.4c0,9.4-7.6,17-17,17c-4.7,0-8.7-2.3-12.1-5
		c-11.3-8.8-25.6-14-41-14c-37,0-67.1,30-67.1,67.1C1065.4,192.7,1095.4,222.7,1132.5,222.7z M962,256.6c-6.6,0-12.5-3.3-16-8.4
		l-97.5-130.5v121.8c0,9.4-7.6,17-17,17c-9.4,0-17-7.6-17-17V74.3h0c0-0.1,0-0.1,0-0.2c0-10.8,8.7-19.5,19.5-19.5
		c6.6,0,12.5,3.3,16,8.4l97.5,130.5V71.6c0-9.4,7.6-17,17-17c9.4,0,17,7.6,17,17v165.5h0c0,0,0,0,0,0
		C981.5,247.9,972.7,256.6,962,256.6z M730.9,246.4l-14.1-32.8h-96.7L606,246.4c-3.7,8.6-13.7,12.6-22.3,8.9
		c-8.6-3.7-12.6-13.7-8.9-22.3l69.9-162.3c3.8-9.4,13.1-16,23.8-16C679,54.7,688,61,692,70.1l0,0L762.1,233
		c3.7,8.6-0.3,18.6-8.9,22.3C744.6,259.1,734.6,255.1,730.9,246.4z M668.5,101.4l-34.1,79.3h68.2L668.5,101.4z M529.5,88.6h-91v58
		h83c9.4,0,17,7.6,17,17c0,9.4-7.6,17-17,17h-83v59c0,9.4-7.6,17-17,17c-9.4,0-17-7.6-17-17v-168c0-9.4,7.6-17,17-17h108
		c9.4,0,17,7.6,17,17C546.5,81,538.9,88.6,529.5,88.6z"/>
	<g>
		<path fill-rule="evenodd" clip-rule="evenodd" fill="#4CA4DB" d="M34.9,0H277c19.3,0,34.9,15.6,34.9,34.9V277
			c0,19.3-15.6,34.9-34.9,34.9H34.9C15.6,311.9,0,296.3,0,277V34.9C0,15.6,15.6,0,34.9,0z"/>
		<path fill="#FFFFFF" d="M206.9,200.9H172v41.2c0,8.9-7.2,16.1-16.1,16.1c-8.9,0-16.1-7.2-16.1-16.1v-41.2H105
			c-6.2,0-11.2-5-11.2-11.2v-72.6c0-0.2,0-0.5,0-0.7c0.7-33.7,28.2-60.7,62.1-60.7c33.8,0,61.3,27.1,62.1,60.7c0,0.2,0,0.5,0,0.7
			v72.6C218.1,195.9,213.1,200.9,206.9,200.9z"/>
	</g>
</g>
</svg>
