<svg id="telmex" xmlns="http://www.w3.org/2000/svg" width="154" height="42" viewBox="0 0 154 42">
  <defs>
    <style>
      .cls-1 {
        fill: #221f1f;
      }

      .cls-1, .cls-2 {
        fill-rule: evenodd;
      }

      .cls-2 {
        fill: #039adc;
      }
    </style>
  </defs>
  <path id="telmex-2" data-name="telmex" class="cls-1" d="M141.989,14.622l-5.024,5.619,5.533,6.414h-4.464l-3.26-3.962-3.54,3.962h-3.955l5.6-6.265-4.747-5.769h3.986l2.9,3.368,3.013-3.368h3.955Zm-24.52,4.3h7.54v2.436l-7.54-.027V24.25h8.877v2.406H114.254V14.623h12.092v2.406h-8.877v1.9Zm-46.815,0h7.539v2.436l-7.539-.027V24.25H79.53v2.406H67.439V14.623H79.53v2.406H70.654v1.9Zm24.618-4.3h5.634l2.7,6.908,2.787-6.908h5.69V26.656h-3.271v-9.6l-4.067,9.6h-2.334l-3.927-9.627v9.627H95.272V14.622Zm-42.166,0H65.852v2.406H61.07v9.627H57.857V17.029H53.106V14.622Zm28.621,0H85V24.25h8.82v2.406H81.727V14.622Z"/>
  <path id="telmex-3" data-name="telmex" class="cls-2" d="M18.208,17.029h6.018V24.25h9.626V17.029h6.017l7.218,13.237H41.072l-3.438-6.3-8.594,6.3-8.6-6.3L17,30.265H10.989Zm28.879,0V11.013h-36.1v6.016H17l0.657-1.2h7.766v7.219H32.65V15.827h7.766l0.657,1.2h6.014Z"/>
</svg>
