<svg xmlns="http://www.w3.org/2000/svg" width="154" height="42" viewBox="0 0 154 42">
  <defs>
    <style>
      .cls-1 {
        fill: #fff;
        fill-rule: evenodd;
      }
    </style>
  </defs>
  <path id="telcel" class="cls-1" d="M42.462,30.23L43.173,30.9l0.585-.675h2.952l0.647-.936H42.844l-0.129-.136h-1.4l-0.083.136H27.782l-0.634.936H42.462ZM42.09,28.313H40.236l-0.485-.468H28.715l0.637-.945H38.8l0.036-.208h1.862L40.743,26.9h8.182l-0.646.945h-6.56a0.816,0.816,0,0,0,.372.468m-2.48-2.846H49.917l0.64-.94H39.594l0.149-.224H36.465l-0.149.224H30.981l-0.638.94h6.984l0.44,0.406h2.179l-0.337-.406h0Zm1.229-2.484H51.6l0.641-.941H41.49l-0.078-.2h-3.23l-0.123.2H32.67l-0.636.941h4.994s0.333,0.076.1,0.4h3.35l0.359-.4h0ZM42.6,20.594H53.2l0.645-.94H43.509l-0.062-.2H39.885l-0.134.2H34.265l-0.64.94h5.127a0.228,0.228,0,0,1,.08.369H42.44a0.746,0.746,0,0,1,.156-0.369M44.2,18.578H40.541c0.2-.324-0.285-0.377-0.285-0.377H35.195l0.633-.942h5.62l0.143-.216h3.685l0.159,0.216h9.973L54.76,18.2H44.422a1.062,1.062,0,0,0-.219.377m2.568-2.738h9.64L57.05,14.9H47.6l-0.238-.408H43.4l-0.3.408H37.483l-0.639.941h5s0.6,0,.327.388h4.454a1.376,1.376,0,0,1,.148-0.388m0.961-3.309H58.617l-0.643.94H48.687a0.659,0.659,0,0,0-.439.4h-4.4c0.223-.376-0.265-0.4-0.265-0.4H38.411l0.631-.94H47.18l0.341-.3,0.816-1.069h-0.2l0.731-.915H49.43l-0.679.915H48.587L47.7,12.263Zm17.237,0.046L62.411,16.3H60.322l-1.764,2.543h2.193L54.5,27.952a3.434,3.434,0,0,0-.486,1.762c0,1.034,1.339,1.191,1.339,1.191H60.11l1.5-2.639H59.254s-0.909-.1-0.484-0.823,5.9-8.6,5.9-8.6h2.758L68.939,16.3H66.413l2.537-3.725H64.969ZM79.8,30.905L91.894,12.577H87.849L75.764,30.905H79.8Zm33.974,0,12.089-18.329h-4.038L109.74,30.905h4.037ZM69.886,22.387H76.3a8.917,8.917,0,0,0,.933-2.175c0.218-.985-0.955-1.245-2.268-1.245s-3.312.133-5.075,3.42m8.065,2.565H68.227a5.23,5.23,0,0,0-1.1,2.175,0.887,0.887,0,0,0,1.031.825h7.479l-1.959,2.953H67.584s-4.626,0-4.626-2.639c0,0-.043-1.973,3.349-6.551s5.716-4.762,9.614-4.762,4.956,1.2,4.834,2.2c-0.131,1.137-.268,1.736-2.805,5.8m25.559-2.565h6.409a8.835,8.835,0,0,0,.933-2.175c0.218-.985-0.96-1.245-2.268-1.245s-3.315.133-5.074,3.42m8.062,2.565h-9.723a5.178,5.178,0,0,0-1.1,2.175,0.886,0.886,0,0,0,1.028.825h7.487L107.3,30.905H101.21s-4.629,0-4.629-2.639c0,0-.047-1.973,3.35-6.551s5.715-4.762,9.614-4.762,4.95,1.2,4.838,2.2c-0.136,1.137-.273,1.736-2.811,5.8M87.931,27.127a0.885,0.885,0,0,0,1.025.826h6.523l-1.96,2.952H88.394s-4.99.152-4.626-2.64c0,0-.051-1.973,3.343-6.55a11.814,11.814,0,0,1,9.7-4.762h4.381l-1.979,2.922H95.687a8.065,8.065,0,0,0-5.18,2.745c-2.294,2.485-2.479,3.673-2.576,4.507"/>
</svg>
