<svg id="video" xmlns="http://www.w3.org/2000/svg" width="154" height="42" viewBox="0 0 154 42">
  <defs>
    <style>
      .cls-1 {
        fill: #cd2328;
      }

      .cls-1, .cls-2 {
        fill-rule: evenodd;
      }

      .cls-2 {
        fill: #fff;
      }
    </style>
  </defs>
  <path id="_" data-name="#" class="cls-1" d="M73.127,20.153L80.7,12.579l-1.971-2.04-7.608,7.643ZM64.965,8.982h2.8v8.127h-2.8V8.982ZM74.51,23.3h8.334v2.836H74.51V23.3ZM66,29.8A3.493,3.493,0,1,1,69.5,26.309,3.467,3.467,0,0,1,66,29.8Zm6.571-3.493A6.554,6.554,0,1,0,66,32.914,6.573,6.573,0,0,0,72.573,26.309ZM24.641,16.452a8.179,8.179,0,0,0,0,16.358,8.038,8.038,0,0,0,7.781-5.983H29.137a5.263,5.263,0,0,1-4.5,2.87,5,5,0,0,1-5.015-5.084A4.961,4.961,0,0,1,29.1,22.47h3.285A8,8,0,0,0,24.641,16.452ZM45.91,26.758l0.588-.346v1.28a2.7,2.7,0,0,1-.865,2.282,3.339,3.339,0,0,1-1.971.623,1.438,1.438,0,0,1-1.556-1.591c0-.622.242-1.625,2.248-1.867Zm-1.349-7.124c-4.738,0-5.187,2.767-5.36,4.427h3.147a1.848,1.848,0,0,1,2.11-1.764c2.006,0,2.11.864,2.11,1.349a1.077,1.077,0,0,1-.8.968c-3.078.484-4.081,0.622-5.084,1.21a3.6,3.6,0,0,0-1.729,3.424A3.374,3.374,0,0,0,42.59,32.81,6.044,6.044,0,0,0,46.636,31.5V32.81h3.147V23.576c0-2.594-1.764-3.942-5.222-3.942M33.979,16.452h3.147V32.845H33.979V16.452ZM54.9,21.882V20.291l-2.974-.035V32.845H55.04V26.827a4.88,4.88,0,0,1,.38-2.213,3.336,3.336,0,0,1,2.8-1.764l0.968,0.069s-0.035-2.974-.035-3.216A5.2,5.2,0,0,0,54.9,21.882Z"/>
  <path id="_2" data-name="#" class="cls-2" d="M91.421,32.845H88.966L84.3,20.291h3.285l2.559,7.781,2.525-7.781h3.285ZM98.476,18.7a2.03,2.03,0,0,1-2.006-2.006,1.978,1.978,0,0,1,2.006-1.971,1.948,1.948,0,0,1,1.971,1.971A1.978,1.978,0,0,1,98.476,18.7ZM96.885,32.845V20.291h3.147V32.845H96.885ZM109.439,21.4V15.692h3.147V32.845h-3.078V31.669a3.75,3.75,0,0,1-3.112,1.349c-2.317,0-4.635-1.072-4.358-6.432,0.069-1.349-.1-3.977,1.28-5.291C104.909,19.772,108.09,19.738,109.439,21.4ZM107.3,22.954c-1.868,0-2.11,1.556-2.11,3.6s0.242,3.6,2.11,3.6,2.144-1.556,2.144-3.6S109.162,22.954,107.3,22.954ZM117.6,27.519a2.6,2.6,0,0,0,2.732,2.8,3.441,3.441,0,0,0,2.835-1.176l1.9,1.867a6.021,6.021,0,0,1-4.773,2.006c-2.974,0-5.81-1.349-5.81-6.432,0-4.115,2.213-6.4,5.464-6.4,3.493,0,5.464,2.559,5.464,5.983v1.383H117.6V27.519Zm0-2.144h4.772c-0.035-.553-0.242-2.628-2.386-2.628A2.364,2.364,0,0,0,117.6,25.375Zm14.559,7.643c-2.11,0-5.326-.8-5.326-6.432,0-4.565,1.971-6.4,5.326-6.4,4.773,0,5.326,4.046,5.326,6.4C137.486,30.424,136.1,33.018,132.16,33.018Zm0-10.064c-2.11,0-2.179,2.317-2.179,3.6,0,3.7,1.557,3.6,2.179,3.6s2.213,0.069,2.213-3.6C134.373,25.271,134.373,22.954,132.16,22.954Z"/>
</svg>
