<svg xmlns="http://www.w3.org/2000/svg" width="154" height="42" viewBox="0 0 154 42">
  <defs>
    <style>
      .cls-1 {
        fill: #fefefe;
        fill-rule: evenodd;
      }
    </style>
  </defs>
  <path id="inbursa" class="cls-1" d="M20.251,11.8a8.7,8.7,0,0,0-8.725,8.725A8.33,8.33,0,0,0,14.074,26.7a8.233,8.233,0,0,0,6.177,2.626A8.23,8.23,0,0,0,26.427,26.7a8.328,8.328,0,0,0,2.548-6.176A8.7,8.7,0,0,0,20.251,11.8h0Zm0-1.544V0.3A20.42,20.42,0,0,0,10.29,2.923V18.056a9.779,9.779,0,0,1,3.552-5.482,9.917,9.917,0,0,1,6.408-2.316h0Zm-2.162,20.46a9.454,9.454,0,0,1-5.559-3.629,9.5,9.5,0,0,1-2.24-6.332H0.021a19.684,19.684,0,0,0,2.7,9.96H18.088Zm12.2-7.566a9.816,9.816,0,0,1-3.551,5.559,10.125,10.125,0,0,1-6.409,2.239v9.806a19.617,19.617,0,0,0,9.961-2.625V23.152h0Zm10.192-2.7a19.692,19.692,0,0,0-2.7-9.96H22.8a9.706,9.706,0,0,1,5.559,3.551A9.845,9.845,0,0,1,30.6,20.45H40.48Zm4.633-9.42V22.766h3.552V11.03H45.113Zm22.16,0H63.643v8.493h0L56.771,11.03H51.212V22.766h3.629V14.2h0l6.795,8.57h5.637V11.03h0Zm5.945,4.633V13.81h6.408a0.938,0.938,0,1,1,0,1.853H73.217Zm0,2.393H79.7a1.082,1.082,0,0,1,1.313,1c0,0.618-.463.849-1.313,0.849H73.217V18.056h0Zm9.343-1.235V16.744a2.094,2.094,0,0,0,1.235-.7,2.844,2.844,0,0,0,.54-2.008,2.84,2.84,0,0,0-1.081-2.393,6.039,6.039,0,0,0-3.243-.617H69.588V22.766H81.17a4.47,4.47,0,0,0,2.547-.54,3.245,3.245,0,0,0,1-2.548,3.343,3.343,0,0,0-.463-2.007,2.41,2.41,0,0,0-1.7-.849h0Zm19.07-5.791H98.078v6.794a2.621,2.621,0,0,1-.463,1.544,2.067,2.067,0,0,1-1.622.54H92.443a2.064,2.064,0,0,1-1.621-.54,2.176,2.176,0,0,1-.387-1.544V11.03H86.806V18.6a4.152,4.152,0,0,0,1.158,3.243,4.989,4.989,0,0,0,3.629,1.081h5.25a4.987,4.987,0,0,0,3.629-1.081A4.15,4.15,0,0,0,101.63,18.6V11.03h0Zm5.945,5.714V13.887h5.714c0.966,0,1.621.165,1.621,1.235v0.386a1.127,1.127,0,0,1-1.312,1.235h-6.023Zm0,3.011h5.714a1.6,1.6,0,0,1,1.158.309,1.931,1.931,0,0,1,.309,1.313v1.389h3.628V20.758a2.748,2.748,0,0,0-.539-1.93,2.955,2.955,0,0,0-1.39-.7,2.468,2.468,0,0,0,1.621-1,4.252,4.252,0,0,0,.386-1.93V14.5a3.858,3.858,0,0,0-.7-2.547,3.558,3.558,0,0,0-2.857-.927H103.947V22.766h3.628V19.755h0ZM128.5,15.432l-3.63-.155a0.652,0.652,0,0,1-.54-0.309,0.9,0.9,0,0,1-.154-0.541q0-.927,1.39-0.926h4.014a3.33,3.33,0,0,1,1.545.231,1.45,1.45,0,0,1,.232,1h3.628V14.35a3.244,3.244,0,0,0-.772-2.547c-0.618-.695-1.93-1-3.783-1h-5.1c-2.084,0-3.474.386-4.092,1.081a4.2,4.2,0,0,0-.7,2.7,5.705,5.705,0,0,0,.231,1.852,1.789,1.789,0,0,0,.773,1.081c0.771,0.464,2.393.695,5.095,0.695l4.324,0.155a0.693,0.693,0,0,1,.618.309l0.154,0.618a0.888,0.888,0,0,1-.463.85L130.2,20.3H125.72l-1.159-.232a1.365,1.365,0,0,1-.385-1.158h-3.629v0.849a2.854,2.854,0,0,0,1.081,2.548,7.43,7.43,0,0,0,3.552.618h4.4c2.394,0,4.015-.231,4.71-0.695a1.825,1.825,0,0,0,.927-1.081,6.566,6.566,0,0,0,.231-1.931,4.517,4.517,0,0,0-.309-2.007,1.874,1.874,0,0,0-1-1.159c-0.848-.463-2.7-0.617-5.635-0.617h0Zm18.994-4.4h-4.711l-6.408,11.736h4.092l1-2.084,1.39-2.549,2.316-4.4,2.317,4.4h-4.633l-1.39,2.549h7.413l1.08,2.084h4.015L147.494,11.03h0Z"/>
</svg>
