<svg id="music" xmlns="http://www.w3.org/2000/svg" width="154" height="42" viewBox="0 0 154 42">
  <defs>
    <style>
      .cls-1 {
        fill: #e71304;
      }

      .cls-1, .cls-2 {
        fill-rule: evenodd;
      }

      .cls-2 {
        fill: #000100;
      }
    </style>
  </defs>
  <path id="_" data-name="#" class="cls-1" d="M17.761,28.989a4.748,4.748,0,1,1,4.322-6.706h3.2a7.782,7.782,0,1,0-.024,4.011H22.037A4.745,4.745,0,0,1,17.761,28.989Zm39.11-9.475a6.112,6.112,0,1,0,6.112,6.112A6.112,6.112,0,0,0,56.871,19.513Zm0,9.413a3.3,3.3,0,1,1,3.3-3.3A3.3,3.3,0,0,1,56.871,28.927ZM38.533,30.751v1.178h3.009l-0.111-9.551s0.159-2.77-4.871-2.77-5.205,3.964-5.062,4.107h3.088s0.032-2.2,2.706-1.591a1.135,1.135,0,0,1,1.178,1.21c-0.064,1.209-1.974,1.209-3.12,1.209s-5.571,1.114-3.565,6.017c0,0,1.018,1.751,4.075,1.274a4.687,4.687,0,0,0,2.579-1.051C39.584,29.8,38.533,30.751,38.533,30.751Zm-2.642-.891c-2.229.159-2.069-2.913-.318-3.136a8.279,8.279,0,0,0,2.833-.844,8.559,8.559,0,0,1,.032,1.083A2.638,2.638,0,0,1,35.891,29.86ZM50.31,22.928a2.879,2.879,0,0,0-3.815,2.953V31.8H43.488V20.186h3.006v1.261s0.969-1.671,3.815-1.767v3.247ZM29.588,31.8H26.6V16.52h2.992V31.8ZM59.354,17.173H56.441V9.628h2.913v7.545Zm6.112,8.166V22.426h7.545v2.913H65.467Zm-1.6-5.2L61.9,18.174l7.245-7.245,1.965,1.964Z"/>
  <path id="_2" data-name="#" class="cls-2" d="M77.039,21.289h2.52v1.658H79.6a3.592,3.592,0,0,1,1.138-1.337,3.45,3.45,0,0,1,2.111-.586,3.227,3.227,0,0,1,3.316,1.967A3.749,3.749,0,0,1,87.605,21.5a4.2,4.2,0,0,1,2.056-.476,4.078,4.078,0,0,1,1.79.354,3.127,3.127,0,0,1,1.183.973,4,4,0,0,1,.652,1.448,7.619,7.619,0,0,1,.2,1.78V31.9H90.832V25.887a4.9,4.9,0,0,0-.088-0.939,2.252,2.252,0,0,0-.309-0.8,1.578,1.578,0,0,0-.6-0.542,2.077,2.077,0,0,0-.973-0.2,2.191,2.191,0,0,0-1.05.232,2.053,2.053,0,0,0-.707.619,2.538,2.538,0,0,0-.4.885,4.2,4.2,0,0,0-.122,1.006V31.9H83.935V25.578A2.666,2.666,0,0,0,83.515,24a1.6,1.6,0,0,0-1.393-.586,2.531,2.531,0,0,0-1.116.222,2.143,2.143,0,0,0-.752.6,2.366,2.366,0,0,0-.431.862,3.846,3.846,0,0,0-.133,1.016V31.9H77.039V21.289ZM106.063,31.9h-2.52V30.2H103.5a3.712,3.712,0,0,1-1.149,1.382,3.4,3.4,0,0,1-2.1.586,4.275,4.275,0,0,1-1.8-.343,3.239,3.239,0,0,1-1.2-.928,3.614,3.614,0,0,1-.663-1.337,6.113,6.113,0,0,1-.2-1.57v-6.7h2.653v5.372q0,0.442.044,0.983a3.531,3.531,0,0,0,.232,1.017,1.938,1.938,0,0,0,.575.8,1.666,1.666,0,0,0,1.094.321,2.534,2.534,0,0,0,1.117-.221,2.14,2.14,0,0,0,.751-0.6,2.365,2.365,0,0,0,.431-0.862,3.822,3.822,0,0,0,.133-1.017V21.289h2.653V31.9Zm-3.692-15.65h3.007l-3.118,3.183h-2.077Zm12.357,7.98a2.429,2.429,0,0,0-2.078-1.083,2.223,2.223,0,0,0-1.039.265,0.9,0.9,0,0,0-.509.862,0.746,0.746,0,0,0,.42.708,4.64,4.64,0,0,0,1.061.376q0.642,0.155,1.382.32a5.439,5.439,0,0,1,1.381.508,3.036,3.036,0,0,1,1.062.94,2.807,2.807,0,0,1,.42,1.636,2.957,2.957,0,0,1-.41,1.6,3.208,3.208,0,0,1-1.06,1.05,4.714,4.714,0,0,1-1.47.575,7.722,7.722,0,0,1-1.636.177,7.02,7.02,0,0,1-2.277-.354,4.318,4.318,0,0,1-1.857-1.282l1.769-1.658a4.941,4.941,0,0,0,1.094.939,2.644,2.644,0,0,0,1.426.365,2.874,2.874,0,0,0,.6-0.066,1.937,1.937,0,0,0,.575-0.222,1.359,1.359,0,0,0,.431-0.386,0.992,0.992,0,0,0-.254-1.36,3.744,3.744,0,0,0-1.061-.431q-0.642-.166-1.382-0.31a5.326,5.326,0,0,1-1.381-.464,2.891,2.891,0,0,1-1.061-.9,2.65,2.65,0,0,1-.42-1.591,3.088,3.088,0,0,1,.365-1.536,3.2,3.2,0,0,1,.961-1.072,4.14,4.14,0,0,1,1.37-.619,6.25,6.25,0,0,1,3.67.165,3.432,3.432,0,0,1,1.68,1.249Zm3.824-6.543a1.528,1.528,0,0,1,.475-1.116,1.631,1.631,0,0,1,1.2-.475,1.753,1.753,0,0,1,1.227.453,1.551,1.551,0,0,1,0,2.277,1.754,1.754,0,0,1-1.227.453,1.632,1.632,0,0,1-1.2-.476A1.527,1.527,0,0,1,118.552,17.686Zm0.375,3.6h2.653V31.9h-2.653V21.289Zm12.954,3.183a4.252,4.252,0,0,0-.973-0.774,2.087,2.087,0,0,0-1.038-.287,3.032,3.032,0,0,0-2.289.973,2.992,2.992,0,0,0-.618,1.017,3.482,3.482,0,0,0,0,2.387,2.986,2.986,0,0,0,.618,1.017,3.032,3.032,0,0,0,2.289.973,2.626,2.626,0,0,0,1.149-.255,2.5,2.5,0,0,0,.906-0.74l1.769,1.9a4.092,4.092,0,0,1-.918.685,6.183,6.183,0,0,1-1.05.464,6.483,6.483,0,0,1-1.017.255,5.48,5.48,0,0,1-.839.077,6.38,6.38,0,0,1-2.255-.4,5.275,5.275,0,0,1-3.062-2.885,6,6,0,0,1,0-4.576,5.272,5.272,0,0,1,3.062-2.884,6.367,6.367,0,0,1,2.255-.4,5.778,5.778,0,0,1,2.044.387,4.648,4.648,0,0,1,1.8,1.227Zm10.035,5.968h-0.065a3.427,3.427,0,0,1-1.459,1.315,4.581,4.581,0,0,1-1.946.409,5.179,5.179,0,0,1-1.426-.2,3.869,3.869,0,0,1-1.238-.6,3.042,3.042,0,0,1-.872-0.995,2.809,2.809,0,0,1-.332-1.392,3.214,3.214,0,0,1,.309-1.47,3.022,3.022,0,0,1,.829-1.017,4.2,4.2,0,0,1,1.2-.652,8.3,8.3,0,0,1,1.426-.365,12.655,12.655,0,0,1,1.492-.155q0.75-.033,1.414-0.033h0.663V25a1.724,1.724,0,0,0-.685-1.492,2.9,2.9,0,0,0-1.746-.5,4.1,4.1,0,0,0-1.569.3,3.974,3.974,0,0,0-1.261.807l-1.392-1.393a5.142,5.142,0,0,1,2.067-1.3,7.609,7.609,0,0,1,2.443-.4,6.141,6.141,0,0,1,1.9.255,4.185,4.185,0,0,1,1.283.652,2.894,2.894,0,0,1,.784.918,4.226,4.226,0,0,1,.4,1.05,5.78,5.78,0,0,1,.144,1.028c0.014,0.331.022,0.622,0.022,0.873v6.1h-2.388V30.44Zm-0.154-3.294h-0.553q-0.552,0-1.238.044a6.5,6.5,0,0,0-1.293.21,2.974,2.974,0,0,0-1.028.486,1.065,1.065,0,0,0-.42.9,1.133,1.133,0,0,0,.166.63,1.5,1.5,0,0,0,.432.431,1.789,1.789,0,0,0,.6.254,2.913,2.913,0,0,0,.663.077,2.758,2.758,0,0,0,2.023-.652,2.406,2.406,0,0,0,.652-1.779v-0.6Z"/>
</svg>
