<svg xmlns="http://www.w3.org/2000/svg" width="56" height="38" viewBox="0 0 56 38">
  <defs>
    <style>
      .cls-1 {
        fill: #26303c;
        fill-rule: evenodd;
      }
    </style>
  </defs>
  <path id="_" data-name="#" class="cls-1" d="M48.438,11.154a0.72,0.72,0,0,0-.542-0.246H42.388a0.377,0.377,0,0,1-.376-0.376V5.746a0.721,0.721,0,0,0-.721-0.721H18.726a0.721,0.721,0,0,0-.721.721V7.6a0.377,0.377,0,0,1-.377.377H6.734a0.721,0.721,0,0,0,0,1.441h10.9a0.377,0.377,0,0,1,.377.376V23.642a0.377,0.377,0,0,1-.377.377H10.715a0.721,0.721,0,0,0,0,1.441h6.914a0.377,0.377,0,0,1,.377.376v1.4a0.721,0.721,0,0,0,.721.721H21.11a0.378,0.378,0,0,1,.363.277,3.773,3.773,0,0,0,7.278,0,0.378,0.378,0,0,1,.363-0.277H43.752a0.378,0.378,0,0,1,.363.277,3.773,3.773,0,0,0,7.278,0,0.378,0.378,0,0,1,.363-0.277h2.528A0.721,0.721,0,0,0,55,27.233V18.922a0.721,0.721,0,0,0-.179-0.475ZM25.112,29.565a2.332,2.332,0,1,1,2.332-2.332A2.335,2.335,0,0,1,25.112,29.565Zm15.459-3.43a0.377,0.377,0,0,1-.376.377H29.113a0.378,0.378,0,0,1-.363-0.277,3.773,3.773,0,0,0-7.278,0,0.377,0.377,0,0,1-.363.277H19.823a0.377,0.377,0,0,1-.377-0.377V6.843a0.377,0.377,0,0,1,.377-0.376H40.194a0.377,0.377,0,0,1,.376.376V26.136Zm7.184,3.43a2.332,2.332,0,1,1,2.332-2.332A2.335,2.335,0,0,1,47.754,29.565Zm5.809-3.43a0.377,0.377,0,0,1-.376.377H51.756a0.377,0.377,0,0,1-.363-0.277,3.773,3.773,0,0,0-7.278,0,0.377,0.377,0,0,1-.363.277H42.388a0.377,0.377,0,0,1-.376-0.377V12.726a0.377,0.377,0,0,1,.376-0.377H47.4a0.377,0.377,0,0,1,.283.129l5.789,6.609a0.377,0.377,0,0,1,.093.248v6.8ZM7.288,24.019H6.7a0.721,0.721,0,0,0,0,1.441H7.288A0.721,0.721,0,1,0,7.288,24.019Zm-5.6-6.6h11.57a0.721,0.721,0,1,0,0-1.441H1.685A0.721,0.721,0,0,0,1.685,17.423Z"/>
</svg>
