<svg xmlns="http://www.w3.org/2000/svg" width="56" height="38" viewBox="0 0 56 38">
  <defs>
    <style>
      .cls-1 {
        fill: #26303c;
        fill-rule: evenodd;
      }
    </style>
  </defs>
  <path id="_" data-name="#" class="cls-1" d="M35.291,36.994H19.709a2.725,2.725,0,0,1-2.724-2.717V2.691A2.725,2.725,0,0,1,19.709-.026H35.291a2.723,2.723,0,0,1,2.724,2.717V34.278A2.725,2.725,0,0,1,35.291,36.994Zm1.486-34.3A1.487,1.487,0,0,0,35.291,1.21H19.709A1.491,1.491,0,0,0,18.22,2.691V4.021H36.777V2.691Zm0,18.568V5.252H18.224v22.73H36.781V21.259Zm0,7.955H18.224v5.064a1.486,1.486,0,0,0,1.485,1.481H35.291a1.487,1.487,0,0,0,1.489-1.481V29.214ZM27.47,34.025a1.485,1.485,0,1,1,1.487-1.486A1.49,1.49,0,0,1,27.47,34.025Zm0-2.226a0.742,0.742,0,1,0,.742.741A0.744,0.744,0,0,0,27.47,31.8ZM25.025,1.979H27.5a0.6,0.6,0,0,1,.616.572,0.594,0.594,0,0,1-.616.571H25.025a0.594,0.594,0,0,1-.616-0.571A0.6,0.6,0,0,1,25.025,1.979Zm4.332,0h0.619a0.6,0.6,0,0,1,.619.572,0.6,0.6,0,0,1-.619.571H29.356a0.6,0.6,0,0,1-.619-0.571A0.6,0.6,0,0,1,29.356,1.979Z"/>
</svg>
