<svg xmlns="http://www.w3.org/2000/svg" width="56" height="38" viewBox="0 0 56 38">
  <defs>
    <style>
      .cls-1 {
        fill: #26303c;
        fill-rule: evenodd;
      }
    </style>
  </defs>
  <path id="_" data-name="#" class="cls-1" d="M45.731,8.326v6.358H40.438l-1.106-2.022H31.718v6.855H24.2V12.631H16.827l-1,2.029H10.342V8.326H45.731m-7.379,5.6,7.4,13.736H39.806l-3.4-6.588L27.993,27.7l-8.415-6.6-3.4,6.59H10.227l7.495-13.767h5.285v7.09h10v-7.09h5.344M47,7.005H9.011v8.986h6.17l-6.026,11.3L8.2,29.047h8.715l0.34-.656,2.728-5.22,7.262,5.651L27.995,29.4l0.747-.584L36,23.146l2.727,5.274,0.34,0.627h8.712l-0.949-1.756-5.99-11.276H47V7.005h0Z"/>
</svg>
