<svg xmlns="http://www.w3.org/2000/svg" width="56" height="38" viewBox="0 0 56 38">
  <defs>
    <style>
      .cls-1 {
        fill: #26303c;
        fill-rule: evenodd;
      }
    </style>
  </defs>
  <path id="_" data-name="#" class="cls-1" d="M38,14.085V11.015c0-5-4.484-9.059-10-9.059s-10,4.064-10,9.059v3.069A4.895,4.895,0,0,0,14,18.693v12.66a4.608,4.608,0,0,0,4.6,4.6H37.411a4.608,4.608,0,0,0,4.6-4.6V18.693A4.895,4.895,0,0,0,38,14.085ZM19.26,11.015c0-4.307,3.924-7.81,8.747-7.81s8.747,3.5,8.747,7.81v3H19.26v-3ZM40.74,31.353a3.333,3.333,0,0,1-3.329,3.329H18.6a3.333,3.333,0,0,1-3.329-3.329V18.693a3.6,3.6,0,0,1,3.5-3.429H37.235a3.6,3.6,0,0,1,3.5,3.429v12.66ZM27.992,21.009a2.007,2.007,0,0,0-2,2.005v3.008a2.005,2.005,0,0,0,4.01,0V23.015A2.007,2.007,0,0,0,27.992,21.009Zm0.9,4.851a0.895,0.895,0,0,1-1.79,0V23.176a0.895,0.895,0,0,1,1.79,0V25.86Z"/>
</svg>
