<svg xmlns="http://www.w3.org/2000/svg" xmlns:xlink="http://www.w3.org/1999/xlink" width="250" height="178" viewBox="0 0 250 178">
  <defs>
    <style>
      .cls-1 {
        fill: #cd2328;
        fill-rule: evenodd;
        filter: url(#filter);
      }
    </style>
    <filter id="filter" x="34.813" y="0" width="210.063" height="179" filterUnits="userSpaceOnUse">
      <feOffset result="offset" dy="1" in="SourceAlpha"/>
      <feGaussianBlur result="blur"/>
      <feFlood result="flood" flood-opacity="0.05"/>
      <feComposite result="composite" operator="in" in2="blur"/>
      <feBlend result="blend" in="SourceGraphic"/>
    </filter>
  </defs>
  <path id="Map" class="cls-1" d="M180.2,13.246c0.329,0.238,0,.426.612,0.472a22.572,22.572,0,0,1,2.679.141c-0.375.094-.894,0.987-1.456,1.176-0.835.279-.425-0.662-0.755-0.564s-0.375.426-.751,0.279a1.991,1.991,0,0,1-.707-0.562,1.39,1.39,0,0,0-.656-0.379,0.937,0.937,0,0,1-.8-0.52c-0.189-.424,0-1.361.283-0.986a3.319,3.319,0,0,0,1.081,1.084C180.011,13.433,179.871,13.013,180.2,13.246Zm-1.74-9.081a5.281,5.281,0,0,1,3.669.609c1.409,0.895,2.537.99,1.835,1.457-0.393.264-2.684-.373-3.576-0.753S178.132,4.305,178.462,4.165Zm-29.681,80.2c0.611,0.094,2.2.658,2.352,1.276,0.094,0.371-.472.471-0.8,0.232s-0.517,0-1.317.139-1.177-.322-2.258-0.988S148.168,84.267,148.781,84.361Zm-1.93-14.684c0.187-.281.047-1.269,0.375-0.847s0.989,1.506.238,1.552C146.824,70.425,146.664,69.958,146.851,69.677Zm3.2,7.579a9.27,9.27,0,0,0,2.539,1.033,2.76,2.76,0,0,0,1.6.988,1.727,1.727,0,0,1,1.6,1.32c0,0.8-1.413.143-1.788,0.282a1.335,1.335,0,0,1-1.036.187,2.957,2.957,0,0,0-1.081-.142c-0.375,0-2.916.24-3.34,0.24s-0.613-.285.047-0.617,1.364-.517.941-0.8a12.565,12.565,0,0,0-1.694-.468c-0.892-.326-0.988-0.283-1.364-0.988s0.048-1.082-.658-1.082-1.741.281-2.305-.138a3.832,3.832,0,0,0-2.071-1.131c-0.988-.1-2.963.049-2.635-0.328s1.13-.523.613-0.711a6.241,6.241,0,0,0-2.776-.088,12.6,12.6,0,0,1-3.29,1.363c-0.754,0-1.226.232-.8-0.237a5.154,5.154,0,0,1,2.069-1.6,10.008,10.008,0,0,1,3.669-.752c1.55,0.094,4.279.047,5.032,0.519a10.727,10.727,0,0,0,2.963,1.176c0.051-.144.19-0.426,0.613,0.045a4.371,4.371,0,0,0,1.835,1.27C150.05,77.256,149.111,76.5,150.05,77.256ZM165.9,99.99c-0.726.335-.941,0.47-1.034-0.1s-0.236-.849.093-0.849S166.515,99.7,165.9,99.99Zm-8.42-21.751c-0.049-.369.98-0.136,0.941,0.238C158.376,78.9,157.529,78.62,157.484,78.238Zm4.185,2.689c-0.235-.188.187-0.143,0.987-0.094a5.18,5.18,0,0,1,2.589.894c0.8,0.563,1.6,1.508,2.447,1.644s1.928,0.565,1.315,1.039-0.425.849-1.034,0.468-0.894,0-1.554-.045-1.081-.237-1.507-0.237-1.924-.144-2.065.475-0.331,1.265-.708,1.033c-0.322-.2-0.3-0.885-0.583-0.99a0.278,0.278,0,0,0-.17,0c-1.134.338-4.093-.281-4.421-0.043a1.25,1.25,0,0,1-1.034-.287s-0.424-.564.281-0.564,1.081-.33,1.6-0.33,0.613,0.469.375,0.52a1.784,1.784,0,0,0,1.128.187,0.76,0.76,0,0,0,.757-0.707c-0.1-.239-0.708-0.85-0.849-1.176a1.251,1.251,0,0,0-.611-0.943c-0.472-.187-0.659-0.471-0.566-0.658a1.208,1.208,0,0,1,1.554-.281,6.021,6.021,0,0,0,1.76.691,0.822,0.822,0,0,0,.4-0.033C162.186,81.3,161.9,81.115,161.669,80.928Zm11.761,3.527c1.222,0.045,1.046.351,2.209,0.851,0.66,0.281-1.928.33-3.2,0.33S172.2,84.412,173.43,84.455ZM188.244,14.47c0.613,0.188.285,0.564,0,.752s-0.328.752-.8,0.707a0.646,0.646,0,0,1-.609-0.894A1.356,1.356,0,0,1,188.244,14.47Zm-3.34,1.271c0-.425-0.283-0.707.141-1.084s1.13-1.787,1.505-1.834,1.083-.1.847,0.234a6.025,6.025,0,0,0-.281,1.082c-0.188.42-1.222,1.13-1.269,1.363C185.707,16.2,184.9,16.165,184.9,15.741Zm0.381,86.363c0.422,0.049.845,1.6,0.281,1.834a1.065,1.065,0,0,1-1.458-.281c-0.353-.642.8-0.233,0.8-0.658S184.861,102.056,185.285,102.1Zm57.073,46.8a3.869,3.869,0,0,1-1.616,1.487,4.532,4.532,0,0,0-1.866,2.272,22.481,22.481,0,0,1-1.413,2.5c-0.453.682-.55,0.38-0.781,0.281a0.691,0.691,0,0,1-.4-0.152c-0.1-.155-0.175.2-0.052,0.5s-0.455-.3-0.756-0.406-0.051.184,0.3,0.51-0.074.351-.277,0.726a14.345,14.345,0,0,0-.125,2.852c-0.051,1.091.429,3.032,0.027,3.917a7.482,7.482,0,0,0-.3,3,1.02,1.02,0,0,1-.758,1.113,2.669,2.669,0,0,0-.683,1.663,9.759,9.759,0,0,1-.072,2.2,4.88,4.88,0,0,1-.556.785,8.215,8.215,0,0,1-1.16,1.738,2.494,2.494,0,0,0-1.108,1.82,1.59,1.59,0,0,1-.734,1.412,10.36,10.36,0,0,0-1.049.88H164.812a30.027,30.027,0,0,0,.186-3.657,25.937,25.937,0,0,0-.251-3.81,20.4,20.4,0,0,0-.147-2.242,0.061,0.061,0,0,0-.007-0.025,6.739,6.739,0,0,0-1.562-1.063,1.286,1.286,0,0,1-.734-0.859c-0.023-.352-3.025-1.818-3.782-2.422s-4.563-2.3-4.843-2.574a9.6,9.6,0,0,1-.63-0.91c-0.178-.2-2.12-2.345-2.043-2.673s0.15,0.076.3-.1a2.021,2.021,0,0,0-.453-1.534c-0.406-.61-3.458-5.635-3.884-6.765a43.142,43.142,0,0,0-1.916-4.217,19.009,19.009,0,0,1-1.817-2.8c-0.783-1.517-2.75-1.843-2.85-2.273s0.328-.381.654-0.629-0.5-1.363-.859-2.2,0.656-1.615.96-1.992a5.756,5.756,0,0,1,1.162-1.037,0.724,0.724,0,0,1,.189-0.093c0.259-.081.381,0.078,0.566-0.336a10.632,10.632,0,0,0,.429-1.26c0.151-.455,0-0.432-0.2-0.455s-0.3-.129-0.175-0.455,0.05-.252-0.127,0a2.951,2.951,0,0,1-.959,1.037,2.354,2.354,0,0,1-.983-0.91,1.363,1.363,0,0,1,.176-1.289c0.152-.375-0.227-0.934-0.075-1.234a4.8,4.8,0,0,1,.684-1.037,1.022,1.022,0,0,0-.028-0.855c-0.127-.278.781-0.733,0.984-0.985a3.457,3.457,0,0,0,.2-1.437c0-.307.58-0.2,0.909-0.455a3.291,3.291,0,0,1,1.31-.33c0.269-.049.226-0.475,0.172-0.836a2.252,2.252,0,0,1-.043-0.424,1.271,1.271,0,0,1,.527-0.509,5.991,5.991,0,0,1,.378-1.082c0.353-.481.758-0.2,1.339-0.426s1.589-2.222,1.79-2.6-0.681-.758-0.529-1.315a27.4,27.4,0,0,0,.226-3.128c0.026-.449-0.025-1.037,0-1.689a3.046,3.046,0,0,0-1.235-1.869,4.916,4.916,0,0,1-1.235-1.971c0-.326.226-0.351,0.226-0.628s-0.457-.305-0.5-0.656-0.253-.1-0.531-0.253a2.3,2.3,0,0,0-.833-0.656,1.283,1.283,0,0,0-1.058.354c-0.454.358-.884,0.906-1.134,1.133a3.609,3.609,0,0,0-.784.681c-0.148.278,0.457,0.662,0.808,1.062s-0.2.381-.478,0.5a1.6,1.6,0,0,1-1.138.3c-0.629-.074-0.5-0.832-0.629-1.156s-0.4.1-.4,0.275a2.094,2.094,0,0,1-.907-0.755,6.177,6.177,0,0,0-2.171-.707,2.51,2.51,0,0,0-.538-0.075,2.389,2.389,0,0,1-1.226-.2,7.22,7.22,0,0,1-.656-1.468,2,2,0,0,0-1.286-.834c-0.328,0-.431-0.026-0.681-0.555a2.288,2.288,0,0,0-.96-0.879c-0.223-.183-0.629-0.435-0.527-0.257a5.283,5.283,0,0,1,.921.762,0.618,0.618,0,0,1-.9.351,1.881,1.881,0,0,0-.732-0.53c-0.455-.048-0.377-0.277-0.455-0.607a3.863,3.863,0,0,1,.531-1.058c0.051-.3.582-0.485,0.305-0.76a2.768,2.768,0,0,0-.305-0.238A24.5,24.5,0,0,1,128.5,99.9c-0.808-.731-1.815-2.17-2.141-2.4a0.222,0.222,0,0,1-.067-0.078,1.055,1.055,0,0,1,.469-0.955c0.207-.168-0.594-0.133-1.121.065a1.051,1.051,0,0,0-.142.061,3.012,3.012,0,0,1-2.016-.125,27.12,27.12,0,0,1-2.664-1.017,2.677,2.677,0,0,1-.238-0.123,8.584,8.584,0,0,0-2.573-.429,4.858,4.858,0,0,1-1.815-1.186,4.275,4.275,0,0,1-.363-0.3,14.254,14.254,0,0,1-1.655-1.812,12.728,12.728,0,0,0-2.018-1.34,3.452,3.452,0,0,0-2.422-.5,3.934,3.934,0,0,0-1.841.83,3.572,3.572,0,0,1-2.648.078c-0.555-.33-1.942-0.557-3.076-1.037s-2.424-.959-3.736-1.511a36.85,36.85,0,0,1-3.985-2.273,22.35,22.35,0,0,0-2.42-.5,4.314,4.314,0,0,1-1.917-1.492,3.541,3.541,0,0,0-1.79-.9,10.4,10.4,0,0,1-2.2-2.426c-0.2-.426.455-0.959,0.58-1.236s-0.5-.1-0.3-0.529,0.683-1.062.478-1.492A0.864,0.864,0,0,0,86,76.832c-0.4-.076.226-0.406,0.3-0.885a3.074,3.074,0,0,0-1.034-1.72c-0.527-.627-2.12-2.115-2.573-2.673a13.768,13.768,0,0,0-1.487-1.41,1.854,1.854,0,0,1-.63-0.758,1.654,1.654,0,0,0-.908-0.936,2.8,2.8,0,0,1-.784-0.607A2.775,2.775,0,0,1,77.6,66.761c-0.226-.558.175-0.707,0.226-1.234s-0.58-.381-0.882-0.406a1.6,1.6,0,0,1-.6-0.988c-0.176-.352-0.882-0.474-1.339-1s0.025-.914-0.5-1.115a4.708,4.708,0,0,1-1.565-1.082,13.251,13.251,0,0,1-1.487-1.715c-0.554-.66-0.252.352-0.73,0.578s0.051-.578.176-0.855,0.028-.607-0.632-2-0.628-2.828-.88-3.1-0.935-.154-1.212-0.531a0.836,0.836,0,0,0-1.058-.076c-0.33.127-.429-0.328-1.062-0.658s-0.73.055-.679,0.457,0.58,3,.679,3.582,0.582,0.834,1.288,1.39a4.214,4.214,0,0,1,1.034,1.587c0.226,0.328.707,0.481,1.083,0.934s0.605,1.869.912,2.17,1.815,1.922,2.194,2.271a2.773,2.773,0,0,1,.73,1.568,7.84,7.84,0,0,0,1.161,2.347,0.718,0.718,0,0,1,.4.352,1.2,1.2,0,0,0-.279,1.134c0.279,0.736,1.06.455,1.637,0.607s0.43,0.377.508,0.806a1.812,1.812,0,0,0,.681.859c0.3,0.356-.256.984-0.506,1.266s-0.429.123-.908-0.486a28.394,28.394,0,0,0-2.145-2.142c-0.554-.529-2.018-1.389-2.4-1.742s-0.024-.527.254-0.963a1.571,1.571,0,0,0-.025-1.384A15.2,15.2,0,0,0,69.4,65.1a2.135,2.135,0,0,0-1.413-.453,5.917,5.917,0,0,1-2.522-1.894c-0.353-.556.907-0.459,1.362-0.152s0.582,0.533.453-.025a8.643,8.643,0,0,0-.4-2.142A16.344,16.344,0,0,0,64.054,58c-0.554-.457-0.277-0.66-0.808-1.664a40.693,40.693,0,0,0-2.12-3.962,5.919,5.919,0,0,1-.779-1.557,4.306,4.306,0,0,1-.256-1.049c-0.023-.578-1.741-2.119-2.37-2.523s-0.984-.07-1.589-0.4a22.469,22.469,0,0,0-3.078-1.185c-0.732-.2-0.353-0.582-0.656-1.289S49.978,41.7,49.751,41.3s0.2-.883.2-1.238S49.549,39.732,49.1,39.4a3.131,3.131,0,0,1-.781-1.564c-0.051-.25.453,0.105,0.656,0.053s-0.406-.783-0.581-1.086-0.379.3-.6,0.355-0.2-.607-0.632-1.263a6.628,6.628,0,0,0-1.233-1.16,4.466,4.466,0,0,1-.656-2.375c-0.1-.731-0.884-1.309-1.009-1.74s0.5-1.49.529-2.119A4.848,4.848,0,0,0,44.3,26a3.862,3.862,0,0,1-.4-2.045c-0.076-.781.554-1.39,0.781-2.295a26.552,26.552,0,0,0,.506-3.486c0-.4-0.1-1.716-0.15-2.5a1.26,1.26,0,0,1,1.286-1.287c0.681-.053-0.806-0.174-1.362-0.557s0.3-1.111-.4-1.992a6.672,6.672,0,0,1-1.23-3.263c0.078-.519,1.07.156,1.774,0.443s2.114,0.08,2.609.342-0.336,1.176-.755,1.7,0.861,0.392,1.384.236,0.234-1.621.234-2.218a17.808,17.808,0,0,0-.365-1.752,1.265,1.265,0,0,0-.464-0.617,2.163,2.163,0,0,1-.5-0.637,9.486,9.486,0,0,0-.418-1.044c-0.209-.42-0.131-0.289-0.207,0a1.134,1.134,0,0,1-1.124.182c-0.445-.053-0.73-0.182-0.624-0.311s0.572-.025.494-0.367A4.453,4.453,0,0,1,45.1,3.358c0-.494-0.232-0.154-0.26.732s-1.2.076-1.411-.367a1.047,1.047,0,0,1,.107-1.2c0.285-.316.129-0.262-0.16-0.055s-0.861.186-.7-0.08a3.015,3.015,0,0,0,.211-1.279c0-.444-0.287-0.024-0.314.68a0.854,0.854,0,0,1-1.253.551c-0.262-.184-0.73-0.262-0.547-0.475A2.491,2.491,0,0,0,41.421.981c0-.236-0.156-0.494-0.211-0.129a1.123,1.123,0,0,1-1.173.836c-0.521-.158-0.314-0.627-0.861-0.627A3.585,3.585,0,0,1,37.346.878C36.675,0.563,36.607.11,37.128,0h68.2a1.168,1.168,0,0,0-.088.991c0.345,0.8.687,1.607,0.976,0.978A3.5,3.5,0,0,0,106.689,0h34.375a2.859,2.859,0,0,1-.32.3c-0.325.254,0.122-.032,0.611-0.3h1.49a12.045,12.045,0,0,1,1.57,1.358c0.379,0.418-.453-0.717-0.529-1.172a1.175,1.175,0,0,1,0-.187H191.4a18.716,18.716,0,0,1-1.581,1.753,4.363,4.363,0,0,1-2.219.879c-0.732.152-1.944,0.355-2.6,0.51s-0.859-.307-1.741-0.332-8.525-.148-8.9-0.025a4.764,4.764,0,0,0-1.436.48,5.022,5.022,0,0,0-1.136,2c-0.2.555-1.589,0.375-2.143,0.529a6.312,6.312,0,0,0-1.819,1.539c-0.379.4-1.109,1.539-1.638,1.515s-2.521-.812-2.27-0.584a18.79,18.79,0,0,0,1.917.681c0.607,0.277.125,0.381,0,.834a14.116,14.116,0,0,1-2.623,2.6c-0.379.254-.5,0.455,0.2,0.176s1.11-.176,1.438-0.729a23.311,23.311,0,0,1,2.7-2.88c0.305-.2,2.019-1.185,2.676-1.539a16.251,16.251,0,0,1,5.069-1.613,7.777,7.777,0,0,1,3.381,1.033c0.277,0.178-.2.051-0.4,0.1s0,0.148.2,0.375a0.655,0.655,0,0,1,.275.584c0,0.328-.68.35-0.959,0.5s-1.157.684-1.487,0.832a1.033,1.033,0,0,1-.935-0.148,1.714,1.714,0,0,0-.88-0.049c-0.3,0,.074.3,0.6,0.478s0.15,0.174.2,0.455a0.529,0.529,0,0,0,.656.275c0.279-.023.2-0.353,0.378-0.631a0.413,0.413,0,0,1,.555-0.2,3.214,3.214,0,0,1,.353.681c0.178,0.256.127,0.33-.023,0.732a2.087,2.087,0,0,1-.91,1.012c-0.376.2,0.053,0.2,0.3,0.2a0.671,0.671,0,0,1,.808.454,5.935,5.935,0,0,0,.429,1.515,1.567,1.567,0,0,0,1.236.529c0.277,0.076.579,0.127,0.427,0.276s-0.15.228-.047,0.529,1.206,0.232,1.815.355,0.656,0.3,1.007.326a1.607,1.607,0,0,0,1.035-.275c0.279-.2.681-0.326,0.782,0.129s0.883,0.275,1.261.275,0.2,0.1,0,.326-0.025.178,0.1,0.332,0.254,0.252.025,0.4-0.981.15-1.715,0.5a25.146,25.146,0,0,1-2.672.984c-0.557.176-.529,0.1-0.658,0.379a1.306,1.306,0,0,1-1.109.152c-0.2-.051.026-0.227,0.051-0.506s-0.882.807-1.362,1.238a17.809,17.809,0,0,1-1.64,1.463,1.809,1.809,0,0,1-.655.377,2.8,2.8,0,0,1-1.236-.527,1.646,1.646,0,0,1-.1-1.389,2.663,2.663,0,0,1,.783-1.213,11.391,11.391,0,0,1,1.437-.808,1.958,1.958,0,0,0,.655-0.6c0.4-.434.356-0.357,0.5-0.129s0.129,0.129.3-.125,0.2,0.074.227,0.2,0.3,0.3.453,0.555,0.128-.106.3-0.3a0.559,0.559,0,0,1,.554-0.2c0.278,0,.906-0.1.631-0.129s-0.227-.154-0.074-0.176,0.177-.2-0.1-0.256-1.438.029-1.942,0.029a1.745,1.745,0,0,1-.808-0.078c-0.277-.1.506-0.326,0.959-0.633s0.3-.375-0.026-0.375A1.609,1.609,0,0,1,177.56,15c-0.254-.178.074,0.3,0.351,0.682s0.152,0.18-.226.379-0.631-.021-1.212.23a4.224,4.224,0,0,1-1.638.705c-0.406-.1-0.125-0.2-0.455.051a5.161,5.161,0,0,1-1.362.6,0.531,0.531,0,0,0-.451.436c-0.027.041-.056,0.088-0.1,0.148a6.636,6.636,0,0,1-1.286.782,4.554,4.554,0,0,1-1.363.478,2.1,2.1,0,0,1-.983.5c-0.4,0-.4-0.5-0.656-0.678s-0.178.377-.554,0.982a1.015,1.015,0,0,1-1.212.506c-0.2-.123-0.049-0.123-0.151-0.027a0.938,0.938,0,0,1-.581.406,0.673,0.673,0,0,0-.6.48c-0.176.326-.352,0.426-0.605,0.83a7,7,0,0,1-.582.984c-0.351.455-.148,0.354-0.051,0.682a0.57,0.57,0,0,1-.148.681c-0.2.229-.178,0.278,0.074,0.5a2.788,2.788,0,0,1,.707,1.113c0.05,0.3.3,0.252,0.605,0.174a0.329,0.329,0,0,0,.1-0.578c-0.176-.1-0.023-0.154.379-0.027a0.4,0.4,0,0,1,.277.606,4.659,4.659,0,0,1-1.058.582c-0.328.2-.531,0.252-0.582,0.049s-0.025-.377-0.277-0.176a1.473,1.473,0,0,1-1.009.4c-0.478,0-.025-0.43-0.376-0.7s-0.079.4-.231,0.824-1.206.209-2.092,0.233a3.716,3.716,0,0,0-2.069.6c-0.73.431-.933,0.637-1.362,0.912s-0.051-.2-0.051-0.479-0.1-.406-0.174-0.155a2.063,2.063,0,0,1-.353.809,1.109,1.109,0,0,0,.226.982,2.1,2.1,0,0,1-.48,1.818c-0.429.656-.905,1.162-1.21,1.568S154.4,33.827,154,33.5a1.4,1.4,0,0,1-.708-1.035c-0.049-.5.251-0.379,0.681-0.631s-0.377-.1-0.757.127a0.72,0.72,0,0,0-.277.959c0.1,0.482,1.061,1.791,1.21,2.371s-0.781,1.92-1.109,2.322a14.07,14.07,0,0,0-.984,1.416c-0.1.2-.1,0-0.05-0.508s0.729-.959.782-1.359a2.484,2.484,0,0,0-.958-1.492c-0.48-.43-0.18-0.8-0.353-1.816s0.427-.98.478-1.287-0.681.559-.958,0.806a2.843,2.843,0,0,0-.2,1.461,2.607,2.607,0,0,1-.174,1.137,1.74,1.74,0,0,1-1.062-.83c-0.125-.328.152-0.328,0.228-0.584s-0.2-.7-0.173-0.478a1.7,1.7,0,0,1-.457.91,0.862,0.862,0,0,0-.1,1.058,10.222,10.222,0,0,0,1.792,1.594c0.25,0.228.476,0.43,0.25,0.629a2.26,2.26,0,0,1-1.159.027c-0.252,0-.656.076-0.43,0.174a3.915,3.915,0,0,1,.961.658,3.56,3.56,0,0,0,1.385.381,0.719,0.719,0,0,1,.153.885,0.7,0.7,0,0,0,.253.725c0.227,0.357.2,0.234-.179,0.2a0.559,0.559,0,0,0-.679.33c-0.254.355-.58,0.1-0.933-0.076s-0.227.176-.127,0.355a1.814,1.814,0,0,0,.981.051c0.457,0.026.28,0.026,0.383,0.2a0.361,0.361,0,0,0,.554-0.051c0.151-.178.555-0.33,0.578-0.2a1.635,1.635,0,0,1-.578.982,1.727,1.727,0,0,1-.985.632,0.447,0.447,0,0,1-.354-0.531c0-.226-0.126-0.027-0.175.151s0,0.1-.305,0-0.3.178-.125,0.38a0.749,0.749,0,0,1,.2.756,4.934,4.934,0,0,1-.657.326c-0.151.178,0.985-.049,1.387-0.174s0.2,0.2-.1.529-1.185.074-1.739,0.352a13.322,13.322,0,0,0-1.767,1.541,5.84,5.84,0,0,1-1.237.455,7.85,7.85,0,0,0-1.513.885,1.823,1.823,0,0,0-.454.73A9.954,9.954,0,0,1,143,50.229a8.228,8.228,0,0,0-1.99,1.514c-0.455.736-1.339,1.516-1.49,2.6a8.44,8.44,0,0,0,.859,3.607,18.706,18.706,0,0,1,1.007,2.853,7.527,7.527,0,0,0,1.06,2.5,4.89,4.89,0,0,1,.074,3.812,4.306,4.306,0,0,0-.351,1.916c-0.026.3-.557,0.356-0.406,0.2a0.545,0.545,0,0,0,.055-0.682c-0.18-.074-0.582.531-0.785,0.4a14.7,14.7,0,0,1-.982-1.664c-0.228-.326-0.808-0.3-1.085-0.885a3.412,3.412,0,0,1-.076-1.285c-0.1-.178-0.379.1-0.4-0.226s-0.354-.2-0.834-0.555a1.685,1.685,0,0,1-.452-1.464c-0.026-.557.353-0.227,0.226-0.43a1.675,1.675,0,0,1-.531-0.783c-0.023-.379.23-1.082,0.254-1.564s-0.984-1.212-1.564-1.617-1.411-1.562-1.664-1.639a11.287,11.287,0,0,0-1.69.832A0.95,0.95,0,0,1,131.2,57.5c-0.379-.235-0.578-0.863-1.159-1.265s-1.866-.152-2.6-0.152-1.31.2-1.663,0.2-0.152-.279-0.378-0.429a4.852,4.852,0,0,0-1.287.2,8.9,8.9,0,0,0-2.3.3,0.9,0.9,0,0,1-1.132-.277,0.755,0.755,0,0,0-.937.379c-0.125.355,1.138,0.3,1.39,0.176s0.425-.076.453,0.151a1.054,1.054,0,0,0,.3.658c0.252,0.33.176,0.072-.152,0.277s0.4,0.656.755,0.938,0.4,0.174.3,0.32-0.654.561-.578,0.332A3.541,3.541,0,0,0,120.729,58c-0.379-.127-1.183.935-1.765,0.957s-1.161-.781-1.741-1.084a1.28,1.28,0,0,0-1.36.2,0.8,0.8,0,0,1-1.11-.228,3.076,3.076,0,0,0-2.093-.478c-0.886-.029-0.985.4-1.565,0.707s-0.629-.076-1.288-0.228,0.051,0.3.429,0.48-0.176.65-.907,1.107-2.044,1.141-2.294.938-0.431-.355-0.454.2-1.111.959-1.439,1.234-0.531.2-.755,0.428,0.251,0.406-.078.931-0.58-.123-0.455.51a27.683,27.683,0,0,1,.921,3.023,1.988,1.988,0,0,1,.014.611c-0.178.955-1.134,1.613-1.31,2.343a21.9,21.9,0,0,0,.176,2.777,7.878,7.878,0,0,0,.152,3.638,10.5,10.5,0,0,0,1.487,3.655,8.949,8.949,0,0,1,1.413,2.726c0.428,1.26,1.638,1.236,2.5,1.414a3.16,3.16,0,0,1,1.563,1.082c0.506,0.406,1.161,0,2.094-.326a11.739,11.739,0,0,1,3.453-.607,3.142,3.142,0,0,0,1.214.355,1.075,1.075,0,0,0,.226-0.785,22.382,22.382,0,0,0,1.792-1.941c0.328-.561-0.027-2.17.706-3s4.968-1.215,6.281-1.264,1.132,0.43,1.285.934-0.68,1.013-1.363,1.869-0.277,2.445-.277,2.974a5.247,5.247,0,0,1-.835,1.947c-0.016.023-.031,0.053-0.047,0.072a2.586,2.586,0,0,0-.656,2,3.328,3.328,0,0,1-1.261,2.746c-0.371.258-.378,0.42-0.185,0.578a4.628,4.628,0,0,0,.74.41,1.2,1.2,0,0,0,.331.106,8.218,8.218,0,0,0,1.89-.387c0.831-.072,1.007.281,1.815,0.461s1.311-.406,2.471-0.533a5.288,5.288,0,0,1,2.9.252c0.705,0.379,1.411,1.363,2.039,1.515a2.433,2.433,0,0,1,.36.1c0.2,0.09.129,0.158,0.148,0.326,0.024,0.222-.051.375-0.027,1.082s-0.73,1.314-.68,2.17a23.886,23.886,0,0,1-.452,3.287c-0.1.83-.785,1.586-0.607,2.139a2.95,2.95,0,0,0,.493.726c0.59,0.7,1.511,1.611,1.777,2,0.163,0.236.367,0.519,0.573,0.771a2.157,2.157,0,0,0,.814.692,2.723,2.723,0,0,1,1.31.527,2.858,2.858,0,0,0,1.944.308,1.79,1.79,0,0,0,.706-0.381,5.71,5.71,0,0,0,1.462-.806,1.375,1.375,0,0,1,1.011-.4,7.671,7.671,0,0,1,2.118.681c0.353,0.2.984,0.5,0.984,0.252s0.632,0.227,1.159.711,1.413,1.967,1.589,2.066c0.22,0.123.2-.806,0.507-1.463a10.869,10.869,0,0,1,2.016-2.021c0.455-.455.2-1.056,0.354-1.769A3.578,3.578,0,0,1,154,101.862a1.058,1.058,0,0,1,.957-0.3,1.826,1.826,0,0,1,.454.657c0.3,0.3.506-.453,0.806-0.957s1.616-.154,2.019-0.2a4.24,4.24,0,0,0,1.108-1.014c0.254-.148.6-0.4,0.808-0.5a7.41,7.41,0,0,0,.91-0.908,1.505,1.505,0,0,1,1.713,0c0.555,0.4-.4,1.16-0.907,1.312a1.5,1.5,0,0,0-1,.92,0.67,0.67,0,0,0,0,.09c0.051,0.356.936,1.072,0.936,1.428s-1.137,1.6-1.186,1.957a3.154,3.154,0,0,0,1.866,1.714c0.554-.049.654-1.162,0.706-1.566s-1.163-1.715-1.163-2.17,1.011-.91,1.261-1.007a17.427,17.427,0,0,1,2.071-.811,9.5,9.5,0,0,1,2.672.049c0.757,0.055,1.11,1.062,1.214,1.67s0.351,0.554,1.058.554,2.927-.351,3.479-0.351a2.028,2.028,0,0,1,1.213.855,4.339,4.339,0,0,0,1.963.51c0.708,0.1,1.265-.406,2.071-1.113s2.523-.405,3.23-0.405a1.243,1.243,0,0,1,1.109.252c0.253,0.252-1.109,0-1.614.3s0.177,0.332-.026.633-0.2.455-.074,0.584,0.351-.461.7-0.406a1,1,0,0,1,.682.8c0,0.252,0,.309.175,0.129s0.254-.527.406-0.281a1.288,1.288,0,0,0,.629.433c0.2,0.1-.125-0.23.152-0.281a7.63,7.63,0,0,1,1.335.758c0.66,0.275.254,0.558,0.051,1.189s-0.476.475-1.16,0.781,0.959,0.252,1.312.174a16.176,16.176,0,0,1,2.192-.051,1.271,1.271,0,0,1,.37.065,8,8,0,0,1,2.86,2.435c0.429,0.554.254,0.984,0.732,1.34a4.841,4.841,0,0,1,1.614,1.033,2.571,2.571,0,0,0,1.029.83,3.363,3.363,0,0,1,.31.158c0.4,0.222.628-.184,0.781-0.459s0.329,0,.5.43a0.912,0.912,0,0,0,.884.529c0.328,0.029.354-.375,1.109-0.5s1.235,0.025,1.641-.055a9.326,9.326,0,0,1,2.151.5c0.629,0.192,1.226.394,1.53,0.518a10.39,10.39,0,0,1,2.069,1.763,19.558,19.558,0,0,0,1.671,1.068,4.817,4.817,0,0,1,.523.369c0.453,0.407.429,1.414,0.558,2.274s0.351,2.318.956,2.521,1.39,0.632,1.363,1.185-0.656,1.062-.4,1.414a0.5,0.5,0,0,1,0,.736c-0.18.3-.48,0.478-0.584,0.227s-0.63-.1-0.732.123a1.346,1.346,0,0,1-.882.607c-0.43.1-.148,0.2-0.4,0.684a10.7,10.7,0,0,0-.783.878,2.172,2.172,0,0,1-.581,1.191c-0.479.45-.656,0.627-0.1,0.4a3.025,3.025,0,0,0,1.011-1.488c0.1-.2.707-0.2,0.707,0.154a2.878,2.878,0,0,1-1.113,1.412c-0.5.375-.527,0.4,0,0.252a3.517,3.517,0,0,0,1.364-1.59c0.252-.484.3,0.3,0.3,0.7a1.676,1.676,0,0,0,.275,1.059,2.756,2.756,0,0,0,.406.632,1.764,1.764,0,0,1,.5.657c0.2,0.351.152-.1,0.279-0.559s0.552-.172.706,0a4.6,4.6,0,0,0,.5.484,0.865,0.865,0,0,1,.427.578c0.1,0.381.254,0.252,0.481-.048a2.594,2.594,0,0,1,.96-1.186,5.758,5.758,0,0,0,1.639-2.1c0.4-.733,1.765-0.406,2.42-0.252s3.256,1.334,4.287,1.763a2.714,2.714,0,0,1,1.541,1.266,3.347,3.347,0,0,0,1.691,1.082,2.453,2.453,0,0,1,1.612-.307,21.664,21.664,0,0,0,3.784,1.266c1.033,0.078,1.337-.43,2.373-0.377s3.049,1.413,3.882,1.892a11.821,11.821,0,0,1,2.6,2.269c0.6,0.732,2.016.963,3.4,0.963s1.011,0.555,1.891,2.293a7.915,7.915,0,0,1,.455,4.823C244.527,146.356,242.811,148.3,242.358,148.907ZM147.7,22.429a9.825,9.825,0,0,0,2.576.061,2.1,2.1,0,0,0,1.146-1.26,1.636,1.636,0,0,0-.226-0.787,1.114,1.114,0,0,0-.691-0.533c-0.687-.172-0.8.633-1.261,0.633s-0.172-.289-0.859-0.115a25.158,25.158,0,0,1-2.807.4,3.457,3.457,0,0,0-1.776,1.724,1.632,1.632,0,0,0,1.078.2,3.016,3.016,0,0,0,.355-0.023C146.035,22.6,147.183,22.2,147.7,22.429Zm-11,4.818a5.962,5.962,0,0,0,4.068-.517c1.545-.858,4.184-1.715,4.582-2.807,0.039-.1-0.1-0.148-0.318-0.166a7.149,7.149,0,0,0-1.684.166c-0.461.113-.976,0.8-1.663,0.69s-1.374-.518-1.718-0.344-2.178,2.234-2.923,1.886a1.14,1.14,0,0,1-.645-0.544,0.53,0.53,0,0,1,.129-0.541c0.285-.342-1.03.627-1.2,1.031S135.781,26.845,136.7,27.247ZM118.65,12.46c0.459-.061.518,0.629,1.318,0.8s1.147-.457,1.545-0.631a9.327,9.327,0,0,0,1.72-.689,7.281,7.281,0,0,1,2.235-1.087c0.46,0-.859.974-1.089,1.261s0.63,0.172,1.034.4a9.334,9.334,0,0,0,2.405,1.2c0.515,0,3.38-.746,3.895-0.8s0.344,0.344.344,0.86,0.859,0.176,1.2.23a2.152,2.152,0,0,1,.974.977c0.459,0.568-1.72.17-2.865,0.056s-1.831.457-2.922,0.625-0.861.061-1.317,0.4a11.909,11.909,0,0,0-1.777,2.808c-0.345.748,0.4,0.115,0.859-.287s0.172,0.633-.057,1.434a26.57,26.57,0,0,0-.517,4.071c0,0.688.633,1.891,0.633,2.521s0.859,0,1.143-.059a5.674,5.674,0,0,0,1.433-1.316c0.4-.459-0.115-2.752-0.228-3.269a7.018,7.018,0,0,1,.343-2.234A6.37,6.37,0,0,1,130,17.846a1.544,1.544,0,0,1,.8.115c0.4,0.172.058-.8,0.461-1.09a7.283,7.283,0,0,0,.972-0.859c0.286-.287,2.119.574,2.75,0.972s0.573,1.092.688,1.779-0.858,1.664-1.319,2.06-0.058.463,0.346,0.746,1.489-.746,1.891-0.916,0.574,0.857.574,1.146a5.465,5.465,0,0,0,.261,1.6,0.162,0.162,0,0,0,.137.123,7.969,7.969,0,0,0,1.432-.863,3.838,3.838,0,0,0,.4-2.062,2.542,2.542,0,0,1,.574-1.664c0.344-.457-0.289-1.029-0.632-1.49-0.429-.574,2.35,1.2,2.865,1.548s0.8-.4,1.033-0.629-0.518-1.033-1.146-1.719a4.017,4.017,0,0,0-1.722-1.551c-0.858-.285-4.639-0.461-5.956-0.748a2,2,0,0,1-1.663-1.887c0-.519-0.687-1.834-0.744-2.466s-1.376-.688-1.948-0.746-0.858-1.146-1.145-1.773-1.661-.406-2.522-0.406-1.031-.174-1.087-0.514-0.861.746-1.376,1.144a8,8,0,0,0-1.2.861,5.712,5.712,0,0,1-1.355.82c-0.636.313-1.347,0.629-1.854,0.9-0.974.517-3.037,2.118-2.922,2.464S118.193,12.513,118.65,12.46Zm20.57,3.265c-0.516,1.207-2.467-.174-2.809-0.287S139.411,15.271,139.22,15.726ZM212.756,130.11c-0.564.33-.33,0.42-0.611,0.94s-0.424.142-.753,0.048a5.634,5.634,0,0,1-.7-0.751,0.7,0.7,0,0,0-.894.183c-0.189.194-.47-0.183-0.66-0.42a2.719,2.719,0,0,1-.14-1.13,1.932,1.932,0,0,1,.14-1.363c0.283-.332.19-0.426-0.14-0.378s0.094-.517.283-0.845a1.318,1.318,0,0,1,.843-0.517,1.853,1.853,0,0,1,1.085.138c0.377,0.143.564,0.424,1.128,0.707s1.324-.045,1.741.943C214.731,129.216,213.32,129.778,212.756,130.11ZM203.909,12.865c-0.141.381-.328-0.139-0.894,0.242s-0.141-.756,0-1.224-1.035.469-1.316,0.75,0.377-1.5.8-2.07a7.347,7.347,0,0,1,1.506-1.6c0.281-.188-0.191,1.224-0.379,1.552s0.754-.184,1.035-0.328,0,0.85-.375,1.227A3.307,3.307,0,0,0,203.909,12.865Zm-0.377-4.748a5.637,5.637,0,0,0-1.318,1.457,2.275,2.275,0,0,1-.562.849,8.179,8.179,0,0,1-1.647.752c-0.753.375-.894,0.895-1.554,1.176s0.094-.52.567-1.033a0.9,0.9,0,0,0,.374-0.943c-0.045-.236-0.7.281-1.175,0.424s-0.234-.19-0.894-0.236a28.57,28.57,0,0,1-3.482.046c-0.749-.185-2.068-0.566-2.631-0.185a0.991,0.991,0,0,1-1.319-.191c-0.328-.283-0.142-0.613.426-0.845A2.049,2.049,0,0,0,191.4,7.924c-0.094-.277-0.613-0.094-0.943-0.233s0.33-.187.662-0.613S192.1,6,192.43,5.571a13.05,13.05,0,0,0,1.318-3.152c0.047-.516.047-0.281,0.378-0.564A21.146,21.146,0,0,0,195.494,0h2.269a0.821,0.821,0,0,1-.25.63,16.626,16.626,0,0,1-1.365,1.933,1.812,1.812,0,0,0-.519,1.6c0,0.656.519-.238,1.082-0.851s0.425,0.191,1.131.375-0.378.477-.519,0.758,0.473,0.471,1.175.7a0.92,0.92,0,0,1,.613.984,4.878,4.878,0,0,0,1.224-1.408c0.326-.517.377,0.189,0.611,0.611s0.613,0,1.6.187-0.753.8-1.177,1.084,0.19,0.142.8,0.8,0.425,0.281,1.13.236S203.955,7.785,203.532,8.117ZM40.5,2.493a2.149,2.149,0,0,1,1.261.652c0.455,0.351.707,1.564,1.163,2.072s1.561,0.35,2.217,1.154,0.8,1.285,1.257,1.869c0.757,0.959-1.109.351-1.913,0s-1.866-.91-1.866-1.359a0.375,0.375,0,0,1,.168-0.355,8.659,8.659,0,0,1-1.581.2c-0.754,0-.1-0.3-0.1-0.656s-0.254-.4-1.413-0.5-0.152-.2.051-0.453,0.15-.254-0.3-0.2-0.7-.406-1.206-0.857A3.253,3.253,0,0,0,36.569,3.5c-0.759-.2-0.457-0.75-0.457-1.156s0.2,0.1.656,0.5,0.4-.252-0.1-0.605-0.756,0-1.411-.252-0.453-.5,0-0.654a4.936,4.936,0,0,1,2.371.455A26.9,26.9,0,0,0,40.5,2.493Z"/>
</svg>
