<svg id="_" data-name="#" xmlns="http://www.w3.org/2000/svg" width="154" height="38" viewBox="0 0 154 38">
  <defs>
    <style>
      .cls-1 {
        fill: #26303c;
      }

      .cls-1, .cls-2 {
        fill-rule: evenodd;
      }

      .cls-2 {
        fill: #fff;
      }
    </style>
  </defs>
  <path id="_2" data-name="#" class="cls-1" d="M118.006,31.948v-10.4a2.845,2.845,0,0,0-3.064-2.879A2.94,2.94,0,0,0,112,21.745v10.2h-4V8.961h4v7.76a6.9,6.9,0,0,1,4.538-1.7c3.568,0,5.463,2.51,5.463,5.955v10.97h-4Zm18.148-1.981a7.525,7.525,0,0,1-10.28,0C124.4,28.388,124,26.51,124,23.48c0-3.005.374-4.884,1.871-6.436a6.745,6.745,0,0,1,5.09-2.029,6.826,6.826,0,0,1,5.14,2.029c1.5,1.578,1.872,3.431,1.872,6.436,0.05,3.03-.35,4.908-1.822,6.486M132.92,19.448a2.638,2.638,0,0,0-1.953-.727,2.5,2.5,0,0,0-1.927.751c-0.863.877-.964,2.279-0.964,4.007s0.1,3.206.964,4.057a2.591,2.591,0,0,0,1.927.752,2.74,2.74,0,0,0,1.978-.726c0.887-.852.963-2.3,0.963-4.032s-0.076-3.156-.963-4.007m-33.876,12.5c-2.581,0-4.914-.276-7-2.385l2.68-2.711A5.935,5.935,0,0,0,99.143,28.5c1.415,0,2.9-.477,2.9-1.757,0-.828-0.422-1.406-1.738-1.531l-2.581-.251c-2.978-.276-4.737-1.607-4.737-4.669,0-3.44,2.925-5.3,6.275-5.3,2.556,0,4.715.427,6.279,1.958l-2.531,2.585a5.732,5.732,0,0,0-3.822-1.13c-1.638,0-2.333.778-2.333,1.607,0,0.6.248,1.305,1.712,1.431l2.581,0.251c3.251,0.326,4.889,2.058,4.889,4.9,0,3.64-3.1,5.4-6.973,5.423m53.013-1.436a5.21,5.21,0,0,1-3.8,1.487A5.483,5.483,0,0,1,144,30.435v7.532h-3.985V15.135h3.966V16.7a5.453,5.453,0,0,1,4.326-1.735,5.212,5.212,0,0,1,3.8,1.487C153.743,18.084,154,21.26,154,23.714s-0.281,5.235-1.917,6.87M147.09,18.63c-2.454,0-2.987,2.407-2.987,5.084s0.533,4.735,2.987,4.735,2.777-2.057,2.777-4.735-0.3-5.059-2.777-5.084"/>
  <path id="_3" data-name="#" class="cls-2" d="M67.443,14.9A8.011,8.011,0,0,0,61.5,17.432,8.272,8.272,0,0,0,59.017,23.5a8.18,8.18,0,0,0,2.484,6.04,8.011,8.011,0,0,0,5.943,2.533A8.565,8.565,0,0,0,75.968,23.5a8.427,8.427,0,0,0-2.484-6.064A8.132,8.132,0,0,0,67.443,14.9Zm3.191,11.739a4.354,4.354,0,0,1-6.284,0,4.477,4.477,0,0,1-1.339-3.19,4.315,4.315,0,0,1,1.339-3.191,4.017,4.017,0,0,1,3.142-1.291,4.07,4.07,0,0,1,3.191,1.291,4.511,4.511,0,0,1,1.291,3.191A4.689,4.689,0,0,1,70.634,26.638ZM11.68,14.156a6.487,6.487,0,0,1,3.575,1.109,7.064,7.064,0,0,1,2.358,2.768h4.344a10.454,10.454,0,0,0-3.748-5.744,9.978,9.978,0,0,0-6.5-2.295,9.936,9.936,0,0,0-7.5,3.2,10.561,10.561,0,0,0-3.2,7.767,10.908,10.908,0,0,0,3.153,7.817,10.152,10.152,0,0,0,7.547,3.177,10.16,10.16,0,0,0,6.5-2.244,11.063,11.063,0,0,0,3.749-5.744H17.638a7.246,7.246,0,0,1-2.358,2.768A6.731,6.731,0,0,1,11.705,27.8a6.3,6.3,0,0,1-4.667-1.967,6.255,6.255,0,0,1-1.887-4.766A6.273,6.273,0,0,1,7.038,16.3,5.932,5.932,0,0,1,11.68,14.156ZM43.886,16.03a9.361,9.361,0,0,0-4.761-1.069c-2.759-.049-4.663.7-5.787,2.161a6.027,6.027,0,0,0-1.148,3.545h4.1a2.9,2.9,0,0,1,.586-1.506,2.5,2.5,0,0,1,2.173-.8,3.685,3.685,0,0,1,2,.389,1.426,1.426,0,0,1,.708,1.36,1.347,1.347,0,0,1-.928,1.239l-3.15.485A8.824,8.824,0,0,0,34.168,22.9a4.536,4.536,0,0,0-2.159,4.419,4.386,4.386,0,0,0,1.3,3.5,5.233,5.233,0,0,0,3.345,1.141,8.209,8.209,0,0,0,5.312-1.676v1.676H46.01V20.036C45.937,18.094,45.229,16.734,43.886,16.03Zm-2.271,9.324a3.337,3.337,0,0,1-1.148,2.914,4.486,4.486,0,0,1-2.539.85,2.262,2.262,0,0,1-1.465-.486,2.015,2.015,0,0,1-.586-1.6,2.018,2.018,0,0,1,.977-1.845,5.457,5.457,0,0,1,1.9-.534l2.051-.534,0.806-.437v1.675h0ZM25,10h4.009V31.921H25V10Zm31.862,5.056-1.2.437a6.178,6.178,0,0,0-2.847,2.31V15.177L49,15.128V31.946H53V24.167a5.739,5.739,0,0,1,.531-2.868,3.9,3.9,0,0,1,1.4-1.556,2.859,2.859,0,0,1,1.852-.7l1.23,0.1-0.048-4.157Zm26.68-12.09-9.5,9.547,2.5,2.475,9.477-9.524ZM66,1h4V11H66V1ZM79,19H89v4H79V19Z"/>
</svg>
