<svg xmlns="http://www.w3.org/2000/svg" width="14" height="22" viewBox="0 0 14 22">
  <defs>
    <style>
      .cls-1 {
        fill: #1b1c1e;
        fill-rule: evenodd;
      }
    </style>
  </defs>
  <path id="_" data-name="#" class="cls-1" d="M0.343,11.856l0.275,0.261,0.1,0.086,0.007,0,10,9.479a1.236,1.236,0,0,0,1.689,0l0.273-.26a1.123,1.123,0,0,0,0-1.642L3.446,11l9.239-8.784a1.124,1.124,0,0,0,0-1.642l-0.273-.259a1.236,1.236,0,0,0-1.69,0L0.717,9.858,0.7,9.865l-0.086.082-0.272.259A1.133,1.133,0,0,0,.343,11.856Z"/>
</svg>
