<svg xmlns="http://www.w3.org/2000/svg" width="14" height="22" viewBox="0 0 14 22">
  <defs>
    <style>
      .cls-1 {
        fill: #1b1c1e;
        fill-rule: evenodd;
      }
    </style>
  </defs>
  <path id="_" data-name="#" class="cls-1" d="M12.657,11.856l-0.275.261-0.1.086-0.007,0-10,9.479a1.236,1.236,0,0,1-1.689,0l-0.273-.26a1.124,1.124,0,0,1,0-1.642L9.554,11,0.315,2.216a1.124,1.124,0,0,1,0-1.642l0.273-.259a1.236,1.236,0,0,1,1.69,0L12.283,9.858,12.3,9.865l0.086,0.082,0.272,0.259A1.133,1.133,0,0,1,12.657,11.856Z"/>
</svg>
