<svg xmlns="http://www.w3.org/2000/svg" width="148" height="66" viewBox="0 0 148 66">
  <defs>
    <style>
      .cls-1 {
        fill: #fff;
        fill-rule: evenodd;
      }
    </style>
  </defs>
  <path class="cls-1" d="M29.681,38.185V36.329s2.334,0.019,2.735,0a0.426,0.426,0,0,0,.325-0.737c-0.287-.373-2.19-2.937-2.64-3.529a1.954,1.954,0,0,1,1.693-3.109H37.62V30.81h-2.9a0.457,0.457,0,0,0-.21.593c0.21,0.325,2.544,3.434,2.822,3.836a2.56,2.56,0,0,1,.287,1.3,1.874,1.874,0,0,1-1.741,1.645c-1.368-.019-6.2,0-6.2,0m11.047-9.231h8.015V30.81h-4.1v1.961h4.1v1.808h-4.1v1.7h4.1v1.9H40.728V28.954m11.478,9.231V28.954H56.4l3.864,5.8v-5.8h1.789v9.231H57.859L53.995,32.34v5.844H52.206m13.094,0V28.954h4.2l3.864,5.8v-5.8h1.789v9.231h-4.2L67.089,32.34v5.844H65.3m28.484-9.231H101.8V30.81H97.7v1.961h4.1v1.808H97.7v1.7h4.1v1.9H93.785V28.954m29.718,0h8.006V30.81h-4.094v1.961h4.094v1.808h-4.094v1.7h4.094v1.9H123.5V28.954m-11.009,9.231V36.329s2.334,0.019,2.735,0a0.425,0.425,0,0,0,.326-0.737c-0.278-.373-2.181-2.937-2.631-3.529a1.952,1.952,0,0,1,1.693-3.109h5.816V30.81h-2.9a0.457,0.457,0,0,0-.211.593c0.211,0.325,2.544,3.434,2.831,3.836a2.63,2.63,0,0,1,.278,1.3,1.874,1.874,0,0,1-1.741,1.645c-1.368-.019-6.2,0-6.2,0M78.825,28.954H82.67V32.6h3.348V28.954h3.864v9.231H86.018V34.579H82.67v3.606H78.825V28.954m26.419,0h4.093v9.231h-4.093V28.954Zm33.668,1.856h2.564a0.982,0.982,0,0,1,.774,1,1,1,0,0,1-.774.966h-2.564V30.81ZM135,38.185h3.912V34.579H140.6l2,3.606h3.587l-2.047-3.864a2.884,2.884,0,0,0,1.885-2.688c0-2.659-2.88-2.678-2.88-2.678H135v9.231m-113.985,1.4H11.871a5.683,5.683,0,0,1-1.1,1.406H22.325V29.614h-1.31v9.967M2.076,27.366h8.647c0.344-.526.555-0.851,0.555-0.851a2.514,2.514,0,0,1,.584-0.555H0.766V37.3h1.31V27.366m9.823-.421L5.73,36.435a4,4,0,0,1-2.181,1.607h-2.8v2.927H9.164a3.383,3.383,0,0,0,2.181-1.722s5.615-8.9,5.959-9.4a3.246,3.246,0,0,1,2.43-.985l2.592-.029V25.96c-1.674,0-8.312-.028-8.312-0.028A3.073,3.073,0,0,0,11.9,26.945"/>
</svg>
