<svg xmlns="http://www.w3.org/2000/svg" width="148" height="66" viewBox="0 0 148 66">
  <defs>
    <style>
      .cls-1 {
        fill: #fff;
        fill-rule: evenodd;
      }
    </style>
  </defs>
  <path id="_" data-name="#" class="cls-1" d="M131.8,43.936l-7.131-9.63-7.124,9.63h-2.935L123.182,32.3l-7.831-10.577h2.935l6.381,8.626,6.38-8.626h2.933L126.156,32.3l8.575,11.638H131.8Zm-55.573,0L67.642,32.3l7.83-10.574H72.537l-6.382,8.628-6.376-8.628H56.851L64.678,32.3,56.1,43.932h2.939l7.124-9.627,7.13,9.627h2.937ZM92.543,33.14a6.254,6.254,0,0,0-1.464-.927,5.029,5.029,0,0,0,2.684-4.448c0-1.421-.526-6.043-7.257-6.043H77.443V31.3H74.424c-0.391.508-1.282,1.729-1.62,2.229h4.639V43.932l9.067,0c4.911,0,7.961-2.48,7.961-6.485a5.469,5.469,0,0,0-1.927-4.31m-12.595-9.1h6.56c1.775,0,4.749.44,4.749,3.529,0,2.336-1.732,3.728-4.749,3.728h-6.56V24.04h0Zm6.558,17.577h-6.56V33.532h6.56c2.487,0,5.463.683,5.463,3.868,0,3.668-3.422,4.217-5.463,4.217m19.756-20.406c-6.271,0-10.654,4.772-10.654,11.6s4.383,11.61,10.654,11.61S116.9,39.659,116.9,32.816s-4.371-11.6-10.636-11.6m0,20.865c-4.778,0-8.126-3.81-8.126-9.261s3.348-9.259,8.126-9.259,8.1,3.808,8.1,9.259-3.328,9.261-8.1,9.261M17.822,19.347l-0.018.016v0a18.44,18.44,0,0,0-1.732,24.388,0.083,0.083,0,0,0,.1.031,0.074,0.074,0,0,0,.021-0.1c-1.418-4.365,5.833-14.943,9.579-19.378a0.1,0.1,0,0,0,.027-0.054,0.084,0.084,0,0,0-.035-0.06c-6.3-6.241-7.985-4.814-7.961-4.834m26.13-.016,0.018,0.016v0a18.443,18.443,0,0,1,1.73,24.388,0.082,0.082,0,0,1-.1.031,0.078,0.078,0,0,1-.021-0.1c1.418-4.365-5.827-14.951-9.572-19.387a0.087,0.087,0,0,1-.027-0.053A0.079,0.079,0,0,1,36,24.187c6.3-6.241,7.975-4.8,7.954-4.824m-13.072-5.34a18.415,18.415,0,0,1,9.693,2.71,0.07,0.07,0,0,1,.031.091,0.072,0.072,0,0,1-.09.031c-3.6-.775-9.079,2.322-9.595,2.632a0.059,0.059,0,0,1-.08,0c-1.373-.784-6.435-3.424-9.622-2.612a0.069,0.069,0,0,1-.059-0.125,18.4,18.4,0,0,1,9.722-2.728m0,14.85a0.106,0.106,0,0,1,.059.029c5.569,4.213,15.1,14.628,12.189,17.573l0,0,0,0h0a18.668,18.668,0,0,1-24.5,0l0,0,0,0c-2.9-2.945,6.625-13.36,12.188-17.573a0.124,0.124,0,0,1,.064-0.029"/>
</svg>
