<svg xmlns="http://www.w3.org/2000/svg" width="148" height="66" viewBox="0 0 148 66">
  <defs>
    <style>
      .cls-1 {
        fill: #fff;
        fill-rule: evenodd;
      }
    </style>
  </defs>
  <path class="cls-1" d="M116.148,13.083a2.379,2.379,0,1,0,2.383,2.381A2.373,2.373,0,0,0,116.148,13.083Zm0,4.294a1.912,1.912,0,1,1,1.92-1.913A1.908,1.908,0,0,1,116.148,17.377Zm0.4-1.741V15.62a0.693,0.693,0,1,0-.112-1.38h-1.229V16.7h0.509V15.7h0.093a0.471,0.471,0,0,1,.4.123,2.144,2.144,0,0,1,.335.485l0.2,0.4h0.616l-0.286-.5A0.9,0.9,0,0,0,116.547,15.636ZM116.23,15.3h-0.515V14.627h0.46c0.336,0,.508.117,0.508,0.336A0.365,0.365,0,0,1,116.23,15.3ZM103.2,16.317a13.165,13.165,0,0,0-10.555,4.636l-0.684.811L91.5,20.807a5.6,5.6,0,0,0-1.043-1.556c-1.776-2.01-4.754-3.029-8.85-3.029a14.682,14.682,0,0,0-9.549,3.17l-0.608.516-0.418-.68c-1.136-1.845-3.965-3.039-7.208-3.039-4.663,0-9.372.631-12.212,5.208L50.439,23.29l-0.092-2.226c-0.07-1.72-.229-2.434-1.031-3.283-0.88-.932-2.361-1.386-4.527-1.386a8.052,8.052,0,0,0-7.312,4.242c-2.679,4.278-9.151,18.346-9,25.031,0.092,4.334,2.989,6.99,7.747,7.1,3.919,0.092,7.038-.916,9.019-2.915l0.5-.508,0.486,0.528a10.146,10.146,0,0,0,7.62,3c3.989,0,7.4-1.24,9.364-3.405l0.535-.591,0.5,0.619c1.834,2.255,4.671,3.438,8.2,3.421a15.066,15.066,0,0,0,11.793-5.8L85,46.155l0.423,1.151c1.779,4.846,6.61,5.567,9.334,5.567,9.249,0,13.245-6.343,16.69-16.581a39.363,39.363,0,0,0,1.988-9.4c0.122-2.3-.188-5.529-2.362-7.821C109.338,17.246,106.69,16.317,103.2,16.317ZM39.29,41.89c4.969-.866,6.221.933,6.063,2.6-0.468,4.979-5.039,6.094-9.006,6-2.878-.066-5.465-1.385-5.537-4.728-0.126-5.844,5.835-19.365,8.641-23.848a5.784,5.784,0,0,1,5.394-3.177c2.387,0,2.978,1.223,2.942,2.69C47.693,25.34,41.368,37.241,39.29,41.89ZM55.474,37.3c-0.329.887-.952,2.751-1.454,4.728a16.235,16.235,0,0,1,4.95-.641c2.387,0.057,3.913,1.048,3.913,3.026,0,4.783-5.289,6.189-8.96,6.189-4.031,0-7.571-2.294-7.571-6.7,0-5.168,2.8-13,5.429-18.217,3.228-6.41,6.526-7.262,12.205-7.262,2.5,0,5.371,1.067,5.371,3.422,0,3.269-2.766,4.513-5.51,4.671a39.251,39.251,0,0,1-4.055.056,23.088,23.088,0,0,0-1.884,3.87c5.08-.715,7.237.437,6.379,3.378C63.129,37.791,59.686,38.053,55.474,37.3Zm30.66,0.463c-1.449,7.13-6.525,12.861-13.7,12.861-4.917,0-7.969-2.719-7.969-7.732,0-3.573,1.772-9.18,3.177-12.462C70.628,23.45,73.762,18.56,81.75,18.56c4.792,0,8.573,1.722,8.019,6.213-0.407,3.3-2.056,5.23-5.052,5.462-0.839.066-4.267-.021-3.129-3.264,0.4-1.136.561-2.026-1.125-2.026a3.62,3.62,0,0,0-2.941,1.81c-1.473,2.069-4.664,10.356-5.159,13.76-0.341,2.334.666,2.81,1.766,2.81,1.765,0,3.745-1.869,4.42-4.953,0,0-3.361-.082-2.432-3.063,0.9-2.892,2.607-3.519,5.438-3.634C87.13,31.446,86.581,35.569,86.134,37.763Zm24.5-6.922a48.226,48.226,0,0,1-4.806,12.886c-3.364,6.048-7.451,6.895-11.017,6.852s-7.589-1.361-7.619-6.864c-0.021-3.948,1.683-9.529,3.129-13.181,2.523-6.626,5.1-12.031,13.245-11.934C113.064,18.713,111.37,27.162,110.631,30.841Zm-8.06-5.759a2.232,2.232,0,0,0-2.165,1.133c-1.437,1.865-5.638,13.344-5.565,15.632a1.442,1.442,0,0,0,1.494,1.545c1.163,0,1.809-.8,2.38-1.773,1.323-2.239,5.042-12.385,5.142-14.92C103.887,25.958,103.764,25.1,102.571,25.083Z"/>
</svg>
