<svg xmlns="http://www.w3.org/2000/svg" width="148" height="66" viewBox="0 0 148 66">
  <defs>
    <style>
      .cls-1 {
        fill: #fff;
        fill-rule: evenodd;
      }
    </style>
  </defs>
  <path class="cls-1" d="M52.7,16.109l4.325-.049L57.106,44.5l-4.471.117,0.028-18.988-2.473-.009,0.013-3.94S52.839,20.661,52.7,16.109Zm-24.36,9.176s0.04-4.162,4.048-3.787L32.306,44.853a4.022,4.022,0,0,1-4.022-3.973Zm4.723-.8L33.1,21.5a3.64,3.64,0,0,1,4.1,3.924l0.129,8.053-4.289.049,0.012-2.855s0.589,0.183.511-1.382l0.047-3.441S33.659,24.289,33.058,24.48Zm4.223,11,0.012,5.451s0.255,4.03-4.334,3.989l0.013-2.842c0.5-.119.4-1.423,0.4-1.423l0.01-5.181Zm-21.7,9.053L15.494,15.978l-4.34.012V44.531ZM21.759,30.1s0.193,4.69-5.543,4l0.029-3.282c1.39-.114,1.236-1.927,1.236-1.927l-0.074-8.218s0.036-1.569-1.2-1.572l0.012-3.141c5.651-.692,5.565,3.843,5.565,3.843Zm20.864,14.4L42.558,21.767l-4.281-.056L38.2,44.633Zm1.182-10.929,0.038-7.685s0.093-1.532-.531-1.573l0.033-2.479c4.937-1.8,4.263,3.679,4.263,3.679l-0.044,8Zm71.379-11.805,0.025-3.633,4.059,0.012-0.027,3.623h0.824l0,2.938-0.854.005-0.093,15.752a1.238,1.238,0,0,0,1.259,1.018l-0.018,2.794c-5.916,1.739-5.19-4-5.19-4L115.166,24.7a7.243,7.243,0,0,1-.773,0l-0.018-2.93Zm5.515,13.3-0.051,5.68s-0.138,3.915,4.311,3.893l0.02-2.184c-0.43.015-.308-1.1-0.308-1.1l0.043-6.3Zm9.193-5.831,0.006-4.5a3.776,3.776,0,0,0-4.313-3.405l-0.033,2.251c0.4-.056.332,1.545,0.332,1.545l-0.049,4.121Zm-9.024.268a2.678,2.678,0,0,0,.7,1.787c0.61,0.583,3.645,3.523,3.645,3.523a2.1,2.1,0,0,1,.662,1.637l-0.023,4.731s0.031,1.218-.305,1.327l0.038,2.123a3.723,3.723,0,0,0,4.356-3.9l-0.11-4.03a5.658,5.658,0,0,0-1.815-4.456l-2.608-2.54a2.881,2.881,0,0,1-.674-1.944l0.049-2.824s-0.1-1.382.291-1.364l-0.02-2.21c-4.5-.177-4.31,4.346-4.31,4.346Zm12.981-7.855a2.215,2.215,0,1,1-2.2,2.234A2.207,2.207,0,0,1,133.85,21.649Zm0.042,4.86a2.645,2.645,0,1,0-2.674-2.622A2.629,2.629,0,0,0,133.892,26.509Zm0.436-2.515a0.755,0.755,0,0,0,.787-0.822,0.828,0.828,0,0,0-1.031-.778l-1.251.011,0.026,2.975,0.43,0L133.278,24,133.83,24l0.773,1.368,0.49,0Zm-0.319-1.169c0.355,0,.673.021,0.676,0.4,0,0.4-.55.341-0.953,0.345l-0.457,0-0.008-.739Zm-67.3-2.463,0.008-3.975-4.324.05-0.012,3.929ZM66.625,44.58l0.065-22.832-4.317.005,0.052,22.828h4.2Zm10.752,0L77.318,24.416s0.021-4.2-4.909-2.65L72.4,24.383c0.83,0.112.9,1.419,0.9,1.419l-0.09,18.782Zm-5.531,0L71.91,21.748l-4.316.005,0.053,22.828h4.2Zm6.467-22.911c4.723-1.647,4.475,3.9,4.475,3.9L82.753,44.579,78.73,44.6,78.723,25.58s-0.054-1.145-.7-1.264a3.685,3.685,0,0,0-.637-2.042A3.136,3.136,0,0,1,78.313,21.669Zm10.706,4.02s0.015-1.272-.79-1.391V22.036C93.342,19.825,93,25.709,93,25.709l0.006,14.668s0.584,5.875-4.792,3.58l-0.035-1.733a2.035,2.035,0,0,0,.925-1.485Zm-1.456,23.54L87.5,21.7l-3.758.131-0.078,27.4Zm6.605-23.453s-0.213-4.756,4.442-4.258L98.6,23.859c-0.7-.03-0.587,1.3-0.587,1.3l-0.041,5.721L97.951,40.4s-0.162,1.5.635,1.659l0.006,2.5c-4.623.623-4.5-4.028-4.5-4.028Zm9.526-.007s0.213-4.755-4.441-4.257l0.009,2.342c0.706-.029.726,1.3,0.726,1.3l-0.1,5.721L99.913,40.4s0.161,1.5-.636,1.658l-0.007,2.5c4.624,0.625,4.5-4.025,4.5-4.025Zm5.3,18.737-0.066-22.739-4.28-.056-0.077,22.922Zm1.182-10.929,0.039-7.685s0.091-1.532-.533-1.573l0.034-2.479c4.936-1.8,4.261,3.679,4.261,3.679l-0.044,8ZM26.995,20.362L27,16.388l-4.325.05-0.011,3.929ZM26.914,44.58l0.064-22.832-4.316.005,0.051,22.828h4.2Z"/>
</svg>
