<svg xmlns="http://www.w3.org/2000/svg" width="148" height="66" viewBox="0 0 148 66">
  <defs>
    <style>
      .cls-1 {
        fill: #fff;
        fill-rule: evenodd;
      }
    </style>
  </defs>
  <path class="cls-1" d="M81.221,44.672A32.987,32.987,0,0,0,73.582,47.4a38.305,38.305,0,0,0-15.551-3.437,39.573,39.573,0,0,0-17.079,3.983l-6.93-33.994h47.2m0,30.72,0-30.72M48.1,22.464H43.9V34.9h8.4V31.958H48.1V22.464ZM59.613,32.994c-1.91,0-2.346-.819-2.346-3.11h8.567c0-5.511-1.309-7.8-6.221-7.8-5.347,0-6.766,1.855-6.766,6.657,0,4.692,1.964,6.929,6.493,6.929,4.475,0,6.112-1.637,6.221-4.2H61.632C61.632,32.5,61.25,32.994,59.613,32.994Zm-2.346-5.565c0-1.855.382-2.892,2.183-2.892,1.746,0,2.182.818,2.182,2.892H57.267Zm13.259-4.965H65.943L70.69,34.9h5.184L80.73,22.464H76.256l-2.892,8.13Zm10.64-8.512,0,0h31.812L105.5,47.945c-4.91-2.837-9.384-4.038-15.878-4.038a45.264,45.264,0,0,0-8.458.765m0.764-22.263V34.9h4.092v-12.5H81.931Zm7.2,0.819-0.219,1.255c1.31-.819,1.856-1.528,1.856-2.456a1.538,1.538,0,0,0-1.746-1.582,1.5,1.5,0,0,0-1.692,1.473C87.332,23.064,88.1,23.227,89.133,23.227Zm5.838,7.748h-4.42c0.055,3,1.637,4.2,6.439,4.2,4.475,0,6.275-.982,6.275-4.093,0-4.911-8.294-2.455-8.294-5.4,0-.71.819-1.309,1.91-1.309A1.675,1.675,0,0,1,98.736,25.9h4.2c-0.055-2.619-1.583-3.819-5.784-3.819-4.365,0-6.384,1.2-6.384,3.928,0,5.4,8.294,2.511,8.294,5.566,0,0.928-.491,1.364-1.692,1.364C95.954,32.94,95.08,32.395,94.971,30.976Zm3.383,16.806a2.4,2.4,0,0,1,0,4.8,2.387,2.387,0,0,1-2.4-2.4A2.423,2.423,0,0,1,98.355,47.781Zm2.019,2.4a2.02,2.02,0,0,0-4.038,0A2.05,2.05,0,0,0,98.355,52.2,2.015,2.015,0,0,0,100.374,50.183Zm-2.838,1.2v-2.4h0.655c0.655,0,1.146.163,1.146,0.764a0.84,0.84,0,0,1-.545.709l0.436,0.928H98.791l-0.382-.709H98.027v0.709H97.536Zm1.255-1.637c0-.164-0.219-0.273-0.764-0.273v0.6C98.409,50.073,98.791,50.073,98.791,49.746Z"/>
</svg>
