<svg xmlns="http://www.w3.org/2000/svg" width="148" height="66" viewBox="0 0 148 66">
  <defs>
    <style>
      .cls-1 {
        fill: #fff;
        fill-rule: evenodd;
      }
    </style>
  </defs>
  <path class="cls-1" d="M20.567,34.3c1.516,0.607,4.3,1.163,6.569,2.072,2.325,0.859,4.144,2.021,3.739,3.891-0.252,1.415-1.869,2.324-3.739,2.627a6.824,6.824,0,0,1-2.021.152c-3.082-.051-5.913-1.617-5.256-4.851H15.968a8.467,8.467,0,0,0,1.819,5.659c1.314,1.516,3.537,2.476,7.024,2.476a16.334,16.334,0,0,0,2.325-.151A8.562,8.562,0,0,0,33.1,43.19a6.072,6.072,0,0,0,.758-1.213,7.065,7.065,0,0,0,.455-1.465,4.534,4.534,0,0,0-1.365-4.7,15.047,15.047,0,0,0-5.205-2.425l-0.252-.05-0.354-.152c-4.7-1.415-9.5-3.032-8.439-8.489a7.739,7.739,0,0,1,4.144-5.458,10.809,10.809,0,0,1,1.112-.505,13.494,13.494,0,0,1,3.184-.707,9.365,9.365,0,0,1,1.162-.05,11.67,11.67,0,0,1,6.923,1.819A7.408,7.408,0,0,1,38,25.958h3.588a7.531,7.531,0,0,0,.1-1.061V24.29c-0.152-4.346-4.194-9.349-12.633-9.349-0.657,0-1.314.051-1.92,0.1-6.468.4-11.37,3.083-12.431,8.641C13.694,28.889,16.17,32.527,20.567,34.3ZM32.9,29.95c-1.971-.708-4.043-1.213-5.761-1.769-2.375-.809-4.093-1.668-3.739-3.234,0.253-1.465,1.92-2.324,3.739-2.526a6.838,6.838,0,0,1,1.011-.1c2.476,0,4.851,1.667,4.447,3.638h4.3A6.338,6.338,0,0,0,34.564,20.7,10.581,10.581,0,0,0,28.3,19.085a9.365,9.365,0,0,0-1.162.05,12.249,12.249,0,0,0-2.779.657c-0.354.152-.657,0.3-1.011,0.455A6.6,6.6,0,0,0,19.808,24.9c-0.859,4.4,3.234,5.862,7.328,7.125l0.657,0.2,0.253,0.1a15.191,15.191,0,0,1,5.609,2.628,5.592,5.592,0,0,1,1.769,5.761v0.05a10.775,10.775,0,0,1-.556,1.668,6.577,6.577,0,0,1-.859,1.415c-1.415,1.87-3.74,3.083-6.872,3.437a16.886,16.886,0,0,1-2.325.151c-3.84,0-6.317-1.112-7.883-2.829a9.923,9.923,0,0,1-2.123-6.418H10.763a8.3,8.3,0,0,0-.2,1.566v1.112c0.354,6.266,6.771,9.6,13.8,9.6a25.625,25.625,0,0,0,2.779-.152c5.71-.758,11.32-3.739,12.381-9.3C40.83,34.447,37.141,31.516,32.9,29.95ZM61.044,44.1a6.571,6.571,0,0,1-.909,1.162,9.261,9.261,0,0,1-6.114,2.931,13.257,13.257,0,0,1-1.415,0,8.505,8.505,0,0,1-1.667-.152,8.053,8.053,0,0,1-5-3.032,9.657,9.657,0,0,1-1.819-5.76,9.9,9.9,0,0,1,.2-2.072,9.631,9.631,0,0,1,.556-2.072,14.534,14.534,0,0,1,.91-2.022c1.718-3.183,4.6-5.71,8.237-5.913h0.455a9.465,9.465,0,0,1,2.122.2,8.111,8.111,0,0,1,5,2.931,8.434,8.434,0,0,1,1.718,5.155,7.437,7.437,0,0,1-.2,1.819l-0.05.455h-13.9a2.881,2.881,0,0,1,.2-1.112H62.1a9.028,9.028,0,0,0,.1-1.162,6.96,6.96,0,0,0-5.812-6.974,7.728,7.728,0,0,0-1.92-.2H54.02c-3.184.2-5.711,2.476-7.277,5.357a11.714,11.714,0,0,0-.809,1.819,16.022,16.022,0,0,0-.556,1.92v0.05a11.032,11.032,0,0,0-.152,1.819,8.314,8.314,0,0,0,1.617,5.1,6.615,6.615,0,0,0,4.3,2.628,6.877,6.877,0,0,0,1.465.152,12.716,12.716,0,0,0,1.415-.051,8.132,8.132,0,0,0,5.306-2.526,6.957,6.957,0,0,0,.758-1.061c0.152-.2.253-0.455,0.4-0.708H56.6A3.566,3.566,0,0,1,54.02,44.6a4.456,4.456,0,0,1-5.154-4.8H66.6C68.371,29.7,62.762,25.1,55.232,24.9H54.02c-6.569.4-11.724,4.245-13.24,11.875C39.365,43.746,43.256,50.618,52.4,50.618c0.556,0,1.061,0,1.617-.051,6.367-.253,9.8-3.335,11.673-7.782H61.7A10.582,10.582,0,0,1,61.044,44.1ZM54.02,30.809a4.6,4.6,0,0,1,.859-0.051A3.456,3.456,0,0,1,58.264,35h-8.54A5.242,5.242,0,0,1,54.02,30.809Zm59.628-.758a16.788,16.788,0,0,0-8.287.809,9.61,9.61,0,0,0-4.6,4.3,14.51,14.51,0,0,0-1.011,2.375,2.214,2.214,0,0,0-.1.505L97.377,49.4h4.043l2.526-12.936a6.126,6.126,0,0,1,.354-0.859c1.768-2.83,5.053-2.729,8.641-1.971ZM98.59,37.58l2.174-11.117,0.2-1.112h-3.74L92.526,49.4h3.74l2.122-10.814A3.975,3.975,0,0,1,98.59,37.58Zm1.971-4.194a1.047,1.047,0,0,1,.2-0.3,10.548,10.548,0,0,1,4.143-3.234,17.184,17.184,0,0,1,8.944-.859l0.658-3.538c-2.628-.556-5.862-0.808-8.591,1.011l0.253-1.112h-4.043l-1.364,6.923ZM90.3,47.738l2.83-14.3a11.265,11.265,0,0,0,.2-1.718V31.112c-0.2-5.357-5.609-6.317-10.763-6.317a28.5,28.5,0,0,0-3.487.151c-3.992.505-8.338,2.173-9.45,7.732h3.234a7.165,7.165,0,0,1,4.851-4.9c0.455-.152.859-0.3,1.263-0.4h0.1a11.941,11.941,0,0,1,2.779-.353,12.429,12.429,0,0,1,5.71,1.01c1.617,0.86,2.526,2.325,2.021,4.75L86.614,47.839a1.284,1.284,0,0,0,.2.859,2.872,2.872,0,0,0,.657.707h3.436A1.837,1.837,0,0,1,90.3,47.738ZM85.855,49.3a2.145,2.145,0,0,1-.3-1.667L88.028,35c-1.516,1.263-4.043,2.173-7.277,2.628-0.556.05-1.112,0.151-1.667,0.253a2.151,2.151,0,0,1-.556.1c-0.708.152-1.415,0.354-2.072,0.506-3.082.96-5.306,2.425-5.659,4.7a3.886,3.886,0,0,0-.1.758,2.923,2.923,0,0,0,.758,1.971,3.99,3.99,0,0,0,2.375,1.264,7.14,7.14,0,0,0,1.566.152,11.815,11.815,0,0,0,3.639-.556h0.05a9.376,9.376,0,0,0,3.487-2.072l-0.3,1.718a12.641,12.641,0,0,1-2.88,1.415c-0.1,0-.2.05-0.3,0.05a13.513,13.513,0,0,1-3.689.505,9.219,9.219,0,0,1-1.768-.151,5.786,5.786,0,0,1-3.032-1.566,4.144,4.144,0,0,1-1.011-2.729,6.2,6.2,0,0,1,.1-0.96c0.455-2.729,2.931-4.5,6.468-5.559,0.657-.2,1.415-0.354,2.122-0.505,0.3-.051.556-0.1,0.809-0.152,0.505-.1,1.011-0.2,1.516-0.252,3.284-.455,5.811-1.415,7.075-2.729a3.656,3.656,0,0,0,.556-0.758,2.393,2.393,0,0,0,.3-0.758,2.826,2.826,0,0,0-1.516-3.234,11.221,11.221,0,0,0-5.154-.91,10.416,10.416,0,0,0-2.577.354,0.3,0.3,0,0,0-.2.05,3.523,3.523,0,0,0-.96.3,6.285,6.285,0,0,0-4.144,3.84h3.941a3.125,3.125,0,0,1,1.163-1.92A4.636,4.636,0,0,1,81.762,30c1.466,0,3.436.809,3.032,2.88C84.542,34.3,82.975,34.548,79.084,35l-0.758.051c-5.255.657-10.763,1.314-11.976,7.176-0.808,4.3,1.971,8.085,7.529,8.085a16.943,16.943,0,0,0,5.205-.606,14.566,14.566,0,0,0,2.779-1.264,1.366,1.366,0,0,0,.3.96h3.79A0.192,0.192,0,0,1,85.855,49.3ZM83.43,40.411a5.557,5.557,0,0,1-4.346,4.447,5.636,5.636,0,0,1-.96.1c-2.173,0-3.133-1.617-2.628-3.032,0.505-1.213,1.971-1.819,3.588-2.173,1.667-.353,3.487-0.455,4.649-0.859C83.582,39.652,83.632,39.5,83.43,40.411Zm41.033-6.772c-1.617-.5-2.729-1.162-2.426-2.476,0.152-.91,1.213-1.516,2.426-1.769a8.275,8.275,0,0,1,1.111-.1c1.921,0,3.79,1.011,3.437,3.032H132.7a4.734,4.734,0,0,0-2.022-3.638,8.739,8.739,0,0,0-4.952-1.314h-0.051a11.7,11.7,0,0,0-1.212.1c-0.152.05-.354,0.05-0.506,0.1a10.342,10.342,0,0,0-1.213.253c-2.021.606-3.941,1.819-4.3,3.537v0.051c-0.556,2.982,2.678,3.841,6.014,4.7h0.05c4.043,1.061,8.187,2.173,7.328,6.822H131.79a3.824,3.824,0,0,1-.4,1.213,4.053,4.053,0,0,1-.758,1.061,9.758,9.758,0,0,1-6.165,2.476,15.3,15.3,0,0,1-1.567.1V47.738h-0.152a9.816,9.816,0,0,1-5.861-1.566,6.067,6.067,0,0,1-2.476-4.7h-2.78a2.984,2.984,0,0,0-.1.657v1.011c0.354,4.043,4.8,7.226,10.966,7.024,0.707,0,1.364,0,1.971-.05,6.973-.455,9.652-3.335,10.46-7.377C136.186,35.205,128.556,34.9,124.463,33.639Zm2.324-9.551c-0.758,0-1.566.051-2.324,0.1-5.1.455-9.551,2.476-10.461,7.125-1.465,7.479,6.266,7.782,10.461,9,1.667,0.505,2.728,1.112,2.476,2.375-0.2,1.213-1.112,1.819-2.476,2.072a7.2,7.2,0,0,1-1.87.151c-2.375,0-4.144-1.313-3.689-3.436h-3.335a4.865,4.865,0,0,0,1.971,3.79,8.58,8.58,0,0,0,5.2,1.415H122.9c0.556,0,1.061,0,1.567-.05a8.337,8.337,0,0,0,5.306-2.173,4.279,4.279,0,0,0,.606-0.809,3.393,3.393,0,0,0,.354-0.91c0.657-3.538-2.78-4.548-6.266-5.458l-0.253-.05c-3.891-1.011-7.631-2.022-6.872-6.064h0.05c0.4-2.223,2.678-3.689,5-4.4l1.364-.3a3.427,3.427,0,0,1,.708-0.1,10.671,10.671,0,0,1,1.212-.1h0.051a9.454,9.454,0,0,1,5.559,1.516,5.523,5.523,0,0,1,2.526,4.548h2.578l0.05-.05V31.213C136.085,27.17,132.043,24.239,126.787,24.088Zm-46.53,40.5"/>
</svg>
