<svg xmlns="http://www.w3.org/2000/svg" width="148" height="66" viewBox="0 0 148 66">
  <defs>
    <style>
      .cls-1 {
        fill: #fff;
        fill-rule: evenodd;
      }
    </style>
  </defs>
  <path class="cls-1" d="M123.078,15.667a14.125,14.125,0,0,1,1.785-2.975l1.344-1.344a2.681,2.681,0,0,1,1.477-.652c1.247-.019,1.439,1.44.633,4.395A12.989,12.989,0,0,1,125.8,20.1a6.925,6.925,0,0,1-2.149,2,1.552,1.552,0,0,1-1.209.115c-0.479-.249-0.672-0.979-0.615-2.226a11.341,11.341,0,0,1,1.248-4.318h0ZM121.447,24.8c4.951-.538,8.828-3.129,11.61-7.734l0.538-1.056s1.24-2.793.629-4.9a4.092,4.092,0,0,0-1.686-2.389,5.906,5.906,0,0,0-4.509-.423,13.97,13.97,0,0,0-10.19,7.849,7.412,7.412,0,0,0-1.227,2.592,6.74,6.74,0,0,0-.212,2.993c0.346,2.4,2.034,3.435,5.047,3.071h0Zm-10.708-11.63-0.1-.077V13.077a4.008,4.008,0,0,0-4.011-2.092,5.076,5.076,0,0,0-2.015.672,2.918,2.918,0,0,0-1.075.844,0.34,0.34,0,0,0,.211.576,7.065,7.065,0,0,1,1.728.441,2.45,2.45,0,0,1,1.228,2.4,33.549,33.549,0,0,1-1.439,9.116c-0.558,1.208-.192,1.784,1.075,1.765l3.53-.459c1.363-.346,2.072-0.787,2.131-1.363l0.038-1.056a47.983,47.983,0,0,0-.442-7.657l0.019-.153c1.229-2.438,2.822-3.9,4.837-4.452a2.12,2.12,0,0,1,2.206.767c0.23,0.192.384,0.269,0.48,0.192a2.934,2.934,0,0,0,1.5-1.555,2.871,2.871,0,0,0,.519-2.015c-0.059-1.056-.807-1.573-2.208-1.516q-4.173.346-8.156,5.565l-0.057.077h0ZM90.167,1.582C89.63,0.372,88.575-.107,87,0.123a13.891,13.891,0,0,0-5.22,1.5c-0.212.154-.153,0.326,0.231,0.422,0.9,0.288,1.573,1.209,2.053,2.745,2.13,6.044,3.377,13.47,3.742,22.2a1.915,1.915,0,0,0,.768,1.843c1.113,0.67,2.782.286,5.008-1.113a29.022,29.022,0,0,0,5.834-5.029,13.8,13.8,0,0,0,3.664-6.064c0.558-2.206-.191-3.685-2.206-4.394a7.713,7.713,0,0,0-5.085.269,12.441,12.441,0,0,0-3.454,1.919l-0.154-.135c-0.518-4.835-.9-7.771-1.152-8.865L90.646,3.443a8.5,8.5,0,0,0-.48-1.861h0Zm3.128,23.546-0.863-8.482c2.111-1.631,3.55-1.785,4.3-.5,0.673,1.114.6,2.687-.192,4.7a8.328,8.328,0,0,1-3.244,4.279h0Zm7.177,3.935a45.962,45.962,0,0,1-9.308,8.961,49.407,49.407,0,0,1-15.333,7.005q-13.9,3.768-24.871,0l-0.326-.077a0.586,0.586,0,0,0-.1.614c0.672,9.249,7.349,15.6,20.111,19.133a32.852,32.852,0,0,0,13.663.882,24.047,24.047,0,0,0,11.9-5.084,20.717,20.717,0,0,0,7.062-11.342q1.986-7.774-.595-17.983l-0.231-.708a0.275,0.275,0,0,0-.344-0.155c-0.365.04-.46,0.25-0.365,0.634a34.448,34.448,0,0,1,.9,6.793,33.647,33.647,0,0,1-.729,8.462Q99.608,56.62,90.59,60.38a27.242,27.242,0,0,1-18.02.96,31.343,31.343,0,0,1-9.039-4.261A19.163,19.163,0,0,1,58.6,52.532a7.348,7.348,0,0,1-1.191-2.3l0.1-.058a44.936,44.936,0,0,0,7.753.04,51.3,51.3,0,0,0,15.276-3.3,44.662,44.662,0,0,0,14.181-9.078c3.455-3.3,5.68-6.236,6.716-8.826,0.193-.365.193-0.614-0.038-0.709a0.386,0.386,0,0,0-.537.286l-0.384.481h0ZM14.6,28.16a21.985,21.985,0,0,0,7.5-1.306l6.333-1.63,1.515,9.882c0.346,1.594.691,2.534,1.075,2.782l0.767,0.384,2.016-.133c2.59-.251,3.876-0.69,3.876-1.363l-0.1-.747L35.532,23.4l7-1.766,1.42,9.536,0.672,3.263c0.383,1.115,1.016,1.631,1.881,1.536a7.672,7.672,0,0,0,3.934-1.055,0.645,0.645,0,0,0,.153-0.807L50.29,33.38a66.48,66.48,0,0,1-2.725-12.723l8.059-1.189c-3.742,3.875-5.027,7.235-3.8,10.075a4.094,4.094,0,0,0,2.015,2.244,4.679,4.679,0,0,0,2.936.251c2.4-.441,4.567-1.958,6.564-4.508,1.111,3.224,3.415,4.316,6.928,3.2a0.256,0.256,0,0,0,.268-0.23,0.528,0.528,0,0,0-.326-0.479c-1.19-.539-1.862-1.824-1.958-3.8a24.121,24.121,0,0,1,.423-5.123l0.537-3.032c0-.9-0.48-1.228-1.438-1a8.933,8.933,0,0,0-2.265.921,13.638,13.638,0,0,0-1.478.959,4.412,4.412,0,0,0-.69,1.479,17.483,17.483,0,0,1-4.683,8.213c-1.44,1.324-2.226,1.439-2.36.328a6.434,6.434,0,0,1,.825-3.4,19.575,19.575,0,0,1,6.14-7.638,13.214,13.214,0,0,1,2.572-1.477,0.419,0.419,0,0,0,.307-0.4,0.584,0.584,0,0,0-.576-0.48l-2.456-.1a103.509,103.509,0,0,0-15.871,2.3l-0.308-5.316a50.481,50.481,0,0,1,.308-8.789,1.049,1.049,0,0,0-.384-1.19A2.33,2.33,0,0,0,45.07,2.2a11.766,11.766,0,0,0-4.74,1.477q-0.431.231-.288,0.4l0.23,0.192,0.346,0.46c0.268,0.287.461,1.363,0.556,3.185L42.191,18.93,35.13,20.753c-0.461-3.2-.768-6.122-1-8.732L33.69,5.881c0.058-1.382-.384-2.054-1.324-2.054a11.342,11.342,0,0,0-3.473.825,15.356,15.356,0,0,0-4.414,2.341c-0.365.288-.422,0.518-0.23,0.672l0.288,0.152,0.192,0.077a1.633,1.633,0,0,1,1.094,1.363c0.729,3.627,1.343,6.889,1.784,9.825l-0.134.039C21.466,20.715,17,22.384,14.02,24.13a2.859,2.859,0,0,0-1.4,2.521A1.869,1.869,0,0,0,14.6,28.16h0Zm13.491-5.585c-4.509,1.171-7.388,1.881-8.693,2.035-1,.23-1.536.174-1.574-0.192-0.038-.249.384-0.6,1.247-1.056A37.213,37.213,0,0,1,27.7,20.235l0.058-.038,0.326,2.379h0Zm56.707-8.482a19.215,19.215,0,0,0-3.684.921c-3.281,1.344-5.047,2.783-5.277,4.357a2.583,2.583,0,0,0,.1,1.382,1.989,1.989,0,0,0,1.152,1.17c0.807,0.288,2.688.806,5.738,1.535,1.881,0.46,2.937,1.151,3.09,2.11,0.863,2.208-.1,4.78-2.9,7.657A25.21,25.21,0,0,1,78.02,37.7a13.682,13.682,0,0,1-4.106,1.669c-1.842.441-3.512-.461-4.99-2.725l-0.5-.73a1.413,1.413,0,0,1-.365-0.864,0.419,0.419,0,0,1,.422-0.363l0.442,0.075a1.769,1.769,0,0,0,.614.346,4.144,4.144,0,0,0,4.259-.574,26.116,26.116,0,0,0,3.839-3.512l1.459-1.9,0.652-1.266a2.362,2.362,0,0,0,0-2.053c-0.48-.729-1.669-1.209-3.492-1.381l0.134-.019c-1.056-.174-2.246-0.384-3.627-0.748A2.841,2.841,0,0,1,70.65,22.1c-0.959-2.687.269-5.373,3.685-8.1a16.928,16.928,0,0,1,6.756-3.837c2.033-.422,3.28.48,3.7,2.686L84.929,14l-0.135.1h0Z"/>
</svg>
