<svg id="Fancy" xmlns="http://www.w3.org/2000/svg" width="254" height="254" viewBox="0 0 254 254">
  <defs>
    <style>
      .cls-1 {
        fill: #3995de;
      }

      .cls-1, .cls-2 {
        fill-rule: evenodd;
      }

      .cls-2 {
        fill: #fff;
      }
    </style>
  </defs>
  <path id="_" data-name="#" class="cls-1" d="M226.665,254H27.325A27.325,27.325,0,0,1,0,226.674V27.335A27.325,27.325,0,0,1,27.325.01h199.34A27.324,27.324,0,0,1,253.99,27.335V226.674A27.325,27.325,0,0,1,226.665,254Z"/>
  <path id="_2" data-name="#" class="cls-2" d="M180,150.906V152a14,14,0,0,1-14,14h-0.662c-0.158.006-.316,0.028-0.474,0.028L153.61,166h-13.6v29.063a13,13,0,0,1-26,0L114,166H100.351l-11.3.028c-0.159,0-.316-0.022-0.474-0.028H88a14,14,0,0,1-14-14V124c0-.028,0-0.055,0-0.084L73.99,101.094a53.006,53.006,0,1,1,106.011,0v49.8C180,150.9,180,150.9,180,150.906Z"/>
</svg>
