<svg xmlns="http://www.w3.org/2000/svg" width="20" height="24" viewBox="0 0 20 24">
  <defs>
    <style>
      .cls-1 {
        fill: #2bd4a7;
        fill-rule: evenodd;
      }
    </style>
  </defs>
  <path id="_" data-name="#" class="cls-1" d="M17.651,22.5a1.5,1.5,0,0,1-1.5,1.5H2.849a1.5,1.5,0,0,1-1.5-1.5L0,8.5A1.5,1.5,0,0,1,1.5,7H5V4.125A4.109,4.109,0,0,1,9,0h1a4.109,4.109,0,0,1,4,4.125V7h3.5A1.5,1.5,0,0,1,19,8.5ZM12.189,4.067v-0.1A2.342,2.342,0,0,0,9.857,1.628H9.143A2.342,2.342,0,0,0,6.811,3.969v3h5.378v-2.9Zm4.444,4.695H2.367a0.451,0.451,0,0,0-.45.421L3.129,21.707l0,0.04v0.041a0.451,0.451,0,0,0,.451.451H15.417a0.451,0.451,0,0,0,.451-0.451V21.747l0-.04L17.083,9.183A0.452,0.452,0,0,0,16.633,8.762Z"/>
</svg>
