<svg xmlns="http://www.w3.org/2000/svg" width="16" height="18" viewBox="0 0 16 18">
  <defs>
    <style>
      .cls-1 {
        fill: #2bd4a7;
        fill-rule: evenodd;
      }
    </style>
  </defs>
  <path id="_" data-name="#" class="cls-1" d="M13.926,16.732a1.188,1.188,0,0,1-1.188,1.188H2.231a1.188,1.188,0,0,1-1.188-1.188L-0.026,6.2A1.188,1.188,0,0,1,1.163,5.016H4V3.238A3.2,3.2,0,0,1,7.1-.029H7.9A3.2,3.2,0,0,1,11,3.238V5.016h2.8A1.188,1.188,0,0,1,14.994,6.2ZM9.891,3.309V3.218A2.086,2.086,0,0,0,7.832,1.039H7.168A2.086,2.086,0,0,0,5.109,3.218V4.989H9.891V3.309ZM13.466,5.99H1.5a0.379,0.379,0,0,0-.378.354L2.144,16.5l0,0.034v0.034a0.379,0.379,0,0,0,.379.379h9.917a0.379,0.379,0,0,0,.379-0.379V16.533l0-.034L13.844,6.344A0.379,0.379,0,0,0,13.466,5.99Z"/>
</svg>
