<svg xmlns="http://www.w3.org/2000/svg" width="24" height="24" viewBox="0 0 24 24">
  <defs>
    <style>
      .cls-1 {
        fill: #fff;
        fill-rule: evenodd;
      }
    </style>
  </defs>
  <path id="_" data-name="#" class="cls-1" d="M11.5,23A11.5,11.5,0,1,1,23,11.5,11.5,11.5,0,0,1,11.5,23Zm0-21.406A9.906,9.906,0,1,0,21.406,11.5,9.905,9.905,0,0,0,11.5,1.594ZM9.753,15.917A0.488,0.488,0,0,1,9,15.493V7.538a0.488,0.488,0,0,1,.752-0.425l5.994,3.963a0.513,0.513,0,0,1,0,.848Zm4-4.591L10.8,9.337a0.221,0.221,0,0,0-.343.191v3.979a0.221,0.221,0,0,0,.343.191l2.946-1.99A0.233,0.233,0,0,0,13.751,11.326Z"/>
</svg>
