<?xml version="1.0" standalone="no"?>
<!DOCTYPE svg PUBLIC "-//W3C//DTD SVG 20010904//EN"
 "http://www.w3.org/TR/2001/REC-SVG-20010904/DTD/svg10.dtd">
<svg version="1.0" xmlns="http://www.w3.org/2000/svg"
 width="200.000000pt" height="200.000000pt" viewBox="0 0 200.000000 200.000000"
 preserveAspectRatio="xMidYMid meet">
<metadata>
Created by potrace 1.11, written by Peter Selinger 2001-2013
</metadata>
<g transform="translate(0.000000,200.000000) scale(0.100000,-0.100000)"
fill="#000000" stroke="none">
<path d="M905 1994 c-155 -22 -246 -49 -365 -110 -266 -136 -457 -393 -521
-699 -7 -33 -13 -116 -13 -185 0 -69 6 -152 13 -185 86 -410 386 -710 796
-796 77 -16 293 -16 370 0 410 86 710 386 796 796 7 33 13 116 13 185 0 69 -6
152 -13 185 -84 403 -382 707 -775 791 -71 15 -248 26 -301 18z m-554 -800 c9
-11 10 -20 2 -32 -8 -13 -29 -18 -97 -20 l-86 -3 0 -44 0 -44 76 -3 c81 -3
104 -17 91 -52 -5 -13 -22 -16 -87 -16 l-80 0 0 -49 c0 -61 -7 -81 -29 -81
-36 0 -41 20 -41 176 0 125 3 155 16 168 23 23 216 23 235 0z m251 -1 c26 -29
141 -310 135 -327 -11 -29 -46 -18 -64 19 l-17 35 -85 0 -86 0 -15 -33 c-16
-35 -54 -48 -63 -23 -8 20 118 316 140 334 23 17 37 15 55 -5z m366 -102 c48
-66 89 -120 92 -120 3 -1 5 49 5 110 0 97 2 113 18 123 15 9 21 7 33 -8 19
-26 21 -315 2 -334 -27 -27 -49 -10 -135 105 l-88 117 -5 -115 c-5 -114 -5
-114 -30 -114 l-25 0 -3 164 c-3 165 2 191 34 191 8 0 53 -54 102 -119z m505
94 c42 -20 54 -43 33 -64 -14 -13 -19 -13 -51 2 -20 9 -49 17 -66 17 -116 0
-156 -149 -57 -210 39 -24 73 -25 112 -5 37 20 62 19 70 -1 15 -40 -64 -79
-145 -72 -129 13 -200 166 -126 275 12 18 45 45 72 59 56 28 97 28 158 -1z
m225 -55 c31 -43 59 -79 62 -79 3 0 19 21 37 47 18 26 45 62 61 81 25 30 31
32 50 22 12 -6 22 -16 22 -20 0 -5 -31 -51 -70 -103 -67 -90 -69 -95 -72 -158
-3 -62 -4 -65 -28 -65 -24 0 -25 3 -28 64 -3 62 -6 69 -66 150 -34 47 -65 91
-69 98 -7 12 17 43 34 43 5 0 35 -36 67 -80z"/>
<path d="M546 1057 c-14 -32 -26 -62 -26 -67 0 -6 25 -10 55 -10 30 0 55 3 54
8 0 4 -13 34 -29 67 l-28 60 -26 -58z"/>
</g>
</svg>
