<svg xmlns="http://www.w3.org/2000/svg" width="22" height="20" viewBox="0 0 22 20">
  <defs>
    <style>
      .cls-1 {
        fill: #0093db;
        fill-rule: evenodd;
      }
    </style>
  </defs>
  <path class="cls-1" d="M5.713,1.189A4.207,4.207,0,0,1,9.4,3.444l1.031,1.807,1.048-1.8a4.407,4.407,0,0,1,3.808-2.264c2.353,0,4.243,2.051,4.494,4.876l0,0.04,0.006,0.04a5.238,5.238,0,0,1-.163,1.814,8.574,8.574,0,0,1-2.55,4.359l-6.633,6.062L3.93,12.323A8.581,8.581,0,0,1,1.372,7.958a5.208,5.208,0,0,1-.163-1.811l0.006-.041,0-.041C1.47,3.24,3.36,1.189,5.713,1.189m0-1.2C2.722-.011.331,2.5,0.024,5.959A6.3,6.3,0,0,0,.2,8.228,9.778,9.778,0,0,0,3.113,13.2l7.324,6.808L17.887,13.2A9.779,9.779,0,0,0,20.8,8.228a6.318,6.318,0,0,0,.179-2.268c-0.307-3.46-2.7-5.97-5.689-5.97a5.631,5.631,0,0,0-4.845,2.86A5.43,5.43,0,0,0,5.713-.011h0Z"/>
</svg>
