<svg xmlns="http://www.w3.org/2000/svg" width="110" height="26" viewBox="0 0 110 26">
  <defs>
    <style>
      .cls-1 {
        fill: #0093db;
      }

      .cls-1, .cls-2 {
        fill-rule: evenodd;
      }

      .cls-2 {
        fill: #45b9f4;
      }
    </style>
  </defs>
  <path id="_" data-name="#" class="cls-1" d="M5,24.943v-25H0.013v25H5Zm27.015,0h5v-13h4V7.96H37V5.838c0.017-1.334.547-1.906,2.072-1.906a15.075,15.075,0,0,1,1.918.121V0.16a24.113,24.113,0,0,0-2.87-.173c-4.418,0-6.106,1.507-6.106,5.181V7.96H28.992v3.986h3.019v13Zm-23,0h5V14.249a3.923,3.923,0,0,1,4.117-4.169c2.391,0,3.868,1.282,3.868,3.812V24.943h5V12.9c0-4.453-2.627-6.9-6.855-6.9-2.928,0-4.948.876-6.04,3.284h-0.1V5.991H9.007V24.943Z"/>
  <path id="_2" data-name="#" class="cls-2" d="M102.775,8.51c-2.3,0-3.83,1.092-3.83,2.72,0,1.265,1,2.114,3.14,2.651l2.829,0.71c3.762,0.953,5.107,2.27,5.107,4.99,0,3.188-3.053,5.441-7.35,5.441-4,0-6.9-2.183-7.194-5.423H98.5c0.311,1.906,1.846,2.928,4.383,2.928S107,21.471,107,19.79c0-1.317-.776-2.01-2.9-2.565l-3.26-.849c-3.261-.849-4.849-2.5-4.849-4.99,0-3.154,2.847-5.372,6.885-5.372,3.778,0,6.642,2.27,6.763,5.337h-2.881C106.571,9.6,105.052,8.51,102.775,8.51Zm-16.69,5.371,2.829,0.71c3.761,0.953,5.107,2.27,5.107,4.99,0,3.188-3.054,5.441-7.35,5.441-4,0-6.9-2.183-7.195-5.423H82.5c0.311,1.906,1.846,2.928,4.382,2.928S91,21.471,91,19.79c0-1.317-.776-2.01-2.9-2.565l-3.261-.849c-3.261-.849-4.848-2.5-4.848-4.99,0-3.154,2.847-5.372,6.884-5.372,3.778,0,6.642,2.27,6.763,5.337H90.761C90.571,9.6,89.052,8.51,86.775,8.51c-2.295,0-3.83,1.092-3.83,2.72C82.945,12.5,83.946,13.344,86.085,13.882Zm-11.1,7.805H74.921a6.24,6.24,0,0,1-5.771,3.336c-3.7,0-6.152-2.1-6.152-5.426,0-3.221,2.4-5.119,6.828-5.4l5.167-.313V12.319c0-2.333-1.55-3.622-4.237-3.622-2.113,0-3.684,1.114-4.039,2.891H63.894C63.978,8.418,66.97,6,70.789,6,75.1,6,78,8.366,78,12.057V24.943H74.988V21.687Zm0-5.4-4.829.313c-2.738.174-4.158,1.2-4.158,3.012,0,1.741,1.47,2.873,3.769,2.873,2.975,0,5.217-1.985,5.217-4.684V16.289Zm-21.04-.269H48.006v8.924H45.013v-25h8.975a7.673,7.673,0,0,1,8.005,8.022A7.719,7.719,0,0,1,53.953,16.02ZM53.532,2.963H48.006V13.075h5.526c3.5,0,5.505-1.88,5.505-5.073C59.038,4.826,57.05,2.963,53.532,2.963Z"/>
</svg>
