<svg xmlns="http://www.w3.org/2000/svg" width="34" height="26" viewBox="0 0 34 26">
  <defs>
    <style>
      .cls-1 {
        fill: #0093db;
        fill-rule: evenodd;
      }
    </style>
  </defs>
  <path id="_" data-name="#" class="cls-1" d="M19.844,12.984L29.759,22.9a1,1,0,0,1,0,1.414l-1.414,1.414a1,1,0,0,1-1.414,0l-9.915-9.915L7.1,25.728a1,1,0,0,1-1.414,0L4.272,24.314a1,1,0,0,1,0-1.414l9.915-9.915L4.3,3.1a1,1,0,0,1,0-1.414L5.718,0.272a1,1,0,0,1,1.414,0l9.884,9.884L26.9,0.272a1,1,0,0,1,1.414,0l1.414,1.414a1,1,0,0,1,0,1.414Z"/>
</svg>
