<svg xmlns="http://www.w3.org/2000/svg" width="46" height="46" viewBox="0 0 46 46">
  <metadata><?xpacket begin="﻿" id="W5M0MpCehiHzreSzNTczkc9d"?>
<x:xmpmeta xmlns:x="adobe:ns:meta/" x:xmptk="Adobe XMP Core 5.6-c140 79.160451, 2017/05/06-01:08:21        ">
   <rdf:RDF xmlns:rdf="http://www.w3.org/1999/02/22-rdf-syntax-ns#">
      <rdf:Description rdf:about=""/>
   </rdf:RDF>
</x:xmpmeta>
                                                                                                    
                                                                                                    
                                                                                                    
                                                                                                    
                                                                                                    
                                                                                                    
                                                                                                    
                                                                                                    
                                                                                                    
                                                                                                    
                                                                                                    
                                                                                                    
                                                                                                    
                                                                                                    
                                                                                                    
                                                                                                    
                                                                                                    
                                                                                                    
                                                                                                    
                                                                                                    
                           
<?xpacket end="w"?></metadata>
<defs>
    <style>
      .cls-1 {
        fill: #2a3139;
        fill-rule: evenodd;
      }
    </style>
  </defs>
  <path id="_" data-name="#" class="cls-1" d="M38.246,4H7.754A4.754,4.754,0,0,0,3,8.754V37.246A4.754,4.754,0,0,0,7.754,42H38.246A4.754,4.754,0,0,0,43,37.246V8.754A4.754,4.754,0,0,0,38.246,4ZM8.605,8H37.4A1.6,1.6,0,0,1,39,9.6V27.385a1.6,1.6,0,0,1-1.6,1.6h-4.9A2.928,2.928,0,0,0,29.679,31a6.978,6.978,0,0,1-13.357,0,2.927,2.927,0,0,0-2.827-2.021H8.608A1.608,1.608,0,0,1,7,27.376V9.605A1.605,1.605,0,0,1,8.605,8Z"/>
</svg>
