<svg xmlns="http://www.w3.org/2000/svg" width="46" height="46" viewBox="0 0 46 46">
  <metadata><?xpacket begin="﻿" id="W5M0MpCehiHzreSzNTczkc9d"?>
<x:xmpmeta xmlns:x="adobe:ns:meta/" x:xmptk="Adobe XMP Core 5.6-c140 79.160451, 2017/05/06-01:08:21        ">
   <rdf:RDF xmlns:rdf="http://www.w3.org/1999/02/22-rdf-syntax-ns#">
      <rdf:Description rdf:about=""/>
   </rdf:RDF>
</x:xmpmeta>
                                                                                                    
                                                                                                    
                                                                                                    
                                                                                                    
                                                                                                    
                                                                                                    
                                                                                                    
                                                                                                    
                                                                                                    
                                                                                                    
                                                                                                    
                                                                                                    
                                                                                                    
                                                                                                    
                                                                                                    
                                                                                                    
                                                                                                    
                                                                                                    
                                                                                                    
                                                                                                    
                           
<?xpacket end="w"?></metadata>
<defs>
    <style>
      .cls-1 {
        fill: #2a3139;
        fill-rule: evenodd;
      }
    </style>
  </defs>
  <path id="_" data-name="#" class="cls-1" d="M23.532,3C11.673,3,2.06,12.178,2.06,23.5A19.789,19.789,0,0,0,6.4,35.82a43.689,43.689,0,0,1-4.008,4.9A2.07,2.07,0,0,0,4.1,44a26.99,26.99,0,0,0,10.143-2.037A22.186,22.186,0,0,0,23.532,44C35.39,44,45,34.822,45,23.5S35.39,3,23.532,3ZM13.5,26.01A2.51,2.51,0,1,1,16,23.5,2.509,2.509,0,0,1,13.5,26.01Zm10,0A2.511,2.511,0,1,1,25.993,23.5,2.5,2.5,0,0,1,23.5,26.01Zm10,0A2.51,2.51,0,1,1,36.01,23.5,2.509,2.509,0,0,1,33.5,26.01Z"/>
</svg>
