<svg xmlns="http://www.w3.org/2000/svg" width="46" height="46" viewBox="0 0 46 46">
  <metadata><?xpacket begin="﻿" id="W5M0MpCehiHzreSzNTczkc9d"?>
<x:xmpmeta xmlns:x="adobe:ns:meta/" x:xmptk="Adobe XMP Core 5.6-c140 79.160451, 2017/05/06-01:08:21        ">
   <rdf:RDF xmlns:rdf="http://www.w3.org/1999/02/22-rdf-syntax-ns#">
      <rdf:Description rdf:about=""/>
   </rdf:RDF>
</x:xmpmeta>
                                                                                                    
                                                                                                    
                                                                                                    
                                                                                                    
                                                                                                    
                                                                                                    
                                                                                                    
                                                                                                    
                                                                                                    
                                                                                                    
                                                                                                    
                                                                                                    
                                                                                                    
                                                                                                    
                                                                                                    
                                                                                                    
                                                                                                    
                                                                                                    
                                                                                                    
                                                                                                    
                           
<?xpacket end="w"?></metadata>
<defs>
    <style>
      .cls-1 {
        fill: #2a3139;
        fill-rule: evenodd;
      }
    </style>
  </defs>
  <path id="_" data-name="#" class="cls-1" d="M38.246,43H8.755A4.754,4.754,0,0,1,4,38.246V8.755A4.754,4.754,0,0,1,8.755,4H38.246A4.754,4.754,0,0,1,43,8.755V38.246A4.754,4.754,0,0,1,38.246,43ZM39,9.6A1.6,1.6,0,0,0,37.4,8H9.605A1.605,1.605,0,0,0,8,9.606V37.376a1.608,1.608,0,0,0,1.608,1.608H37.4a1.6,1.6,0,0,0,1.6-1.6V9.6ZM11,11H36V23H11V11ZM21,36H11V26H21V36Zm4-8h9a1,1,0,1,1,0,2H25A1,1,0,1,1,25,28Zm0,4h9a1,1,0,1,1,0,2H25A1,1,0,1,1,25,32Z"/>
</svg>
