<svg xmlns="http://www.w3.org/2000/svg" width="46" height="46" viewBox="0 0 46 46">
  <metadata><?xpacket begin="﻿" id="W5M0MpCehiHzreSzNTczkc9d"?>
<x:xmpmeta xmlns:x="adobe:ns:meta/" x:xmptk="Adobe XMP Core 5.6-c140 79.160451, 2017/05/06-01:08:21        ">
   <rdf:RDF xmlns:rdf="http://www.w3.org/1999/02/22-rdf-syntax-ns#">
      <rdf:Description rdf:about=""/>
   </rdf:RDF>
</x:xmpmeta>
                                                                                                    
                                                                                                    
                                                                                                    
                                                                                                    
                                                                                                    
                                                                                                    
                                                                                                    
                                                                                                    
                                                                                                    
                                                                                                    
                                                                                                    
                                                                                                    
                                                                                                    
                                                                                                    
                                                                                                    
                                                                                                    
                                                                                                    
                                                                                                    
                                                                                                    
                                                                                                    
                           
<?xpacket end="w"?></metadata>
<defs>
    <style>
      .cls-1 {
        fill: #2a3139;
        fill-rule: evenodd;
      }
    </style>
  </defs>
  <path id="_" data-name="#" class="cls-1" d="M41.246,40H4.754A4.754,4.754,0,0,1,0,35.246V10.755A4.754,4.754,0,0,1,4.754,6H41.246A4.754,4.754,0,0,1,46,10.755V35.246A4.754,4.754,0,0,1,41.246,40ZM42,11.6A1.6,1.6,0,0,0,40.4,10H5.605A1.605,1.605,0,0,0,4,11.606V34.376a1.608,1.608,0,0,0,1.608,1.608H40.4a1.6,1.6,0,0,0,1.6-1.6V11.6ZM23.769,27.589a2.047,2.047,0,0,1-.269.139,2.035,2.035,0,0,1-.208.107,2.145,2.145,0,0,1-.8.176h0a2.145,2.145,0,0,1-.8-0.176,2.035,2.035,0,0,1-.208-0.107,2.053,2.053,0,0,1-.269-0.139L7.8,17.573a1.95,1.95,0,0,1-.365-2.811,2.148,2.148,0,0,1,2.926-.352l12.125,9.059,12.125-9.059a2.146,2.146,0,0,1,2.926.352,1.95,1.95,0,0,1-.364,2.811Z"/>
</svg>
