<svg xmlns="http://www.w3.org/2000/svg" width="46" height="46" viewBox="0 0 46 46">
  <metadata><?xpacket begin="﻿" id="W5M0MpCehiHzreSzNTczkc9d"?>
<x:xmpmeta xmlns:x="adobe:ns:meta/" x:xmptk="Adobe XMP Core 5.6-c140 79.160451, 2017/05/06-01:08:21        ">
   <rdf:RDF xmlns:rdf="http://www.w3.org/1999/02/22-rdf-syntax-ns#">
      <rdf:Description rdf:about=""/>
   </rdf:RDF>
</x:xmpmeta>
                                                                                                    
                                                                                                    
                                                                                                    
                                                                                                    
                                                                                                    
                                                                                                    
                                                                                                    
                                                                                                    
                                                                                                    
                                                                                                    
                                                                                                    
                                                                                                    
                                                                                                    
                                                                                                    
                                                                                                    
                                                                                                    
                                                                                                    
                                                                                                    
                                                                                                    
                                                                                                    
                           
<?xpacket end="w"?></metadata>
<defs>
    <style>
      .cls-1 {
        fill: #2a3139;
        fill-rule: evenodd;
      }
    </style>
  </defs>
  <path id="_" data-name="#" class="cls-1" d="M39.822,35.124a1.851,1.851,0,0,1-1.71.882H7.889a1.851,1.851,0,0,1-1.71-.882,2.474,2.474,0,0,1,.119-2.07c2.481-6.318,2.792-7.415,3.173-12.118-0.006-.165.028-0.39,0.028-0.556A13.857,13.857,0,0,1,17.59,7.723c0.084-.023,1.034-0.4,1.5-0.569a0.293,0.293,0,0,0,.19-0.266,4.127,4.127,0,0,1,3.405-3.882h0.633a4.127,4.127,0,0,1,3.405,3.882,0.293,0.293,0,0,0,.19.266c0.464,0.164,1.414.546,1.5,0.569A13.857,13.857,0,0,1,36.5,20.38c0,0.166.035,0.391,0.029,0.556,0.381,4.7.691,5.8,3.173,12.118A2.474,2.474,0,0,1,39.822,35.124ZM23,44c-3.322,0-6.015-2.243-6.015-5.01h12.03C29.015,41.757,26.322,44,23,44Z"/>
</svg>
