<svg xmlns="http://www.w3.org/2000/svg" width="20" height="20" viewBox="0 0 20 20">
  <metadata><?xpacket begin="﻿" id="W5M0MpCehiHzreSzNTczkc9d"?>
<x:xmpmeta xmlns:x="adobe:ns:meta/" x:xmptk="Adobe XMP Core 5.6-c140 79.160451, 2017/05/06-01:08:21        ">
   <rdf:RDF xmlns:rdf="http://www.w3.org/1999/02/22-rdf-syntax-ns#">
      <rdf:Description rdf:about=""/>
   </rdf:RDF>
</x:xmpmeta>
                                                                                                    
                                                                                                    
                                                                                                    
                                                                                                    
                                                                                                    
                                                                                                    
                                                                                                    
                                                                                                    
                                                                                                    
                                                                                                    
                                                                                                    
                                                                                                    
                                                                                                    
                                                                                                    
                                                                                                    
                                                                                                    
                                                                                                    
                                                                                                    
                                                                                                    
                                                                                                    
                           
<?xpacket end="w"?></metadata>
<defs>
    <style>
      .cls-1 {
        fill: #1fa7e0;
        fill-rule: evenodd;
      }
    </style>
  </defs>
  <path class="cls-1" d="M808.25,351.92c-1.692-.72-4.938-2.15-5.686-2.506l-0.363-.172-0.786.792a8.918,8.918,0,0,1-2.511,1.883,6.783,6.783,0,0,1-3.131.782,4.4,4.4,0,0,1-3.287-1.208,3,3,0,0,1-.978-2.318,3.383,3.383,0,0,1,.75-2.15,4.377,4.377,0,0,1,3.066-1.465,17.66,17.66,0,0,1,5.64,1.05,0.687,0.687,0,0,0,.529.081,14.436,14.436,0,0,0,1.065-2.608c0-.031-1.442-0.053-3.716-0.053h-3.857v-1.006h4V342l-2.432-.015-2.488-.014-0.017-.559-0.017-.39h4.954v-1.09c0-.982.01-0.761,0.106-0.847s0.091-.1.983-0.1h0.932v2.032h5.009l-0.017.39-0.018.587-2.459-.014-2.515.015v1.021h2.069a14.632,14.632,0,0,1,1.957.013,19.249,19.249,0,0,1-.612,2.225c-0.113.293-.386,0.9-0.608,1.358a8.423,8.423,0,0,0-.383.844c0.011,0.009.176,0.071,0.366,0.136s0.863,0.306,1.5.535a43.892,43.892,0,0,0,4.535,1.414L810,349.6V339.236A3.239,3.239,0,0,0,806.777,336H793.222A3.238,3.238,0,0,0,790,339.236v13.528A3.238,3.238,0,0,0,793.222,356h13.555A3.239,3.239,0,0,0,810,352.764v-0.1Zm-13.864-4.926a2.979,2.979,0,0,0-1.709.867,1.646,1.646,0,0,0-.416,1.225,1.374,1.374,0,0,0,.163.832,2.793,2.793,0,0,0,1.8,1.318,5.852,5.852,0,0,0,2.382-.03,6.764,6.764,0,0,0,1.992-1,11.077,11.077,0,0,0,1.654-1.595l0.187-.243-0.282-.143A15.187,15.187,0,0,0,796.636,347,8.385,8.385,0,0,0,794.386,346.994Z" transform="translate(-790 -336)"/>
</svg>
