<svg xmlns="http://www.w3.org/2000/svg" viewBox="0 0 23 14">
  <defs>
    <style>
      .cls-1, .cls-6 {
        fill: none;
      }

      .cls-2 {
        fill: #fff;
        stroke: #2785fa;
      }

      .cls-3 {
        fill: #67a9fb;
        stroke: #fff;
      }

      .cls-4, .cls-5 {
        stroke: none;
      }

      .cls-5 {
        fill: #2785fa;
      }
    </style>
  </defs>
  <g id="Shipping" transform="translate(-13 -929)">
    <g id="Group_322" data-name="Group 322" transform="translate(0 -45)">
      <g id="Path_762" data-name="Path 762" class="cls-1" transform="translate(16 973)">
        <path class="cls-4" d="M3,1H14a2,2,0,0,1,2,2v8a2,2,0,0,1-2,2H3a2,2,0,0,1-2-2V3A2,2,0,0,1,3,1Z"/>
        <path class="cls-5" d="M 3 2 C 2.448599815368652 2 2 2.448599815368652 2 3 L 2 11 C 2 11.55140018463135 2.448599815368652 12 3 12 L 14 12 C 14.55140018463135 12 15 11.55140018463135 15 11 L 15 3 C 15 2.448599815368652 14.55140018463135 2 14 2 L 3 2 M 3 1 L 14 1 C 15.10457038879395 1 16 1.895429611206055 16 3 L 16 11 C 16 12.10457038879395 15.10457038879395 13 14 13 L 3 13 C 1.895429611206055 13 1 12.10457038879395 1 11 L 1 3 C 1 1.895429611206055 1.895429611206055 1 3 1 Z"/>
      </g>
      <g id="Path_761" data-name="Path 761" class="cls-1" transform="translate(32 975)">
        <path class="cls-4" d="M-1,1H2A2,2,0,0,1,4,3V9a2,2,0,0,1-2,2H1A2,2,0,0,1-1,9Z"/>
        <path class="cls-5" d="M 0 2 L 0 9 C 0 9.551400184631348 0.4486000537872314 10 1 10 L 2 10 C 2.551399946212769 10 3 9.551400184631348 3 9 L 3 3 C 3 2.448599815368652 2.551399946212769 2 2 2 L 0 2 M -1 1 L 2 1 C 3.104569911956787 1 4 1.895429611206055 4 3 L 4 9 C 4 10.10457038879395 3.104569911956787 11 2 11 L 1 11 C -0.1045699119567871 11 -1 10.10457038879395 -1 9 L -1 1 Z"/>
      </g>
      <g id="Ellipse_42" data-name="Ellipse 42" class="cls-2" transform="translate(29 983)">
        <circle class="cls-4" cx="2.5" cy="2.5" r="2.5"/>
        <circle class="cls-6" cx="2.5" cy="2.5" r="2"/>
      </g>
      <g id="Ellipse_43" data-name="Ellipse 43" class="cls-2" transform="translate(19 983)">
        <circle class="cls-4" cx="2.5" cy="2.5" r="2.5"/>
        <circle class="cls-6" cx="2.5" cy="2.5" r="2"/>
      </g>
      <g id="Rectangle_352" data-name="Rectangle 352" class="cls-3" transform="translate(14 978)">
        <rect class="cls-4" width="10" height="1" rx="0.5"/>
        <rect class="cls-6" x="-0.5" y="-0.5" width="11" height="2" rx="1"/>
      </g>
      <g id="Rectangle_353" data-name="Rectangle 353" class="cls-3" transform="translate(16 980)">
        <rect class="cls-4" width="8" height="1" rx="0.5"/>
        <rect class="cls-6" x="-0.5" y="-0.5" width="9" height="2" rx="1"/>
      </g>
    </g>
    <g id="Rectangle_355" data-name="Rectangle 355" class="cls-3" transform="translate(16 935)">
      <rect class="cls-4" width="8" height="1" rx="0.5"/>
      <rect class="cls-6" x="-0.5" y="-0.5" width="9" height="2" rx="1"/>
    </g>
  </g>
</svg>
