<svg id="Store_Links" data-name="Store Links" xmlns="http://www.w3.org/2000/svg" width="48" height="48" viewBox="0 0 48 48">
  <metadata><?xpacket begin="﻿" id="W5M0MpCehiHzreSzNTczkc9d"?>
<x:xmpmeta xmlns:x="adobe:ns:meta/" x:xmptk="Adobe XMP Core 5.6-c140 79.160451, 2017/05/06-01:08:21        ">
   <rdf:RDF xmlns:rdf="http://www.w3.org/1999/02/22-rdf-syntax-ns#">
      <rdf:Description rdf:about=""/>
   </rdf:RDF>
</x:xmpmeta>
                                                                                                    
                                                                                                    
                                                                                                    
                                                                                                    
                                                                                                    
                                                                                                    
                                                                                                    
                                                                                                    
                                                                                                    
                                                                                                    
                                                                                                    
                                                                                                    
                                                                                                    
                                                                                                    
                                                                                                    
                                                                                                    
                                                                                                    
                                                                                                    
                                                                                                    
                                                                                                    
                           
<?xpacket end="w"?></metadata>
<defs>
    <style>
      .cls-1 {
        fill: #2184dc;
      }

      .cls-1, .cls-2 {
        fill-rule: evenodd;
      }

      .cls-2 {
        fill: #fff;
        opacity: 0.95;
      }
    </style>
  </defs>
  <g id="My_Orders" data-name="My Orders">
    <path id="_" data-name="#" class="cls-1" d="M6-.036H42.009a6,6,0,0,1,6,6V41.976a6,6,0,0,1-6,6H6a6,6,0,0,1-6-6V5.966A6,6,0,0,1,6-.036Z"/>
    <path id="_2" data-name="#" class="cls-2" d="M31.547,35.966h-15.1a3.364,3.364,0,0,1-3.44-3.283V16.924a3.33,3.33,0,0,1,3.012-3.242v0.735A3.406,3.406,0,0,0,19.215,18h9.593a3.406,3.406,0,0,0,3.2-3.582V13.684a3.329,3.329,0,0,1,2.981,3.239v15.76A3.364,3.364,0,0,1,31.547,35.966ZM28.431,22.255a0.844,0.844,0,0,0-1.225,0l-4.5,5.479-1.9-2.146a0.852,0.852,0,0,0-1.236,0,0.932,0.932,0,0,0,0,1.284l2.516,2.84a0.894,0.894,0,0,0,1.264,0l5.088-6.188A0.924,0.924,0,0,0,28.431,22.255Zm0.1-6.271H19.492a1.542,1.542,0,0,1-1.507-1.575V13.622a1.542,1.542,0,0,1,1.507-1.575h2.464c0-.017-0.009-0.031-0.009-0.048a0.936,0.936,0,0,1,.878-0.985h2.341a0.936,0.936,0,0,1,.878.985c0,0.017-.008.031-0.009,0.048h2.5a1.542,1.542,0,0,1,1.507,1.575v0.788A1.542,1.542,0,0,1,28.535,15.984Z"/>
  </g>
</svg>
