<svg id="Store_Links" data-name="Store Links" xmlns="http://www.w3.org/2000/svg" width="48" height="48" viewBox="0 0 48 48">
  <metadata><?xpacket begin="﻿" id="W5M0MpCehiHzreSzNTczkc9d"?>
<x:xmpmeta xmlns:x="adobe:ns:meta/" x:xmptk="Adobe XMP Core 5.6-c140 79.160451, 2017/05/06-01:08:21        ">
   <rdf:RDF xmlns:rdf="http://www.w3.org/1999/02/22-rdf-syntax-ns#">
      <rdf:Description rdf:about=""/>
   </rdf:RDF>
</x:xmpmeta>
                                                                                                    
                                                                                                    
                                                                                                    
                                                                                                    
                                                                                                    
                                                                                                    
                                                                                                    
                                                                                                    
                                                                                                    
                                                                                                    
                                                                                                    
                                                                                                    
                                                                                                    
                                                                                                    
                                                                                                    
                                                                                                    
                                                                                                    
                                                                                                    
                                                                                                    
                                                                                                    
                           
<?xpacket end="w"?></metadata>
<defs>
    <style>
      .cls-1 {
        fill: #60a84e;
      }

      .cls-1, .cls-2 {
        fill-rule: evenodd;
      }

      .cls-2 {
        fill: #fff;
        opacity: 0.95;
      }
    </style>
  </defs>
  <g id="Invite_Friends" data-name="Invite Friends">
    <path id="_" data-name="#" class="cls-1" d="M6-.036H42.009a6,6,0,0,1,6,6V41.976a6,6,0,0,1-6,6H6a6,6,0,0,1-6-6V5.966A6,6,0,0,1,6-.036Z"/>
    <path id="_2" data-name="$" class="cls-2" d="M24.994,35.953V33.974c3.851-.315,6.02-2.325,6.02-5.517,0-2.732-1.59-4.374-4.85-5.189l-1.17-.276V17.121A3.09,3.09,0,0,1,27.938,20h2.747c-0.079-2.9-2.261-4.978-5.691-5.267V12.964H23.015V14.73c-3.562.328-5.368,2.325-5.368,5.32,0,2.548,1.38,4.308,4.324,5.044l1.044,0.3V31.61c-1.985-.224-3.34-1.028-3.471-2.643H16.976c0.013,3.034,2.293,4.771,6.039,5.02v1.965h1.979Zm3.233-7.233c0,1.734-1.144,2.811-3.233,2.93V25.738C27.255,26.211,28.227,27.156,28.227,28.72Zm-7.916-8.867a2.654,2.654,0,0,1,2.7-2.732v5.491C21.123,22.217,20.312,21.271,20.312,19.853Z"/>
  </g>
</svg>
