<svg id="Store_Links" data-name="Store Links" xmlns="http://www.w3.org/2000/svg" width="48" height="48" viewBox="0 0 48 48">
  <metadata><?xpacket begin="﻿" id="W5M0MpCehiHzreSzNTczkc9d"?>
<x:xmpmeta xmlns:x="adobe:ns:meta/" x:xmptk="Adobe XMP Core 5.6-c140 79.160451, 2017/05/06-01:08:21        ">
   <rdf:RDF xmlns:rdf="http://www.w3.org/1999/02/22-rdf-syntax-ns#">
      <rdf:Description rdf:about=""/>
   </rdf:RDF>
</x:xmpmeta>
                                                                                                    
                                                                                                    
                                                                                                    
                                                                                                    
                                                                                                    
                                                                                                    
                                                                                                    
                                                                                                    
                                                                                                    
                                                                                                    
                                                                                                    
                                                                                                    
                                                                                                    
                                                                                                    
                                                                                                    
                                                                                                    
                                                                                                    
                                                                                                    
                                                                                                    
                                                                                                    
                           
<?xpacket end="w"?></metadata>
<defs>
    <style>
      .cls-1 {
        fill: #60a84e;
      }

      .cls-1, .cls-2 {
        fill-rule: evenodd;
      }

      .cls-2 {
        fill: #fff;
        opacity: 0.95;
      }
    </style>
  </defs>
  <g id="Sell_on_Fancy" data-name="Sell on Fancy">
    <path id="_" data-name="#" class="cls-1" d="M6-.036H42.009a6,6,0,0,1,6,6V41.976a6,6,0,0,1-6,6H6a6,6,0,0,1-6-6V5.966A6,6,0,0,1,6-.036Z"/>
    <path id="Shop" class="cls-2" d="M32.077,21.037a2.953,2.953,0,0,1-2.739-1.716,2.821,2.821,0,0,1-2.646,1.716A2.883,2.883,0,0,1,24,19.331a2.892,2.892,0,0,1-2.7,1.706,2.846,2.846,0,0,1-2.662-1.716,2.966,2.966,0,0,1-5.655-1.215,0.246,0.246,0,0,1,.028-0.114l2.957-4.852a0.237,0.237,0,0,1,.21-0.134H31.755a0.239,0.239,0,0,1,.21.133l3.016,4.853a0.244,0.244,0,0,1,.028.114A2.935,2.935,0,0,1,32.077,21.037ZM18.995,23.011L19.01,31.8l1.953-1.817h6.082L29,31.8l0.015-8.793a12.263,12.263,0,0,0,2.977.619l0,9.335a1.055,1.055,0,0,1-1.026,1.081H17.029A1.055,1.055,0,0,1,16,32.965l0-9.335A12.363,12.363,0,0,0,18.995,23.011Z"/>
  </g>
</svg>
