<svg id="Store_Links" data-name="Store Links" xmlns="http://www.w3.org/2000/svg" width="48" height="48" viewBox="0 0 48 48">
  <metadata><?xpacket begin="﻿" id="W5M0MpCehiHzreSzNTczkc9d"?>
<x:xmpmeta xmlns:x="adobe:ns:meta/" x:xmptk="Adobe XMP Core 5.6-c140 79.160451, 2017/05/06-01:08:21        ">
   <rdf:RDF xmlns:rdf="http://www.w3.org/1999/02/22-rdf-syntax-ns#">
      <rdf:Description rdf:about=""/>
   </rdf:RDF>
</x:xmpmeta>
                                                                                                    
                                                                                                    
                                                                                                    
                                                                                                    
                                                                                                    
                                                                                                    
                                                                                                    
                                                                                                    
                                                                                                    
                                                                                                    
                                                                                                    
                                                                                                    
                                                                                                    
                                                                                                    
                                                                                                    
                                                                                                    
                                                                                                    
                                                                                                    
                                                                                                    
                                                                                                    
                           
<?xpacket end="w"?></metadata>
<defs>
    <style>
      .cls-1 {
        fill: #9099a6;
      }

      .cls-1, .cls-2 {
        fill-rule: evenodd;
      }

      .cls-2 {
        fill: #fff;
        opacity: 0.9;
      }
    </style>
  </defs>
  <g id="Just_Added" data-name="Just Added">
    <path id="_" data-name="#" class="cls-1" d="M6-.036H42.009a6,6,0,0,1,6,6V41.976a6,6,0,0,1-6,6H6a6,6,0,0,1-6-6V5.966A6,6,0,0,1,6-.036Z"/>
    <path id="_2" data-name="#" class="cls-2" d="M33.664,25.985H26.006v7.658a1.334,1.334,0,0,1-1.334,1.334H23.338A1.334,1.334,0,0,1,22,33.643V25.985H14.347a1.334,1.334,0,0,1-1.334-1.334V23.318a1.334,1.334,0,0,1,1.334-1.334H22V14.295a1.334,1.334,0,0,1,1.334-1.334h1.334a1.334,1.334,0,0,1,1.334,1.334v7.689h7.658A1.334,1.334,0,0,1,35,23.318v1.334A1.334,1.334,0,0,1,33.664,25.985Z"/>
  </g>
</svg>
