<svg id="active" xmlns="http://www.w3.org/2000/svg" width="46" height="46" viewBox="0 0 46 46">
  <metadata><?xpacket begin="﻿" id="W5M0MpCehiHzreSzNTczkc9d"?>
<x:xmpmeta xmlns:x="adobe:ns:meta/" x:xmptk="Adobe XMP Core 5.6-c140 79.160451, 2017/05/06-01:08:21        ">
   <rdf:RDF xmlns:rdf="http://www.w3.org/1999/02/22-rdf-syntax-ns#">
      <rdf:Description rdf:about=""/>
   </rdf:RDF>
</x:xmpmeta>
                                                                                                    
                                                                                                    
                                                                                                    
                                                                                                    
                                                                                                    
                                                                                                    
                                                                                                    
                                                                                                    
                                                                                                    
                                                                                                    
                                                                                                    
                                                                                                    
                                                                                                    
                                                                                                    
                                                                                                    
                                                                                                    
                                                                                                    
                                                                                                    
                                                                                                    
                                                                                                    
                           
<?xpacket end="w"?></metadata>
<defs>
    <style>
      .cls-1 {
        fill: #616770;
        fill-rule: evenodd;
      }
    </style>
  </defs>
  <path id="Cart" class="cls-1" d="M41.267,32.187A2.229,2.229,0,0,1,39.078,34H13.284a2.229,2.229,0,0,1-2.189-1.81L5.48,5.18,1.945,4.864c-0.757,0-.913-0.689-0.913-1.447S1.188,2,1.945,2l5.419-.021a0.565,0.565,0,0,1,.555.458l2.01,8.543H42.793a2.232,2.232,0,0,1,2.189,2.653ZM19.031,38.039a3,3,0,0,1,2.314,4.91,2.942,2.942,0,0,1-.4.4A3,3,0,1,1,19.031,38.039Zm14,0a3,3,0,0,1,2.314,4.91,3,3,0,0,1-2.314,1.09A3,3,0,0,1,33.031,38.039Z"/>
</svg>
