<svg xmlns="http://www.w3.org/2000/svg" width="182" height="36" viewBox="0 0 182 36">
  <metadata><?xpacket begin="﻿" id="W5M0MpCehiHzreSzNTczkc9d"?>
<x:xmpmeta xmlns:x="adobe:ns:meta/" x:xmptk="Adobe XMP Core 5.6-c140 79.160451, 2017/05/06-01:08:21        ">
   <rdf:RDF xmlns:rdf="http://www.w3.org/1999/02/22-rdf-syntax-ns#">
      <rdf:Description rdf:about=""/>
   </rdf:RDF>
</x:xmpmeta>
                                                                                                    
                                                                                                    
                                                                                                    
                                                                                                    
                                                                                                    
                                                                                                    
                                                                                                    
                                                                                                    
                                                                                                    
                                                                                                    
                                                                                                    
                                                                                                    
                                                                                                    
                                                                                                    
                                                                                                    
                                                                                                    
                                                                                                    
                                                                                                    
                                                                                                    
                                                                                                    
                           
<?xpacket end="w"?></metadata>
<defs>
    <style>
      .cls-1 {
        fill: #616770;
        fill-rule: evenodd;
      }
    </style>
  </defs>
  <path id="Logotype" class="cls-1" d="M180.919,5.457L168,22.171v10.8a3,3,0,0,1-6,0V22.22L148.771,5.44A3.973,3.973,0,0,1,148,3.157a2.939,2.939,0,0,1,.98-2.246A3.38,3.38,0,0,1,151.366,0c1.261,0,1.9.688,2.8,2.059L165,16.047,175.738,1.871c0.929-1.283,1.58-1.876,2.844-1.876a3.245,3.245,0,0,1,2.4.889,3,3,0,0,1,1.01,2.209A3.92,3.92,0,0,1,180.919,5.457ZM128.44,30.018c2.9,0,6.057-1.6,8.187-3.172a3.715,3.715,0,0,1,2.265-.867,3,3,0,0,1,1.906,5.4l0,0a21.265,21.265,0,0,1-12.355,4.609,18.094,18.094,0,0,1-18.458-17.959A18.171,18.171,0,0,1,128.44-.021a21.213,21.213,0,0,1,12.34,4.593l0,0a3,3,0,0,1-1.907,5.4,3.714,3.714,0,0,1-2.265-.868c-2.13-1.569-5.267-3.156-8.171-3.156a12.269,12.269,0,0,0-12.435,12.08A12.192,12.192,0,0,0,128.44,30.018ZM98.845,36.011H98.582c-1.226,0-2.331-.911-3.346-2.233L78.015,11.4,78,32.969a3,3,0,1,1-6,0l0-29.8A2.978,2.978,0,0,1,72.941.928a3.07,3.07,0,0,1,2.29-.964h0.676a4.183,4.183,0,0,1,3.3,1.982L95.985,24.467,96,2.984a3,3,0,1,1,6,0l0,29.942a2.785,2.785,0,0,1-.92,2.145A3.006,3.006,0,0,1,98.845,36.011Zm-38.033,0A3.306,3.306,0,0,1,57.454,33.9l-2.59-5.93h-15.7L36.3,34.119a3.057,3.057,0,0,1-3.181,1.9,3.014,3.014,0,0,1-2.26-.7A2.833,2.833,0,0,1,30,33.146a3.172,3.172,0,0,1,.383-1.5L42.78,2.79a4.273,4.273,0,0,1,4.011-2.8h0.331A4.4,4.4,0,0,1,51.2,2.825l12.41,28.86A2.8,2.8,0,0,1,64,33.064a3.017,3.017,0,0,1-.909,2.228A2.974,2.974,0,0,1,60.812,36.014ZM47,7.992L41.19,21.969H52.78Zm-24.041-2H6v10H20.96a3.005,3.005,0,0,1,3.048,3.024,2.869,2.869,0,0,1-.9,2.117,2.972,2.972,0,0,1-2.15.877L6,21.974v11.01a3,3,0,1,1-6,0V2.969A2.987,2.987,0,0,1,3-.016l19.974,0A2.889,2.889,0,0,1,25.113.8a2.942,2.942,0,0,1,.894,2.147,2.976,2.976,0,0,1-.9,2.163A2.972,2.972,0,0,1,22.96,5.99Z"/>
</svg>
