<svg xmlns="http://www.w3.org/2000/svg" width="32" height="30" viewBox="0 0 32 30">
  <defs>
    <style>
      .cls-1 {
        fill: #26303c;
        fill-rule: evenodd;
      }
    </style>
  </defs>
  <path id="_" data-name="#" class="cls-1" d="M17.2,19.381c3,0,10.4,2.556,10.4,6.637v1.156a0.447,0.447,0,0,1-.436.421H5.845a0.454,0.454,0,0,1-.438-0.478l-0.016-1.1c0-4.08,7.371-6.637,10.364-6.637H17.2m0-1.4H15.755c-3.527,0-11.764,2.849-11.764,8.037l0.016,1.119A1.848,1.848,0,0,0,5.845,29H27.171a1.848,1.848,0,0,0,1.838-1.858h0V26.018c0-5.187-8.277-8.037-11.8-8.037h0ZM16.748,3.4A3.953,3.953,0,0,1,20.59,7.463L20.582,10.2c0,2.038-2.32,4.4-3.834,4.4H16.221c-1.514,0-3.834-2.358-3.834-4.386l0.018-2.67A3.991,3.991,0,0,1,16.221,3.4h0.527m0-1.4H16.221a5.385,5.385,0,0,0-5.215,5.538L10.987,10.2c0,2.735,2.852,5.8,5.234,5.8h0.527c2.369,0,5.234-3.062,5.234-5.8l0.008-2.72A5.352,5.352,0,0,0,16.748,2h0Z"/>
</svg>
