<svg id="Social" xmlns="http://www.w3.org/2000/svg" width="28" height="28" viewBox="0 0 28 28">
  <defs>
    <style>
      .cls-1 {
        fill: #8c9092;
        fill-rule: evenodd;
      }
    </style>
  </defs>
  <path id="Pinterest" class="cls-1" d="M4,13.516a10.525,10.525,0,0,0,6.281,9.639,9.275,9.275,0,0,1,.183-2.417c0.2-.854,1.35-5.735,1.35-5.735a4.053,4.053,0,0,1-.335-1.665c0-1.559.9-2.724,2.024-2.724a1.408,1.408,0,0,1,1.416,1.58,22.711,22.711,0,0,1-.927,3.735,1.628,1.628,0,0,0,1.656,2.027c1.988,0,3.327-2.561,3.327-5.6,0-2.307-1.549-4.033-4.366-4.033a4.976,4.976,0,0,0-5.166,5.04,3.044,3.044,0,0,0,.692,2.065,0.511,0.511,0,0,1,.151.586c-0.05.194-.166,0.66-0.214,0.845a0.362,0.362,0,0,1-.525.264c-1.466-.6-2.149-2.211-2.149-4.021,0-2.989,2.514-6.574,7.5-6.574,4.006,0,6.643,2.907,6.643,6.029,0,4.129-2.288,7.213-5.662,7.213a3.006,3.006,0,0,1-2.564-1.312s-0.609,2.425-.738,2.893a8.831,8.831,0,0,1-1.056,2.254A10.528,10.528,0,1,0,4,13.516Z"/>
</svg>
