<svg xmlns="http://www.w3.org/2000/svg" width="124" height="28" viewBox="0 0 124 28">
  <defs>
    <style>
      .cls-1 {
        fill: #fff;
        fill-rule: evenodd;
      }
    </style>
  </defs>
  <path id="_" data-name="#" class="cls-1" d="M8.892,7.042a13.284,13.284,0,0,1,2.453.227,5.181,5.181,0,0,1,1.908.772,3.665,3.665,0,0,1,1.226,1.453,4.99,4.99,0,0,1,.431,2.225,4.155,4.155,0,0,1-.659,2.384,4.664,4.664,0,0,1-1.93,1.567,4.585,4.585,0,0,1,2.611,1.771,5.277,5.277,0,0,1,.863,3.043,5.307,5.307,0,0,1-.545,2.476,4.533,4.533,0,0,1-1.5,1.7,6.789,6.789,0,0,1-2.135.976,10,10,0,0,1-2.475.318H-0.01V7.042h8.9ZM8.37,14.7a3.021,3.021,0,0,0,1.817-.522,2.016,2.016,0,0,0,.7-1.726,2.582,2.582,0,0,0-.227-1.09,1.77,1.77,0,0,0-.636-0.658,2.9,2.9,0,0,0-.908-0.341,5.5,5.5,0,0,0-1.067-.091H4.146V14.7H8.37ZM8.6,22.735a6.271,6.271,0,0,0,1.158-.113,2.7,2.7,0,0,0,.976-0.409,2.18,2.18,0,0,0,.681-0.75,2.733,2.733,0,0,0,.25-1.226,2.486,2.486,0,0,0-.818-2.09,3.548,3.548,0,0,0-2.18-.613H4.146v5.2H8.6ZM32.159,7.042v3.5H22.01v4.042h9.331v3.225H22v4.655H32.386v3.5H18.011V7.042H32.159Zm1.812,0h4.655l4.428,7.472L47.46,7.042h4.633l-7.08,11.65v7.267h-4V18.6Zm17.668,5.609a9.423,9.423,0,0,1,1.817-3.157,8.092,8.092,0,0,1,2.929-2.112,10.324,10.324,0,0,1,7.835,0,8.576,8.576,0,0,1,2.907,2.112,9.265,9.265,0,0,1,1.817,3.157,11.59,11.59,0,0,1,.636,3.929,11.29,11.29,0,0,1-.636,3.861,9.438,9.438,0,0,1-1.817,3.111,8.739,8.739,0,0,1-2.907,2.089,9.332,9.332,0,0,1-3.929.749,9.74,9.74,0,0,1-3.906-.749,8.311,8.311,0,0,1-2.929-2.089,9.062,9.062,0,0,1-1.817-3.111A11.2,11.2,0,0,1,51,16.58a11.59,11.59,0,0,1,.636-3.929h0ZM55.431,18.9a6.021,6.021,0,0,0,.886,2.021,4.663,4.663,0,0,0,1.59,1.453,5.488,5.488,0,0,0,4.769,0,4.448,4.448,0,0,0,1.59-1.453A6.023,6.023,0,0,0,65.15,18.9a9.8,9.8,0,0,0,.273-2.316,10.426,10.426,0,0,0-.273-2.407,6.383,6.383,0,0,0-.886-2.089,4.448,4.448,0,0,0-1.59-1.453,5.488,5.488,0,0,0-4.769,0,4.448,4.448,0,0,0-1.59,1.453,6.178,6.178,0,0,0-.886,2.089,10.569,10.569,0,0,0-.273,2.407,9.8,9.8,0,0,0,.273,2.316h0ZM76.142,7.042l7.9,12.695h0.045V7.042h3.915V25.959H83.818l-7.8-12.672H75.955V25.959H72.009V7.042h4.133Zm26.57,5.041a4.482,4.482,0,0,0-.931-1.044,4.209,4.209,0,0,0-1.249-.7,4.574,4.574,0,0,0-1.476-.25,4.869,4.869,0,0,0-2.385.545,4.446,4.446,0,0,0-1.59,1.453,6.178,6.178,0,0,0-.886,2.089,10.575,10.575,0,0,0-.272,2.407A9.805,9.805,0,0,0,94.2,18.9a6.021,6.021,0,0,0,.886,2.021,4.661,4.661,0,0,0,1.59,1.453,4.869,4.869,0,0,0,2.385.545,3.833,3.833,0,0,0,2.975-1.158,5.433,5.433,0,0,0,1.317-3.066h4.02a10.05,10.05,0,0,1-.818,3.2,7.328,7.328,0,0,1-1.748,2.43,7.426,7.426,0,0,1-2.544,1.544,9.109,9.109,0,0,1-3.2.522,9.741,9.741,0,0,1-3.906-.749,8.312,8.312,0,0,1-2.929-2.089A9.062,9.062,0,0,1,90.4,20.441a11.2,11.2,0,0,1-.636-3.861,11.59,11.59,0,0,1,.636-3.929,9.423,9.423,0,0,1,1.817-3.157A8.092,8.092,0,0,1,95.15,7.383a9.372,9.372,0,0,1,3.906-.772,9.681,9.681,0,0,1,2.952.454,7.756,7.756,0,0,1,2.5,1.317,7.215,7.215,0,0,1,1.816,2.135,7.813,7.813,0,0,1,.909,2.907h-4.02a3.807,3.807,0,0,0-.5-1.34h0Zm20.407-5.041v3.5H112.987v4.042h9.346v3.287h-9.346v4.593h10.368v3.5H109V7.042h14.116Zm-6.344-6.725L113.959,5h2.634l4.315-4.678h-4.133Z"/>
</svg>
