<svg xmlns="http://www.w3.org/2000/svg" viewBox="0 0 15 12">
  <defs>
    <style>
      .cls-1 {
        fill: #3CCB83;
      }
    </style>
  </defs>
  <path id="Path_44" data-name="Path 44" class="cls-1" d="M2.079-19.1a9.305,9.305,0,0,0,2.97-2.188A5.273,5.273,0,0,0,6.291-24.31h-.94a5.019,5.019,0,0,1-1.695-.239A2.694,2.694,0,0,1,2.6-25.216a2.376,2.376,0,0,1-.545-.906,3.33,3.33,0,0,1-.159-1.026,2.562,2.562,0,0,1,.864-1.915A2.863,2.863,0,0,1,4.8-29.883a3.407,3.407,0,0,1,2.836,1.248,5.419,5.419,0,0,1,.99,3.453,6.568,6.568,0,0,1-1.7,4.137,11.114,11.114,0,0,1-4.1,3.162Zm8.272,0a9.305,9.305,0,0,0,2.97-2.188,5.273,5.273,0,0,0,1.242-3.026h-.94a5.019,5.019,0,0,1-1.695-.239,2.694,2.694,0,0,1-1.057-.667,2.376,2.376,0,0,1-.545-.906,3.33,3.33,0,0,1-.159-1.026,2.562,2.562,0,0,1,.864-1.915,2.863,2.863,0,0,1,2.039-.821A3.407,3.407,0,0,1,15.9-28.635a5.419,5.419,0,0,1,.99,3.453,6.568,6.568,0,0,1-1.7,4.137,11.114,11.114,0,0,1-4.1,3.162Z" transform="translate(16.895 -17.883) rotate(180)"/>
</svg>
