<svg xmlns="http://www.w3.org/2000/svg" viewBox="0 0 34.036 39.97">
  <defs>
    <style>
      .cls-1, .cls-2 {
        fill: #9c9da2;
      }

      .cls-1 {
        fill-rule: evenodd;
        opacity: 0.571;
      }
    </style>
  </defs>
  <g id="Group_3" data-name="Group 3" transform="translate(0.018 -1.015)">
    <path id="Rounded_Rectangle_2" data-name="Rounded Rectangle 2" class="cls-1" d="M751.882,239.525a1.032,1.032,0,0,1-1.393.365L736,231.708V240a1,1,0,0,1-2,0v-8.292l-14.489,8.182a1.032,1.032,0,0,1-1.393-.365.986.986,0,0,1,.373-1.363l15.991-9.03a.952.952,0,0,1,.171-.056.92.92,0,0,1,.143-.047,1.494,1.494,0,0,1,.408,0,.919.919,0,0,1,.143.047.951.951,0,0,1,.171.056l15.991,9.03a.986.986,0,0,1,.373,1.363Z" transform="translate(-718 -228)"/>
    <path id="Union_31" data-name="Union 31" class="cls-2" d="M-3626.212-2052.99a.907.907,0,0,1-.144-.048.929.929,0,0,1-.17-.056l-15.828-8.938a.99.99,0,0,1-.427-.319,1.042,1.042,0,0,1-.089-.132.909.909,0,0,1-.07-.144.955.955,0,0,1-.069-.518v-19.809a.951.951,0,0,1,.118-.534,1.032,1.032,0,0,1,1.393-.366l15.489,8.746,15.489-8.746a1.031,1.031,0,0,1,1.393.366.952.952,0,0,1,.118.534v19.809a.966.966,0,0,1-.068.518.936.936,0,0,1-.071.144,1.042,1.042,0,0,1-.089.132.987.987,0,0,1-.427.319l-15.827,8.938a.959.959,0,0,1-.171.056.865.865,0,0,1-.143.048,1.506,1.506,0,0,1-.2.014A1.5,1.5,0,0,1-3626.212-2052.99Zm1.2-20.371v17.7l14-7.905v-17.7Zm-16,9.794,14,7.905v-17.7l-14-7.906Z" transform="translate(3643.008 2093.961)"/>
  </g>
</svg>
