<svg xmlns="http://www.w3.org/2000/svg" viewBox="0 0 14 14">
  <defs>
    <style>
      .cls-1 {
        fill: #383e49;
      }
    </style>
  </defs>
  <path id="Path_47" data-name="Path 47" class="cls-1" d="M13.1-3.509a3.516,3.516,0,0,1,1.042,1.09,2.9,2.9,0,0,1,.4,1.544,3.353,3.353,0,0,1-.456,1.8,3.144,3.144,0,0,1-1.308,1.159,7.081,7.081,0,0,1-2.079.641,17.863,17.863,0,0,1-2.771.187H.539v-.77q.311-.03.782-.089a2.868,2.868,0,0,0,.661-.138.954.954,0,0,0,.506-.39A1.276,1.276,0,0,0,2.624.9V-8.965a1.4,1.4,0,0,0-.11-.592.963.963,0,0,0-.531-.414,3.988,3.988,0,0,0-.722-.212q-.411-.084-.722-.133v-.77H8.266a8.427,8.427,0,0,1,4.209.789,2.56,2.56,0,0,1,1.293,2.328,2.585,2.585,0,0,1-.291,1.248,2.8,2.8,0,0,1-.832.932,5.018,5.018,0,0,1-1.173.631,10.257,10.257,0,0,1-1.463.444v.187a8.287,8.287,0,0,1,1.623.34A5.635,5.635,0,0,1,13.1-3.509ZM9.869-7.722A2.422,2.422,0,0,0,9.2-9.537a2.755,2.755,0,0,0-2-.651q-.19,0-.5.015l-.526.025v5.19H6.7A3.341,3.341,0,0,0,9.1-5.7,2.674,2.674,0,0,0,9.869-7.722ZM10.571-1a2.831,2.831,0,0,0-.882-2.24,3.711,3.711,0,0,0-2.535-.779q-.19,0-.506.015t-.466.025V1.138a1.006,1.006,0,0,0,.561.617,2.4,2.4,0,0,0,1.142.252,2.548,2.548,0,0,0,1.939-.789A3.1,3.1,0,0,0,10.571-1Z" transform="translate(-0.539 11.086)"/>
</svg>
