<svg xmlns="http://www.w3.org/2000/svg" xmlns:xlink="http://www.w3.org/1999/xlink" viewBox="0 0 84 84">
  <defs>
    <style>
      .cls-1 {
        fill: #3ccb83;
      }

      .cls-2 {
        fill: #fff;
      }

      .cls-3 {
        filter: url(#Ellipse_5);
      }
    </style>
    <filter id="Ellipse_5" x="0" y="0" width="84" height="84" filterUnits="userSpaceOnUse">
      <feOffset dy="2" input="SourceAlpha"/>
      <feGaussianBlur stdDeviation="4" result="blur"/>
      <feFlood flood-color="#3ccb83" flood-opacity="0.443"/>
      <feComposite operator="in" in2="blur"/>
      <feComposite in="SourceGraphic"/>
    </filter>
  </defs>
  <g id="Group_121" data-name="Group 121" transform="translate(-842 -1046)">
    <g id="Group_60" data-name="Group 60" transform="translate(0 -1)">
      <g class="cls-3" transform="matrix(1, 0, 0, 1, 842, 1047)">
        <circle id="Ellipse_5-2" data-name="Ellipse 5" class="cls-1" cx="30" cy="30" r="30" transform="translate(12 10)"/>
      </g>
      <path id="Union_37" data-name="Union 37" class="cls-2" d="M-2672-984v-8h-8a1,1,0,0,1-1-1,1,1,0,0,1,1-1h8v-8a1,1,0,0,1,1-1,1,1,0,0,1,1,1v8h8a1,1,0,0,1,1,1,1,1,0,0,1-1,1h-8v8a1,1,0,0,1-1,1A1,1,0,0,1-2672-984Z" transform="translate(3555 2080)"/>
    </g>
  </g>
</svg>
