<svg xmlns="http://www.w3.org/2000/svg" viewBox="0 0 6.429 15">
  <defs>
    <style>
      .cls-1 {
        fill: #383e49;
      }
    </style>
  </defs>
  <path id="Path_48" data-name="Path 48" class="cls-1" d="M6.531,1.287l-.2.857q-.914.371-1.459.567a3.747,3.747,0,0,1-1.265.2,2.472,2.472,0,0,1-1.723-.557A1.826,1.826,0,0,1,1.267.935,5.168,5.168,0,0,1,1.313.254q.046-.348.148-.786l.757-2.781q.1-.4.171-.757a3.45,3.45,0,0,0,.069-.652,1.029,1.029,0,0,0-.212-.743,1.172,1.172,0,0,0-.813-.21,2.051,2.051,0,0,0-.6.1Q.519-5.484.3-5.4l.2-.857q.748-.314,1.432-.538a4.16,4.16,0,0,1,1.293-.224A2.415,2.415,0,0,1,4.92-6.47a1.845,1.845,0,0,1,.6,1.424q0,.181-.042.638a4.44,4.44,0,0,1-.152.838L4.564-.8q-.092.333-.166.762a4.166,4.166,0,0,0-.074.648.947.947,0,0,0,.24.752,1.319,1.319,0,0,0,.831.2,2.321,2.321,0,0,0,.628-.1A3.415,3.415,0,0,0,6.531,1.287Zm.194-11.629a1.646,1.646,0,0,1-.531,1.233,1.781,1.781,0,0,1-1.279.51,1.8,1.8,0,0,1-1.284-.51A1.64,1.64,0,0,1,3.1-10.341a1.655,1.655,0,0,1,.536-1.238,1.788,1.788,0,0,1,1.284-.514,1.773,1.773,0,0,1,1.279.514A1.661,1.661,0,0,1,6.725-10.341Z" transform="translate(-0.297 12.094)"/>
</svg>
