<svg xmlns="http://www.w3.org/2000/svg" viewBox="0 0 32 41">
  <defs>
    <style>
      .cls-1, .cls-2 {
        fill: #fff;
      }

      .cls-2 {
        opacity: 0.397;
      }

      .cls-3, .cls-4 {
        fill: #3CCB83;
      }

      .cls-3 {
        fill-rule: evenodd;
        opacity: 0.571;
      }
    </style>
  </defs>
  <g id="Group_123" data-name="Group 123" transform="translate(-65 -84)">
    <rect id="Rectangle_303" data-name="Rectangle 303" class="cls-1" width="32" height="32" rx="2" transform="translate(65 84)"/>
    <rect id="Rectangle_305" data-name="Rectangle 305" class="cls-2" width="27" height="2" transform="translate(65 119)"/>
    <rect id="Rectangle_306" data-name="Rectangle 306" class="cls-2" width="21" height="2" transform="translate(65 123)"/>
    <g id="Group_3" data-name="Group 3" transform="translate(74.018 90.985)">
      <path id="Rounded_Rectangle_2" data-name="Rounded Rectangle 2" class="cls-3" d="M730.966,233.04a.4.4,0,0,1-.534.14l-5.549-3.134v3.176a.383.383,0,0,1-.766,0v-3.176l-5.549,3.134a.4.4,0,0,1-.534-.14.378.378,0,0,1,.143-.522l6.125-3.459a.364.364,0,0,1,.065-.021.351.351,0,0,1,.055-.018.571.571,0,0,1,.156,0,.351.351,0,0,1,.055.018.363.363,0,0,1,.065.021l6.125,3.459a.378.378,0,0,1,.143.522Z" transform="translate(-718 -228)"/>
      <path id="Union_31" data-name="Union 31" class="cls-4" d="M6.437,11.872a17.123,17.123,0,0,0-.12-.04L.255,8.409a.379.379,0,0,1-.164-.122.413.413,0,0,1-.034-.05A.339.339,0,0,1,.03,8.181.366.366,0,0,1,0,7.983V.4a.364.364,0,0,1,.045-.2A.4.4,0,0,1,.583.052L6.515,3.4,12.447.052a.4.4,0,0,1,.534.14.365.365,0,0,1,.045.2V7.983a.371.371,0,0,1-.026.2.363.363,0,0,1-.027.055.387.387,0,0,1-.034.05.379.379,0,0,1-.164.122L6.714,11.832a.36.36,0,0,1-.066.021.332.332,0,0,1-.055.018.584.584,0,0,1-.156,0Zm.461-7.8v6.779L12.26,7.82V1.042ZM.77,7.82l5.362,3.028V4.069L.77,1.042Z" transform="translate(-0.015 4.447)"/>
    </g>
  </g>
</svg>
