<svg xmlns="http://www.w3.org/2000/svg" viewBox="0 0 46.28 23.975">
  <defs>
    <style>
      .cls-1 {
        fill: #fff;
        stroke: #fff;
        fill-rule: evenodd;
      }
    </style>
  </defs>
  <path id="Shape_936" data-name="Shape 936" class="cls-1" d="M1084.816,554.556a1.031,1.031,0,0,1-1.452.084l-14.686-13.053-10.562,9.388-1.546,1.373-2.578,2.292a1.027,1.027,0,1,1-1.367-1.532l2.4-2.133,1.544-1.373L1068,539.448a1.028,1.028,0,0,1,1.367,0l15.369,13.66a1.026,1.026,0,0,1,.085,1.448Zm-28.435-14.348a4.1,4.1,0,1,1,4.1-4.1,4.1,4.1,0,0,1-4.1,4.1Zm0-6.145a2.048,2.048,0,1,0,2.05,2.048A2.048,2.048,0,0,0,1056.381,534.063Zm-2.906,15.407-3.029-2.732-8.765,7.9a1.021,1.021,0,0,1-1.449-.085,1.048,1.048,0,0,1,.085-1.466l9.445-8.519a1.017,1.017,0,0,1,1.365,0l3.888,3.507Z" transform="translate(-1039.387 -531.515)"/>
</svg>
