<svg xmlns="http://www.w3.org/2000/svg" xmlns:xlink="http://www.w3.org/1999/xlink" viewBox="0 0 249 249">
  <defs>
    <style>
      .cls-1 {
        fill: #f5f5f5;
      }

      .cls-2, .cls-4 {
        fill: none;
      }

      .cls-3 {
        clip-path: url(#clip-path);
      }

      .cls-4 {
        opacity: 0.647;
      }

      .cls-5, .cls-6 {
        stroke: none;
      }

      .cls-6 {
        fill: #7f7f7f;
      }
    </style>
    <clipPath id="clip-path">
      <rect id="brig" class="cls-1" width="249" height="249" rx="124.5" transform="translate(1260 203)"/>
    </clipPath>
  </defs>
  <g id="Placeholder_Avatar" data-name="Placeholder Avatar" transform="translate(-976 -203)">
    <path id="brig-2" data-name="brig" class="cls-1" d="M124.5,0A124.5,124.5,0,1,1,0,124.5,124.5,124.5,0,0,1,124.5,0Z" transform="translate(976 203)"/>
    <g id="Path_10" data-name="Path 10" class="cls-2" transform="translate(1055.509 271.509)">
      <path class="cls-5" d="M45.491,0A45.491,45.491,0,1,1,0,45.491,45.491,45.491,0,0,1,45.491,0Z"/>
      <path class="cls-6" d="M 45.4908447265625 10 C 25.92112731933594 10 10 25.92112731933594 10 45.4908447265625 C 10 65.06056213378906 25.92112731933594 80.981689453125 45.4908447265625 80.981689453125 C 65.06056213378906 80.981689453125 80.981689453125 65.06056213378906 80.981689453125 45.4908447265625 C 80.981689453125 25.92112731933594 65.06056213378906 10 45.4908447265625 10 M 45.4908447265625 0 C 70.61476135253906 0 90.981689453125 20.36692810058594 90.981689453125 45.4908447265625 C 90.981689453125 70.61476135253906 70.61476135253906 90.981689453125 45.4908447265625 90.981689453125 C 20.36692810058594 90.981689453125 0 70.61476135253906 0 45.4908447265625 C 0 20.36692810058594 20.36692810058594 0 45.4908447265625 0 Z"/>
    </g>
    <g id="Mask_Group_12" data-name="Mask Group 12" class="cls-3" transform="translate(-284)">
      <g id="Path_9" data-name="Path 9" class="cls-4" transform="translate(1314 379)">
        <path class="cls-5" d="M71,0A71,71,0,1,1,0,71,71,71,0,0,1,71,0Z"/>
        <path class="cls-6" d="M 71 10 C 37.36447143554688 10 10 37.36447143554688 10 71 C 10 104.6355285644531 37.36447143554688 132 71 132 C 104.6355285644531 132 132 104.6355285644531 132 71 C 132 37.36447143554688 104.6355285644531 10 71 10 M 71 0 C 110.2122192382812 0 142 31.78778076171875 142 71 C 142 110.2122192382812 110.2122192382812 142 71 142 C 31.78778076171875 142 0 110.2122192382812 0 71 C 0 31.78778076171875 31.78778076171875 0 71 0 Z"/>
      </g>
    </g>
  </g>
</svg>
