<svg xmlns="http://www.w3.org/2000/svg" xmlns:xlink="http://www.w3.org/1999/xlink" width="183" height="198" viewBox="0 0 183 198">
  <metadata><?xpacket begin="﻿" id="W5M0MpCehiHzreSzNTczkc9d"?>
<x:xmpmeta xmlns:x="adobe:ns:meta/" x:xmptk="Adobe XMP Core 5.6-c140 79.160451, 2017/05/06-01:08:21        ">
   <rdf:RDF xmlns:rdf="http://www.w3.org/1999/02/22-rdf-syntax-ns#">
      <rdf:Description rdf:about=""/>
   </rdf:RDF>
</x:xmpmeta>
                                                                                                    
                                                                                                    
                                                                                                    
                                                                                                    
                                                                                                    
                                                                                                    
                                                                                                    
                                                                                                    
                                                                                                    
                                                                                                    
                                                                                                    
                                                                                                    
                                                                                                    
                                                                                                    
                                                                                                    
                                                                                                    
                                                                                                    
                                                                                                    
                                                                                                    
                                                                                                    
                           
<?xpacket end="w"?></metadata>
<defs>
    <style>
      .cls-1 {
        fill: #fff;
        fill-rule: evenodd;
        filter: url(#filter);
      }
    </style>
    <filter id="filter" x="120" y="534" width="183" height="198" filterUnits="userSpaceOnUse">
      <feOffset result="offset" dy="3" in="SourceAlpha"/>
      <feGaussianBlur result="blur" stdDeviation="4.472"/>
      <feFlood result="flood" flood-opacity="0.07"/>
      <feComposite result="composite" operator="in" in2="blur"/>
      <feBlend result="blend" in="SourceGraphic"/>
    </filter>
  </defs>
  <path id="merchant_default" class="cls-1" d="M274.677,674.587l-25.418,14.535h-0.036l-5.619,3.213h0.037L219.252,706.28l-1.384.792a14.855,14.855,0,0,1-14.687,0l-1.385-.792L178.217,692.8h0l-5.64-3.225h0l-26.206-14.985-0.005,0-0.013-.007a14.564,14.564,0,0,1-7.343-12.6V597.01a14.562,14.562,0,0,1,7.343-12.6l25.418-14.535h0.036l5.619-3.213h-0.036l24.388-13.945,1.385-.792a14.854,14.854,0,0,1,14.686,0l1.385,0.792L242.814,566.2h0l5.639,3.225h0l26.2,14.985,0,0,0.013,0.007a14.564,14.564,0,0,1,7.343,12.6V661.99A14.562,14.562,0,0,1,274.677,674.587Z" transform="translate(-120 -534)"/>
</svg>
