<svg xmlns="http://www.w3.org/2000/svg" width="70" height="61" viewBox="0 0 70 61">
  <metadata><?xpacket begin="﻿" id="W5M0MpCehiHzreSzNTczkc9d"?>
<x:xmpmeta xmlns:x="adobe:ns:meta/" x:xmptk="Adobe XMP Core 5.6-c138 79.159824, 2016/09/14-01:09:01        ">
   <rdf:RDF xmlns:rdf="http://www.w3.org/1999/02/22-rdf-syntax-ns#">
      <rdf:Description rdf:about=""/>
   </rdf:RDF>
</x:xmpmeta>
                                                                                                    
                                                                                                    
                                                                                                    
                                                                                                    
                                                                                                    
                                                                                                    
                                                                                                    
                                                                                                    
                                                                                                    
                                                                                                    
                                                                                                    
                                                                                                    
                                                                                                    
                                                                                                    
                                                                                                    
                                                                                                    
                                                                                                    
                                                                                                    
                                                                                                    
                                                                                                    
                           
<?xpacket end="w"?></metadata>
<defs>
    <style>
      .cls-1 {
        fill: #2f333b;
        fill-rule: evenodd;
      }
    </style>
  </defs>
  <path id="hex" class="cls-1" d="M938.905,1037.94h-42.75c-1.14,0-1.141-.01-1.141-1.11,0-2.23,0-4.45,0-6.82h1.03q19.124,0,38.246-.01a1.381,1.381,0,0,1,1.4.75c1.4,2.38,2.866,4.73,4.308,7.09V1038C939.635,1037.98,939.27,1037.94,938.905,1037.94Zm-43.893-18.91h0.978q16.186,0,32.374-.02a1.263,1.263,0,0,1,1.278.7c1.287,2.2,2.631,4.38,3.952,6.56,0.127,0.21.241,0.43,0.408,0.73h-38.99v-7.97ZM895,1008.02h0.877q12.954,0,25.909-.02a1.181,1.181,0,0,1,1.187.71c1.18,2.17,2.4,4.31,3.606,6.45,0.138,0.25.262,0.51,0.434,0.84H895v-7.98Zm-10.99,29.09c0-7.16-.007-14.31.016-21.47a3.182,3.182,0,0,1,.367-1.42c1.014-1.89,2.092-3.75,3.12-5.64a0.931,0.931,0,0,1,.953-0.58c1.163,0.04,2.329.02,3.544,0.02V1038h-8v-0.89Zm-13.481,2.27c-0.162-.28-0.353-0.53-0.53-0.8v-0.17c1.542-2.57,3.091-5.14,4.623-7.72,1.95-3.28,2.885-6.57,4.83-9.85,0.14-.24.3-0.46,0.55-0.84v37c-0.268-.41-0.442-0.66-0.6-0.92C876.113,1050.51,873.824,1044.94,870.53,1039.38Zm21.458,2.63V1069c-1.323,0-2.642.01-3.96-.02a0.787,0.787,0,0,1-.438-0.42q-1.706-3.015-3.378-6.06a1.739,1.739,0,0,1-.193-0.79q-0.015-9.63-.006-19.25c0-.14.023-0.27,0.039-0.45h7.936Zm3.022,25.98v-24.98c4.4,4.23,8.661,8.32,13,12.49C903.7,1059.64,899.437,1063.74,895.01,1067.99Zm28,1.02h-24c4.054-4.06,8-8.01,12-12.01C915.012,1061,918.956,1064.95,923.012,1069.01ZM898.991,1042H923c-4.065,3.72-8.008,7.34-12.006,11C907,1049.34,903.057,1045.72,898.991,1042Zm15.528,12.68q6.57-6.075,13.155-12.15a1.729,1.729,0,0,1,1.009-.49c3.642-.04,7.283-0.02,10.925-0.02a3.853,3.853,0,0,1,.379.08c-4.793,7.99-9.531,15.88-14.348,23.91-3.9-3.61-7.753-7.17-11.652-10.77C914.185,1055.03,914.342,1054.85,914.519,1054.68Z" transform="translate(-870 -1008)"/>
</svg>
