<svg xmlns="http://www.w3.org/2000/svg" width="14" height="12" viewBox="0 0 14 12">
  <metadata><?xpacket begin="﻿" id="W5M0MpCehiHzreSzNTczkc9d"?>
<x:xmpmeta xmlns:x="adobe:ns:meta/" x:xmptk="Adobe XMP Core 5.6-c138 79.159824, 2016/09/14-01:09:01        ">
   <rdf:RDF xmlns:rdf="http://www.w3.org/1999/02/22-rdf-syntax-ns#">
      <rdf:Description rdf:about=""/>
   </rdf:RDF>
</x:xmpmeta>
                                                                                                    
                                                                                                    
                                                                                                    
                                                                                                    
                                                                                                    
                                                                                                    
                                                                                                    
                                                                                                    
                                                                                                    
                                                                                                    
                                                                                                    
                                                                                                    
                                                                                                    
                                                                                                    
                                                                                                    
                                                                                                    
                                                                                                    
                                                                                                    
                                                                                                    
                                                                                                    
                           
<?xpacket end="w"?></metadata>
<defs>
    <style>
      .cls-1 {
        fill: #60646d;
        fill-rule: evenodd;
        opacity: 0.7;
      }
    </style>
  </defs>
  <path id="Print" class="cls-1" d="M810,586h-2v2.5a0.5,0.5,0,0,1-.5.5h-7a0.5,0.5,0,0,1-.5-0.5V586h-2a1,1,0,0,1-1-1v-4a1,1,0,0,1,1-1h12a1,1,0,0,1,1,1v4A1,1,0,0,1,810,586Zm-3-2h-6v4h6v-4Zm1.5-3a0.5,0.5,0,1,0,.5.5A0.5,0.5,0,0,0,808.5,581Zm-8-2H800v-1.5a0.5,0.5,0,0,1,.5-0.5h7a0.5,0.5,0,0,1,.5.5V579h-7.5Z" transform="translate(-797 -577)"/>
</svg>
