<?xml version="1.0" encoding="utf-8"?>
<!-- Generator: Adobe Illustrator 21.1.0, SVG Export Plug-In . SVG Version: 6.00 Build 0)  -->
<svg version="1.1" id="Layer_1" xmlns="http://www.w3.org/2000/svg" xmlns:xlink="http://www.w3.org/1999/xlink" x="0px" y="0px"
	 viewBox="0 0 143 159" style="enable-background:new 0 0 143 159;" xml:space="preserve">
<style type="text/css">
	.st0{fill:#8bbf3a;}
</style>
<path class="st0" d="M133.3,36.1L133.3,36.1l-25.2-14.4l-5.4-3.1l-22.7-13l-1.3-0.8c-4.4-2.5-9.8-2.5-14.1,0l-1.3,0.8L39.7,19h0
	l-5.4,3.1h0l-24.5,14c-4.4,2.5-7.1,7.1-7.1,12.1v62.6c0,5,2.7,9.6,7.1,12.1l0,0h0L35,137.3l5.4,3.1l22.7,13l1.3,0.8
	c4.4,2.5,9.8,2.5,14.1,0l1.3-0.8l23.5-13.4h0l5.4-3.1h0l24.5-14c4.4-2.5,7-7.1,7.1-12.1V48.2C140.4,43.2,137.7,38.6,133.3,36.1z
	 M99.8,60.9H59.6v37.8h23.9V88.1H70l7.3-16.4h22.5v15.2c0,0,0,0,0,0v12.9c0,2.9-0.8,5.6-2.3,7.9c-2.6,4.4-7.4,7.3-12.9,7.3H59.6
	h-1.2h-0.1c-8.3,0-15.1-6.8-15.1-15.1V59.7c0-8.3,6.8-15.1,15.1-15.1h1.3v0l40.2,0V60.9z"/>
</svg>
