<svg xmlns="http://www.w3.org/2000/svg" width="55" height="15" viewBox="0 0 55 15">
  <metadata><?xpacket begin="﻿" id="W5M0MpCehiHzreSzNTczkc9d"?>
<x:xmpmeta xmlns:x="adobe:ns:meta/" x:xmptk="Adobe XMP Core 5.6-c140 79.160451, 2017/05/06-01:08:21        ">
   <rdf:RDF xmlns:rdf="http://www.w3.org/1999/02/22-rdf-syntax-ns#">
      <rdf:Description rdf:about=""/>
   </rdf:RDF>
</x:xmpmeta>
                                                                                                    
                                                                                                    
                                                                                                    
                                                                                                    
                                                                                                    
                                                                                                    
                                                                                                    
                                                                                                    
                                                                                                    
                                                                                                    
                                                                                                    
                                                                                                    
                                                                                                    
                                                                                                    
                                                                                                    
                                                                                                    
                                                                                                    
                                                                                                    
                                                                                                    
                                                                                                    
                           
<?xpacket end="w"?></metadata>
<defs>
    <style>
      .cls-1 {
        fill: #151618;
        fill-rule: evenodd;
      }
    </style>
  </defs>
  <path class="cls-1" d="M264.7,17.8a2.034,2.034,0,0,0-1.733-.8H251l0.215,3.461h1.093c-0.819,2.605-2.346,6.188-3.119,8.644L247.945,17h-4.738l-7.744,11.981h-5.6l0.99-2.99h4.863l0.956-3.02h-4.863l0.739-2.963h6.713L240.929,17H217.21a4.281,4.281,0,0,0-2.5.724,4,4,0,0,0-1.5,2.087l-3.031,9.375a2.213,2.213,0,0,0,.13,2.109,2.463,2.463,0,0,0,2.04.712h10.224l3.041-8.987h-7.122l-0.933,2.985h2.835l-1.058,3h-4.556l2.721-9.024h10.606l-3.78,12.027h14.057L240.022,29h5.354l0.157,3.007h7.321l1.781-5.014h2.511l0.883,5.014h4.079l-1.157-5.842a2.713,2.713,0,0,0,2.31-1.777l1.557-4.567A2.249,2.249,0,0,0,264.7,17.8Zm-22.823,8.21,2.914-4.336,0.488,4.336h-3.4ZM259.479,23H255.4l1.213-3h3.815Z" transform="translate(-210 -17)"/>
</svg>
