<svg xmlns="http://www.w3.org/2000/svg" width="303" height="287.969" viewBox="0 0 303 287.969">
  <metadata><?xpacket begin="﻿" id="W5M0MpCehiHzreSzNTczkc9d"?>
<x:xmpmeta xmlns:x="adobe:ns:meta/" x:xmptk="Adobe XMP Core 5.6-c140 79.160451, 2017/05/06-01:08:21        ">
   <rdf:RDF xmlns:rdf="http://www.w3.org/1999/02/22-rdf-syntax-ns#">
      <rdf:Description rdf:about=""/>
   </rdf:RDF>
</x:xmpmeta>
                                                                                                    
                                                                                                    
                                                                                                    
                                                                                                    
                                                                                                    
                                                                                                    
                                                                                                    
                                                                                                    
                                                                                                    
                                                                                                    
                                                                                                    
                                                                                                    
                                                                                                    
                                                                                                    
                                                                                                    
                                                                                                    
                                                                                                    
                                                                                                    
                                                                                                    
                                                                                                    
                           
<?xpacket end="w"?></metadata>
<defs>
    <style>
      .cls-1 {
        fill: #fff;
        fill-rule: evenodd;
      }
    </style>
  </defs>
  <path class="cls-1" d="M903.37,413.613q-2.817-4.373-9.544-4.616H828.077l1.264,20.806h5.776c-4.51,15.093-10.854,35.1-15.111,49.332L815.4,409H784.979l-42.653,66.177H711.481l5.454-13.962h26.788l5.266-17.481H722.2l3.6-13.751h36.972L769.467,409H641.794a22.74,22.74,0,0,0-13.753,4.2,23.143,23.143,0,0,0-8.285,12.091L603.064,479.6q-2.443,8.017.716,12.221c2.057,2.764,5.8,4.128,11.234,4.128h56.314l16.985-52.218h-39.23l-5.842,17.539h15.614L653.5,475.025H628.4l14.517-45.071h58.415l-20.346,66h77.422l9.733-17.432H796.69l1.1,17.432h40.322l9.808-31.248h13.829l4.863,31.248h22.468L882.712,462.1c6.56-1.418,10.8-4.372,12.722-10.3l8.577-26.46Q906.243,418.052,903.37,413.613ZM777.43,461.088l16.286-25.031,2.689,25.031H777.43Zm99.289-17.162H853.594l3.664-14.114h23.391Z" transform="translate(-602 -207.969)"/>
  <path class="cls-1" d="M826.117,322.206c-0.143-.132-0.3-0.258-0.447-0.384v-0.009l-0.175-.139c-0.013-.012-0.025-0.024-0.038-0.034l-0.662-.523-28.437-21.093c-3.562-2.825-10.141-6.915-14.619-6.915l-33.64.111-3.48-.039c-4.152-.045-5.125,7.677-2.023,10.412l-0.009.018,0.179,0.142h0L768,323.483a4.751,4.751,0,0,1-.038,7.393l-3.06,2.382a9.731,9.731,0,0,1-11.316-.01l-37.71-29.43a10.753,10.753,0,0,1,0-16.79l37.733-29.442a9.561,9.561,0,0,1,11.233.055l27.368,23.49h0.029a13.662,13.662,0,0,0,16.6.033h0.017l18.49-15.568a6.917,6.917,0,0,0,.031-10.758l-1.291-1.026h0l-51.347-40.7-0.078,0a26.194,26.194,0,0,0-31.776.461l-0.587.456h0l-54.11,42.222h0l-0.022.018-0.571.447h0l-0.62.484a26.315,26.315,0,0,0-9.958,20.055l-0.02.04v35.577h0v0.988l0.029,0.06a26.3,26.3,0,0,0,9.949,19.727l1.214,0.949-0.013-.027,54.334,42.4h0l0.524,0.409a26.2,26.2,0,0,0,32.437-.006l0.521-.4h0l1.835-1.432,1.342-1.047h0l46.987-35.168,0-.1c0.134-.126.287-0.239,0.414-0.371A11.77,11.77,0,0,0,826.117,322.206Z" transform="translate(-602 -207.969)"/>
</svg>
