<svg xmlns="http://www.w3.org/2000/svg" width="154" height="53.031" viewBox="0 0 154 53.031">
  <metadata><?xpacket begin="﻿" id="W5M0MpCehiHzreSzNTczkc9d"?>
<x:xmpmeta xmlns:x="adobe:ns:meta/" x:xmptk="Adobe XMP Core 5.6-c140 79.160451, 2017/05/06-01:08:21        ">
   <rdf:RDF xmlns:rdf="http://www.w3.org/1999/02/22-rdf-syntax-ns#">
      <rdf:Description rdf:about=""/>
   </rdf:RDF>
</x:xmpmeta>
                                                                                                    
                                                                                                    
                                                                                                    
                                                                                                    
                                                                                                    
                                                                                                    
                                                                                                    
                                                                                                    
                                                                                                    
                                                                                                    
                                                                                                    
                                                                                                    
                                                                                                    
                                                                                                    
                                                                                                    
                                                                                                    
                                                                                                    
                                                                                                    
                                                                                                    
                                                                                                    
                           
<?xpacket end="w"?></metadata>
<defs>
    <style>
      .cls-1 {
        fill: #151618;
      }

      .cls-1, .cls-2 {
        fill-rule: evenodd;
      }

      .cls-2 {
        fill: #2da2c9;
      }
    </style>
  </defs>
  <path class="cls-1" d="M293.473,89.433A3.611,3.611,0,0,0,290.386,88H269.071l0.383,6.225H271.4c-1.458,4.685-3.51,11.127-4.887,15.544L265.022,88h-9.836l-13.794,21.016h-9.975l1.763-5.032h8.664l1.7-4.982h-8.662l1.316-4.975h11.957L250.169,88H208.88a7.575,7.575,0,0,0-4.448,1.3,7.192,7.192,0,0,0-2.679,3.753l-5.4,16.857q-0.79,2.488.232,3.793c0.665,0.858,1.876,1.281,3.632,1.281h18.212L223.848,99H211.161l-1.661,5h5.05l-1.885,4.968h-8.116L209.4,93.976h18.891l-6.732,21.011h25.038l2.919-4.967h9.537l0.281,4.967h13.04l3.172-9.993h4.472l1.573,9.993h7.266l-2.061-10.505c2.122-.44,3.492-1.357,4.114-3.2l2.774-8.211A4.077,4.077,0,0,0,293.473,89.433ZM252.82,104.019l5.191-7.621,0.87,7.621H252.82Zm32.034-5.031h-7.478l1.184-4.983h7.565Z" transform="translate(-140 -74.969)"/>
  <path class="cls-2" d="M185.819,109.592c-0.044-.04-0.091-0.078-0.138-0.116v0l-0.053-.042-0.012-.01-0.2-.159-8.737-6.387a8.852,8.852,0,0,0-4.492-1.789l-10.336-.1-1.07-.012c-1.276-.014-1.575,2.154-0.622,2.982l0,0.006,0.055,0.043h0l7.754,5.974a1.425,1.425,0,0,1-.011,2.238l-0.94.721a3.024,3.024,0,0,1-3.477,0l-11.587-8.911a3.225,3.225,0,0,1,0-5.084l11.594-8.915a2.972,2.972,0,0,1,3.451.016l8.409,7.113h0.009a4.248,4.248,0,0,0,5.1.01h0l5.682-4.714a2.076,2.076,0,0,0,.009-3.257l-0.4-.311h0L170.034,76.559H170.01a8.142,8.142,0,0,0-9.763.139l-0.181.139h0L143.44,89.622h0l-0.007.005-0.176.135h0l-0.191.147a7.931,7.931,0,0,0-3.06,6.073L140,95.994v10.773h0v0.3l0.009,0.018a7.927,7.927,0,0,0,3.057,5.973l0.374,0.288,0-.008,16.695,12.838h0l0.161,0.124a8.146,8.146,0,0,0,9.967,0l0.16-.123h0l0.564-.433,0.412-.317h0l14.437-10.649v-0.031c0.042-.038.089-0.073,0.128-0.112A3.528,3.528,0,0,0,185.819,109.592Z" transform="translate(-140 -74.969)"/>
</svg>
