<svg xmlns="http://www.w3.org/2000/svg" viewBox="0 0 17 22">
  <g id="그룹_343" data-name="그룹 343" transform="translate(-1500 -90)">
    <g id="그룹_345" data-name="그룹 345" transform="translate(1499.996 92)">
      <g id="그룹_343-2" data-name="그룹 343">
        <path id="패스_69" data-name="패스 69" d="M16.284,16.4H.731A.714.714,0,0,1,.088,16a.776.776,0,0,1,.039-.77l1.286-1.94V7.14a7.09,7.09,0,1,1,14.18,0V13.3l1.286,1.94a.754.754,0,0,1,.039.77A.709.709,0,0,1,16.284,16.4ZM2.113,14.9H14.9l-.633-.96a.786.786,0,0,1-.127-.42V7.14a5.634,5.634,0,1,0-11.268,0v6.39a.71.71,0,0,1-.127.42Z" transform="translate(0)"/>
      </g>
      <g id="그룹_344" data-name="그룹 344" transform="translate(0.034 -1.16)">
        <path id="패스_70" data-name="패스 70" d="M8.47,21.16a3.418,3.418,0,0,1-3.5-3.321.7.7,0,0,1,1.407,0A2.031,2.031,0,0,0,8.47,19.8a2.031,2.031,0,0,0,2.092-1.964.7.7,0,0,1,1.407,0A3.412,3.412,0,0,1,8.47,21.16Z"/>
      </g>
    </g>
    <rect id="사각형_503" data-name="사각형 503" width="1.5" height="3" rx="0.75" transform="translate(1507.75 90)"/>
  </g>
</svg>
