<svg xmlns="http://www.w3.org/2000/svg" width="17" height="15" viewBox="0 0 17 15">
  <metadata><?xpacket begin="﻿" id="W5M0MpCehiHzreSzNTczkc9d"?>
<x:xmpmeta xmlns:x="adobe:ns:meta/" x:xmptk="Adobe XMP Core 5.6-c138 79.159824, 2016/09/14-01:09:01        ">
   <rdf:RDF xmlns:rdf="http://www.w3.org/1999/02/22-rdf-syntax-ns#">
      <rdf:Description rdf:about=""/>
   </rdf:RDF>
</x:xmpmeta>
                                                                                                    
                                                                                                    
                                                                                                    
                                                                                                    
                                                                                                    
                                                                                                    
                                                                                                    
                                                                                                    
                                                                                                    
                                                                                                    
                                                                                                    
                                                                                                    
                                                                                                    
                                                                                                    
                                                                                                    
                                                                                                    
                                                                                                    
                                                                                                    
                                                                                                    
                                                                                                    
                           
<?xpacket end="w"?></metadata>
<defs>
    <style>
      .cls-1 {
        fill: #1b2128;
        fill-rule: evenodd;
        opacity: 0.85;
      }
    </style>
  </defs>
  <path id="inbox" class="cls-1" d="M1004.01,30.148a0.862,0.862,0,0,1-.87.852H987.859a0.861,0.861,0,0,1-.869-0.852l-0.006-5.81a0.6,0.6,0,0,1,.027-0.178l2.292-7.523a0.971,0.971,0,0,1,.712-0.64h11.015a0.906,0.906,0,0,1,.74.552l2.21,7.617a0.515,0.515,0,0,1,.03.173v5.81Zm-2.03-6.681-1.41-5.169a0.327,0.327,0,0,0-.37-0.289h-9.424a0.336,0.336,0,0,0-.373.286l-1.436,5.169a0.446,0.446,0,0,0,.083.378,0.436,0.436,0,0,0,.346.169h2.9a0.11,0.11,0,0,1,.1.072l0.615,2.567a0.445,0.445,0,0,0,.424.32h4.05a0.437,0.437,0,0,0,.421-0.314l0.613-2.574a0.11,0.11,0,0,1,.1-0.071h2.924a0.45,0.45,0,0,0,.35-0.168A0.456,0.456,0,0,0,1001.98,23.467Z" transform="translate(-987 -16)"/>
</svg>
