<svg xmlns="http://www.w3.org/2000/svg" width="28" height="32" viewBox="0 0 28 32">
  <defs>
    <style>
      .cls-1 {
        fill: #151618;
        fill-rule: evenodd;
      }
    </style>
  </defs>
  <path id="_" data-name="#" class="cls-1" d="M21.995,19L14,31.042,6.007,19c-2.985-3.978-2.59-10.6.926-14.116a10,10,0,0,1,14.132,0C24.582,8.4,24.977,15.022,21.995,19ZM19.652,6.3a8,8,0,0,0-11.3,0c-2.8,2.8-3.155,8.284-.74,11.5l0.035,0.046,0.032,0.048L14,27.425l6.327-9.532,0.032-.048,0.034-.046C22.807,14.582,22.453,9.1,19.652,6.3Zm-5.637,9.73a4.01,4.01,0,1,1,3.994-4.01A4,4,0,0,1,14.015,16.027ZM14,10a2,2,0,1,0,2,2A2,2,0,0,0,14,10Z"/>
</svg>
