<?xml version="1.0" encoding="utf-8"?>
<!-- Generator: Adobe Illustrator 19.2.0, SVG Export Plug-In . SVG Version: 6.00 Build 0)  -->
<svg version="1.1" id="Layer_1" xmlns="http://www.w3.org/2000/svg" xmlns:xlink="http://www.w3.org/1999/xlink" x="0px" y="0px"
	 viewBox="0 0 206 130" style="enable-background:new 0 0 206 130;" xml:space="preserve">
<style type="text/css">
	.st0{fill:none;enable-background:new    ;}
	.st1{fill:#E1ECF8;}
	.st2{fill:#364167;}
	.st3{fill:#FFFFFF;}
	.st4{fill:#00B4D8;}
	.st5{fill:#FFD600;}
	.st6{fill:#FFBAC3;}
	.st7{fill:#DC5E5F;}
	.st8{fill:#F3B2B9;}
	.st9{fill:#2D3657;}
	.st10{fill:#FF7577;}
</style>
<path class="st0" d="z"/>
<path class="st1" d="M198.2,110.9c-12.1-1.9-24.5,0.2-36.3,0.3c-12.4,0.2-23.1,1.6-35.1,3.2c-5.1,0.7-26.9,1.9-30.5-0.9
	c-5.8-4.4,22.8-5,25.9-5.2c3.5-0.3,14.4-0.4,16.6-2.4c4.1-3.4-2.7-4.2-6.5-4.3c-7.9-0.2-15.8-0.2-23.6,0.2c-3,0.1-9.8-0.4-13-0.5
	c-3.6-0.5-7.5,0-11.1,0.4c-11.2,1.3-21.9,1-33.1,1.6c-7.4,0.5-15.7,0.8-22.8,2.1c-9.5,1.8-1.8,2.9,3.1,4.2c1.8,0.4,8.1,1.7,8.6,3.1
	c0.8,2.2-8.5,4.4-11.5,5c-6.1,1.4-13.1,1.6-19.5,2.7c-1.7,0.3-6.3,0.6-7.2,1.8c-3.2,4.4,12,3.7,15,3.9c13.1,0.7,26.7,2.1,39.9,1.8
	c9.7-0.2,19-1.1,28.8-0.8c32.9,0.9,66-2.6,98.1-6.3c5.2-0.6,12.8-0.9,16.9-3.3C205.9,114.6,204.2,111.9,198.2,110.9z"/>
<g>
	<g>
		<g>
			<g>
				<rect x="70.8" y="72.1" class="st2" width="0.6" height="20.2"/>
			</g>
			<g>
				<rect x="65.8" y="73.4" transform="matrix(0.866 -0.5 0.5 0.866 -32.9149 44.2335)" class="st2" width="0.6" height="20.2"/>
			</g>
			<g>
				
					<rect x="62.1" y="77.1" transform="matrix(0.5001 -0.866 0.866 0.5001 -44.3607 97.6284)" class="st2" width="0.6" height="20.2"/>
			</g>
			<g>
				<rect x="50.9" y="92" class="st2" width="20.2" height="0.6"/>
			</g>
			<g>
				
					<rect x="52.3" y="97.1" transform="matrix(0.867 -0.4983 0.4983 0.867 -40.212 44.0264)" class="st2" width="20.2" height="0.6"/>
			</g>
			<g>
				
					<rect x="56" y="100.8" transform="matrix(0.5001 -0.866 0.866 0.5001 -54.4738 107.7397)" class="st2" width="20.2" height="0.6"/>
			</g>
			<g>
				<rect x="70.8" y="92.3" class="st2" width="0.6" height="20.2"/>
			</g>
			<g>
				<rect x="75.9" y="90.9" transform="matrix(0.866 -0.5 0.5 0.866 -40.318 51.6351)" class="st2" width="0.6" height="20.2"/>
			</g>
			<g>
				<rect x="79.6" y="87.2" transform="matrix(0.5 -0.866 0.866 0.5 -44.3593 117.8678)" class="st2" width="0.6" height="20.2"/>
			</g>
			<g>
				<rect x="71.1" y="92" class="st2" width="20.2" height="0.6"/>
			</g>
			<g>
				
					<rect x="69.8" y="86.9" transform="matrix(0.8662 -0.4998 0.4998 0.8662 -32.9049 51.6058)" class="st2" width="20.2" height="0.6"/>
			</g>
			<g>
				
					<rect x="66.1" y="83.2" transform="matrix(0.4992 -0.8665 0.8665 0.4992 -34.2219 107.8585)" class="st2" width="20.2" height="0.6"/>
			</g>
		</g>
		<g>
			<g>
				<g>
					<path class="st2" d="M71.1,70c-12.3,0-22.3,10-22.3,22.3c0,12.3,10,22.3,22.3,22.3c12.3,0,22.3-10,22.3-22.3
						C93.4,80,83.5,70,71.1,70z M71.1,110.2c-9.9,0-17.9-8-17.9-17.9c0-9.9,8-17.9,17.9-17.9c9.9,0,17.9,8,17.9,17.9
						C89,102.2,81,110.2,71.1,110.2z"/>
				</g>
			</g>
			<g>
				<path class="st3" d="M91.1,92.3c0-11-8.9-20-20-20c-11,0-20,8.9-20,20c0,11,8.9,20,20,20C82.2,112.2,91.1,103.3,91.1,92.3z
					 M71.1,110.2c-9.9,0-17.9-8-17.9-17.9c0-9.9,8-17.9,17.9-17.9c9.9,0,17.9,8,17.9,17.9C89,102.2,81,110.2,71.1,110.2z"/>
			</g>
			<g>
				<path class="st4" d="M90,92.3c0-10.4-8.4-18.9-18.9-18.9c-10.4,0-18.9,8.4-18.9,18.9c0,10.4,8.4,18.9,18.9,18.9
					C81.5,111.1,90,102.7,90,92.3z M71.1,110.2c-9.9,0-17.9-8-17.9-17.9c0-9.9,8-17.9,17.9-17.9c9.9,0,17.9,8,17.9,17.9
					C89,102.2,81,110.2,71.1,110.2z"/>
			</g>
		</g>
	</g>
	<g>
		<g>
			<g>
				<rect x="141.5" y="72.1" class="st2" width="0.6" height="20.2"/>
			</g>
			<g>
				<rect x="136.5" y="73.4" transform="matrix(0.866 -0.5 0.5 0.866 -23.4444 79.5798)" class="st2" width="0.6" height="20.2"/>
			</g>
			<g>
				
					<rect x="132.8" y="77.1" transform="matrix(0.5001 -0.866 0.866 0.5001 -9.0236 158.8398)" class="st2" width="0.6" height="20.2"/>
			</g>
			<g>
				<rect x="121.6" y="92" class="st2" width="20.2" height="0.6"/>
			</g>
			<g>
				
					<rect x="122.9" y="97.1" transform="matrix(0.867 -0.4983 0.4983 0.867 -30.8124 79.2441)" class="st2" width="20.2" height="0.6"/>
			</g>
			<g>
				
					<rect x="126.6" y="100.8" transform="matrix(0.4997 -0.8662 0.8662 0.4997 -19.107 169.021)" class="st2" width="20.2" height="0.6"/>
			</g>
			<g>
				<rect x="141.5" y="92.3" class="st2" width="0.6" height="20.2"/>
			</g>
			<g>
				<polygon class="st2" points="151.7,110 141.6,92.4 142.1,92.1 152.2,109.7 				"/>
			</g>
			<g>
				<rect x="150.3" y="87.2" transform="matrix(0.5 -0.8661 0.8661 0.5 -9.0145 179.0855)" class="st2" width="0.6" height="20.2"/>
			</g>
			<g>
				<rect x="141.8" y="92" class="st2" width="20.2" height="0.6"/>
			</g>
			<g>
				
					<rect x="140.5" y="86.9" transform="matrix(0.8657 -0.5005 0.5005 0.8657 -23.4444 87.0723)" class="st2" width="20.2" height="0.6"/>
			</g>
			<g>
				
					<rect x="136.8" y="83.2" transform="matrix(0.4991 -0.8666 0.8666 0.4991 1.1855 169.1168)" class="st2" width="20.2" height="0.6"/>
			</g>
		</g>
		<g>
			<g>
				<g>
					<path class="st2" d="M141.8,70c-12.3,0-22.3,10-22.3,22.3c0,12.3,10,22.3,22.3,22.3c12.3,0,22.3-10,22.3-22.3
						C164.1,80,154.1,70,141.8,70z M141.8,110.2c-9.9,0-17.9-8-17.9-17.9c0-9.9,8-17.9,17.9-17.9c9.9,0,17.9,8,17.9,17.9
						C159.7,102.2,151.7,110.2,141.8,110.2z"/>
				</g>
			</g>
			<g>
				<path class="st3" d="M161.8,92.3c0-11-8.9-20-20-20c-11,0-20,8.9-20,20c0,11,8.9,20,20,20C152.8,112.2,161.8,103.3,161.8,92.3z
					 M141.8,110.2c-9.9,0-17.9-8-17.9-17.9c0-9.9,8-17.9,17.9-17.9c9.9,0,17.9,8,17.9,17.9C159.7,102.2,151.7,110.2,141.8,110.2z"/>
			</g>
			<g>
				<path class="st4" d="M160.7,92.3c0-10.4-8.4-18.9-18.9-18.9c-10.4,0-18.9,8.4-18.9,18.9c0,10.4,8.4,18.9,18.9,18.9
					C152.2,111.1,160.7,102.7,160.7,92.3z M141.8,110.2c-9.9,0-17.9-8-17.9-17.9c0-9.9,8-17.9,17.9-17.9c9.9,0,17.9,8,17.9,17.9
					C159.7,102.2,151.7,110.2,141.8,110.2z"/>
			</g>
		</g>
	</g>
	<g>
		<g>
			<path class="st5" d="M95.4,93.3c-0.5,0-1-0.4-1-1C94.4,79.4,84,69,71.1,69c-5.3,0-10.5,1.8-14.7,5.2c-0.4,0.3-1,0.3-1.4-0.1
				c-0.3-0.4-0.3-1,0.1-1.4C59.7,69,65.4,67,71.1,67c13.9,0,25.3,11.3,25.3,25.3C96.4,92.8,96,93.3,95.4,93.3z"/>
		</g>
	</g>
	<g>
		<g>
			<polygon class="st5" points="70.5,92.9 62.9,68.4 64,68.1 71.4,91.7 95.6,90.1 95.7,91.3 			"/>
		</g>
	</g>
	<g>
		<path class="st6" d="M108.3,19.1c0,0-0.8-1.2-1.2-2.5c0,0-3.3,1-3.5,0l-0.8-4.7l-1-0.4c0,0,0.2-0.6,1.2-2.9c0,0-0.1-3.5,1.9-5.3
			c0,0,7.9-3.7,8,5.9c0,0-0.2,2.4-0.7,3.7c0,0-0.4,1.9,0.4,3.8c0,0,1.9,3.4-3.6,5.4L108.3,19.1z"/>
	</g>
	<g>
		<path class="st7" d="M131.1,58.7c0,0-5.3,3.4-12.2,4.6c0,0-2.6,3.2-8.3,7.8c0,0-4.7-5.3-8.5-4.7c0,0,3.6-6.9,9.7-8.6
			C111.8,57.8,125.6,55.8,131.1,58.7z"/>
	</g>
	<g>
		<path class="st7" d="M114.7,47.6c0,0-0.8,2.3-0.8,3.9l7.6-1.1C121.5,50.4,118.5,47.4,114.7,47.6z"/>
	</g>
	<g>
		<g>
			<path class="st2" d="M83.6,53c-0.1,0-0.2,0-0.3-0.1c-2.5-1.2-4-2.7-4.5-4.2c-0.4-1.3,0.1-2.1,0.1-2.2c0-0.1,0.1-0.1,0.1-0.2
				c2.3-2.3,8.3-2.1,9-2.1c0.4,0,0.8,0.4,0.8,0.8c0,0.4-0.4,0.8-0.8,0.8c-1.6-0.1-6.2,0.1-7.8,1.5c-0.2,0.6,0.1,2,2.5,3.5
				c0.1-0.3,0.2-0.7,0.4-1.1c1.6-2.4,6.7-3.2,15.3-2.4c0.4,0,0.8,0.4,0.7,0.9c0,0.4-0.4,0.8-0.9,0.7c-10.7-1-13.2,0.9-13.8,1.7
				c-0.4,0.6-0.2,1.2-0.1,1.3c0.1,0.3,0.1,0.7-0.2,0.9C84,52.9,83.8,53,83.6,53z"/>
		</g>
	</g>
	<g>
		<path class="st8" d="M108.3,21c0,0-2.3,1.7-3.9,5.8l-3.4,6.8c0,0-5.8,3.4-10.6,7.4L88.1,42c0,0-7.2-0.5-6.2,2.9l0.9-0.2
			c0,0,1.1-0.2,1,1.4l-1.2,0.2c0,0,0.1,1.5,2.3,0.8c0,0,1.8-0.7,2.4-1.3c0,0,0.7-0.9,1.8-1.6c0.6-0.3,10.2-2,14.4-5.7l4.7-8.7V21z"
			/>
	</g>
	<g>
		<path class="st9" d="M108.3,19.1c0,0-3.6,1.8-3.3,6.3c0,0,1.4,0.4,1.9,1.8h2.3l0.2-6.4L108.3,19.1z"/>
	</g>
	<g>
		<path class="st8" d="M102.1,66.3l-2.2,4.1c0,0-0.5,1.8,1.1,5.7l2,16.1c0,0,0.1,5.9-5.5,9.8c0,0-4.1,1.7-3.1,3.3
			c0,0,7.6-0.8,14.3-2.8c0,0,0.3-2-0.9-4.3l-0.5-7.1c0,0,2.2-8.2,0.1-16.3l3.3-3.9C110.6,71,109.2,65.1,102.1,66.3z"/>
	</g>
	<g>
		<g>
			<path class="st5" d="M166.1,93.3c-0.5,0-1-0.4-1-1c0-12.8-10.5-23.3-23.3-23.3c-7.3,0-14.3,3.5-18.7,9.4
				c-0.3,0.4-0.9,0.5-1.4,0.2c-0.4-0.3-0.5-0.9-0.2-1.4c4.8-6.4,12.3-10.2,20.3-10.2c13.9,0,25.3,11.3,25.3,25.3
				C167.1,92.8,166.6,93.3,166.1,93.3z"/>
		</g>
	</g>
	<g>
		<g>
			<polygon class="st5" points="141.3,93.5 137.9,68.1 139.1,67.9 142.3,91.6 163.2,80.4 163.7,81.5 			"/>
		</g>
	</g>
	<g>
		<path class="st4" d="M109.8,97.1c-0.4,0-0.7-0.2-0.9-0.5c-0.3-0.3-0.3-0.8-0.2-1.1l12.2-32.3l2.2,0.8l-2.5,6.7l22.1,20.9
			c0.3,0.3,0.5,0.8,0.3,1.2c-0.1,0.4-0.5,0.7-1,0.8l-32,3.4C109.9,97.1,109.8,97.1,109.8,97.1z M119.7,73.1l-8.1,21.4l27.6-2.9
			L119.7,73.1z"/>
	</g>
	<g>
		<path class="st4" d="M113.8,83.8c-0.1-0.1-12.6-13.4-30-21.6l1-2.1c17.9,8.4,30.6,22,30.7,22.2L113.8,83.8z"/>
	</g>
	<g>
		<path class="st4" d="M109.3,97c-0.3-0.1-7-3.2-13.3-15.7c-2.1-4-8.6-14.6-13-15.5l0.5-2.3c6.3,1.3,13.8,15.2,14.7,16.8
			c5.9,11.7,12.1,14.6,12.2,14.6L109.3,97z"/>
	</g>
	<g>
		<path class="st2" d="M131.1,58.7v3.7c0,0-5,2.2-12.2,0.9v-2.5C118.9,60.7,125.2,57.9,131.1,58.7z"/>
	</g>
	<g>
		<path class="st2" d="M112.7,16.6c0,0-1.5,4.4-4.4,4.4c0,0-1.8,4.5-1.5,8.7c0,0,0.6,8.6,8,17.9c0,0,6.5,4.6,16.4,0.6
			c0,0-0.6-3.3-4.3-8.6c0,0-3.3-5.8-4.2-11C122.6,28.5,119.8,15.9,112.7,16.6z"/>
	</g>
	<g>
		<path class="st9" d="M123.5,45.9c-1.4-1.4-3.1-2.1-4.5-3.5c-1.4-1.4-3-2.5-3.5-4.4c-0.5-1.8,0.2-5.3,0.9-7.1
			c0.4-1.1,1.1-1.7,1.2-2.9c0.1-1.1,0.7-3.8,0.2-4.9c-1.9-4.2-4.5-4.2-6-4.9c-0.7,1.2-1.9,2.7-3.6,2.7c0,0-1.8,4.5-1.5,8.7
			c0,0,0.6,8.6,8,17.9c0,0,4.1,2.9,10.9,2C125.3,48.3,124.6,47.1,123.5,45.9z"/>
	</g>
	<g>
		<path class="st2" d="M115.3,18.1c0,0-4.4-0.7-4.9,6.5c0,0,5.1-1.1,6.2,2.7C116.6,27.2,120.3,19.7,115.3,18.1z"/>
	</g>
	<g>
		<path class="st10" d="M131.1,48.1c0,0-16.9,1-24.7,3.6c0,0,1.7,6.6,4.8,8.8c0,0,20.6,1.4,21.7-3.9
			C132.9,56.7,133.9,51.8,131.1,48.1z"/>
	</g>
	<g>
		<path class="st6" d="M97.8,47.3c0,0-1.7,0-1.5,1.5c0,0-0.2,1.4-2.2,1c0,0-0.2,0.8-1.4,0.3c0,0,0,2-1.8,2c0,0-1.2-0.2,0.3-2.2
			c0,0-2,0-0.5-3.7c0,0,0.5-1.3,5.7-0.8l5.2-4.8c0,0,3.9-4.8,6.4-5.5l2.5-10.4c0,0,3.6-0.9,5.7,1.6c0,0-1.4,5.9-4.1,10.4
			c0,0-0.4,1.5-1.6,2.2C110.4,38.8,103.2,45.8,97.8,47.3z"/>
	</g>
	<g>
		<path class="st5" d="M94.3,105.4c0,0,7.6-0.8,14.3-2.8c0,0,0.3-2-0.9-4.3c-8.7,5.7-10.2,3.8-10.2,3.8S93.4,103.8,94.3,105.4z"/>
	</g>
	<g>
		<g>
			<path class="st4" d="M71.3,93.5c-0.1,0-0.3,0-0.4-0.1c-0.6-0.2-0.9-0.9-0.6-1.5l15.1-37L82.6,53c-0.5-0.4,0.8-2.3,1.3-2l3.5,2.4
				c0.5,0.3,0.6,0.9,0.4,1.4L72.4,92.8C72.2,93.2,71.8,93.5,71.3,93.5z"/>
		</g>
	</g>
	<g>
		<path class="st2" d="M110.1,100.8c-2.7,0-4.8-2.2-4.8-4.8c0-2.7,2.2-4.8,4.8-4.8c2.7,0,4.8,2.2,4.8,4.8
			C115,98.6,112.8,100.8,110.1,100.8z M110.1,91.9c-2.2,0-4,1.8-4,4s1.8,4,4,4c2.2,0,4-1.8,4-4S112.4,91.9,110.1,91.9z"/>
	</g>
	<g>
		<polygon class="st2" points="102.7,105.2 102.1,104.7 109.8,95.7 117.7,84.7 118.3,85.2 110.5,96.2 		"/>
	</g>
	<g>
		
			<rect x="97" y="104.1" transform="matrix(0.9843 -0.1764 0.1764 0.9843 -16.9024 19.7046)" class="st2" width="10.7" height="1.6"/>
	</g>
	<g>
		
			<rect x="112" y="85.5" transform="matrix(0.7638 -0.6455 0.6455 0.7638 -27.9714 96.0767)" class="st2" width="10.7" height="1.6"/>
	</g>
	<g>
		<path class="st6" d="M119.4,77.1c-3.2-2.9-4-5.5-4-5.5c-1.9-6.8-7-11.7-7-11.7l1.8-0.2c-2.5-2.7-3.8-7.9-3.8-7.9
			c-8.1,1.2-7.2,5.8-7.2,5.8c0.4,4,3.4,6.4,3.4,6.4c3.5,3.3,11.1,14.1,11.1,14.1c0.9,2.9-1.5,7.9-1.5,7.9c-2.9,4-1.9,4.3-1.9,4.3
			c2.2,0.1,6.5-4,6.5-4c0.6-0.7,2-2.2,2-2.2c1.8-1.1,3.1-2.4,3.1-2.4C122,79.2,119.4,77.1,119.4,77.1z"/>
	</g>
	<g>
		<path class="st5" d="M112.7,84.8L112.7,84.8c-0.3,0.7-0.5,1.2-0.5,1.2c-2.9,4-1.9,4.3-1.9,4.3c2.2,0.1,6.5-4,6.5-4
			c0.6-0.7,2-2.2,2-2.2c1.8-1.1,3.1-2.4,3.1-2.4c0.1-2.5-2.6-4.6-2.6-4.6S115.4,88.5,112.7,84.8z"/>
	</g>
</g>
<path class="st5" d="M103.2,4.1c0,0-0.6-1.6,0.5-2.5c0,0,0.7,0.8,1.4,0.9c0,0,4.6-0.8,6.6,0.9c0,0,2.9,2.2,2.7,5.5
	c0,0-0.2,2.8-2.5,4.8c0,0-1.5,0.3-2.3-0.3c0,0,0.6-4.1-1.6-4.3c0,0-1-0.5-1.9,0.9l-0.7-0.1V7.3c0,0-1.4-0.9,0.2-2.2l0.1-0.2
	C105.6,4.8,104.2,5.1,103.2,4.1z"/>
</svg>
