<?xml version="1.0" encoding="utf-8"?>
<!-- Generator: Adobe Illustrator 19.2.0, SVG Export Plug-In . SVG Version: 6.00 Build 0)  -->
<svg version="1.1" id="Layer_1" xmlns="http://www.w3.org/2000/svg" xmlns:xlink="http://www.w3.org/1999/xlink" x="0px" y="0px"
	 viewBox="0 0 206 130" style="enable-background:new 0 0 206 130;" xml:space="preserve">
<style type="text/css">
	.st0{fill:none;enable-background:new    ;}
	.st1{fill:#004067;}
	.st2{fill:#00A2C4;}
	.st3{fill:#364167;}
	.st4{fill:#8D4B22;}
	.st5{fill:#773D2A;}
	.st6{fill:#FFD802;}
	.st7{fill:#E8BA00;}
	.st8{fill:#00B4D8;}
</style>
<path class="st0" d="z"/>
<path class="st1" d="M152.9,100.4c11.1-4.2-3.5-7.3-8.5-7.6c-5-0.3-10-0.6-15-0.7c-4.3-0.5-9.1-0.3-13.8,0.1
	c-11.8,0.4-23.6,1.6-35.2,4l4.2-0.1c-6.5,0.5-13.1,0.9-19.7,1.3c-10.1,0.6-17.8,3.4-27,5.1c-9.5,1.7-19.1,1.4-27.7,6.2
	c-3.3,8.9,28.1,11.1,34.6,11.2c16.4,0.3,31.8-2.7,47.7-5.1c28.1-4.3,56.6,3.4,84.7,0.8c5.8-0.5,14.5-1.1,19.7-3.6
	C197.9,98.2,162.1,102.6,152.9,100.4z"/>
<path class="st2" d="M90.5,105.1c0,0,15.3,7.6,29-0.4c0,0,5.8-3.8,14.6-10.9c0,0-12.3,0.7-12.7,0.9c-0.4,0.2-17.7,7.5-18.5,7.5
	C102.3,102.1,90.5,105.1,90.5,105.1z"/>
<path class="st2" d="M76.6,94.3c0,0,9.2,14.3,26.4,8.5v-4L83,90L76.6,94.3z"/>
<path class="st3" d="M87.5,40.1c-0.8-3.3,2.9-3.9,2.9-3.9c0.1-2,2.2-1.5,2.2-1.5c0.6-2.9,2.5-2.9,2.5-2.9c-0.6-2.1,1.8-3.2,1.8-3.2
	c-2.2-2-1.1-3.4-1.1-3.4c-1.3-1.7-0.3-3.6-0.3-3.6c-1.8-2.8,0.1-5.6,0.1-5.6c-0.8-2.4,1.9-4.3,1.9-4.3c0.4-3.9,5-3.5,5-3.5
	s4-3.8,8.6,3.6c0,0,3.1,2.2,1.7,5.8c0,0,1.3,2.4,0,3.9c0,0,1,1.5-0.4,2.8c0,0,0.5,1.6-1,2.7c0,0,0.2,1.3-1.1,1.6
	c0,0,1.9,1.1,1.1,3.8c0,0,3.2-0.1,3.1,2.4c0,0,2-0.3,2.6,1.7c0,0,3.7-0.7,4.3,2.9v2.4H87.4L87.5,40.1z"/>
<polygon class="st2" points="106,98.1 92.3,88 91.8,81.9 113.4,80.3 119.3,85.7 120,89.2 "/>
<path class="st4" d="M120,85.7c-5.1-13.7-0.5-25.1-0.5-25.1l2.8,9.8c0.4,3.3,3.3,3.7,3.3,3.7c2.8,1.3,18.3,2.4,18.3,2.4l10.8-2.3
	l4-4c1.1-4.1,0.3-6.1,0.3-6.1c-1.7,0.1-1.8,4.8-1.8,4.8c-1.1,0.3-1.9,1.6-1.9,1.6h-1.2l1.2-3l-0.8-2.6l-0.9-3.1
	C152,62,152,63,152,63c-1.2,0.4-1.7,3.2-1.7,3.2l-1,2.2c-2.5,0.6-6.7,3.2-6.7,3.2l-4.9-0.8c-2.5-1.6-8.2-4.1-8.2-4.1
	c-2.8-4.5-2.9-14.2-2.9-14.2c0.7-16.2-10.5-13.6-10.5-13.6c-1.9-1.7-6.7-1.6-6.7-1.6c-3.9-3.1-0.7-8.9-0.7-8.9H98.2
	c1.5,6,0.2,8.7,0.2,8.7c-2.1,0.1-5.7,2.2-5.7,2.2c-3.9,0.2-7.2,1.5-7.2,1.5c-4.9,2.8-3.7,12.9-3.7,12.9l-2.2,14
	c-1.9-0.1-5.6,2.5-5.6,2.5c-3.2,1.4-6.2,1.6-6.2,1.6c-1-1.3-3.5-1.1-3.5-1.1c-0.8-1.5-2.9-1.8-2.9-1.8c-2.6-5.2-3.2-3.9-3.2-3.9
	c-0.6-1.4-0.8-0.9-0.8-0.9c-1.1-2.1-1.5-0.1-1.5-0.1c-0.5-0.6-1.1-0.3-1.1-0.3l0.3,4.8l0.8,3.3l-2.4-1.2c-0.3-1.5-0.8-2.1-0.8-2.1
	c0.3-2.7-1.4-3.1-1.4-3.1l-0.2,3.2l0.6,3l5.2,3.8c2.2,0.3,9,1.3,9,1.3c14.9,0.8,20.1-3.4,20.1-3.4l2.2-12.5c0,0,4.6,11.4-0.5,25.1
	c0,0,18.4-2.7,31.5,0H120z"/>
<path class="st5" d="M108.7,28.3H98.2c0.2,0.9,0.4,1.7,0.5,2.5c1.3,1.3,4.3,1.3,4.3,1.3c2.3,0.2,3.8-0.5,4.7-1.1
	C108.1,29.5,108.7,28.3,108.7,28.3z"/>
<path class="st4" d="M83.7,80.8c0,0-2-3-7.5-4.6c0,0-5.4-3.3-8.8,1.4c0,0-3.3,5.2,0,8.5l4.4,3.6c0,0,5.2,8.7,20.2,8.7
	c0,0,10,1.7,16.3,5c0,0,0.9,0.7,2.7,0.5c0,0,9.6,2.7,13.1,1.7c0,0,1.3-1.5,0.7-2.9c0,0,0.7-4.2-1.4-5c0,0,2-4.1-11-0.8
	c0,0-4.1,0.1-9.9-3c0,0-1.6-1.2-5.2-5C97.3,88.8,92.8,83,83.7,80.8z"/>
<path class="st5" d="M123.4,97.7c0,0,2-4.1-11-0.8c0,0-1.7,0-4.4-0.7c-2.5,1.4-5.4,3.1-7.9,4.3c2.8,0.8,5.8,1.8,8.2,3.1
	c0,0,0.9,0.7,2.7,0.5c0,0,0.1,0,0.2,0.1c2.6-0.9,5.2-1.7,7.2-2.2c0,0,2.7-0.4,6.5-1.7C124.7,99.1,124.4,98,123.4,97.7z"/>
<path class="st6" d="M119.5,60.6c0.2-3.6,0-9.9,0-9.9c-3-3.4-3.4-11.8-3.4-11.8c-0.6-0.5-1.4-0.9-2.3-1.1
	c2.1,13.1-9.6,12.2-9.6,12.2c-11-0.6-9.3-9.8-8.8-12c-1.4,0.6-2.6,1.3-2.6,1.3c-0.4,6.1-3.5,11.4-3.5,11.4c-1.1,5.1-0.8,9.9-0.8,9.9
	s4.6,11.4-0.5,25.1c0,0,18.4-2.7,31.5,0h0.7C115,72,119.5,60.6,119.5,60.6z"/>
<path class="st7" d="M88.4,59C88.4,59,88.4,59,88.4,59v0.8c0,0.5,0,0.8,0,0.8s0.6,1.4,1.1,3.9c6.3,2,11.4-2.9,11.4-2.9
	C91.2,65.6,88.4,59,88.4,59z"/>
<path class="st7" d="M118.4,64.5c0.5-2.5,1.1-3.9,1.1-3.9c0-0.4,0-0.9,0.1-1.5c-0.6,1-3.7,6-12.4,2.4
	C107.1,61.6,112.2,66.5,118.4,64.5z"/>
<path class="st8" d="M93.3,98.7c5.5-5,3.4-10.6,3.3-10.6c-1.5-1.6-5.8-5.6-13-7.3c0,0-2-3-7.5-4.6c0,0-5.4-3.3-8.8,1.4
	c0,0-3.3,5.2,0,8.5l4.4,3.6c0,0,5.2,8.7,20.2,8.7C92.1,98.5,92.5,98.6,93.3,98.7z"/>
<path class="st4" d="M127.7,81.1c0,0-10.6,3.8-14.9,10.2c0,0-10.9,6.6-15.4,8.3c0,0-6.6,0.3-10.5,0.6c0,0-5.1-1.9-6.7,1.1
	c0,0-2.6,0.5-2.3,3.5c0,0-0.8,1.1,0,2.8c0,0-0.2,2,2.7,1.5c0,0,0.3-0.1,2.7,0.1c0.7,0,5.6-0.9,9.1-1c0,0,5.2-0.1,8.3-2.3
	c0,0,11.8-4.5,17.6-6c0,0,12-1.9,19.9-9.3l5.6-4.8c0,0,1.7-3.6,0-6.4c0,0-5.4-7.9-10.9-2C133.1,77.2,129.3,78.6,127.7,81.1z"/>
<path class="st8" d="M118,99.9c0.1,0,0.2-0.1,0.4-0.1c0,0,12-1.9,19.9-9.3l5.6-4.8c0,0,1.7-3.6,0-6.4c0,0-5.4-7.9-10.9-2
	c0,0-3.8,1.3-5.4,3.9c0,0-9.8,3.5-14.4,9.5c-0.3,0.5-0.5,0.7-0.5,0.7S117.9,94.4,118,99.9z"/>
<path class="st4" d="M103,30.5c0,0-4.3,0-4.8-2.1c0,0-1.7-2.9-1.8-7.3c0,0-1.1-9.6,7.5-9.7c0,0,7.8-0.5,7.4,9c0,0,0.1,5.4-2.7,8
	C108.7,28.3,107.2,30.8,103,30.5z"/>
<path class="st3" d="M103.9,11.3c-6.7,0.1-7.6,5.9-7.6,8.5l0,0c0,0,1.4-1.4,2.2-4.8c0,0,1.2,0.1,2.9-1.6c0,0,2.3,1.9,6.3,0.6
	c0,0,1.1,2.3,3.1,2.6C109.5,11,103.9,11.3,103.9,11.3z"/>
<path class="st3" d="M98.2,28.3c0,0,3.1,5,1.8,5.8c0,0,1,2.9-0.6,2.9c0,0-0.1,2.5-2.4,2.4c0,0-2.3,2.8-4.4,1c0,0-2.2,1.9-3-0.9
	l6.5-4l1.8-6.5"/>
<path class="st3" d="M108.7,28.3c0,0-3.3,3.8-1.9,5.4c0,0-1,1.4,0.3,1.9c0,0-0.5,2.7,1.2,2.2c0,0,1.3,3.4,3.2,0.7
	c0,0,0.4,1.7,1.4,0.5c0,0,3,4.8,5.3-0.2l-2.3-1l-3.7-1.7l-2.4-4L108.7,28.3z"/>
</svg>
