<?xml version="1.0" encoding="utf-8"?>
<!-- Generator: Adobe Illustrator 19.2.0, SVG Export Plug-In . SVG Version: 6.00 Build 0)  -->
<svg version="1.1" id="Layer_1" xmlns="http://www.w3.org/2000/svg" xmlns:xlink="http://www.w3.org/1999/xlink" x="0px" y="0px"
	 viewBox="0 0 206 130" style="enable-background:new 0 0 206 130;" xml:space="preserve">
<style type="text/css">
	.st0{fill:none;enable-background:new    ;}
	.st1{fill:#FF5761;}
	.st2{fill:#364167;}
	.st3{fill:#00B5A9;}
	.st4{fill:#F3B2B9;}
	.st5{fill:#FFBAC3;}
	.st6{fill:#FF7577;}
	.st7{fill:#E45D63;}
</style>
<path class="st0" d="z"/>
<path class="st1" d="M176.3,105.6c-6.7-2.1-14-2.1-21.1-2.6c-3.9-0.3-15.1,2.1-17.7-0.8c2.1-1.8,5.3-1,8-1c0.2-0.3,0.4-0.7,0.6-1.1
	c-6.1-3-15.7-2.8-22.3-2.1c-3.3,0.4-21.1,0.7-21.7,3.6c-0.6,3.2,6.4,4.2,3.8,6.8c-1.6,1.6-8.1,0.9-10.4,0.7
	c-7.9-0.5-15.5-0.7-23.3-0.1c-7.7,0.6-15.5-0.3-23.1,0.3c-2.8,0.2-19.7,2.6-11.5,8.3c2.6,1.8,8.5,0.5,11.6,0.4
	c4.4-0.1,8.9,0.4,13.3,0.5c3,0.1,20-2.8,19,2.3c-0.5,2.5-5.8,2.4-0.6,4c3,0.9,6.9,0.2,9.8,0c7.8-0.6,15.3-1.2,23.2-0.7
	c14.4,1,28.8,1.8,42.8-0.1c2.7-0.4,12.8-2.1,9.7-5.8c-2.5-3-9.6-0.8-12.5-3.7c0.2-0.4,0.3-0.6,0.5-1
	C159.1,112.9,177.4,113.3,176.3,105.6z"/>
<g>
	<path class="st2" d="M124.1,113.3c0,0-1.2,0.3-0.7,1.6c0,0,2.3,1.6,11,2.3c0,0,6.7,0.4,9.1-1.1c0,0,0.4-0.5-0.3-1.2l-6.2-0.4
		l-1.7-0.3c0,0-3.2-1.1-3.4-1c-0.3,0-6.2,0-6.2,0L124.1,113.3z"/>
	<path class="st3" d="M126.1,109.2c0,0-1.8,0.7-2,4.1c0,0,2.2,0.6,3.9,0.6c0,0,5.7-0.4,5.5,1.3c0,0,5.8,0.9,9.7-0.2
		c0,0,0-1.1-4.2-1.2c0,0-1.2-1.4-3-2c0,0-3.1-2.7-4-3.4C132,108.4,129.2,107.8,126.1,109.2z"/>
	<path class="st2" d="M60.8,90.8c0,0,0.1-1.1-1.1-1.4c0,0-0.8-0.4-4.9,10c0,0-2.2,4.6-0.5,9.2c0,0,0.5,0,0.8-0.6l0.6-4.4l2.3-2.5
		c0,0,2.1-2.4,2.3-2.6c0.1-0.2,0.9-3.1,0.9-3.4C61.1,94.7,60.8,90.8,60.8,90.8z"/>
	<path class="st3" d="M64.4,93.4c0,0-0.5-2.7-3.6-2.7c0,0-1.5,1.7-1.4,5c0,0,0.2,2.7-2.6,3.7c0,0-2.4,4.6-1.6,8.4
		c0,0,1.1,0.4,2.8-4.1c0,0,4.7-4,5.2-4.3L64.4,93.4z"/>
	<path class="st4" d="M113.4,27.4c0,0,4.9,0.7,4.8,8.5c0,0,2.2,4.5,2.6,6.3c0,0,1.5-1.4,2.2-5.8c0,0,0.2-1.1,0.3-2.9
		c0,0-1.7-1.5-1.5-4c0,0-0.8-3.6,0-3.6c0,0,0.7-0.2,0.8,1.1c0,0,0.3-1.1,1.6-0.8c0,0,0.6-0.8,1.6,0.1c0,0,1-0.6,1.3,1
		c0,0,1.2,1,0.5,4.1c0,0-0.5,1.4-1,2.1c0,0-0.2,8.3-3.3,14.8l-0.5,2c0,0-0.9,1.9-3.6,0l-4.1-7.8L113.4,27.4z"/>
	<path class="st2" d="M103.9,13.1h-1.2c0,0-3.5-2.8-7.6,2.3c0,0,2.1-2,4.7-2c0,0-4.2,1.9-3.7,7.6c0,0,0.5-2.7,1.9-4.6
		c0,0-1.8,4-0.8,7c0,0,0.3-2.8,1.3-4.1c0,0-0.6,3,2.3,5.2c0,0,6,2.5,4.6-3.7c0,0-2.9-0.2-3.7-3.2c0,0-0.5-2.4,1.1-3.2l0.8-0.1
		L103.9,13.1z"/>
	<path class="st4" d="M106.6,73.6c0,0-2.4,10.4-10.8,19.3c0,0-0.6,2.8-6.3,1.5c0,0-20.1,1.3-26.3,5.2c0,0-1.2-4.6,1.3-6.1
		c0,0,6.2-0.9,10.9-3.4c0,0,6.1-3.3,13.8-1.6c0,0,2.1-2.9,3.4-7.3c0,0,2.1-10.6,4.2-12.9C96.7,68.2,103.8,67.5,106.6,73.6z"/>
	<path class="st5" d="M95.8,32.4c0,0,2.6,5.3,3.9,10.6c0,0,2.2,7.7,0,9.9c0,0-8.8,8.8-3.1,15.4c0,0,2.6,2.3,10.3,5.5
		c0,0,6.2,3.2,10.3,4.5c0,0,3.8,2.2,5,3.8c0,0-2.4,9.2,1.2,14.3c0,0,2.7,7.3,2.7,13c0,0,2.7,1.4,5.8-0.9c0,0-3.2-11.7-3.2-23.7
		l0.1-3.9c0,0,1.6-3.5-2-5.8c0,0-9.3-9.7-16.5-13c0,0,1.9-0.7,4.2-19.3c0,0,4.3-2.2,1.2-8.5c0,0,0.7-3.1-2.4-6.8l-1.7-0.9l-0.5-1.9
		l1.2-2.2l3.1,0.7c0,0,0.4,0.2,1.9-4.6h1.2l-1.2-3.1l0.4-0.4l-0.2-3.6c0,0,1.9-3.3-5.2-4.9c0,0-6.7-1.5-8.5,6.9c0,0-1.8,5.5,1.8,6.4
		c0,0-0.3,3.8-2.7,4.7c0,0-2.3-0.3-3.9,0.7c0,0-3.8,0.4-8.1,4.8c0,0-4.7,1.6-7.2,4c0,0-1.8,1.1-3.5,2.8c0,0-1.6,10.8-0.5,15.9
		c0,0-0.7,0.7,0.1,1.9c0,0-0.9,3.4-0.9,5.1c0,0,1,1.1,2.4,2c0,0,3.8,0.3,3.9-1.5c0,0,1.6-1.9-0.5-3.9l-1.4-1.5c0,0-0.3-4.9,0.1-8.6
		c0,0,1.1-4.8,1.8-7.6C84.9,38.5,92.1,35.4,95.8,32.4z"/>
	<path class="st2" d="M110.3,62c0.1,0,0.6-0.4,1.4-3.2l0,0c-5.8-7.8-11.9-6-11.9-6s-8.8,8.8-3.1,15.4c0,0,0.1,0.1,0.4,0.3
		C100.9,63.1,110.3,62,110.3,62L110.3,62z"/>
	<path class="st6" d="M114.5,42.6c0,0,4.3-2.2,1.2-8.5c0,0,0.7-3.1-2.4-6.8l-1.7-0.9c0,0,2.9,3,2.4,7.1c0,0-3,1.3-7-5.7
		c0,0-1.8-3.5-3.7-3.7l0,0c-0.2,0.1-0.4,0.2-0.6,0.3c0,0,3.3,2.9,3,7c0,0-3.2,4.6-7.8,6l0,0c0.6,1.7,1.3,3.6,1.8,5.5
		c0,0,7.1-1,14.5,1.5C114.4,43.9,114.4,43.3,114.5,42.6z"/>
	<path class="st7" d="M98.5,38.8L98.5,38.8c0.5,1.3,0.9,2.7,1.3,4.1c0,0,1.2-0.2,3.1-0.2l0.1-0.2l0.3-2c0,0,5-6,5.2-6.8
		C108.4,33.7,108.5,31.9,98.5,38.8z"/>
	<path class="st2" d="M107.4,16.4c0,0-1.4-1.5,0.3-2.6c0,0,1.3-1.3,2.4,0.7c0,0,1.5,1.3,2.8-1.7c0,0,2-0.3,1.9-1.8
		c0,0,1.5-0.6,2.8,0.3c0,0,1.9-3.3-5.2-4.9c0,0-6.7-1.5-8.5,6.9c0,0-1.8,5.5,1.8,6.4C105.6,19.8,107.8,19.3,107.4,16.4z"/>
</g>
</svg>
