<svg xmlns="http://www.w3.org/2000/svg" viewBox="0 0 17 17">
  <defs>
    <style>
      .cls-1 {
        fill: #b9c0ca;
        opacity: 0;
      }

      .cls-2 {
        fill: #fff;
      }
    </style>
  </defs>
  <g id="Map" transform="translate(-221 -141)">
    <path id="_" data-name="#" class="cls-1" d="M2,0H15a2,2,0,0,1,2,2V15a2,2,0,0,1-2,2H2a2,2,0,0,1-2-2V2A2,2,0,0,1,2,0Z" transform="translate(221 141)"/>
    <path id="_2" data-name="#" class="cls-2" d="M229.484,155.05h0l-2.813-4.872a4.294,4.294,0,0,1,.327-5.155,3.518,3.518,0,0,1,4.973,0,4.3,4.3,0,0,1,.327,5.155l-2.813,4.872Zm.016-9.02a1.5,1.5,0,1,0,1.5,1.5A1.5,1.5,0,0,0,229.5,146.03Z"/>
  </g>
</svg>
