<svg xmlns="http://www.w3.org/2000/svg" width="22" height="20" viewBox="0 0 22 20">
  <defs>
    <style>
      .cls-1 {
        fill: #fff;
        fill-rule: evenodd;
      }
    </style>
  </defs>
  <path id="_" data-name="#" class="cls-1" d="M21.145,3.821a7.468,7.468,0,0,1-2.289.554,4.221,4.221,0,0,0,1.836-2.332,8.31,8.31,0,0,1-2.652,1.023A4.018,4.018,0,0,0,14.992,1.9a3.9,3.9,0,0,0-4.109,3.923c0,0.33-.019.338-0.021,0.665A11.29,11.29,0,0,1,2.318,2.506,4.245,4.245,0,0,0,3.61,8.134a4.135,4.135,0,0,1-1.891-.527c0,0.017,0,.035,0,0.053a4.073,4.073,0,0,0,3.35,4.008,4.132,4.132,0,0,1-1.886.072,4.073,4.073,0,0,0,3.9,2.8A8.361,8.361,0,0,1,1.9,16.383a8.34,8.34,0,0,1-1-.059,11.643,11.643,0,0,0,6.4,1.763A11.452,11.452,0,0,0,19.033,6.439c0-.183,0-0.365-0.012-0.545A8.257,8.257,0,0,0,21.145,3.821Z"/>
</svg>
