<svg xmlns="http://www.w3.org/2000/svg" xmlns:xlink="http://www.w3.org/1999/xlink" width="1596.683" height="359.768" viewBox="0 0 1596.683 359.768">
  <defs>
    <linearGradient id="linear-gradient" x1="0.468" y1="1.326" x2="0.468" y2="-0.235" gradientUnits="objectBoundingBox">
      <stop offset="0" stop-color="#494949"/>
      <stop offset="1"/>
    </linearGradient>
    <clipPath id="clip-path">
      <path id="패스_39" data-name="패스 39" d="M47.993,51.063s.176-.544,2.142-2.238,10.818-6.358,10.818-6.358l1.259-.172,9.835-5.123c1.766-.907,1.886-1.87,1.886-1.87l9.412-.867L122.7,16.385l5.767-4L117.763,6.21l-.056-.032L107.009,0l-6.926,3.329L68.823,26.053l-1.5,5.435a7.127,7.127,0,0,0-3.237,1.091l-8.876,5.679-.3.727S46.834,44.1,43.9,45.232a19.489,19.489,0,0,1-3.877,1.239s-9.9-5.2-10.9-4.624S2.877,57.557,2.877,57.557s-6.306,7.761-.312,15.1l-.02.012.04.008c.008.008.008.016.016.024l.02-.012c12.717,3.461,26.161-.18,26.161-.18S54.991,57.94,55.994,57.361,47.993,51.063,47.993,51.063ZM76.4,30.037l-3.553-2.182L104.635,4.968l7.621,4.364.056.032,7.557,4.4L80.228,32.119l-3.777-2.05Z" transform="translate(0.02)" fill="url(#linear-gradient)"/>
    </clipPath>
    <clipPath id="clip-path-3">
      <path id="패스_29" data-name="패스 29" d="M78.259,96.662,27,67.067c-1.751-1.011-1.591-2.73.356-3.8l83.865-46.29a7.217,7.217,0,0,1,6.423-.11l47.572,27.465c1.692.976,1.607,2.622-.191,3.708L84.85,96.457A7.2,7.2,0,0,1,78.259,96.662Z" transform="translate(-25.784 -16.162)"/>
    </clipPath>
    <clipPath id="clip-path-4">
      <path id="패스_84" data-name="패스 84" d="M74.754,83.8l38.413-18.689,13.659-9.76,13.209-8.165c10.5-7.4,11.478-14.272,11.478-14.272l-8.233-13.877c-.409-2.713,5.33-4.812,5.33-4.812,1.568-.641,2.086-3.749,2.086-3.749L143.129,6.1l-.1-.055-7.565-4.376s-5.384.3-6.489,1.2a12.862,12.862,0,0,1-8.342,3.081L96.578,1.19A72.252,72.252,0,0,0,71.865,7.815l-14.136,7.62-16.9,7.879L8.452,45.506s-3.585,1.8-3.79,2.454c0,0-4.7,1.772-4.662,2.426,0,0,3.04,4.539,10.919,6.3,1.063-.722,4.13-2.6,8.042-4.962a1.067,1.067,0,0,0-.314.9c2.113,1.99,20.638,13.318,20.638,13.318L91.194,36.018,39.367,65.993s19.6,10.7,23.051,11.914a4.621,4.621,0,0,0,1.568-.177c-4.076,2.249-7.334,4.021-8.588,4.635,3.04,4.539,10.919,6.3,10.919,6.3,1.118.027,4.185-2.685,4.185-2.685C71.633,85.868,74.754,83.8,74.754,83.8Zm-23.2-47.764a85.774,85.774,0,0,0-9.16,4.621s-7.143,2.385-8.724,4.1c0,0-4.975,1-6.284,2.563,0,0-1.513.545-3.3,1.336,10.074-6.025,22.056-13.1,22.056-13.1l3.517-1.227,6.611-5.153s4.076-.75,5.439-1.663L64.8,25.454s3.381.068,4.471-.7c0,0-8.247,5.3-9.542,6.72C59.719,31.465,53,34.4,51.554,36.032ZM92.025,62.027S79.771,68.951,69.343,74.758a29.664,29.664,0,0,0,2.3-1.908,8.846,8.846,0,0,0,4.43-3.626c2.972-.913,7.1-5.03,7.1-5.03a69.106,69.106,0,0,0,8-5.289c2.835-.832,7.933-4.716,7.933-4.716,2.454-.75,11.641-5.507,11.641-5.507-1.322.627-1.213,2.576-1.213,2.576l-3.558,1.786a8.752,8.752,0,0,0-2.876,3.135L94.165,60Z" transform="translate(0 -1.19)"/>
    </clipPath>
  </defs>
  <g id="Items" transform="translate(18.007 -1503.584)">
    <g id="_7" data-name="7" transform="translate(-57 787)">
      <g id="그룹_6" data-name="그룹 6" transform="translate(322 -112)">
        <path id="패스_13" data-name="패스 13" d="M254.956,63.292,149.057,2.152c-5.512-3.184-15.142-2.783-21.5.892L5.264,73.643C-1.1,77.318-1.79,82.877,3.722,86.061l105.9,61.141c5.512,3.184,15.142,2.783,21.5-.892l122.282-70.6C259.777,72.036,260.468,66.477,254.956,63.292Z" transform="translate(773.999 946.997)" fill="#fff" stroke="rgba(234,234,234,0.58)" stroke-width="2"/>
      </g>
      <g id="그룹_19" data-name="그룹 19" transform="translate(826 -111)">
        <g id="그룹_15" data-name="그룹 15" transform="translate(341.531 985.723)" opacity="0.051">
          <path id="패스_36" data-name="패스 36" d="M122.344,101.3h0a1.634,1.634,0,0,0-1.475.06l-9.032,5.215c-.436.252-.484.635-.108.851h0a1.634,1.634,0,0,0,1.475-.06l9.032-5.215C122.676,101.9,122.724,101.517,122.344,101.3Z" transform="translate(-66.938 -60.725)" opacity="0.31" fill="url(#linear-gradient)"/>
          <path id="패스_37" data-name="패스 37" d="M260.218,3.242h0a1.517,1.517,0,0,0-1.435-.092L255.2,4.661c-.5.208-.659.591-.364.851h0a1.517,1.517,0,0,0,1.435.092l3.581-1.511C260.35,3.882,260.514,3.5,260.218,3.242Z" transform="translate(-152.918 -1.812)" opacity="0.31" fill="url(#linear-gradient)"/>
          <g id="그룹_14" data-name="그룹 14" transform="translate(-0.02)">
            <g id="그룹_13" data-name="그룹 13" transform="translate(0)" clip-path="url(#clip-path)">
              <path id="패스_38" data-name="패스 38" d="M155.99,82.357,146.8,77.05,133.89,84.5l9.192,5.307Z" transform="translate(-80.374 -46.257)" fill="url(#linear-gradient)"/>
            </g>
          </g>
        </g>
        <g id="그룹_16" data-name="그룹 16" transform="translate(341.531 980.723)">
          <path id="패스_35" data-name="패스 35" d="M48.829,52.246a.824.824,0,0,1-.168-1.371,19.385,19.385,0,0,1,1.491-1.395c1.682-1.451,8.409-5.075,10.315-6.091a3.491,3.491,0,0,1,1.139-.356h0a3.548,3.548,0,0,0,1.123-.344l9.34-4.864a4.577,4.577,0,0,0,1.5-1.139,2.851,2.851,0,0,1,1.922-.871l7.238-.663a3.773,3.773,0,0,0,1.163-.3l38.614-17.7a2.437,2.437,0,0,0,.392-.22l4.252-2.945c.763-.528.787-1.251.056-1.671l-9.42-5.439-.056-.032L108.312,1.4a3.409,3.409,0,0,0-2.893.032l-5.1,2.454a2.371,2.371,0,0,0-.384.228L69.263,26.405a1.279,1.279,0,0,0-.52.671l-1.155,4.18a2.033,2.033,0,0,1-1.511,1.111,6.961,6.961,0,0,0-1.97.867l-8.425,5.391a1.484,1.484,0,0,0-.6.647h0a1.516,1.516,0,0,1-.615.659c-1.758,1.1-8.037,4.984-10.547,5.955-1.039.4-1.83.675-2.418.859a3.346,3.346,0,0,1-2.374-.1c-2.478-1.271-9.172-4.62-9.987-4.148-.935.54-22.948,13.736-25.913,15.514a1.759,1.759,0,0,0-.532.468c-1.031,1.427-5.447,8.3-.108,14.835l-.02.012.04.008c.008.008.008.016.016.024l.02-.012c11.322,3.081,23.219.532,25.693-.064a3.169,3.169,0,0,0,.807-.308c3.081-1.714,25.937-14.423,26.872-14.963C56.834,57.542,51.031,53.677,48.829,52.246ZM76.413,30.694l-2.366-1.455c-.683-.42-.655-1.111.06-1.627L103,6.807a3.405,3.405,0,0,1,3.265-.256l6,3.437.056.032,5.951,3.465c.855.5.643,1.379-.444,1.886L81.8,32.056a3.416,3.416,0,0,1-2.817.036l-2.518-1.367Z" transform="translate(-0.017 -0.656)" fill="url(#linear-gradient)"/>
          <path id="패스_36-2" data-name="패스 36" d="M122.344,101.3h0a1.634,1.634,0,0,0-1.475.06l-9.032,5.215c-.436.252-.484.635-.108.851h0a1.634,1.634,0,0,0,1.475-.06l9.032-5.215C122.676,101.9,122.724,101.517,122.344,101.3Z" transform="translate(-66.938 -60.725)" fill="#fff" opacity="0.31"/>
          <path id="패스_37-2" data-name="패스 37" d="M260.218,3.242h0a1.517,1.517,0,0,0-1.435-.092L255.2,4.661c-.5.208-.659.591-.364.851h0a1.517,1.517,0,0,0,1.435.092l3.581-1.511C260.35,3.882,260.514,3.5,260.218,3.242Z" transform="translate(-152.918 -1.812)" fill="#fff" opacity="0.31"/>
          <g id="그룹_14-2" data-name="그룹 14" transform="translate(-0.02)">
            <g id="그룹_13-2" data-name="그룹 13" transform="translate(0)" clip-path="url(#clip-path)">
              <path id="패스_38-2" data-name="패스 38" d="M155.99,82.357,146.8,77.05,133.89,84.5l9.192,5.307Z" transform="translate(-80.374 -46.257)" fill="#1a1917"/>
            </g>
          </g>
        </g>
      </g>
    </g>
    <g id="_6" data-name="6">
      <g id="그룹_9" data-name="그룹 9" transform="translate(63 558)">
        <path id="패스_13-2" data-name="패스 13" d="M254.956,63.292,149.057,2.152c-5.512-3.184-15.142-2.783-21.5.892L5.264,73.643C-1.1,77.318-1.79,82.877,3.722,86.061l105.9,61.141c5.512,3.184,15.142,2.783,21.5-.892l122.282-70.6C259.777,72.036,260.468,66.477,254.956,63.292Z" transform="translate(773.999 946.997)" fill="#fff" stroke="rgba(234,234,234,0.58)" stroke-width="2"/>
      </g>
      <g id="그룹_18" data-name="그룹 18" transform="translate(1 766)">
        <g id="그룹_17" data-name="그룹 17" transform="translate(867.776 767.444)">
          <path id="패스_22" data-name="패스 22" d="M605.745,180.721,578.45,192.549l22.669-14.5Z" transform="translate(-440.252 -141.833)" fill="#2b2b2b"/>
          <path id="패스_23" data-name="패스 23" d="M334.135,18.97,313.65,34.73l25.11-13.089Z" transform="translate(-229.313 -15.11)" fill="#2b2b2b"/>
          <path id="패스_24" data-name="패스 24" d="M78.259,96.662,27,67.067c-1.751-1.011-1.591-2.73.356-3.8l83.865-46.29a7.217,7.217,0,0,1,6.423-.11l47.572,27.465c1.692.976,1.607,2.622-.191,3.708L84.85,96.457A7.2,7.2,0,0,1,78.259,96.662Z" transform="translate(0 -12.873)" fill="#4f4f4f"/>
          <path id="패스_25" data-name="패스 25" d="M365.308,135.558l-8.008-4.623,31.1-17.954,8.008,4.623Z" transform="translate(-264.085 -89.998)" fill="#1f1f1f"/>
          <path id="패스_26" data-name="패스 26" d="M302.243,225.86l-1.5-.869,61.836-35.7,1.5.866Z" transform="translate(-219.029 -150.787)" fill="#1f1f1f" opacity="0.38"/>
          <path id="패스_27" data-name="패스 27" d="M102.316,243.534,84.84,233.443l6.706-3.873,17.476,10.091Z" transform="translate(-47.044 -182.874)" fill="#1f1f1f" opacity="0.29"/>
          <g id="그룹_11" data-name="그룹 11" transform="translate(25.784 3.289)">
            <g id="그룹_10" data-name="그룹 10" clip-path="url(#clip-path-3)">
              <path id="패스_28" data-name="패스 28" d="M59.658,276.017,0,241.573,6.706,237.7l59.658,34.444Z" transform="translate(-5.245 -192.639)" fill="#1f1f1f"/>
            </g>
          </g>
          <path id="패스_30" data-name="패스 30" d="M263.219,105.645l-.4-.23c-.919-.531-.8-1.456.258-2.071l3.429-1.979a3.982,3.982,0,0,1,3.584-.148l.4.23c.919.531.8,1.456-.258,2.071L266.8,105.5A3.982,3.982,0,0,1,263.219,105.645Z" transform="translate(-188.328 -80.343)" fill="#1f1f1f"/>
          <path id="패스_31" data-name="패스 31" d="M531.089,260.3l-.4-.23c-.919-.531-.8-1.456.258-2.071l3.429-1.979a3.983,3.983,0,0,1,3.584-.148l.4.23c.919.531.8,1.456-.258,2.071l-3.429,1.979A3.976,3.976,0,0,1,531.089,260.3Z" transform="translate(-401.713 -203.536)" fill="#1f1f1f"/>
          <path id="패스_32" data-name="패스 32" d="M460.556,39.842,402.168,6.132c-1.442-.832-1.261-2.286.4-3.246L406.189.8a6.255,6.255,0,0,1,5.624-.234L470.2,34.275c1.442.832,1.261,2.286-.4,3.246l-3.616,2.089A6.248,6.248,0,0,1,460.556,39.842Z" transform="translate(-299.051 0)" fill="#262626"/>
          <path id="패스_33" data-name="패스 33" d="M460.5,37.461s-10.091,5.825-15.064,7.066l-12.65,3.149L425.2,43.3s26.536-8.5,38.382-8.508c0,0,6.12.62,9.7,2.858,0,0,4.44,2.557,5.6,4.778a59.991,59.991,0,0,1-5.484,8.657L461.308,64.147,453.6,59.695s17.289-13.2,19.01-15.3Z" transform="translate(-318.173 -27.712)" fill="#262626"/>
          <path id="패스_34" data-name="패스 34" d="M502.829,95.641l-11.12-6.421L480.39,95.755l11.12,6.419Z" transform="translate(-362.138 -71.071)" fill="#707070"/>
        </g>
      </g>
    </g>
    <g id="_5" data-name="5">
      <g id="그룹_4" data-name="그룹 4" transform="translate(-28 766)">
        <path id="패스_13-3" data-name="패스 13" d="M254.956,63.292,149.057,2.152c-5.512-3.184-15.142-2.783-21.5.892L5.264,73.643C-1.1,77.318-1.79,82.877,3.722,86.061l105.9,61.141c5.512,3.184,15.142,2.783,21.5-.892l122.282-70.6C259.777,72.036,260.468,66.477,254.956,63.292Z" transform="translate(773.999 946.997)" fill="#fff" stroke="rgba(234,234,234,0.58)" stroke-width="2"/>
      </g>
      <g id="그룹_40" data-name="그룹 40" transform="translate(788.819 1749.159)">
        <path id="패스_75" data-name="패스 75" d="M74.754,83.8l38.413-18.689,13.659-9.76,13.209-8.165c10.5-7.4,11.478-14.272,11.478-14.272l-8.233-13.877c-.409-2.713,5.33-4.812,5.33-4.812,1.568-.641,2.086-3.749,2.086-3.749L143.129,6.1l-.1-.055-7.565-4.376s-5.384.3-6.489,1.2a12.862,12.862,0,0,1-8.342,3.081L96.578,1.19A72.252,72.252,0,0,0,71.865,7.815l-14.136,7.62-16.9,7.879L8.452,45.506s-3.585,1.8-3.79,2.454c0,0-4.7,1.772-4.662,2.426,0,0,3.04,4.539,10.919,6.3,1.063-.722,4.13-2.6,8.042-4.962a1.067,1.067,0,0,0-.314.9c2.113,1.99,20.638,13.318,20.638,13.318L91.194,36.018,39.367,65.993s19.6,10.7,23.051,11.914a4.621,4.621,0,0,0,1.568-.177c-4.076,2.249-7.334,4.021-8.588,4.635,3.04,4.539,10.919,6.3,10.919,6.3,1.118.027,4.185-2.685,4.185-2.685C71.633,85.868,74.754,83.8,74.754,83.8Zm-23.2-47.764a85.774,85.774,0,0,0-9.16,4.621s-7.143,2.385-8.724,4.1c0,0-4.975,1-6.284,2.563,0,0-1.513.545-3.3,1.336,10.074-6.025,22.056-13.1,22.056-13.1l3.517-1.227,6.611-5.153s4.076-.75,5.439-1.663L64.8,25.454s3.381.068,4.471-.7c0,0-8.247,5.3-9.542,6.72C59.719,31.465,53,34.4,51.554,36.032ZM92.025,62.027S79.771,68.951,69.343,74.758a29.664,29.664,0,0,0,2.3-1.908,8.846,8.846,0,0,0,4.43-3.626c2.972-.913,7.1-5.03,7.1-5.03a69.106,69.106,0,0,0,8-5.289c2.835-.832,7.933-4.716,7.933-4.716,2.454-.75,11.641-5.507,11.641-5.507-1.322.627-1.213,2.576-1.213,2.576l-3.558,1.786a8.752,8.752,0,0,0-2.876,3.135L94.165,60Z" transform="translate(0)" fill="#3bc780"/>
        <ellipse id="타원_5" data-name="타원 5" cx="0.668" cy="5.507" rx="0.668" ry="5.507" transform="matrix(0.493, -0.87, 0.87, 0.493, 1.026, 51.19)" fill="#298959"/>
        <ellipse id="타원_6" data-name="타원 6" cx="0.668" cy="5.507" rx="0.668" ry="5.507" transform="matrix(0.493, -0.87, 0.87, 0.493, 56.37, 83.133)" fill="#298959"/>
        <path id="패스_76" data-name="패스 76" d="M29.509,63.837,28.35,63.17,124.969,7.39l1.159.668Z" transform="translate(10.295 2.251)" opacity="0.736"/>
        <path id="패스_77" data-name="패스 77" d="M94.185,21.58l-5.207.641L87.86,25.233l5.194-.654Z" transform="translate(31.905 7.404)" fill="#298959"/>
        <g id="그룹_37" data-name="그룹 37" transform="translate(0 1.19)">
          <g id="그룹_36" data-name="그룹 36" opacity="0.45" clip-path="url(#clip-path-4)">
            <g id="그룹_30" data-name="그룹 30" transform="translate(24.645 47.971)" opacity="0.3">
              <path id="패스_78" data-name="패스 78" d="M60.91,61.5,18.176,36.829c-.15-.082-.123-.245.068-.354a.7.7,0,0,1,.613-.041L61.592,61.107c.15.082.123.245-.068.354A.7.7,0,0,1,60.91,61.5Z" transform="translate(-18.079 -36.381)"/>
            </g>
            <g id="그룹_31" data-name="그룹 31" transform="translate(33.342 42.954)" opacity="0.3">
              <path id="패스_79" data-name="패스 79" d="M67.29,57.822,24.556,33.149c-.15-.082-.123-.245.068-.354a.7.7,0,0,1,.613-.041L67.971,57.427c.15.082.123.245-.068.354A.7.7,0,0,1,67.29,57.822Z" transform="translate(-24.459 -32.701)"/>
            </g>
            <g id="그룹_32" data-name="그룹 32" transform="translate(42.025 37.924)" opacity="0.3">
              <path id="패스_80" data-name="패스 80" d="M73.66,54.132,30.926,29.459c-.15-.082-.123-.245.068-.354a.7.7,0,0,1,.613-.041L74.341,53.737c.15.082.123.245-.068.354A.623.623,0,0,1,73.66,54.132Z" transform="translate(-30.829 -29.011)"/>
            </g>
            <g id="그룹_33" data-name="그룹 33" transform="translate(50.722 32.908)" opacity="0.3">
              <path id="패스_81" data-name="패스 81" d="M80.04,50.452,37.306,25.779c-.15-.082-.123-.245.068-.354a.7.7,0,0,1,.613-.041L80.721,50.057c.15.082.123.245-.068.354A.661.661,0,0,1,80.04,50.452Z" transform="translate(-37.209 -25.331)"/>
            </g>
            <g id="그룹_34" data-name="그룹 34" transform="translate(59.405 27.892)" opacity="0.3">
              <path id="패스_82" data-name="패스 82" d="M86.41,46.772,43.676,22.1c-.15-.082-.123-.245.068-.354a.7.7,0,0,1,.613-.041L87.091,46.39c.15.082.123.245-.068.354A.657.657,0,0,1,86.41,46.772Z" transform="translate(-43.579 -21.651)"/>
            </g>
            <g id="그룹_35" data-name="그룹 35" transform="translate(70.626 24.349)" opacity="0.3">
              <path id="패스_83" data-name="패스 83" d="M89.623,41.255,51.891,19.472c-.136-.082-.1-.232.1-.327a.723.723,0,0,1,.573-.055L90.291,40.873c.136.082.1.232-.1.327A.628.628,0,0,1,89.623,41.255Z" transform="translate(-51.811 -19.052)"/>
            </g>
          </g>
        </g>
        <g id="그룹_39" data-name="그룹 39" transform="translate(0 1.19)">
          <g id="그룹_38" data-name="그룹 38" clip-path="url(#clip-path-4)">
            <path id="패스_85" data-name="패스 85" d="M93.54,1.009s6.025,8.56,8.765,9.651a54.665,54.665,0,0,0,17.775,4.8C129.036,16.18,115.786,0,115.786,0Z" transform="translate(33.968 -1.622)" opacity="0.3"/>
          </g>
        </g>
      </g>
    </g>
    <g id="_4_Selected_" data-name="4 (Selected)">
      <g id="그룹_44" data-name="그룹 44" transform="translate(-263 626)">
        <path id="패스_12" data-name="패스 12" d="M254.956,63.292,149.057,2.152c-5.512-3.184-15.142-2.783-21.5.892L5.264,73.643C-1.1,77.318-1.79,82.877,3.722,86.061l105.9,61.141c5.512,3.184,15.142,2.783,21.5-.892l122.282-70.6C259.777,72.036,260.468,66.477,254.956,63.292Z" transform="translate(773.999 953.997)" opacity="0.046"/>
      </g>
      <g id="그룹_210" data-name="그룹 210" transform="translate(12.5)">
        <g id="패스_13-4" data-name="패스 13" transform="translate(1307.499 1504.997)" fill="#fff">
          <path d="M 118.9596252441406 147.8513031005859 C 115.5958938598633 147.8513031005859 112.546028137207 147.1595306396484 110.371826171875 145.9035034179688 L 4.472360134124756 84.76243591308594 C 3.116926670074463 83.97940063476563 1.500826597213745 82.6329345703125 1.500959873199463 80.66643524169922 C 1.50109326839447 78.68499755859375 3.146193265914917 76.59850311279297 6.014493465423584 74.94196319580078 L 128.3019561767578 4.342700004577637 C 131.4272918701172 2.537699937820435 135.5883941650391 1.502566576004028 139.7185974121094 1.502566576004028 C 143.0822906494141 1.502566576004028 146.1321563720703 2.194299936294556 148.306396484375 3.450366735458374 L 254.2058563232422 64.5914306640625 C 255.5612640380859 65.37446594238281 257.17724609375 66.72076416015625 257.1767578125 68.686767578125 C 257.1762390136719 70.66843414306641 255.5293273925781 72.75503540039063 252.6583557128906 74.41156768798828 L 130.3762664794922 145.0111999511719 C 127.2509613037109 146.816162109375 123.0898284912109 147.8513031005859 118.9596252441406 147.8513031005859 Z" stroke="none"/>
          <path d="M 139.7185516357422 3.002578735351563 C 135.8438720703125 3.002578735351563 131.9562072753906 3.964431762695313 129.0519104003906 5.6417236328125 L 6.764694213867188 76.24093627929688 C 4.4432373046875 77.58161163330078 3.001052856445313 79.27743530273438 3.000946044921875 80.66654205322266 C 3.000869750976563 81.9833984375 4.39312744140625 82.98432922363281 5.222381591796875 83.46339416503906 L 111.1221923828125 144.6046447753906 C 113.0718841552734 145.7310028076172 115.8552703857422 146.3512878417969 118.9596557617188 146.3512878417969 C 122.8343048095703 146.3512878417969 126.7220153808594 145.3894348144531 129.6262664794922 143.7121887207031 L 251.90869140625 73.11235809326172 C 254.2325134277344 71.77150726318359 255.6763763427734 70.07557678222656 255.6767272949219 68.68636322021484 C 255.6770935058594 67.37021636962891 254.2850189208984 66.36946868896484 253.4558715820313 65.89047241210938 L 147.5560607910156 4.749221801757813 C 145.6063842773438 3.62286376953125 142.8229370117188 3.002578735351563 139.7185516357422 3.002578735351563 M 139.7185668945313 0.0025787353515625 C 143.2185668945313 0.002593994140625 146.5600891113281 0.7092132568359375 149.0567321777344 2.151535034179688 L 254.9558715820313 63.29239654541016 C 260.4679565429688 66.47675323486328 259.7767333984375 72.03610992431641 253.4079895019531 75.71082305908203 L 131.1262664794922 146.3102569580078 C 127.6454315185547 148.3205108642578 123.1869049072266 149.3512725830078 118.9596405029297 149.3512725830078 C 115.4596405029297 149.3512725830078 112.1181640625 148.6446533203125 109.6215209960938 147.2023315429688 L 3.722381591796875 86.06147003173828 C -1.789703369140625 82.87711334228516 -1.098480224609375 77.31775665283203 5.26434326171875 73.64304351806641 L 127.5519866943359 3.043609619140625 C 131.0328063964844 1.0333251953125 135.4913024902344 0.0025634765625 139.7185668945313 0.0025787353515625 Z" stroke="none" fill="#3bc780"/>
        </g>
        <g id="그룹_23" data-name="그룹 23" transform="translate(1392.263 1541.586)">
          <path id="패스_53" data-name="패스 53" d="M62.79,21.439s10.059-3.305,16.768-.417L81.249,50.1,64.541,43.453Z" transform="translate(-15.191 -4.8)" fill="#1c1c1c"/>
          <path id="패스_54" data-name="패스 54" d="M61.026,3.677S71.623,2.57,73.42,0c2.35.235,4.207.561,4.4,1.418s-9.377,7.148-15.858,5.2S61.026,3.677,61.026,3.677Z" transform="translate(-14.23)" fill="#1c1c1c"/>
          <path id="패스_55" data-name="패스 55" d="M59.539,9.99s-4.207,5.147,5.132,10.037S52.61,16.722,52.61,16.722Z" transform="translate(-12.728 -2.417)" fill="#757575"/>
          <path id="패스_56" data-name="패스 56" d="M53,5.257s8.43-1.971,6.656.569-10.7,8.945-6.974,10.719c2.721,1.183,13.925.136,16.033,2.509s2.214,20.164,2.214,20.164S72.738,44.6,74.6,45.866L78.4,64.446,35.76,41.75,36.912,15.3C36.9,15.294,51.944,5.477,53,5.257Z" transform="translate(-8.651 -1.096)" fill="#4fcf8f"/>
          <path id="패스_57" data-name="패스 57" d="M41.286,19.84c-.061-.038,15.275,11.81,15.275,11.81L52.217,51.019,33.66,44.545Z" transform="translate(-8.143 -4.8)" fill="#fff" opacity="0.36"/>
          <path id="패스_58" data-name="패스 58" d="M43.718,5.67,26.934,8.141S7.718,7.7.016,15.76c-.273,3.669,3.768,9.354,10.507,13.592A84.543,84.543,0,0,1,29.337,47.977c5.435,5.685,21.756,23.447,31.588,25.994,5.17-1.88,13.554-6.421,7.641-12.03C58.962,56.05,49.9,50.35,49.335,49.675s-.97-4.154-.955-5.064c-.068-.963-1.933-1.69-4.063-1.766S30.482,41.806,29.39,40.829a1.92,1.92,0,0,1-.47-2.236S31.005,14.312,43.718,5.67Z" transform="translate(0 -1.372)" fill="#1c1c1c"/>
          <path id="패스_59" data-name="패스 59" d="M26.009,14.39s-11.2-.053-11.689,2.335c.591,1.963,4.829,5.337,4.829,5.337Z" transform="translate(-3.464 -3.482)" fill="#a0a1a5" opacity="0.38"/>
          <path id="패스_60" data-name="패스 60" d="M32.8,24.78l-6.042.758L25.45,29.033l6.049-.758Z" transform="translate(-6.157 -5.995)" fill="#a0a1a5"/>
        </g>
      </g>
      <g id="그룹_24" data-name="그룹 24" transform="translate(462 708)">
        <circle id="타원_4" data-name="타원 4" cx="12" cy="12" r="12" transform="translate(691 803)" fill="#fff"/>
        <path id="빼기_1" data-name="빼기 1" d="M-3355.5-1445a19.372,19.372,0,0,1-13.789-5.712A19.373,19.373,0,0,1-3375-1464.5a19.373,19.373,0,0,1,5.711-13.789A19.373,19.373,0,0,1-3355.5-1484a19.371,19.371,0,0,1,13.789,5.711A19.374,19.374,0,0,1-3336-1464.5a19.374,19.374,0,0,1-5.711,13.789A19.37,19.37,0,0,1-3355.5-1445Zm-7.172-20.212a1.489,1.489,0,0,0-.375.048,1.492,1.492,0,0,0-1.072,1.071,1.491,1.491,0,0,0,.416,1.456l4.3,4.293a1.564,1.564,0,0,0,1.078.429,1.567,1.567,0,0,0,1.079-.429l8.684-10.135a1.467,1.467,0,0,0,.431-1.046,1.47,1.47,0,0,0-.435-1.045,1.468,1.468,0,0,0-1.042-.431,1.472,1.472,0,0,0-1.049.435l-7.73,9.021-3.2-3.2A1.494,1.494,0,0,0-3362.672-1465.21Z" transform="translate(4058 2279.584)" fill="#3bc780"/>
      </g>
      <g id="그룹_211" data-name="그룹 211" transform="translate(12.5 193)">
        <g id="패스_13-5" data-name="패스 13" transform="translate(1307.499 1504.997)" fill="#fff">
          <path xmlns="http://www.w3.org/2000/svg" id="패스_13" data-name="패스 13" d="M254.956,63.292,149.057,2.152c-5.512-3.184-15.142-2.783-21.5.892L5.264,73.643C-1.1,77.318-1.79,82.877,3.722,86.061l105.9,61.141c5.512,3.184,15.142,2.783,21.5-.892l122.282-70.6C259.777,72.036,260.468,66.477,254.956,63.292Z" transform="" fill="#fff" stroke="rgba(234,234,234,0.58)" stroke-width="2"/>
          
        </g>
        <g id="그룹_23-2" data-name="그룹 23" transform="translate(1392.263 1541.586)">
          <path id="패스_53-2" data-name="패스 53" d="M62.79,21.439s10.059-3.305,16.768-.417L81.249,50.1,64.541,43.453Z" transform="translate(-15.191 -4.8)" fill="#1c1c1c"/>
          <path id="패스_54-2" data-name="패스 54" d="M61.026,3.677S71.623,2.57,73.42,0c2.35.235,4.207.561,4.4,1.418s-9.377,7.148-15.858,5.2S61.026,3.677,61.026,3.677Z" transform="translate(-14.23)" fill="#1c1c1c"/>
          <path id="패스_55-2" data-name="패스 55" d="M59.539,9.99s-4.207,5.147,5.132,10.037S52.61,16.722,52.61,16.722Z" transform="translate(-12.728 -2.417)" fill="#757575"/>
          <path id="패스_56-2" data-name="패스 56" d="M53,5.257s8.43-1.971,6.656.569-10.7,8.945-6.974,10.719c2.721,1.183,13.925.136,16.033,2.509s2.214,20.164,2.214,20.164S72.738,44.6,74.6,45.866L78.4,64.446,35.76,41.75,36.912,15.3C36.9,15.294,51.944,5.477,53,5.257Z" transform="translate(-8.651 -1.096)" fill="#4fcf8f"/>
          <path id="패스_57-2" data-name="패스 57" d="M41.286,19.84c-.061-.038,15.275,11.81,15.275,11.81L52.217,51.019,33.66,44.545Z" transform="translate(-8.143 -4.8)" fill="#fff" opacity="0.36"/>
          <path id="패스_58-2" data-name="패스 58" d="M43.718,5.67,26.934,8.141S7.718,7.7.016,15.76c-.273,3.669,3.768,9.354,10.507,13.592A84.543,84.543,0,0,1,29.337,47.977c5.435,5.685,21.756,23.447,31.588,25.994,5.17-1.88,13.554-6.421,7.641-12.03C58.962,56.05,49.9,50.35,49.335,49.675s-.97-4.154-.955-5.064c-.068-.963-1.933-1.69-4.063-1.766S30.482,41.806,29.39,40.829a1.92,1.92,0,0,1-.47-2.236S31.005,14.312,43.718,5.67Z" transform="translate(0 -1.372)" fill="#1c1c1c"/>
          <path id="패스_59-2" data-name="패스 59" d="M26.009,14.39s-11.2-.053-11.689,2.335c.591,1.963,4.829,5.337,4.829,5.337Z" transform="translate(-3.464 -3.482)" fill="#a0a1a5" opacity="0.38"/>
          <path id="패스_60-2" data-name="패스 60" d="M32.8,24.78l-6.042.758L25.45,29.033l6.049-.758Z" transform="translate(-6.157 -5.995)" fill="#a0a1a5"/>
        </g>
      </g>
    </g>
    <g id="_3" data-name="3">
      <g id="그룹_3" data-name="그룹 3" transform="translate(-28 756)">
        <path id="패스_20" data-name="패스 20" d="M254.956,63.292,149.057,2.152c-5.512-3.184-15.142-2.783-21.5.892L5.264,73.643C-1.1,77.318-1.79,82.877,3.722,86.061l105.9,61.141c5.512,3.184,15.142,2.783,21.5-.892l122.282-70.6C259.777,72.036,260.468,66.477,254.956,63.292Z" transform="translate(303.999 956.997)" fill="#fff" stroke="rgba(234,234,234,0.58)" stroke-width="2"/>
      </g>
      <g id="그룹_27" data-name="그룹 27" transform="translate(333.338 1753.597)">
        <path id="패스_67" data-name="패스 67" d="M101.787,26.985,75.173,11.621c-13.764-7.952-37.815-6.956-53.7,2.221L2.139,25.009c-2.58,1.486-2.874,3.755-.62,5.045L69.85,69.519c2.237,1.29,6.156,1.127,8.735-.359L97.933,57.991C113.837,48.815,115.551,34.937,101.787,26.985Z" transform="translate(0 3.958)" fill="#3bc780"/>
        <path id="패스_68" data-name="패스 68" d="M68.971,29.143,40.691,12.816a2.746,2.746,0,0,0-2.465.1h0c-.735.425-.816,1.061-.18,1.421l28.28,16.328a2.746,2.746,0,0,0,2.465-.1h0C69.526,30.139,69.608,29.5,68.971,29.143Z" transform="translate(23.803 7.956)" opacity="0.67"/>
        <path id="패스_69" data-name="패스 69" d="M43.761,15.093,42.1,14.13,37.54,16.759l1.665.963Z" transform="translate(23.754 8.944)"/>
        <path id="패스_70" data-name="패스 70" d="M48.72,26.261,39.1,20.71,33.96,23.665l9.633,5.551Z" transform="translate(21.489 13.107)" fill="#201f1d"/>
        <path id="패스_71" data-name="패스 71" d="M44.348,25.886,37.311,21.82l-1.421.816L42.944,26.7Z" transform="translate(22.71 13.81)" fill="#fff"/>
        <g id="그룹_26" data-name="그룹 26" transform="translate(8.245 -0.004)">
          <path id="패스_72" data-name="패스 72" d="M72.875,11.455,14.863,38.918,5.05,33.252,63.634,7.34a34.914,34.914,0,0,1,7.674,3.2Z" transform="translate(-5.05 4.651)" fill="#acaeb5" opacity="0.28"/>
          <path id="패스_73" data-name="패스 73" d="M43.226,58.374,32.45,52.154,79.392,18.29l2.531,1.469a22.62,22.62,0,0,1,4.931,3.755l-.016.016L44.647,57.1Z" transform="translate(12.288 11.58)" fill="#acaeb5" opacity="0.28"/>
          <path id="패스_74" data-name="패스 74" d="M60.564,69.95,49.788,63.729,96.73,29.866l3.429-2.465L116.29,13.391s8.882-4.9.441-9.895C111.213.215,102.1,2.223,102.1,2.223L99.489,4.9,72.875,16.085,14.863,43.565,5.05,37.9,63.634,11.987l3.625-1.6L87.015,3.039,104.241.019S115.719-.406,119.915,2.4c3.87,3.217,5.813,7.674,2.4,11.756l-1.91,5.062-16.23,15.854-.016.016L61.985,68.677Z" transform="translate(-5.05 0.004)"/>
        </g>
      </g>
    </g>
    <g id="_2" data-name="2">
      <g id="그룹_8" data-name="그룹 8" transform="translate(-570 558)">
        <path id="패스_13-6" data-name="패스 13" d="M254.956,63.292,149.057,2.152c-5.512-3.184-15.142-2.783-21.5.892L5.264,73.643C-1.1,77.318-1.79,82.877,3.722,86.061l105.9,61.141c5.512,3.184,15.142,2.783,21.5-.892l122.282-70.6C259.777,72.036,260.468,66.477,254.956,63.292Z" transform="translate(773.999 946.997)" fill="#fff" stroke="rgba(234,234,234,0.58)" stroke-width="2"/>
      </g>
      <g id="그룹_42" data-name="그룹 42" transform="translate(284.298 1548.819)">
        <path id="패스_87" data-name="패스 87" d="M85.4,12.345,74.177,5.864c-3.8-2.19-10.45-1.921-14.843.615L1.371,39.955c-1.665.96-1.844,2.408-.4,3.24L20.761,54.619a6.22,6.22,0,0,0,5.609-.231L84.332,20.925C88.725,18.376,89.2,14.547,85.4,12.345Z" transform="translate(0 1.23)" fill="#262626"/>
        <path id="패스_88" data-name="패스 88" d="M75.633,12.675,59.561,3.39,51.8,7.872l16.085,9.285Z" transform="translate(14.539 0.951)" fill="#262626"/>
        <path id="패스_89" data-name="패스 89" d="M80.252,9.45,65.23.767a4.433,4.433,0,0,0-3.983.166L57.763,2.944c-1.178.679-1.306,1.7-.282,2.292l15.035,8.683a4.433,4.433,0,0,0,3.983-.166l3.483-2.011C81.148,11.063,81.276,10.039,80.252,9.45Z" transform="translate(15.939 0.104)" fill="#3ccb83"/>
        <path id="패스_90" data-name="패스 90" d="M78.648,5.669,70.5.969a8.047,8.047,0,0,0-7.236.295h0c-2.139,1.242-2.369,3.112-.525,4.175l8.145,4.7a8.047,8.047,0,0,0,7.236-.295h0C80.275,8.614,80.505,6.745,78.648,5.669Z" transform="translate(17.261 0.068)" fill="#3ccb83"/>
        <path id="패스_91" data-name="패스 91" d="M5.09,41.565h0c-.679-.4-.589-1.076.192-1.537l57.1-32.977a2.988,2.988,0,0,1,2.651-.115h0c.679.4.589,1.076-.192,1.537L7.754,41.45A3.017,3.017,0,0,1,5.09,41.565Z" transform="translate(1.302 1.874)" fill="#fff" opacity="0.414"/>
        <g id="그룹_41" data-name="그룹 41" transform="translate(74.066 1.251)" opacity="0.16">
          <path id="패스_92" data-name="패스 92" d="M63.81,1.147h0a1.871,1.871,0,0,0-1.7.077L58.252,3.44c-.5.295-.563.73-.128.986h0a1.871,1.871,0,0,0,1.7-.077l3.855-2.228C64.194,1.839,64.245,1.4,63.81,1.147Z" transform="translate(-57.833 -0.977)" fill="#fff"/>
          <path id="패스_93" data-name="패스 93" d="M66.16,2.5h0a1.871,1.871,0,0,0-1.7.077L60.6,4.8c-.5.295-.563.73-.128.986h0a1.871,1.871,0,0,0,1.7-.077l3.855-2.228C66.544,3.2,66.6,2.753,66.16,2.5Z" transform="translate(-57.174 -0.598)" fill="#fff"/>
          <path id="패스_94" data-name="패스 94" d="M68.51,3.857h0a1.871,1.871,0,0,0-1.7.077L62.952,6.163c-.5.295-.563.73-.128.986h0a1.871,1.871,0,0,0,1.7-.077l3.855-2.228C68.881,4.549,68.945,4.113,68.51,3.857Z" transform="translate(-56.514 -0.216)" fill="#fff"/>
          <path id="패스_95" data-name="패스 95" d="M70.85,5.206h0a1.912,1.912,0,0,0-1.7.077L65.292,7.511c-.5.295-.563.73-.128.986h0a1.871,1.871,0,0,0,1.7-.077l3.855-2.228C71.234,5.9,71.285,5.462,70.85,5.206Z" transform="translate(-55.858 0.164)" fill="#fff"/>
          <path id="패스_96" data-name="패스 96" d="M73.2,6.567h0a1.871,1.871,0,0,0-1.7.077L67.642,8.873c-.5.295-.563.73-.128.986h0a1.871,1.871,0,0,0,1.7-.077l3.855-2.228C73.584,7.259,73.635,6.823,73.2,6.567Z" transform="translate(-55.198 0.544)" fill="#fff"/>
          <path id="패스_97" data-name="패스 97" d="M75.55,7.917h0a1.871,1.871,0,0,0-1.7.077l-3.855,2.228c-.5.295-.563.73-.128.986h0a1.871,1.871,0,0,0,1.7-.077L75.422,8.9C75.921,8.609,75.985,8.173,75.55,7.917Z" transform="translate(-54.538 0.923)" fill="#fff"/>
        </g>
        <path id="패스_98" data-name="패스 98" d="M78.861,2.549,74.443,0,67.13,4.226l4.418,2.549Z" transform="translate(18.842)" fill="#3ccb83"/>
      </g>
    </g>
    <g id="_1" data-name="1">
      <path id="패스_13-7" data-name="패스 13" d="M254.956,63.292,149.057,2.152c-5.512-3.184-15.142-2.783-21.5.892L5.264,73.643C-1.1,77.318-1.79,82.877,3.722,86.061l105.9,61.141c5.512,3.184,15.142,2.783,21.5-.892l122.282-70.6C259.777,72.036,260.468,66.477,254.956,63.292Z" transform="translate(-17.001 1621.997)" fill="#fff" stroke="rgba(234,234,234,0.58)" stroke-width="2"/>
      <path id="패스_61" data-name="패스 61" d="M149.493,75.13s-23.4,9.1-21.433,14.22c1.054.515,5.688-4.409,5.688-4.409s8.585-6.162,16.481-8.551C152.767,75.167,149.493,75.13,149.493,75.13Z" transform="translate(-37.024 1613.368)" fill="#272729"/>
      <path id="패스_62" data-name="패스 62" d="M16.393,123.8a41.79,41.79,0,0,1-7.147.249c-.072,0-.143-.009-.212-.016-4.936-.6-2.588-2.875-1.918-3.44a1.528,1.528,0,0,1,.334-.212c2.152-1.035,23.422-11.254,27.663-12.938a8.631,8.631,0,0,1,7.674.527.821.821,0,0,1,.225.2,26.552,26.552,0,0,1,2.919,5.148c2.014,3.571-4.394,4.784-4.394,4.784l-.022.006,1.2,2.314a1.662,1.662,0,0,0,1.74.455h0c.062-.012.122-.028.181-.044.929-.265,8.5-2.588,7.578-7.643a.89.89,0,0,0-.022-.087,35.729,35.729,0,0,0-3.6-6.642s-3.711-5.4-15.57-2.18c-.078.022-.156.047-.231.075-2.959,1.116-5.76,2.217-6.112,2.354l-.072.028c-1,.437-23.488,10.313-25.6,13.263-2.158,3.006-1.921,8.226,12.349,7.743.062,0,.125-.006.187-.012.851-.087,2.379-.38,4.116-.755.826-.178,1.325-.7,1.095-1.151l-.8-1.537A1.58,1.58,0,0,0,16.393,123.8Z" transform="translate(51.015 1594.015)" fill="#3bc780"/>
      <path id="패스_63" data-name="패스 63" d="M54.532,159.219l-.642-1.2,25.951-6.455.642,1.2Z" transform="translate(13.936 1560.772)" fill="#b1b2b4"/>
      <path id="패스_64" data-name="패스 64" d="M203.873,17.43a13.8,13.8,0,0,0-2.922,3.985.639.639,0,0,0-.05.128c-.833,3.025,3.49,2.495,4.593,2.314a2.25,2.25,0,0,0,.443-.115c2.348-.858,25.577-9.352,29.669-11.17,3.783-1.684,2.323-4.017,1.912-4.562a.734.734,0,0,0-.225-.2,57.3,57.3,0,0,0-6.861-3.493,8.725,8.725,0,0,0-8.9.8l-.016.009L218.4,3.628c-.558-.268-.592-.773-.081-1.154h0a1.365,1.365,0,0,1,.131-.087,18.766,18.766,0,0,1,14.413-1.6c.044.012.084.028.125.044a79.776,79.776,0,0,1,8.906,4.413s6.967,4.032-2.186,9.648c-.059.037-.128.072-.2.106-2.763,1.291-5.445,2.495-5.778,2.648-.025.012-.044.019-.072.031-1.026.415-24.158,9.72-29.428,9.879-5.379.162-13.3-1.827-7.494-9.786a1.215,1.215,0,0,1,.084-.1,23.116,23.116,0,0,1,2.619-2.077,2.368,2.368,0,0,1,2.155-.215l2.074,1A.6.6,0,0,1,203.873,17.43Z" transform="translate(-82.966 1665.074)" fill="#7c7d80"/>
      <path id="패스_65" data-name="패스 65" d="M214.61,23.915l1.618.8,19.116-12.5-1.618-.792Z" transform="translate(-96.665 1657.21)" fill="#b2b2b2"/>
      <path id="패스_66" data-name="패스 66" d="M155.488,74.891S133.805,89.778,130.095,87.9a14.3,14.3,0,0,0-1.974-.664s-1.952,2.95,3.567,2.28,19.9-10.1,26.569-13.952C158.974,73.862,155.488,74.891,155.488,74.891Z" transform="translate(-36.916 1613.744)" fill="#272729"/>
    </g>
  </g>
</svg>