<svg xmlns="http://www.w3.org/2000/svg" xmlns:xlink="http://www.w3.org/1999/xlink" viewBox="0 0 336 420">
  <defs>
    <style>
      .cls-1, .cls-6 {
        fill: #fff;
      }

      .cls-2 {
        fill: #f0f0f0;
      }

      .cls-3 {
        fill: #1c1c1c;
      }

      .cls-4 {
        fill: #757575;
      }

      .cls-5 {
        fill: #4fcf8f;
      }

      .cls-6 {
        opacity: 0.36;
      }

      .cls-7, .cls-8 {
        fill: #a0a1a5;
      }

      .cls-7 {
        opacity: 0.38;
      }

      .cls-9 {
        fill: #262626;
        font-size: 16px;
        font-family: InterUI-Medium, Inter UI;
        font-weight: 500;
      }

      .cls-10 {
        fill: #888;
        font-size: 13px;
        font-family: InterUI-Regular, Inter UI;
      }

      .cls-11 {
        filter: url(#Rectangle_472);
      }
    </style>
    <filter id="Rectangle_472" x="0" y="0" width="336" height="420" filterUnits="userSpaceOnUse">
      <feOffset dy="2" input="SourceAlpha"/>
      <feGaussianBlur stdDeviation="10" result="blur"/>
      <feFlood flood-opacity="0.082"/>
      <feComposite operator="in" in2="blur"/>
      <feComposite in="SourceGraphic"/>
    </filter>
  </defs>
  <g id="Card_1" data-name="Card 1" transform="translate(-126 -2210)">
    <g class="cls-11" transform="matrix(1, 0, 0, 1, 126, 2210)">
      <rect id="Rectangle_472-2" data-name="Rectangle 472" class="cls-1" width="276" height="360" rx="6" transform="translate(30 28)"/>
    </g>
    <path id="Rectangle_496" data-name="Rectangle 496" class="cls-2" d="M6,0H270a6,6,0,0,1,6,6V276a0,0,0,0,1,0,0H0a0,0,0,0,1,0,0V6A6,6,0,0,1,6,0Z" transform="translate(156 2238)"/>
    <g id="Group_43" data-name="Group 43" transform="translate(189.272 2302.541)">
      <path id="Path_99" data-name="Path 99" class="cls-3" d="M10.36,24.471S16.108,6.281,31.728,4.32l69.244,56.058L63.442,66.4Z" transform="translate(59.686 24.884)"/>
      <path id="Path_100" data-name="Path 100" class="cls-3" d="M6.612,24.47s11.563-14.4,7.979-21.639C18.31.6,21.556-.887,23.787.6s3.99,25.087-9.129,28.6S6.612,24.47,6.612,24.47Z" transform="translate(32.532 0)"/>
      <path id="Path_101" data-name="Path 101" class="cls-4" d="M7.12,4.76s6.289,15.147,29.956,14.133-23.667,7.3-23.667,7.3Z" transform="translate(41.017 27.419)"/>
      <path id="Path_102" data-name="Path 102" class="cls-5" d="M5.623,11.5S12.317-2.157,15.766,4.943,22.122,35.1,31.184,34.358C37.54,33.615,50.05,18.6,58.3,20.9S107.73,58.567,107.73,58.567s14.809,8.655,20.219,9.061l47.876,32.661-109,3.854L7.381,50.047C7.381,50.114,4.744,13.193,5.623,11.5Z" transform="translate(31.357 16.687)"/>
      <path id="Path_103" data-name="Path 103" class="cls-6" d="M6.98,9.29c-.135,0,47.538,5.951,47.538,5.951L93.332,58.856,53.706,67.309Z" transform="translate(40.21 53.522)"/>
      <path id="Path_104" data-name="Path 104" class="cls-3" d="M36.506,4.32,19.871,28.6S-6.7,49.829,1.614,74.781C9.728,82.422,28.189,89.117,46.92,89.793c18.258,1.15,48.552,8.317,67.959,15.485,20.354,5.072,82.971,21.706,101.9,15.485,2.57-9.737,3.246-28.4-17.581-32.8-26.372-.676-51.527-1.623-53.826-2.3S134.489,78.5,132.46,76.674c-2.3-1.826-6.492-1.15-9.467,1.15S102.166,91.686,98.514,91.01a9.42,9.42,0,0,1-5.748-3.922S39.481,36.237,36.506,4.32Z" transform="translate(0 24.884)"/>
      <path id="Path_105" data-name="Path 105" class="cls-7" d="M12.951,9.88S-2.061,22.66,2.808,28c5.342,3.246,18.731,5.072,18.731,5.072Z" transform="translate(10.572 56.921)"/>
      <path id="Path_106" data-name="Path 106" class="cls-8" d="M12.339,11.51,6.05,19.963l6.289,8.453,6.289-8.453Z" transform="translate(34.851 66.313)"/>
    </g>
    <text id="Aspect_Climbing_Shoes" data-name="Aspect Climbing Shoes" class="cls-9" transform="translate(267 2551)"><tspan x="-87.19" y="0">Aspect Climbing Shoes</tspan></text>
    <text id="Black_Diamond_Equipment" data-name="Black Diamond Equipment" class="cls-10" transform="translate(180 2573)"><tspan x="0" y="0">Black Diamond Equipment</tspan></text>
  </g>
</svg>
