<svg xmlns="http://www.w3.org/2000/svg" xmlns:xlink="http://www.w3.org/1999/xlink" width="200" height="130" viewBox="0 0 200 130">
  <defs>
    <filter id="사각형_493" x="0" y="0" width="200" height="130" filterUnits="userSpaceOnUse">
      <feOffset dy="8" input="SourceAlpha"/>
      <feGaussianBlur stdDeviation="10" result="blur"/>
      <feFlood flood-opacity="0.169"/>
      <feComposite operator="in" in2="blur"/>
      <feComposite in="SourceGraphic"/>
    </filter>
  </defs>
  <g id="그룹_210" data-name="그룹 210" transform="translate(-540 -95)">
    <g transform="matrix(1, 0, 0, 1, 540, 95)" filter="url(#사각형_493)">
      <rect id="사각형_493-2" data-name="사각형 493" width="140" height="70" rx="3" transform="translate(30 22)" fill="#fff"/>
    </g>
    <path id="Logo" d="M270.212,90.5A3.637,3.637,0,0,0,267.07,89H245.42l.416,6.773h1.9c-1.485,4.913-3.573,11.426-4.975,16.059L241.25,89H231.238L217.2,110.544H207.045l1.791-4.551h8.82l1.733-5.69h-8.819l1.186-4.476h12.172L226.13,89H184.1a7.218,7.218,0,0,0-7.254,5.3l-5.5,17.681q-.8,2.605.236,3.978a4.369,4.369,0,0,0,3.7,1.344h18.538l5.592-16.992H186.5l-1.927,5.709h5.139l-1.764,4.478h-8.261l4.779-14.672H203.7L197,117.311h25.488l3.2-5.674h9.4l.363,5.674h13.274l3.228-10.172h4.553l1.6,10.172h7.4l-2.1-11.018c2.159-.462,3.555-1.424,4.188-3.352l2.824-8.609A4.395,4.395,0,0,0,270.212,90.5Zm-41.46,15.454,5.361-8.148.885,8.148Zm32.686-5.587h-7.613l1.206-4.595h7.7Z" transform="translate(419 49.005)" fill="#262626" fill-rule="evenodd"/>
  </g>
</svg>
