<svg xmlns="http://www.w3.org/2000/svg" xmlns:xlink="http://www.w3.org/1999/xlink" viewBox="0 0 850.058 961.4">
  <defs>
    <style>
      .cls-1 {
        fill: #fff;
      }

      .cls-2 {
        filter: url(#패스_2);
      }
    </style>
    <filter id="패스_2" x="0" y="0" width="850.058" height="961.4" filterUnits="userSpaceOnUse">
      <feOffset dy="2" input="SourceAlpha"/>
      <feGaussianBlur stdDeviation="2.5" result="blur"/>
      <feFlood flood-opacity="0.153"/>
      <feComposite operator="in" in2="blur"/>
      <feComposite in="SourceGraphic"/>
    </filter>
  </defs>
  <g id="그룹_280" data-name="그룹 280" transform="translate(7.5 5.5)">
    <g class="cls-2" transform="matrix(1, 0, 0, 1, -7.5, -5.5)">
      <path id="패스_2-2" data-name="패스 2" class="cls-1" d="M0,267.617V678.788a62.091,62.091,0,0,0,30.966,53.724L386.548,938.083a61.847,61.847,0,0,0,61.962,0L804.092,732.512a62.091,62.091,0,0,0,30.966-53.724V267.617a62.091,62.091,0,0,0-30.966-53.724L448.51,8.322a61.847,61.847,0,0,0-61.962,0L30.966,213.892A62.091,62.091,0,0,0,0,267.617Z" transform="translate(7.5 5.5)"/>
    </g>
  </g>
</svg>
