<svg xmlns="http://www.w3.org/2000/svg" xmlns:xlink="http://www.w3.org/1999/xlink" viewBox="0 0 336 420">
  <defs>
    <style>
      .cls-1, .cls-17, .cls-18, .cls-8 {
        fill: #fff;
      }

      .cls-2, .cls-3 {
        fill: #1a1b1c;
      }

      .cls-2 {
        fill-rule: evenodd;
      }

      .cls-4 {
        fill: #f0f0f0;
      }

      .cls-5 {
        fill: #1c1c1c;
      }

      .cls-6 {
        fill: #757575;
      }

      .cls-7 {
        fill: #4fcf8f;
      }

      .cls-8 {
        opacity: 0.36;
      }

      .cls-10, .cls-9 {
        fill: #a0a1a5;
      }

      .cls-9 {
        opacity: 0.38;
      }

      .cls-11, .cls-13 {
        fill: #363738;
      }

      .cls-11 {
        opacity: 0.097;
      }

      .cls-12 {
        fill: #7f7f7f;
      }

      .cls-12, .cls-13 {
        opacity: 0.273;
      }

      .cls-14, .cls-16 {
        fill: #3ccb83;
      }

      .cls-15 {
        fill: #3bc780;
      }

      .cls-16 {
        stroke: #fff;
        stroke-width: 2px;
      }

      .cls-17 {
        font-size: 13px;
        font-family: InterUI-Black, Inter UI;
        font-weight: 800;
      }

      .cls-18 {
        font-size: 16px;
        font-family: InterUI-Medium, Inter UI;
        font-weight: 500;
      }

      .cls-19 {
        stroke: none;
      }

      .cls-20 {
        fill: none;
      }

      .cls-21 {
        filter: url(#Rectangle_497);
      }
    </style>
    <filter id="Rectangle_497" x="0" y="0" width="336" height="420" filterUnits="userSpaceOnUse">
      <feOffset dy="2" input="SourceAlpha"/>
      <feGaussianBlur stdDeviation="10" result="blur"/>
      <feFlood flood-opacity="0.082"/>
      <feComposite operator="in" in2="blur"/>
      <feComposite in="SourceGraphic"/>
    </filter>
  </defs>
  <g id="Card_2" data-name="Card 2" transform="translate(-472 -2210)">
    <g class="cls-21" transform="matrix(1, 0, 0, 1, 472, 2210)">
      <rect id="Rectangle_497-2" data-name="Rectangle 497" class="cls-1" width="276" height="360" rx="6" transform="translate(30 28)"/>
    </g>
    <path id="Shape_959" data-name="Shape 959" class="cls-2" d="M182.678,97.732a2.145,2.145,0,0,0-1.839-.862H168.165l.244,3.882h1.113c-.869,2.816-1.991,6.443-2.812,9.1l-1.044-12.98h-5.808L151.6,109.329h-5.946l1.088-2.718h5.164l1.015-3.262h-5.163l.748-2.673h7.127l1.236-3.807H132.26a4.485,4.485,0,0,0-2.65.783,4.32,4.32,0,0,0-1.6,2.256L124.8,110.042a2.424,2.424,0,0,0,.138,2.28,2.584,2.584,0,0,0,2.163.77h10.855l3.274-9.743h-7.562l-1.126,3.273h3.01l-1.069,2.677h-4.838l2.889-8.627h11.26l-3.976,12.42h14.924l1.876-3.252h5.577l.252,3.253H170.1l1.925-5.941h2.666l.9,5.941h4.33l-1.228-6.315a2.891,2.891,0,0,0,2.453-1.921L182.8,99.92A2.471,2.471,0,0,0,182.678,97.732Zm-24.313,8.894,3.176-4.705.518,4.705Zm19.175-3.275h-4.457l.76-2.7h4.508Z" transform="translate(486.003 2155.98)"/>
    <path id="_" data-name="#" class="cls-2" d="M599.856,97.385H583.228l-.876-4.082a.349.349,0,0,0-.278-.293l-2.555-.022a.447.447,0,0,0-.537.523c0,.384,0,.567.458.616l1.588.156,2.761,13.791a1.236,1.236,0,0,0,1.1,1.036H598a1.237,1.237,0,0,0,1.1-1.038l1.862-9.441a1.048,1.048,0,0,0-1.1-1.246ZM585.2,107.645l-1.763-8.794h15.987l-1.739,8.794H585.2Zm10.633,2.931a2.2,2.2,0,1,0,2.2,2.2A2.2,2.2,0,0,0,595.833,110.576Zm0,2.931a.733.733,0,1,1,.733-.733A.733.733,0,0,1,595.833,113.507Zm-8.794-2.931a2.2,2.2,0,1,0,2.2,2.2A2.2,2.2,0,0,0,587.04,110.576Zm0,2.931a.733.733,0,1,1,.733-.733A.733.733,0,0,1,587.04,113.507Z" transform="translate(158.027 2157.022)"/>
    <path id="Union_3" data-name="Union 3" class="cls-3" d="M1,14a1,1,0,0,1,0-2H17a1,1,0,0,1,0,2ZM1,8A1,1,0,0,1,1,6H17a1,1,0,0,1,0,2ZM1,2A1,1,0,0,1,1,0H17a1,1,0,0,1,0,2Z" transform="translate(517 2254)"/>
    <rect id="Rectangle_499" data-name="Rectangle 499" class="cls-4" width="100" height="100" rx="3" transform="translate(527 2326)"/>
    <g id="Group_47" data-name="Group 47" transform="translate(539.055 2349.385)">
      <path id="Path_99" data-name="Path 99" class="cls-5" d="M10.36,11.621s2.083-6.591,7.742-7.3L43.191,24.631l-13.6,2.181Z" transform="translate(15.019 6.261)"/>
      <path id="Path_100" data-name="Path 100" class="cls-5" d="M6,8.867s4.19-5.219,2.891-7.84C10.235.218,11.411-.321,12.22.218s1.446,9.09-3.308,10.364S6,8.867,6,8.867Z" transform="translate(8.185 -0.001)"/>
      <path id="Path_101" data-name="Path 101" class="cls-6" d="M7.12,4.76S9.4,10.248,17.974,9.881,9.4,12.527,9.4,12.527Z" transform="translate(10.32 6.899)"/>
      <path id="Path_102" data-name="Path 102" class="cls-7" d="M5.508,6.015S7.934,1.066,9.184,3.639s2.3,10.927,5.586,10.658c2.3-.27,6.836-5.709,9.825-4.876S42.5,23.068,42.5,23.068,47.87,26.2,49.83,26.351L67.176,38.184l-39.495,1.4L6.145,19.981C6.145,20.005,5.19,6.628,5.508,6.015Z" transform="translate(7.889 4.198)"/>
      <path id="Path_103" data-name="Path 103" class="cls-8" d="M6.98,9.29c-.049,0,17.224,2.156,17.224,2.156l14.063,15.8L23.91,30.311Z" transform="translate(10.117 13.467)"/>
      <path id="Path_104" data-name="Path 104" class="cls-5" d="M13.228,4.32,7.2,13.116S-2.428,20.809.586,29.849c2.94,2.769,9.629,5.194,16.415,5.439,6.615.417,17.591,3.014,24.623,5.611C49,42.737,71.686,48.764,78.546,46.51c.931-3.528,1.176-10.29-6.37-11.883-9.555-.245-18.669-.588-19.5-.833a27.31,27.31,0,0,1-4.68-3.259c-.833-.662-2.352-.417-3.43.417s-7.546,5.023-8.869,4.778a3.413,3.413,0,0,1-2.083-1.421S14.306,15.884,13.228,4.32Z" transform="translate(-0.002 6.261)"/>
      <path id="Path_105" data-name="Path 105" class="cls-9" d="M5.863,9.88S.424,14.511,2.188,16.446c1.936,1.176,6.787,1.838,6.787,1.838Z" transform="translate(2.659 14.323)"/>
      <path id="Path_106" data-name="Path 106" class="cls-10" d="M8.329,11.51,6.05,14.573l2.279,3.063,2.279-3.063Z" transform="translate(8.769 16.686)"/>
    </g>
    <rect id="Rectangle_509" data-name="Rectangle 509" class="cls-11" width="227.282" height="4" rx="2" transform="translate(526 2469)"/>
    <rect id="Rectangle_506" data-name="Rectangle 506" class="cls-12" width="92" height="8" rx="4" transform="translate(526 2493)"/>
    <rect id="Rectangle_507" data-name="Rectangle 507" class="cls-12" width="54" height="8" rx="4" transform="translate(699 2493)"/>
    <g id="Group_61" data-name="Group 61" transform="translate(0 859)">
      <rect id="Rectangle_500" data-name="Rectangle 500" class="cls-13" width="104.282" height="6" rx="3" transform="translate(642 1514)"/>
      <rect id="Rectangle_501" data-name="Rectangle 501" class="cls-12" width="54" height="6" rx="3" transform="translate(642 1529)"/>
      <rect id="Rectangle_502" data-name="Rectangle 502" class="cls-14" width="21" height="6" rx="3" transform="translate(642 1499)"/>
    </g>
    <rect id="Rectangle_503" data-name="Rectangle 503" class="cls-15" width="226" height="50" rx="3" transform="translate(527 2523)"/>
    <g id="Group_48" data-name="Group 48" transform="translate(-145 966)">
      <g id="Group_46" data-name="Group 46" transform="translate(77.645 554.645)">
        <g id="Ellipse_1" data-name="Ellipse 1" class="cls-16" transform="translate(683 795.584)">
          <ellipse class="cls-19" cx="10.855" cy="10.855" rx="10.855" ry="10.855"/>
          <ellipse class="cls-20" cx="10.855" cy="10.855" rx="11.855" ry="11.855"/>
        </g>
      </g>
      <text id="_1" data-name="1" class="cls-17" transform="translate(768 1366)"><tspan x="0" y="0">1</tspan></text>
    </g>
    <text id="Proceed_to_Checkout" data-name="Proceed to Checkout" class="cls-18" transform="translate(640 2554)"><tspan x="-79.108" y="0">Proceed to Checkout</tspan></text>
    <rect id="Rectangle_537" data-name="Rectangle 537" class="cls-4" width="276" height="2" transform="translate(502 2283)"/>
    <rect id="Rectangle_504" data-name="Rectangle 504" class="cls-14" width="29" height="2" transform="translate(735 2283)"/>
  </g>
</svg>
