<svg xmlns="http://www.w3.org/2000/svg" width="129" height="38.969" viewBox="0 0 129 38.969">
  <metadata><?xpacket begin="﻿" id="W5M0MpCehiHzreSzNTczkc9d"?>
<x:xmpmeta xmlns:x="adobe:ns:meta/" x:xmptk="Adobe XMP Core 5.6-c140 79.160451, 2017/05/06-01:08:21        ">
   <rdf:RDF xmlns:rdf="http://www.w3.org/1999/02/22-rdf-syntax-ns#">
      <rdf:Description rdf:about=""/>
   </rdf:RDF>
</x:xmpmeta>
                                                                                                    
                                                                                                    
                                                                                                    
                                                                                                    
                                                                                                    
                                                                                                    
                                                                                                    
                                                                                                    
                                                                                                    
                                                                                                    
                                                                                                    
                                                                                                    
                                                                                                    
                                                                                                    
                                                                                                    
                                                                                                    
                                                                                                    
                                                                                                    
                                                                                                    
                                                                                                    
                           
<?xpacket end="w"?></metadata>
<defs>
    <style>
      .cls-1 {
        fill: #1a1b1c;
        fill-rule: evenodd;
      }
    </style>
  </defs>
  <path class="cls-1" d="M258.527,90.326A3.208,3.208,0,0,0,255.755,89h-19.1l0.367,5.979H238.7c-1.31,4.337-3.152,10.086-4.389,14.176L232.976,89h-8.833l-12.388,19.017H202.8L204.38,104h7.781l1.529-5.023h-7.78l1.046-3.951h10.738L219.637,89h-37.08a6.368,6.368,0,0,0-6.4,4.68l-4.848,15.608q-0.709,2.3.208,3.512a3.853,3.853,0,0,0,3.263,1.186h16.355l4.933-15H184.674l-1.7,5.04h4.534l-1.556,3.953h-7.288l4.216-12.952h16.965l-5.909,18.964h22.486l2.826-5.009h8.292l0.32,5.009h11.711l2.848-8.979h4.017l1.412,8.979h6.525l-1.85-9.726c1.905-.408,3.136-1.257,3.695-2.959l2.491-7.6A3.88,3.88,0,0,0,258.527,90.326ZM221.95,103.968l4.73-7.193,0.781,7.193H221.95Zm28.836-4.932H244.07l1.064-4.056h6.794Zm-87.618,8.427c-0.032-.03-0.066-0.058-0.1-0.086v0l-0.039-.031-0.008-.008-0.148-.116-6.325-4.7a6.7,6.7,0,0,0-3.251-1.54l-7.483.025L145.04,101c-0.923-.01-1.14,1.71-0.45,2.319l0,0,0.04,0.031h0l5.614,4.394a1.059,1.059,0,0,1-.009,1.646l-0.68.53a2.161,2.161,0,0,1-2.517,0l-8.388-6.553a2.4,2.4,0,0,1,0-3.739l8.393-6.556a2.123,2.123,0,0,1,2.5.012l6.088,5.231h0.006a3.036,3.036,0,0,0,3.693.007h0l4.113-3.466a1.542,1.542,0,0,0,.006-2.4l-0.287-.228h0L151.741,83.17h-0.017a5.821,5.821,0,0,0-7.068.1l-0.13.1h0l-12.035,9.4h0l0,0-0.127.1h0l-0.137.108a5.857,5.857,0,0,0-2.215,4.466l0,0.009v7.922h0v0.22l0.007,0.013a5.857,5.857,0,0,0,2.213,4.393l0.27,0.211,0-.006,12.085,9.442h0l0.117,0.091a5.823,5.823,0,0,0,7.215,0l0.116-.09h0l0.408-.318,0.3-.233h0l10.451-7.832v-0.023c0.03-.028.064-0.053,0.092-0.082A2.623,2.623,0,0,0,163.168,107.463Z" transform="translate(-130 -82.031)"/>
</svg>
