<svg xmlns="http://www.w3.org/2000/svg" id="gear_logo-blue_compact" width="26" height="29" viewBox="0 0 26 29">
  <metadata><?xpacket begin="&#65279;" id="W5M0MpCehiHzreSzNTczkc9d"?>
<x:xmpmeta xmlns:x="adobe:ns:meta/" x:xmptk="Adobe XMP Core 5.6-c140 79.160451, 2017/05/06-01:08:21        ">
   <rdf:RDF xmlns:rdf="http://www.w3.org/1999/02/22-rdf-syntax-ns#">
      <rdf:Description rdf:about=""/>
   </rdf:RDF>
</x:xmpmeta>
                                                                                                    
                                                                                                    
                                                                                                    
                                                                                                    
                                                                                                    
                                                                                                    
                                                                                                    
                                                                                                    
                                                                                                    
                                                                                                    
                                                                                                    
                                                                                                    
                                                                                                    
                                                                                                    
                                                                                                    
                                                                                                    
                                                                                                    
                                                                                                    
                                                                                                    
                                                                                                    
                           
<?xpacket end="w"?></metadata>
<defs>
    <style>
      .cls-1 {
        fill: #151618;
      }

      .cls-1, .cls-2 {
        fill-rule: evenodd;
      }

      .cls-2 {
        fill: #2da2c9;
      }
    </style>
  </defs>
  
  <path class="cls-2" d="M162.334,34.923c-0.025-.022-0.051-0.042-0.076-0.063v0l-0.03-.023-0.007-.005-0.112-.087-4.831-3.7a4.918,4.918,0,0,0-2.484-.98l-5.715-.055-0.591-.006c-0.706-.008-0.871,1.379-0.344,1.832v0l0.03,0.024h0l4.288,3.27a0.776,0.776,0,0,1-.007,1.225l-0.52.395a1.686,1.686,0,0,1-1.922,0L143.6,31.875a1.756,1.756,0,0,1,0-2.783l6.411-4.88a1.657,1.657,0,0,1,1.908.009l4.65,3.894h0a2.366,2.366,0,0,0,2.82.005h0l3.142-2.58a1.129,1.129,0,0,0,0-1.783l-0.22-.17h0l-8.723-6.746h-0.013a4.538,4.538,0,0,0-5.4.076l-0.1.076h0l-9.192,7h0l0,0-0.1.074h0l-0.106.08A4.322,4.322,0,0,0,137,27.472l0,0.007v5.9h0V33.54l0,0.01a4.326,4.326,0,0,0,1.69,3.27l0.207,0.157,0,0L148.13,44h0l0.089,0.068a4.539,4.539,0,0,0,5.51,0L153.819,44h0l0.312-.237,0.227-.173h0l7.983-5.829V37.743c0.023-.021.049-0.04,0.071-0.062A1.918,1.918,0,0,0,162.334,34.923Z" transform="translate(-137 -16)"/>
</svg>