<svg id="gear_logo-blue_compact" xmlns="http://www.w3.org/2000/svg" width="86" height="29" viewBox="0 0 86 29">
  <metadata><?xpacket begin="﻿" id="W5M0MpCehiHzreSzNTczkc9d"?>
<x:xmpmeta xmlns:x="adobe:ns:meta/" x:xmptk="Adobe XMP Core 5.6-c140 79.160451, 2017/05/06-01:08:21        ">
   <rdf:RDF xmlns:rdf="http://www.w3.org/1999/02/22-rdf-syntax-ns#">
      <rdf:Description rdf:about=""/>
   </rdf:RDF>
</x:xmpmeta>
                                                                                                    
                                                                                                    
                                                                                                    
                                                                                                    
                                                                                                    
                                                                                                    
                                                                                                    
                                                                                                    
                                                                                                    
                                                                                                    
                                                                                                    
                                                                                                    
                                                                                                    
                                                                                                    
                                                                                                    
                                                                                                    
                                                                                                    
                                                                                                    
                                                                                                    
                                                                                                    
                           
<?xpacket end="w"?></metadata>
<defs>
    <style>
      .cls-1 {
        fill: #151618;
      }

      .cls-1, .cls-2 {
        fill-rule: evenodd;
      }

      .cls-2 {
        fill: #2da2c9;
      }
    </style>
  </defs>
  <path class="cls-1" d="M222.7,23.8a2.034,2.034,0,0,0-1.733-.8H209l0.215,3.461h1.093c-0.819,2.605-2.346,6.188-3.119,8.644L205.945,23h-4.738l-7.744,11.981h-5.6l0.99-2.99h4.863l0.956-3.02h-4.863l0.739-2.963h6.713L198.929,23H175.21a4.281,4.281,0,0,0-2.5.724,4,4,0,0,0-1.5,2.087l-3.031,9.375a2.213,2.213,0,0,0,.13,2.109,2.463,2.463,0,0,0,2.04.712h10.224l3.041-8.987h-7.122l-0.933,2.985h2.835l-1.058,3h-4.556l2.721-9.024h10.606l-3.78,12.027h14.057L198.021,35h5.355l0.157,3.007h7.321l1.781-5.014h2.511l0.883,5.014h4.079l-1.157-5.842a2.713,2.713,0,0,0,2.31-1.777l1.557-4.567A2.249,2.249,0,0,0,222.7,23.8Zm-22.823,8.21,2.914-4.336,0.488,4.336h-3.4ZM217.479,29H213.4l1.212-3h3.816Z" transform="translate(-137 -16)"/>
  <path class="cls-2" d="M162.334,34.923c-0.025-.022-0.051-0.042-0.076-0.063v0l-0.03-.023-0.007-.005-0.112-.087-4.831-3.7a4.918,4.918,0,0,0-2.484-.98l-5.715-.055-0.591-.006c-0.706-.008-0.871,1.379-0.344,1.832v0l0.03,0.024h0l4.288,3.27a0.776,0.776,0,0,1-.007,1.225l-0.52.395a1.686,1.686,0,0,1-1.922,0L143.6,31.875a1.756,1.756,0,0,1,0-2.783l6.411-4.88a1.657,1.657,0,0,1,1.908.009l4.65,3.894h0a2.366,2.366,0,0,0,2.82.005h0l3.142-2.58a1.129,1.129,0,0,0,0-1.783l-0.22-.17h0l-8.723-6.746h-0.013a4.538,4.538,0,0,0-5.4.076l-0.1.076h0l-9.192,7h0l0,0-0.1.074h0l-0.106.08A4.322,4.322,0,0,0,137,27.472l0,0.007v5.9h0V33.54l0,0.01a4.326,4.326,0,0,0,1.69,3.27l0.207,0.157,0,0L148.13,44h0l0.089,0.068a4.539,4.539,0,0,0,5.51,0L153.819,44h0l0.312-.237,0.227-.173h0l7.983-5.829V37.743c0.023-.021.049-0.04,0.071-0.062A1.918,1.918,0,0,0,162.334,34.923Z" transform="translate(-137 -16)"/>
</svg>
