<svg id="_" data-name="#" xmlns="http://www.w3.org/2000/svg" width="90" height="90" viewBox="0 0 90 90">
  <defs>
    <style>
      .cls-1 {
        fill: #ffdbdf;
      }

      .cls-1, .cls-2 {
        fill-rule: evenodd;
      }

      .cls-2 {
        fill: #ff4c5f;
      }
    </style>
  </defs>
  <path id="_2" data-name="#" class="cls-1" d="M87,83v4H2V22l5-2V81H83V20l5,2V83H87Z"/>
  <path id="_3" data-name="#" class="cls-2" d="M66.855,18.826c-4.467,1.381-13.524,5.883-13.615,5.928A1.56,1.56,0,0,1,51.17,24.1a1.491,1.491,0,0,1,.674-2.025c0.382-.19,9.377-4.662,14.082-6.117a1.544,1.544,0,0,1,1.931.983A1.5,1.5,0,0,1,66.855,18.826ZM51.844,31.1c0.382-.19,9.377-4.662,14.082-6.118a1.544,1.544,0,0,1,1.931.983,1.5,1.5,0,0,1-1,1.89c-4.467,1.381-13.524,5.882-13.615,5.928a1.567,1.567,0,0,1-.7.164,1.548,1.548,0,0,1-1.374-.822A1.491,1.491,0,0,1,51.844,31.1Zm0,9.034c0.382-.19,9.377-4.662,14.082-6.118A1.545,1.545,0,0,1,67.857,35a1.5,1.5,0,0,1-1,1.89c-4.467,1.381-13.524,5.883-13.615,5.928a1.564,1.564,0,0,1-.7.164,1.548,1.548,0,0,1-1.374-.822A1.491,1.491,0,0,1,51.844,40.138Zm0,18.068c0.382-.189,9.377-4.661,14.082-6.117a1.545,1.545,0,0,1,1.931.983,1.5,1.5,0,0,1-1,1.889c-4.467,1.381-13.524,5.883-13.615,5.928a1.563,1.563,0,0,1-.7.164,1.547,1.547,0,0,1-1.374-.822A1.492,1.492,0,0,1,51.844,58.206Zm0-9.034c0.382-.19,9.377-4.662,14.082-6.118a1.544,1.544,0,0,1,1.931.983,1.5,1.5,0,0,1-1,1.889c-4.467,1.381-13.524,5.883-13.615,5.928a1.566,1.566,0,0,1-.7.164A1.548,1.548,0,0,1,51.17,51.2,1.491,1.491,0,0,1,51.844,49.172ZM37.635,65.557a1.512,1.512,0,0,1-1.811,1.123c-8.575-2.01-18.756.665-18.857,0.694a1.528,1.528,0,0,1-.392.053,1.507,1.507,0,0,1-.389-2.962c0.445-.119,11.019-2.9,20.324-0.717A1.505,1.505,0,0,1,37.635,65.557Zm0-8.971a1.511,1.511,0,0,1-1.811,1.124c-8.575-2.01-18.756.665-18.857,0.694a1.506,1.506,0,1,1-.781-2.909c0.445-.12,11.019-2.9,20.324-0.716A1.5,1.5,0,0,1,37.635,56.585Zm0-9a1.51,1.51,0,0,1-1.811,1.123c-8.575-2.01-18.756.666-18.857,0.694a1.532,1.532,0,0,1-.392.053,1.507,1.507,0,0,1-.389-2.962c0.445-.12,11.019-2.9,20.324-0.717A1.505,1.505,0,0,1,37.635,47.582ZM35.823,30.7c-8.575-2.01-18.756.666-18.857,0.694a1.538,1.538,0,0,1-.392.051,1.506,1.506,0,0,1-.389-2.96c0.445-.119,11.019-2.9,20.324-0.717A1.505,1.505,0,1,1,35.823,30.7Zm1.811,7.848a1.51,1.51,0,0,1-1.811,1.123c-8.575-2.01-18.756.666-18.857,0.694a1.543,1.543,0,0,1-.392.051,1.506,1.506,0,0,1-.389-2.96c0.445-.119,11.019-2.9,20.324-0.717A1.506,1.506,0,0,1,37.635,38.548ZM82.476,90.011H7.534A7.54,7.54,0,0,1,0,82.482V23.761a1.507,1.507,0,0,1,3.014,0V82.482A4.525,4.525,0,0,0,7.534,87h36.48v-3.54a34.718,34.718,0,0,0-12.368-2.483,97.293,97.293,0,0,0-23.73,2.953,1.489,1.489,0,0,1-.413.059A1.506,1.506,0,0,1,6,82.482V16.514a1.505,1.505,0,0,1,1.093-1.447A98.293,98.293,0,0,1,31.646,12a37.3,37.3,0,0,1,14.549,3.169,1.479,1.479,0,0,1,.8,1.348v57.33A181.387,181.387,0,0,1,73,62.112V3.659A222.047,222.047,0,0,0,50.528,14.5a1.506,1.506,0,1,1-1.6-2.554A204.625,204.625,0,0,1,73.981.046,1.508,1.508,0,0,1,75.369.22a1.476,1.476,0,0,1,.618,1.238V63.19a1.505,1.505,0,0,1-1.031,1.428C61.7,69.031,46.446,77.661,46.3,77.749a1.506,1.506,0,0,1-2.283-1.29V17.49a34.787,34.787,0,0,0-12.368-2.481A99.624,99.624,0,0,0,9.01,17.679V80.544a102,102,0,0,1,22.636-2.579A37.405,37.405,0,0,1,45.58,80.849a44.957,44.957,0,0,1,14.7-2.885A81.4,81.4,0,0,1,81,80.481V17.457c-0.5-.1-0.955-0.225-1.725-0.366A1.55,1.55,0,0,1,78,15.337a1.418,1.418,0,0,1,1.66-1.207c2.019,0.37,3.17.634,3.17,0.634a1.5,1.5,0,0,1,1.18,1.47V82.482a1.507,1.507,0,0,1-1.982,1.429c-0.089-.03-8.627-2.935-21.755-2.935A42.266,42.266,0,0,0,47,83.535V87h35.48A4.525,4.525,0,0,0,87,82.482V23.761a1.507,1.507,0,0,1,3.014,0V82.482A7.54,7.54,0,0,1,82.476,90.011Z"/>
</svg>
