<svg id="_" data-name="#" xmlns="http://www.w3.org/2000/svg" width="90" height="90" viewBox="0 0 90 90">
  <defs>
    <style>
      .cls-1 {
        fill: #ffdbdf;
      }

      .cls-1, .cls-2 {
        fill-rule: evenodd;
      }

      .cls-2 {
        fill: #ff4c5f;
      }
    </style>
  </defs>
  <path id="_2" data-name="#" class="cls-1" d="M57.3,57.082c-1.289.741-3.28-3.713-4.648-2.926l-6.078,3.493L41.45,51.506,50,35,61.218,49.234S59.8,55.644,57.3,57.082ZM7.114,84.493L16.3,69.269l4.424-6.044L30.226,47,37.07,56.7,21.588,84.309Z"/>
  <path id="_3" data-name="#" class="cls-2" d="M84.645,87.044L52.986,32.211V2.956h-23V19.978H50V32.211L37.175,54.431,30.368,42.642,4.73,87.045H84.645ZM33,17V5.938H50V17H33ZM23.51,84.062L41.444,53l3.972,7.957L51.5,55.347l6.079,5.611L61.546,53,79.48,84.062H23.51ZM43.231,49.905L51.5,35.592l8.264,14.313-3.08,6.169L51.5,51.289l-5.185,4.785Zm-12.863-1.3,5.086,8.807L20.067,84.063H9.9Z"/>
</svg>
