<svg id="_" data-name="#" xmlns="http://www.w3.org/2000/svg" width="90" height="90" viewBox="0 0 90 90">
  <defs>
    <style>
      .cls-1 {
        fill: #ffdbdf;
      }

      .cls-1, .cls-2 {
        fill-rule: evenodd;
      }

      .cls-2 {
        fill: #ff4c5f;
      }
    </style>
  </defs>
  <path id="_2" data-name="#" class="cls-1" d="M44,81V17L65,9.013V72.091ZM1,17L24,9.013V71.888L1,81.741V17Z"/>
  <path id="_3" data-name="#" class="cls-2" d="M88.154,17.735L66.133,7.139c-0.022-.01-0.048-0.013-0.07-0.022a1.474,1.474,0,0,0-.19-0.061,1.458,1.458,0,0,0-.159-0.034,1.326,1.326,0,0,0-.2-0.012,1.543,1.543,0,0,0-.165.006,1.377,1.377,0,0,0-.187.036,1.761,1.761,0,0,0-.177.051c-0.021.007-.043,0.009-0.064,0.018L44.5,15.977,24.084,7.12c-0.013-.006-0.027-0.006-0.04-0.012a1.308,1.308,0,0,0-.181-0.052,0.9,0.9,0,0,0-.357-0.047,1.36,1.36,0,0,0-.171,0,1.628,1.628,0,0,0-.189.04,1.5,1.5,0,0,0-.164.043,0.333,0.333,0,0,0-.037.01L0.924,16.215A1.487,1.487,0,0,0-.009,17.6V81.533A1.486,1.486,0,0,0,1.478,83.02a1.5,1.5,0,0,0,.553-0.105l21.544-8.693L43.917,82.9c0.021,0.009.043,0,.064,0.013a1.325,1.325,0,0,0,1.044,0c0.021-.007.043,0,0.064-0.013l20.436-8.677,21.45,8.693a1.485,1.485,0,0,0,2.037-1.382V19.082A1.485,1.485,0,0,0,88.154,17.735ZM3,18.6l19.016-7.92V71.605L3,79.337V18.6Zm21.99-7.86,18.029,7.835v60.7L24.985,71.63V10.742Zm21,7.834,18-7.835V71.63l-18,7.647v-60.7ZM86.007,79.337L66.991,71.605V10.821l19.016,9.207V79.337Z"/>
</svg>
