<svg xmlns="http://www.w3.org/2000/svg" width="15" height="14" viewBox="0 0 15 14">
  <defs>
    <style>
      .cls-1 {
        fill: #7aad29;
        fill-rule: evenodd;
      }
    </style>
  </defs>
  <path id="_" data-name="#" class="cls-1" d="M7.783,0.2L9.351,4.784a0.3,0.3,0,0,0,.282.191H14.7a0.275,0.275,0,0,1,.174.5l-4.1,3.09a0.287,0.287,0,0,0-.108.325l1.3,4.723a0.282,0.282,0,0,1-.43.324L7.676,11.02a0.3,0.3,0,0,0-.348,0L3.469,13.939a0.282,0.282,0,0,1-.43-0.324l1.3-4.723a0.287,0.287,0,0,0-.108-0.325l-4.1-3.09A0.275,0.275,0,0,1,.3,4.975H5.371a0.3,0.3,0,0,0,.282-0.191L7.22,0.2A0.3,0.3,0,0,1,7.783.2Z"/>
</svg>
