<svg xmlns="http://www.w3.org/2000/svg" width="64" height="64" viewBox="0 0 64 64">
  <metadata><?xpacket begin="﻿" id="W5M0MpCehiHzreSzNTczkc9d"?>
<x:xmpmeta xmlns:x="adobe:ns:meta/" x:xmptk="Adobe XMP Core 5.6-c138 79.159824, 2016/09/14-01:09:01        ">
   <rdf:RDF xmlns:rdf="http://www.w3.org/1999/02/22-rdf-syntax-ns#">
      <rdf:Description rdf:about=""/>
   </rdf:RDF>
</x:xmpmeta>
                                                                                                    
                                                                                                    
                                                                                                    
                                                                                                    
                                                                                                    
                                                                                                    
                                                                                                    
                                                                                                    
                                                                                                    
                                                                                                    
                                                                                                    
                                                                                                    
                                                                                                    
                                                                                                    
                                                                                                    
                                                                                                    
                                                                                                    
                                                                                                    
                                                                                                    
                                                                                                    
                           
<?xpacket end="w"?></metadata>
<defs>
    <style>
      .cls-1 {
        fill: #151618;
        fill-rule: evenodd;
      }
    </style>
  </defs>
  <path class="cls-1" d="M465,253h58a3,3,0,0,1,3,3v58a3,3,0,0,1-3,3H465a3,3,0,0,1-3-3V256A3,3,0,0,1,465,253Zm23.879,17h-0.535A6.519,6.519,0,0,0,482,276.65v17.707a6.492,6.492,0,0,0,6.344,6.616h11.271a6.3,6.3,0,0,0,5.429-3.2,6.791,6.791,0,0,0,.948-3.474v-12.32h-9.657L493.252,289h5.736v4.985H488.973v-17H506V270H488.879Z" transform="translate(-462 -253)"/>
</svg>
