<svg xmlns="http://www.w3.org/2000/svg" xmlns:xlink="http://www.w3.org/1999/xlink" width="31" height="34" viewBox="0 0 31 34">
  <metadata><?xpacket begin="﻿" id="W5M0MpCehiHzreSzNTczkc9d"?>
<x:xmpmeta xmlns:x="adobe:ns:meta/" x:xmptk="Adobe XMP Core 5.6-c138 79.159824, 2016/09/14-01:09:01        ">
   <rdf:RDF xmlns:rdf="http://www.w3.org/1999/02/22-rdf-syntax-ns#">
      <rdf:Description rdf:about=""/>
   </rdf:RDF>
</x:xmpmeta>
                                                                                                    
                                                                                                    
                                                                                                    
                                                                                                    
                                                                                                    
                                                                                                    
                                                                                                    
                                                                                                    
                                                                                                    
                                                                                                    
                                                                                                    
                                                                                                    
                                                                                                    
                                                                                                    
                                                                                                    
                                                                                                    
                                                                                                    
                                                                                                    
                                                                                                    
                                                                                                    
                           
<?xpacket end="w"?></metadata>
<defs>
    <style>
      .cls-1 {
        fill: #151618;
        fill-rule: evenodd;
        filter: url(#filter);
      }
    </style>
    <filter id="filter" x="444" y="704" width="31" height="34" filterUnits="userSpaceOnUse">
      <feFlood result="flood" flood-color="#626262" flood-opacity="0.15"/>
      <feComposite result="composite" operator="in" in2="SourceGraphic"/>
      <feBlend result="blend" mode="color" in2="SourceGraphic"/>
    </filter>
  </defs>
  <path id="fb" class="cls-1" d="M473.406,711.357l-12.015-6.778-0.3-.169a3.256,3.256,0,0,0-3.183,0l-0.3.169-12.015,6.778A3.108,3.108,0,0,0,444,714.051v13.895a3.107,3.107,0,0,0,1.592,2.694l12.015,6.778,0.3,0.17a3.259,3.259,0,0,0,3.183,0l0.3-.17,12.015-6.778A3.107,3.107,0,0,0,475,727.946V714.051A3.108,3.108,0,0,0,473.406,711.357ZM460.993,729v-6.969h2.57L464,718.989h-3v-1.372c0-.977.26-1.6,1.662-1.6h1.357V713c0.01,0.01-.511-0.011-1.941-0.011-2.578,0-4.06,1.121-4.06,4.011v1.992h-3v3.043h3V729h2.981Z" transform="translate(-444 -704)"/>
</svg>
