<svg xmlns="http://www.w3.org/2000/svg" xmlns:xlink="http://www.w3.org/1999/xlink" width="31" height="34" viewBox="0 0 31 34">
  <metadata><?xpacket begin="﻿" id="W5M0MpCehiHzreSzNTczkc9d"?>
<x:xmpmeta xmlns:x="adobe:ns:meta/" x:xmptk="Adobe XMP Core 5.6-c138 79.159824, 2016/09/14-01:09:01        ">
   <rdf:RDF xmlns:rdf="http://www.w3.org/1999/02/22-rdf-syntax-ns#">
      <rdf:Description rdf:about=""/>
   </rdf:RDF>
</x:xmpmeta>
                                                                                                    
                                                                                                    
                                                                                                    
                                                                                                    
                                                                                                    
                                                                                                    
                                                                                                    
                                                                                                    
                                                                                                    
                                                                                                    
                                                                                                    
                                                                                                    
                                                                                                    
                                                                                                    
                                                                                                    
                                                                                                    
                                                                                                    
                                                                                                    
                                                                                                    
                                                                                                    
                           
<?xpacket end="w"?></metadata>
<defs>
    <style>
      .cls-1 {
        fill: #151618;
        fill-rule: evenodd;
        filter: url(#filter);
      }
    </style>
    <filter id="filter" x="487" y="704" width="31" height="34" filterUnits="userSpaceOnUse">
      <feFlood result="flood" flood-color="#626262" flood-opacity="0.15"/>
      <feComposite result="composite" operator="in" in2="SourceGraphic"/>
      <feBlend result="blend" mode="color" in2="SourceGraphic"/>
    </filter>
  </defs>
  <path id="twitter" class="cls-1" d="M516.406,711.357l-12.015-6.778-0.3-.169a3.256,3.256,0,0,0-3.183,0l-0.3.169-12.015,6.778A3.108,3.108,0,0,0,487,714.051v13.895a3.107,3.107,0,0,0,1.592,2.694l12.015,6.778,0.3,0.17a3.259,3.259,0,0,0,3.183,0l0.3-.17,12.015-6.778A3.107,3.107,0,0,0,518,727.946V714.051A3.108,3.108,0,0,0,516.406,711.357Zm-5.4,5.219a6.046,6.046,0,0,1-1.84.441,3.367,3.367,0,0,0,1.475-1.855,6.709,6.709,0,0,1-2.131.813,3.459,3.459,0,0,0-2.525-.975,3.181,3.181,0,0,0-3.362,3.135c0,0.263.01,0.2,0.008,0.456a8.331,8.331,0,0,1-6.537-3.061,3.356,3.356,0,0,0,1.039,4.477,3.353,3.353,0,0,1-1.52-.42c0,0.014,0,.028,0,0.043a3.249,3.249,0,0,0,2.693,3.188,3.352,3.352,0,0,1-1.516.057,3.153,3.153,0,0,0,2.987,2.3,8.291,8.291,0,0,1-5.767,1.344A12.266,12.266,0,0,0,499.912,728a9.121,9.121,0,0,0,9.367-9.292c0-.145,0-0.34-0.01-0.484A6.686,6.686,0,0,0,511,716.576Z" transform="translate(-487 -704)"/>
</svg>
