<svg xmlns="http://www.w3.org/2000/svg" xmlns:xlink="http://www.w3.org/1999/xlink" preserveAspectRatio="xMidYMid" width="200" height="200" viewBox="0 0 200 200">
  <defs>
    <style>
      .cls-1 {
        fill: #1c1e27;
      }

      .cls-1, .cls-3, .cls-4, .cls-5, .cls-6, .cls-7, .cls-9 {
        fill-rule: evenodd;
      }

      .cls-2, .cls-9 {
        fill: #7aad29;
      }

      .cls-3 {
        fill: #fff;
      }

      .cls-4 {
        fill: #d62222;
      }

      .cls-5, .cls-6, .cls-8 {
        fill: #151618;
      }

      .cls-5 {
        opacity: 0.8;
      }

      .cls-6 {
        opacity: 0.1;
      }

      .cls-7 {
        fill: #25282f;
      }

      .cls-10 {
        opacity: 0.3;
      }
    </style>
  </defs>
  <path d="M5.452,1.500 C6.796,1.516 8.067,2.271 8.690,3.427 L9.977,5.814 L11.315,3.455 C12.002,2.246 13.228,1.515 14.580,1.501 C16.620,1.501 18.261,3.310 18.485,5.823 C18.541,6.366 18.498,6.909 18.346,7.479 C17.982,9.024 17.184,10.392 16.039,11.437 L10.003,16.963 L3.995,11.435 C2.833,10.375 2.028,9.007 1.657,7.438 C1.517,6.911 1.474,6.368 1.534,5.801 C1.756,3.312 3.403,1.504 5.452,1.500 M5.459,0.008 C2.610,0.008 0.333,2.389 0.041,5.669 C-0.035,6.391 0.022,7.120 0.208,7.821 C0.637,9.634 1.603,11.277 2.983,12.536 L10.000,18.992 L17.053,12.536 C18.433,11.277 19.377,9.634 19.805,7.821 C19.993,7.120 20.050,6.392 19.976,5.670 C19.684,2.389 17.427,0.009 14.580,0.009 C12.666,0.028 10.952,1.062 10.010,2.721 C9.118,1.066 7.346,0.026 5.459,0.008 L5.459,0.008 Z" class="cls-1"/>
  <path d="M70.824,0.155 C70.649,-0.020 70.390,-0.080 70.181,0.003 L50.403,7.837 C50.178,7.928 50.029,8.134 50.015,8.371 C50.000,8.609 50.130,8.837 50.342,8.960 L57.695,13.222 L62.154,20.663 C62.272,20.861 62.486,20.986 62.706,20.986 C62.720,20.986 62.729,20.986 62.743,20.986 C62.980,20.972 63.181,20.823 63.272,20.597 L70.980,0.797 C71.063,0.583 71.003,0.329 70.824,0.155 ZM67.687,2.334 L58.081,11.842 L52.314,8.494 L67.687,2.334 ZM62.597,18.690 L59.078,12.826 L68.688,3.230 L62.597,18.690 Z" class="cls-1"/>
  <circle cx="131.5" cy="86.5" r="16.5" class="cls-2"/>
  <path d="M137.820,81.341 L132.676,86.495 L137.817,91.647 L136.620,92.843 L131.480,87.693 L126.340,92.843 L125.143,91.647 L130.285,86.495 L125.141,81.341 L126.337,80.144 L131.480,85.297 L136.623,80.144 L137.820,81.341 Z" class="cls-3"/>
  <path d="M30.459,0.008 C27.610,0.008 25.333,2.389 25.041,5.669 C24.965,6.391 25.022,7.120 25.208,7.821 C25.637,9.634 26.603,11.277 27.983,12.536 L35.000,18.992 L42.053,12.536 C43.433,11.277 44.377,9.634 44.805,7.821 C44.993,7.120 45.050,6.392 44.976,5.670 C44.684,2.389 42.427,0.009 39.580,0.009 C37.666,0.028 35.952,1.062 35.010,2.721 C34.118,1.066 32.346,0.026 30.459,0.008 L30.459,0.008 Z" class="cls-4"/>
  <path d="M115.000,7.000 L115.000,8.000 L114.000,8.000 L114.000,9.000 L113.000,9.000 L113.000,10.000 L112.000,10.000 L112.000,11.000 L111.000,11.000 L111.000,12.000 L110.000,12.000 L110.000,13.000 L109.000,13.000 L109.000,14.000 L108.000,14.000 L108.000,13.000 L107.000,13.000 L107.000,12.000 L106.000,12.000 L106.000,11.000 L105.000,11.000 L105.000,10.000 L106.000,10.000 L106.000,9.000 L107.000,9.000 L107.000,10.000 L108.000,10.000 L108.000,11.000 L109.000,11.000 L109.000,10.000 L110.000,10.000 L110.000,9.000 L111.000,9.000 L111.000,8.000 L112.000,8.000 L112.000,7.000 L113.000,7.000 L113.000,6.000 L114.000,6.000 L114.000,6.000 L114.000,6.000 L114.000,6.000 L114.000,6.000 L115.000,7.000 L114.000,7.000 L114.000,7.000 L115.000,7.000 Z" class="cls-1"/>
  <g>
    <path d="M2.714,37.761 L23.256,25.998 L23.769,25.704 C25.448,24.743 27.534,24.743 29.213,25.704 L29.726,25.998 L50.268,37.761 C51.947,38.722 52.990,40.514 52.990,42.437 L52.990,51.130 L52.990,57.547 L52.990,66.551 C52.990,68.474 51.947,70.266 50.268,71.227 L29.726,82.990 L29.213,83.284 C28.373,83.765 27.432,84.005 26.491,84.005 C25.550,84.005 24.609,83.765 23.769,83.284 L23.256,82.990 L2.714,71.227 C1.035,70.266 -0.008,68.474 -0.008,66.551 L-0.008,57.547 L-0.008,51.130 L-0.008,42.437 C-0.008,40.514 1.035,38.723 2.714,37.761 Z" class="cls-5"/>
    <path d="M30.000,64.000 L30.000,65.000 L29.995,65.000 L29.000,65.995 L28.000,65.995 L28.000,64.995 L27.000,64.995 L27.000,63.995 L26.000,63.995 L26.000,62.994 L25.000,62.994 L25.000,61.994 L24.000,61.994 L24.000,60.994 L23.000,60.994 L23.000,59.994 L22.000,59.994 L22.000,58.993 L21.000,58.993 L21.000,57.993 L20.000,57.993 L20.000,56.993 L19.000,56.993 L19.000,55.993 L18.000,55.993 L18.000,54.992 L17.000,54.992 L17.000,53.992 L18.000,53.992 L18.000,52.992 L19.000,52.992 L19.000,51.991 L20.000,51.991 L20.000,50.991 L21.000,50.991 L21.000,49.991 L22.000,49.991 L22.000,48.991 L23.000,48.991 L23.000,47.990 L24.000,47.990 L24.000,46.990 L25.000,46.990 L25.000,45.990 L26.000,45.990 L26.000,44.990 L27.000,44.990 L27.000,43.989 L28.000,43.989 L28.000,42.989 L29.000,42.989 L29.995,43.984 L30.000,43.984 L30.000,44.984 L29.000,44.984 L29.000,43.989 L29.000,43.989 L29.000,44.990 L29.000,45.990 L28.000,45.990 L28.000,46.990 L27.000,46.990 L27.000,47.990 L26.000,47.990 L26.000,48.991 L25.000,48.991 L25.000,49.991 L24.000,49.991 L24.000,50.991 L23.000,50.991 L23.000,51.991 L22.000,51.991 L22.000,52.992 L21.000,52.992 L21.000,53.992 L20.000,53.992 L20.000,54.992 L21.000,54.992 L21.000,55.993 L22.000,55.993 L22.000,56.993 L23.000,56.993 L23.000,57.993 L24.000,57.993 L24.000,58.993 L25.000,58.993 L25.000,59.994 L26.000,59.994 L26.000,60.994 L27.000,60.994 L27.000,61.994 L28.000,61.994 L28.000,62.994 L29.000,62.994 L29.000,63.995 L29.000,64.995 L29.000,64.995 L29.000,64.000 L30.000,64.000 Z" class="cls-3"/>
  </g>
  <g>
    <path d="M110.286,37.761 L89.744,25.998 L89.231,25.704 C87.552,24.743 85.466,24.743 83.787,25.704 L83.274,25.998 L62.732,37.761 C61.053,38.722 60.010,40.514 60.010,42.437 L60.010,51.130 L60.010,57.547 L60.010,66.551 C60.010,68.474 61.053,70.266 62.732,71.227 L83.274,82.990 L83.787,83.284 C84.627,83.765 85.568,84.005 86.509,84.005 C87.450,84.005 88.391,83.765 89.231,83.284 L89.744,82.990 L110.286,71.227 C111.965,70.266 113.008,68.474 113.008,66.551 L113.008,57.547 L113.008,51.130 L113.008,42.437 C113.008,40.514 111.965,38.723 110.286,37.761 Z" class="cls-5"/>
    <path d="M95.000,54.992 L95.000,55.993 L94.000,55.993 L94.000,56.993 L93.000,56.993 L93.000,57.993 L92.000,57.993 L92.000,58.993 L91.000,58.993 L91.000,59.994 L90.000,59.994 L90.000,60.994 L89.000,60.994 L89.000,61.994 L88.000,61.994 L88.000,62.994 L87.000,62.994 L87.000,63.995 L86.000,63.995 L86.000,64.995 L85.000,64.995 L85.000,65.995 L84.000,65.995 L83.005,65.000 L83.000,65.000 L83.000,64.995 L83.000,64.995 L83.000,64.995 L83.000,64.000 L84.000,64.000 L84.000,63.995 L84.000,62.994 L85.000,62.994 L85.000,61.994 L86.000,61.994 L86.000,60.994 L87.000,60.994 L87.000,59.994 L88.000,59.994 L88.000,58.993 L89.000,58.993 L89.000,57.993 L90.000,57.993 L90.000,56.993 L91.000,56.993 L91.000,55.993 L92.000,55.993 L92.000,54.992 L93.000,54.992 L93.000,53.992 L92.000,53.992 L92.000,52.992 L91.000,52.992 L91.000,51.991 L90.000,51.991 L90.000,50.991 L89.000,50.991 L89.000,49.991 L88.000,49.991 L88.000,48.991 L87.000,48.991 L87.000,47.990 L86.000,47.990 L86.000,46.990 L85.000,46.990 L85.000,45.990 L84.000,45.990 L84.000,44.990 L84.000,44.984 L83.000,44.984 L83.000,43.989 L83.000,43.989 L83.000,43.989 L83.000,43.984 L83.005,43.984 L84.000,42.989 L85.000,42.989 L85.000,43.989 L86.000,43.989 L86.000,44.990 L87.000,44.990 L87.000,45.990 L88.000,45.990 L88.000,46.990 L89.000,46.990 L89.000,47.990 L90.000,47.990 L90.000,48.991 L91.000,48.991 L91.000,49.991 L92.000,49.991 L92.000,50.991 L93.000,50.991 L93.000,51.991 L94.000,51.991 L94.000,52.992 L95.000,52.992 L95.000,53.992 L96.000,53.992 L96.000,54.992 L95.000,54.992 Z" class="cls-3"/>
  </g>
  <g>
    <path d="M2.714,102.761 L23.256,90.998 L23.769,90.704 C25.448,89.743 27.534,89.743 29.213,90.704 L29.726,90.998 L50.268,102.761 C51.947,103.722 52.990,105.514 52.990,107.437 L52.990,116.130 L52.990,122.547 L52.990,131.551 C52.990,133.474 51.947,135.266 50.268,136.227 L29.726,147.990 L29.213,148.284 C28.373,148.765 27.432,149.005 26.491,149.005 C25.550,149.005 24.609,148.765 23.769,148.284 L23.256,147.990 L2.714,136.227 C1.035,135.266 -0.008,133.474 -0.008,131.551 L-0.008,122.547 L-0.008,116.130 L-0.008,107.437 C-0.008,105.514 1.035,103.723 2.714,102.761 Z" class="cls-6"/>
    <path d="M159.339,79.339 C159.135,79.543 158.804,79.543 158.600,79.339 L156.487,77.225 C155.860,77.700 155.089,77.993 154.248,77.993 C152.188,77.993 150.502,76.300 150.502,74.232 C150.502,72.163 152.188,70.502 154.248,70.502 C156.308,70.502 157.994,72.163 157.994,74.232 C157.994,75.079 157.700,75.855 157.225,76.486 L159.339,78.600 C159.543,78.804 159.543,79.135 159.339,79.339 ZM154.235,71.496 C152.697,71.496 151.502,72.744 151.502,74.256 C151.502,75.768 152.731,76.994 154.246,76.994 C155.761,76.994 157.000,75.795 157.000,74.259 C157.000,72.722 155.772,71.496 154.235,71.496 Z" class="cls-7"/>
    <path d="M30.000,129.000 L30.000,130.000 L29.995,130.000 L29.000,130.995 L28.000,130.995 L28.000,129.995 L27.000,129.995 L27.000,128.995 L26.000,128.995 L26.000,127.994 L25.000,127.994 L25.000,126.994 L24.000,126.994 L24.000,125.994 L23.000,125.994 L23.000,124.994 L22.000,124.994 L22.000,123.993 L21.000,123.993 L21.000,122.993 L20.000,122.993 L20.000,121.993 L19.000,121.993 L19.000,120.993 L18.000,120.993 L18.000,119.992 L17.000,119.992 L17.000,118.992 L18.000,118.992 L18.000,117.992 L19.000,117.992 L19.000,116.992 L20.000,116.992 L20.000,115.991 L21.000,115.991 L21.000,114.991 L22.000,114.991 L22.000,113.991 L23.000,113.991 L23.000,112.990 L24.000,112.990 L24.000,111.990 L25.000,111.990 L25.000,110.990 L26.000,110.990 L26.000,109.990 L27.000,109.990 L27.000,108.989 L28.000,108.989 L28.000,107.989 L29.000,107.989 L29.995,108.984 L30.000,108.984 L30.000,109.984 L29.000,109.984 L29.000,108.989 L29.000,108.989 L29.000,109.990 L29.000,110.990 L28.000,110.990 L28.000,111.990 L27.000,111.990 L27.000,112.990 L26.000,112.990 L26.000,113.991 L25.000,113.991 L25.000,114.991 L24.000,114.991 L24.000,115.991 L23.000,115.991 L23.000,116.992 L22.000,116.992 L22.000,117.992 L21.000,117.992 L21.000,118.992 L20.000,118.992 L20.000,119.992 L21.000,119.992 L21.000,120.993 L22.000,120.993 L22.000,121.993 L23.000,121.993 L23.000,122.993 L24.000,122.993 L24.000,123.993 L25.000,123.993 L25.000,124.994 L26.000,124.994 L26.000,125.994 L27.000,125.994 L27.000,126.994 L28.000,126.994 L28.000,127.994 L29.000,127.994 L29.000,128.995 L29.000,129.995 L29.000,129.995 L29.000,129.000 L30.000,129.000 Z" class="cls-3"/>
  </g>
  <g>
    <path d="M110.286,102.761 L89.744,90.998 L89.231,90.704 C87.552,89.743 85.466,89.743 83.787,90.704 L83.274,90.998 L62.732,102.761 C61.053,103.722 60.010,105.514 60.010,107.437 L60.010,116.130 L60.010,122.547 L60.010,131.551 C60.010,133.474 61.053,135.266 62.732,136.227 L83.274,147.990 L83.787,148.284 C84.627,148.765 85.568,149.005 86.509,149.005 C87.450,149.005 88.391,148.765 89.231,148.284 L89.744,147.990 L110.286,136.227 C111.965,135.266 113.008,133.474 113.008,131.551 L113.008,122.547 L113.008,116.130 L113.008,107.437 C113.008,105.514 111.965,103.723 110.286,102.761 Z" class="cls-6"/>
    <path d="M95.000,119.992 L95.000,120.993 L94.000,120.993 L94.000,121.993 L93.000,121.993 L93.000,122.993 L92.000,122.993 L92.000,123.993 L91.000,123.993 L91.000,124.994 L90.000,124.994 L90.000,125.994 L89.000,125.994 L89.000,126.994 L88.000,126.994 L88.000,127.994 L87.000,127.994 L87.000,128.995 L86.000,128.995 L86.000,129.995 L85.000,129.995 L85.000,130.995 L84.000,130.995 L83.005,130.000 L83.000,130.000 L83.000,129.995 L83.000,129.995 L83.000,129.995 L83.000,129.000 L84.000,129.000 L84.000,128.995 L84.000,127.994 L85.000,127.994 L85.000,126.994 L86.000,126.994 L86.000,125.994 L87.000,125.994 L87.000,124.994 L88.000,124.994 L88.000,123.993 L89.000,123.993 L89.000,122.993 L90.000,122.993 L90.000,121.993 L91.000,121.993 L91.000,120.993 L92.000,120.993 L92.000,119.992 L93.000,119.992 L93.000,118.992 L92.000,118.992 L92.000,117.992 L91.000,117.992 L91.000,116.992 L90.000,116.992 L90.000,115.991 L89.000,115.991 L89.000,114.991 L88.000,114.991 L88.000,113.991 L87.000,113.991 L87.000,112.990 L86.000,112.990 L86.000,111.990 L85.000,111.990 L85.000,110.990 L84.000,110.990 L84.000,109.990 L84.000,109.984 L83.000,109.984 L83.000,108.989 L83.000,108.989 L83.000,108.989 L83.000,108.984 L83.005,108.984 L84.000,107.989 L85.000,107.989 L85.000,108.989 L86.000,108.989 L86.000,109.990 L87.000,109.990 L87.000,110.990 L88.000,110.990 L88.000,111.990 L89.000,111.990 L89.000,112.990 L90.000,112.990 L90.000,113.991 L91.000,113.991 L91.000,114.991 L92.000,114.991 L92.000,115.991 L93.000,115.991 L93.000,116.992 L94.000,116.992 L94.000,117.992 L95.000,117.992 L95.000,118.992 L96.000,118.992 L96.000,119.992 L95.000,119.992 Z" class="cls-3"/>
  </g>
  <circle cx="141.5" cy="16.5" r="16.5" class="cls-8"/>
  <path d="M138.594,22.437 L138.000,22.437 L138.000,21.875 L138.594,21.875 L138.594,22.437 ZM138.000,10.562 L138.594,10.562 L138.594,11.125 L138.000,11.125 L138.000,10.562 ZM145.381,16.783 L145.381,17.349 L144.765,17.349 L144.765,17.915 L144.150,17.915 L144.150,18.481 L143.534,18.481 L143.534,19.047 L142.918,19.047 L142.918,19.613 L142.302,19.613 L142.302,20.179 L141.686,20.179 L141.686,20.745 L141.071,20.745 L141.071,21.311 L140.455,21.311 L140.455,21.877 L139.839,21.877 L139.839,22.443 L139.223,22.443 L139.223,23.009 L138.607,23.009 L137.992,22.443 L138.607,22.443 L138.607,21.877 L138.607,21.311 L139.223,21.311 L139.223,20.745 L139.839,20.745 L139.839,20.179 L140.455,20.179 L140.455,19.613 L141.071,19.613 L141.071,19.047 L141.686,19.047 L141.686,18.481 L142.302,18.481 L142.302,17.915 L142.918,17.915 L142.918,17.349 L143.534,17.349 L143.534,16.783 L144.150,16.783 L144.150,16.217 L143.534,16.217 L143.534,15.651 L142.918,15.651 L142.918,15.085 L142.302,15.085 L142.302,14.519 L141.686,14.519 L141.686,13.953 L141.071,13.953 L141.071,13.387 L140.455,13.387 L140.455,12.821 L139.839,12.821 L139.839,12.255 L139.223,12.255 L139.223,11.689 L138.607,11.689 L138.607,11.123 L138.607,10.557 L137.992,10.557 L138.607,9.991 L139.223,9.991 L139.223,10.557 L139.839,10.557 L139.839,11.123 L140.455,11.123 L140.455,11.689 L141.071,11.689 L141.071,12.255 L141.686,12.255 L141.686,12.821 L142.302,12.821 L142.302,13.387 L142.918,13.387 L142.918,13.953 L143.534,13.953 L143.534,14.519 L144.150,14.519 L144.150,15.085 L144.765,15.085 L144.765,15.651 L145.381,15.651 L145.381,16.217 L145.997,16.217 L145.997,16.783 L145.381,16.783 Z" class="cls-3"/>
  <circle cx="176.5" cy="16.5" r="16.5" class="cls-8"/>
  <path d="M179.406,10.562 L180.000,10.562 L180.000,11.125 L179.406,11.125 L179.406,10.562 ZM180.000,22.437 L179.406,22.437 L179.406,21.875 L180.000,21.875 L180.000,22.437 ZM179.393,11.123 L179.393,11.689 L178.777,11.689 L178.777,12.255 L178.161,12.255 L178.161,12.821 L177.545,12.821 L177.545,13.387 L176.929,13.387 L176.929,13.953 L176.314,13.953 L176.314,14.519 L175.698,14.519 L175.698,15.085 L175.082,15.085 L175.082,15.651 L174.466,15.651 L174.466,16.217 L173.850,16.217 L173.850,16.783 L174.466,16.783 L174.466,17.349 L175.082,17.349 L175.082,17.915 L175.698,17.915 L175.698,18.481 L176.314,18.481 L176.314,19.047 L176.929,19.047 L176.929,19.613 L177.545,19.613 L177.545,20.179 L178.161,20.179 L178.161,20.745 L178.777,20.745 L178.777,21.311 L179.393,21.311 L179.393,21.877 L179.393,22.443 L180.008,22.443 L179.393,23.009 L178.777,23.009 L178.777,22.443 L178.161,22.443 L178.161,21.877 L177.545,21.877 L177.545,21.311 L176.929,21.311 L176.929,20.745 L176.314,20.745 L176.314,20.179 L175.698,20.179 L175.698,19.613 L175.082,19.613 L175.082,19.047 L174.466,19.047 L174.466,18.481 L173.850,18.481 L173.850,17.915 L173.235,17.915 L173.235,17.349 L172.619,17.349 L172.619,16.783 L172.003,16.783 L172.003,16.217 L172.619,16.217 L172.619,15.651 L173.235,15.651 L173.235,15.085 L173.850,15.085 L173.850,14.519 L174.466,14.519 L174.466,13.953 L175.082,13.953 L175.082,13.387 L175.698,13.387 L175.698,12.821 L176.314,12.821 L176.314,12.255 L176.929,12.255 L176.929,11.689 L177.545,11.689 L177.545,11.123 L178.161,11.123 L178.161,10.557 L178.777,10.557 L178.777,9.991 L179.393,9.991 L180.008,10.557 L179.393,10.557 L179.393,11.123 Z" class="cls-3"/>
  <g>
    <path d="M123.033,35.199 L124.601,39.784 C124.640,39.898 124.754,39.975 124.882,39.975 L129.954,39.975 C130.241,39.975 130.361,40.319 130.128,40.477 L126.025,43.567 C125.921,43.641 125.878,43.772 125.918,43.891 L127.485,48.615 C127.574,48.882 127.261,49.105 127.029,48.939 L122.926,46.020 C122.822,45.946 122.681,45.946 122.577,46.020 L118.474,48.939 C118.242,49.105 117.929,48.882 118.018,48.615 L119.585,43.891 C119.625,43.772 119.582,43.641 119.478,43.567 L115.374,40.477 C115.142,40.319 115.262,39.975 115.549,39.975 L120.621,39.975 C120.749,39.975 120.863,39.898 120.902,39.784 L122.470,35.199 C122.558,34.932 122.945,34.932 123.033,35.199 Z" class="cls-9"/>
    <path d="M138.533,35.199 L140.101,39.784 C140.140,39.898 140.254,39.975 140.382,39.975 L145.454,39.975 C145.741,39.975 145.861,40.319 145.629,40.477 L141.525,43.567 C141.421,43.641 141.378,43.772 141.418,43.891 L142.985,48.615 C143.074,48.882 142.761,49.105 142.529,48.939 L138.426,46.020 C138.322,45.946 138.181,45.946 138.077,46.020 L133.974,48.939 C133.742,49.105 133.429,48.882 133.518,48.615 L135.085,43.891 C135.125,43.772 135.082,43.641 134.978,43.567 L130.874,40.477 C130.642,40.319 130.762,39.975 131.049,39.975 L136.121,39.975 C136.249,39.975 136.363,39.898 136.402,39.784 L137.970,35.199 C138.058,34.932 138.445,34.932 138.533,35.199 Z" class="cls-9"/>
    <path d="M153.533,35.199 L155.101,39.784 C155.140,39.898 155.254,39.975 155.382,39.975 L160.454,39.975 C160.741,39.975 160.861,40.319 160.629,40.477 L156.525,43.567 C156.421,43.641 156.378,43.772 156.418,43.891 L157.985,48.615 C158.074,48.882 157.761,49.105 157.529,48.939 L153.426,46.020 C153.322,45.946 153.181,45.946 153.077,46.020 L148.974,48.939 C148.742,49.105 148.429,48.882 148.518,48.615 L150.085,43.891 C150.125,43.772 150.082,43.641 149.978,43.567 L145.874,40.477 C145.642,40.319 145.762,39.975 146.049,39.975 L151.121,39.975 C151.249,39.975 151.363,39.898 151.402,39.784 L152.970,35.199 C153.058,34.932 153.445,34.932 153.533,35.199 Z" class="cls-9"/>
    <path d="M168.533,35.199 L170.101,39.784 C170.140,39.898 170.254,39.975 170.382,39.975 L175.454,39.975 C175.741,39.975 175.861,40.319 175.629,40.477 L171.525,43.567 C171.421,43.641 171.378,43.772 171.418,43.891 L172.985,48.615 C173.074,48.882 172.761,49.105 172.529,48.939 L168.426,46.020 C168.322,45.946 168.181,45.946 168.077,46.020 L163.974,48.939 C163.742,49.105 163.429,48.882 163.518,48.615 L165.085,43.891 C165.125,43.772 165.082,43.641 164.978,43.567 L160.874,40.477 C160.642,40.319 160.762,39.975 161.049,39.975 L166.121,39.975 C166.249,39.975 166.363,39.898 166.402,39.784 L167.970,35.199 C168.058,34.932 168.445,34.932 168.533,35.199 Z" class="cls-9"/>
    <path d="M184.033,35.199 L185.601,39.784 C185.640,39.898 185.754,39.975 185.882,39.975 L190.954,39.975 C191.241,39.975 191.361,40.319 191.129,40.477 L187.025,43.567 C186.921,43.641 186.878,43.772 186.918,43.891 L188.485,48.615 C188.574,48.882 188.261,49.105 188.029,48.939 L183.926,46.020 C183.822,45.946 183.681,45.946 183.577,46.020 L179.474,48.939 C179.242,49.105 178.929,48.882 179.018,48.615 L180.585,43.891 C180.625,43.772 180.582,43.641 180.478,43.567 L176.374,40.477 C176.142,40.319 176.262,39.975 176.549,39.975 L181.621,39.975 C181.749,39.975 181.863,39.898 181.902,39.784 L183.470,35.199 C183.558,34.932 183.945,34.932 184.033,35.199 Z" class="cls-9"/>
  </g>
  <g class="cls-10">
    <path d="M123.033,50.199 L124.601,54.784 C124.640,54.898 124.754,54.975 124.882,54.975 L129.954,54.975 C130.241,54.975 130.361,55.319 130.128,55.477 L126.025,58.567 C125.921,58.641 125.878,58.772 125.918,58.891 L127.485,63.615 C127.574,63.882 127.261,64.105 127.029,63.939 L122.926,61.020 C122.822,60.946 122.681,60.946 122.577,61.020 L118.474,63.939 C118.242,64.105 117.929,63.882 118.018,63.615 L119.585,58.891 C119.625,58.772 119.582,58.641 119.478,58.567 L115.374,55.477 C115.142,55.319 115.262,54.975 115.549,54.975 L120.621,54.975 C120.749,54.975 120.863,54.898 120.902,54.784 L122.470,50.199 C122.558,49.932 122.945,49.932 123.033,50.199 Z" class="cls-9"/>
    <path d="M138.533,50.199 L140.101,54.784 C140.140,54.898 140.254,54.975 140.382,54.975 L145.454,54.975 C145.741,54.975 145.861,55.319 145.629,55.477 L141.525,58.567 C141.421,58.641 141.378,58.772 141.418,58.891 L142.985,63.615 C143.074,63.882 142.761,64.105 142.529,63.939 L138.426,61.020 C138.322,60.946 138.181,60.946 138.077,61.020 L133.974,63.939 C133.742,64.105 133.429,63.882 133.518,63.615 L135.085,58.891 C135.125,58.772 135.082,58.641 134.978,58.567 L130.874,55.477 C130.642,55.319 130.762,54.975 131.049,54.975 L136.121,54.975 C136.249,54.975 136.363,54.898 136.402,54.784 L137.970,50.199 C138.058,49.932 138.445,49.932 138.533,50.199 Z" class="cls-9"/>
    <path d="M153.533,50.199 L155.101,54.784 C155.140,54.898 155.254,54.975 155.382,54.975 L160.454,54.975 C160.741,54.975 160.861,55.319 160.629,55.477 L156.525,58.567 C156.421,58.641 156.378,58.772 156.418,58.891 L157.985,63.615 C158.074,63.882 157.761,64.105 157.529,63.939 L153.426,61.020 C153.322,60.946 153.181,60.946 153.077,61.020 L148.974,63.939 C148.742,64.105 148.429,63.882 148.518,63.615 L150.085,58.891 C150.125,58.772 150.082,58.641 149.978,58.567 L145.874,55.477 C145.642,55.319 145.762,54.975 146.049,54.975 L151.121,54.975 C151.249,54.975 151.363,54.898 151.402,54.784 L152.970,50.199 C153.058,49.932 153.445,49.932 153.533,50.199 Z" class="cls-9"/>
    <path d="M168.533,50.199 L170.101,54.784 C170.140,54.898 170.254,54.975 170.382,54.975 L175.454,54.975 C175.741,54.975 175.861,55.319 175.629,55.477 L171.525,58.567 C171.421,58.641 171.378,58.772 171.418,58.891 L172.985,63.615 C173.074,63.882 172.761,64.105 172.529,63.939 L168.426,61.020 C168.322,60.946 168.181,60.946 168.077,61.020 L163.974,63.939 C163.742,64.105 163.429,63.882 163.518,63.615 L165.085,58.891 C165.125,58.772 165.082,58.641 164.978,58.567 L160.874,55.477 C160.642,55.319 160.762,54.975 161.049,54.975 L166.121,54.975 C166.249,54.975 166.363,54.898 166.402,54.784 L167.970,50.199 C168.058,49.932 168.445,49.932 168.533,50.199 Z" class="cls-9"/>
    <path d="M184.033,50.199 L185.601,54.784 C185.640,54.898 185.754,54.975 185.882,54.975 L190.954,54.975 C191.241,54.975 191.361,55.319 191.129,55.477 L187.025,58.567 C186.921,58.641 186.878,58.772 186.918,58.891 L188.485,63.615 C188.574,63.882 188.261,64.105 188.029,63.939 L183.926,61.020 C183.822,60.946 183.681,60.946 183.577,61.020 L179.474,63.939 C179.242,64.105 178.929,63.882 179.018,63.615 L180.585,58.891 C180.625,58.772 180.582,58.641 180.478,58.567 L176.374,55.477 C176.142,55.319 176.262,54.975 176.549,54.975 L181.621,54.975 C181.749,54.975 181.863,54.898 181.902,54.784 L183.470,50.199 C183.558,49.932 183.945,49.932 184.033,50.199 Z" class="cls-9"/>
  </g>
  <g class="cls-10">
    <path d="M11.889,150.388 L14.246,157.199 C14.306,157.369 14.477,157.484 14.670,157.484 L22.300,157.484 C22.732,157.484 22.912,157.995 22.562,158.229 L16.390,162.819 C16.233,162.929 16.168,163.124 16.228,163.301 L18.585,170.318 C18.719,170.716 18.249,171.046 17.899,170.800 L11.727,166.464 C11.570,166.353 11.359,166.353 11.203,166.464 L5.030,170.800 C4.680,171.046 4.210,170.716 4.344,170.318 L6.702,163.301 C6.761,163.124 6.696,162.929 6.540,162.819 L0.367,158.229 C0.018,157.995 0.197,157.484 0.629,157.484 L8.259,157.484 C8.452,157.484 8.623,157.369 8.683,157.199 L11.041,150.388 C11.174,149.991 11.755,149.991 11.889,150.388 Z" class="cls-9"/>
    <path d="M34.463,150.388 L36.821,157.199 C36.880,157.369 37.052,157.484 37.245,157.484 L44.875,157.484 C45.306,157.484 45.486,157.995 45.137,158.229 L38.964,162.819 C38.808,162.929 38.742,163.124 38.802,163.301 L41.160,170.318 C41.293,170.716 40.823,171.046 40.474,170.800 L34.301,166.464 C34.145,166.353 33.933,166.353 33.777,166.464 L27.604,170.800 C27.255,171.046 26.785,170.716 26.918,170.318 L29.276,163.301 C29.336,163.124 29.270,162.929 29.114,162.819 L22.941,158.229 C22.592,157.995 22.771,157.484 23.203,157.484 L30.833,157.484 C31.026,157.484 31.197,157.369 31.257,157.199 L33.615,150.388 C33.748,149.991 34.329,149.991 34.463,150.388 Z" class="cls-9"/>
    <path d="M57.037,150.388 L59.395,157.199 C59.455,157.369 59.626,157.484 59.819,157.484 L67.449,157.484 C67.881,157.484 68.060,157.995 67.711,158.229 L61.538,162.819 C61.382,162.929 61.316,163.124 61.376,163.301 L63.734,170.318 C63.867,170.716 63.397,171.046 63.048,170.800 L56.875,166.464 C56.719,166.353 56.507,166.353 56.351,166.464 L50.178,170.800 C49.829,171.046 49.359,170.716 49.492,170.318 L51.850,163.301 C51.910,163.124 51.844,162.929 51.688,162.819 L45.515,158.229 C45.166,157.995 45.346,157.484 45.777,157.484 L53.407,157.484 C53.601,157.484 53.772,157.369 53.831,157.199 L56.189,150.388 C56.323,149.991 56.904,149.991 57.037,150.388 Z" class="cls-9"/>
    <path d="M79.611,150.388 L81.969,157.199 C82.029,157.369 82.200,157.484 82.393,157.484 L90.023,157.484 C90.455,157.484 90.634,157.995 90.285,158.229 L84.112,162.819 C83.956,162.929 83.891,163.124 83.950,163.301 L86.308,170.318 C86.442,170.716 85.971,171.046 85.622,170.800 L79.449,166.464 C79.293,166.353 79.082,166.353 78.925,166.464 L72.752,170.800 C72.403,171.046 71.933,170.716 72.067,170.318 L74.424,163.301 C74.484,163.124 74.419,162.929 74.262,162.819 L68.090,158.229 C67.740,157.995 67.920,157.484 68.352,157.484 L75.982,157.484 C76.175,157.484 76.346,157.369 76.406,157.199 L78.763,150.388 C78.897,149.991 79.478,149.991 79.611,150.388 Z" class="cls-9"/>
    <path d="M102.111,150.388 L104.469,157.199 C104.529,157.369 104.700,157.484 104.893,157.484 L112.523,157.484 C112.955,157.484 113.134,157.995 112.785,158.229 L106.612,162.819 C106.456,162.929 106.391,163.124 106.450,163.301 L108.808,170.318 C108.942,170.716 108.471,171.046 108.122,170.800 L101.949,166.464 C101.793,166.353 101.582,166.353 101.425,166.464 L95.252,170.800 C94.903,171.046 94.433,170.716 94.567,170.318 L96.924,163.301 C96.984,163.124 96.919,162.929 96.762,162.819 L90.590,158.229 C90.240,157.995 90.420,157.484 90.852,157.484 L98.482,157.484 C98.675,157.484 98.846,157.369 98.906,157.199 L101.263,150.388 C101.397,149.991 101.978,149.991 102.111,150.388 Z" class="cls-9"/>
  </g>
  <g>
    <path d="M11.889,175.388 L14.246,182.199 C14.306,182.369 14.477,182.484 14.670,182.484 L22.300,182.484 C22.732,182.484 22.912,182.995 22.562,183.229 L16.390,187.819 C16.233,187.929 16.168,188.124 16.228,188.301 L18.585,195.318 C18.719,195.716 18.249,196.046 17.899,195.800 L11.727,191.464 C11.570,191.353 11.359,191.353 11.203,191.464 L5.030,195.800 C4.680,196.046 4.210,195.716 4.344,195.318 L6.702,188.301 C6.761,188.124 6.696,187.929 6.540,187.819 L0.367,183.229 C0.018,182.995 0.197,182.484 0.629,182.484 L8.259,182.484 C8.452,182.484 8.623,182.369 8.683,182.199 L11.041,175.388 C11.174,174.991 11.755,174.991 11.889,175.388 Z" class="cls-9"/>
    <path d="M34.463,175.388 L36.821,182.199 C36.880,182.369 37.052,182.484 37.245,182.484 L44.875,182.484 C45.306,182.484 45.486,182.995 45.137,183.229 L38.964,187.819 C38.808,187.929 38.742,188.124 38.802,188.301 L41.160,195.318 C41.293,195.716 40.823,196.046 40.474,195.800 L34.301,191.464 C34.145,191.353 33.933,191.353 33.777,191.464 L27.604,195.800 C27.255,196.046 26.785,195.716 26.918,195.318 L29.276,188.301 C29.336,188.124 29.270,187.929 29.114,187.819 L22.941,183.229 C22.592,182.995 22.771,182.484 23.203,182.484 L30.833,182.484 C31.026,182.484 31.197,182.369 31.257,182.199 L33.615,175.388 C33.748,174.991 34.329,174.991 34.463,175.388 Z" class="cls-9"/>
    <path d="M57.037,175.388 L59.395,182.199 C59.455,182.369 59.626,182.484 59.819,182.484 L67.449,182.484 C67.881,182.484 68.060,182.995 67.711,183.229 L61.538,187.819 C61.382,187.929 61.316,188.124 61.376,188.301 L63.734,195.318 C63.867,195.716 63.397,196.046 63.048,195.800 L56.875,191.464 C56.719,191.353 56.507,191.353 56.351,191.464 L50.178,195.800 C49.829,196.046 49.359,195.716 49.492,195.318 L51.850,188.301 C51.910,188.124 51.844,187.929 51.688,187.819 L45.515,183.229 C45.166,182.995 45.346,182.484 45.777,182.484 L53.407,182.484 C53.601,182.484 53.772,182.369 53.831,182.199 L56.189,175.388 C56.323,174.991 56.904,174.991 57.037,175.388 Z" class="cls-9"/>
    <path d="M79.611,175.388 L81.969,182.199 C82.029,182.369 82.200,182.484 82.393,182.484 L90.023,182.484 C90.455,182.484 90.634,182.995 90.285,183.229 L84.112,187.819 C83.956,187.929 83.891,188.124 83.950,188.301 L86.308,195.318 C86.442,195.716 85.971,196.046 85.622,195.800 L79.449,191.464 C79.293,191.353 79.082,191.353 78.925,191.464 L72.752,195.800 C72.403,196.046 71.933,195.716 72.067,195.318 L74.424,188.301 C74.484,188.124 74.419,187.929 74.262,187.819 L68.090,183.229 C67.740,182.995 67.920,182.484 68.352,182.484 L75.982,182.484 C76.175,182.484 76.346,182.369 76.406,182.199 L78.763,175.388 C78.897,174.991 79.478,174.991 79.611,175.388 Z" class="cls-9"/>
    <path d="M102.111,175.388 L104.469,182.199 C104.529,182.369 104.700,182.484 104.893,182.484 L112.523,182.484 C112.955,182.484 113.134,182.995 112.785,183.229 L106.612,187.819 C106.456,187.929 106.391,188.124 106.450,188.301 L108.808,195.318 C108.942,195.716 108.471,196.046 108.122,195.800 L101.949,191.464 C101.793,191.353 101.582,191.353 101.425,191.464 L95.252,195.800 C94.903,196.046 94.433,195.716 94.567,195.318 L96.924,188.301 C96.984,188.124 96.919,187.929 96.762,187.819 L90.590,183.229 C90.240,182.995 90.420,182.484 90.852,182.484 L98.482,182.484 C98.675,182.484 98.846,182.369 98.906,182.199 L101.263,175.388 C101.397,174.991 101.978,174.991 102.111,175.388 Z" class="cls-9"/>
  </g>
</svg>
