<svg xmlns="http://www.w3.org/2000/svg" xmlns:xlink="http://www.w3.org/1999/xlink" viewBox="0 0 100 100">
  <defs>
    <style>
      .cls-1 {
        clip-path: url(#clip-path);
      }

      .cls-2, .cls-3 {
        fill: #fff;
      }

      .cls-2 {
        fill-rule: evenodd;
      }

      .cls-4 {
        opacity: 0.4;
      }
    </style>
    <clipPath id="clip-path">
      <rect id="Rectangle_1" data-name="Rectangle 1" width="100" height="100"/>
    </clipPath>
  </defs>
  <g id="Unknown" class="cls-1">
    <path id="Logo" class="cls-2" d="M223.616,89.795a1.928,1.928,0,0,0-1.666-.8H210.468l.221,3.594H211.7c-.787,2.607-1.9,6.063-2.638,8.522L208.256,89h-5.31L195.5,100.43h-5.383l.95-2.415h4.677l.919-3.02h-4.677l.629-2.375h6.455L200.238,89h-22.29a3.828,3.828,0,0,0-3.847,2.813l-2.914,9.383a1.913,1.913,0,0,0,2.087,2.824H183.1L186.069,95H179.22L178.2,98.03h2.726l-.935,2.376h-4.381l2.534-7.786h10.2l-3.552,11.4H198.3l1.7-3.011h4.985l.192,3.011h7.04l1.712-5.4h2.415l.849,5.4h3.922L220,98.173a2.631,2.631,0,0,0,2.221-1.779l1.5-4.569a2.333,2.333,0,0,0-.109-2.032ZM201.628,98l2.843-4.324.47,4.324Zm17.335-2.965h-4.037l.64-2.438h4.084Z" transform="translate(-131 -88.995)"/>
    <path id="ic_profile" class="cls-2" d="M1302.99,31.4c0-2.793,4.54-4.361,6.46-4.361h1.09c1.92,0,6.46,1.568,6.46,4.361V32h-14Zm7.15-6.358h-.29a3.351,3.351,0,0,1-2.86-3.011l.01-1.141a2.864,2.864,0,0,1,2.85-2.877h.29a2.861,2.861,0,0,1,2.87,2.846l-.02,1.17a3.352,3.352,0,0,1-2.85,3.01ZM1316,33h-12a1,1,0,0,1-1-1h14A1,1,0,0,1,1316,33Z" transform="translate(-1302.99 -18.013)"/>
    <path id="ic_shop" class="cls-2" d="M1262,28.432l.01,5.594,1.73-1.05h4.48l1.78,1.06v-5.6a8.316,8.316,0,0,0,2.01.512L1272,35a1,1,0,0,1-1,1h-10a1,1,0,0,1-1-1h.01l-.02-6.057a8.291,8.291,0,0,0,2.01-.511Zm4-2.733a2.187,2.187,0,0,1-2.01,1.312,2.164,2.164,0,0,1-1.98-1.351,2.094,2.094,0,0,1-1.92,1.351,2.157,2.157,0,0,1-2.09-2.234.255.255,0,0,1,.02-.087l2.17-3.589a.161.161,0,0,1,.15-.1l11.34-.031a.172.172,0,0,1,.15.1l2.18,3.608a.137.137,0,0,1,.02.088,2.171,2.171,0,0,1-2.1,2.246,2.111,2.111,0,0,1-1.94-1.358,2.178,2.178,0,0,1-1.99,1.358,2.2,2.2,0,0,1-2.03-1.319" transform="translate(-1237.999 -20.97)"/>
    <path id="합치기_1" class="cls-3" d="M-1995,9.193l7.778-7.779,2.829,2.829-7.779,7.778Zm.005,2.822V9.2l2.816,2.817Zm8.772-11.6.707-.707a1,1,0,0,1,1.414,0l1.414,1.414a1,1,0,0,1,0,1.414l-.707.707Z" transform="translate(1994.999 20.585)"/>
    <g id="그룹_1" transform="translate(-1078 8.126)">
      <g id="facebook" class="cls-4" transform="translate(1109.702 11.874) rotate(45)">
        <rect id="Rounded_Rectangle_600" class="cls-3" width="16.549" height="16.549" rx="8.274"/>
      </g>
      <path id="check" class="cls-2" d="M322.176,250.169l-4.008,4.678a.726.726,0,0,1-1,0l-1.983-1.981a.689.689,0,1,1,.974-.974l1.477,1.477,3.569-4.163a.682.682,0,0,1,.967.963Z" transform="translate(790.931 -228.388)"/>
    </g>
  </g>
</svg>
