<svg xmlns="http://www.w3.org/2000/svg" xmlns:xlink="http://www.w3.org/1999/xlink" preserveAspectRatio="xMidYMid" width="200" height="200" viewBox="0 0 200 200">
  <defs>
    <style>
      .cls-1 {
        fill: #1a1b1c;
      }

      .cls-2, .cls-3, .cls-4 {
        fill: #fff;
      }

      .cls-2, .cls-5 {
        fill-rule: evenodd;
      }

      .cls-3 {
        fill-opacity: 0.3;
      }

      .cls-4 {
        fill-opacity: 0.4;
      }

      .cls-5 {
        fill: #737a81;
      }
    </style>
  </defs>
  <circle cx="25" cy="25" r="25" class="cls-1"/>
  <path d="M28.687,17.690 L21.394,24.989 L28.687,32.287 C29.077,32.678 29.077,33.310 28.687,33.700 C28.297,34.090 27.665,34.090 27.275,33.700 L19.277,25.695 C18.887,25.305 18.887,24.673 19.277,24.282 L27.275,16.277 C27.665,15.887 28.297,15.887 28.687,16.277 C29.077,16.667 29.077,17.300 28.687,17.690 Z" class="cls-2"/>
  <circle cx="85" cy="25" r="25" class="cls-1"/>
  <path d="M81.313,17.690 L88.606,24.989 L81.313,32.287 C80.923,32.678 80.923,33.310 81.313,33.700 C81.703,34.090 82.335,34.090 82.725,33.700 L90.723,25.695 C91.113,25.305 91.113,24.673 90.723,24.282 L82.725,16.277 C82.335,15.887 81.703,15.887 81.313,16.277 C80.923,16.667 80.923,17.300 81.313,17.690 Z" class="cls-2"/>
  <circle cx="25" cy="85" r="25" class="cls-3"/>
  <path d="M28.687,77.690 L21.394,84.989 L28.687,92.287 C29.077,92.678 29.077,93.310 28.687,93.700 C28.297,94.090 27.665,94.090 27.275,93.700 L19.277,85.695 C18.887,85.305 18.887,84.673 19.277,84.282 L27.275,76.277 C27.665,75.887 28.297,75.887 28.687,76.277 C29.077,76.667 29.077,77.300 28.687,77.690 Z" class="cls-2"/>
  <circle cx="85" cy="85" r="25" class="cls-3"/>
  <path d="M81.313,77.690 L88.606,84.989 L81.313,92.287 C80.923,92.678 80.923,93.310 81.313,93.700 C81.703,94.090 82.335,94.090 82.725,93.700 L90.723,85.695 C91.113,85.305 91.113,84.673 90.723,84.282 L82.725,76.277 C82.335,75.887 81.703,75.887 81.313,76.277 C80.923,76.667 80.923,77.300 81.313,77.690 Z" class="cls-2"/>
  <circle cx="25" cy="145" r="25" class="cls-4"/>
  <path d="M28.687,137.690 L21.394,144.989 L28.687,152.287 C29.077,152.678 29.077,153.310 28.687,153.700 C28.297,154.090 27.665,154.090 27.275,153.700 L19.277,145.695 C18.887,145.305 18.887,144.673 19.277,144.282 L27.275,136.277 C27.665,135.887 28.297,135.887 28.687,136.277 C29.077,136.667 29.077,137.300 28.687,137.690 Z" class="cls-2"/>
  <circle cx="85" cy="145" r="25" class="cls-4"/>
  <path d="M81.313,137.690 L88.606,144.989 L81.313,152.287 C80.923,152.678 80.923,153.310 81.313,153.700 C81.703,154.090 82.335,154.090 82.725,153.700 L90.723,145.695 C91.113,145.305 91.113,144.673 90.723,144.282 L82.725,136.277 C82.335,135.887 81.703,135.887 81.313,136.277 C80.923,136.667 80.923,137.300 81.313,137.690 Z" class="cls-2"/>
  <path d="M120.081,9.027 L122.029,9.027 L125.051,4.681 L125.051,4.478 L122.029,0.131 L120.081,0.131 L122.738,4.580 L120.081,9.027 Z" class="cls-2"/>
  <path d="M134.562,22.469 L123.622,32.999 L134.562,43.529 C135.146,44.092 135.146,45.005 134.562,45.567 C133.977,46.131 133.029,46.131 132.444,45.567 L120.446,34.019 C119.862,33.456 119.862,32.543 120.446,31.980 L132.444,20.431 C133.029,19.869 133.977,19.869 134.562,20.431 C135.146,20.994 135.146,21.906 134.562,22.469 Z" class="cls-5"/>
  <path d="M140.470,22.441 L151.409,32.984 L140.470,43.526 C139.885,44.090 139.885,45.003 140.470,45.567 C141.054,46.131 142.002,46.131 142.587,45.567 L154.585,34.004 C155.170,33.440 155.170,32.527 154.585,31.964 L142.587,20.400 C142.002,19.837 141.054,19.837 140.470,20.400 C139.885,20.964 139.885,21.877 140.470,22.441 Z" class="cls-5"/>
  <path d="M131.141,0.205 L136.007,5.310 L140.873,0.205 C141.133,-0.068 141.554,-0.068 141.814,0.205 C142.075,0.477 142.075,0.920 141.814,1.193 L136.478,6.792 C136.218,7.065 135.796,7.065 135.536,6.792 L130.199,1.193 C129.939,0.920 129.939,0.477 130.199,0.205 C130.459,-0.068 130.881,-0.068 131.141,0.205 Z" class="cls-5"/>
</svg>
