<?xml version="1.0" encoding="utf-8"?>
<svg xmlns="http://www.w3.org/2000/svg" xmlns:xlink="http://www.w3.org/1999/xlink">
	<style>:root>svg{display:none}:root>svg:target{display:block}</style>
	<svg xmlns="http://www.w3.org/2000/svg" id="heart-grey" width="20.031" height="19.062" viewBox="0 0 20.031 19.062">
		<defs><style>.acls-1 {fill: #1c1e27;fill-rule: evenodd;}</style></defs>
		<path id="_" data-name="#" class="acls-1" d="M5.441,3.461A3.762,3.762,0,0,1,8.681,5.4L9.969,7.8l1.34-2.37a3.785,3.785,0,0,1,3.268-1.964c2.041,0,3.684,1.818,3.908,4.343a4.576,4.576,0,0,1-.139,1.665,7.771,7.771,0,0,1-2.309,3.977L9.995,19,3.983,13.445a7.828,7.828,0,0,1-2.34-4.017,4.523,4.523,0,0,1-.124-1.645c0.222-2.5,1.871-4.318,3.921-4.322m0.007-1.5C2.6,1.961.318,4.354,0.025,7.65A6,6,0,0,0,.193,9.813a9.319,9.319,0,0,0,2.777,4.738l7.023,6.488,7.059-6.488a9.282,9.282,0,0,0,2.754-4.738,6.017,6.017,0,0,0,.171-2.161c-0.293-3.3-2.551-5.69-5.4-5.69A5.3,5.3,0,0,0,10,4.688,5.246,5.246,0,0,0,5.448,1.961h0Z" transform="translate(0 -1.969)"/>
	</svg>
	<svg xmlns="http://www.w3.org/2000/svg" id="heart-red" width="20.031" height="19.062" viewBox="0 0 20.031 19.062">
		<defs><style>.bcls-1 {fill: #d62222;fill-rule: evenodd;}</style></defs>
		<path id="_" data-name="#" class="bcls-1" d="M5.448,1.961C2.6,1.961.318,4.354,0.025,7.65A6,6,0,0,0,.193,9.813a9.319,9.319,0,0,0,2.777,4.738l7.023,6.488,7.059-6.488a9.282,9.282,0,0,0,2.754-4.738,6.017,6.017,0,0,0,.171-2.161c-0.293-3.3-2.551-5.69-5.4-5.69A5.3,5.3,0,0,0,10,4.688,5.246,5.246,0,0,0,5.448,1.961h0Z" transform="translate(0 -1.969)"/>
	</svg>
	<svg xmlns="http://www.w3.org/2000/svg" id="share" width="21" height="21.031" viewBox="0 0 21 21.031">
		<defs><style>.ccls-1 {fill: #1c1e27;fill-rule: evenodd;}</style></defs>
		<path id="_" data-name="#" class="ccls-1" d="M307.824,1.155A0.61,0.61,0,0,0,307.181,1L287.4,8.838a0.613,0.613,0,0,0-.388.534,0.642,0.642,0,0,0,.327.589l7.353,4.262,4.459,7.441a0.656,0.656,0,0,0,.552.323h0.037a0.608,0.608,0,0,0,.529-0.389L307.98,1.8A0.6,0.6,0,0,0,307.824,1.155Zm-3.137,2.179-9.606,9.509-5.767-3.348ZM299.6,19.69l-3.519-5.864,9.61-9.6Z" transform="translate(-287 -0.969)"/>
	</svg>
	<svg xmlns="http://www.w3.org/2000/svg" id="list-added" width="20" height="20" viewBox="0 0 20 20">
		<defs><style>.dcls-1 {fill: #a6a7aa;fill-rule: evenodd;}</style></defs>
		<path class="dcls-1" d="M267,22a10,10,0,1,1,10-10A10,10,0,0,1,267,22Zm0-18.16A8.16,8.16,0,1,0,275.16,12,8.16,8.16,0,0,0,267,3.84ZM271,11h-1v1h-1v1h-1v1h-1v1h-1v1h-1V15h-1V14h-1V13h-1V12h1V11h1v1h1v1h1V12h1V11h1V10h1V9h1V8h1l1,1v1h-1v1Z" transform="translate(-257 -2)"/>
	</svg>
	<svg xmlns="http://www.w3.org/2000/svg" id="list" width="20" height="20" viewBox="0 0 20 20">
		<defs><style>.ecls-1 {fill: #1d1f28;fill-rule: evenodd;}</style></defs>
		<path id="Rounded_Rectangle_2" data-name="Rounded Rectangle 2" class="ecls-1" d="M267,22a10,10,0,1,1,10-10A10,10,0,0,1,267,22Zm0-18.16A8.16,8.16,0,1,0,275.16,12,8.16,8.16,0,0,0,267,3.84ZM270,13h-2v2a1,1,0,0,1-2,0V13h-2a1,1,0,0,1,0-2h2V9a1,1,0,0,1,2,0v2h2A1,1,0,0,1,270,13Z" transform="translate(-257 -2)"/>
	</svg>
	<svg xmlns="http://www.w3.org/2000/svg" id="share-fb" xmlns:xlink="http://www.w3.org/1999/xlink" width="31" height="34" viewBox="0 0 31 34">
		<defs>
			<style>.fcls-1 {fill: #151618;fill-rule: evenodd;filter: url(#filter);}</style>
			<filter id="filter" x="444" y="704" width="31" height="34" filterUnits="userSpaceOnUse"><feFlood result="flood" flood-color="#626262" flood-opacity="0.15"/><feComposite result="composite" operator="in" in2="SourceGraphic"/><feBlend result="blend" mode="color" in2="SourceGraphic"/></filter>
		</defs>
		<path id="fb" class="fcls-1" d="M473.406,711.357l-12.015-6.778-0.3-.169a3.256,3.256,0,0,0-3.183,0l-0.3.169-12.015,6.778A3.108,3.108,0,0,0,444,714.051v13.895a3.107,3.107,0,0,0,1.592,2.694l12.015,6.778,0.3,0.17a3.259,3.259,0,0,0,3.183,0l0.3-.17,12.015-6.778A3.107,3.107,0,0,0,475,727.946V714.051A3.108,3.108,0,0,0,473.406,711.357ZM460.993,729v-6.969h2.57L464,718.989h-3v-1.372c0-.977.26-1.6,1.662-1.6h1.357V713c0.01,0.01-.511-0.011-1.941-0.011-2.578,0-4.06,1.121-4.06,4.011v1.992h-3v3.043h3V729h2.981Z" transform="translate(-444 -704)"/>
	</svg>
	<svg xmlns="http://www.w3.org/2000/svg" id="share-tw" xmlns:xlink="http://www.w3.org/1999/xlink" width="31" height="34" viewBox="0 0 31 34">
		<defs>
			<style>.gcls-1 {fill: #151618;fill-rule: evenodd;filter: url(#filter);}</style>
			<filter id="filter" x="487" y="704" width="31" height="34" filterUnits="userSpaceOnUse"><feFlood result="flood" flood-color="#626262" flood-opacity="0.15"/><feComposite result="composite" operator="in" in2="SourceGraphic"/><feBlend result="blend" mode="color" in2="SourceGraphic"/></filter>
		</defs>
		<path id="twitter" class="gcls-1" d="M516.406,711.357l-12.015-6.778-0.3-.169a3.256,3.256,0,0,0-3.183,0l-0.3.169-12.015,6.778A3.108,3.108,0,0,0,487,714.051v13.895a3.107,3.107,0,0,0,1.592,2.694l12.015,6.778,0.3,0.17a3.259,3.259,0,0,0,3.183,0l0.3-.17,12.015-6.778A3.107,3.107,0,0,0,518,727.946V714.051A3.108,3.108,0,0,0,516.406,711.357Zm-5.4,5.219a6.046,6.046,0,0,1-1.84.441,3.367,3.367,0,0,0,1.475-1.855,6.709,6.709,0,0,1-2.131.813,3.459,3.459,0,0,0-2.525-.975,3.181,3.181,0,0,0-3.362,3.135c0,0.263.01,0.2,0.008,0.456a8.331,8.331,0,0,1-6.537-3.061,3.356,3.356,0,0,0,1.039,4.477,3.353,3.353,0,0,1-1.52-.42c0,0.014,0,.028,0,0.043a3.249,3.249,0,0,0,2.693,3.188,3.352,3.352,0,0,1-1.516.057,3.153,3.153,0,0,0,2.987,2.3,8.291,8.291,0,0,1-5.767,1.344A12.266,12.266,0,0,0,499.912,728a9.121,9.121,0,0,0,9.367-9.292c0-.145,0-0.34-0.01-0.484A6.686,6.686,0,0,0,511,716.576Z" transform="translate(-487 -704)"/>
	</svg>
	<svg xmlns="http://www.w3.org/2000/svg" id="share-link" width="31" height="34" viewBox="0 0 31 34">
		<defs><style>.hcls-1 {fill: #151618;fill-rule: evenodd;}</style></defs>
		<path id="_" data-name="#" class="hcls-1" d="M557.406,711.357l-12.015-6.778-0.3-.169a3.256,3.256,0,0,0-3.183,0l-0.3.169-12.015,6.778A3.108,3.108,0,0,0,528,714.051v13.895a3.107,3.107,0,0,0,1.592,2.694l12.015,6.778,0.3,0.17a3.259,3.259,0,0,0,3.183,0l0.3-.17,12.015-6.778A3.107,3.107,0,0,0,559,727.946V714.051A3.108,3.108,0,0,0,557.406,711.357Zm-8.267,7.891-1.76,1.76a3.052,3.052,0,0,1-2.027.881v-0.544l0.351-.351h0.825v-0.825l0.351-.351H547.7v-0.825l0.658-.658a1.89,1.89,0,0,0-.036-2.672,1.935,1.935,0,0,0-2.71,0l-0.627.627h-0.813V717.1l-0.363.363H543v0.813l-0.363.363H542.1a3.05,3.05,0,0,1,.882-2.033l1.759-1.759A3.11,3.11,0,0,1,549.139,719.248Zm-8.884,4.484a0.6,0.6,0,0,1,.037-0.872l4.541-4.541a0.592,0.592,0,1,1,.835.834l-4.541,4.542A0.6,0.6,0,0,1,540.255,723.732Zm-0.783-2.738v0.813l-0.364.364H538.3v0.812l-0.7.7a1.89,1.89,0,0,0,.037,2.672,1.934,1.934,0,0,0,2.709,0L541,725.7h0.825v-0.825l0.351-.351H543V723.7l0.351-.35h0.511a3.051,3.051,0,0,1-.881,2.059l-1.76,1.759a3.11,3.11,0,1,1-4.4-4.4l1.759-1.759a3.053,3.053,0,0,1,2.066-.882v0.5l-0.364.363h-0.812Z" transform="translate(-528 -704)"/>
	</svg>
</svg>