<?xml version="1.0" encoding="utf-8"?>
<svg xmlns="http://www.w3.org/2000/svg" xmlns:xlink="http://www.w3.org/1999/xlink">
	<style>:root>svg{display:none}:root>svg:target{display:block}</style>
	<svg xmlns="http://www.w3.org/2000/svg" id="play" viewBox="0 0 28 28">
		<defs><style>.acls-1 {fill: #1c1e27;stroke: #fff;stroke-width: 2px;opacity: 0.7;}.cls-2 {fill: #fff;fill-rule: evenodd;}</style></defs>
		<circle class="acls-1" cx="14" cy="14" r="13"/><path class="cls-2" d="M1128.01,1167.01L1134,1172l-5.99,4.99" transform="translate(-1116 -1158)"/>
	</svg>
	<svg xmlns="http://www.w3.org/2000/svg" id="slideshow-left_arrow" viewBox="0 0 33 33">
		<defs><style>.bcls-1 {fill: #151618;}.bcls-2 {fill: #fff;fill-rule: evenodd;}</style></defs>
		<circle class="bcls-1" cx="16.5" cy="16.5" r="16.5"/>
		<path class="bcls-2" d="M173.777,915.745h-0.616v-0.566h-0.616v-0.566h-0.616v-0.566h-0.615v-0.566H170.7v-0.566h-0.616v-0.566h-0.616v-0.566H168.85v-0.566h0.616v-0.566h0.616v-0.566H170.7v-0.566h0.616v-0.566h0.615v-0.566h0.616v-0.566h0.616v-0.566h0.616v-0.566h0.616v-1.7h-0.616v0.566h-0.616v0.566h-0.616v0.566h-0.616v0.566h-0.615v0.566H170.7v0.566h-0.616v0.566h-0.616v0.566H168.85v0.566h-0.615v0.566h-0.616v0.566H167v0.566h0.616v0.566h0.616v0.566h0.615v0.566h0.616v0.566h0.616v0.566H170.7v0.566h0.616v0.566h0.615v0.566h0.616v0.566h0.616v0.566h0.616v0.566h0.616v-1.7h-0.616v-0.566Zm0.629,1.13H175v0.563h-0.594v-0.563Zm0.6,0.568h-0.615v0.566m0-13.018v0.566h0.615m-0.6,0H175v0.563h-0.594v-0.563Z" transform="translate(-155 -895)"/>
	</svg>
	<svg xmlns="http://www.w3.org/2000/svg" id="slideshow-right_arrow" viewBox="0 0 33 33">
		<defs><style>.ccls-1 {fill: #151618;}.ccls-2 {fill: #fff;fill-rule: evenodd;}</style></defs>
		<circle class="ccls-1" cx="16.5" cy="16.5" r="16.5"/>
		<path class="ccls-2" d="M767.223,907.255h0.616v0.566h0.616v0.566h0.616v0.566h0.615v0.566H770.3v0.566h0.616v0.566h0.616v0.566h0.616v0.566h-0.616v0.566h-0.616v0.566H770.3v0.566h-0.616v0.566h-0.615v0.566h-0.616v0.566h-0.616v0.566h-0.616v0.566h-0.616v1.7h0.616v-0.566h0.616v-0.566h0.616v-0.566h0.616v-0.566h0.615v-0.566H770.3v-0.566h0.616v-0.566h0.616v-0.566h0.616v-0.566h0.615v-0.566h0.616v-0.566H774v-0.566h-0.616v-0.566h-0.616v-0.566H772.15v-0.566h-0.616v-0.566h-0.616v-0.566H770.3v-0.566h-0.616v-0.566h-0.615v-0.566h-0.616v-0.566h-0.616v-0.566h-0.616v-0.566h-0.616v1.7h0.616v0.566ZM766,905.567h0.606v0.566H766v-0.566Zm-0.008-.01h0.615v-0.566m0,13.018v-0.566h-0.615m0.008-.576h0.606v0.566H766v-0.566Z" transform="translate(-753 -895)"/>
	</svg>
	<svg xmlns="http://www.w3.org/2000/svg" id="review-small" viewBox="0 0 15 14">
		<defs><style>.dcls-1 {fill: #7aad29;fill-rule: evenodd;}</style></defs>
		<path data-name="#" class="dcls-1" d="M7.783,0.2L9.351,4.784a0.3,0.3,0,0,0,.282.191H14.7a0.275,0.275,0,0,1,.174.5l-4.1,3.09a0.287,0.287,0,0,0-.108.325l1.3,4.723a0.282,0.282,0,0,1-.43.324L7.676,11.02a0.3,0.3,0,0,0-.348,0L3.469,13.939a0.282,0.282,0,0,1-.43-0.324l1.3-4.723a0.287,0.287,0,0,0-.108-0.325l-4.1-3.09A0.275,0.275,0,0,1,.3,4.975H5.371a0.3,0.3,0,0,0,.282-0.191L7.22,0.2A0.3,0.3,0,0,1,7.783.2Z"/>
	</svg>
	<svg xmlns="http://www.w3.org/2000/svg" id="reviews" viewBox="0 0 24 22">
		<defs><style>.ecls-1 {fill: #7aad29;fill-rule: evenodd;}</style></defs>
		<path data-name="#" class="ecls-1" d="M12.419,1.2L14.71,7.723A0.431,0.431,0,0,0,15.122,8h7.413a0.4,0.4,0,0,1,.255.724l-6,4.46a0.412,0.412,0,0,0-.157.469l2.291,6.817a0.43,0.43,0,0,1-.666.469l-6-4.213a0.444,0.444,0,0,0-.509,0L5.709,20.937a0.43,0.43,0,0,1-.666-0.469L7.38,13.651a0.412,0.412,0,0,0-.157-0.469L1.179,8.723A0.4,0.4,0,0,1,1.433,8h7.46A0.431,0.431,0,0,0,9.3,7.723L11.6,1.2A0.438,0.438,0,0,1,12.419,1.2Z"/>
	</svg>
	<svg xmlns="http://www.w3.org/2000/svg" id="reviews-empty" viewBox="0 0 144 160">
		<defs><style>.fcls-1 {fill: #ebebeb;fill-rule: evenodd;}.fcls-2 {fill: #fbfbfb;fill-rule: evenodd;}</style></defs>
		<path data-name="#" class="fcls-1" d="M135.664,124.565L110.248,139.1h-0.036l-5.619,3.213h0.037L80.242,156.256l-1.384.792a14.856,14.856,0,0,1-14.686,0l-1.385-.792L39.209,142.777h0l-5.64-3.225h0l-26.2-14.984h0l-0.013-.007A14.565,14.565,0,0,1,0,111.961V46.992a14.561,14.561,0,0,1,7.343-12.6L32.764,19.858H32.8l5.619-3.213H38.382L62.769,2.7l1.385-.792a14.853,14.853,0,0,1,14.685,0L80.224,2.7,103.8,16.183h0l5.639,3.225h0l26.2,14.984h0l0.013,0.007A14.562,14.562,0,0,1,143,47v64.969A14.563,14.563,0,0,1,135.664,124.565Z"/>
		<path data-name="#" class="fcls-2" d="M103,76.013v29.641a0.973,0.973,0,0,1-.25.652c-7.4,8.137-17.22,12.647-30.2,12.647a38.352,38.352,0,0,1-27.671-11.419c-7.458-7.317-10.9-16.552-10.9-27.706S37.491,59.366,45.09,51.905A37.633,37.633,0,0,1,72.6,40.947,40.3,40.3,0,0,1,99.949,50.8a0.961,0.961,0,0,1,.157,1.268L92.515,63.092a0.946,0.946,0,0,1-1.393.179,31.565,31.565,0,0,0-8.462-5.394,24.8,24.8,0,0,0-9.151-1.793,21.969,21.969,0,0,0-16.056,6.635q-6.531,6.511-6.53,17.162t6.262,17.055a20.163,20.163,0,0,0,14.932,6.4c5.538,0,10.535-1.02,14.3-3.061a0.952,0.952,0,0,0,.49-0.84v-8.59a0.948,0.948,0,0,0-.945-0.951H73.445a0.952,0.952,0,0,1-.78-1.491L78.59,76.42a0.948,0.948,0,0,1,.78-0.413h23.623v0.006h0Z"/>
	</svg>
	<svg  xmlns="http://www.w3.org/2000/svg" id="review_check" viewBox="0 0 16 16">
		<defs><style>.gcls-1 {fill: #7d7e83;}.gcls-2 {fill: #fff;fill-rule: evenodd;}</style></defs>
		<circle class="gcls-1" cx="8" cy="8" r="8"/>
		<path class="gcls-2" d="M933,612h1v2h-1v-2Zm1,1h1v2h-1v-2Zm1,1h1v2h-1v-2Zm1-1h1v2h-1v-2Zm1-1h1v2h-1v-2Zm1-1h1v2h-1v-2Zm1-1h1v2h-1v-2Zm1-1h1v2h-1v-2Z" transform="translate(-929 -604)"/>
	</svg>
	<svg xmlns="http://www.w3.org/2000/svg" id="review-file" viewBox="0 0 34 26">
		<defs><style>.hcls-1 {fill: white;}</style></defs>
		<path data-name="%23" class="hcls-1" d="M19.844%2C12.984L29.759%2C22.9a1%2C1%2C0%2C0%2C1%2C0%2C1.414l-1.414%2C1.414a1%2C1%2C0%2C0%2C1-1.414%2C0l-9.915-9.915L7.1%2C25.728a1%2C1%2C0%2C0%2C1-1.414%2C0L4.272%2C24.314a1%2C1%2C0%2C0%2C1%2C0-1.414l9.915-9.915L4.3%2C3.1a1%2C1%2C0%2C0%2C1%2C0-1.414L5.718%2C0.272a1%2C1%2C0%2C0%2C1%2C1.414%2C0l9.884%2C9.884L26.9%2C0.272a1%2C1%2C0%2C0%2C1%2C1.414%2C0l1.414%2C1.414a1%2C1%2C0%2C0%2C1%2C0%2C1.414Z"/>
	</svg>
	<svg xmlns="http://www.w3.org/2000/svg" id="gear_review_logo" viewBox="0 0 64 64">
		<defs><style>.jcls-1 {fill: #151618;fill-rule: evenodd;}</style></defs>
		<path class="jcls-1" d="M465,253h58a3,3,0,0,1,3,3v58a3,3,0,0,1-3,3H465a3,3,0,0,1-3-3V256A3,3,0,0,1,465,253Zm23.879,17h-0.535A6.519,6.519,0,0,0,482,276.65v17.707a6.492,6.492,0,0,0,6.344,6.616h11.271a6.3,6.3,0,0,0,5.429-3.2,6.791,6.791,0,0,0,.948-3.474v-12.32h-9.657L493.252,289h5.736v4.985H488.973v-17H506V270H488.879Z" transform="translate(-462 -253)"/>
	</svg>
	<svg id="recommend-left-disabled" xmlns="http://www.w3.org/2000/svg" viewBox="0 0 53 59">
		<defs><style>.icls-1 {fill: #151618;opacity: 0.1;fill-rule: evenodd;}.icls-2 {fill: #fff;opacity: 0.5;fill-rule: evenodd;}</style></defs>
		<path d="M2.714,12.773 L23.256,1.013 L23.769,0.720 C25.448,-0.242 27.534,-0.242 29.213,0.720 L29.726,1.013 L50.268,12.773 C51.947,13.734 52.990,15.526 52.990,17.448 L52.990,26.139 L52.990,32.554 L52.990,41.556 C52.990,43.478 51.947,45.269 50.268,46.230 L29.726,57.991 L29.213,58.284 C28.373,58.765 27.432,59.005 26.491,59.005 C25.550,59.005 24.609,58.765 23.769,58.284 L23.256,57.991 L2.714,46.231 C1.035,45.269 -0.008,43.478 -0.008,41.556 L-0.008,32.554 L-0.008,26.139 L-0.008,17.448 C-0.008,15.526 1.035,13.734 2.714,12.773 Z" class="icls-1"/>
		<path d="M21.000,30.000 L21.000,31.000 L22.000,31.000 L22.000,32.000 L23.000,32.000 L23.000,33.000 L24.000,33.000 L24.000,34.000 L25.000,34.000 L25.000,35.000 L26.000,35.000 L26.000,36.000 L27.000,36.000 L27.000,37.000 L28.000,37.000 L28.000,38.000 L29.000,38.000 L29.000,39.000 L30.000,39.000 L30.000,40.000 L29.000,41.000 L28.000,41.000 L28.000,40.000 L27.000,40.000 L27.000,39.000 L26.000,39.000 L26.000,38.000 L25.000,38.000 L25.000,37.000 L24.000,37.000 L24.000,36.000 L23.000,36.000 L23.000,35.000 L22.000,35.000 L22.000,34.000 L21.000,34.000 L21.000,33.000 L20.000,33.000 L20.000,32.000 L19.000,32.000 L19.000,31.000 L18.000,31.000 L18.000,30.000 L17.000,30.000 L17.000,29.000 L18.000,29.000 L18.000,28.000 L19.000,28.000 L19.000,27.000 L20.000,27.000 L20.000,26.000 L21.000,26.000 L21.000,25.000 L22.000,25.000 L22.000,24.000 L23.000,24.000 L23.000,23.000 L24.000,23.000 L24.000,22.000 L25.000,22.000 L25.000,21.000 L26.000,21.000 L26.000,20.000 L27.000,20.000 L27.000,19.000 L28.000,19.000 L28.000,18.000 L29.000,18.000 L30.000,19.000 L30.000,20.000 L29.000,20.000 L29.000,21.000 L28.000,21.000 L28.000,22.000 L27.000,22.000 L27.000,23.000 L26.000,23.000 L26.000,24.000 L25.000,24.000 L25.000,25.000 L24.000,25.000 L24.000,26.000 L23.000,26.000 L23.000,27.000 L22.000,27.000 L22.000,28.000 L21.000,28.000 L21.000,29.000 L20.000,29.000 L20.000,30.000 L21.000,30.000 Z" class="icls-2"/>
	</svg>
	<svg id="recommend-left" xmlns="http://www.w3.org/2000/svg" viewBox="0 0 53 59">
		<defs><style>.kcls-1 {fill: #151618;opacity: 0.85;fill-rule: evenodd;}.kcls-2 {fill: #fff;opacity: 0.5;fill-rule: evenodd;}</style></defs>
		<path d="M2.714,12.773 L23.256,1.013 L23.769,0.720 C25.448,-0.242 27.534,-0.242 29.213,0.720 L29.726,1.013 L50.268,12.773 C51.947,13.734 52.990,15.526 52.990,17.448 L52.990,26.139 L52.990,32.554 L52.990,41.556 C52.990,43.478 51.947,45.269 50.268,46.230 L29.726,57.991 L29.213,58.284 C28.373,58.765 27.432,59.005 26.491,59.005 C25.550,59.005 24.609,58.765 23.769,58.284 L23.256,57.991 L2.714,46.231 C1.035,45.269 -0.008,43.478 -0.008,41.556 L-0.008,32.554 L-0.008,26.139 L-0.008,17.448 C-0.008,15.526 1.035,13.734 2.714,12.773 Z" class="kcls-1"/>
		<path d="M21.000,30.000 L21.000,31.000 L22.000,31.000 L22.000,32.000 L23.000,32.000 L23.000,33.000 L24.000,33.000 L24.000,34.000 L25.000,34.000 L25.000,35.000 L26.000,35.000 L26.000,36.000 L27.000,36.000 L27.000,37.000 L28.000,37.000 L28.000,38.000 L29.000,38.000 L29.000,39.000 L30.000,39.000 L30.000,40.000 L29.000,41.000 L28.000,41.000 L28.000,40.000 L27.000,40.000 L27.000,39.000 L26.000,39.000 L26.000,38.000 L25.000,38.000 L25.000,37.000 L24.000,37.000 L24.000,36.000 L23.000,36.000 L23.000,35.000 L22.000,35.000 L22.000,34.000 L21.000,34.000 L21.000,33.000 L20.000,33.000 L20.000,32.000 L19.000,32.000 L19.000,31.000 L18.000,31.000 L18.000,30.000 L17.000,30.000 L17.000,29.000 L18.000,29.000 L18.000,28.000 L19.000,28.000 L19.000,27.000 L20.000,27.000 L20.000,26.000 L21.000,26.000 L21.000,25.000 L22.000,25.000 L22.000,24.000 L23.000,24.000 L23.000,23.000 L24.000,23.000 L24.000,22.000 L25.000,22.000 L25.000,21.000 L26.000,21.000 L26.000,20.000 L27.000,20.000 L27.000,19.000 L28.000,19.000 L28.000,18.000 L29.000,18.000 L30.000,19.000 L30.000,20.000 L29.000,20.000 L29.000,21.000 L28.000,21.000 L28.000,22.000 L27.000,22.000 L27.000,23.000 L26.000,23.000 L26.000,24.000 L25.000,24.000 L25.000,25.000 L24.000,25.000 L24.000,26.000 L23.000,26.000 L23.000,27.000 L22.000,27.000 L22.000,28.000 L21.000,28.000 L21.000,29.000 L20.000,29.000 L20.000,30.000 L21.000,30.000 Z" class="kcls-2"/>
	</svg>
	<svg id="mask" xmlns="http://www.w3.org/2000/svg" viewBox="0 0 143 159">
		<defs><style>.lcls-1 {fill: #151618;fill-rule: evenodd;}</style></defs>
		<path id="_" data-name="#" class="lcls-1" d="M274.677,661.423L219.252,629.73l-1.384-.791a14.852,14.852,0,0,0-14.687,0l-1.385.791-55.424,31.693a14.561,14.561,0,0,0-7.344,12.6v64.97a14.561,14.561,0,0,0,7.344,12.6L201.8,783.28l1.385,0.792a14.855,14.855,0,0,0,14.687,0l1.384-.792,55.425-31.693a14.562,14.562,0,0,0,7.343-12.6V674.021A14.564,14.564,0,0,0,274.677,661.423Z" transform="translate(-139.031 -627)"/>
	</svg>
	<svg id="color-shadow" xmlns="http://www.w3.org/2000/svg" viewBox="0 0 27 29">
		<defs><style>.mcls-1 {fill: red;stroke: #000;stroke-linejoin: round;stroke-opacity: 0.05;stroke-width: 2px;fill-opacity: 0;fill-rule: evenodd;}</style></defs>
		<path d="M25.617,6.279 L15.152,0.498 L14.891,0.354 C14.036,-0.119 12.973,-0.119 12.118,0.354 L11.857,0.498 L1.392,6.279 C0.537,6.751 0.005,7.631 0.005,8.576 L0.005,12.848 L0.005,16.001 L0.005,20.426 C0.005,21.371 0.537,22.251 1.392,22.723 L11.857,28.504 L12.118,28.648 C12.546,28.884 13.025,29.003 13.505,29.003 C13.984,29.003 14.464,28.884 14.891,28.648 L15.152,28.504 L25.617,22.724 C26.473,22.251 27.004,21.371 27.004,20.426 L27.004,16.001 L27.004,12.848 L27.004,8.576 C27.004,7.631 26.473,6.751 25.617,6.279 Z" class="mcls-1"/>
	</svg>
	<svg xmlns="http://www.w3.org/2000/svg" id="product-zoom" viewBox="0 0 18 18">
<defs><style>.ncls-1 {fill: #25282f;fill-rule: evenodd;}</style></defs>
<path id="_" data-name="#" class="ncls-1" d="M572.678,417.678a1.045,1.045,0,0,1-1.478,0l-4.227-4.227a7.388,7.388,0,0,1-4.477,1.535,7.6,7.6,0,1,1,5.953-3.015l4.229,4.229A1.045,1.045,0,0,1,572.678,417.678ZM562.47,401.992A5.5,5.5,0,1,0,568,407.517,5.471,5.471,0,0,0,562.47,401.992Z" transform="translate(-555 -400)"/>
</svg>

</svg>