<svg xmlns="http://www.w3.org/2000/svg" xmlns:xlink="http://www.w3.org/1999/xlink" preserveAspectRatio="xMidYMid" width="200" height="200" viewBox="0 0 200 200">
  <defs>
    <style>
      .cls-1 {
        fill: #fff;
        filter: url(#drop-shadow-1);
        fill-rule: evenodd;
      }
    </style>

    <filter id="drop-shadow-1" filterUnits="userSpaceOnUse">
      <feOffset dy="1" in="SourceAlpha"/>
      <feGaussianBlur stdDeviation="1.732" result="dropBlur"/>
      <feFlood flood-color="#2f333b" flood-opacity="0.15"/>
      <feComposite operator="in" in2="dropBlur" result="dropShadowComp"/>
      <feComposite in="SourceGraphic" result="shadowed"/>
    </filter>
  </defs>
  <path d="M31.092,100.040 L9.213,78.954 L31.092,57.868 C32.261,56.742 32.261,54.915 31.092,53.788 C29.923,52.661 28.027,52.661 26.857,53.788 L2.861,76.914 C1.692,78.040 1.692,79.869 2.861,80.995 L26.857,104.122 C28.027,105.248 29.923,105.248 31.092,104.122 C32.261,102.994 32.261,101.167 31.092,100.040 Z" class="cls-1"/>
  <path d="M2.000,44.000 L2.000,2.000 L44.000,2.000 L44.000,44.000 L2.000,44.000 ZM42.000,4.000 L4.000,4.000 L4.000,42.000 L42.000,42.000 L42.000,4.000 ZM8.000,36.000 L8.000,29.000 L10.000,29.000 L10.000,34.643 L19.641,25.002 L20.995,26.356 L11.351,36.000 L17.000,36.000 L17.000,38.000 L8.000,38.000 L8.000,38.000 L8.000,36.649 L7.997,36.646 L8.000,36.643 L8.000,36.000 ZM29.000,10.000 L29.000,8.000 L36.000,8.000 L38.000,8.000 L38.000,9.351 L38.003,9.354 L38.000,9.357 L38.000,10.000 L38.000,17.000 L36.000,17.000 L36.000,11.357 L26.359,20.998 L25.005,19.644 L34.649,10.000 L29.000,10.000 Z" class="cls-1"/>
  <path d="M74.209,22.478 L90.426,38.717 C91.173,39.465 91.173,40.675 90.426,41.423 C90.053,41.797 89.564,41.984 89.075,41.984 C88.586,41.984 88.097,41.797 87.724,41.423 L71.506,25.185 L55.289,41.423 C54.916,41.797 54.427,41.984 53.938,41.984 C53.449,41.984 52.960,41.797 52.586,41.423 C51.840,40.675 51.840,39.465 52.586,38.717 L68.804,22.478 L52.586,6.240 C51.840,5.493 51.840,4.281 52.586,3.534 C53.333,2.786 54.542,2.786 55.289,3.534 L71.506,19.773 L87.724,3.534 C88.470,2.786 89.679,2.786 90.426,3.534 C91.173,4.281 91.173,5.493 90.426,6.240 L74.209,22.478 Z" class="cls-1"/>
  <path d="M42.908,99.103 L64.787,78.017 L42.908,56.931 C41.739,55.804 41.739,53.977 42.908,52.850 C44.077,51.723 45.973,51.723 47.143,52.850 L71.139,75.976 C72.308,77.103 72.308,78.931 71.139,80.057 L47.143,103.184 C45.973,104.310 44.077,104.310 42.908,103.184 C41.739,102.057 41.739,100.230 42.908,99.103 Z" class="cls-1"/>
</svg>
