<svg xmlns="http://www.w3.org/2000/svg" width="35.281" height="24.858" viewBox="0 0 35.281 24.858">
  <path id="Subtraction_1" data-name="Subtraction 1" d="M-5742.36-1572.142c-.11,0-11.057-.008-13.771-.743a4.46,4.46,0,0,1-3.128-3.147c-.733-2.733-.742-8.481-.742-8.539a47.707,47.707,0,0,1,.721-8.54,4.448,4.448,0,0,1,3.127-3.147c2.735-.733,13.682-.742,13.792-.742s11.057.008,13.772.742a4.461,4.461,0,0,1,3.127,3.147c.733,2.734.742,8.483.742,8.54a47.652,47.652,0,0,1-.722,8.539,4.446,4.446,0,0,1-3.126,3.147C-5731.3-1572.151-5742.25-1572.142-5742.36-1572.142Zm-3.608-17.681v10.5l9.221-5.252-9.221-5.252Z" transform="translate(5760 1597)" fill="#ffffff"/>
</svg>
