<svg xmlns="http://www.w3.org/2000/svg" width="292" height="38" viewBox="0 0 292 38">
  <defs>
    <style>
      .cls-1 {
        fill: #fff;
        fill-rule: evenodd;
      }
    </style>
  </defs>
  <path id="_" data-name="#" class="cls-1" d="M0.015,0.015C7.732,0,15.074.013,22.788,0.01A11.615,11.615,0,0,1,30.074,2.1a9.089,9.089,0,0,1,3.27,6.7c0.13,2.331-.15,5.335-1.525,7.292a6.9,6.9,0,0,1-2.419,2.03,8.329,8.329,0,0,1,4.438,6.667,13.342,13.342,0,0,1-1.969,9.08,9.719,9.719,0,0,1-7.954,4.048c-8.093,0-15.811.011-23.9,0C0.029,25.405.023,12.524,0.015,0.015ZM21.1,31.932a9.947,9.947,0,0,0,4.747-.948,4.683,4.683,0,0,0,2.045-3.476,4.9,4.9,0,0,0-1.12-3.949,5.054,5.054,0,0,0-3.689-1.625c-4.659,0-8.44,0-13.1,0-0.006-1.969.009-4-.008-5.963,4.662-.011,7.659.011,13.034-0.005a5.2,5.2,0,0,0,3.793-1.44,5.09,5.09,0,0,0,1.232-3.393A5,5,0,0,0,26.387,7.3c-1.644-1.249-3.7-1.223-5.662-1.269-5.961-.016-8.737,0-14.7-0.006,0.013,9.115-.054,18-0.048,25.91C11.143,31.935,15.933,31.932,21.1,31.932ZM38.018-.033q16.824-.013,33.645,0C70.467,2.275,69.293,3.686,68.1,6,60.043,6.011,52.06,6.005,44,6c0.006,2.857.008,7.12,0,9.977,6.6,0.006,13.134-.017,19.734.011-1.052,1.949-1.991,4.031-3.061,5.968-5.581-.02-11.089,0-16.67-0.009,0.008,3.055,0,6.952.006,10.007,7.578-.017,14.382-0.011,21.96,0,4.939-9.666,10.3-20.316,15.243-29.977,0.535-1.024,1.445-2.11,2.716-2.051a3.021,3.021,0,0,1,2.834,1.955c5.7,11.038,11.5,21.944,17.239,32.963-0.028-10.39-.008-20.592-0.011-30.98A4.089,4.089,0,0,1,105.346.472a3.01,3.01,0,0,1,2.542-.416,6.187,6.187,0,0,1,2.376,2.076c7.058,8.206,14.662,16.458,21.748,24.641-0.02-8.9-.006-17.79-0.009-26.684,1.915-.014,4.077-0.014,5.99,0,0,11.445,0,22.512,0,33.955-0.029,1.431-.5,3.106-1.907,3.754A3.575,3.575,0,0,1,132.19,36.7C124.875,28.1,117.345,19.8,110,11.222c0.045,8.9-.026,17.8-0.011,26.695-3.8.006-7.342,0.006-11.138,0-1.593-3.1-3.713-6.855-5.305-9.961-5.044.023-9.512,0-14.556,0.012,0.933-1.9,1.892-4.068,2.823-5.969,3.16-.011,5.384,0,8.544-0.006-2.218-4.37-4.186-7.815-6.35-12.213-4.848,9.332-9.3,18.8-14.1,28.157-10.63-.037-21.264,0-31.894-0.02C38.018,25.408,38.01,12.478,38.018-.033ZM252.673,33.153c-2.452,3.077-6.44,4.347-10.224,4.736-0.813.064-1.631,0.11-2.449,0.134-0.818-.024-1.636-0.069-2.449-0.134-3.784-.39-7.772-1.659-10.224-4.736-2.685-3.31-3.22-7.738-3.324-11.852-0.014-7.065.006-14.2-.008-21.264C225.9,0.006,228.173,0,230,.008c0,6.935-.027,15.7.013,22.643,0.019,2.652.588,5.643,2.781,7.387,2.051,1.568,4.673,1.911,7.205,1.974,2.532-.063,5.154-0.406,7.205-1.974,2.193-1.744,2.762-4.735,2.781-7.387C250.026,15.713,250,6.944,250,.008c1.828-.011,4.1,0,6.006.028-0.014,7.065.006,14.2-.008,21.264C255.893,25.415,255.358,29.843,252.673,33.153ZM194.01,37.965c0-12.6.009-25.382-.008-37.979,1.853,0,4.15-.017,6,0.011-0.028,10.387.011,21.6-.017,31.982,7.216-.006,13.99.011,21.209-0.009a13.442,13.442,0,0,0,5.386,5.993Q210.294,37.935,194.01,37.965Zm-7.823-12.947a10.659,10.659,0,0,1-7.7,2.993c-5.332,0-9.164.008-14.494-.006,0,3.5,0,6.447,0,9.949-1.853-.014-4.143.02-5.993-0.02,0-12.582.006-25.352,0-37.931,7.185-.043,13.311-0.006,20.5-0.02a10.734,10.734,0,0,1,8.559,3.782c2.323,2.865,3.038,7.071,2.925,10.677C189.924,18.117,188.871,22.376,186.187,25.018ZM182.9,8.989a6.278,6.278,0,0,0-5.328-3.038c-6.072-.016-7.524,0-13.6-0.006,0.038,5.337-.006,10.671.022,16.005,5.756,0,6.891-.006,12.646,0a7.972,7.972,0,0,0,3.934-.852,6.908,6.908,0,0,0,3.234-4.644A10.532,10.532,0,0,0,182.9,8.989Zm86.789,6.982c4.73,0.02,8.509-.011,13.239.014a8.927,8.927,0,0,1,6.2,2.234,10.134,10.134,0,0,1,2.687,6.206c0.28,3.18.164,6.577-1.5,9.394a8.214,8.214,0,0,1-5.454,3.923,22.4,22.4,0,0,1-4.2.209H253.246c2.419-1.578,4.556-3.32,5.676-5.968,7.906-.011,13.4,0,21.312-0.006a7.6,7.6,0,0,0,3.361-.4c1.431-.634,2.215-2.439,2.356-3.938a5.919,5.919,0,0,0-1.041-4.413,4.246,4.246,0,0,0-3.236-1.321c-4.727-.011-8.03.009-12.757-0.008a8.358,8.358,0,0,1-6.351-2.877c-1.915-2.209-2.65-5.606-2.588-8.477a11.641,11.641,0,0,1,2.8-7.96,8.624,8.624,0,0,1,6.43-2.557c7.239,0.011,13.571-.014,20.81.011-0.029,2.2-.037,3.727.008,5.919-7.338.048-13.267-.011-20.605,0.031a3.468,3.468,0,0,0-3.106,2.379,9.086,9.086,0,0,0,.176,5.627A3.49,3.49,0,0,0,269.69,15.971Z"/>
</svg>
