<svg xmlns="http://www.w3.org/2000/svg" width="170" height="37" viewBox="0 0 170 37">
  <defs>
    <style>
      .cls-1 {
        fill: #726963;
        fill-rule: evenodd;
      }
    </style>
  </defs>
  <path id="Logotype" class="cls-1" d="M87,37H0V0H170V37H87ZM86,2H2V35H86V2ZM9.007,9.008c3.858-.006,7.529,0,11.386,0a5.808,5.808,0,0,1,3.643,1.045A4.544,4.544,0,0,1,25.672,13.4a6.115,6.115,0,0,1-.762,3.646A3.447,3.447,0,0,1,23.7,18.061a4.165,4.165,0,0,1,2.219,3.334,6.671,6.671,0,0,1-.984,4.54,4.86,4.86,0,0,1-3.977,2.024c-4.046,0-7.905.005-11.952,0C9.015,21.7,9.012,15.262,9.007,9.008ZM19.549,24.966a4.973,4.973,0,0,0,2.373-.474,2.341,2.341,0,0,0,1.023-1.738,2.45,2.45,0,0,0-.56-1.974,2.528,2.528,0,0,0-1.844-.813H13.991c0-.984,0-2,0-2.981,2.331-.006,3.83.005,6.517,0a2.6,2.6,0,0,0,1.9-.72,2.545,2.545,0,0,0,.616-1.7,2.5,2.5,0,0,0-.823-1.919,4.625,4.625,0,0,0-2.831-.634c-2.981-.008-4.369,0-7.349,0,0.007,4.557-.027,9-0.024,12.955C14.572,24.968,16.967,24.966,19.549,24.966Zm8.46-15.983q8.412-.006,16.823,0c-0.6,1.156-1.185,1.861-1.782,3.018-4.028.006-8.02,0-12.048,0,0,1.429,0,3.56,0,4.989,3.3,0,6.567-.009,9.867.006-0.526.975-1,2.015-1.53,2.984-2.791-.01-5.545,0-8.335,0,0,1.527,0,3.476,0,5,3.789-.008,7.191-0.006,10.98,0,2.469-4.833,5.148-10.158,7.622-14.988a1.6,1.6,0,0,1,1.358-1.026,1.511,1.511,0,0,1,1.417.977c2.85,5.519,5.751,10.972,8.62,16.481-0.014-5.195,0-10.3-.006-15.49a2.046,2.046,0,0,1,.678-1.7,1.506,1.506,0,0,1,1.271-.208,3.1,3.1,0,0,1,1.188,1.038c3.529,4.1,7.315,8.229,10.858,12.321-0.01-4.448,0-8.9,0-13.342,0.957-.007,2.07-0.007,3.026,0,0,5.723,0,11.256,0,16.977a2.009,2.009,0,0,1-.953,1.877,1.812,1.812,0,0,1-1.962-.546C71.437,23.05,67.673,18.9,64,14.611c0.023,4.45,0,8.9.01,13.347-1.9,0-3.687,0-5.585,0-0.8-1.552-1.856-3.427-2.652-4.98-2.522.011-4.756,0-7.278,0.006,0.467-.95.946-2.034,1.412-2.985,1.58-.006,2.692,0,4.272,0C53.071,17.811,52.087,16.089,51,13.89c-2.424,4.666-4.651,9.4-7.051,14.079-5.315-.018-10.632,0-15.947-0.01C28.009,21.7,28.005,15.239,28.009,8.983ZM141.336,25.577a7.338,7.338,0,0,1-5.112,2.368c-0.406.032-.815,0.055-1.224,0.067q-0.613-.018-1.225-0.067a7.338,7.338,0,0,1-5.111-2.368c-1.343-1.655-1.61-3.869-1.662-5.926-0.007-3.533,0-7.1,0-10.632C127.95,9,129.087,9,130,9c0,3.468-.013,7.852.007,11.322a4.627,4.627,0,0,0,1.391,3.693,7.066,7.066,0,0,0,7.2,0,4.627,4.627,0,0,0,1.391-3.693C140.013,16.856,140,12.472,140,9c0.913-.005,2.05,0,3,0.014-0.007,3.533,0,7.1,0,10.632C142.947,21.707,142.679,23.922,141.336,25.577Zm-29.331,2.406c0-6.3,0-12.691,0-18.989,0.926,0,2.075-.008,3,0.006-0.015,5.194,0,10.8-.009,15.991,3.608,0,7,.005,10.605,0a6.713,6.713,0,0,0,2.693,3Q120.147,27.967,112.005,27.982Zm-3.912-6.473a5.327,5.327,0,0,1-3.848,1.5c-2.666,0-4.582,0-7.247,0,0,1.752,0,3.224,0,4.974-0.926-.007-2.072.01-3-0.01C94,21.676,94,15.291,94,9c3.593-.021,6.655,0,10.248-0.01a5.368,5.368,0,0,1,4.28,1.891,8.263,8.263,0,0,1,1.462,5.339A7.714,7.714,0,0,1,108.093,21.509Zm-1.643-8.014a3.137,3.137,0,0,0-2.664-1.519c-3.036-.008-3.761,0-6.8,0,0.019,2.669,0,5.336.011,8,2.878,0,3.445,0,6.322,0a3.986,3.986,0,0,0,1.967-.426,3.448,3.448,0,0,0,1.617-2.322A5.264,5.264,0,0,0,106.45,13.495Zm43.4,3.491c2.365,0.01,4.255-.006,6.619.007a4.465,4.465,0,0,1,3.1,1.117,5.064,5.064,0,0,1,1.343,3.1,7.8,7.8,0,0,1-.752,4.7,4.107,4.107,0,0,1-2.727,1.962,11.228,11.228,0,0,1-2.1.1H141.623a6.9,6.9,0,0,0,2.838-2.984c3.953-.006,6.7,0,10.656,0a3.8,3.8,0,0,0,1.68-.2,2.409,2.409,0,0,0,1.179-1.969,2.962,2.962,0,0,0-.521-2.206,2.123,2.123,0,0,0-1.618-.661c-2.363-.006-4.015,0-6.378,0a4.178,4.178,0,0,1-3.176-1.438,6.481,6.481,0,0,1-1.294-4.239,5.816,5.816,0,0,1,1.4-3.98,4.311,4.311,0,0,1,3.215-1.279c3.619,0.006,6.785-.007,10.4.006-0.014,1.1-.018,1.864,0,2.96-3.669.024-6.634-.006-10.3,0.015a1.734,1.734,0,0,0-1.553,1.19A4.54,4.54,0,0,0,148.247,16,1.746,1.746,0,0,0,149.845,16.986Z"/>
</svg>
