<svg xmlns="http://www.w3.org/2000/svg" width="170" height="37" viewBox="0 0 170 37">
  <defs>
    <style>
      .cls-1 {
        fill: #221f1f;
      }

      .cls-2 {
        fill: #7c6e65;
      }

      .cls-3 {
        fill: #fff;
        fill-rule: evenodd;
      }
    </style>
  </defs>
  <rect id="_" data-name="#" class="cls-1" x="86" width="84" height="37"/>
  <rect id="_2" data-name="#" class="cls-2" width="86" height="37"/>
  <path id="_3" data-name="#" class="cls-3" d="M141.336,25.576a7.338,7.338,0,0,1-5.112,2.368c-0.406.032-.815,0.055-1.224,0.067q-0.613-.018-1.225-0.067a7.337,7.337,0,0,1-5.111-2.368c-1.343-1.655-1.611-3.869-1.662-5.926C127,16.118,127,12.535,127,9c0.953-.016,2.09,0,3,0,0,3.468-.013,7.852.007,11.321a4.628,4.628,0,0,0,1.391,3.694,7.066,7.066,0,0,0,7.2,0,4.628,4.628,0,0,0,1.391-3.694C140.013,16.856,140,12.472,140,9c0.913-.005,2.05,0,3,0.014-0.007,3.533,0,7.1,0,10.632C142.947,21.707,142.679,23.921,141.336,25.576Zm-29.331,2.406c0-6.3,0-12.691,0-18.989,0.926,0,2.075-.008,3,0.006-0.015,5.193,0,10.8-.009,15.991,3.608,0,7,.006,10.605,0a6.712,6.712,0,0,0,2.693,3Q120.147,27.967,112.005,27.982Zm-3.911-6.473a5.332,5.332,0,0,1-3.849,1.5c-2.666,0-4.582,0-7.247,0,0,1.752,0,3.224,0,4.974-0.926-.007-2.072.01-3-0.01C94,21.676,94,15.291,94,9c3.593-.021,6.655,0,10.248-0.01a5.367,5.367,0,0,1,4.28,1.891,8.263,8.263,0,0,1,1.462,5.339A7.718,7.718,0,0,1,108.094,21.509ZM106.4,13.495a3.138,3.138,0,0,0-2.663-1.519c-3.036-.008-3.7,0-6.736,0,0.019,2.669-.019,5.336,0,8,2.878,0,3.4,0,6.276,0a3.988,3.988,0,0,0,1.967-.426,3.454,3.454,0,0,0,1.617-2.322A5.269,5.269,0,0,0,106.4,13.495Zm43.442,3.491c2.365,0.01,4.255-.006,6.619.007a4.464,4.464,0,0,1,3.1,1.117,5.064,5.064,0,0,1,1.343,3.1,7.8,7.8,0,0,1-.752,4.7,4.106,4.106,0,0,1-2.727,1.962,11.194,11.194,0,0,1-2.1.1H141.623a6.9,6.9,0,0,0,2.838-2.984c3.953-.006,6.7,0,10.656,0a3.794,3.794,0,0,0,1.68-.2,2.409,2.409,0,0,0,1.179-1.969,2.962,2.962,0,0,0-.521-2.206,2.123,2.123,0,0,0-1.618-.66c-2.363-.006-4.015,0-6.378,0a4.177,4.177,0,0,1-3.176-1.438,6.469,6.469,0,0,1-1.278-4.239,5.8,5.8,0,0,1,1.386-3.98,4.31,4.31,0,0,1,3.215-1.279c3.619,0.006,6.785-.007,10.4.006-0.014,1.1-.018,1.864,0,2.96-3.669.024-6.634-.006-10.3,0.015a1.734,1.734,0,0,0-1.553,1.19A4.539,4.539,0,0,0,148.247,16,1.746,1.746,0,0,0,149.845,16.986ZM9.007,9.008c3.858-.005,7.529,0,11.386,0a5.807,5.807,0,0,1,3.643,1.045A4.545,4.545,0,0,1,25.672,13.4a6.116,6.116,0,0,1-.762,3.646A3.447,3.447,0,0,1,23.7,18.061a4.165,4.165,0,0,1,2.219,3.334,6.672,6.672,0,0,1-.984,4.54,4.86,4.86,0,0,1-3.977,2.024c-4.046,0-7.905.006-11.952,0C9.015,21.7,9.012,15.262,9.007,9.008ZM19.549,24.966a4.974,4.974,0,0,0,2.373-.474,2.342,2.342,0,0,0,1.023-1.738,2.45,2.45,0,0,0-.56-1.974,2.526,2.526,0,0,0-1.844-.813H14.007c0-.985,0-2,0-2.982,2.331-.006,3.814.005,6.5,0a2.6,2.6,0,0,0,1.9-.72,2.545,2.545,0,0,0,.616-1.7,2.5,2.5,0,0,0-.823-1.919,4.626,4.626,0,0,0-2.831-.634c-2.981-.008-4.384,0-7.365,0,0.006,4.557,0,9,.007,12.955C14.587,24.967,16.967,24.966,19.549,24.966ZM27.994,8.983c5.608,0,11.23,0,16.838,0-0.6,1.155-1.185,1.861-1.782,3.018-4.028.006-8.02,0-12.048,0,0,1.429,0,3.56,0,4.989,3.3,0,6.567-.008,9.867.006-0.526.974-1,2.015-1.53,2.984-2.791-.01-5.545,0-8.335,0,0,1.527,0,3.476,0,5,3.789-.008,7.191-0.006,10.98,0,2.469-4.833,5.148-10.158,7.622-14.988a1.6,1.6,0,0,1,1.358-1.025,1.511,1.511,0,0,1,1.417.977c2.85,5.519,5.751,10.972,8.62,16.481-0.014-5.195,0-10.3-.006-15.49a2.046,2.046,0,0,1,.678-1.7,1.505,1.505,0,0,1,1.271-.208,3.1,3.1,0,0,1,1.188,1.038c3.529,4.1,7.33,8.229,10.873,12.321C75,17.939,75,13.461,75,9.014c0.958-.007,2.039-0.007,2.995,0,0,5.723,0,11.288,0,17.009a2.009,2.009,0,0,1-.953,1.877,1.788,1.788,0,0,1-1.947-.546C71.437,23.05,67.673,18.9,64,14.611c0.023,4.45-.013,8.9-0.006,13.348-1.9,0-3.671,0-5.569,0-0.8-1.552-1.856-3.427-2.652-4.98-2.522.011-4.756,0-7.278,0.006,0.467-.95.946-2.034,1.412-2.985,1.58-.005,2.692,0,4.272,0C53.071,17.811,52.087,16.089,51,13.89c-2.424,4.666-4.651,9.4-7.051,14.079-5.315-.018-10.632,0-15.947-0.01C28.009,21.7,27.989,15.239,27.994,8.983Z"/>
</svg>
