<svg xmlns="http://www.w3.org/2000/svg" width="26" height="26" viewBox="0 0 26 26">
  <defs>
    <style>
      .cls-1 {
        fill: #726963;
        fill-rule: evenodd;
      }
    </style>
  </defs>
  <path id="Twitter" class="cls-1" d="M24.255,5.239A9.666,9.666,0,0,1,21.477,6,4.854,4.854,0,0,0,23.6,3.325,9.693,9.693,0,0,1,20.531,4.5a4.839,4.839,0,0,0-8.24,4.411A13.732,13.732,0,0,1,2.323,3.857a4.842,4.842,0,0,0,1.5,6.456,4.807,4.807,0,0,1-2.191-.6V9.769a4.841,4.841,0,0,0,3.878,4.742,4.87,4.87,0,0,1-2.184.082,4.845,4.845,0,0,0,4.518,3.36,9.716,9.716,0,0,1-6.006,2.069,10.124,10.124,0,0,1-1.153-.068A13.646,13.646,0,0,0,8.1,22.065a13.615,13.615,0,0,0,13.759-13.7c0-.209,0-0.418-0.015-0.625a9.868,9.868,0,0,0,2.414-2.5h0Z"/>
</svg>
