<svg xmlns="http://www.w3.org/2000/svg" width="26" height="26" viewBox="0 0 26 26">
  <defs>
    <style>
      .cls-1 {
        fill: #726963;
        fill-rule: evenodd;
      }
    </style>
  </defs>
  <path id="Instagram" class="cls-1" d="M22.923,17.811a7.691,7.691,0,0,1-.488,2.546,5.364,5.364,0,0,1-3.067,3.068,7.715,7.715,0,0,1-2.546.487c-1.119.051-1.476,0.063-4.325,0.063s-3.206-.012-4.324-0.063a7.715,7.715,0,0,1-2.546-.487,5.154,5.154,0,0,1-1.857-1.21,5.139,5.139,0,0,1-1.21-1.858,7.7,7.7,0,0,1-.488-2.546c-0.051-1.119-.063-1.476-0.063-4.324s0.013-3.206.063-4.325A7.693,7.693,0,0,1,2.56,6.617,5.128,5.128,0,0,1,3.77,4.759a5.143,5.143,0,0,1,1.857-1.21,7.7,7.7,0,0,1,2.546-.487C9.292,3.01,9.65,3,12.5,3s3.206,0.011,4.325.063a7.7,7.7,0,0,1,2.546.487,5.362,5.362,0,0,1,3.067,3.068,7.683,7.683,0,0,1,.488,2.545c0.051,1.119.063,1.476,0.063,4.325S22.974,16.693,22.923,17.811Zm-1.935-8.54a5.792,5.792,0,0,0-.359-1.937,3.459,3.459,0,0,0-1.98-1.979A5.759,5.759,0,0,0,16.713,5c-1.1-.05-1.429-0.061-4.215-0.061S9.383,4.946,8.282,5a5.757,5.757,0,0,0-1.937.359,3.46,3.46,0,0,0-1.98,1.979,5.8,5.8,0,0,0-.359,1.937c-0.05,1.1-.061,1.43-0.061,4.216S3.958,16.6,4.008,17.7a5.789,5.789,0,0,0,.359,1.937,3.457,3.457,0,0,0,1.98,1.98,5.8,5.8,0,0,0,1.937.359c1.1,0.05,1.43.06,4.215,0.06s3.115-.011,4.215-0.06a5.8,5.8,0,0,0,1.937-.359,3.456,3.456,0,0,0,1.98-1.98,5.784,5.784,0,0,0,.359-1.937c0.05-1.1.061-1.429,0.061-4.214S21.039,10.372,20.988,9.272Zm-2.954,0a1.259,1.259,0,1,1,1.259-1.258A1.258,1.258,0,0,1,18.034,9.271Zm-5.521,9.742A5.511,5.511,0,1,1,18.024,13.5,5.511,5.511,0,0,1,12.513,19.013Zm0-9.088A3.577,3.577,0,1,0,16.091,13.5,3.578,3.578,0,0,0,12.513,9.926Z"/>
</svg>
