<svg xmlns="http://www.w3.org/2000/svg" width="26" height="26" viewBox="0 0 26 26">
  <defs>
    <style>
      .cls-1 {
        fill: #f2f5f7;
        fill-rule: evenodd;
      }
    </style>
  </defs>
  <path id="_" data-name="#" class="cls-1" d="M21.651,23.5a1.5,1.5,0,0,1-1.5,1.5H5.849a1.5,1.5,0,0,1-1.5-1.5L3,8.5A1.5,1.5,0,0,1,4.5,7H8V4.125A4.109,4.109,0,0,1,12,0h2a4.109,4.109,0,0,1,4,4.125V7h3.5A1.5,1.5,0,0,1,23,8.5ZM17,4.125V4a3,3,0,0,0-2.987-3H11.987A3,3,0,0,0,9,4V7h8V4.125ZM21.438,8H4.563a0.5,0.5,0,0,0-.5.467L5.408,23.411l0,0.045V23.5a0.5,0.5,0,0,0,.5.5H20.089a0.5,0.5,0,0,0,.5-0.5V23.455l0-.045L21.937,8.467A0.5,0.5,0,0,0,21.438,8Z"/>
</svg>
