<svg xmlns="http://www.w3.org/2000/svg" width="24" height="24" viewBox="0 0 24 24">
  <defs>
    <style>
      .cls-1 {
        fill: #fff;
        fill-rule: evenodd;
      }
    </style>
  </defs>
  <path id="Twitter" class="cls-1" d="M23.255,4.239A9.67,9.67,0,0,1,20.477,5,4.854,4.854,0,0,0,22.6,2.324,9.686,9.686,0,0,1,19.531,3.5a4.839,4.839,0,0,0-8.24,4.411A13.731,13.731,0,0,1,1.323,2.856a4.842,4.842,0,0,0,1.5,6.456,4.805,4.805,0,0,1-2.191-.6V8.769a4.841,4.841,0,0,0,3.878,4.742,4.864,4.864,0,0,1-2.184.082,4.845,4.845,0,0,0,4.518,3.36A9.715,9.715,0,0,1,.835,19.022a10.079,10.079,0,0,1-1.153-.068A13.647,13.647,0,0,0,7.1,21.065a13.615,13.615,0,0,0,13.759-13.7c0-.209,0-0.418-0.015-0.626a9.866,9.866,0,0,0,2.414-2.5h0Z"/>
</svg>
