<svg xmlns="http://www.w3.org/2000/svg" width="24" height="24" viewBox="0 0 24 24">
  <defs>
    <style>
      .cls-1 {
        fill: #fff;
        fill-rule: evenodd;
      }
    </style>
  </defs>
  <path id="Instagram" class="cls-1" d="M21.923,16.811a7.689,7.689,0,0,1-.488,2.546,5.363,5.363,0,0,1-3.067,3.068,7.71,7.71,0,0,1-2.546.487c-1.119.051-1.476,0.063-4.324,0.063s-3.206-.012-4.325-0.063a7.709,7.709,0,0,1-2.546-.487,5.148,5.148,0,0,1-1.857-1.21,5.137,5.137,0,0,1-1.21-1.857,7.705,7.705,0,0,1-.488-2.546c-0.051-1.119-.063-1.476-0.063-4.324s0.013-3.206.063-4.325A7.7,7.7,0,0,1,1.56,5.617,5.127,5.127,0,0,1,2.77,3.759a5.138,5.138,0,0,1,1.857-1.21,7.7,7.7,0,0,1,2.546-.487C8.292,2.01,8.65,2,11.5,2s3.206,0.012,4.325.063a7.7,7.7,0,0,1,2.546.487,5.363,5.363,0,0,1,3.067,3.068,7.68,7.68,0,0,1,.488,2.545c0.051,1.119.063,1.476,0.063,4.325S21.974,15.693,21.923,16.811Zm-1.935-8.54a5.8,5.8,0,0,0-.359-1.937,3.237,3.237,0,0,0-.781-1.2,3.224,3.224,0,0,0-1.2-.78A5.759,5.759,0,0,0,15.713,4c-1.1-.05-1.429-0.061-4.215-0.061S8.383,3.946,7.282,4a5.759,5.759,0,0,0-1.937.359,3.228,3.228,0,0,0-1.2.78,3.246,3.246,0,0,0-.781,1.2,5.8,5.8,0,0,0-.358,1.937c-0.05,1.1-.061,1.43-0.061,4.215S2.958,15.6,3.007,16.7a5.786,5.786,0,0,0,.358,1.937,3.458,3.458,0,0,0,1.98,1.98,5.794,5.794,0,0,0,1.937.359c1.1,0.05,1.43.061,4.216,0.061s3.115-.011,4.215-0.061a5.8,5.8,0,0,0,1.937-.359,3.457,3.457,0,0,0,1.98-1.98,5.785,5.785,0,0,0,.359-1.937c0.05-1.1.061-1.428,0.061-4.214S20.039,9.372,19.988,8.272Zm-2.954,0a1.259,1.259,0,1,1,1.259-1.258A1.258,1.258,0,0,1,17.034,8.272Zm-5.521,9.742A5.511,5.511,0,1,1,17.024,12.5,5.511,5.511,0,0,1,11.513,18.013Zm0-9.088A3.577,3.577,0,1,0,15.091,12.5,3.578,3.578,0,0,0,11.513,8.926Z"/>
</svg>
