<svg xmlns="http://www.w3.org/2000/svg" width="26" height="26" viewBox="0 0 26 26">
  <defs>
    <style>
      .cls-1 {
        fill: #0f0f10;
        fill-rule: evenodd;
      }
    </style>
  </defs>
  <path id="Account" class="cls-1" d="M22.5,25.009H4.512a1.507,1.507,0,0,1-1.5-1.515L3,22.58c0-4.232,6.8-6.607,9.68-6.607H14.32c2.877,0,9.68,2.375,9.68,6.607v0.913h0A1.507,1.507,0,0,1,22.5,25.009ZM13.719,14.025h-0.43c-1.943,0-4.269-2.5-4.269-4.728L9.034,7.509a4.393,4.393,0,0,1,4.254-4.518h0.43a4.387,4.387,0,0,1,4.3,4.469L17.988,9.3C17.988,11.527,15.652,14.025,13.719,14.025Z"/>
</svg>
