<svg xmlns="http://www.w3.org/2000/svg" width="242" height="34" viewBox="0 0 242 34">
  <defs>
    <style>
      .cls-1 {
        fill: #0f0f10;
        fill-rule: evenodd;
      }
    </style>
  </defs>
  <path id="_" data-name="#" class="cls-1" d="M236.27,7.137l-5.758,12.48L224.83,7.137l-1.674,11.77h-1.928l2.815-17.858,6.494,14.281,6.621-14.306L239.8,18.907h-1.928ZM223.848,26.61H222.3V32.4h-1.035V26.61h-1.552V25.637h4.139V26.61Zm-6.088-.974H218.8V32.4H217.76V25.637Zm-8.2-6.425a8.637,8.637,0,0,1-8.8-8.751,8.8,8.8,0,0,1,17.6,0A8.637,8.637,0,0,1,209.559,19.211Zm0-15.727a6.9,6.9,0,0,0-6.874,6.975,6.875,6.875,0,1,0,13.748,0A6.9,6.9,0,0,0,209.559,3.485ZM193.121,19.211a8.553,8.553,0,0,1-8.751-8.7,8.6,8.6,0,0,1,8.853-8.8,7.974,7.974,0,0,1,5,1.674V5.717a8.353,8.353,0,0,0-2.207-1.573,7.208,7.208,0,0,0-2.917-.659,6.825,6.825,0,0,0-6.8,7.052,6.771,6.771,0,0,0,6.823,6.9,7.035,7.035,0,0,0,3.146-.786,7.7,7.7,0,0,0,1.953-1.42v2.334A8.807,8.807,0,0,1,193.121,19.211ZM190.344,32.4h-1.116l-0.71-1.634h-2.892L184.885,32.4h-1.116l3.369-7.163ZM186.052,29.8h2.05l-1-2.293Zm-4.677-1.471-1.969,4.393-1.948-4.4-0.71,4.089h-1.055l1.42-7.275,2.354,5.256,2.374-5.256L183.12,32.4h-1.055Zm-1.165-9.165a1.268,1.268,0,1,1,1.268-1.268A1.288,1.288,0,0,1,180.21,19.161ZM162.847,7.949V18.907h-3.958V1.987h3.443L171.421,12.9V1.987h3.957v16.92h-3.443ZM152.122,25.637h1.116l1.887,4.718,1.888-4.718h1.116l-3,7.2Zm3.224-12.183a11.466,11.466,0,0,1-.811,1.877,7.536,7.536,0,0,1-1.2,1.649,7.419,7.419,0,0,1-1.459,1.192,6.9,6.9,0,0,1-1.509.7,8.185,8.185,0,0,1-1.535.33,13.472,13.472,0,0,1-1.535.089,13.8,13.8,0,0,1-1.547-.089,8.711,8.711,0,0,1-1.573-.33,6.9,6.9,0,0,1-1.56-.71,7.574,7.574,0,0,1-1.509-1.23,8.489,8.489,0,0,1-.812-0.964,7.783,7.783,0,0,1-.8-1.383,10.253,10.253,0,0,1-.621-1.814,9.382,9.382,0,0,1-.254-2.283,9.447,9.447,0,0,1,.685-3.7,8.634,8.634,0,0,1,1.75-2.714,7.313,7.313,0,0,1,1.636-1.294,8.662,8.662,0,0,1,1.712-.748,8.31,8.31,0,0,1,1.7-.342q0.837-.076,1.6-0.076a12.2,12.2,0,0,1,2.309.241,6.759,6.759,0,0,1,2.435,1.027,8.19,8.19,0,0,1,1.573,1.4,9.723,9.723,0,0,1,1.166,1.623l-3.526,1.9a6.075,6.075,0,0,0-.625-0.97,3.872,3.872,0,0,0-.88-0.821,4.384,4.384,0,0,0-2.6-.8,5.4,5.4,0,0,0-2.04.352,4.122,4.122,0,0,0-1.48,1,4.767,4.767,0,0,0-1.084,1.759,6.484,6.484,0,0,0-.37,2.211,5.552,5.552,0,0,0,.446,2.374,5.118,5.118,0,0,0,.983,1.47,3.912,3.912,0,0,0,1.607,1.03,6.008,6.008,0,0,0,1.836.276,4.84,4.84,0,0,0,1.978-.324,4.262,4.262,0,0,0,.982-0.573,6.173,6.173,0,0,0,.535-0.561,3.5,3.5,0,0,0,.689-1.408h-4.084V9.673h8.4V9.851a11.648,11.648,0,0,1-.139,1.7A11.428,11.428,0,0,1,155.346,13.453ZM139.4,29.715a2.365,2.365,0,0,0,.213,1.167,1.481,1.481,0,0,0,2.517,0,2.365,2.365,0,0,0,.213-1.167V25.637h1.035v4.353a2.507,2.507,0,0,1-.629,1.755,2.623,2.623,0,0,1-3.755,0,2.507,2.507,0,0,1-.629-1.755V25.637H139.4v4.079Zm-5.032-4.079H135.4V31.43h1.989V32.4h-3.023V25.637Zm-2.53-23.649h3.957v16.92h-3.957V1.987ZM133.087,26v1.218a2.639,2.639,0,0,0-1.837-.751,2.417,2.417,0,0,0-2.465,2.577,2.443,2.443,0,0,0,2.476,2.537,2.687,2.687,0,0,0,1.826-.781v1.228a3.694,3.694,0,0,1-1.857.507,3.386,3.386,0,0,1-2.394-.933,3.317,3.317,0,0,1-1.086-2.557,3.538,3.538,0,0,1,1.086-2.648,3.35,3.35,0,0,1,2.445-.883A3.216,3.216,0,0,1,133.087,26Zm-5.93-8.439a4.637,4.637,0,0,1-1.218.926,6.547,6.547,0,0,1-1.319.52,7.233,7.233,0,0,1-1.255.228q-0.6.051-1,.051a9.358,9.358,0,0,1-1.725-.152,6.16,6.16,0,0,1-1.624-.558,8.113,8.113,0,0,1-1.332-.85,12.067,12.067,0,0,1-1.154-1l2.042-2.79q0.332,0.33.779,0.71a5.268,5.268,0,0,0,.8.583,4.035,4.035,0,0,0,2.144.609,3.84,3.84,0,0,0,.868-0.114,2.271,2.271,0,0,0,.919-0.469,1.682,1.682,0,0,0,.434-0.546,1.775,1.775,0,0,0,.178-0.824,1.468,1.468,0,0,0-.153-0.71,1.735,1.735,0,0,0-.434-0.507,2.555,2.555,0,0,0-.435-0.292,4.757,4.757,0,0,0-.548-0.254l-0.563-.216q-0.269-.1-0.447-0.177l-1.4-.482a11.708,11.708,0,0,1-1.226-.508,3.926,3.926,0,0,1-1.15-.837,3.242,3.242,0,0,1-.843-1.522,6.734,6.734,0,0,1-.179-1.421,5.831,5.831,0,0,1,.356-2.08,5.018,5.018,0,0,1,1.116-1.725,4.528,4.528,0,0,1,1.94-1.23,7.75,7.75,0,0,1,2.245-.317c0.288,0,.617.017,0.99,0.051a7.052,7.052,0,0,1,1.2.228,9.224,9.224,0,0,1,1.369.507,7.794,7.794,0,0,1,1.459.888L126.23,6.122a5.26,5.26,0,0,0-.92-0.672,5.058,5.058,0,0,0-.805-0.368,2.856,2.856,0,0,0-.664-0.152c-0.2-.017-0.354-0.025-0.473-0.025a3.9,3.9,0,0,0-.857.1,1.58,1.58,0,0,0-.8.482,1.455,1.455,0,0,0-.434,1.065,1.169,1.169,0,0,0,.383.939,2.359,2.359,0,0,0,.792.457q0.484,0.178,1.353.507l1.278,0.482a12.36,12.36,0,0,1,1.187.507,4.571,4.571,0,0,1,1.137.786,3.6,3.6,0,0,1,1,1.56,5.541,5.541,0,0,1,.256,1.586,6.676,6.676,0,0,1-.419,2.41A5.226,5.226,0,0,1,127.157,17.563ZM104.783,1.987h9.564v3.3h-5.606V8.557h5.327v3.3h-5.327v3.754h5.606v3.3h-9.564V1.987ZM99.954,16.37a7.6,7.6,0,0,1-1.786,1.4,9.426,9.426,0,0,1-1.839.761,8.618,8.618,0,0,1-1.674.317q-0.787.064-1.319,0.064H87.883V1.987h5.326a16.292,16.292,0,0,1,1.687.089,10.1,10.1,0,0,1,1.7.33,7.921,7.921,0,0,1,1.674.7,7.446,7.446,0,0,1,1.558,1.218,7.854,7.854,0,0,1,1.789,2.587,8.71,8.71,0,0,1,.62,3.475,8.817,8.817,0,0,1-.595,3.462A7.926,7.926,0,0,1,99.954,16.37Zm-2.04-8.244a5.354,5.354,0,0,0-.951-1.4,4.2,4.2,0,0,0-1.015-.761,5.493,5.493,0,0,0-1.065-.4,5.948,5.948,0,0,0-1.053-.2q-0.52-.051-0.977-0.051h-1.04v10.3h1.04q0.3,0,.761-0.025a6.4,6.4,0,0,0,.989-0.139,6.1,6.1,0,0,0,1.078-.342,3.973,3.973,0,0,0,1.027-.634,4.669,4.669,0,0,0,1.167-1.623,5.811,5.811,0,0,0,.482-2.461A5.044,5.044,0,0,0,97.914,8.126ZM83.652,18.907l-3.881-6.95-3.932,6.95H73.708l5-8.751-4.54-8.168H76.3l3.5,6.367,3.6-6.367h2.131l-4.642,8.168,4.9,8.751H83.652ZM71,18.907l-3.881-6.95-3.932,6.95H61.057l5-8.751L61.513,1.988h2.131l3.5,6.367,3.6-6.367h2.131l-4.642,8.168,4.9,8.751H71Zm-17.914.3a5.977,5.977,0,0,1-4.946-2.283,6.537,6.537,0,0,1-1.065-4.059V1.988h1.877V12.363c0,1.42,0,2.968,1.344,4.109a4.52,4.52,0,0,0,5.581,0c1.344-1.142,1.344-2.689,1.344-4.109V1.988H59.1V12.87a6.537,6.537,0,0,1-1.065,4.059A5.977,5.977,0,0,1,53.087,19.211ZM37.994,1.988h1.877V17.132h4.667v1.776H37.994V1.988ZM2,18.006V3.962h3.99v9.995H31v4.049H2ZM7.989,12V8.953H8V4H26.986V1.987H31V12H7.989Zm19-5H12V8.953H26.986V7ZM121.2,26.61h-2.7v1.715h2.618V29.3H118.5V31.43h2.7V32.4h-3.734V25.637H121.2V26.61Zm0.893-.974h1.157l1.319,2.293,1.349-2.293h1.157l-1.948,3.237,2.039,3.531h-1.156l-1.482-2.587L122.981,32.4h-1.157l2.131-3.531Zm23.814,5.54a1.068,1.068,0,0,0,.883.406,1.087,1.087,0,0,0,1.116-1.136,1.264,1.264,0,0,0-.974-1.157l-0.649-.274A1.909,1.909,0,0,1,144.9,27.3a1.827,1.827,0,0,1,1.978-1.786,2,2,0,0,1,1.36.457,2.3,2.3,0,0,1,.517.68l-0.832.487a1.067,1.067,0,0,0-.3-0.426,1.078,1.078,0,0,0-.731-0.244,0.838,0.838,0,0,0-.953.812,0.9,0.9,0,0,0,.73.822l0.68,0.274a2.113,2.113,0,0,1-.588,4.16,1.978,1.978,0,0,1-1.593-.68,2.19,2.19,0,0,1-.569-1.319l1.025-.223A1.464,1.464,0,0,0,145.9,31.176ZM151.27,32.4h-1.035V25.637h1.035V32.4Zm11.445-5.794h-2.7v1.715h2.618V29.3h-2.618V31.43h2.7V32.4h-3.734V25.637h3.734V26.61Zm2.374,4.82h1.989V32.4h-3.023V25.637h1.034V31.43Zm4.891-3.085,1.563-2.709h1.177L170.5,29.482V32.4h-1.035V29.482l-2.222-3.845h1.177Zm25.154-2.05a3.352,3.352,0,0,1,1.3,2.729,3.226,3.226,0,0,1-1.359,2.729,3.884,3.884,0,0,1-2.476.649h-1.4V25.637h1.42A3.943,3.943,0,0,1,195.134,26.3Zm-2.9,5.134h0.446a2.93,2.93,0,0,0,1.8-.477,2.385,2.385,0,0,0,.923-1.928,2.412,2.412,0,0,0-.913-1.948,3.031,3.031,0,0,0-1.806-.467h-0.446v4.82Zm9.233-4.82h-2.7v1.715h2.618V29.3h-2.618V31.43h2.7V32.4h-3.734V25.637h3.734V26.61ZM206.2,32.4h-1.035V25.637H206.2V32.4Zm6.534-6.768h1.035V32.82l-4.911-5.144V32.4h-1.035V25.18l4.911,5.144V25.637ZM230.565,32.4h-1.116l-0.71-1.634h-2.892L225.106,32.4H223.99l3.369-7.163ZM226.273,29.8h2.05l-1-2.293Zm6.18,1.634h1.988V32.4h-3.023V25.637h1.035V31.43Zm4.89-3.085,1.563-2.709h1.177l-2.222,3.845V32.4h-1.035V29.482L234.6,25.637h1.177Z"/>
</svg>
