<svg xmlns="http://www.w3.org/2000/svg" xmlns:xlink="http://www.w3.org/1999/xlink" width="22" height="20" viewBox="0 0 22 20">
  <defs>
    <style>
      .cls-1 {
        fill: #fff;
        fill-rule: evenodd;
        filter: url(#filter);
      }
    </style>
    <filter id="filter" x="1" y="0" width="19" height="19" filterUnits="userSpaceOnUse">
      <feFlood result="flood" flood-color="#0f0f10"/>
      <feComposite result="composite" operator="in" in2="SourceGraphic"/>
      <feBlend result="blend" in2="SourceGraphic"/>
    </filter>
  </defs>
  <path id="Google_" data-name="Google+" class="cls-1" d="M17,10v1H16V10H15V9h1V8h1V9h1v1H17ZM9.114,15.069A5.164,5.164,0,0,1,3.968,9.923,5.011,5.011,0,0,1,9.114,4.959a4.629,4.629,0,0,1,3.333,1.275L11.152,7.571A3.272,3.272,0,0,0,9.016,7a2.918,2.918,0,0,0-3.03,2.924,3.038,3.038,0,0,0,3.03,3.068,2.771,2.771,0,0,0,2.942-2.011H9V8.993h4.948c0.022,0.129.042,0.352,0.057,0.585V10h0.019c0,0.076,0,.155,0,0.216A4.6,4.6,0,0,1,9.114,15.069ZM17.75,19H3.25A2.251,2.251,0,0,1,1,16.75V2.251A2.251,2.251,0,0,1,3.25,0h14.5A2.251,2.251,0,0,1,20,2.251v14.5A2.251,2.251,0,0,1,17.75,19Z"/>
</svg>
