<svg xmlns="http://www.w3.org/2000/svg" xmlns:xlink="http://www.w3.org/1999/xlink" width="22" height="20" viewBox="0 0 22 20">
  <defs>
    <style>
      .cls-1 {
        fill: #fff;
        fill-rule: evenodd;
        filter: url(#filter);
      }
    </style>
    <filter id="filter" x="1" y="0" width="19" height="19" filterUnits="userSpaceOnUse">
      <feFlood result="flood" flood-color="#0f0f10"/>
      <feComposite result="composite" operator="in" in2="SourceGraphic"/>
      <feBlend result="blend" in2="SourceGraphic"/>
    </filter>
  </defs>
  <path id="Email" class="cls-1" d="M17.75,19H3.25A2.251,2.251,0,0,1,1,16.75V2.251A2.251,2.251,0,0,1,3.25,0h14.5A2.251,2.251,0,0,1,20,2.251v14.5A2.251,2.251,0,0,1,17.75,19Zm-1.758-5.68A0.681,0.681,0,0,1,15.3,14H5.674a0.681,0.681,0,0,1-.688-0.675V6.412l5.5,4.47,5.5-4.459ZM5.008,4.95H15.98L10.487,9.429Z"/>
</svg>
