<svg xmlns="http://www.w3.org/2000/svg" xmlns:xlink="http://www.w3.org/1999/xlink" width="22" height="20" viewBox="0 0 22 20">
  <defs>
    <style>
      .cls-1 {
        fill: #fff;
        fill-rule: evenodd;
        filter: url(#filter);
      }
    </style>
    <filter id="filter" x="-0.313" y="0.938" width="21.406" height="17.125" filterUnits="userSpaceOnUse">
      <feFlood result="flood" flood-color="#0f0f10"/>
      <feComposite result="composite" operator="in" in2="SourceGraphic"/>
      <feBlend result="blend" in2="SourceGraphic"/>
    </filter>
  </defs>
  <path id="Twitter" class="cls-1" d="M21.078,2.971a8.864,8.864,0,0,1-2.521.683,4.364,4.364,0,0,0,1.929-2.4A8.854,8.854,0,0,1,17.7,2.306a4.4,4.4,0,0,0-7.593,2.968,4.243,4.243,0,0,0,.115.989A12.512,12.512,0,0,1,1.172,1.731,4.272,4.272,0,0,0,.578,3.912,4.324,4.324,0,0,0,2.53,7.522,4.4,4.4,0,0,1,.542,6.979V7.035a4.356,4.356,0,0,0,3.52,4.254,4.467,4.467,0,0,1-1.982.074,4.342,4.342,0,0,0,4.1,2.958A8.932,8.932,0,0,1,.729,16.233a9.293,9.293,0,0,1-1.047-.061,12.5,12.5,0,0,0,6.729,1.893A12.282,12.282,0,0,0,18.9,5.777c0-.188,0-0.375-0.014-0.562a8.9,8.9,0,0,0,2.191-2.245h0Z"/>
</svg>
