<svg xmlns="http://www.w3.org/2000/svg" xmlns:xlink="http://www.w3.org/1999/xlink" width="22" height="20" viewBox="0 0 22 20">
  <defs>
    <style>
      .cls-1 {
        fill: #fff;
        fill-rule: evenodd;
        filter: url(#filter);
      }
    </style>
    <filter id="filter" x="1" y="0.031" width="18.938" height="19" filterUnits="userSpaceOnUse">
      <feFlood result="flood" flood-color="#0f0f10"/>
      <feComposite result="composite" operator="in" in2="SourceGraphic"/>
      <feBlend result="blend" in2="SourceGraphic"/>
    </filter>
  </defs>
  <path id="Pinterest" class="cls-1" d="M1,9.541a9.5,9.5,0,0,0,5.669,8.7,8.374,8.374,0,0,1,.165-2.181c0.182-.771,1.218-5.176,1.218-5.176a3.659,3.659,0,0,1-.3-1.5c0-1.408.813-2.459,1.826-2.459a1.271,1.271,0,0,1,1.278,1.426,20.5,20.5,0,0,1-.836,3.371,1.469,1.469,0,0,0,1.495,1.829c1.794,0,3-2.311,3-5.05,0-2.082-1.4-3.64-3.941-3.64A4.491,4.491,0,0,0,5.912,9.407a2.747,2.747,0,0,0,.624,1.863,0.461,0.461,0,0,1,.136.529c-0.045.175-.15,0.6-0.193,0.762A0.326,0.326,0,0,1,6,12.8c-1.323-.542-1.939-2-1.939-3.629,0-2.7,2.269-5.934,6.768-5.934a5.667,5.667,0,0,1,6,5.441c0,3.726-2.065,6.51-5.11,6.51A2.713,2.713,0,0,1,9.406,14s-0.55,2.189-.666,2.611a7.962,7.962,0,0,1-.953,2.035A9.5,9.5,0,1,0,1,9.541Z"/>
</svg>
