<svg xmlns="http://www.w3.org/2000/svg" xmlns:xlink="http://www.w3.org/1999/xlink" width="22" height="20" viewBox="0 0 22 20">
  <defs>
    <style>
      .cls-1 {
        fill: #fff;
        fill-rule: evenodd;
        filter: url(#filter);
      }
    </style>
    <filter id="filter" x="1" y="0" width="19" height="19" filterUnits="userSpaceOnUse">
      <feFlood result="flood" flood-color="#0f0f10"/>
      <feComposite result="composite" operator="in" in2="SourceGraphic"/>
      <feBlend result="blend" in2="SourceGraphic"/>
    </filter>
  </defs>
  <path id="Facebook" class="cls-1" d="M17.75,0H3.25A2.251,2.251,0,0,0,1,2.251v14.5A2.251,2.251,0,0,0,3.25,19h6.761V13.032h-3V9.958h3V8c0-2.89,1.482-4.042,4.06-4.042,1.43,0,1.95.021,1.941,0.011V7.019H14.655c-1.4,0-1.661.62-1.661,1.6V9.958h3l-0.435,3.074H12.993V19H17.75A2.251,2.251,0,0,0,20,16.75V2.251A2.251,2.251,0,0,0,17.75,0Z"/>
</svg>
