<svg xmlns="http://www.w3.org/2000/svg" width="16" height="14" viewBox="0 0 16 14">
  <defs>
    <style>
      .cls-1 {
        fill: #343539;
        fill-rule: evenodd;
      }
    </style>
  </defs>
  <path id="_" data-name="#" class="cls-1" d="M4.09,0.984a2.927,2.927,0,0,1,2.535,1.5L7.481,3.958,8.35,2.495A2.981,2.981,0,0,1,10.91.985a3.282,3.282,0,0,1,3.057,3.264l0,0.035,0,0.032a3.5,3.5,0,0,1-.114,1.2A5.814,5.814,0,0,1,12.09,8.484l-4.6,4.179L2.911,8.485A5.815,5.815,0,0,1,1.138,5.516a3.5,3.5,0,0,1-.114-1.2L1.03,4.284l0-.035A3.282,3.282,0,0,1,4.09.984m0-1A4.256,4.256,0,0,0,.037,4.159,4.323,4.323,0,0,0,.165,5.745,6.811,6.811,0,0,0,2.238,9.224l5.248,4.792,5.275-4.791a6.811,6.811,0,0,0,2.073-3.479,4.337,4.337,0,0,0,.128-1.586A4.257,4.257,0,0,0,10.91-.015a3.974,3.974,0,0,0-3.42,2,3.928,3.928,0,0,0-3.4-2h0Z"/>
</svg>
