<svg xmlns="http://www.w3.org/2000/svg" width="32" height="30" viewBox="0 0 32 30">
  <defs>
    <style>
      .cls-1 {
        fill: #fff;
        fill-rule: evenodd;
      }
    </style>
  </defs>
  <path id="_" data-name="#" class="cls-1" d="M30.121,8.412a0.121,0.121,0,0,1,.14.068L27.691,21.287a0.5,0.5,0,0,1-.178.279H9.772a0.507,0.507,0,0,1-.179-0.289L7,8.412H30.121M2.078,0.995a0.614,0.614,0,0,0-.739.713c0,0.524,0,.648.631,0.716L4.412,2.636,8.22,21.553a1.7,1.7,0,0,0,1.512,1.413H27.554a1.7,1.7,0,0,0,1.512-1.416L31.633,8.756a1.471,1.471,0,0,0-1.513-1.744H6.94L5.732,1.425a0.479,0.479,0,0,0-.383-0.4L2.078,0.995h0ZM13.5,25A2.5,2.5,0,1,1,11,27.5,2.5,2.5,0,0,1,13.5,25Zm0,1.2a1.3,1.3,0,1,1-1.3,1.3A1.3,1.3,0,0,1,13.5,26.2Zm10-1.2A2.5,2.5,0,1,1,21,27.5,2.5,2.5,0,0,1,23.5,25Zm0,1.2a1.3,1.3,0,1,1-1.3,1.3A1.3,1.3,0,0,1,23.5,26.2Z"/>
</svg>
