<svg xmlns="http://www.w3.org/2000/svg" width="20.031" height="19.062" viewBox="0 0 20.031 19.062">
  <metadata><?xpacket begin="﻿" id="W5M0MpCehiHzreSzNTczkc9d"?>
<x:xmpmeta xmlns:x="adobe:ns:meta/" x:xmptk="Adobe XMP Core 5.6-c138 79.159824, 2016/09/14-01:09:01        ">
   <rdf:RDF xmlns:rdf="http://www.w3.org/1999/02/22-rdf-syntax-ns#">
      <rdf:Description rdf:about=""/>
   </rdf:RDF>
</x:xmpmeta>
                                                                                                    
                                                                                                    
                                                                                                    
                                                                                                    
                                                                                                    
                                                                                                    
                                                                                                    
                                                                                                    
                                                                                                    
                                                                                                    
                                                                                                    
                                                                                                    
                                                                                                    
                                                                                                    
                                                                                                    
                                                                                                    
                                                                                                    
                                                                                                    
                                                                                                    
                                                                                                    
                           
<?xpacket end="w"?></metadata>
<defs>
    <style>
      .cls-1 {
        fill: #1c1e27;
        fill-rule: evenodd;
      }
    </style>
  </defs>
  <path id="_" data-name="#" class="cls-1" d="M5.441,3.461A3.762,3.762,0,0,1,8.681,5.4L9.969,7.8l1.34-2.37a3.785,3.785,0,0,1,3.268-1.964c2.041,0,3.684,1.818,3.908,4.343a4.576,4.576,0,0,1-.139,1.665,7.771,7.771,0,0,1-2.309,3.977L9.995,19,3.983,13.445a7.828,7.828,0,0,1-2.34-4.017,4.523,4.523,0,0,1-.124-1.645c0.222-2.5,1.871-4.318,3.921-4.322m0.007-1.5C2.6,1.961.318,4.354,0.025,7.65A6,6,0,0,0,.193,9.813a9.319,9.319,0,0,0,2.777,4.738l7.023,6.488,7.059-6.488a9.282,9.282,0,0,0,2.754-4.738,6.017,6.017,0,0,0,.171-2.161c-0.293-3.3-2.551-5.69-5.4-5.69A5.3,5.3,0,0,0,10,4.688,5.246,5.246,0,0,0,5.448,1.961h0Z" transform="translate(0 -1.969)"/>
</svg>
