<svg xmlns="http://www.w3.org/2000/svg" width="20" height="20" viewBox="0 0 20 20">
  <metadata><?xpacket begin="﻿" id="W5M0MpCehiHzreSzNTczkc9d"?>
<x:xmpmeta xmlns:x="adobe:ns:meta/" x:xmptk="Adobe XMP Core 5.6-c138 79.159824, 2016/09/14-01:09:01        ">
   <rdf:RDF xmlns:rdf="http://www.w3.org/1999/02/22-rdf-syntax-ns#">
      <rdf:Description rdf:about=""/>
   </rdf:RDF>
</x:xmpmeta>
                                                                                                    
                                                                                                    
                                                                                                    
                                                                                                    
                                                                                                    
                                                                                                    
                                                                                                    
                                                                                                    
                                                                                                    
                                                                                                    
                                                                                                    
                                                                                                    
                                                                                                    
                                                                                                    
                                                                                                    
                                                                                                    
                                                                                                    
                                                                                                    
                                                                                                    
                                                                                                    
                           
<?xpacket end="w"?></metadata>
<defs>
    <style>
      .cls-1 {
        fill: #a6a7aa;
        fill-rule: evenodd;
      }
    </style>
  </defs>
  <path class="cls-1" d="M267,22a10,10,0,1,1,10-10A10,10,0,0,1,267,22Zm0-18.16A8.16,8.16,0,1,0,275.16,12,8.16,8.16,0,0,0,267,3.84ZM271,11h-1v1h-1v1h-1v1h-1v1h-1v1h-1V15h-1V14h-1V13h-1V12h1V11h1v1h1v1h1V12h1V11h1V10h1V9h1V8h1l1,1v1h-1v1Z" transform="translate(-257 -2)"/>
</svg>
