<svg xmlns="http://www.w3.org/2000/svg" width="78" height="50" viewBox="0 0 78 50">
  <defs>
    <style>
      .cls-1 {
        fill: #313942;
        fill-rule: evenodd;
      }
    </style>
  </defs>
  <path id="_" data-name="#" class="cls-1" d="M75.987,30.01A2.008,2.008,0,1,1,77.995,28,1.968,1.968,0,0,1,75.987,30.01Zm0-3.572A1.564,1.564,0,1,0,77.53,28,1.517,1.517,0,0,0,75.987,26.438Zm0.676,2.473a0.259,0.259,0,0,1-.317-0.3V28.4a0.224,0.224,0,0,0-.254-0.254H75.733v0.74h-0.38v-1.8h0.761a0.487,0.487,0,0,1,.592.507v0.021a0.358,0.358,0,0,1-.317.4,0.367,0.367,0,0,1,.338.381v0.169a0.106,0.106,0,0,0,.106.127v0.19H76.663v0.021Zm-0.317-1.289a0.211,0.211,0,0,0-.233-0.233h-0.38V27.9h0.338a0.224,0.224,0,0,0,.254-0.254V27.622h0.021ZM23.26,21.9s4.2-1.439,5.737-4.154l4.009,5.532v6.7H41V23.442l6-9.521V16.9S46.431,30.059,62.059,30s14.932-14.23,14.932-14.23V0.041h-8V16s0.577,7.012-6.928,7.012C54.553,22.99,55,16.451,55,16.451L54.991,0.02H47.175L37.008,16.471,27.825,3.249S26.159,0.02,20.073,0H0V30H8V22.99h5.142L7.991,16V6.972h9.648s5.408-.247,5.367,4.5c0,0,.308,4.3-5.1,4.485H10L36.132,49.987h8.9Z"/>
</svg>
