<svg xmlns="http://www.w3.org/2000/svg" width="15" height="15" viewBox="0 0 15 15">
  <defs>
    <style>
      .cls-1 {
        fill: #78858d;
      }

      .cls-1, .cls-2 {
        fill-rule: evenodd;
      }

      .cls-2 {
        fill: #c9ced1;
      }
    </style>
  </defs>
  <path id="_" data-name="#" class="cls-1" d="M8,11.251L7.676,11.02a0.3,0.3,0,0,0-.348,0l-4.1,2.919a0.3,0.3,0,0,1-.456-0.324L4.335,8.891a0.286,0.286,0,0,0-.108-0.324l-4.1-3.09A0.275,0.275,0,0,1,.3,4.975H5.371a0.3,0.3,0,0,0,.282-0.191L7.22,0.2a0.3,0.3,0,0,1,.564,0L8,0.833V11.251Z"/>
  <path id="_2" data-name="#" class="cls-2" d="M14.879,5.477l-4.1,3.09a0.287,0.287,0,0,0-.108.324l1.567,4.724a0.3,0.3,0,0,1-.456.324L8,11.251V0.833L9.351,4.784a0.3,0.3,0,0,0,.282.191H14.7A0.275,0.275,0,0,1,14.879,5.477Z"/>
</svg>
