<svg xmlns="http://www.w3.org/2000/svg" width="40" height="25" viewBox="0 0 40 25">
  <defs>
    <style>
      .cls-1 {
        fill: #909193;
        fill-rule: evenodd;
      }
    </style>
  </defs>
  <path id="_" data-name="#" class="cls-1" d="M39.038,15.005a1,1,0,1,1,1-1A0.984,0.984,0,0,1,39.038,15.005Zm0-1.786A0.782,0.782,0,1,0,39.81,14,0.758,0.758,0,0,0,39.038,13.219Zm0.338,1.226v0.011a0.129,0.129,0,0,1-.159-0.148V14.2a0.112,0.112,0,0,0-.127-0.127h-0.18v0.37h-0.19v-0.9H39.1a0.243,0.243,0,0,1,.3.254v0.011a0.179,0.179,0,0,1-.159.2,0.184,0.184,0,0,1,.169.19v0.085a0.053,0.053,0,0,0,.053.063v0.1H39.376ZM39.1,13.694h-0.19v0.254H39.08a0.112,0.112,0,0,0,.127-0.127V13.811h0.011A0.106,0.106,0,0,0,39.1,13.694ZM31.512,15c-7.814.031-7.53-6.549-7.53-6.549V6.961l-2.956,4.761v3.268h-4.04v-3.35L14.5,8.873A6.021,6.021,0,0,1,11.63,10.95L22.518,24.994H18.4L5.331,7.98H8.953c2.7-.093,2.55-1.8,2.55-1.8C11.524,3.8,8.82,3.923,8.82,3.923H4V8l2.814,3.923H4V15H0V0H10.387c3.043,0.01,3.876,1.625,3.876,1.625L19.03,8.192,24.07,0.01h3.92l0,7.965s-0.236,3.27,3.517,3.28a3.233,3.233,0,0,0,3.5-3.506V0.021h4V7.884S39.326,14.968,31.512,15Z"/>
</svg>
