<svg xmlns="http://www.w3.org/2000/svg" width="31" height="34" viewBox="0 0 31 34">
  <metadata><?xpacket begin="﻿" id="W5M0MpCehiHzreSzNTczkc9d"?>
<x:xmpmeta xmlns:x="adobe:ns:meta/" x:xmptk="Adobe XMP Core 5.6-c138 79.159824, 2016/09/14-01:09:01        ">
   <rdf:RDF xmlns:rdf="http://www.w3.org/1999/02/22-rdf-syntax-ns#">
      <rdf:Description rdf:about=""/>
   </rdf:RDF>
</x:xmpmeta>
                                                                                                    
                                                                                                    
                                                                                                    
                                                                                                    
                                                                                                    
                                                                                                    
                                                                                                    
                                                                                                    
                                                                                                    
                                                                                                    
                                                                                                    
                                                                                                    
                                                                                                    
                                                                                                    
                                                                                                    
                                                                                                    
                                                                                                    
                                                                                                    
                                                                                                    
                                                                                                    
                           
<?xpacket end="w"?></metadata>
<defs>
    <style>
      .cls-1 {
        fill: #151618;
        fill-rule: evenodd;
      }
    </style>
  </defs>
  <path id="_" data-name="#" class="cls-1" d="M557.406,711.357l-12.015-6.778-0.3-.169a3.256,3.256,0,0,0-3.183,0l-0.3.169-12.015,6.778A3.108,3.108,0,0,0,528,714.051v13.895a3.107,3.107,0,0,0,1.592,2.694l12.015,6.778,0.3,0.17a3.259,3.259,0,0,0,3.183,0l0.3-.17,12.015-6.778A3.107,3.107,0,0,0,559,727.946V714.051A3.108,3.108,0,0,0,557.406,711.357Zm-8.267,7.891-1.76,1.76a3.052,3.052,0,0,1-2.027.881v-0.544l0.351-.351h0.825v-0.825l0.351-.351H547.7v-0.825l0.658-.658a1.89,1.89,0,0,0-.036-2.672,1.935,1.935,0,0,0-2.71,0l-0.627.627h-0.813V717.1l-0.363.363H543v0.813l-0.363.363H542.1a3.05,3.05,0,0,1,.882-2.033l1.759-1.759A3.11,3.11,0,0,1,549.139,719.248Zm-8.884,4.484a0.6,0.6,0,0,1,.037-0.872l4.541-4.541a0.592,0.592,0,1,1,.835.834l-4.541,4.542A0.6,0.6,0,0,1,540.255,723.732Zm-0.783-2.738v0.813l-0.364.364H538.3v0.812l-0.7.7a1.89,1.89,0,0,0,.037,2.672,1.934,1.934,0,0,0,2.709,0L541,725.7h0.825v-0.825l0.351-.351H543V723.7l0.351-.35h0.511a3.051,3.051,0,0,1-.881,2.059l-1.76,1.759a3.11,3.11,0,1,1-4.4-4.4l1.759-1.759a3.053,3.053,0,0,1,2.066-.882v0.5l-0.364.363h-0.812Z" transform="translate(-528 -704)"/>
</svg>
