<svg xmlns="http://www.w3.org/2000/svg" width="143" height="159" viewBox="0 0 143 159">
  <metadata><?xpacket begin="﻿" id="W5M0MpCehiHzreSzNTczkc9d"?>
<x:xmpmeta xmlns:x="adobe:ns:meta/" x:xmptk="Adobe XMP Core 5.6-c138 79.159824, 2016/09/14-01:09:01        ">
   <rdf:RDF xmlns:rdf="http://www.w3.org/1999/02/22-rdf-syntax-ns#">
      <rdf:Description rdf:about=""/>
   </rdf:RDF>
</x:xmpmeta>
                                                                                                    
                                                                                                    
                                                                                                    
                                                                                                    
                                                                                                    
                                                                                                    
                                                                                                    
                                                                                                    
                                                                                                    
                                                                                                    
                                                                                                    
                                                                                                    
                                                                                                    
                                                                                                    
                                                                                                    
                                                                                                    
                                                                                                    
                                                                                                    
                                                                                                    
                                                                                                    
                           
<?xpacket end="w"?></metadata>
<defs>
    <style>
      .cls-1 {
        fill: #e6e6e6;
        fill-rule: evenodd;
      }
    </style>
  </defs>
  <path class="cls-1" d="M274.677,756.587l-25.418,14.535a41.019,41.019,0,0,0-76.681.45l-26.206-14.985a14.561,14.561,0,0,1-7.344-12.6V679.02a14.561,14.561,0,0,1,7.344-12.6L201.8,634.73l1.385-.791a14.852,14.852,0,0,1,14.687,0l1.384,0.791,55.425,31.693a14.564,14.564,0,0,1,7.343,12.6V743.99A14.562,14.562,0,0,1,274.677,756.587Zm-63.67-81.6A29.132,29.132,0,1,0,240.2,704.122,29.2,29.2,0,0,0,211.007,674.991Zm0,51.888a22.756,22.756,0,1,1,22.8-22.757A22.806,22.806,0,0,1,211.007,726.879Zm0,24.4a34.656,34.656,0,0,1,32.634,23.052L219.252,788.28l-1.384.792a14.855,14.855,0,0,1-14.687,0l-1.385-.792L178.217,774.8A34.653,34.653,0,0,1,211.007,751.282Zm32.634,23.052,5.618-3.212m-76.681.45,5.639,3.225" transform="translate(-139.031 -632)"/>
</svg>
