<svg xmlns="http://www.w3.org/2000/svg" width="28" height="28" viewBox="0 0 28 28">
  <defs>
    <style>
      .cls-1 {
        fill: #fff;
        fill-rule: evenodd;
      }
    </style>
  </defs>
  <path id="Soundcloud" class="cls-1" d="M26.9,17.394a3.514,3.514,0,0,1-2.356,2.413,6.193,6.193,0,0,1-1.965.168q-4.507,0-9.016,0a0.48,0.48,0,0,1-.541-0.267,7.048,7.048,0,0,1-.032-1.108q0-5.325,0-10.652A0.4,0.4,0,0,1,13.211,7.5a6.345,6.345,0,0,1,7.73,2.452,6.632,6.632,0,0,1,1.033,3.025,3.768,3.768,0,0,1,3.474.45A3.816,3.816,0,0,1,26.9,17.394ZM10,20a1,1,0,0,1-1-1V10a1,1,0,0,1,2,0v9A1,1,0,0,1,10,20ZM6,20a1,1,0,0,1-1-1V12a1,1,0,0,1,2,0v7A1,1,0,0,1,6,20ZM2,19a1,1,0,0,1-1-1V14a1,1,0,0,1,2,0v4A1,1,0,0,1,2,19Z"/>
</svg>
