<svg xmlns="http://www.w3.org/2000/svg" width="28" height="28" viewBox="0 0 28 28">
  <defs>
    <style>
      .cls-1 {
        fill: #fff;
        fill-rule: evenodd;
      }
    </style>
  </defs>
  <path id="Mail" class="cls-1" d="M22.75,24H5.25A2.251,2.251,0,0,1,3,21.75V5.251A2.251,2.251,0,0,1,5.25,3h17.5A2.251,2.251,0,0,1,25,5.251v16.5A2.251,2.251,0,0,1,22.75,24ZM21,18.146a0.854,0.854,0,0,1-.876.831H7.861a0.854,0.854,0,0,1-.876-0.831V9.793l7,5.5,7-5.491ZM7.014,7.993H20.985L13.99,13.509Z"/>
</svg>
