<svg xmlns="http://www.w3.org/2000/svg" width="26" height="26" viewBox="0 0 26 26">
  <defs>
    <style>
      .cls-1 {
        fill: #1c1c1a;
        fill-rule: evenodd;
      }
    </style>
  </defs>
  <path id="Instagram" class="cls-1" d="M23.923,17.811a7.689,7.689,0,0,1-.488,2.546,5.363,5.363,0,0,1-3.067,3.068,7.715,7.715,0,0,1-2.546.487c-1.119.051-1.476,0.063-4.324,0.063s-3.206-.012-4.325-0.063a7.715,7.715,0,0,1-2.546-.487A5.368,5.368,0,0,1,3.56,20.357a7.705,7.705,0,0,1-.488-2.546c-0.051-1.119-.063-1.476-0.063-4.324s0.013-3.206.063-4.325A7.7,7.7,0,0,1,3.56,6.617,5.368,5.368,0,0,1,6.627,3.549a7.693,7.693,0,0,1,2.546-.487C10.292,3.01,10.65,3,13.5,3s3.206,0.012,4.324.063a7.694,7.694,0,0,1,2.546.487,5.363,5.363,0,0,1,3.067,3.068,7.68,7.68,0,0,1,.488,2.545c0.051,1.119.063,1.476,0.063,4.325S23.974,16.693,23.923,17.811Zm-1.935-8.54a5.8,5.8,0,0,0-.359-1.937,3.46,3.46,0,0,0-1.98-1.979A5.761,5.761,0,0,0,17.713,5c-1.1-.05-1.429-0.061-4.215-0.061S10.383,4.946,9.282,5a5.761,5.761,0,0,0-1.937.359,3.46,3.46,0,0,0-1.98,1.979,5.8,5.8,0,0,0-.359,1.937c-0.05,1.1-.061,1.43-0.061,4.215S4.958,16.6,5.007,17.7a5.787,5.787,0,0,0,.359,1.937,3.458,3.458,0,0,0,1.98,1.98,5.8,5.8,0,0,0,1.937.359c1.1,0.05,1.43.06,4.216,0.06s3.115-.011,4.215-0.06a5.8,5.8,0,0,0,1.937-.359,3.457,3.457,0,0,0,1.98-1.98,5.785,5.785,0,0,0,.359-1.937c0.05-1.1.061-1.428,0.061-4.214S22.039,10.372,21.988,9.272Zm-2.954,0a1.259,1.259,0,1,1,1.259-1.258A1.258,1.258,0,0,1,19.034,9.272Zm-5.521,9.742A5.511,5.511,0,1,1,19.024,13.5,5.511,5.511,0,0,1,13.513,19.013Zm0-9.087A3.577,3.577,0,1,0,17.091,13.5,3.578,3.578,0,0,0,13.513,9.926Z"/>
</svg>
