<svg xmlns="http://www.w3.org/2000/svg" width="22" height="22" viewBox="0 0 22 22">
  <defs>
    <style>
      .cls-1 {
        fill: #060606;
        fill-rule: evenodd;
      }
    </style>
  </defs>
  <path id="_" data-name="#" class="cls-1" d="M19.928,8.139l-2.94,6.38a0.821,0.821,0,0,1-.744.473H8.175A0.821,0.821,0,0,1,7.386,14.4L4.842,4.634H2.791a0.821,0.821,0,0,1,0-1.641H5.458a0.822,0.822,0,0,1,.789.592l2.544,9.765h6.93l2.173-4.739H10.8a0.821,0.821,0,0,1,0-1.641h8.383A0.821,0.821,0,0,1,19.928,8.139ZM8.5,15.968A1.527,1.527,0,1,1,6.976,17.5,1.527,1.527,0,0,1,8.5,15.968Zm7,0A1.527,1.527,0,1,1,13.976,17.5,1.527,1.527,0,0,1,15.5,15.968Z"/>
</svg>
