<svg xmlns="http://www.w3.org/2000/svg" width="14" height="19" viewBox="0 0 14 19">
  <defs>
    <style>
      .cls-1 {
        fill: #000;
      }

      .cls-1, .cls-2 {
        fill-rule: evenodd;
      }

      .cls-2 {
        fill: #f8b832;
      }
    </style>
  </defs>
  <path id="_2" data-name="#" class="cls-2" d="M10.1,9.049V9.006A3.508,3.508,0,0,0,12,5.762a3.515,3.515,0,0,0-2.07-3.331,6.747,6.747,0,0,0-2.771-.448H7V0.438A0.438,0.438,0,0,0,6.561,0H5.427a0.438,0.438,0,0,0-.438.438V1.983H4.013V0.438A0.438,0.438,0,0,0,3.576,0H2.423a0.438,0.438,0,0,0-.438.438V1.983H0.277A0.275,0.275,0,0,0,0,2.258v1.45a0.275,0.275,0,0,0,.275.275H1.985v11H0.35A0.352,0.352,0,0,0,0,15.336l0,1.3a0.352,0.352,0,0,0,.352.351H1.985v1.558a0.438,0.438,0,0,0,.438.438H3.576a0.438,0.438,0,0,0,.438-0.437V16.987H4.989v1.558a0.438,0.438,0,0,0,.438.438H6.561A0.438,0.438,0,0,0,7,18.545V16.987h1a7.072,7.072,0,0,0,2.262-.277A4.152,4.152,0,0,0,13.03,12.7,3.965,3.965,0,0,0,10.1,9.049ZM7.342,3.983a3.521,3.521,0,0,1,1.589.3,1.52,1.52,0,0,1,1.075,1.484,2.4,2.4,0,0,1-2.6,2.243h-3.4V3.983H7.342ZM9.424,14.774a3.623,3.623,0,0,1-1.345.214l-4.066,0V10.01H7.5c1.579,0,3.479,1.025,3.479,2.583A2.282,2.282,0,0,1,9.424,14.774Z"/>
</svg>