<svg xmlns="http://www.w3.org/2000/svg" width="111" height="19" viewBox="0 0 111 19">
  <defs>
    <style>
      .cls-1 {
        fill: #000;
      }

      .cls-1, .cls-2 {
        fill-rule: evenodd;
      }

      .cls-2 {
        fill: #f8b832;
      }
    </style>
  </defs>
  <path id="_" data-name="#" class="cls-1" d="M110.265,16.813h-0.642a0.606,0.606,0,0,1-.684-0.667V10.691c0-1.434-.29-2.566-1.845-2.566-1.949,0-3.109,1.96-3.109,3.92v4.1a0.591,0.591,0,0,1-.664.667h-0.663A0.591,0.591,0,0,1,102,16.146V10.691c0-1.334-.208-2.566-1.824-2.566-1.99,0-3.151,2.02-3.151,3.92v4.1a0.6,0.6,0,0,1-.684.667H95.693a0.606,0.606,0,0,1-.684-0.667V7.256a0.605,0.605,0,0,1,.684-0.666h0.581a0.6,0.6,0,0,1,.684.666V8.166a3.1,3.1,0,0,1-.062.586h0.041a4.217,4.217,0,0,1,3.648-2.4,2.863,2.863,0,0,1,3.151,2.324h0.041a4.247,4.247,0,0,1,3.711-2.324c2.384,0,3.462,1.313,3.462,3.919v5.88A0.6,0.6,0,0,1,110.265,16.813Zm-22.777.242A5.356,5.356,0,1,1,93,11.681,5.336,5.336,0,0,1,87.488,17.055Zm0-9.011a3.521,3.521,0,0,0-3.516,3.637,3.519,3.519,0,1,0,7.031,0A3.509,3.509,0,0,0,87.488,8.044ZM76.469,17.055A5.216,5.216,0,0,1,71.014,11.7a5.251,5.251,0,0,1,5.455-5.354,5.4,5.4,0,0,1,3.374,1.091,0.581,0.581,0,0,1,.121.909l-0.2.3a0.585,0.585,0,0,1-.909.162,3.918,3.918,0,0,0-2.283-.768,3.482,3.482,0,0,0-3.556,3.637,3.536,3.536,0,0,0,3.6,3.677,4.31,4.31,0,0,0,2.606-.929,0.569,0.569,0,0,1,.909.182l0.162,0.3a0.61,0.61,0,0,1-.182.889A5.7,5.7,0,0,1,76.469,17.055Zm-8.028-.242H67.673a0.589,0.589,0,0,1-.667-0.667V15.358a0.589,0.589,0,0,1,.667-0.667h0.768a0.589,0.589,0,0,1,.667.667v0.788A0.589,0.589,0,0,1,68.441,16.813Zm-4.845,0H62.969a0.6,0.6,0,0,1-.667-0.667V10.711c0-1.435-.283-2.566-1.919-2.566a3.529,3.529,0,0,0-3.414,3.778v4.223a0.589,0.589,0,0,1-.667.667H55.676a0.6,0.6,0,0,1-.667-0.667V7.256a0.6,0.6,0,0,1,.667-0.666h0.566a0.589,0.589,0,0,1,.667.666V8.166a3.175,3.175,0,0,1-.061.586h0.04a4.24,4.24,0,0,1,3.879-2.4c2.4,0,3.5,1.313,3.5,3.919v5.88A0.589,0.589,0,0,1,63.6,16.813ZM51.367,4.549H50.68a0.6,0.6,0,0,1-.667-0.667V3.216a0.589,0.589,0,0,1,.667-0.667h0.687a0.6,0.6,0,0,1,.667.667V3.882A0.606,0.606,0,0,1,51.367,4.549ZM42.512,17.055a5.356,5.356,0,1,1,5.516-5.374A5.336,5.336,0,0,1,42.512,17.055Zm0-9.011A3.521,3.521,0,0,0,39,11.681a3.519,3.519,0,1,0,7.031,0A3.509,3.509,0,0,0,42.512,8.044ZM32.394,17.055A5.216,5.216,0,0,1,26.939,11.7a5.251,5.251,0,0,1,5.455-5.354,5.4,5.4,0,0,1,3.374,1.091,0.581,0.581,0,0,1,.121.909l-0.2.3a0.585,0.585,0,0,1-.909.162,3.917,3.917,0,0,0-2.283-.768,3.482,3.482,0,0,0-3.556,3.637,3.536,3.536,0,0,0,3.6,3.677,4.31,4.31,0,0,0,2.606-.929,0.569,0.569,0,0,1,.909.182l0.162,0.3a0.61,0.61,0,0,1-.182.889A5.7,5.7,0,0,1,32.394,17.055Zm-7.6-.162A3.525,3.525,0,0,1,21,13.136V8.287H20.293a0.592,0.592,0,0,1-.647-0.666V7.358a0.6,0.6,0,0,1,.667-0.667h0.727V4.448a0.6,0.6,0,0,1,.667-0.667h0.586a0.589,0.589,0,0,1,.667.667V6.691h1.778a0.6,0.6,0,0,1,.667.667V7.62a0.592,0.592,0,0,1-.646.666h-1.8v4.546c0,1.939,1.192,2.242,1.94,2.3,0.525,0.04.707,0.2,0.707,0.666v0.425A0.648,0.648,0,0,1,24.8,16.894ZM17.342,4.549H16.655a0.6,0.6,0,0,1-.667-0.667V3.216a0.589,0.589,0,0,1,.667-0.667h0.687a0.6,0.6,0,0,1,.667.667V3.882A0.606,0.606,0,0,1,17.342,4.549ZM16.675,6.59H17.3a0.589,0.589,0,0,1,.667.666v8.89a0.589,0.589,0,0,1-.667.667H16.675a0.6,0.6,0,0,1-.667-0.667V7.256A0.6,0.6,0,0,1,16.675,6.59Zm34.025,0h0.626a0.589,0.589,0,0,1,.667.666v8.89a0.589,0.589,0,0,1-.667.667H50.7a0.6,0.6,0,0,1-.667-0.667V7.256A0.6,0.6,0,0,1,50.7,6.59Z"/>
  <path id="_2" data-name="#" class="cls-2" d="M10.1,9.049V9.006A3.508,3.508,0,0,0,12,5.762a3.515,3.515,0,0,0-2.07-3.331,6.747,6.747,0,0,0-2.771-.448H7V0.438A0.438,0.438,0,0,0,6.561,0H5.427a0.438,0.438,0,0,0-.438.438V1.983H4.013V0.438A0.438,0.438,0,0,0,3.576,0H2.423a0.438,0.438,0,0,0-.438.438V1.983H0.277A0.275,0.275,0,0,0,0,2.258v1.45a0.275,0.275,0,0,0,.275.275H1.985v11H0.35A0.352,0.352,0,0,0,0,15.336l0,1.3a0.352,0.352,0,0,0,.352.351H1.985v1.558a0.438,0.438,0,0,0,.438.438H3.576a0.438,0.438,0,0,0,.438-0.437V16.987H4.989v1.558a0.438,0.438,0,0,0,.438.438H6.561A0.438,0.438,0,0,0,7,18.545V16.987h1a7.072,7.072,0,0,0,2.262-.277A4.152,4.152,0,0,0,13.03,12.7,3.965,3.965,0,0,0,10.1,9.049ZM7.342,3.983a3.521,3.521,0,0,1,1.589.3,1.52,1.52,0,0,1,1.075,1.484,2.4,2.4,0,0,1-2.6,2.243h-3.4V3.983H7.342ZM9.424,14.774a3.623,3.623,0,0,1-1.345.214l-4.066,0V10.01H7.5c1.579,0,3.479,1.025,3.479,2.583A2.282,2.282,0,0,1,9.424,14.774Z"/>
</svg>